<svg width="92" height="85" viewBox="0 0 92 85" fill="none" xmlns="http://www.w3.org/2000/svg">
    <path d="M4.1552 1.17547L3.42523 2.32294L4.07097 2.8547C4.43596 3.13458 5.13785 3.41445 5.61514 3.44244C6.06435 3.47042 6.45741 3.66633 6.45741 3.83426C6.45741 4.03017 6.65394 4.19809 6.87854 4.19809C7.10315 4.19809 7.29968 4.394 7.29968 4.6179C7.29968 4.8418 7.44006 5.03771 7.60851 5.03771C7.77696 5.03771 8.0858 5.23362 8.33848 5.48551C8.59116 5.7094 8.95614 5.84934 9.15267 5.76538C9.37728 5.68142 9.54573 5.79337 9.54573 5.98928C9.54573 6.63298 11.2303 8.06033 12.241 8.25625C12.7744 8.34021 13.1956 8.56411 13.1956 8.76002C13.1956 9.20781 14.2063 10.0754 14.7397 10.0754C14.9363 10.0754 15.1889 10.1874 15.3012 10.3553C15.3855 10.4952 15.6101 10.5512 15.8066 10.4672C16.0031 10.4113 16.312 10.6911 16.5085 11.1109C16.9577 12.1185 18.0246 12.8741 19.0353 12.9581C19.653 12.9861 19.8214 13.126 19.7091 13.4899C19.653 13.7697 19.7372 13.9936 19.9057 13.9936C20.0741 13.9936 20.6356 14.4414 21.141 14.9732C21.6744 15.5609 22.2921 15.9527 22.6851 15.9527C23.0501 15.9527 23.2747 16.0647 23.1905 16.1766C22.994 16.5125 23.8643 17.66 24.1732 17.492C24.3135 17.3801 24.5101 17.52 24.5943 17.7439C24.6785 17.9958 24.9312 18.1917 25.1558 18.1917C25.3804 18.1917 25.5489 18.2757 25.5769 18.3876C25.5769 18.5276 25.6331 18.9194 25.6612 19.3112C25.7173 19.703 25.5208 20.4027 25.24 20.9065C24.9593 21.4103 24.6504 22.4458 24.5381 23.2014C24.4258 23.9851 24.2574 24.5448 24.117 24.4609C23.9766 24.3769 23.8643 24.6848 23.8643 25.1606C23.8643 25.6083 23.6678 26.1961 23.387 26.448C23.0501 26.8118 23.0221 26.9797 23.2747 27.1476C23.5555 27.3156 23.4993 27.4835 23.0782 27.8753C22.5167 28.4071 21.7025 30.3942 21.534 31.5696C21.4779 31.9335 21.2814 32.3253 21.0568 32.4652C20.8602 32.5772 20.776 32.8011 20.8883 32.969C20.9725 33.1089 20.8041 33.5567 20.4952 33.9486C20.0741 34.4803 20.018 34.7042 20.2706 34.7882C20.5514 34.9001 20.5514 34.9561 20.2987 34.9561C20.1022 34.9841 19.9337 35.18 19.9337 35.4039C19.9337 35.6278 19.5968 36.2715 19.2038 36.8592C18.8107 37.447 18.558 38.1187 18.6142 38.3985C18.6984 38.6784 18.6703 38.9023 18.5861 38.9023C18.4738 38.9023 18.2211 39.3221 18.0246 39.7979C17.8281 40.3017 17.5192 40.9734 17.3508 41.2812C16.7331 42.4287 16.5647 42.7366 15.6101 44.8636C15.0486 46.067 14.6274 47.1306 14.6274 47.2425C14.7397 47.8862 14.5713 48.6978 14.3467 48.5859C14.1501 48.446 13.3079 50.629 13.4763 50.9088C13.5044 50.9648 13.3921 51.1047 13.2517 51.1887C12.7744 51.4966 11.5953 53.8755 11.7356 54.2673C11.8199 54.4912 11.7356 54.5752 11.5391 54.4632C11.3707 54.3513 11.2022 54.4072 11.2022 54.5472C11.1741 54.7151 11.118 54.967 11.0899 55.1349C11.0618 55.2749 11.0057 55.6107 10.9776 55.8626C10.9776 56.0865 10.8091 56.1984 10.6407 56.0865C10.4722 55.9745 10.3599 56.1145 10.4161 56.4223C10.5284 57.094 10.1353 58.2135 9.82649 58.2135C9.68611 58.2135 9.62996 58.3814 9.71419 58.6053C9.79841 58.8292 9.62996 59.1371 9.29305 59.333C8.95614 59.5009 8.70346 59.8088 8.70346 60.0047C8.70346 60.2286 8.50693 60.8723 8.22617 61.46C7.97349 62.0758 7.74889 62.7754 7.72081 63.0553C7.69274 63.3632 7.52428 63.671 7.32775 63.811C7.13122 63.9229 6.99084 64.0908 6.99084 64.2028C7.07507 64.7345 6.96277 64.9584 6.40126 65.5182C6.03627 65.854 5.92397 66.0499 6.1205 65.938C6.59778 65.6581 6.54163 66.1899 6.03627 66.6097C5.41861 67.1415 4.74479 68.6248 4.91324 69.1285C4.99747 69.4084 4.85709 69.7723 4.63249 69.9682C4.37981 70.1641 4.2675 70.5559 4.35173 70.8358C4.46403 71.1716 4.37981 71.4235 4.09905 71.5355C3.84637 71.6194 3.64984 72.0112 3.64984 72.3471C3.64984 72.7109 3.50946 73.0468 3.36908 73.1027C3.20063 73.1587 3.03217 73.4946 2.94795 73.8584C2.8918 74.2502 2.69527 74.67 2.55489 74.81C2.41451 74.9499 2.35836 75.2578 2.44258 75.4817C2.52681 75.7056 2.44258 76.0134 2.24605 76.1254C2.02145 76.2653 1.85299 76.7691 1.82492 77.2449C1.79684 77.7206 1.60031 78.2524 1.37571 78.3923C1.1511 78.5323 1.09495 78.6442 1.20725 78.6442C1.34763 78.6442 1.20725 79.064 0.954573 79.5398C0.701892 80.0436 0.364984 80.6873 0.252681 80.9392C0.112303 81.219 0 81.9467 0 82.5624C0 83.57 0.084227 83.6819 0.673816 83.6819C1.06688 83.6819 1.45994 83.7939 1.54416 83.9618C1.62839 84.1017 1.9653 84.2417 2.24605 84.2417C2.52681 84.2417 2.8918 84.4376 3.03217 84.6895C3.2287 85.0533 3.42523 85.0813 3.81829 84.8574C4.12712 84.6895 4.57634 84.6615 4.9694 84.8294C5.47476 84.9973 5.67129 84.9693 5.78359 84.6615C5.89589 84.3816 6.1205 84.3536 6.56971 84.5215C7.24353 84.7734 8.87191 84.5215 10.2195 83.9898C10.6688 83.7939 11.2303 83.7379 11.4549 83.8219C11.6795 83.9058 12.1287 83.8219 12.4656 83.598C12.8025 83.4021 13.3079 83.2341 13.6167 83.2621C13.9255 83.2621 14.2624 83.1782 14.3467 83.0382C14.4309 82.9263 15.2451 82.7863 16.1435 82.7304C17.2385 82.6464 17.9123 82.4505 18.1369 82.1426C18.3334 81.8907 18.5299 81.8348 18.558 81.9747C18.6703 82.2826 20.3829 81.8068 21.0848 81.275C21.3094 81.1351 21.871 81.0231 22.3202 81.0231C22.7975 81.0511 23.3028 80.9951 23.4432 80.8832C23.6116 80.7712 24.5662 80.5194 25.6331 80.2955C26.6719 80.0996 27.5142 79.8477 27.5142 79.7637C27.5142 79.5678 28.0195 79.4838 29.1426 79.4558C29.4795 79.4279 29.7602 79.3439 29.7602 79.2319C29.7602 79.12 30.0691 78.8681 30.4621 78.7002C30.9956 78.4483 31.164 78.4483 31.164 78.7282C31.164 78.9521 31.2482 78.9521 31.4167 78.6722C31.5571 78.4483 31.922 78.3364 32.259 78.4483C32.5678 78.5323 33.3258 78.4763 33.8873 78.3084C34.4769 78.1684 35.1508 78.0285 35.3754 78.0005C35.6 77.9725 36.0772 77.7766 36.4422 77.5807C36.8914 77.3288 37.0599 77.3288 37.0599 77.5527C37.0599 77.7486 37.2564 77.7766 37.5653 77.6647C38.3795 77.3288 38.8848 77.3008 39.0533 77.5807C39.1656 77.7206 39.3902 77.6927 39.6148 77.4688C39.9517 77.1609 40.5132 77.021 40.794 77.2169C41.0747 77.4408 42.9558 77.4408 42.9558 77.2169C42.9558 77.0769 43.2646 77.021 43.6577 77.1329C44.0788 77.2449 44.3596 77.1889 44.3596 76.993C44.3596 76.825 44.5561 76.6851 44.7807 76.6851C45.0053 76.6851 45.2018 76.825 45.2018 76.993C45.2018 77.2169 45.3422 77.2169 45.623 76.965C45.8476 76.7691 46.4091 76.6851 46.8864 76.7411C47.3356 76.825 47.7287 76.7691 47.7287 76.6571C47.7287 76.5452 47.9533 76.4892 48.234 76.5452C48.4867 76.6011 48.7113 76.6571 48.7113 76.6851C48.7113 76.7131 49.2447 76.7691 49.9186 76.825C50.5643 76.881 51.0977 76.7971 51.0977 76.6571C51.0977 76.4892 51.3504 76.5172 51.6873 76.6851C52.1085 76.909 52.3611 76.909 52.6419 76.6851C52.9227 76.4332 53.1753 76.4332 53.6245 76.6851C54.0738 76.909 54.3264 76.909 54.6072 76.6851C54.8318 76.4892 55.0564 76.4892 55.1406 76.6571C55.281 76.853 57.5271 76.881 57.7797 76.6851C57.9763 76.4892 58.5659 76.5732 58.7624 76.825C58.9028 77.021 59.0151 77.021 59.1835 76.7971C59.2958 76.6571 59.6889 76.5172 60.082 76.5172C60.475 76.5172 60.8962 76.6571 61.0085 76.7971C61.1769 77.021 61.2892 76.993 61.4015 76.7691C61.4857 76.4892 61.6823 76.4892 62.0753 76.7131C62.7491 77.0489 65.9778 77.3008 65.9778 76.993C65.9778 76.881 66.2305 76.7971 66.5394 76.7691C66.8482 76.7411 67.0447 76.825 66.9605 76.965C66.8763 77.1049 67.2413 77.1329 67.7747 77.0489C68.3081 76.965 68.7854 77.021 68.8977 77.2169C69.01 77.3848 69.2346 77.5247 69.375 77.5247C69.5435 77.5247 69.5996 77.4128 69.4873 77.2449C69.4031 77.1049 69.6838 77.1049 70.1892 77.2728C70.6665 77.4408 71.228 77.4967 71.4526 77.4128C71.6772 77.3288 71.8737 77.3848 71.8737 77.4967C71.8737 77.6367 72.5756 77.7206 73.4179 77.6927C74.2602 77.6367 74.8778 77.7206 74.7936 77.8326C74.7375 77.9445 75.1586 78.0285 75.7201 78.0005C76.3097 77.9725 77.0958 78.0565 77.4608 78.1964C77.91 78.3364 78.0504 78.3364 77.9381 78.1404C77.7416 77.8046 78.8646 77.7766 79.3138 78.1125C79.4823 78.2244 80.128 78.2804 80.8018 78.2524C81.4475 78.2244 81.981 78.2804 81.981 78.3923C81.981 78.4763 82.8794 78.5323 83.9463 78.5043C85.0412 78.4483 85.9116 78.5323 85.9116 78.6722C85.9116 78.9241 90.7125 78.7562 91.6109 78.4763C91.9198 78.3643 92.0602 78.1404 91.9759 77.8886C91.8917 77.6647 91.7232 76.993 91.639 76.3772C91.5267 75.7895 91.3302 75.2857 91.1898 75.2857C91.0494 75.2857 90.9652 75.0059 91.0214 74.642C91.0775 74.2502 90.9652 74.0263 90.6844 74.0263C90.2352 74.0263 89.2807 73.1307 89.2807 72.7109C89.2807 72.571 89.1964 72.515 89.0841 72.571C88.8595 72.7109 88.2419 72.2071 88.2699 71.8993C88.298 71.8153 87.8488 71.3675 87.3154 70.9197C86.7819 70.4719 86.2766 69.9962 86.2204 69.8842C86.1643 69.7443 85.8274 69.5484 85.4624 69.4084C85.0974 69.2685 84.7886 68.9606 84.7886 68.7087C84.7886 68.4848 84.6763 68.2889 84.5639 68.2889C84.2551 68.2889 83.0479 67.2814 83.0759 67.0575C83.104 66.9735 83.0198 66.9176 82.9356 66.9455C82.8513 67.0015 82.5987 66.6937 82.374 66.2459C82.1494 65.826 81.8687 65.4902 81.7564 65.4902C81.6441 65.4902 81.1668 65.1264 80.7176 64.7066C80.2403 64.2588 79.5103 63.811 79.0892 63.699C78.6681 63.6151 78.3311 63.3352 78.3311 63.1113C78.3311 62.9154 78.0785 62.5515 77.7696 62.3276C77.4608 62.1037 77.2643 61.8798 77.3485 61.7959C77.4327 61.7119 77.3204 61.488 77.0677 61.2921C76.7308 61.0122 76.6466 61.0122 76.6466 61.3201C76.6185 61.544 76.422 61.3481 76.1974 60.9283C75.6078 59.8088 74.9059 59.0531 74.4848 59.0531C74.3163 59.0531 74.0917 58.8012 73.9794 58.5214C73.8952 58.2415 73.5021 57.9057 73.1371 57.8217C72.6879 57.7097 72.4353 57.4579 72.4353 57.094C72.4353 56.7302 72.2387 56.5343 71.8737 56.5343C71.5649 56.5343 71.3122 56.3943 71.3122 56.2264C71.3122 55.8346 70.2454 54.911 69.4312 54.5752C69.0662 54.4352 68.7854 54.1274 68.7854 53.8755C68.7854 53.6516 68.6731 53.4557 68.5608 53.4557C68.252 53.4557 67.0728 52.4481 67.0166 52.1403C66.9886 52.0283 66.8763 51.9444 66.764 51.9724C66.6517 52.0283 66.4832 51.8044 66.399 51.4966C66.2867 51.1887 66.1182 50.9368 66.0059 50.9368C65.8655 50.9368 65.2198 50.4331 64.5741 49.8173C63.9283 49.2016 63.2826 48.6978 63.1422 48.6978C63.0018 48.6978 62.8895 48.5019 62.8895 48.278C62.8895 48.0541 62.7772 47.8582 62.6088 47.8582C62.4684 47.8582 61.963 47.4664 61.4857 46.9906C61.0365 46.4869 60.6435 46.207 60.6435 46.3469C60.6154 46.4869 60.4189 46.263 60.1943 45.8152C59.9697 45.3674 59.5485 45.0595 59.2116 45.0595C58.9028 45.0595 58.7062 44.9476 58.7905 44.8356C58.9309 44.5837 57.5551 43.2123 57.2744 43.2963C57.1902 43.2963 56.9656 43.1564 56.769 42.9325C56.5725 42.7086 56.4883 42.5406 56.5725 42.5406C56.6567 42.5406 56.404 42.2328 56.011 41.841C55.6179 41.4491 55.3091 40.9734 55.3091 40.8334C55.3091 40.6655 55.1406 40.5815 54.9722 40.6655C54.6353 40.7774 52.5015 38.7064 52.5015 38.2586C52.5015 38.1466 52.305 38.0627 52.0523 38.0627C51.8277 38.0627 51.6873 37.9507 51.7716 37.8388C51.9681 37.5309 50.5362 36.2435 49.7501 35.9916C49.3851 35.8517 49.1605 35.7118 49.2447 35.6278C49.4693 35.4039 46.8022 33.025 46.5495 33.1929C46.4091 33.2769 46.3249 33.1929 46.3249 33.025C46.3249 32.6052 45.3141 31.7376 44.163 31.1778C43.6296 30.9259 43.3208 30.5901 43.405 30.3662C43.4892 30.1703 43.3208 29.9184 42.9839 29.8064C42.675 29.7225 42.3381 29.3866 42.2539 29.0788C42.1416 28.7709 41.8889 28.575 41.6362 28.603C41.4116 28.659 41.0747 28.4351 40.8782 28.1552C40.4571 27.3995 39.2217 26.336 38.8287 26.308C38.6321 26.308 38.4637 26.1681 38.4637 26.0282C38.4637 25.8602 38.1548 25.6083 37.7618 25.4124C37.3968 25.2445 37.1441 25.0206 37.2003 24.8807C37.2845 24.7687 37.088 24.5728 36.7791 24.4889C36.4422 24.3769 36.0492 23.9851 35.8807 23.6213C35.7123 23.2294 35.4315 22.9775 35.2631 23.0335C34.9542 23.1455 34.2523 22.5857 34.2523 22.2779C34.2523 21.942 33.017 20.7106 32.6801 20.7106C32.5116 20.7106 32.287 20.5147 32.1747 20.2908C32.0905 20.0669 31.922 19.871 31.8097 19.8989C31.2202 20.0109 30.8832 19.843 30.8832 19.4512C30.8832 19.2273 30.7148 19.0313 30.4902 19.0313C30.2656 19.0313 29.9848 18.7795 29.9006 18.4436C29.5918 17.492 29.5356 16.5125 29.7883 16.5125C29.9287 16.5125 30.041 16.3166 30.041 16.0927C30.041 15.8688 30.1814 15.6729 30.3217 15.6729C30.4902 15.6729 30.6025 15.421 30.6025 15.1131C30.6025 14.8053 30.799 14.4694 31.0236 14.3855C31.529 14.1895 31.5851 13.0421 31.1079 12.6782C30.9113 12.5103 30.3498 12.2584 29.8725 12.1185C28.8899 11.7826 27.9634 12.2584 28.2161 12.9301C28.3003 13.154 28.188 13.5179 27.9353 13.7138C27.7107 13.9097 27.5142 14.1895 27.5142 14.3575C27.5142 14.4974 27.2334 14.8612 26.8965 15.1691C26.2788 15.7009 26.2508 15.7009 26.0262 15.1411C25.8858 14.8612 25.4646 14.5254 25.0997 14.4414C24.6785 14.3295 24.4258 14.0496 24.4258 13.7138C24.4258 13.294 24.2293 13.154 23.7239 13.154C23.3309 13.154 23.0221 13.0141 23.0221 12.8462C23.0221 12.3984 21.7867 11.2789 21.0568 11.055C20.7479 10.943 20.5514 10.7471 20.6356 10.6072C20.7479 10.4672 20.6075 10.3553 20.3829 10.3553C20.1303 10.3553 19.5687 9.96347 19.0915 9.48768C18.6423 8.98391 18.2492 8.73203 18.2492 8.89995C18.2492 9.09586 17.7719 8.788 17.2104 8.25625C16.6489 7.72449 15.947 7.19273 15.6662 7.10877C15.3855 7.02481 15.1609 6.85688 15.1609 6.71695C15.1609 6.605 14.852 6.40909 14.459 6.32512C14.0659 6.21317 13.8132 6.01726 13.8975 5.87733C13.9817 5.7094 13.8694 5.59745 13.6448 5.59745C13.3921 5.59745 12.8306 5.20563 12.3533 4.72985C11.8479 4.19809 11.511 4.00218 11.511 4.22608C11.483 4.44998 11.2864 4.28205 11.0618 3.83426C10.8372 3.38646 10.4161 3.0786 10.0792 3.0786C9.77034 3.0786 9.57381 2.96665 9.65803 2.8547C9.85456 2.51886 8.47886 1.5393 7.46813 1.28742C7.047 1.17547 6.73816 1.00754 6.85047 0.923581C7.01892 0.755658 5.53091 1.64537e-06 5.0817 1.64537e-06C4.99747 1.64537e-06 4.57634 0.53176 4.1552 1.17547ZM30.2094 13.3499C29.9287 13.6298 29.676 13.21 29.9287 12.8462C30.0971 12.5383 30.1533 12.5383 30.2656 12.8462C30.3217 13.0421 30.2937 13.266 30.2094 13.3499ZM23.3028 14.8053C23.3028 14.9732 23.1905 15.1691 23.0221 15.2531C22.8817 15.337 22.7413 15.2251 22.7413 15.0012C22.7413 14.7493 22.8817 14.5534 23.0221 14.5534C23.1905 14.5534 23.3028 14.6653 23.3028 14.8053ZM24.7066 15.9248C24.7066 16.0647 24.5101 16.2326 24.3135 16.3166C24.0328 16.4285 23.9486 16.3446 24.0609 16.0647C24.2293 15.6449 24.7066 15.5329 24.7066 15.9248ZM30.3217 22.2219C30.3217 22.7257 32.2309 24.4049 32.5678 24.209C32.7082 24.125 32.9889 24.3769 33.1574 24.8247C33.5224 25.7763 34.505 26.8678 35.0104 26.8678C35.2069 26.8678 35.3754 27.0077 35.3754 27.1756C35.3754 27.3436 35.628 27.3995 35.9369 27.2876C36.358 27.1476 36.4422 27.2036 36.3299 27.5395C36.1896 27.9313 36.5265 28.3231 38.1268 29.6945C38.3233 29.8624 38.6602 29.9184 38.8848 29.8624C39.1094 29.7505 39.306 29.9464 39.4183 30.3382C39.5025 30.702 40.1201 31.4577 40.7659 32.0174C41.4397 32.6052 42.4504 33.5008 43.04 34.0325C43.6015 34.5643 44.163 34.9841 44.2473 34.9841C44.3315 34.9841 44.8649 35.4879 45.4545 36.1036C46.016 36.7193 46.6337 37.2231 46.8022 37.2231C46.9706 37.2231 47.2514 37.391 47.4479 37.6149C47.6164 37.8388 47.9533 37.9507 48.1779 37.8668C48.4305 37.7828 48.5148 37.8668 48.4305 38.1187C48.3463 38.3426 48.6832 38.8463 49.2728 39.3221C49.8063 39.7979 50.2555 40.2457 50.2555 40.3856C50.2555 40.6935 51.0977 41.5051 52.0242 42.0649C52.4454 42.3447 52.7823 42.6806 52.7823 42.8205C52.7823 43.4083 54.8318 45.0035 55.3933 44.8356C55.5056 44.8076 55.5898 44.9755 55.5898 45.1994C55.5898 45.9271 57.499 47.6623 58.1167 47.4944C58.4536 47.4104 58.6782 47.4664 58.6501 47.6623C58.4816 48.6419 60.082 50.3491 61.1488 50.3771C61.6261 50.3771 61.7665 50.545 61.7665 51.0768C61.7665 51.5246 61.935 51.7764 62.1876 51.7764C62.4122 51.7764 62.6088 51.9444 62.6088 52.1683C62.6088 52.5041 63.816 53.0639 64.3214 52.9519C64.4337 52.9239 64.6021 53.2598 64.7144 53.6796C64.9671 54.7151 66.1463 55.9186 67.129 56.1145C67.5782 56.2264 67.8589 56.4223 67.7747 56.5903C67.5782 56.8981 70.0207 59.333 70.5823 59.333C70.7788 59.333 71.0876 59.6409 71.2561 60.0327C71.4245 60.4245 71.7334 60.7324 71.9299 60.7324C72.1264 60.7604 72.6037 61.1242 72.9968 61.572C73.3618 62.0478 73.839 62.4116 74.0356 62.4116C74.2321 62.4116 74.4006 62.6075 74.4006 62.8314C74.4006 63.0553 74.5409 63.2512 74.6813 63.2512C74.8498 63.2512 74.934 63.3632 74.9059 63.5031C74.7936 63.811 76.5343 65.4902 76.9835 65.5182C77.18 65.5462 77.517 65.5462 77.7135 65.5182C77.91 65.4902 78.0223 65.5742 77.9942 65.6861C77.8819 66.0499 78.9488 67.4493 79.2015 67.2814C79.3419 67.1974 79.4542 67.2814 79.4542 67.4213C79.4542 67.5892 79.7069 67.7292 79.9876 67.7292C80.3245 67.7292 80.5772 68.0091 80.7176 68.4848C80.9703 69.5484 82.1494 70.7518 83.1321 70.9477C83.5813 71.0597 83.8901 71.2556 83.8059 71.3955C83.5251 71.8153 85.6027 73.6905 86.1923 73.5225C86.5573 73.4386 86.7258 73.5505 86.6977 73.8584C86.6977 74.1103 86.7819 74.5581 86.8942 74.8659C87.0346 75.3417 86.8942 75.4817 85.7712 75.7335C84.8166 75.9574 84.4236 75.9295 84.227 75.7056C84.0586 75.4817 83.4409 75.3977 82.6829 75.4537C81.981 75.5376 81.4195 75.4817 81.4195 75.3697C81.4195 75.2298 80.6334 75.1178 79.6788 75.1178C78.6961 75.0898 77.4608 75.0059 76.9274 74.9499C76.3939 74.8659 75.5797 74.9219 75.1305 75.0339C74.569 75.2018 74.2321 75.1738 74.0917 74.9499C73.811 74.5301 71.2842 74.3902 70.8349 74.782C70.6384 74.9499 70.47 74.9779 70.47 74.8379C70.47 74.0823 67.5782 73.6065 66.5113 74.1942C66.1182 74.3902 65.8375 74.3902 65.5848 74.1942C65.304 73.9703 63.5914 73.9703 62.7211 74.2222C62.5807 74.2502 62.1034 74.0823 61.6261 73.8304C60.475 73.2427 58.5378 73.4106 57.9482 74.1383C57.6955 74.4741 57.6113 74.4461 57.4709 74.0823C57.3305 73.7464 57.0217 73.6625 56.0391 73.7464C55.281 73.8304 54.7476 73.7744 54.7476 73.6065C54.7476 73.1587 54.2422 73.2986 53.6807 73.9144C53.2596 74.3622 53.0911 74.3902 52.9788 74.0823C52.8104 73.6345 51.6593 73.2427 51.6593 73.6345C51.6593 73.7744 51.0977 73.8304 50.3678 73.7464C49.4693 73.6625 49.0482 73.7464 48.964 74.0263C48.8236 74.3622 48.6832 74.3622 48.0936 73.9703C47.2794 73.4386 45.8757 73.4386 44.8369 73.9703C44.3596 74.2222 43.4612 74.3342 42.5347 74.2782C41.4959 74.2222 40.8782 74.3342 40.6255 74.5861C40.3448 74.8379 40.1201 74.8659 39.9517 74.698C39.2779 74.0263 36.4703 74.3062 35.8807 75.1178C35.7684 75.2857 35.5438 75.2578 35.3192 75.0618C35.0946 74.8939 34.7858 74.8659 34.5612 75.0059C34.3366 75.1178 33.9996 75.1738 33.775 75.0898C33.5785 75.0059 33.4101 75.0898 33.4101 75.2857C33.4101 75.4817 33.2135 75.5656 32.9889 75.4537C32.7643 75.3697 32.4836 75.4817 32.3432 75.7335C32.1747 76.0694 31.9501 76.0694 31.2202 75.8175C30.2937 75.5096 29.0583 75.7895 28.0757 76.5452C27.8511 76.7131 26.7842 77.021 25.6892 77.2169C22.6851 77.7766 20.2145 78.5603 20.2145 78.9801C20.2145 79.12 19.9618 79.092 19.6811 78.9241C19.3161 78.7562 19.0634 78.7282 18.9511 78.9241C18.8669 79.064 18.6142 79.12 18.4176 79.036C18.193 78.9521 17.9404 79.0081 17.8281 79.176C17.7438 79.3439 17.4069 79.4838 17.0981 79.4838C16.8173 79.4838 16.5647 79.5678 16.5647 79.6797C16.5647 79.9036 16.1154 79.9596 13.729 80.1275C13.0271 80.1555 12.0725 80.4354 11.6233 80.7433C10.8934 81.219 9.48958 81.4709 7.63658 81.4429C7.29968 81.4429 6.93469 81.6389 6.82239 81.8628C6.71009 82.1986 6.56971 82.2266 6.28895 81.9747C6.06435 81.8068 5.89589 81.7508 5.89589 81.8628C5.89589 81.9747 5.69936 81.9187 5.47476 81.7228C5.25015 81.5549 4.94132 81.4709 4.77287 81.5829C4.60441 81.6948 4.1552 81.5549 3.76214 81.331L3.08832 80.8552L3.9306 79.9596C4.77287 79.064 4.85709 78.8121 4.82902 77.021C4.82902 76.5452 4.94132 76.1254 5.0817 76.1254C5.33438 76.1254 5.95204 74.9219 6.0082 74.3622C6.03627 74.2502 6.20473 74.0263 6.42933 73.9144C6.68201 73.7464 6.76624 73.3826 6.65394 72.8788C6.54163 72.2911 6.68201 71.9832 7.21545 71.5634C7.69274 71.1716 7.80504 70.9197 7.60851 70.7238C7.41198 70.5279 7.41198 70.332 7.60851 70.0801C7.77696 69.8842 7.91734 69.2685 7.94542 68.7367C7.97349 68.177 8.11387 67.7292 8.22617 67.7292C8.95614 67.7292 10.1915 65.6301 10.0511 64.6226C9.99494 64.2028 10.2476 63.671 10.7249 63.1393C11.2864 62.5236 11.4549 62.0758 11.3987 61.3761C11.3707 60.8723 11.4549 60.4525 11.5672 60.4525C12.4656 60.4525 13.5606 58.3814 13.3359 57.094C13.2236 56.5063 13.3079 56.2544 13.6729 56.1425C14.2624 55.9465 15.4978 53.5117 15.1328 53.2878C14.9924 53.2038 15.2451 52.756 15.6943 52.2802C16.1435 51.7764 16.5927 50.9648 16.705 50.4331C16.8173 49.8733 17.1823 48.8098 17.5754 48.0541C17.9404 47.2705 18.2492 46.4869 18.2492 46.2909C18.2492 46.095 18.3896 45.8991 18.558 45.8431C18.6984 45.7872 18.8669 45.5633 18.8949 45.3394C18.9511 45.1155 19.0915 44.7516 19.2038 44.5277C19.4564 44.1639 19.653 43.2403 19.7372 42.1768C19.7653 41.9249 19.9337 41.701 20.1303 41.701C20.4672 41.701 21.1129 40.4976 21.4779 39.1822C21.5902 38.7904 21.871 38.2866 22.0956 38.0347C22.2921 37.7828 22.4605 37.475 22.4325 37.335C22.3482 36.8312 22.4605 36.4114 22.8255 36.0476C23.5836 35.2919 24.0328 34.0045 23.8363 33.2209C23.6678 32.6332 23.7239 32.3813 24.0328 32.2693C24.5943 32.0734 25.24 30.5621 25.3523 29.2467C25.3804 28.9388 25.6892 28.4071 26.0262 28.0712C26.6719 27.3995 26.9807 26.308 26.8404 25.1326C26.7842 24.7128 26.8965 24.3209 27.093 24.237C27.2896 24.181 27.5422 23.6772 27.6545 23.1735C27.7668 22.6697 28.0195 22.1659 28.188 22.054C28.6653 21.7461 30.3217 21.886 30.3217 22.2219ZM71.3122 58.1855C71.3122 58.3255 71.1157 58.4934 70.9192 58.5773C70.6384 58.6893 70.5542 58.6053 70.6665 58.3255C70.8349 57.9057 71.3122 57.7937 71.3122 58.1855ZM72.716 59.333C72.716 59.4729 72.6037 59.6129 72.4353 59.6129C72.2949 59.6129 72.1545 59.4729 72.1545 59.333C72.1545 59.1651 72.2949 59.0531 72.4353 59.0531C72.6037 59.0531 72.716 59.1651 72.716 59.333ZM6.56971 71.0317C6.65394 71.1716 6.54163 71.2836 6.31703 71.2836C6.09242 71.2836 5.89589 71.1716 5.89589 71.0317C5.89589 70.9197 6.0082 70.8078 6.14857 70.8078C6.31703 70.8078 6.48548 70.9197 6.56971 71.0317ZM5.61514 72.487C5.61514 72.627 5.47476 72.7669 5.3063 72.7669C5.16593 72.7669 5.10977 72.627 5.194 72.487C5.27823 72.3191 5.41861 72.2071 5.50283 72.2071C5.55898 72.2071 5.61514 72.3191 5.61514 72.487ZM52.7823 74.8379C52.7823 74.9219 52.67 75.0618 52.5015 75.1458C52.3611 75.2298 52.2208 75.1738 52.2208 75.0339C52.2208 74.8659 52.3611 74.726 52.5015 74.726C52.67 74.726 52.7823 74.782 52.7823 74.8379ZM54.1861 75.0059C54.1861 75.1458 54.1299 75.2857 54.0738 75.2857C53.9895 75.2857 53.8492 75.1458 53.7649 75.0059C53.6807 74.8379 53.7369 74.726 53.8772 74.726C54.0457 74.726 54.1861 74.8379 54.1861 75.0059ZM90.5441 75.5656C90.6283 75.7056 90.6002 75.8455 90.4318 75.8455C90.2914 75.8455 90.0668 75.7056 89.9826 75.5656C89.8983 75.3977 89.9264 75.2857 90.0949 75.2857C90.2352 75.2857 90.4598 75.3977 90.5441 75.5656Z"
          fill="white"/>
    <path d="M27.9353 40.7775C27.8511 41.3652 27.7107 42.1209 27.6265 42.4567C27.5142 43.0445 27.5703 43.0724 28.2161 42.8206C28.8337 42.5967 28.9741 42.6246 29.1707 43.1844C29.4233 43.8561 29.0864 44.2759 28.4688 44.024C28.3003 43.968 27.9353 44.1919 27.6826 44.5558C27.43 44.8916 27.2334 45.0595 27.2334 44.9196C27.2334 44.7797 26.7842 45.0875 26.2508 45.6193C25.6893 46.151 25.3243 46.7388 25.3804 46.9347C25.4647 47.1306 25.4085 47.2985 25.2681 47.2985C25.0997 47.2985 24.9874 47.4944 24.9874 47.7463C24.9874 47.9702 24.8751 48.0822 24.7066 47.9982C24.5382 47.8863 24.4259 48.1381 24.4259 48.53C24.4259 48.9218 24.2855 49.2576 24.117 49.2576C23.9767 49.2576 23.8924 49.3696 23.9767 49.5095C24.0609 49.6495 23.9486 49.8454 23.6959 49.9293C23.4151 50.0413 23.3028 50.2932 23.4151 50.545C23.4994 50.7689 23.4432 51.2167 23.2748 51.5246C22.9659 52.1403 22.7132 55.6947 22.994 55.6947C23.1063 55.6947 23.1905 55.9466 23.2186 56.2544C23.2467 56.5623 23.1625 56.8142 23.0221 56.8142C22.9098 56.8142 22.9659 57.3739 23.1905 58.0736C23.5836 59.389 23.5836 59.417 23.5836 59.9208C23.5836 60.0607 23.6959 60.1447 23.8363 60.0607C23.9767 59.9768 24.2855 60.3126 24.5101 60.8164C25.0155 61.8239 26.4473 63.2513 26.9807 63.2513C27.1773 63.2513 27.2334 63.3352 27.1492 63.4472C26.7842 63.783 29.0864 64.9025 30.2656 64.9585C30.9113 65.0145 31.4448 65.1264 31.4448 65.2104C31.4448 65.3223 32.1467 65.3783 32.9889 65.3783C33.8312 65.3783 34.5331 65.2663 34.5331 65.1544C34.5331 65.0145 34.8419 64.9865 35.2069 65.0984C35.5719 65.1824 35.965 65.1264 36.0492 64.9585C36.1615 64.7906 36.4703 64.6506 36.7511 64.6506C37.0318 64.6506 37.5934 64.3428 38.0145 63.9509C38.4076 63.5871 38.941 63.3352 39.1656 63.4192C39.4183 63.5311 39.5867 63.4192 39.5867 63.1673C39.5867 62.9154 40.0079 62.5796 40.5413 62.3837C41.0747 62.1877 41.4678 61.9359 41.3836 61.8239C41.3274 61.712 41.6363 61.4881 42.0855 61.3481C42.5347 61.1802 43.0681 60.7604 43.2646 60.3966C43.4612 60.0607 43.77 59.5849 43.9946 59.389C44.2192 59.1651 44.3034 58.7453 44.1911 58.4375C44.1069 58.1016 44.1631 57.7658 44.3596 57.6538C44.5842 57.5139 44.6404 57.234 44.5 56.9261C44.1631 56.1705 44.1631 55.8626 44.5 55.6107C44.6965 55.4708 44.6684 55.3589 44.4719 55.1909C44.2754 55.079 44.1911 54.4633 44.2473 53.7916C44.3034 53.0919 44.2192 52.6721 44.0788 52.756C43.9104 52.868 43.7981 52.6161 43.7981 52.2243C43.7981 51.2727 42.7312 49.2576 42.2258 49.2576C42.0012 49.2576 41.8328 49.0617 41.8328 48.8378C41.8328 48.5859 41.524 48.2781 41.159 48.1102C40.7659 47.9142 40.5413 47.6344 40.6255 47.4105C40.7098 47.1866 40.6536 47.0186 40.5132 47.0186C40.1763 47.0186 38.9691 46.0111 38.9971 45.7872C39.0252 45.7032 38.941 45.6473 38.8568 45.6753C38.4637 45.8432 37.9303 44.3039 38.0706 43.4643C38.2952 42.2888 37.6214 41.5331 36.8072 41.9809C36.4423 42.1489 36.1896 42.1769 36.0773 41.9809C35.993 41.841 35.4035 41.785 34.7858 41.841C33.9997 41.925 33.6066 41.841 33.4943 41.5331C33.4101 41.3092 33.0451 41.1413 32.6801 41.1413C32.3151 41.1413 32.0063 41.0574 32.0063 40.9174C32.0063 40.6096 29.8445 39.9938 29.3953 40.1898C29.1707 40.2737 28.8899 40.2177 28.7776 40.0498C28.4407 39.4621 28.1038 39.742 27.9353 40.7775ZM35.3754 46.207C35.3754 46.347 35.6281 46.4589 35.9088 46.4589C36.2738 46.4589 36.4984 46.7108 36.6388 47.2985C36.8072 48.1102 38.5479 49.8174 39.1937 49.8174C39.3902 49.8174 39.6148 50.1252 39.699 50.5171C39.9236 51.3847 40.7098 52.3362 41.2151 52.3362C41.4678 52.3362 41.4959 52.4762 41.2993 52.84C41.159 53.1199 41.1028 53.8475 41.159 54.4353C41.2432 55.051 41.3274 55.7227 41.3274 55.8906C41.3555 56.0865 41.4959 56.2544 41.6363 56.2544C41.8047 56.2544 41.7766 56.3944 41.6082 56.5903C41.4397 56.7862 41.3274 57.0381 41.2993 57.178C41.2432 58.1576 40.8782 59.333 40.5975 59.3051C39.6148 59.1931 38.9971 59.445 38.1549 60.3126C37.0038 61.4881 35.2069 62.1318 32.7363 62.2717C31.7255 62.3277 30.771 62.4396 30.6306 62.5516C30.4621 62.6355 30.3218 62.5516 30.3218 62.3277C30.3218 62.1318 29.9848 61.7679 29.5637 61.544C27.9353 60.7324 26.2227 58.6054 26.3631 57.5978C26.3631 57.4859 26.1946 57.0661 25.97 56.6463C25.7454 56.2265 25.6612 55.7507 25.7454 55.6107C26.0543 55.107 26.0823 52.784 25.7735 52.4202C25.577 52.1683 25.605 52.0284 25.9419 51.8884C26.5315 51.6645 27.2334 50.2092 27.2334 49.2017C27.2334 48.7818 27.3738 48.418 27.5703 48.418C27.9072 48.418 29.4795 46.7948 29.4795 46.4589C29.4795 46.347 29.9006 46.291 30.406 46.347C30.8833 46.4029 31.7536 46.207 32.2871 45.9551C33.0451 45.5633 33.4943 45.5073 34.3366 45.7032C34.8981 45.8432 35.3754 46.0671 35.3754 46.207Z"
          fill="white"/>
    <path d="M33.382 49.8733C33.2135 50.1812 33.1855 50.545 33.3258 50.741C33.4662 50.9369 33.5504 51.7485 33.5224 52.5321C33.4662 53.3438 33.5504 54.0155 33.6908 54.0155C33.8312 54.0155 33.8874 54.3233 33.8031 54.7151C33.747 55.107 33.8031 55.6667 33.9716 55.9746C34.1962 56.3664 34.1962 56.7022 33.9716 57.0941C33.6908 57.6258 33.747 57.6538 35.3754 57.6538C36.7792 57.6538 37.0599 57.5698 37.088 57.15C37.1441 56.1985 37.0038 55.2749 36.723 54.9111C36.5545 54.7431 36.5265 54.5752 36.6668 54.5752C36.8072 54.5752 36.6949 54.4353 36.4142 54.2673C35.993 54.0155 35.993 53.9315 36.3299 53.5957C36.6107 53.2878 36.6668 52.924 36.4703 52.1403C36.3299 51.5246 36.358 51.0488 36.4984 50.9928C36.8353 50.8809 36.4984 50.0413 35.965 49.6215C35.235 49.0897 33.7189 49.2296 33.382 49.8733ZM35.5157 50.4331C34.9823 50.741 34.6735 50.573 34.9262 50.1252C35.0385 49.9573 35.3192 49.9293 35.5438 50.0133C35.965 50.1532 35.9369 50.2092 35.5157 50.4331Z"
          fill="white"/>
</svg>
