<svg width="92" height="56" viewBox="0 0 92 56" fill="none" xmlns="http://www.w3.org/2000/svg">
    <path d="M72.4559 0.113021C72.2576 0.190133 72.0154 0.201149 71.8282 0.146069C71.4317 0.0359096 70.826 0.102005 70.771 0.267244C70.738 0.355372 70.6829 0.344356 70.5728 0.256228C70.3195 0.0469255 69.5156 0.0579415 69.1412 0.267244C68.943 0.377404 68.7447 0.421467 68.7007 0.377404C68.6456 0.322324 68.4034 0.322324 68.1721 0.377404C67.9298 0.432483 67.6876 0.454515 67.6435 0.421467C67.5995 0.38842 67.5224 0.432483 67.4894 0.520611C67.4453 0.641786 67.3022 0.663818 66.9498 0.619754C66.5864 0.586706 66.234 0.652802 65.4962 0.9282C64.9676 1.12649 64.439 1.28071 64.3289 1.28071C64.2298 1.28071 64.0095 1.34681 63.8333 1.43493C63.6681 1.51204 63.4699 1.58916 63.4038 1.58916C63.3268 1.58916 63.2607 1.64424 63.2607 1.71033C63.2607 1.76541 63.2166 1.79846 63.1506 1.7544C63.0955 1.72135 62.9523 1.78744 62.8312 1.90862C62.7101 2.02979 62.5889 2.09589 62.5559 2.06284C62.5229 2.02979 62.4238 2.02979 62.3247 2.06284C62.2366 2.10691 62.1154 2.13995 62.0714 2.15097C62.0273 2.16199 61.8732 2.26113 61.73 2.37129C61.5868 2.48145 61.4327 2.54754 61.3776 2.51449C61.3225 2.48145 61.2785 2.53653 61.2785 2.63567C61.2785 2.73481 61.2344 2.78989 61.1794 2.75685C61.1243 2.7238 60.9371 2.84497 60.7389 3.02123C60.5517 3.2085 60.3314 3.35171 60.2544 3.35171C60.0341 3.35171 59.4174 3.9686 59.3404 4.27704C59.3073 4.43127 59.2302 4.56346 59.1642 4.56346C59.1091 4.56346 58.8889 4.73971 58.6686 4.94902C58.3933 5.2134 58.2942 5.38965 58.3382 5.55489C58.3823 5.72013 58.3382 5.77521 58.1951 5.77521C57.9418 5.77521 57.4242 6.42515 57.4242 6.74461C57.4242 6.87681 57.3802 6.98696 57.3141 6.98696C57.2591 6.98696 57.237 7.06408 57.2701 7.1522C57.3141 7.24033 57.2811 7.31744 57.215 7.31744C57.0718 7.31744 56.8626 7.79113 56.8186 8.23177C56.8076 8.397 56.6754 8.63935 56.5212 8.78256C56.2019 9.06898 55.9927 9.56469 56.0257 9.96127C56.0477 10.1155 55.9706 10.4019 55.8605 10.6002C55.7504 10.7985 55.6843 11.0078 55.7174 11.0739C55.7614 11.129 55.6623 11.2281 55.5081 11.2942C55.2879 11.3933 55.1998 11.3933 55.0566 11.2501C54.8694 11.0518 53.9884 10.8866 53.7902 11.0078C53.7241 11.0518 53.603 11.0188 53.5149 10.9527C53.4268 10.8756 53.2066 10.8095 53.0414 10.7875C52.8652 10.7764 52.667 10.7324 52.5899 10.6883C52.5238 10.6443 52.3807 10.6663 52.2926 10.7434C52.1824 10.8315 52.0943 10.8425 52.0503 10.7654C51.819 10.4239 51.0922 10.3028 50.5306 10.5121C50.3654 10.5782 50.1892 10.5892 50.1122 10.5341C49.936 10.3909 49.044 10.468 48.9339 10.6443C48.8788 10.7324 48.8347 10.7434 48.8347 10.6663C48.8347 10.3909 47.8106 10.2587 47.3701 10.479C47.1719 10.5782 47.0067 10.6002 46.9296 10.5341C46.7865 10.4129 46.1918 10.435 45.9936 10.5561C45.9165 10.6002 45.8615 10.5892 45.8615 10.5341C45.8615 10.3578 45.443 10.5121 45.3659 10.7104C45.3219 10.8315 45.2668 10.8536 45.2228 10.7764C45.1016 10.5892 44.6501 10.468 44.6501 10.6222C44.6501 10.7104 44.54 10.7214 44.3198 10.6773C44.1105 10.6332 43.9894 10.6443 43.9894 10.7214C43.9894 10.7875 43.8903 10.8425 43.7691 10.8425C43.648 10.8425 43.5489 10.9086 43.5489 10.9968C43.5489 11.14 43.5049 11.14 43.2296 10.9968C42.8331 10.7985 42.3486 10.8976 41.9742 11.2391C41.82 11.3823 41.6218 11.4815 41.5447 11.4484C41.3465 11.3713 41.0932 10.7654 41.1703 10.5671C41.2033 10.479 41.1152 10.2917 40.9721 10.1375C40.8179 9.99431 40.6857 9.774 40.6637 9.6418C40.6527 9.50961 40.5976 9.42149 40.5646 9.4325C40.4765 9.47657 40.1351 9.11304 40.1351 8.98085C40.1351 8.91475 40.0911 8.85967 40.036 8.85967C39.981 8.85967 39.8598 8.79358 39.7827 8.71647C39.3863 8.33091 38.9789 8.08856 38.7476 8.08856C38.5824 8.08856 38.4833 8.02246 38.4833 7.92332C38.4833 7.83519 38.4503 7.7691 38.4062 7.7691C38.164 7.81316 37.9327 7.73605 37.7675 7.58182C37.6684 7.48268 37.5583 7.4276 37.5252 7.46065C37.4922 7.50471 37.338 7.43862 37.1949 7.31744C37.0517 7.20728 36.8535 7.14119 36.7544 7.17424C36.6333 7.2183 36.6002 7.19627 36.6553 7.11916C36.7434 6.96493 36.2919 6.83274 35.6532 6.83274C35.3999 6.83274 35.2127 6.78868 35.2457 6.74461C35.2788 6.70055 35.1797 6.64547 35.0255 6.63445C34.4969 6.61242 34.4639 6.60141 34.3758 6.49125C34.3097 6.41414 34.2656 6.42515 34.2326 6.51328C34.1886 6.61242 34.0674 6.60141 33.7371 6.48023C33.5058 6.38109 33.1314 6.32601 32.9222 6.34804C32.7129 6.37007 32.5367 6.35906 32.5367 6.31499C32.5367 6.19382 31.6227 6.23788 31.4686 6.35906C31.3915 6.41414 31.2593 6.43617 31.1712 6.40312C31.0831 6.37007 30.984 6.37007 30.94 6.41414C30.8959 6.4582 30.8298 6.49125 30.7968 6.49125C30.5105 6.51328 29.6736 6.93188 29.6736 7.06408C29.6736 7.1522 29.6295 7.19627 29.5745 7.16322C29.4643 7.08611 28.6935 7.53776 28.6825 7.68097C28.6825 7.83519 28.3521 8.12161 28.3521 7.96738C28.3521 7.90129 28.1869 8.02246 27.9777 8.24278C27.7685 8.4631 27.5482 8.63935 27.4821 8.63935C27.4161 8.63935 27.361 8.71647 27.361 8.80459C27.361 8.90374 27.2399 9.02491 27.0857 9.07999C26.9315 9.13507 26.8104 9.25625 26.8104 9.34437C26.8104 9.42149 26.7333 9.55368 26.6452 9.63079C26.5571 9.7079 26.48 9.86212 26.48 9.97228C26.48 10.0935 26.436 10.1816 26.3809 10.1816C26.3259 10.1816 26.2488 10.3578 26.2157 10.5671C26.1717 10.7875 26.0946 10.9307 26.0285 10.8976C25.9735 10.8536 25.9294 10.9527 25.9294 11.1069C25.9294 11.2611 25.8744 11.4154 25.8193 11.4484C25.7532 11.4925 25.7312 11.5696 25.7642 11.6247C25.8083 11.6798 25.7753 11.7238 25.7092 11.7238C25.6431 11.7238 25.6211 11.845 25.6431 11.9882C25.6651 12.1424 25.6431 12.2746 25.5881 12.2966C25.522 12.3187 25.4559 12.572 25.4339 12.8585C25.3898 13.4093 25.1476 13.7728 24.8833 13.6626C24.7071 13.5965 24.0574 13.894 24.0574 14.0482C24.0574 14.1143 23.9913 14.1253 23.8812 14.0592C23.5288 13.8609 22.7359 14.1914 22.2954 14.7091C22.2624 14.7422 22.0642 14.8083 21.8549 14.8523C21.4585 14.9184 21.0841 15.2379 21.0841 15.5133C21.0841 15.6014 20.9519 15.6565 20.7427 15.6675C20.3242 15.6785 19.8067 16.1412 19.7076 16.5818C19.6635 16.7581 19.5974 16.8793 19.5424 16.8462C19.4433 16.7801 18.8816 17.2869 18.8816 17.4521C18.8816 17.5072 18.8376 17.5623 18.7715 17.5623C18.7165 17.5623 18.6614 17.6504 18.6614 17.7605C18.6614 17.8927 18.5182 18.0139 18.265 18.1131C17.9676 18.2342 17.7804 18.4325 17.5382 18.8511C17.3509 19.1706 17.1637 19.435 17.1087 19.435C17.0536 19.435 17.0096 19.5121 17.0096 19.6002C17.0096 19.6883 16.8334 19.9197 16.6241 20.129C16.4149 20.3383 16.2387 20.5586 16.2387 20.6357C16.2387 20.7018 16.1947 20.7569 16.1396 20.7569C16.0845 20.7569 15.9854 20.9001 15.9084 21.0874C15.8313 21.2636 15.7211 21.4178 15.6661 21.4178C15.6 21.4178 15.578 21.4949 15.622 21.5831C15.6551 21.6932 15.611 21.7483 15.4679 21.7483C15.3577 21.7483 15.1705 21.8915 15.0714 22.0678C14.9613 22.255 14.8402 22.3762 14.7851 22.3432C14.7301 22.3101 14.719 22.244 14.7521 22.189C14.7851 22.1449 14.7301 22.0788 14.642 22.0347C14.5539 22.0017 14.4768 21.9246 14.4768 21.8475C14.4768 21.5941 13.4637 20.9111 13.2654 21.0323C13.1994 21.0653 13.1553 21.0323 13.1553 20.9552C13.1553 20.6247 12.0981 20.2281 11.7788 20.4484C11.7127 20.4815 11.4594 20.4705 11.2062 20.3934C10.8538 20.3052 10.6445 20.3052 10.2701 20.4264C10.0168 20.5145 9.67546 20.5806 9.52129 20.5806C9.36712 20.5916 9.17992 20.6357 9.10283 20.6908C9.02575 20.7348 8.92664 20.7459 8.8936 20.7128C8.86056 20.6798 8.77247 20.6908 8.70639 20.7348C8.64032 20.7899 8.28793 20.9001 7.93554 20.9772C7.57214 21.0653 7.16469 21.2416 7.01052 21.3848C6.85635 21.528 6.64712 21.6382 6.537 21.6382C6.42687 21.6382 6.03044 21.9576 5.64501 22.3542C5.25958 22.7397 4.88517 23.1253 4.80808 23.2024C4.08128 23.9074 3.93812 24.0947 3.96015 24.4032C3.97116 24.6125 3.9161 24.7336 3.78395 24.7777C3.68484 24.8107 3.56371 24.954 3.51966 25.0861C3.47561 25.2183 3.43156 25.3505 3.40954 25.3836C3.39853 25.4166 3.35448 25.5268 3.31043 25.6259C3.25537 25.7361 3.24436 25.9013 3.2884 25.9894C3.32144 26.0776 3.2884 26.1547 3.22233 26.1547C2.83691 26.1547 2.4735 27.1792 2.68274 27.7079C2.7378 27.8622 2.74881 28.0494 2.69375 28.1265C2.57261 28.3358 2.66071 29.2612 2.80387 29.3493C2.90298 29.4154 2.90298 29.4925 2.79286 29.6908C2.71577 29.834 2.66071 30.0984 2.67172 30.2746C2.70476 30.6822 3.02411 31.222 3.23334 31.222C3.35448 31.222 3.36549 31.2551 3.27739 31.3432C3.13423 31.4864 3.21132 32.1143 3.39853 32.2355C3.4646 32.2795 3.51966 32.5439 3.53067 32.8193C3.54168 33.2269 3.51966 33.3261 3.36549 33.304C3.00209 33.271 2.72678 33.4472 2.44047 33.8989C2.27528 34.1412 2.14314 34.4166 2.14314 34.4938C2.14314 34.5709 2.07707 34.637 1.98897 34.637C1.8348 34.637 1.41634 35.1767 1.46038 35.3199C1.4714 35.364 1.37229 35.4521 1.25115 35.5293C1.07496 35.6174 1.03091 35.7165 1.07496 35.9479C1.11901 36.1682 1.08597 36.2783 0.920788 36.3885C0.77763 36.4656 0.722569 36.5868 0.755605 36.6969C0.799654 36.7851 0.766617 36.9283 0.711557 37.0164C0.645484 37.0935 0.579411 37.3469 0.568398 37.5782C0.557386 37.8206 0.458277 38.0739 0.348155 38.1841C0.149936 38.3603 0.0838628 38.9442 0.160948 39.7594C0.17196 39.8805 0.149936 40.222 0.116899 40.5085C0.0618385 40.9271 0.0838628 41.0482 0.227021 41.1033C0.381191 41.1584 0.392204 41.1914 0.260058 41.2906C-0.0372711 41.5329 -0.0923319 42.282 0.160948 42.8108C0.27107 43.0421 0.315118 43.2514 0.260058 43.2955C0.204997 43.3285 0.204997 43.4387 0.27107 43.5489C0.326131 43.659 0.348155 43.7802 0.315118 43.8132C0.282082 43.8353 0.348155 44.0336 0.458277 44.2318C0.568398 44.4411 0.656496 44.7276 0.645484 44.8818C0.612447 45.2894 0.832691 45.8952 1.11901 46.1596C1.26217 46.2918 1.37229 46.5011 1.37229 46.6333C1.37229 46.7545 1.41634 46.8646 1.4714 46.8646C1.52646 46.8646 1.60354 46.9528 1.63658 47.0519C1.8348 47.5917 2.89197 48.7374 3.1893 48.7374C3.27739 48.7374 3.35448 48.8365 3.35448 48.9577C3.35448 49.0789 3.43156 49.178 3.51966 49.178C3.60776 49.178 3.68484 49.2221 3.68484 49.2882C3.68484 49.3432 3.87205 49.4754 4.09229 49.5746C4.32355 49.6847 4.5548 49.8389 4.59885 49.9161C4.6429 49.9932 4.75302 50.0593 4.84112 50.0593C4.92922 50.0593 5.16047 50.2025 5.35869 50.3677C5.88728 50.8084 6.2727 50.9516 6.60307 50.8304C6.82331 50.7423 6.9004 50.7643 6.98849 50.9405C7.05457 51.0617 7.16469 51.1278 7.2638 51.0948C7.3519 51.0507 7.42898 51.0838 7.42898 51.1609C7.42898 51.238 7.50607 51.271 7.59416 51.238C7.68226 51.1939 7.78137 51.2159 7.81441 51.271C7.91352 51.4252 8.27692 51.4032 8.34299 51.238C8.38704 51.1498 8.40906 51.1609 8.40906 51.282C8.43109 51.5795 9.37814 51.954 9.80761 51.8328C10.0058 51.7778 10.2261 51.7998 10.4023 51.8989C10.7547 52.0752 11.5035 52.0862 11.5035 51.9099C11.5035 51.8108 11.5365 51.8218 11.6466 51.921C11.7568 52.0421 11.7458 52.0862 11.6136 52.1303C11.5255 52.1633 11.2943 52.3396 11.096 52.5379C10.8538 52.7802 10.6996 52.8573 10.5785 52.7912C10.4904 52.7361 10.3913 52.7472 10.3472 52.8022C10.3142 52.8683 10.2261 52.8904 10.149 52.8573C10.0719 52.8353 9.89571 52.9234 9.76356 53.0666C9.57635 53.2649 9.42218 53.32 9.15789 53.2869C8.68437 53.2319 7.86947 53.6725 7.86947 53.992C7.86947 54.036 7.69327 54.0801 7.47303 54.0911C7.25279 54.0911 7.04356 54.1572 6.98849 54.2453C6.94445 54.3224 6.83432 54.3555 6.74623 54.3224C6.3608 54.1792 6.10752 54.719 6.31675 55.2588C6.43789 55.5893 6.8123 55.7215 6.99951 55.5011C7.06558 55.413 7.21975 55.3469 7.32987 55.3469C7.57214 55.3469 7.92453 55.1707 8.28793 54.8622C8.4421 54.719 8.5302 54.697 8.5302 54.7851C8.5302 54.8622 8.67336 54.8071 8.86056 54.6419C9.06979 54.4767 9.26801 54.3885 9.37814 54.4326C9.51028 54.4877 9.53231 54.4656 9.46623 54.3555C9.40016 54.2453 9.4332 54.2233 9.64243 54.2784C9.7966 54.3224 9.96178 54.2894 10.0719 54.1902C10.16 54.1131 10.2591 54.036 10.2921 54.047C10.4904 54.047 11.0189 53.8598 11.085 53.7716C11.1181 53.7055 11.2392 53.6505 11.3603 53.6394C11.4704 53.6284 11.7127 53.5513 11.8889 53.4522C12.0761 53.364 12.2743 53.309 12.3514 53.331C12.4175 53.353 12.5056 53.32 12.5496 53.2649C12.5827 53.1988 12.7038 53.1437 12.8139 53.1437C12.913 53.1437 13.0562 53.0887 13.1333 53.0115C13.1994 52.9454 13.4196 52.8683 13.6178 52.8463C13.816 52.8243 14.0363 52.7361 14.1024 52.637C14.1794 52.5489 14.3777 52.4497 14.5428 52.4387C14.719 52.4167 14.8732 52.3836 14.8952 52.3726C14.9062 52.3616 14.9723 52.3286 15.0274 52.3175C15.0935 52.3065 15.1595 52.2735 15.1926 52.2625C15.2256 52.2514 15.3137 52.2294 15.3908 52.2184C15.4569 52.2074 15.5119 52.1413 15.4899 52.0642C15.4789 51.9871 15.5339 51.932 15.6 51.921C16.3599 51.8769 16.7233 51.7998 16.9215 51.6235C17.0096 51.5574 17.1087 51.5244 17.1527 51.5574C17.1858 51.5905 17.4721 51.4913 17.8024 51.3261C18.1218 51.1609 18.5623 50.9956 18.7825 50.9736L19.168 50.9295L19.1569 51.4363C19.1459 51.7117 19.179 51.965 19.223 51.9981C19.2671 52.0201 19.2891 52.1743 19.2561 52.3286C19.223 52.4828 19.2561 52.6811 19.3331 52.7692C19.3992 52.8573 19.4212 53.0446 19.3882 53.1988C19.3442 53.353 19.3552 53.4742 19.4102 53.4742C19.4543 53.4742 19.5093 53.6394 19.5203 53.8267C19.5864 54.7961 19.6305 55.1927 19.7076 55.3689C19.7516 55.4901 19.7406 55.5672 19.6635 55.5672C19.5974 55.5672 19.5424 55.6113 19.5424 55.6664C19.5424 55.7104 19.8617 55.7876 20.2582 55.8316C20.6546 55.8757 21.051 55.9308 21.1612 55.9748C21.2823 56.0189 21.3153 56.0079 21.2603 55.9197C21.2052 55.8316 21.2823 55.7876 21.5135 55.7876C21.6897 55.7876 21.8659 55.7435 21.91 55.6774C21.943 55.6223 22.0311 55.6003 22.1082 55.6223C22.1853 55.6554 22.3835 55.5562 22.5597 55.402C22.868 55.1376 23.0112 55.0825 23.2314 55.1266C23.2865 55.1376 23.3966 55.0605 23.4627 54.9614C23.5398 54.8622 23.727 54.7521 23.8812 54.708C24.0353 54.6639 24.1565 54.5868 24.1565 54.5207C24.1565 54.4656 24.2556 54.3885 24.3767 54.3335C24.5639 54.2674 24.608 54.1572 24.608 53.6945C24.608 53.3971 24.5749 53.1437 24.5419 53.1437C24.5089 53.1437 24.3217 53.2098 24.1344 53.298C23.9362 53.3861 23.6499 53.4852 23.4847 53.5183C23.1654 53.5954 22.6258 54.036 22.6258 54.2233C22.6258 54.3004 22.4826 54.3224 22.2404 54.2784C21.9981 54.2453 21.8549 54.2563 21.8549 54.3335C21.8549 54.3995 21.7448 54.4877 21.6127 54.5317C21.4695 54.5758 21.3043 54.686 21.2382 54.7851C21.062 55.0164 20.7647 54.7741 20.8308 54.4326C20.8638 54.2894 20.7867 54.0911 20.6656 53.9589C20.4784 53.7606 20.4674 53.6945 20.5885 53.4742C20.7867 53.0887 20.6766 52.4718 20.3463 52.1964C20.137 52.0091 20.104 51.954 20.2361 51.8989C20.3463 51.8549 20.3903 51.7006 20.3573 51.3371C20.3463 51.0617 20.3683 50.8304 20.4233 50.8304C20.4784 50.8304 20.5004 50.7643 20.4784 50.6872C20.4013 50.4779 20.6986 50.1584 20.996 50.1364C21.1281 50.1254 21.3153 50.0593 21.3924 49.9822C21.5356 49.8389 21.7558 49.7949 22.0531 49.8279C22.1192 49.8389 22.1853 49.7729 22.1853 49.6847C22.1853 49.5746 22.2624 49.5415 22.4055 49.5636C22.6919 49.6186 23.716 49.3102 23.9803 49.0899C24.0794 48.9907 24.2005 48.9577 24.2446 48.9907C24.2776 49.0348 24.3987 48.9907 24.5089 48.8916C24.619 48.7924 24.8392 48.7043 24.9934 48.7043C25.1476 48.7043 25.2687 48.6713 25.2687 48.6272C25.2687 48.5831 25.511 48.517 25.8083 48.473C26.1056 48.4399 26.403 48.3298 26.48 48.2416C26.5571 48.1535 26.6672 48.1094 26.7223 48.1425C26.7884 48.1866 26.8765 48.1535 26.9205 48.0764C26.9646 47.9993 27.1298 47.9222 27.2839 47.9112C27.4381 47.8891 27.6473 47.834 27.7574 47.768C27.8566 47.7129 28.0438 47.6908 28.1649 47.7239C28.3191 47.7569 28.3631 47.7349 28.3081 47.6578C28.253 47.5697 28.3081 47.5256 28.4622 47.5256C28.7596 47.5256 29.5634 47.2722 29.5634 47.1731C29.5634 47.129 29.6626 47.118 29.7727 47.14C29.8938 47.1621 30.048 47.107 30.1251 47.0189C30.1911 46.9307 30.3894 46.8646 30.5656 46.8646C30.7417 46.8646 30.8849 46.8096 30.8849 46.7435C30.8849 46.6774 30.984 46.6553 31.1051 46.6994C31.2373 46.7435 31.5456 46.6553 31.876 46.4901C32.1843 46.3359 32.4046 46.2588 32.3715 46.3139C32.2504 46.5011 32.4596 46.435 32.7129 46.1927C32.8451 46.0715 33.0543 45.9613 33.1865 45.9503C33.3076 45.9393 33.4177 45.9063 33.4177 45.8622C33.4177 45.8291 33.7701 45.741 34.1886 45.6639C34.6841 45.5758 35.0035 45.4546 35.0695 45.3444C35.1246 45.2343 35.1797 45.2012 35.1797 45.2563C35.1797 45.3114 35.2678 45.2784 35.3669 45.2012C35.488 45.0911 35.521 45.0911 35.466 45.1792C35.3448 45.3885 35.488 45.3555 35.7413 45.1131C35.8844 44.9809 36.0716 44.9148 36.2478 44.9479C36.402 44.9809 36.4901 44.9589 36.4571 44.8928C36.413 44.8267 36.5011 44.8047 36.6663 44.8377C36.8205 44.8597 37.0077 44.8487 37.0848 44.8047C37.1618 44.7606 37.272 44.7165 37.327 44.7165C37.6574 44.6945 38.219 44.5072 38.3622 44.353C38.4723 44.2429 38.5384 44.2318 38.5714 44.32C38.5934 44.3971 38.6815 44.3861 38.8467 44.2759C38.9789 44.1878 39.2211 44.1107 39.3863 44.1107C39.5515 44.1107 39.7057 44.0666 39.7387 44.0115C39.7717 43.9675 40.058 43.8903 40.3774 43.8463C40.6857 43.8022 41.0051 43.7361 41.0602 43.6921C41.1262 43.659 41.2474 43.6149 41.3465 43.6039C41.6878 43.5599 41.9962 43.4607 42.2385 43.3395C42.3706 43.2624 42.6129 43.1853 42.767 43.1633C43.3507 43.0862 43.7691 42.987 43.7691 42.9099C43.7691 42.8769 43.9343 42.8328 44.1325 42.8218C44.3418 42.8108 44.6721 42.7006 44.8814 42.5794C45.1236 42.4362 45.2668 42.3922 45.3219 42.4693C45.3659 42.5574 45.476 42.5464 45.6522 42.4583C45.7954 42.3812 46.0487 42.3151 46.2138 42.3261C46.39 42.3261 46.5002 42.293 46.4781 42.26C46.4561 42.2159 46.5883 42.1719 46.7755 42.1719C46.9737 42.1608 47.249 42.1278 47.4032 42.0837C47.5573 42.0397 47.7556 41.9956 47.8436 41.9956C47.9317 41.9846 48.0969 41.9185 48.2181 41.8414C48.3282 41.7643 48.4934 41.7312 48.5705 41.7643C48.6585 41.7973 48.7246 41.7753 48.7246 41.7202C48.7246 41.61 48.8458 41.588 49.4184 41.566C49.5836 41.566 49.6937 41.5329 49.6717 41.4889C49.6496 41.4448 49.8699 41.4007 50.1782 41.3897C50.4756 41.3787 50.7839 41.3236 50.861 41.2575C50.9381 41.1914 51.0262 41.1694 51.0702 41.2025C51.1033 41.2355 51.2464 41.1804 51.4006 41.0813C51.6098 40.9491 51.6869 40.9381 51.7199 41.0482C51.764 41.1584 51.819 41.1364 51.9622 40.9932C52.1384 40.8169 52.3476 40.7618 52.667 40.7949C52.7331 40.8059 52.7991 40.7618 52.7991 40.7067C52.7991 40.6406 52.9313 40.5966 53.1075 40.6076C53.2726 40.6076 53.5259 40.5745 53.6801 40.5305C53.8343 40.4864 54.0655 40.4424 54.1977 40.4313C54.3298 40.4093 54.517 40.3432 54.6051 40.2661C54.7042 40.178 54.8914 40.1449 55.0456 40.189C55.2328 40.2331 55.3319 40.2 55.376 40.0788C55.409 39.9797 55.5191 39.9246 55.5962 39.9577C55.7834 40.0348 56.4221 39.8144 56.6424 39.6162C56.7635 39.495 56.8186 39.495 56.8846 39.6051C56.9397 39.7043 57.0058 39.7043 57.1379 39.5611C57.248 39.4619 57.4463 39.4069 57.6445 39.4289C57.8757 39.4619 57.9528 39.4399 57.9088 39.3518C57.8537 39.2637 57.9308 39.2526 58.1621 39.2967C58.3493 39.3297 58.5365 39.3297 58.5805 39.2857C58.6136 39.2416 58.7127 39.2086 58.7787 39.1976C59.0871 39.1755 59.6267 39.0103 59.6267 38.9442C59.6267 38.8781 60.1002 38.812 60.7609 38.801C60.9261 38.79 61.0583 38.7239 61.0583 38.6468C61.0583 38.5696 61.1684 38.5256 61.3666 38.5476C61.5318 38.5696 61.73 38.5256 61.8071 38.4595C61.8842 38.3934 62.1264 38.3273 62.3467 38.3053C62.5559 38.2832 62.8092 38.1951 62.8973 38.107C63.0845 37.9197 63.2607 37.8977 63.2607 38.0519C63.2607 38.118 63.3708 38.096 63.514 38.0078C63.6461 37.9307 63.8553 37.8756 63.9765 37.8977C64.0976 37.9087 64.2187 37.8756 64.2628 37.8095C64.3068 37.7435 64.483 37.6994 64.6482 37.6994C65.0777 37.7104 66.5864 37.3909 66.7515 37.2588C66.8286 37.1927 67.192 37.1266 67.5554 37.1155C67.9078 37.0935 68.2712 37.0384 68.3373 36.9944C68.4144 36.9503 68.7007 36.8952 68.976 36.8732C69.2513 36.8512 69.5266 36.7851 69.5927 36.73C69.6477 36.6859 69.8239 36.6308 69.9781 36.6308C70.8811 36.5868 71.0793 36.5537 71.0793 36.4546C71.0793 36.3885 71.3216 36.3334 71.6189 36.3334C71.9163 36.3224 72.2466 36.2783 72.3567 36.2343C72.4779 36.1902 72.6541 36.1572 72.7642 36.1682C72.8633 36.1792 72.9514 36.1461 72.9514 36.1021C72.9514 36.047 73.0835 36.0029 73.2597 35.9919C74.8125 35.9038 75.5172 35.8487 75.6274 35.7716C75.7044 35.7275 75.8476 35.7055 75.9577 35.7165C76.0568 35.7386 76.1449 35.7055 76.1449 35.6614C76.1449 35.5733 76.3762 35.5293 77.2131 35.4962C77.4113 35.4852 77.5435 35.4411 77.5104 35.386C77.4444 35.2759 77.5875 35.2759 77.7417 35.386C77.9509 35.5293 78.1491 35.9919 78.039 36.058C77.9509 36.1131 77.9399 36.9393 78.017 37.0274C78.0941 37.1155 78.061 37.3469 77.9619 37.413C77.8849 37.4791 77.8849 37.5231 77.9729 37.5782C78.028 37.6333 78.0831 37.7875 78.0831 37.9417C78.0831 38.096 78.028 38.2502 77.9729 38.2943C77.8849 38.3603 77.8959 38.4154 77.995 38.4815C78.1932 38.6027 78.2042 38.6468 78.061 38.834C77.9729 38.9442 77.9729 39.0984 78.061 39.4179C78.1602 39.7814 78.2593 39.8695 78.6777 40.0348C78.953 40.1449 79.3385 40.211 79.5367 40.189C79.79 40.1559 79.8781 40.189 79.823 40.2771C79.7679 40.3652 79.801 40.3763 79.9551 40.3102C80.2855 40.178 80.5938 40.167 80.693 40.2992C80.759 40.3873 80.8031 40.3763 80.8471 40.2771C80.8691 40.211 80.9462 40.178 81.0013 40.211C81.0564 40.2441 81.3317 40.2881 81.596 40.3102L82.0915 40.3432V39.7043V39.0654L81.7391 39.0874C81.5519 39.0984 81.3757 39.1645 81.3427 39.2416C81.3206 39.3297 81.2326 39.3187 81.0453 39.1976C80.6049 38.9111 80.0432 38.9222 79.6027 39.2196C79.3935 39.3628 79.2393 39.4399 79.2724 39.3958C79.3054 39.3408 79.2393 39.1976 79.1292 39.0874C78.953 38.8891 78.953 38.8561 79.1182 38.5476C79.3715 38.0739 79.3164 37.3469 79.0191 37.1045C78.887 37.0054 78.898 36.9723 79.0301 36.9173C79.1623 36.8732 79.1953 36.73 79.1623 36.3554C79.1513 36.08 79.1733 35.8487 79.2283 35.8487C79.2834 35.8487 79.3054 35.7716 79.2724 35.6835C79.1733 35.4301 79.5257 35.1547 79.845 35.2318C79.9992 35.2759 80.1754 35.2649 80.2415 35.2208C80.3185 35.1878 80.5938 35.1437 80.8691 35.1327C81.1555 35.1217 81.3977 35.0886 81.4308 35.0776C81.5079 35.0335 82.0805 34.9674 82.51 34.9454C82.6972 34.9454 82.8624 34.9013 82.8624 34.8573C82.8624 34.7802 83.0716 34.7802 83.3028 34.8573C83.457 34.9124 84.5803 34.8242 84.6243 34.7692C84.6573 34.7251 84.7675 34.681 84.8886 34.659C85.0207 34.637 85.0648 34.67 84.9987 34.7581C84.9437 34.8573 84.9767 34.8683 85.1309 34.8132C85.4062 34.692 85.5053 34.692 85.8246 34.7912C86.0228 34.8573 86.0669 34.8463 86.0008 34.7361C85.9347 34.637 85.9678 34.6259 86.122 34.692C86.3642 34.8022 87.7077 34.8463 87.8729 34.7581C88.0381 34.659 88.1922 34.67 88.2693 34.7802C88.3134 34.8352 88.4235 34.8352 88.5446 34.7692C88.6658 34.7141 88.853 34.7031 88.9741 34.7471C89.0842 34.7912 89.3045 34.7581 89.4586 34.681C89.6018 34.6039 89.778 34.5709 89.8331 34.6039C90.0313 34.7251 90.7911 34.7251 90.7911 34.6039C90.7911 34.5268 90.8352 34.5268 90.9233 34.6149C91.1655 34.8573 91.2316 34.7471 91.2316 34.1082V33.4693L90.4938 33.4913C90.0753 33.5023 89.6348 33.5464 89.5027 33.5794C89.3595 33.6015 89.2274 33.5904 89.1944 33.5354C89.1283 33.4252 88.5226 33.4803 88.1262 33.6345C87.939 33.7006 87.8068 33.7116 87.7628 33.6455C87.7187 33.5794 87.5976 33.5354 87.4765 33.5354C87.3003 33.5354 87.2782 33.5133 87.3994 33.3811C87.4765 33.293 87.5756 33.249 87.6306 33.282C87.6747 33.304 87.7077 33.282 87.7077 33.2159C87.7077 33.1168 88.1262 32.9515 88.4015 32.9295C88.4455 32.9295 88.4786 32.8854 88.4675 32.8303C88.4675 32.7753 88.6107 32.6431 88.7869 32.5549C89.756 32.0372 90.0203 31.872 90.0203 31.7618C90.0203 31.6076 90.3066 31.3212 90.3837 31.4093C90.4167 31.4423 90.5268 31.2771 90.6259 31.0568C90.714 30.8254 90.8792 30.5721 90.9893 30.495C91.0884 30.4179 91.1325 30.3407 91.0774 30.3407C91.0224 30.3407 91.0444 30.2636 91.1325 30.1645C91.3637 29.8891 91.6941 28.8866 91.7161 28.446C91.7161 28.2257 91.7602 28.0715 91.8042 28.0935C91.8373 28.1155 91.8593 27.9172 91.8483 27.6418C91.8373 27.3775 91.8703 27.1241 91.9364 27.1021C92.0135 27.069 92.0245 27.0249 91.9474 26.9589C91.7932 26.8377 91.7602 26.5953 91.8703 26.4411C91.9474 26.353 91.9694 25.4387 91.9033 25.4387C91.8923 25.4387 91.8593 25.2293 91.8373 24.965C91.8152 24.7006 91.7051 24.3591 91.606 24.1939C91.4959 24.0286 91.3968 23.7973 91.3968 23.6761C91.3858 23.3346 91.2426 22.9711 90.8021 22.222C90.5819 21.8364 90.3506 21.528 90.2735 21.528C90.1084 21.528 89.9212 21.1865 89.9872 21.0102C90.0093 20.9442 89.9322 20.856 89.811 20.812C89.6789 20.7789 89.5798 20.6247 89.5578 20.4484C89.5357 20.2832 89.4807 20.162 89.4366 20.1841C89.3265 20.2281 89.0292 19.9307 89.0292 19.7654C89.0292 19.6994 88.8089 19.4129 88.5336 19.1265C88.2583 18.8401 88.0381 18.6528 88.0381 18.6969C88.0381 18.741 87.972 18.7189 87.8839 18.6418C87.7958 18.5647 87.7518 18.4656 87.7738 18.4215C87.7958 18.3774 87.7297 18.3224 87.6196 18.2893C87.5095 18.2452 87.3443 18.102 87.2672 17.9478C87.1901 17.8046 87.08 17.7055 87.036 17.7385C86.9919 17.7605 86.8598 17.6614 86.7607 17.5072C86.6616 17.353 86.5074 17.2318 86.4303 17.2318C86.3422 17.2318 86.2431 17.1547 86.2101 17.0665C86.166 16.9784 86.0889 16.9013 86.0339 16.9013C85.9678 16.9013 85.8577 16.8242 85.7916 16.7361C85.7255 16.6479 85.5383 16.5598 85.3731 16.5488C85.1969 16.5378 85.0648 16.4937 85.0648 16.4496C85.0648 16.4056 84.9216 16.3175 84.7344 16.2403C84.5582 16.1632 84.4041 16.031 84.4041 15.9429C84.4041 15.8548 84.338 15.7997 84.2719 15.8328C84.1948 15.8548 83.8755 15.7446 83.5671 15.5684C83.2588 15.3921 82.9725 15.282 82.9394 15.315C82.9064 15.3481 82.7632 15.315 82.6201 15.2379C82.4879 15.1608 82.3007 15.1057 82.2126 15.1277C82.1245 15.1388 81.9373 15.0947 81.8052 15.0176C81.596 14.9074 81.5189 14.9184 81.3757 15.0286C81.2546 15.1277 81.1665 15.1388 81.1224 15.0616C81.0674 14.9735 80.1644 14.9405 80.1644 15.0286C80.1644 15.0396 80.0763 15.0616 79.9772 15.0837C79.867 15.1057 79.7789 15.0727 79.7789 15.0176C79.7789 14.9625 79.7019 14.9184 79.6138 14.9184C79.4376 14.9184 79.3935 14.7422 79.5477 14.6541C79.6027 14.621 79.6798 14.4558 79.7239 14.2905C79.7569 14.1143 79.856 13.905 79.9331 13.8168C80.0763 13.6516 80.2415 13.1669 80.2745 12.8034C80.2855 12.6932 80.3516 12.539 80.4177 12.4619C80.5168 12.3517 80.5057 12.2746 80.4177 12.1865C80.3185 12.0873 80.3296 12.0543 80.4617 12.0543C80.5608 12.0543 80.6819 11.9551 80.715 11.834C80.748 11.7128 80.8361 11.6137 80.8912 11.6137C80.9462 11.6137 80.9903 11.4925 80.9903 11.3493C80.9903 11.195 81.0453 11.0408 81.1004 11.0078C81.1665 10.9637 81.1885 10.8976 81.1665 10.8536C81.1334 10.8095 81.1885 10.501 81.2766 10.1706C81.607 9.0139 81.629 8.74951 81.4638 8.40802C81.3757 8.23177 81.3427 8.03348 81.3867 7.95637C81.5519 7.69198 81.5409 6.75563 81.3867 6.70055C81.2546 6.65649 81.2656 6.59039 81.3867 6.32601C81.673 5.7642 81.3757 4.78378 80.9242 4.78378C80.8031 4.78378 80.7921 4.73971 80.8691 4.57447C80.9572 4.42025 80.9462 4.33212 80.8251 4.23298C80.737 4.15587 80.6599 4.03469 80.6599 3.9686C80.6599 3.9025 80.4287 3.60507 80.1534 3.29663C79.8781 2.9992 79.5697 2.64669 79.4816 2.50348C79.3825 2.36027 79.2724 2.25011 79.2173 2.25011C79.1623 2.25011 79.0191 2.16199 78.909 2.05183C78.2923 1.49001 78.1381 1.36884 78.039 1.36884C77.9729 1.36884 77.8738 1.29173 77.8188 1.19258C77.7637 1.08242 77.5655 1.00531 77.3673 0.994296C77.1801 0.994296 77.0259 0.950232 77.0259 0.895153C77.0259 0.851089 76.9378 0.818041 76.8387 0.818041C76.7396 0.818041 76.5634 0.729913 76.4533 0.63077C76.2771 0.476547 76.2 0.465531 76.0238 0.57569C75.8476 0.68585 75.7705 0.674834 75.5943 0.509595C75.4512 0.377404 75.2309 0.311308 74.9556 0.322324C74.7354 0.33334 74.4821 0.289276 74.405 0.234196C74.3059 0.157085 74.2288 0.157085 74.1407 0.245212C74.0526 0.33334 73.9535 0.311308 73.7553 0.190133C73.4249 -0.030186 72.8743 -0.0632338 72.4559 0.113021ZM76.1449 1.17055C76.1449 1.22563 76.1009 1.25868 76.0348 1.25868C75.9797 1.25868 75.9247 1.14852 75.9247 1.00531C75.9247 0.807025 75.9467 0.796009 76.0348 0.9282C76.0899 1.01633 76.1449 1.12649 76.1449 1.17055ZM75.4842 0.972264C75.4842 1.00531 75.4401 1.06039 75.3741 1.09344C75.319 1.12649 75.264 1.10446 75.264 1.04938C75.264 0.98328 75.319 0.9282 75.3741 0.9282C75.4401 0.9282 75.4842 0.950232 75.4842 0.972264ZM70.749 1.23665C70.749 1.34681 71.5308 1.34681 71.707 1.22563C71.7731 1.18157 71.8502 1.2036 71.8722 1.28071C71.9052 1.35782 71.9713 1.36884 72.0814 1.31376C72.3127 1.15953 72.5109 1.14852 72.5109 1.28071C72.5109 1.34681 72.599 1.35782 72.7091 1.31376C72.9514 1.2036 73.0615 1.2036 73.3809 1.30274C73.5571 1.36884 73.6121 1.35782 73.5681 1.26969C73.458 1.10446 73.502 1.11547 74.0746 1.36884C74.3389 1.479 74.6693 1.55611 74.8014 1.51204C74.9446 1.479 75.0437 1.50103 75.0437 1.57814C75.0437 1.65525 75.1428 1.67728 75.319 1.63322C75.4842 1.58916 75.6714 1.6222 75.7705 1.71033C75.8696 1.79846 76.0128 1.86455 76.0789 1.86455C76.1449 1.86455 76.3652 1.95268 76.5744 2.06284C76.7726 2.18402 77.0369 2.2391 77.158 2.21706C77.3122 2.173 77.3563 2.19503 77.3122 2.31621C77.2792 2.40434 77.3012 2.47043 77.3563 2.47043C77.4223 2.47043 77.4664 2.54754 77.4664 2.63567C77.4664 2.7238 77.5104 2.80091 77.5655 2.80091C77.6206 2.80091 78.05 3.19748 78.5236 3.68218C78.9971 4.16689 79.4486 4.56346 79.5367 4.56346C79.6138 4.56346 79.7019 4.65159 79.7459 4.75073C79.7789 4.86089 79.9111 5.03714 80.0212 5.15832C80.1423 5.26848 80.2084 5.4227 80.1754 5.51083C80.1423 5.59896 80.1644 5.66505 80.2194 5.66505C80.2855 5.66505 80.2965 5.84131 80.2635 6.06163C80.2194 6.34804 80.2415 6.43617 80.3296 6.38109C80.4287 6.31499 80.4287 6.35906 80.3406 6.53531C80.2415 6.70055 80.2415 6.83274 80.3296 6.98696C80.3956 7.10814 80.4066 7.20728 80.3516 7.20728C80.3075 7.20728 80.2635 7.40557 80.2525 7.64792C80.2525 7.89027 80.2745 8.08856 80.3185 8.08856C80.3626 8.08856 80.3956 8.1877 80.4066 8.30888C80.4177 8.43005 80.3846 8.5292 80.3296 8.5292C80.2635 8.5292 80.2745 8.66139 80.3406 8.82663C80.4837 9.21218 80.4837 9.20117 80.3075 9.32234C80.1864 9.41047 80.1864 9.4325 80.3075 9.48758C80.4177 9.53165 80.4066 9.59774 80.2415 9.78501C80.1203 9.90619 79.9992 10.2146 79.9772 10.457C79.9662 10.6993 79.9221 10.9197 79.8891 10.9527C79.7349 11.1069 79.5587 11.5365 79.5587 11.7679C79.5587 11.9111 79.4926 12.0543 79.4045 12.0873C79.3164 12.1204 79.1953 12.3407 79.1182 12.572C79.0411 12.8034 78.8649 13.233 78.7328 13.5414C78.6006 13.8389 78.4244 14.2795 78.3364 14.4998C78.2152 14.8523 78.05 15.0066 77.6866 15.0837C77.5325 15.1167 76.8277 15.3481 76.6515 15.4252C76.4973 15.4802 76.4643 15.4692 76.5193 15.3811C76.5634 15.304 76.5524 15.2489 76.4863 15.2489C76.4312 15.2489 76.3652 15.293 76.3431 15.3591C76.3321 15.4142 76.0899 15.4913 75.8146 15.5243C75.5503 15.5574 75.308 15.6124 75.275 15.6455C75.1759 15.7336 75.8806 16.6259 76.0789 16.659C76.2881 16.703 76.8057 16.4827 76.9378 16.3064C76.9819 16.2403 77.07 16.2403 77.158 16.3175C77.3673 16.4827 78.006 16.3615 78.1491 16.1302C78.2593 15.9539 78.3033 15.9539 78.5015 16.0861C78.7328 16.2293 79.4706 16.3175 79.7789 16.2293C79.867 16.2073 79.9992 16.1192 80.0653 16.031C80.1644 15.8989 80.1974 15.8989 80.2415 16.0421C80.2855 16.1522 80.4507 16.1963 80.737 16.1853C80.9683 16.1743 81.2105 16.2073 81.2766 16.2624C81.3537 16.3175 81.4638 16.2954 81.5629 16.2073C81.6951 16.0751 81.7501 16.0751 81.9704 16.2514C82.1135 16.3615 82.2677 16.4386 82.3117 16.4056C82.3558 16.3725 82.543 16.4276 82.7082 16.5157C83.0936 16.714 83.413 16.725 83.413 16.5378C83.424 16.4717 83.49 16.5488 83.5671 16.7361C83.7433 17.1326 84.393 17.4962 84.7785 17.4301C84.9326 17.397 85.0648 17.4191 85.0648 17.4741C85.0648 17.5292 85.23 17.7385 85.4392 17.9368C85.7035 18.2012 85.8577 18.2783 85.9788 18.2122C86.1109 18.1351 86.166 18.1902 86.2211 18.4435C86.3312 18.9172 86.9148 19.3909 87.3443 19.3358C87.4214 19.3248 87.4544 19.3909 87.4214 19.468C87.3553 19.6443 87.983 20.3603 88.2914 20.4595C88.3905 20.5035 88.4786 20.5696 88.4675 20.6137C88.4125 20.9552 88.5446 21.2416 88.9631 21.7043C89.2384 21.9907 89.4256 22.2771 89.4036 22.3211C89.3705 22.3762 89.4256 22.4423 89.5137 22.4754C89.6128 22.5084 89.6899 22.6076 89.6899 22.6957C89.6899 22.7838 89.745 22.8499 89.8 22.8499C89.8661 22.8499 89.9101 22.9491 89.9101 23.0702C89.9101 23.1914 89.9652 23.2905 90.0203 23.2905C90.0863 23.2905 90.1304 23.3897 90.1304 23.4998C90.1304 23.621 90.2405 23.8964 90.3727 24.1278C90.5048 24.3481 90.6259 24.7116 90.648 24.9319C90.714 25.5819 90.714 26.9478 90.659 27.3664C90.6259 27.5868 90.659 27.8511 90.7471 27.9943C90.8682 28.1926 90.8682 28.2367 90.7361 28.2808C90.4608 28.3909 90.2185 29.0629 90.3506 29.3934C90.4057 29.5586 90.4167 29.6688 90.3616 29.6357C90.1524 29.5035 89.4697 30.4619 89.4697 30.8915C89.4697 30.9576 89.4256 30.9907 89.3705 30.9576C89.2164 30.8585 88.6327 31.2 88.4896 31.4864C88.4015 31.6406 88.2473 31.7398 88.0821 31.7398C87.6526 31.7398 87.036 32.1033 86.8928 32.4338C86.7937 32.6871 86.7276 32.7202 86.5735 32.6431C86.4303 32.5549 86.3642 32.577 86.3202 32.6982C86.2871 32.7973 86.155 32.8744 86.0449 32.8744C85.9347 32.8744 85.8356 32.9185 85.8356 32.9846C85.8356 33.0396 85.7586 33.0947 85.6705 33.0947C85.5713 33.0947 85.4722 33.1608 85.4392 33.2379C85.4062 33.3261 85.219 33.4583 85.0097 33.5354C84.8005 33.6235 84.6243 33.7337 84.6243 33.7887C84.6243 33.8548 84.5362 33.8218 84.4261 33.7226C84.316 33.6125 84.1838 33.5684 84.1508 33.6125C84.1067 33.6455 83.8865 33.6896 83.6662 33.7006C83.446 33.7116 83.2478 33.7667 83.2258 33.8328C83.1927 33.9209 83.0936 33.9099 82.8844 33.7997C82.554 33.6235 81.9594 33.6896 81.5739 33.943C81.4418 34.0311 81.2656 34.0641 81.1995 34.0201C81.0013 33.8989 80.4397 33.8769 80.4397 33.987C80.4397 34.1082 80.1864 34.0641 80.0983 33.9319C80.0542 33.8879 79.9221 33.943 79.79 34.0751C79.6688 34.1963 79.5587 34.2514 79.5587 34.1853C79.5587 34.0972 79.3825 34.0862 78.9861 34.1412C78.6667 34.1853 78.3253 34.2184 78.2372 34.2294C78.1491 34.2294 78.017 34.2734 77.9509 34.3285C77.8738 34.3836 77.6976 34.3726 77.5325 34.3065C77.147 34.1633 76.4312 34.2734 76.178 34.5268C76.0238 34.67 75.8916 34.692 75.5943 34.6259C75.3851 34.5819 75.1648 34.5819 75.1098 34.637C75.0547 34.692 74.9446 34.7031 74.8675 34.67C74.7794 34.637 74.6913 34.692 74.6473 34.7802C74.5922 34.9234 74.5482 34.9234 74.2949 34.7912C74.1407 34.7141 73.8764 34.67 73.7223 34.7031C73.2487 34.8022 72.8413 34.9895 72.8413 35.0996C72.8413 35.1547 72.7752 35.1547 72.6651 35.0996C72.566 35.0445 72.2797 35.0335 72.0374 35.0886C71.7841 35.1327 71.5418 35.1437 71.4978 35.1217C71.4648 35.0996 71.4097 35.1327 71.3877 35.1988C71.3656 35.2539 71.0353 35.331 70.6499 35.353C70.2534 35.386 69.901 35.4521 69.868 35.5293C69.8239 35.5953 69.7689 35.6394 69.7469 35.6174C69.7248 35.6064 69.3835 35.6394 68.987 35.6835C68.5906 35.7275 68.1831 35.7606 68.084 35.7496C67.9739 35.7386 67.8858 35.7606 67.8858 35.8157C67.8858 35.8597 67.7537 35.9148 67.5885 35.9148C67.17 35.9368 66.7626 36.047 66.6855 36.1461C66.6524 36.2012 66.4212 36.2453 66.1789 36.2563C65.9366 36.2673 65.4411 36.3554 65.0777 36.4656C64.7143 36.5647 64.2408 36.6639 64.0315 36.6749C63.8223 36.6859 63.514 36.708 63.3598 36.719C63.2056 36.719 62.9744 36.8291 62.8422 36.9613C62.7101 37.0825 62.5559 37.1596 62.5008 37.1155C62.4458 37.0825 62.1485 37.1155 61.8401 37.1927C61.3996 37.2918 61.2785 37.3689 61.2785 37.5342C61.2785 37.6884 61.2344 37.7214 61.1464 37.6443C61.0142 37.5452 60.8931 37.5342 60.1663 37.5892C60.0121 37.6002 59.7808 37.7104 59.6377 37.8426C59.4505 38.0189 59.3624 38.0409 59.2412 37.9417C59.1531 37.8646 59.0651 37.8646 59.032 37.9307C58.999 37.9858 58.8668 38.0078 58.7457 37.9748C58.6136 37.9417 58.5255 37.9748 58.5255 38.0409C58.5255 38.118 58.4814 38.151 58.4263 38.118C58.3713 38.0849 58.2722 38.129 58.1951 38.2171C58.107 38.3273 57.9969 38.3383 57.8097 38.2722C57.4352 38.129 56.8296 38.2612 56.5212 38.5476C56.3561 38.7018 56.1909 38.7679 56.1028 38.7129C55.9596 38.6247 55.5742 38.6908 55.376 38.845C55.3099 38.8891 55.1667 38.9111 55.0786 38.8671C54.9685 38.834 54.8474 38.8891 54.7703 39.0213C54.6602 39.1976 54.5721 39.2196 54.3188 39.1535C54.1536 39.0984 53.9884 39.0984 53.9554 39.1535C53.9224 39.1976 53.6911 39.2747 53.4488 39.3187C53.1295 39.3738 52.9753 39.4619 52.9423 39.6051C52.8982 39.7704 52.8542 39.7924 52.7331 39.6933C52.5018 39.495 51.6539 39.6712 51.3786 39.9687C51.1693 40.189 51.0702 40.211 50.7509 40.1449C50.5306 40.0898 50.3434 40.1009 50.3104 40.167C50.2773 40.222 50.1782 40.2441 50.0901 40.211C50.002 40.178 49.9029 40.222 49.8589 40.3102C49.8258 40.4203 49.7267 40.4534 49.5836 40.4093C49.2312 40.2992 48.4493 40.4644 48.185 40.7067C48.0088 40.872 47.8987 40.905 47.8106 40.8169C47.7225 40.7508 47.6124 40.7508 47.5133 40.8059C47.4252 40.861 47.3151 40.872 47.271 40.8389C47.216 40.8169 47.1058 40.8499 47.0177 40.916C46.9296 40.9821 46.8195 41.0152 46.7534 40.9821C46.6984 40.9491 46.6323 40.9711 46.6103 41.0372C46.5883 41.1033 46.2909 41.1694 45.9496 41.1804C45.6082 41.2025 45.2558 41.2686 45.1677 41.3346C45.0906 41.4007 44.8483 41.4668 44.6391 41.4779C44.4299 41.4999 44.2096 41.544 44.1436 41.599C44.0775 41.6431 43.7581 41.7312 43.4498 41.7973C43.1304 41.8524 42.6349 42.0066 42.3596 42.1388C42.0733 42.271 41.6548 42.3701 41.4346 42.3701C41.2033 42.3701 40.9941 42.4142 40.95 42.4693C40.917 42.5244 40.7959 42.5684 40.6857 42.5684C40.5646 42.5684 40.2342 42.6455 39.9479 42.7447C39.6616 42.8438 39.2982 42.943 39.144 42.954C38.9899 42.965 38.7916 42.987 38.7035 42.987C38.6155 42.9981 38.4062 43.1302 38.252 43.2735C38.0538 43.4607 37.9217 43.5048 37.7895 43.4387C37.6904 43.3726 37.5913 43.3726 37.5583 43.4387C37.5252 43.4938 37.3931 43.5158 37.272 43.4828C37.1508 43.4497 37.0517 43.4828 37.0517 43.5489C37.0517 43.6039 36.9746 43.637 36.8755 43.5929C36.7654 43.5489 36.6883 43.6039 36.6553 43.7582C36.6002 43.9564 36.5672 43.9675 36.3139 43.8353C35.9615 43.648 35.3558 43.8022 35.0255 44.1657C34.8933 44.309 34.7171 44.4191 34.629 44.4191C34.1665 44.3861 33.8802 44.4632 33.682 44.6504C33.5278 44.7826 33.3406 44.8487 33.1094 44.8157C32.7239 44.7716 32.2945 44.9589 31.9861 45.3224C31.8099 45.5207 31.7328 45.5427 31.6117 45.4436C31.5126 45.3665 31.4245 45.3555 31.3915 45.4216C31.3584 45.4766 31.2263 45.4987 31.1051 45.4656C30.973 45.4326 30.8849 45.4656 30.8849 45.5427C30.8849 45.6309 30.7858 45.6529 30.6096 45.6088C30.4114 45.5538 30.3013 45.5978 30.2132 45.741C30.1251 45.8842 29.9929 45.9283 29.7176 45.8952C29.4864 45.8622 29.3432 45.8952 29.3432 45.9724C29.3432 46.0385 29.2771 46.0935 29.2 46.0935C28.9578 46.0935 28.4622 46.3579 28.4622 46.5011C28.4622 46.5782 28.3631 46.6003 28.1649 46.5452C27.7354 46.424 26.7003 46.7655 26.7003 47.0189C26.7003 47.096 26.5351 47.14 26.3149 47.129C26.1056 47.118 25.8964 47.1511 25.8634 47.2061C25.8303 47.2612 25.7092 47.3053 25.5881 47.3053C25.4779 47.3053 25.3788 47.3824 25.3788 47.4705C25.3788 47.5917 25.3017 47.6137 25.0595 47.5697C24.63 47.4815 24.0023 47.7019 23.749 48.0213C23.5948 48.2086 23.5068 48.2527 23.4187 48.1645C23.3526 48.0984 23.2425 48.0874 23.1544 48.1425C23.0773 48.1976 22.9672 48.2416 22.9011 48.2416C22.6698 48.2637 22.1853 48.517 22.1853 48.6272C22.1853 48.6823 22.0531 48.7043 21.8659 48.6713C21.6347 48.6162 21.3594 48.6933 20.8859 48.9356C20.5225 49.1229 20.2031 49.2551 20.1811 49.2221C20.148 49.2 19.9388 49.2771 19.6965 49.3873C19.4653 49.5085 19.234 49.5746 19.201 49.5525C19.1569 49.5305 18.9918 49.5746 18.8266 49.6627C18.6614 49.7508 18.4632 49.7949 18.3861 49.7729C18.32 49.7398 18.1108 49.861 17.9236 50.0262C17.7033 50.2355 17.4831 50.3347 17.2408 50.3347C17.0426 50.3237 16.8334 50.3897 16.7673 50.4669C16.7012 50.544 16.5801 50.6101 16.503 50.6101C16.4149 50.6101 16.0735 50.7092 15.7432 50.8194C15.4128 50.9405 15.1155 50.9956 15.0824 50.9405C15.0384 50.8744 13.4857 50.8744 13.4086 50.9405C13.3205 51.0177 13.0892 50.9846 13.0232 50.8855C12.9571 50.8084 12.913 50.8084 12.858 50.8965C12.8029 50.9516 12.6488 51.0066 12.4946 51.0066C12.3404 51.0066 12.1862 50.9516 12.1422 50.8965C12.0761 50.8084 12.0321 50.8084 11.977 50.8855C11.8999 50.9846 11.6797 51.0177 11.5916 50.9516C11.5145 50.8965 10.6335 50.7863 10.2701 50.7973C10.0389 50.7973 9.8847 50.7533 9.91773 50.7092C9.96178 50.6211 9.54332 50.555 9.27903 50.599C9.22397 50.599 9.19093 50.555 9.19093 50.4889C9.19093 50.4228 9.09182 50.3897 8.9817 50.4228C8.86056 50.4558 8.66234 50.4008 8.54121 50.3126C8.26591 50.1254 7.36291 49.8389 7.02153 49.8389C6.87837 49.8389 6.76825 49.7949 6.76825 49.7508C6.76825 49.7068 6.66914 49.6627 6.537 49.6517C6.41586 49.6407 6.23967 49.5636 6.14056 49.4864C6.05246 49.4203 5.9093 49.3432 5.83222 49.3322C5.75513 49.3212 5.58995 49.2221 5.46881 49.1119C5.03934 48.7153 4.90719 48.6272 4.731 48.6272C4.6429 48.6272 4.56582 48.5831 4.56582 48.517C4.56582 48.462 4.3676 48.2967 4.12533 48.1645C3.88306 48.0213 3.66282 47.823 3.62978 47.7239C3.59675 47.6247 3.35448 47.3493 3.1012 47.129C2.84792 46.8977 2.6497 46.6774 2.6497 46.6443C2.68274 46.5342 2.53958 46.2478 2.2863 45.9173C2.15415 45.73 2.06605 45.5427 2.1101 45.4987C2.15415 45.4546 2.12111 45.3775 2.03302 45.3224C1.86783 45.2233 1.85682 45.1792 1.82379 44.7606C1.81277 44.6284 1.76873 44.5733 1.69164 44.6174C1.59253 44.6725 1.58152 44.6064 1.63658 44.3971C1.66962 44.2429 1.6586 44.0225 1.60354 43.9124C1.54848 43.8132 1.48241 43.5599 1.44937 43.3506C1.41634 43.1413 1.32824 42.943 1.26217 42.8989C1.09698 42.7888 1.09698 42.6676 1.28419 42.5574C1.36127 42.5023 1.37229 42.4583 1.30621 42.4583C1.15204 42.4583 1.16306 41.8854 1.31723 41.7643C1.39431 41.7092 1.39431 41.6651 1.31723 41.599C1.21812 41.5329 1.18508 41.3016 1.26217 41.2135C1.35026 41.1143 1.32824 40.2441 1.24014 40.189C1.17407 40.1449 1.18508 40.0788 1.27318 40.0238C1.37229 39.9577 1.3833 39.8916 1.31723 39.8365C1.17407 39.7373 1.10799 39.3738 1.22913 39.3738C1.28419 39.3738 1.31723 39.2416 1.30621 39.0654C1.30621 38.9001 1.35026 38.7349 1.41634 38.6798C1.50443 38.6247 1.48241 38.5696 1.37229 38.5036C1.24014 38.4044 1.24014 38.3824 1.40532 38.3273C1.59253 38.2502 1.86783 37.457 1.76873 37.2918C1.73569 37.2367 1.77974 37.1596 1.87885 37.1266C1.99998 37.0825 2.04403 36.9723 1.99998 36.7851C1.96694 36.5868 2.01099 36.4656 2.15415 36.3885C2.26427 36.3334 2.33035 36.2122 2.29731 36.1241C2.25326 36.036 2.30832 35.9258 2.40743 35.8928C2.50654 35.8597 2.58363 35.7496 2.58363 35.6725C2.58363 35.5843 2.66071 35.4852 2.74881 35.4521C2.83691 35.4081 2.91399 35.3199 2.91399 35.2318C2.91399 35.1547 2.98006 35.0445 3.05715 35.0005C3.14525 34.9564 3.29942 34.7581 3.40954 34.5598C3.51966 34.3616 3.65181 34.2294 3.69586 34.2624C3.7399 34.2844 3.81699 34.2404 3.87205 34.1633C3.9161 34.0862 4.20242 33.9319 4.49974 33.8218C4.78606 33.7116 5.11643 33.5243 5.20452 33.4142C5.39173 33.1939 5.62299 33.1168 5.50185 33.315C5.40274 33.4803 5.5459 33.4472 5.73311 33.271C5.8212 33.1829 6.00841 33.1278 6.16258 33.1608C6.31675 33.1829 6.43789 33.1718 6.43789 33.1168C6.43789 33.0727 6.60307 33.0286 6.80129 33.0176C7.31886 32.9846 8.14477 32.9075 8.14477 32.8744C8.14477 32.8634 8.23287 32.8414 8.34299 32.8193C8.4421 32.7973 8.5302 32.8303 8.5302 32.8964C8.5302 32.9625 8.60728 32.9736 8.72842 32.9295C9.03676 32.7973 9.35611 32.7863 9.44421 32.9185C9.48826 32.9956 9.55433 33.0066 9.60939 32.9295C9.71951 32.7753 9.96178 32.7422 10.116 32.8524C10.2591 32.9736 10.9419 32.9625 11.1511 32.8414C11.2282 32.7863 11.2832 32.8083 11.2832 32.8854C11.2832 32.9625 11.3713 32.9846 11.5145 32.9515C11.6356 32.9185 11.8889 32.9405 12.0651 33.0066C12.2743 33.0837 12.4395 33.0837 12.5276 33.0066C12.5937 32.9515 12.9461 32.9185 13.2985 32.9295C13.6398 32.9515 13.9262 32.9075 13.9262 32.8524C13.9262 32.7973 13.9922 32.7863 14.0583 32.8414C14.2455 32.9515 15.0274 32.9846 15.0274 32.8854C15.0274 32.8414 15.1485 32.8083 15.3027 32.8083C15.4569 32.8083 15.578 32.8414 15.578 32.8854C15.578 32.9295 15.7432 32.9405 15.9414 32.9295C16.1286 32.9185 16.3268 32.9625 16.3819 33.0286C16.4369 33.1168 16.481 33.1168 16.5471 33.0176C16.6131 32.9075 16.7563 32.9185 17.1748 33.0837C17.4831 33.1939 17.9566 33.271 18.2539 33.26C18.5403 33.249 18.7715 33.282 18.7715 33.315C18.7715 33.3591 18.9587 33.3811 19.179 33.3701C19.4102 33.3591 19.6305 33.4032 19.6855 33.4693C19.7296 33.5464 19.7956 33.5574 19.8507 33.4803C19.9498 33.3371 20.2031 33.293 20.2031 33.4142C20.2031 33.5464 21.3704 33.7447 21.7778 33.6786C22.0091 33.6455 22.0752 33.6676 22.0201 33.7557C21.965 33.8548 22.0091 33.8658 22.1963 33.7997C22.3395 33.7557 22.5157 33.7226 22.5707 33.7337C22.824 33.7447 23.2094 33.8658 23.3306 33.954C23.5508 34.1302 24.2556 34.2184 24.3437 34.0751C24.3987 33.976 24.4648 33.998 24.5639 34.1302C24.674 34.2844 24.7511 34.2955 24.9163 34.2073C25.0815 34.1192 25.1696 34.1302 25.2797 34.2624C25.3568 34.3505 25.4889 34.3946 25.577 34.3616C25.6651 34.3285 25.8083 34.3616 25.8854 34.4277C25.9735 34.4938 26.2928 34.5598 26.6122 34.5598C26.9315 34.5598 27.2289 34.6149 27.2839 34.681C27.339 34.7692 27.383 34.7692 27.4491 34.681C27.5372 34.5378 27.9116 34.5709 28.0107 34.7361C28.0548 34.8022 28.1979 34.8352 28.3301 34.8022C28.4622 34.7802 28.5724 34.8132 28.5724 34.8793C28.5724 34.9454 28.6935 34.9674 28.8477 34.9454C28.9908 34.9124 29.0899 34.9344 29.0569 34.9785C29.0238 35.0335 29.145 35.0776 29.3322 35.0776C29.5084 35.0776 29.6956 35.1327 29.7396 35.1988C29.7837 35.2759 29.8388 35.2869 29.8828 35.2098C29.9268 35.1437 30.048 35.1437 30.2242 35.2208C30.3783 35.2759 30.5876 35.3199 30.6977 35.3089C30.8078 35.2979 30.962 35.342 31.0501 35.4081C31.1382 35.4852 31.2593 35.5072 31.3254 35.4632C31.3915 35.4191 31.5677 35.4742 31.7218 35.5623C31.898 35.6835 32.0522 35.7165 32.1843 35.6504C32.2835 35.5953 32.4266 35.5623 32.4927 35.5953C32.5477 35.6174 32.7129 35.5072 32.8561 35.364L33.1094 35.0886L32.8561 34.8242C32.5037 34.4607 32.2504 34.3946 32.0412 34.5929C31.9201 34.7251 31.876 34.7251 31.876 34.6149C31.876 34.5378 31.7769 34.4056 31.6558 34.3285C31.3694 34.1523 30.3563 34.0641 30.2682 34.2073C30.2352 34.2734 30.1471 34.2404 30.059 34.1192C29.9599 33.987 29.7507 33.9209 29.3432 33.9099C29.0018 33.8989 28.6825 33.8108 28.5613 33.7226C28.275 33.4693 27.6473 33.3261 27.4381 33.4472C27.328 33.5023 27.2509 33.5023 27.2509 33.4583C27.2509 33.4142 27.1958 33.4472 27.1298 33.5354C27.0417 33.6565 26.9976 33.6676 26.9536 33.5574C26.9315 33.4913 26.8104 33.4252 26.7003 33.4252C26.5902 33.4252 26.458 33.3701 26.425 33.315C26.3809 33.249 26.3149 33.2269 26.2598 33.26C26.2047 33.293 26.0616 33.26 25.9294 33.1829C25.7642 33.0837 25.6541 33.0727 25.522 33.1608C25.3678 33.249 25.2797 33.2379 25.1255 33.0947C24.9824 32.9515 24.7621 32.9075 24.2446 32.9185C23.771 32.9405 23.4847 32.8854 23.2865 32.7532C22.8901 32.4889 22.2954 32.4338 21.9981 32.6321C21.8219 32.7422 21.7008 32.7532 21.6016 32.6761C21.3374 32.4558 20.6106 32.3236 20.4454 32.4558C20.3463 32.5439 20.2692 32.5439 20.2251 32.4778C20.0049 32.1474 18.7935 32.0262 18.5843 32.3126C18.4632 32.4778 18.4522 32.4778 18.4412 32.3126C18.4412 32.1804 18.276 32.1033 17.8685 32.0152C17.5492 31.9491 17.2408 31.9381 17.1858 31.9931C17.1417 32.0372 16.9435 31.9931 16.7453 31.883C16.4479 31.7067 16.1837 31.6847 14.7741 31.7067C13.2104 31.7398 12.6708 31.6516 12.6928 31.3873C12.6928 31.3212 12.6267 31.189 12.5276 31.0898C12.4395 30.9797 12.3845 30.8254 12.4175 30.7263C12.4615 30.6382 12.4505 30.5611 12.3955 30.5611C12.2633 30.5611 12.3074 30.0874 12.4395 29.9772C12.5166 29.9221 12.5166 29.8671 12.4395 29.812C12.2964 29.7128 12.2523 29.4595 12.3734 29.4595C12.4285 29.4595 12.4726 29.3493 12.4615 29.2061C12.4505 28.7655 12.6047 27.9723 12.7148 27.9393C12.7809 27.9172 12.8249 27.8071 12.8249 27.6969C12.8249 27.5868 12.902 27.4215 12.9901 27.3224C13.0892 27.2343 13.1443 27.1131 13.1333 27.047C13.1113 26.9919 13.1883 26.8707 13.2985 26.7936C13.4086 26.7165 13.5077 26.5402 13.5187 26.4081C13.5187 26.2759 13.5628 26.1877 13.6068 26.2208C13.6509 26.2428 13.772 26.1216 13.8821 25.9564C14.0913 25.659 14.1134 25.6039 14.1354 25.2514C14.1464 25.1192 14.2015 25.0861 14.3336 25.1302C14.4437 25.1743 14.4878 25.1522 14.4327 25.0751C14.3997 25.009 14.4988 24.8328 14.664 24.6786C14.8292 24.5243 14.9283 24.3701 14.8842 24.326C14.8071 24.2489 15.0604 23.9515 15.2146 23.9515C15.3467 23.9515 15.7322 23.2575 15.6991 23.0812C15.6881 23.0041 15.7211 22.9711 15.7872 23.0151C15.8533 23.0482 15.9634 22.9601 16.0405 22.8058C16.1066 22.6516 16.2057 22.5194 16.2607 22.5194C16.3048 22.5194 16.3488 22.4533 16.3488 22.3652C16.3488 22.2881 16.481 22.1339 16.6352 22.0237C16.7893 21.9246 16.9655 21.6932 17.0316 21.517C17.0867 21.3407 17.1858 21.1975 17.2408 21.1975C17.2959 21.1975 17.3399 21.1204 17.3399 21.0213C17.3399 20.9331 17.384 20.8781 17.439 20.9111C17.5382 20.9772 18.1108 20.2942 18.1108 20.1069C18.1108 20.0519 18.2319 19.8646 18.3861 19.6994C18.5403 19.5341 18.6614 19.3358 18.6614 19.2587C18.6614 19.1816 18.7605 19.0825 18.8816 19.0494C19.0028 19.0053 19.0799 18.9282 19.0468 18.8732C19.0028 18.8181 19.0248 18.774 19.0799 18.774C19.2561 18.774 19.9829 18.091 19.9829 17.9258C19.9829 17.8487 20.0379 17.7826 20.093 17.7826C20.1591 17.7826 20.2582 17.6504 20.3132 17.4962C20.3793 17.3419 20.4674 17.2538 20.5335 17.2869C20.5885 17.3199 20.6986 17.2318 20.7647 17.0776C20.8418 16.9233 20.985 16.7691 21.0951 16.7361C21.1942 16.703 21.3153 16.6039 21.3484 16.5157C21.3814 16.4276 21.4695 16.3836 21.5466 16.4056C21.6237 16.4386 21.877 16.2954 22.1082 16.0861C22.3284 15.8768 22.5157 15.7336 22.5157 15.7667C22.5157 15.7997 22.6038 15.7556 22.7139 15.6565C22.824 15.5463 22.9451 15.5023 22.9892 15.5353C23.0222 15.5794 23.1433 15.5243 23.2425 15.4252C23.3416 15.326 23.5618 15.2048 23.738 15.1718C23.9142 15.1388 24.0353 15.0837 24.0133 15.0396C23.9913 15.0066 24.2005 14.9625 24.4758 14.9515C24.7621 14.9405 25.0044 14.8744 25.0264 14.8083C25.0485 14.7422 25.1366 14.7422 25.2907 14.8193C25.4559 14.9074 25.555 14.8964 25.7092 14.7532C25.8523 14.621 26.0175 14.588 26.2047 14.632C26.3699 14.6761 26.48 14.6541 26.48 14.588C26.48 14.5219 26.5351 14.4998 26.6122 14.5549C26.7994 14.6541 27.5813 14.6981 27.5813 14.599C27.5813 14.5549 27.6804 14.5219 27.8015 14.5108C27.9336 14.4998 27.9997 14.5439 27.9557 14.61C27.9116 14.6761 27.9667 14.6981 28.1098 14.6541C28.5393 14.5108 28.7926 14.4888 28.7926 14.588C28.7926 14.643 28.8697 14.6651 28.9688 14.621C29.0679 14.588 29.178 14.599 29.2221 14.6541C29.3432 14.8193 29.7727 15.0286 30.0039 15.0286C30.1251 15.0286 30.2242 15.0837 30.2242 15.1498C30.2242 15.2159 30.3013 15.2489 30.3894 15.2048C30.4775 15.1718 30.6096 15.2048 30.6867 15.282C30.7638 15.3591 30.962 15.4802 31.1382 15.5463C31.3034 15.6235 31.4355 15.7336 31.4355 15.7997C31.4355 15.8658 31.5016 15.9099 31.5897 15.8878C31.6668 15.8658 31.909 16.031 32.1183 16.2403C32.3275 16.4496 32.6248 16.725 32.79 16.8352C32.9552 16.9454 33.0653 17.0665 33.0323 17.0996C32.9992 17.1326 33.0433 17.2318 33.1314 17.3309C33.2745 17.5072 33.3626 17.8156 33.4728 18.5537C33.5058 18.763 33.5829 18.9613 33.6379 18.9943C33.693 19.0274 33.7921 19.3028 33.8472 19.6112C33.9022 19.9087 34.0014 20.2832 34.0674 20.4374C34.1225 20.6027 34.1445 20.7569 34.1225 20.7899C34.0454 20.867 34.2767 21.6822 34.5299 22.2661C34.6511 22.5304 34.7392 22.7948 34.7502 22.8719C34.7502 22.9491 34.8052 22.894 34.8713 22.7397L34.9924 22.4644L35.0695 22.8169C35.1686 23.2355 35.466 23.7312 35.6201 23.7312C35.6862 23.7312 35.7303 23.8083 35.7303 23.8964C35.7303 23.9845 35.7963 24.0286 35.8844 23.9956C36.0056 23.9515 36.0276 23.9956 35.9835 24.1608C35.9505 24.293 35.9725 24.3921 36.0496 24.3921C36.1157 24.3921 36.1707 24.4693 36.1707 24.5574C36.1707 24.6455 36.2809 24.7667 36.402 24.8438C36.5892 24.9429 36.7103 24.9209 37.0187 24.7557C37.327 24.5904 37.3821 24.5133 37.327 24.293C37.2389 23.9295 36.9416 23.5109 36.7764 23.5109C36.6993 23.5109 36.6112 23.4338 36.5672 23.3456C36.5342 23.2575 36.5562 23.1804 36.6112 23.1804C36.6773 23.1804 36.6222 23.0812 36.5011 22.9601C36.3029 22.7618 36.2368 22.5965 36.2699 22.3762C36.2699 22.3322 36.2258 22.2991 36.1597 22.2991C36.0827 22.2991 36.0606 22.2 36.0937 22.0678C36.1267 21.9246 36.0716 21.7593 35.9395 21.6271C35.8294 21.517 35.7853 21.4178 35.8514 21.4178C35.9285 21.4178 35.9175 21.3297 35.8073 21.1645C35.6532 20.9221 35.3338 19.6994 35.3889 19.5011C35.3999 19.457 35.3558 19.3579 35.3008 19.2807C35.2457 19.2146 35.1686 18.9282 35.1246 18.6308C35.0805 18.3444 35.0035 18.1131 34.9594 18.1131C34.8603 18.1131 34.7061 17.6063 34.7061 17.2318C34.7061 17.0665 34.8493 16.8022 35.0475 16.5818C35.2457 16.3836 35.3999 16.1743 35.3999 16.1082C35.3999 16.0531 35.4439 16.031 35.488 16.0641C35.532 16.0971 35.8184 15.8989 36.1157 15.6345C36.402 15.3701 36.6883 15.1718 36.7324 15.2048C36.7874 15.2269 36.8976 15.1057 36.9967 14.9184C37.1618 14.61 37.283 14.5329 37.5473 14.588C37.6133 14.599 37.6133 14.5659 37.5693 14.5219C37.4922 14.4337 37.9437 14.1363 38.4062 13.9711C38.5053 13.938 38.5934 13.8609 38.5934 13.8058C38.5934 13.7507 38.6925 13.7067 38.8137 13.7067C38.9348 13.7067 39.0339 13.6296 39.0339 13.5414C39.0339 13.3872 39.1661 13.3211 39.4083 13.3652C39.4524 13.3762 39.5625 13.3321 39.6286 13.2771C39.7497 13.1779 40.0691 13.0788 40.3884 13.0567C40.4435 13.0457 40.4545 13.0017 40.4214 12.9466C40.3884 12.8915 40.5206 12.8474 40.7298 12.8474C40.939 12.8474 41.2694 12.7593 41.4786 12.6602C42.1614 12.2966 42.2385 12.2636 42.3376 12.3297C42.4036 12.3738 42.5358 12.3187 42.6349 12.2195C42.745 12.0984 42.8992 12.0653 43.0754 12.1094C43.2516 12.1534 43.3176 12.1314 43.2736 12.0653C43.2296 11.9882 43.3727 11.9551 43.626 11.9662C44.3528 11.9882 45.0686 11.878 45.2448 11.7348C45.3879 11.6137 45.454 11.6137 45.5862 11.7238C45.6963 11.8119 45.7954 11.823 45.8945 11.7569C45.9606 11.6908 46.2579 11.6577 46.5552 11.6687C46.8415 11.6798 47.0728 11.6467 47.0728 11.5916C47.0728 11.4704 47.3261 11.5255 47.4362 11.6687C47.4802 11.7458 47.5463 11.7348 47.6014 11.6577C47.6454 11.6026 47.7996 11.5476 47.9538 11.5476C48.1079 11.5476 48.2621 11.6026 48.3172 11.6577C48.3722 11.7458 48.4163 11.7458 48.4824 11.6687C48.5484 11.5696 48.7797 11.5365 48.8678 11.6137C48.9228 11.6687 50.2663 11.6687 50.2663 11.6137C50.2663 11.5806 50.3654 11.5476 50.4866 11.5365C50.6077 11.5255 50.7068 11.5586 50.7068 11.6026C50.7068 11.6577 50.8279 11.6687 50.9821 11.6357C51.1363 11.6137 51.3455 11.6577 51.4446 11.7348C51.5658 11.845 51.6318 11.856 51.6649 11.7679C51.6979 11.6687 51.8631 11.6908 52.2265 11.823C52.5128 11.9331 53.0084 12.0102 53.3277 11.9992C53.636 11.9882 53.9003 12.0212 53.9003 12.0763C53.9003 12.1204 53.9995 12.1645 54.1096 12.1645C54.2307 12.1645 54.4069 12.2416 54.495 12.3407C54.5941 12.4288 54.7152 12.4839 54.7813 12.4398C54.8364 12.4068 54.9685 12.4619 55.0786 12.572C55.3429 12.8364 55.8825 13.1779 55.8825 13.0898C55.8825 13.0457 55.9816 13.1449 56.1138 13.3101C56.2349 13.4753 56.5433 13.7067 56.7745 13.8279C57.0168 13.949 57.182 14.0922 57.1489 14.1363C57.1269 14.1914 57.171 14.2905 57.2591 14.3676C57.3472 14.4447 57.4903 14.632 57.5674 14.7973C57.8317 15.282 58.0299 15.6235 58.2281 15.9209C58.3382 16.0861 58.4043 16.2844 58.3933 16.3615C58.3713 16.4496 58.4153 16.5047 58.4704 16.4937C58.5365 16.4827 58.6025 16.6259 58.6136 16.8132C58.6246 16.9894 58.7237 17.2208 58.8228 17.3199C58.9329 17.4301 58.9549 17.5072 58.8778 17.5402C58.7457 17.5843 58.8228 18.2122 58.977 18.3774C59.032 18.4435 59.0761 18.5978 59.0761 18.7299C59.0761 18.8621 59.1531 19.0274 59.2412 19.1045C59.3404 19.1816 59.3844 19.3248 59.3514 19.4129C59.3183 19.5011 59.3514 19.6443 59.4174 19.7214C59.4835 19.8095 59.5055 19.9968 59.4725 20.162C59.4285 20.3273 59.4395 20.4154 59.5055 20.3823C59.5606 20.3383 59.6267 20.4154 59.6487 20.5476C59.6707 20.6798 59.8249 20.8891 59.9901 21.0213C60.2984 21.2526 60.3094 21.2526 60.4636 21.0323C60.5517 20.9111 60.5957 20.7569 60.5737 20.6798C60.5407 20.6027 60.5627 20.4154 60.6178 20.2722C60.7609 19.8756 60.6288 19.2807 60.3314 18.9613C60.1773 18.796 60.1112 18.6418 60.1773 18.6088C60.2544 18.5647 60.2544 18.4656 60.1773 18.3224C60.1112 18.2122 60.0892 18.1131 60.1332 18.1131C60.1663 18.1131 60.1442 18.0359 60.0672 17.9478C60.0011 17.8597 59.968 17.7385 60.0121 17.6724C60.0451 17.6173 60.0011 17.5292 59.913 17.4962C59.7919 17.4521 59.7588 17.3419 59.8029 17.1657C59.913 16.7471 59.7478 16.1632 59.4615 15.8438C59.3073 15.6785 59.1862 15.4472 59.1862 15.326C59.1862 15.2048 59.0651 14.9405 58.9109 14.7422C58.7567 14.5439 58.6356 14.3015 58.6356 14.2024C58.6356 14.1143 58.5585 14.0041 58.4704 13.9711C58.3823 13.927 58.3052 13.8389 58.3052 13.7507C58.3052 13.5414 57.5674 13.0127 57.3802 13.0788C57.2701 13.1228 57.237 13.0898 57.2811 12.9906C57.3472 12.8034 56.8957 12.2746 56.6534 12.2746C56.5433 12.2746 56.5323 12.2416 56.6093 12.1865C56.6754 12.1424 56.7195 11.9772 56.7195 11.8009C56.7084 11.6357 56.7415 11.5035 56.7855 11.5035C56.9067 11.5035 57.0939 10.7104 57.0388 10.4239C57.0168 10.2917 57.0388 10.1816 57.1049 10.1816C57.1599 10.1816 57.204 10.0824 57.204 9.95025C57.204 9.82908 57.2811 9.65282 57.3802 9.55368C57.4683 9.45453 57.5233 9.31133 57.4903 9.23422C57.4573 9.14609 57.5233 9.03593 57.6445 8.96983C57.7766 8.90374 57.8317 8.77155 57.8097 8.63935C57.7876 8.51818 57.8097 8.44107 57.8647 8.47412C57.9198 8.50716 57.9969 8.397 58.0409 8.23177C58.085 8.06653 58.1731 7.85722 58.2391 7.7691C58.3052 7.68097 58.3493 7.59284 58.3382 7.57081C58.2612 7.48268 58.3162 7.30643 58.3933 7.36151C58.4484 7.39455 58.5475 7.24033 58.6246 7.03103C58.7016 6.83274 58.8118 6.65649 58.8668 6.65649C58.9219 6.65649 58.9659 6.59039 58.9439 6.51328C58.9219 6.43617 59.1642 6.12772 59.4835 5.84131C59.7919 5.55489 60.0782 5.20238 60.1112 5.04816C60.1553 4.89394 60.2323 4.80581 60.2874 4.83886C60.3535 4.87191 60.3975 4.87191 60.3975 4.81683C60.3975 4.77276 60.5737 4.60752 60.7829 4.46432C60.9922 4.32111 61.1353 4.16689 61.1023 4.11181C61.0693 4.05673 61.1904 3.97961 61.3776 3.94657C61.5648 3.9025 61.719 3.83641 61.719 3.78133C61.719 3.73726 61.8181 3.66015 61.9392 3.6271C62.0604 3.59406 62.1595 3.4839 62.1595 3.39577C62.1595 3.30764 62.2145 3.26358 62.2806 3.29663C62.4017 3.37374 63.0955 3.08732 63.2056 2.91107C63.2497 2.84497 63.3268 2.82294 63.3818 2.85599C63.4369 2.90005 63.4809 2.867 63.4809 2.80091C63.4809 2.73481 63.525 2.71278 63.5911 2.74583C63.6461 2.77888 63.9214 2.71278 64.1857 2.59161C64.461 2.48145 64.6923 2.40434 64.7253 2.42637C64.7914 2.49246 65.7164 2.15097 65.7935 2.02979C65.8596 1.93065 66.5643 1.79846 67.0379 1.79846C67.137 1.79846 67.2251 1.7544 67.2251 1.71033C67.2251 1.66627 67.4783 1.6222 67.7757 1.6222C68.084 1.6222 68.4034 1.55611 68.4915 1.479C68.5796 1.4129 68.7007 1.37985 68.7558 1.42392C68.8218 1.45697 68.976 1.43493 69.0971 1.36884C69.2623 1.28071 69.3174 1.28071 69.3174 1.37985C69.3174 1.45697 69.3945 1.46798 69.5156 1.42392C69.6147 1.36884 69.89 1.33579 70.1213 1.34681C70.3525 1.34681 70.5067 1.30274 70.4737 1.24766C70.4296 1.19258 70.4847 1.14852 70.5728 1.14852C70.6719 1.14852 70.749 1.19258 70.749 1.23665ZM31.6998 7.39455C31.7659 7.47167 32.757 7.55979 33.4287 7.54878C33.5939 7.54878 33.9793 7.6369 34.2987 7.75808C34.7171 7.9123 34.9374 7.93433 35.1466 7.85722C35.3448 7.78011 35.477 7.80214 35.6532 7.92332C35.7853 8.01145 35.9725 8.08856 36.0716 8.08856C36.1818 8.08856 36.2809 8.15465 36.3139 8.22075C36.3469 8.33091 36.413 8.33091 36.6002 8.22075C36.7434 8.13262 36.8315 8.13262 36.8315 8.19872C36.8315 8.51818 37.5252 8.96983 38.0208 8.96983C38.241 8.96983 38.4282 9.07999 38.6705 9.35539C38.8577 9.56469 39.122 9.74095 39.2431 9.74095C39.4193 9.74095 39.4964 9.82908 39.5405 10.0714C39.6176 10.4019 40.0691 10.9527 40.2783 10.9527C40.3444 10.9527 40.3113 11.0188 40.2012 11.0959C40.1021 11.173 40.014 11.2832 40.025 11.3383C40.0911 11.6687 39.992 11.8119 39.5625 11.9441C39.0229 12.1204 38.7035 12.3517 38.7035 12.5831C38.7035 12.6712 38.6375 12.7152 38.5494 12.6822C38.3622 12.6051 37.7125 12.8254 37.7125 12.9576C37.7125 13.0017 37.6354 13.0457 37.5473 13.0457C37.3931 13.0457 37.327 13.1779 37.3711 13.4203C37.3821 13.4753 37.316 13.4864 37.2279 13.4533C37.1288 13.4093 37.0297 13.4313 36.9967 13.4974C36.9526 13.5525 36.8865 13.5745 36.8315 13.5414C36.6993 13.4643 36.1707 13.916 36.0496 14.2244C35.9946 14.3897 35.8404 14.5108 35.6312 14.5439C35.4439 14.588 35.2237 14.7312 35.1356 14.8744C35.0365 15.0066 34.8273 15.1938 34.6621 15.2709C34.4969 15.3481 34.3648 15.4582 34.3648 15.5243C34.3758 15.5794 34.2216 15.7446 34.0454 15.8768L33.715 16.1302L33.3957 15.7777C33.2305 15.5904 33.0873 15.4802 33.0873 15.5353C33.0873 15.5904 33.0323 15.5463 32.9662 15.4362C32.9111 15.337 32.757 15.2489 32.6469 15.2489C32.5257 15.2489 32.4266 15.1938 32.4266 15.1277C32.4266 14.8193 31.6778 14.3566 31.1382 14.3346C30.9179 14.3236 30.7748 14.2685 30.7748 14.1804C30.7748 14.0041 30.3233 13.8168 29.7837 13.7618C29.5745 13.7507 29.3873 13.6736 29.3652 13.6075C29.3432 13.5414 29.2771 13.5084 29.2221 13.5525C29.167 13.5855 29.123 13.5635 29.123 13.5084C29.123 13.3211 28.2089 13.2881 27.8786 13.4533C27.7134 13.5414 27.5152 13.5745 27.4491 13.5304C27.372 13.4864 27.1958 13.4313 27.0527 13.4203C26.7223 13.3762 26.6893 13.3542 26.6672 13.0347C26.6672 12.8915 26.6012 12.7263 26.5351 12.6822C26.458 12.6161 26.469 12.572 26.5681 12.528C26.6342 12.5059 26.7003 12.4068 26.7003 12.3187C26.7003 12.2305 26.7443 12.1645 26.7884 12.1645C26.9425 12.1645 27.1738 11.3383 27.0857 11.0739C27.0527 10.9417 27.0527 10.8425 27.1077 10.8536C27.306 10.8866 27.5042 10.8425 27.4381 10.7654C27.394 10.7324 27.4711 10.5782 27.6033 10.4239C27.7464 10.2807 27.8455 10.1485 27.8345 10.1155C27.7244 9.95025 27.8455 9.75196 28.1209 9.6418C28.286 9.56469 28.6164 9.31133 28.8366 9.06898C29.0679 8.83764 29.3212 8.63935 29.4093 8.63935C29.4974 8.63935 29.5965 8.56224 29.6295 8.47412C29.6736 8.38599 29.7617 8.30888 29.8388 8.30888C29.9158 8.30888 30.0039 8.24278 30.037 8.16567C30.07 8.08856 30.3013 7.95637 30.5545 7.87926C30.7968 7.80214 31.1051 7.64792 31.2263 7.52675C31.4465 7.30643 31.5677 7.27338 31.6998 7.39455ZM45.7513 11.0849C45.7513 11.14 45.7073 11.173 45.6412 11.173C45.5862 11.173 45.5311 11.0629 45.5311 10.9197C45.5311 10.7214 45.5531 10.7104 45.6412 10.8425C45.6963 10.9307 45.7513 11.0408 45.7513 11.0849ZM45.0906 11.1069C45.0906 11.14 45.0466 11.195 44.9805 11.2281C44.9254 11.2611 44.8704 11.2391 44.8704 11.184C44.8704 11.1179 44.9254 11.0629 44.9805 11.0629C45.0466 11.0629 45.0906 11.0849 45.0906 11.1069ZM25.8193 13.5965C25.8193 13.6516 25.7422 13.6736 25.6541 13.6406C25.566 13.5965 25.4889 13.5525 25.4889 13.5304C25.4889 13.5084 25.566 13.4864 25.6541 13.4864C25.7422 13.4864 25.8193 13.5304 25.8193 13.5965ZM26.2598 13.927C26.2598 13.9821 26.1827 14.0372 26.0836 14.0372C25.9955 14.0372 25.9515 13.9821 25.9845 13.927C26.0175 13.8609 26.0946 13.8168 26.1607 13.8168C26.2157 13.8168 26.2598 13.8609 26.2598 13.927ZM81.651 15.6896C81.651 15.7446 81.607 15.7997 81.5409 15.7997C81.4858 15.7997 81.4308 15.7446 81.4308 15.6896C81.4308 15.6235 81.4858 15.5794 81.5409 15.5794C81.607 15.5794 81.651 15.6235 81.651 15.6896ZM82.3117 15.7997C82.3117 15.8548 82.2677 15.9099 82.2016 15.9099C82.1466 15.9099 82.0915 15.8548 82.0915 15.7997C82.0915 15.7336 82.1466 15.6896 82.2016 15.6896C82.2677 15.6896 82.3117 15.7336 82.3117 15.7997ZM11.6136 21.539C11.6136 21.5831 11.7678 21.6161 11.955 21.6161C12.1422 21.6051 12.3294 21.6492 12.3624 21.7153C12.4065 21.7703 12.5827 21.8585 12.7479 21.9025C12.913 21.9466 13.0232 22.0237 12.9901 22.0678C12.9571 22.1229 12.9681 22.189 13.0122 22.211C13.0672 22.222 13.1883 22.4203 13.2985 22.6406C13.4967 23.0262 13.5297 23.0482 13.9372 22.9931C14.3777 22.927 14.4878 23.0482 14.2565 23.3236C14.1905 23.4007 13.9372 23.6761 13.7059 23.9515C13.2875 24.4032 13.2104 24.5794 13.2544 24.9099C13.2654 24.987 13.1994 25.0531 13.1002 25.0531C13.0122 25.0531 12.9351 25.1302 12.9351 25.2183C12.9351 25.3065 12.88 25.3836 12.8249 25.3836C12.6928 25.3836 12.4505 25.9123 12.4836 26.1547C12.4946 26.2428 12.3845 26.375 12.2523 26.4301C11.8889 26.5953 11.6026 27.1902 11.6797 27.6308C11.7237 27.9503 11.6907 28.0164 11.5035 28.0825C11.3383 28.1376 11.2832 28.2257 11.3163 28.3579C11.3493 28.4791 11.3163 28.5892 11.2612 28.6002C11.1841 28.6333 11.1841 28.7875 11.2722 29.0629C11.3603 29.3824 11.3493 29.5586 11.2392 29.7789C11.085 30.0874 11.1291 31.0017 11.2943 31.0017C11.3493 31.0017 11.3934 31.0788 11.3934 31.1669C11.3934 31.2551 11.4815 31.3322 11.5916 31.3322C11.7458 31.3322 11.7568 31.3542 11.6136 31.4313C11.5255 31.4974 11.4154 31.5084 11.3713 31.4864C11.3163 31.4534 11.2943 31.4864 11.3053 31.5745C11.3273 31.6847 11.1291 31.7177 10.4573 31.7067C9.97279 31.6957 9.40016 31.6627 9.19093 31.6406C8.97069 31.6076 8.67336 31.6516 8.49716 31.7398C8.33198 31.8279 8.13376 31.8499 8.05668 31.8059C7.85846 31.6847 7.21975 31.6627 7.15368 31.7838C7.10963 31.8389 7.04356 31.8609 6.98849 31.8279C6.94445 31.7948 6.84534 31.8499 6.76825 31.9381C6.68015 32.0482 6.57003 32.0592 6.38282 31.9931C5.9974 31.8499 5.40274 31.9821 5.08339 32.2795C4.74201 32.588 4.49974 32.6321 4.65391 32.3567C4.731 32.2355 4.69796 32.0592 4.5548 31.8059C4.43367 31.6076 4.34557 31.3762 4.34557 31.2991C4.34557 31.222 4.24646 31.0458 4.12533 30.9246C3.98217 30.7593 3.94914 30.6712 4.04824 30.6382C4.13634 30.6161 4.12533 30.539 3.98217 30.4068C3.83901 30.2636 3.81699 30.1645 3.90509 29.9992C3.99318 29.845 3.98217 29.7899 3.89407 29.7899C3.80598 29.7899 3.78395 29.6578 3.828 29.4154C3.86104 29.2061 3.828 28.9858 3.76193 28.9197C3.68484 28.8426 3.67383 28.7985 3.76193 28.7985C3.88306 28.7985 3.87205 28.1045 3.7399 27.774C3.69586 27.6639 3.70687 27.5868 3.78395 27.5868C3.85003 27.5868 3.87205 27.5096 3.83901 27.4215C3.79496 27.3334 3.86104 27.1241 3.96015 26.9699C4.09229 26.7716 4.10331 26.7055 4.0042 26.7606C3.9161 26.7936 3.96015 26.7385 4.10331 26.6174C4.23545 26.4962 4.34557 26.2869 4.34557 26.1657C4.34557 26.0335 4.38962 25.9344 4.43367 25.9344C4.54379 25.9344 4.79707 25.2624 4.71999 25.1522C4.68695 25.0972 4.71999 25.0531 4.78606 25.0531C4.85213 25.0531 4.87416 24.998 4.84112 24.9429C4.80808 24.8768 4.85213 24.8328 4.94023 24.8328C5.03934 24.8328 5.11643 24.7667 5.11643 24.6786C5.11643 24.5904 5.23756 24.4142 5.39173 24.271C5.53489 24.1278 5.66703 23.9405 5.66703 23.8634C5.66703 23.7973 5.73311 23.7312 5.81019 23.7312C5.89829 23.7312 6.14056 23.5439 6.34979 23.3126C6.82331 22.8169 7.42898 22.2991 7.58315 22.2881C8.04566 22.233 8.75044 22.0568 8.75044 21.9796C8.75044 21.9466 8.93765 21.9025 9.15789 21.8805C9.37814 21.8695 9.60939 21.8144 9.67546 21.7593C9.8847 21.5941 10.2921 21.539 10.2921 21.6712C10.2921 21.7703 10.3142 21.7703 10.3802 21.6822C10.4243 21.6161 10.6445 21.561 10.8758 21.5721C11.096 21.5721 11.2832 21.55 11.2832 21.517C11.2832 21.4839 11.3603 21.4509 11.4484 21.4509C11.5365 21.4509 11.6136 21.4949 11.6136 21.539ZM25.0485 33.4693C25.0485 33.5904 24.8392 33.6345 24.7732 33.5354C24.7401 33.4803 24.7842 33.4252 24.8723 33.4252C24.9714 33.4252 25.0485 33.4472 25.0485 33.4693ZM25.5991 33.6455C25.5991 33.7006 25.577 33.7557 25.555 33.7557C25.522 33.7557 25.4669 33.7006 25.4339 33.6455C25.4008 33.5794 25.4229 33.5354 25.4779 33.5354C25.544 33.5354 25.5991 33.5794 25.5991 33.6455ZM79.9992 34.5378C79.9992 34.5929 79.9551 34.637 79.8891 34.637C79.834 34.637 79.7789 34.5598 79.7789 34.4607C79.7789 34.3726 79.834 34.3285 79.8891 34.3616C79.9551 34.3946 79.9992 34.4717 79.9992 34.5378ZM79.3385 34.637C79.3385 34.692 79.2944 34.7471 79.2283 34.7471C79.1733 34.7471 79.1182 34.692 79.1182 34.637C79.1182 34.5709 79.1733 34.5268 79.2283 34.5268C79.2944 34.5268 79.3385 34.5709 79.3385 34.637ZM78.7878 35.6284C78.7878 35.6835 78.7438 35.7386 78.6777 35.7386C78.6227 35.7386 78.5676 35.6835 78.5676 35.6284C78.5676 35.5623 78.6227 35.5182 78.6777 35.5182C78.7438 35.5182 78.7878 35.5623 78.7878 35.6284ZM1.61455 36.0911C1.53747 36.1682 1.48241 36.1792 1.48241 36.1131C1.48241 35.9589 1.61455 35.8267 1.69164 35.9038C1.71366 35.9368 1.68063 36.025 1.61455 36.0911ZM1.48241 36.6198C1.48241 36.6749 1.43836 36.73 1.37229 36.73C1.31723 36.73 1.26217 36.6749 1.26217 36.6198C1.26217 36.5537 1.31723 36.5097 1.37229 36.5097C1.43836 36.5097 1.48241 36.5537 1.48241 36.6198ZM55.1117 39.484C55.1117 39.5391 55.0676 39.5941 55.0016 39.5941C54.9465 39.5941 54.8914 39.5391 54.8914 39.484C54.8914 39.4179 54.9465 39.3738 55.0016 39.3738C55.0676 39.3738 55.1117 39.4179 55.1117 39.484ZM30.5545 46.2147C30.5545 46.2698 30.5105 46.3139 30.4444 46.3139C30.3894 46.3139 30.3343 46.2367 30.3343 46.1376C30.3343 46.0495 30.3894 46.0054 30.4444 46.0385C30.5105 46.0715 30.5545 46.1486 30.5545 46.2147ZM30.0039 46.3579C30.0039 46.4791 29.7947 46.5232 29.7286 46.424C29.6956 46.3689 29.7396 46.3139 29.8277 46.3139C29.9268 46.3139 30.0039 46.3359 30.0039 46.3579ZM6.65813 54.9173C6.65813 54.9724 6.61408 55.0164 6.54801 55.0164C6.49295 55.0164 6.43789 54.9393 6.43789 54.8402C6.43789 54.7521 6.49295 54.708 6.54801 54.741C6.61408 54.7741 6.65813 54.8512 6.65813 54.9173Z"
          fill="white"/>
    <path d="M66.6745 18.7961C66.4653 18.8952 66.201 18.9834 66.0908 18.9944C65.7715 18.9944 65.2539 19.446 65.1878 19.7765C65.1438 19.9528 65.0777 20.0849 65.0447 20.0849C64.8355 20.0519 64.6923 20.129 64.3069 20.4815C64.0866 20.7018 63.9214 20.9442 63.9545 21.0213C63.9875 21.1094 63.8994 21.2306 63.7452 21.3077C63.3048 21.5501 62.7542 22.7288 63.0845 22.7398C63.1506 22.7508 63.0955 22.8389 62.9634 22.9491C62.8312 23.0593 62.7542 23.1804 62.7872 23.2245C62.8202 23.2575 62.7982 23.3457 62.7321 23.4228C62.6661 23.5109 62.644 23.7202 62.6991 23.9515C62.7431 24.2049 62.7211 24.4362 62.633 24.6125C62.4348 24.976 62.6771 26.1547 62.9524 26.1547C63.0074 26.1547 63.0074 26.2208 62.9524 26.331C62.7542 26.6835 63.0295 27.3885 63.4259 27.5648C63.6461 27.6639 63.6902 27.6529 63.7342 27.4987C63.7673 27.3444 63.8003 27.3555 63.8884 27.5648C63.9655 27.7741 64.0095 27.7961 64.1087 27.6749C64.2848 27.4546 64.3509 26.9258 64.1967 26.9258C64.1197 26.9258 64.0646 26.7496 64.0536 26.5183C64.0426 26.2979 63.9985 26.0886 63.9545 26.0556C63.8554 25.9785 63.8003 25.5599 63.8003 24.9099C63.8003 24.6235 63.7563 24.5244 63.6682 24.5795C63.5911 24.6235 63.6021 24.5795 63.6902 24.4693C63.7673 24.3701 63.8113 24.2159 63.7783 24.1278C63.7452 24.0397 63.7563 23.9515 63.8113 23.9295C63.8994 23.8965 63.9985 23.4118 64.0206 22.872C64.0316 22.7949 64.0866 22.7618 64.1417 22.7949C64.2078 22.8389 64.2518 22.8279 64.2408 22.7728C64.2078 22.5525 64.2628 22.3983 64.4941 22.189C64.6262 22.0678 64.6813 21.9687 64.6042 21.9687C64.5381 21.9687 64.7143 21.7484 65.0006 21.473C65.287 21.1976 65.5512 20.9772 65.5953 20.9772C65.6504 20.9772 65.6834 20.9222 65.6834 20.8561C65.6834 20.7129 65.9697 20.4154 66.0358 20.4925C66.0688 20.5146 66.1789 20.4154 66.278 20.2722C66.3992 20.0849 66.5203 20.0189 66.6415 20.0629C66.7516 20.107 66.7956 20.0849 66.7406 20.0078C66.6415 19.8316 66.9498 19.7875 67.9959 19.8206C68.5135 19.8316 69.0201 19.7985 69.1192 19.7435C69.2403 19.6884 69.3945 19.6884 69.5046 19.7545C69.6808 19.8536 70.1874 20.0078 70.4737 20.0409C70.5398 20.0519 70.738 20.129 70.9142 20.2061C71.1014 20.2943 71.2996 20.3714 71.3547 20.3714C71.7291 20.4264 72.0594 20.5696 72.0044 20.6578C71.9493 20.7459 72.0925 20.79 72.2466 20.7239C72.2797 20.7129 72.3788 20.823 72.4559 20.9772C72.544 21.1315 72.61 21.2086 72.6211 21.1645C72.6211 21.1204 72.6871 21.1425 72.7752 21.2196C72.8633 21.2967 72.9074 21.3958 72.8743 21.4399C72.8303 21.528 72.9184 21.6602 73.3148 22.0898C73.4139 22.2 73.469 22.2992 73.4249 22.2992C73.3699 22.3102 73.447 22.3983 73.5791 22.5085C73.7113 22.6186 73.7883 22.7398 73.7553 22.7839C73.7223 22.8169 73.7443 22.905 73.7994 22.9821C73.9425 23.1694 73.9425 23.5109 73.7883 23.5109C73.7223 23.5109 73.7333 23.555 73.8104 23.61C73.9866 23.7092 74.0086 23.8414 73.8654 23.9405C73.7113 24.0507 73.491 24.6235 73.5681 24.7337C73.6011 24.7998 73.5791 24.8989 73.5241 24.976C73.469 25.0531 73.436 25.1963 73.447 25.2955C73.469 25.3946 73.4139 25.5048 73.3258 25.5378C73.2377 25.5709 73.2047 25.67 73.2488 25.7802C73.2928 25.9014 73.2267 26.0336 73.0505 26.1657C72.8633 26.309 72.8413 26.375 72.9514 26.375C73.0395 26.3861 72.9845 26.4522 72.8193 26.5513C72.555 26.6945 72.533 26.7386 72.6431 26.9258C72.7532 27.0911 72.9074 27.1462 73.2488 27.1462C74.0086 27.1462 74.4271 26.6394 74.405 25.7361C74.405 25.5489 74.4381 25.3836 74.4711 25.3836C74.5812 25.3836 74.8565 24.7227 74.7794 24.6455C74.7464 24.6125 74.7684 24.5134 74.8455 24.4252C74.9336 24.3151 74.9336 24.238 74.8455 24.1498C74.7684 24.0727 74.7905 23.9405 74.9446 23.6982C75.2199 23.2355 75.0107 22.2992 74.5812 22.0678C74.4711 22.0127 74.405 21.9136 74.4381 21.8585C74.5702 21.6382 73.7883 20.7018 73.5791 20.834C73.513 20.8781 73.491 20.812 73.5241 20.6688C73.5681 20.5366 73.5461 20.4264 73.491 20.4264C73.436 20.4264 73.3919 20.3603 73.3919 20.2722C73.3919 20.118 72.599 19.5231 72.4449 19.5672C72.2797 19.6113 71.8502 19.424 71.8502 19.3138C71.8502 19.2588 71.7731 19.2147 71.685 19.2147C71.5969 19.2147 71.4317 19.1706 71.3216 19.1155C71.0904 18.9834 70.727 18.8512 70.5838 18.8291C70.5287 18.8181 70.3305 18.752 70.1653 18.6859C69.9561 18.5978 69.7138 18.5868 69.4055 18.6529C69.1522 18.719 68.8879 18.73 68.8329 18.6859C68.5906 18.5317 67.0599 18.6088 66.6745 18.7961Z"
          fill="white"/>
    <path d="M67.4894 22.7067C67.203 22.7397 67.126 22.8168 67.0709 23.0702C67.0379 23.2575 67.0379 23.4778 67.0709 23.5659C67.115 23.654 67.0819 23.7311 67.0158 23.7311C66.8507 23.7311 66.8617 24.2048 67.0269 24.3701C67.0929 24.4362 67.17 24.6124 67.192 24.7446C67.2141 24.8768 67.3022 25.1191 67.3792 25.2844C67.4563 25.4496 67.5114 25.703 67.4784 25.8462C67.4343 26.0886 67.4784 26.1106 68.4364 26.2979C68.998 26.408 69.4716 26.4741 69.5046 26.4521C69.6918 26.2538 70.0332 22.8939 69.868 22.7948C69.8129 22.7617 69.5156 22.6956 69.2073 22.6626C68.7558 22.6075 68.6567 22.6295 68.6567 22.7728C68.6567 22.8719 68.5686 22.938 68.4474 22.927C68.3263 22.927 68.2602 22.8609 68.2933 22.7728C68.3483 22.6295 68.2162 22.6185 67.4894 22.7067Z"
          fill="white"/>
    <path d="M39.0669 27.3333C38.9238 27.3554 38.8137 27.4215 38.8137 27.4766C38.8137 27.5316 38.6265 27.6087 38.4062 27.6528C38.175 27.6969 37.8997 27.796 37.8005 27.8952C37.6574 28.0163 37.6023 28.0274 37.6023 27.9172C37.6023 27.818 37.5252 27.8291 37.327 27.9613C37.1839 28.0604 36.9856 28.1375 36.8865 28.1375C36.7984 28.1375 36.7214 28.1706 36.7214 28.2256C36.7214 28.2697 36.6222 28.3688 36.4901 28.446C36.3139 28.5671 36.2809 28.5671 36.3469 28.457C36.391 28.3799 36.2809 28.4239 36.0937 28.5561C35.6642 28.8535 35.1466 29.5365 35.2347 29.6797C35.2677 29.7458 35.2457 29.7899 35.1907 29.7899C35.0475 29.7899 34.7392 30.4949 34.7502 30.8144C34.7502 30.9466 34.7281 31.233 34.7061 31.4423C34.6841 31.6516 34.7171 31.927 34.7722 32.0482C34.9374 32.3456 34.9594 32.5439 34.8383 32.5439C34.7832 32.5439 34.8162 32.6651 34.9154 32.8193C35.0145 32.9735 35.0475 33.0947 34.9814 33.0947C34.8603 33.0947 35.1686 34.009 35.3118 34.0641C35.3558 34.0861 35.3669 34.1632 35.3448 34.2293C35.2788 34.3946 35.3889 34.5488 35.7303 34.7801C35.8844 34.8903 35.9285 34.9674 35.8404 34.9674C35.7523 34.9674 35.8734 35.1326 36.1047 35.3419C36.3249 35.5512 36.5121 35.7495 36.5121 35.7826C36.5011 35.8156 36.5341 35.8487 36.5672 35.8376C36.6002 35.8376 36.7214 35.9478 36.8425 36.08C37.0627 36.3334 37.4041 36.5647 37.7455 36.6859C37.8446 36.7189 37.9327 36.8071 37.9327 36.8621C37.9327 36.9282 38.0098 36.9503 38.0979 36.9062C38.186 36.8731 38.2631 36.8952 38.2631 36.9503C38.2631 37.1926 38.4613 37.0384 38.7035 36.5977C38.8357 36.3554 38.9018 36.1791 38.8247 36.2232C38.7586 36.2673 38.7035 36.2342 38.7035 36.1461C38.7035 35.9698 38.252 35.5182 38.0648 35.5182C37.9878 35.5182 37.9327 35.4631 37.9327 35.408C37.9327 35.3309 37.8666 35.3309 37.7235 35.408C37.5363 35.4962 37.5032 35.4741 37.4371 35.1877C37.3711 34.8682 36.7214 34.1963 36.4901 34.1963C36.424 34.1963 36.391 34.1192 36.435 34.031C36.4681 33.9429 36.446 33.8658 36.38 33.8658C36.3139 33.8658 36.3029 33.8107 36.3359 33.7556C36.435 33.5904 36.1487 32.9845 35.9615 32.9845C35.8624 32.9845 35.8514 32.9405 35.9175 32.8413C36.1047 32.599 36.0826 31.927 35.8844 31.7287C35.7303 31.5745 35.7192 31.4864 35.8294 31.266C35.8954 31.1118 35.9505 30.8915 35.9505 30.7813C35.9505 30.572 36.6553 29.5476 36.8425 29.4815C36.8975 29.4594 36.9416 29.3823 36.9416 29.3162C36.9416 29.2391 37.1288 29.184 37.3931 29.173C37.6354 29.173 37.8776 29.1069 37.9217 29.0298C37.9657 28.9637 38.0538 28.9086 38.1089 28.9196C38.1639 28.9307 38.23 28.9307 38.2631 28.9196C38.3842 28.8756 39.1 28.7875 39.3092 28.7875C39.4303 28.7875 39.6946 28.7985 39.8818 28.7985C40.0801 28.7985 40.3664 28.7214 40.5206 28.6222C40.7298 28.49 40.8399 28.468 40.939 28.5671C41.0271 28.6332 41.2033 28.6553 41.3465 28.6332C41.4896 28.6112 41.6658 28.6332 41.7429 28.6993C41.82 28.7654 41.9411 28.7985 42.0292 28.7875C42.1063 28.7654 42.3376 28.9086 42.5468 29.1069C42.8661 29.4154 43.1525 29.5255 43.4718 29.4704C43.5269 29.4594 43.5929 29.5586 43.626 29.6797C43.659 29.8009 43.7581 29.9001 43.8462 29.9001C43.9343 29.9001 43.9674 29.9441 43.9343 30.0102C43.9013 30.0653 43.9453 30.1204 44.0334 30.1204C44.1325 30.1204 44.2096 30.1644 44.2096 30.2305C44.2096 30.2856 44.3087 30.3407 44.4299 30.3407C44.551 30.3407 44.6391 30.3737 44.6391 30.4178C44.562 30.8805 45.1236 31.7728 45.4981 31.7728C45.5861 31.7728 45.6192 31.8278 45.5861 31.8829C45.5091 32.0151 45.7623 32.654 45.8945 32.654C45.9496 32.654 45.9606 32.6981 45.9165 32.7532C45.7954 32.9625 46.2138 33.2048 46.6874 33.2048C47.227 33.2048 47.4142 32.9735 47.1168 32.643C47.0177 32.5329 46.9737 32.4007 47.0067 32.3456C47.0398 32.2905 46.9737 32.1143 46.8525 31.96C46.7314 31.8058 46.6323 31.6296 46.6323 31.5635C46.6323 31.4974 46.5332 31.3982 46.4011 31.3321C46.2799 31.266 46.2028 31.1449 46.2249 31.0788C46.2469 31.0017 46.1478 30.8584 46.0046 30.7483C45.8615 30.6381 45.7513 30.4509 45.7513 30.3407C45.7513 30.2305 45.6742 30.1204 45.5861 30.0763C45.4981 30.0433 45.421 29.9551 45.421 29.867C45.421 29.6357 44.3418 28.7434 44.0665 28.7434C43.9894 28.7434 43.9343 28.6663 43.9343 28.5781C43.9343 28.49 43.8572 28.4019 43.7691 28.4019C43.681 28.3909 43.5489 28.3799 43.4718 28.3688C43.4057 28.3688 43.3066 28.2587 43.2736 28.1265C43.2295 28.0053 43.1414 27.9282 43.0754 27.9502C42.9983 27.9723 42.767 27.8952 42.5578 27.774C42.1393 27.5426 41.0271 27.3444 40.8509 27.4655C40.7188 27.5647 40.5646 27.5537 40.3884 27.4435C40.3113 27.3884 40.2452 27.3994 40.2452 27.4545C40.2452 27.5096 40.1461 27.5867 40.025 27.6198C39.8598 27.6638 39.8048 27.6198 39.8048 27.4655C39.8048 27.2562 39.6396 27.2232 39.0669 27.3333ZM46.5772 32.9845C46.5442 33.0396 46.4451 33.0616 46.357 33.0176C46.1257 32.9405 46.1478 32.8744 46.4231 32.8744C46.5442 32.8744 46.6213 32.9184 46.5772 32.9845Z"
          fill="white"/>
    <path d="M40.4986 30.6492C40.3664 30.7483 40.2012 30.9686 40.1462 31.1339C40.0691 31.3542 39.948 31.4423 39.7718 31.4423C39.5625 31.4423 39.4854 31.5414 39.3423 32.0151C39.1661 32.5769 39.2432 33.0947 39.4965 33.0947C39.5515 33.0947 39.5735 33.1388 39.5405 33.1828C39.5075 33.2379 39.7167 33.5463 40.014 33.8768L40.5536 34.4717L40.9941 34.2183C41.2364 34.0861 41.5778 33.976 41.754 33.976C42.0513 33.976 42.4477 33.6565 42.4918 33.3811C42.5028 33.315 42.5358 33.2048 42.5799 33.1498C42.6459 33.0286 42.7891 32.4337 42.8221 32.0482C42.8552 31.8389 42.7781 31.7728 42.4367 31.6736C42.1504 31.5855 42.0072 31.4753 42.0072 31.3542C42.0072 31.255 41.9081 31.0017 41.787 30.8034C41.5998 30.5059 41.5117 30.4509 41.1593 30.4509C40.928 30.4509 40.6307 30.539 40.4986 30.6492Z"
          fill="white"/>
    <path d="M57.8096 31.916C57.7656 32.0813 57.6885 32.1914 57.6445 32.1584C57.4242 32.0262 56.6644 33.0727 56.8075 33.304C56.8516 33.3701 56.8075 33.4252 56.7084 33.4252C56.6203 33.4252 56.3891 33.5794 56.1908 33.7557C55.8825 34.0531 55.8274 34.1853 55.7834 34.692C55.7724 34.7471 55.6402 34.8573 55.4861 34.9344C55.2218 35.0556 55.1557 35.0445 54.8694 34.8022C54.6932 34.648 54.4729 34.5268 54.3849 34.5268C54.2968 34.5268 54.2307 34.4497 54.2307 34.3505C54.2307 34.0751 53.3938 33.315 53.0854 33.315C52.9092 33.315 52.733 33.4362 52.5899 33.6235C52.3036 34.0311 52.3916 34.4166 52.755 34.4166C52.8982 34.4166 53.0193 34.4827 53.0193 34.5598C53.0193 34.703 53.636 35.2979 53.8012 35.2979C53.8453 35.2979 53.8563 35.375 53.8232 35.4852C53.7792 35.5953 53.8012 35.6394 53.8673 35.5953C53.9664 35.5292 54.3628 35.8928 54.4289 36.0911C54.4399 36.1461 54.4729 36.1792 54.506 36.1792C54.539 36.1792 54.6932 36.3004 54.8474 36.4546C55.0015 36.6088 55.1447 36.73 55.1777 36.73C55.2108 36.73 55.464 36.5647 55.7393 36.3665C56.1798 36.058 56.4992 35.6174 56.4551 35.375C56.4441 35.331 56.4882 35.2979 56.5432 35.2979C56.6093 35.2979 56.6534 35.2208 56.6534 35.1327C56.6534 35.0445 56.7084 34.9784 56.7855 34.9895C56.8626 35.0115 56.9287 34.9674 56.9287 34.9124C56.9727 34.648 57.1269 34.4166 57.2811 34.4166C57.3912 34.4166 57.4132 34.3505 57.3691 34.2073C57.3251 34.0531 57.3691 33.976 57.5343 33.9209C57.6555 33.8879 57.7546 33.8108 57.7546 33.7667C57.7546 33.7226 57.8757 33.5354 58.0299 33.3591C58.1841 33.1828 58.3823 32.8964 58.4814 32.7092C58.6355 32.4007 58.6355 32.3787 58.2611 32.0041L57.8757 31.6296L57.8096 31.916ZM53.0193 33.7557C53.0193 33.8108 52.9753 33.8658 52.9092 33.8658C52.8542 33.8658 52.7991 33.8108 52.7991 33.7557C52.7991 33.6896 52.8542 33.6455 52.9092 33.6455C52.9753 33.6455 53.0193 33.6896 53.0193 33.7557Z"
          fill="white"/>
</svg>
