<svg width="92" height="73" viewBox="0 0 92 73" fill="none" xmlns="http://www.w3.org/2000/svg">
    <path d="M63.937 0.128479C63.937 0.1965 63.6786 0.237313 63.3384 0.210104C62.9167 0.169292 62.6854 0.210104 62.563 0.346147C62.4678 0.454981 62.3453 0.495794 62.2501 0.427773C61.9372 0.1965 60.2639 0.427773 60.2639 0.699858C60.2639 0.76788 60.1959 0.781484 60.1278 0.740671C59.8694 0.57742 58.6314 0.822297 58.6314 1.02636C58.6314 1.24403 58.4137 1.28484 58.3049 1.09438C58.1552 0.86311 56.3186 1.43449 56.4275 1.67937C56.5363 1.95145 56.4275 2.18272 56.2098 2.1147C55.8833 2.00587 54.7541 3.01259 54.863 3.31188C54.9174 3.46153 54.8766 3.52955 54.7405 3.52955C54.4004 3.52955 53.6114 4.45464 53.693 4.75393C53.7338 4.91718 53.625 5.09404 53.3529 5.2981C52.9856 5.57019 52.8495 5.80146 52.7135 6.35924C52.6863 6.46807 52.6183 6.64493 52.5639 6.76737C52.5094 6.88981 52.455 7.2027 52.4414 7.46118C52.4278 7.70606 52.3462 7.95094 52.2646 8.00536C52.0741 8.12779 51.6524 9.77391 51.734 10.1548C51.7612 10.3317 51.7068 10.5358 51.598 10.631C51.4891 10.7126 51.4347 10.8623 51.4755 10.9439C51.5027 11.0391 51.4755 11.352 51.4075 11.6377C51.1898 12.5084 51.1898 12.9573 51.3803 13.3518C51.4891 13.5559 51.5299 13.8008 51.4755 13.896C51.2578 14.2497 51.2851 15.2836 51.5163 15.4605C51.6388 15.5557 51.6796 15.6374 51.598 15.6374C51.2715 15.6374 51.1218 16.9026 51.3939 17.4331C51.4891 17.6372 51.5299 17.8821 51.4619 17.9773C51.2851 18.2902 51.3123 19.1881 51.5163 19.3921C51.6796 19.5554 51.6796 19.5962 51.5163 19.6506C51.3123 19.7322 51.2987 19.8003 51.2578 20.6029C51.2306 21.2695 51.2987 21.5144 51.5435 21.7049C51.7068 21.8273 51.6932 21.8681 51.5299 21.9361C51.3667 21.9906 51.3259 22.1674 51.3667 22.6436C51.3939 23.1877 51.3667 23.2558 51.1626 23.1877C50.9313 23.1197 50.6729 23.3102 49.9654 24.1128C49.6117 24.4937 48.8363 24.9019 48.3193 24.9563C48.1153 24.9699 47.9384 25.0651 47.9112 25.1467C47.884 25.2284 47.7888 25.2964 47.6935 25.2964C47.5983 25.2964 47.3806 25.4869 47.2174 25.7181C46.9725 26.0446 46.8773 26.099 46.782 25.963C46.7004 25.827 46.2651 25.7725 45.1359 25.7589C43.7075 25.7317 42.8232 25.6773 41.1771 25.5277C40.8234 25.4869 40.4969 25.5141 40.456 25.5821C40.4152 25.6501 40.184 25.5685 39.9527 25.4052C39.6534 25.1876 39.3133 25.0923 38.7555 25.0787C38.3202 25.0651 37.9121 25.0107 37.8304 24.9563C37.7488 24.9155 37.6264 24.9155 37.5447 24.9563C37.4767 24.9971 37.4087 24.9835 37.4087 24.9155C37.4087 24.8475 37.1638 24.7794 36.8645 24.7794C36.5652 24.7794 36.3203 24.8338 36.3203 24.9155C36.3203 24.9971 36.1979 24.9019 36.0483 24.7114C35.749 24.3305 34.8783 24.14 34.7695 24.4393C34.647 24.725 34.3069 24.6434 34.2525 24.3033C34.2253 24.0992 34.1029 23.9904 33.8716 23.9632C33.6811 23.936 33.4771 23.8679 33.3954 23.8135C33.1369 23.6231 32.4703 23.7863 32.103 24.14C31.6813 24.5482 31.6949 25.0243 32.1302 25.0243C32.2663 25.0243 32.5792 25.1195 32.7968 25.242C33.0281 25.3508 33.3002 25.4188 33.409 25.378C33.5043 25.3372 33.6267 25.3644 33.6675 25.4324C33.7219 25.5141 33.8716 25.5685 34.0212 25.5685C34.1709 25.5685 34.2661 25.6229 34.2253 25.6909C34.1301 25.8406 34.4838 25.9902 34.6198 25.8678C34.7695 25.7045 35.164 25.7725 35.3272 25.9766C35.4361 26.099 35.4905 26.1127 35.5041 26.0174C35.5041 25.8542 36.0075 25.9358 36.2931 26.1535C36.3884 26.2215 36.4972 26.2487 36.5516 26.2079C36.5924 26.1535 36.7149 26.1807 36.8237 26.2623C36.9189 26.3439 37.0006 26.3711 37.0006 26.3303C37.0006 26.2759 37.123 26.3031 37.2863 26.3847C37.4359 26.48 37.6672 26.4936 37.7896 26.4392C38.1569 26.2895 38.3746 26.2623 38.2794 26.3983C38.2386 26.4664 38.4018 26.5344 38.6195 26.5344C39.3405 26.5752 39.3813 26.5888 39.4765 26.7248C39.5446 26.8065 39.5854 26.7793 39.5854 26.6704C39.5854 26.5208 39.6262 26.5208 39.7622 26.7112C39.8983 26.9017 40.1568 26.9561 41.0546 26.9697C41.6668 26.9833 42.1702 27.0241 42.1702 27.065C42.1702 27.1058 42.4423 27.133 42.7824 27.1194C43.1225 27.1058 43.3946 27.1602 43.3946 27.2146C43.3946 27.2826 43.4898 27.337 43.6122 27.337C43.7211 27.337 43.7891 27.2826 43.7483 27.2282C43.6667 27.0922 44.0748 27.1058 44.2789 27.2282C44.4693 27.337 45.3264 27.2962 45.544 27.1602C45.6257 27.0922 45.7073 27.1058 45.7073 27.1874C45.7073 27.337 46.782 27.2826 47.435 27.0786C47.6663 27.0105 47.884 26.9833 47.9248 27.0105C47.952 27.0377 48.1153 26.9153 48.2921 26.7248C48.469 26.5344 48.6866 26.3847 48.7955 26.3847C48.8907 26.3847 48.9723 26.3167 48.9723 26.2351C48.9723 26.1671 49.0404 26.1399 49.122 26.1943C49.3124 26.3167 50.3328 25.8406 50.3328 25.6365C50.3328 25.446 50.7137 25.242 50.9858 25.2828C51.0674 25.2964 51.149 25.2148 51.149 25.1059C51.149 24.9971 51.1898 24.8883 51.2578 24.8611C51.3123 24.8338 51.4619 24.6298 51.5844 24.4121C51.7612 24.0992 51.9245 23.9904 52.2782 23.9632C52.8087 23.9224 53.0264 23.6095 52.7543 23.2966C52.6455 23.1605 52.6455 23.0653 52.7407 23.0109C52.8495 22.9292 52.8904 21.9089 52.7815 21.7865C52.6863 21.6913 52.7271 21.4056 52.8495 21.3103C52.9448 21.2423 52.9448 21.1879 52.8359 21.1063C52.7679 21.0519 52.6999 20.8614 52.6999 20.6709C52.6999 20.4805 52.7679 20.29 52.8359 20.222C52.9448 20.154 52.9448 20.0996 52.8495 20.0179C52.6863 19.9091 52.6727 19.6506 52.8087 19.5146C52.8632 19.4602 52.8495 19.2969 52.7679 19.1609C52.6999 19.0112 52.6863 18.9024 52.7543 18.9024C52.8087 18.9024 52.8632 18.6575 52.8768 18.3582C52.8768 18.0589 52.8495 17.814 52.7951 17.814C52.7407 17.814 52.6999 17.6916 52.6863 17.542C52.6727 17.3923 52.7271 17.2699 52.7951 17.2699C52.8768 17.2699 52.904 17.2155 52.8632 17.161C52.7271 16.9298 52.6727 16.3176 52.7951 16.3176C52.8632 16.3176 52.9176 16.2223 52.9176 16.0999C52.9176 15.9911 52.8632 15.9367 52.7815 15.9775C52.6863 16.0319 52.6863 15.9367 52.7815 15.7054C52.8768 15.4605 52.8768 15.2564 52.7815 15.0796C52.6999 14.9435 52.6863 14.8211 52.7543 14.8211C52.8087 14.8211 52.8632 14.5762 52.8768 14.2769C52.8768 13.9776 52.8495 13.7328 52.7951 13.7328C52.7407 13.7328 52.6999 13.6103 52.6863 13.4607C52.6727 13.311 52.7271 13.1886 52.7951 13.1886C52.8768 13.1886 52.904 13.1342 52.8632 13.0798C52.7271 12.8485 52.6727 12.2363 52.7951 12.2363C52.8632 12.2363 52.9176 12.1411 52.9176 12.0186C52.9176 11.9098 52.8632 11.8418 52.7951 11.8826C52.6183 11.9914 52.6863 11.5153 52.8768 11.352C52.9584 11.2704 53.0672 10.8623 53.1216 10.4133C53.1624 9.97798 53.2441 9.51543 53.3121 9.39299C53.3801 9.27055 53.3937 9.0937 53.3665 8.99847C53.3257 8.90324 53.3937 8.73999 53.5162 8.65836C53.6386 8.56313 53.7882 8.18221 53.8427 7.8149C53.9515 7.1755 54.8222 5.16206 54.8222 5.55659C54.8222 5.82867 54.9582 5.66542 55.0262 5.2981C55.0534 5.13485 55.2031 4.90358 55.3527 4.79475C55.5024 4.69952 55.5976 4.52266 55.5568 4.41383C55.5024 4.29139 55.5976 4.16895 55.8153 4.08732C55.9921 4.0193 56.2778 3.78803 56.4411 3.58397C56.5907 3.3799 56.7268 3.27107 56.7268 3.33909C56.7268 3.40711 56.8764 3.28467 57.0669 3.067C57.2573 2.84933 57.407 2.7269 57.407 2.78131C57.407 2.84933 57.475 2.83573 57.5702 2.7405C57.6655 2.64527 57.8559 2.57725 58.0192 2.57725C58.1824 2.57725 58.3729 2.50923 58.4681 2.414C58.5497 2.33237 58.8626 2.25075 59.1483 2.23714C59.434 2.22354 59.7605 2.15552 59.8694 2.08749C59.9782 2.03308 60.1687 1.99226 60.3047 2.00587C60.4271 2.03308 60.536 1.97866 60.536 1.91064C60.536 1.82901 60.6312 1.76099 60.74 1.76099C60.8489 1.76099 60.9441 1.82901 60.9441 1.91064C60.9441 1.97866 61.0121 2.00587 61.1073 1.95145C61.189 1.89704 61.4747 1.84262 61.7467 1.81541C62.0188 1.80181 62.2909 1.7746 62.3453 1.7746C62.4134 1.76099 62.4134 1.69297 62.3589 1.59774C62.2909 1.50251 62.3181 1.48891 62.4542 1.57053C62.7263 1.73378 63.6649 1.76099 63.6649 1.61135C63.6649 1.52972 63.7874 1.54332 63.9506 1.62495C64.1547 1.73378 64.2771 1.73378 64.4132 1.62495C64.5492 1.50251 64.6717 1.50251 64.8893 1.62495C65.107 1.74739 65.2294 1.73378 65.3791 1.61135C65.5287 1.48891 65.624 1.48891 65.6784 1.58414C65.7872 1.73378 66.7259 1.74739 66.8756 1.58414C67.0252 1.43449 67.2293 1.4753 67.134 1.62495C67.0932 1.69297 67.134 1.76099 67.2293 1.7746C67.8007 1.80181 68.1272 1.85622 68.4128 1.95145C68.6305 2.03308 68.6985 2.01947 68.6441 1.91064C68.5897 1.82901 68.6033 1.76099 68.6849 1.76099C68.753 1.76099 68.8482 1.81541 68.889 1.88343C68.957 1.97866 69.6236 2.16912 70.0862 2.22354C70.127 2.23714 70.2086 2.27795 70.263 2.33237C70.3174 2.38679 70.5487 2.38679 70.78 2.34598C71.0521 2.29156 71.1609 2.30516 71.0929 2.414C71.0521 2.49562 71.1745 2.59085 71.4058 2.64527C71.6235 2.68608 71.8411 2.82213 71.8819 2.93096C71.9227 3.03979 72.018 3.12142 72.0996 3.12142C72.1812 3.12142 72.2084 3.03979 72.1676 2.94456C72.1268 2.86294 72.1948 2.91736 72.3173 3.08061C72.4397 3.25746 72.6574 3.39351 72.807 3.39351C72.9431 3.39351 73.0383 3.44792 72.9839 3.51594C72.9023 3.66559 73.5144 4.12814 73.977 4.26418C74.1402 4.3186 74.2491 4.41383 74.2083 4.48185C74.1675 4.54987 74.2627 4.6315 74.4123 4.68591C74.562 4.72672 74.7252 4.91718 74.766 5.10764C74.8069 5.2845 74.8885 5.40694 74.9429 5.36613C75.0517 5.31171 75.7047 6.64493 75.6639 6.83539C75.6231 6.98504 76.1673 8.01896 76.2897 8.01896C76.4938 8.01896 77.2692 7.12108 77.2692 6.88981C77.2692 6.75376 77.2148 6.53609 77.1332 6.38645C77.0652 6.2368 76.9427 5.99192 76.8611 5.84228C76.7931 5.69263 76.7251 5.48856 76.7251 5.36613C76.7251 5.25729 76.6026 5.10764 76.453 5.02602C76.3033 4.94439 76.1401 4.71312 76.0993 4.50906C75.9496 3.86966 75.0925 3.16223 74.5756 3.24386C74.4804 3.25746 74.4259 3.21665 74.4395 3.13502C74.4667 3.067 74.2491 2.79492 73.9498 2.52283C73.5281 2.12831 73.3784 2.06029 73.1743 2.18272C72.9703 2.27795 72.9159 2.26435 72.9159 2.1011C72.9159 1.74739 71.8275 1.05357 71.3106 1.10799C71.0385 1.12159 70.8208 1.06717 70.7392 0.95834C70.6712 0.835901 70.3447 0.754276 69.8821 0.727067C69.474 0.713463 68.9842 0.618233 68.8074 0.523003C68.4401 0.318939 67.2021 0.250917 66.9844 0.427773C66.8892 0.495794 66.7939 0.468586 66.7531 0.346147C66.6987 0.223709 66.4946 0.169292 66.0593 0.210104C65.7192 0.223709 65.4335 0.1965 65.4335 0.128479C65.4335 -0.0483768 64.9165 0.142083 64.8349 0.346147C64.7805 0.509399 64.6989 0.48219 64.4812 0.264522C64.1955 -0.0211683 63.937 -0.0891897 63.937 0.128479ZM65.2567 0.903923C65.107 1.03997 64.9029 0.795088 64.9846 0.591024C65.0526 0.38696 65.0798 0.400564 65.1886 0.604629C65.2703 0.727067 65.2839 0.86311 65.2567 0.903923ZM64.4812 0.808693C64.4812 0.876714 64.4268 0.944736 64.3452 0.944736C64.2771 0.944736 64.2091 0.876714 64.2091 0.808693C64.2091 0.727067 64.2771 0.67265 64.3452 0.67265C64.4268 0.67265 64.4812 0.727067 64.4812 0.808693ZM52.1013 23.5006C52.1013 23.7047 51.9517 23.7863 51.734 23.7047C51.5707 23.6367 51.5707 23.6095 51.7204 23.5142C51.9517 23.3646 52.1013 23.3646 52.1013 23.5006ZM32.7016 24.14C32.6064 24.3577 32.3751 24.4257 32.3751 24.2217C32.3751 24.1128 32.4703 24.0448 32.7424 23.9496C32.756 23.936 32.7424 24.0312 32.7016 24.14Z"
          fill="white"/>
    <path d="M19.5871 5.01241C19.5871 5.06682 19.3422 5.10764 19.0293 5.09403C18.7164 5.08043 18.4035 5.13485 18.2947 5.24368C18.1587 5.39333 18.1043 5.39333 18.0498 5.25728C17.9138 4.84916 15.914 5.24368 15.914 5.69262C15.914 5.80146 15.8323 5.84227 15.7099 5.78785C15.3834 5.66541 14.8528 5.97831 14.6624 6.40004C14.5263 6.69934 14.4447 6.75375 14.2678 6.64492C14.1182 6.56329 13.9958 6.5769 13.9413 6.65852C13.9005 6.72655 13.7509 6.79457 13.6148 6.79457C13.3155 6.79457 12.8802 7.25711 12.6353 7.8421C12.5265 8.08697 12.3769 8.29104 12.3088 8.29104C12.132 8.29104 11.6966 8.78079 11.6966 8.97125C11.6966 9.05288 11.6422 9.10729 11.5606 9.10729C11.4926 9.10729 11.4246 9.22973 11.4246 9.37938C11.4246 9.52903 11.3157 9.69228 11.1933 9.7467C10.9076 9.84193 10.2138 10.5902 10.1866 10.7942C10.173 10.8759 10.173 10.9983 10.1866 11.0663C10.2002 11.1207 10.0913 11.3928 9.92808 11.6513C9.77844 11.9098 9.68321 12.1819 9.72402 12.2499C9.77844 12.3179 9.76483 12.4539 9.69681 12.5356C9.64239 12.6308 9.58798 12.7668 9.56077 12.8485C9.54716 12.9165 9.43833 13.3246 9.3295 13.76C9.11183 14.549 9.12543 14.9979 9.38391 15.2972C9.49275 15.4333 9.47914 15.4877 9.3567 15.5285C9.22066 15.5829 9.17985 16.0047 9.16624 17.1474C9.15264 18.0045 9.11183 18.916 9.08462 19.1745C9.05741 19.4329 9.11183 19.8139 9.20706 20.0179C9.31589 20.222 9.3567 20.4669 9.28868 20.5621C9.16624 20.7798 9.09822 21.7321 9.19345 22.0586C9.23427 22.1946 9.3567 22.3034 9.47914 22.3034C9.62879 22.3034 9.656 22.3579 9.54716 22.4667C9.3567 22.7252 9.43833 23.3782 9.76483 24.0448C9.91448 24.3577 9.9961 24.6434 9.92808 24.6842C9.83285 24.7386 9.9689 25.5685 10.1594 26.1126C10.2002 26.2215 10.2274 26.5344 10.2138 26.7929C10.1866 27.1874 10.2818 27.3778 10.6627 27.7724C11.0844 28.2077 11.1253 28.3165 11.0164 28.5886C10.7171 29.228 10.4723 29.5817 10.309 29.5953C9.9689 29.6225 9.51995 29.813 9.51995 29.9354C9.51995 30.0035 9.43833 30.0579 9.3295 30.0579C9.22066 30.0579 9.09822 30.1531 9.05741 30.2755C9.0166 30.398 8.88055 30.466 8.78532 30.4252C8.67649 30.3844 8.56766 30.398 8.54045 30.4524C8.51324 30.5204 8.22755 30.7925 7.91465 31.0646C7.58815 31.3367 7.35688 31.5544 7.39769 31.5544C7.4521 31.5544 7.41129 31.636 7.31606 31.7448C7.22083 31.84 7.05758 31.8945 6.97596 31.8672C6.88073 31.8264 6.7991 31.8536 6.7991 31.9217C6.7991 32.1121 6.32295 32.6427 6.14609 32.6427C6.06447 32.6427 5.95564 32.7107 5.90122 32.8059C5.8332 32.9012 5.87401 32.9148 5.99645 32.8468C6.10528 32.7923 6.01005 32.9284 5.77878 33.1461C5.05775 33.8671 4.55439 34.5609 4.55439 34.8738C4.54079 35.037 4.41835 35.2955 4.28231 35.4588C3.71093 36.0574 3.53407 36.3703 3.68372 36.4655C3.79256 36.5199 3.73814 36.6151 3.54768 36.724C3.37082 36.8056 3.18036 37.0641 3.09874 37.2818C3.03072 37.4994 2.88107 37.6763 2.79944 37.6763C2.59538 37.6763 2.37771 38.0708 2.16004 38.8598C2.06481 39.1727 1.94237 39.4176 1.86075 39.404C1.65668 39.3632 1.0581 40.9685 1.23495 41.0909C1.33018 41.1454 1.31658 41.1998 1.18053 41.2542C0.990074 41.3222 0.826823 41.8528 0.731593 42.6418C0.717989 42.8595 0.649967 43.0636 0.581946 43.0772C0.527529 43.1044 0.473112 43.3629 0.486716 43.6622C0.486716 43.9615 0.432299 44.2063 0.364278 44.2063C0.296256 44.2063 0.269048 44.288 0.30986 44.3968C0.350673 44.5056 0.337069 44.6145 0.269048 44.6417C0.133005 44.6961 -0.0166422 46.6007 0.105796 46.7231C0.241839 46.8592 0.228235 47.1176 0.0649835 47.2265C-0.0302465 47.3081 -0.0166422 47.3625 0.0785878 47.4305C0.255443 47.553 0.473112 48.3828 0.418695 48.6821C0.40509 48.7774 0.445903 48.8182 0.527529 48.7774C0.609155 48.7229 0.636363 48.8182 0.59555 49.0222C0.541133 49.3487 0.745197 49.9065 1.22135 50.7092C1.37099 50.954 1.46622 51.2125 1.43902 51.2669C1.3982 51.3214 1.49343 51.471 1.64308 51.6071C1.81994 51.7567 1.90156 51.9472 1.86075 52.1104C1.81994 52.2465 1.84714 52.3689 1.90156 52.3689C1.96958 52.3689 2.24167 52.709 2.51375 53.1171C2.79944 53.5253 3.07153 53.8654 3.13955 53.8654C3.20757 53.8654 3.26199 53.9878 3.26199 54.1375C3.26199 54.3279 3.35722 54.4095 3.54768 54.4095C3.73814 54.4095 3.87418 54.5456 3.98302 54.8177C4.06464 55.0353 4.21429 55.2258 4.30952 55.2258C4.40475 55.2258 4.48637 55.2938 4.48637 55.3754C4.48637 55.5931 5.00334 56.2053 5.34344 56.3822C5.50669 56.4638 5.62913 56.6134 5.61553 56.6951C5.58832 56.7903 5.66995 56.8583 5.76518 56.8583C5.87401 56.8583 6.4726 57.3481 7.08479 57.9466C7.72419 58.586 8.28197 59.0214 8.3908 58.9806C8.48603 58.9398 8.56766 58.967 8.56766 59.0486C8.56766 59.1302 8.63568 59.1438 8.7037 59.103C8.78532 59.0622 8.83974 59.1166 8.83974 59.2255C8.83974 59.3615 8.96218 59.4431 9.16624 59.4431C9.38391 59.4431 9.53356 59.5383 9.58798 59.7152C9.64239 59.8649 9.72402 59.9601 9.77844 59.9193C9.83285 59.8921 10.0233 60.0145 10.173 60.1914C10.3362 60.3818 10.5539 60.5315 10.6627 60.5315C10.7715 60.5315 10.8804 60.6267 10.9348 60.7355C10.9756 60.8444 11.0981 60.9396 11.1933 60.9396C11.3021 60.9396 11.4654 61.0348 11.5606 61.1437C11.6558 61.2525 11.8055 61.3477 11.8871 61.3341C12.2136 61.2933 12.3905 61.3477 12.3224 61.4702C12.268 61.5382 12.4177 61.6334 12.6353 61.6878C12.853 61.7286 13.0707 61.8647 13.1115 61.9871C13.1659 62.1096 13.2339 62.164 13.2747 62.1232C13.3292 62.0823 13.5876 62.1912 13.8597 62.368C14.1182 62.5585 14.4447 62.7081 14.5807 62.7081C14.7032 62.7081 14.88 62.8306 14.9617 62.9666C15.1249 63.2931 15.8323 63.6604 16.2813 63.6604C16.4581 63.6604 16.5942 63.7421 16.5942 63.8509C16.5942 63.9597 16.8255 64.123 17.1111 64.2182C17.3832 64.2998 17.7641 64.4767 17.9546 64.6127C18.3763 64.8984 19.5055 65.3202 19.6687 65.2521C19.7096 65.2385 19.7912 65.3202 19.8592 65.4426C19.9408 65.5786 20.1313 65.6467 20.3218 65.6331C20.553 65.6059 20.6891 65.6739 20.7435 65.8371C20.7843 65.9868 20.9067 66.0684 21.002 66.0276C21.0972 65.9868 21.2741 66.0412 21.3693 66.1364C21.4781 66.2453 21.8182 66.4085 22.1447 66.5037C22.4576 66.6126 22.7161 66.7486 22.7161 66.8166C22.7161 66.8711 22.9338 66.9255 23.2059 66.9255C23.4915 66.9255 23.6548 66.9799 23.6004 67.0615C23.546 67.1431 23.682 67.1976 23.9269 67.1976C24.1446 67.1976 24.4302 67.2928 24.5391 67.4152C24.6615 67.5241 24.8112 67.5921 24.8792 67.5513C24.9472 67.5105 25.0696 67.5649 25.1513 67.6601C25.2873 67.8234 25.6274 67.9186 26.5933 68.0818C26.6749 68.0954 26.8382 68.1226 26.9742 68.1226C27.1103 68.1363 27.1919 68.2043 27.1375 68.2723C27.0287 68.4628 27.2191 68.5444 27.8585 68.5716C28.1714 68.5988 28.4299 68.6532 28.4299 68.7076C28.4299 68.762 28.5931 68.8029 28.8108 68.8165C29.5454 68.8437 29.7903 68.8845 29.7903 69.0069C29.7903 69.0613 29.8447 69.0886 29.9128 69.0477C30.076 68.9389 30.3209 69.5783 30.2393 69.9048C30.1985 70.0817 30.2257 70.1905 30.3481 70.1905C30.4433 70.1905 30.4705 70.2313 30.4297 70.2857C30.3753 70.3265 30.4025 70.449 30.4841 70.5442C30.5658 70.653 30.6066 70.8299 30.5522 70.9387C30.5114 71.0476 30.5386 71.1428 30.6066 71.1428C30.6882 71.1428 30.9603 71.3605 31.2188 71.6326C31.5725 71.9999 31.7629 72.0951 31.9806 72.0271C32.1847 71.9591 32.2799 71.9999 32.3343 72.2175C32.3751 72.3808 32.5384 72.5304 32.7016 72.5576C33.5723 72.7345 33.8444 72.7481 33.994 72.5985C34.1029 72.4896 34.1437 72.4896 34.1437 72.5985C34.1437 72.7481 35.0008 72.7481 35.749 72.5849C35.9122 72.544 36.0483 72.5712 36.0483 72.6257C36.0483 72.6801 36.3612 72.7209 36.7285 72.7345C37.1094 72.7345 37.4087 72.6801 37.4087 72.6121C37.4087 72.544 37.5176 72.544 37.6536 72.6121C38.157 72.8569 38.878 72.6937 39.2861 72.2583C39.5038 72.0271 39.7214 71.8638 39.7623 71.9046C39.8031 71.9454 39.9255 71.8094 40.0343 71.5917C40.1432 71.3877 40.3745 71.0612 40.5241 70.8843C40.7146 70.6666 40.769 70.517 40.6601 70.4626C40.5649 70.3946 40.5785 70.3129 40.701 70.1769C40.8098 70.0681 40.973 69.7688 41.0819 69.5103C41.1771 69.2518 41.3131 68.9797 41.3812 68.8981C41.4356 68.8301 41.49 68.5444 41.49 68.2587C41.49 67.973 41.558 67.7417 41.6396 67.7417C41.7213 67.7417 41.7485 67.6193 41.6805 67.4288C41.558 67.0479 41.558 66.9391 41.6805 66.5309C41.7621 66.3133 41.7485 66.2453 41.6396 66.2997C41.5444 66.3677 41.5172 66.218 41.5716 65.8507C41.7213 64.7896 40.9322 64.0006 39.8575 64.1366C39.4766 64.1774 39.3133 64.1502 39.3133 64.0278C39.3133 63.9325 39.2725 63.9189 39.2045 64.0006C39.082 64.1638 38.361 64.2046 38.361 64.055C38.361 63.9869 38.2658 63.9325 38.1434 63.9325C38.0345 63.9325 37.9665 63.9869 38.0073 64.055C38.1161 64.2182 37.8713 64.1638 37.2455 63.8781C36.6605 63.6196 36.4564 63.606 36.4564 63.7965C36.4564 63.8917 36.3612 63.8917 36.1707 63.7965C35.9667 63.6877 35.8442 63.6877 35.7082 63.7965C35.5721 63.9053 35.4497 63.9053 35.2456 63.8101C34.8511 63.5924 34.8239 63.6196 34.8239 64.1366C34.8239 64.4903 34.7695 64.6127 34.5926 64.6263C34.2389 64.6536 34.2389 64.6536 33.8852 64.5447C33.6811 64.4767 33.5995 64.4903 33.6539 64.5855C33.7084 64.6808 33.5859 64.708 33.2866 64.6536C32.9873 64.6127 32.7697 64.6536 32.6336 64.776C32.5248 64.8848 32.3751 64.9529 32.2935 64.9256C32.0894 64.8576 31.4364 65.5378 31.3412 65.9324C31.2868 66.0956 31.178 66.2453 31.0691 66.2453C30.9603 66.2453 30.8515 66.4629 30.797 66.803C30.6882 67.4152 30.3209 67.6737 29.872 67.4424C29.6815 67.3336 29.5727 67.3472 29.4638 67.4969C29.3278 67.6737 29.2734 67.6601 29.0557 67.4424C28.7972 67.2112 28.6612 67.1703 27.8721 67.1431C27.6681 67.1295 27.396 67.0343 27.2599 66.8983C26.9334 66.6262 26.0083 66.3677 25.9131 66.5309C25.8723 66.5854 25.641 66.4629 25.4234 66.2453C24.8792 65.7283 24.1854 65.5786 23.7092 65.8779C23.5868 65.9596 23.5324 65.8915 23.5324 65.6875C23.5324 65.5242 23.4915 65.429 23.4371 65.4698C23.3963 65.5242 23.2467 65.4698 23.1106 65.3474C22.9882 65.2385 22.7977 65.1297 22.6889 65.1025C22.5937 65.0889 22.444 65.0345 22.3488 64.9801C22.2672 64.9256 22.1447 64.9392 22.1039 65.0209C22.0495 65.1025 21.9135 65.0345 21.7502 64.8304C21.4237 64.4087 20.7571 64.0686 20.4442 64.1502C20.3081 64.191 20.0769 64.0958 19.9136 63.9597C19.764 63.8101 19.4511 63.6468 19.2198 63.606C18.9885 63.5516 18.6892 63.3884 18.5668 63.2523C18.4308 63.1027 18.2811 63.021 18.2131 63.0483C18.1587 63.0891 18.077 63.0619 18.0226 62.9802C17.9818 62.9122 17.8186 62.8442 17.6825 62.8442C17.5465 62.8442 17.4104 62.7762 17.3832 62.7081C17.356 62.6265 17.1792 62.5449 16.9751 62.5177C16.7846 62.5041 16.3221 62.232 15.9412 61.9191C15.5739 61.6062 15.0569 61.3069 14.812 61.2525C14.5535 61.2117 14.1862 60.994 13.9958 60.7899C13.7101 60.477 12.6898 60.0417 12.5537 60.1777C12.5265 60.1914 12.2544 59.9737 11.9551 59.688C11.5742 59.3343 11.3021 59.171 11.1389 59.2118C10.9484 59.2663 10.8532 59.1846 10.7988 58.9534C10.6899 58.5044 10.0505 58.0827 9.46554 58.0555C9.20706 58.0419 9.0166 58.0011 9.04381 57.9466C9.13904 57.7834 8.67649 57.3345 8.21394 57.1304C7.94186 57.008 7.72419 56.7903 7.62896 56.5046C7.4521 56.0148 6.52701 55.4571 6.13249 55.5931C5.96924 55.6611 5.95564 55.6339 6.06447 55.4979C6.18691 55.3754 6.1733 55.2394 5.99645 54.9401C5.87401 54.7224 5.73797 54.5456 5.66995 54.5456C5.61553 54.5456 5.50669 54.3959 5.43867 54.2055C5.35705 54.0014 5.2074 53.8654 5.03054 53.8654C4.85369 53.8654 4.75846 53.7701 4.75846 53.5933C4.75846 53.4572 4.63602 53.2668 4.48637 53.1852C4.33673 53.1035 4.21429 52.9675 4.21429 52.8723C4.21429 52.641 3.52047 52.0832 3.35722 52.192C3.27559 52.2465 3.26199 52.2056 3.31641 52.1104C3.49326 51.8383 3.2892 51.3214 2.85386 50.8724C2.62259 50.6412 2.44573 50.3146 2.44573 50.1514C2.44573 49.9745 2.36411 49.7161 2.25527 49.58C2.14644 49.4304 2.09202 49.2399 2.13283 49.1447C2.17365 49.0495 2.10562 48.9678 1.99679 48.9678C1.83354 48.9678 1.80633 48.8454 1.86075 48.4373C1.91517 48.0155 1.86075 47.757 1.58866 47.2809C1.3982 46.9408 1.30297 46.6551 1.3846 46.6279C1.57506 46.5599 1.62948 45.6892 1.46622 45.3899C1.37099 45.1994 1.3846 45.0906 1.53425 44.9818C1.79273 44.7777 2.07842 43.7302 1.96958 43.3901C1.92877 43.2404 1.96958 42.9819 2.06481 42.8187C2.16004 42.6418 2.24167 42.4378 2.25527 42.3698C2.26888 42.1929 2.51375 41.5399 2.88107 40.6692C2.9899 40.4107 3.07153 40.0298 3.07153 39.8258C3.05792 39.5537 3.12595 39.4448 3.37082 39.3768C3.53407 39.336 3.64291 39.2408 3.6021 39.1727C3.56128 39.0911 3.6021 39.0367 3.69733 39.0367C3.83337 39.0367 3.83337 39.0095 3.69733 38.9279C3.57489 38.8462 3.67012 38.6966 4.01022 38.3973C4.2687 38.166 4.48637 37.8803 4.48637 37.7851C4.48637 37.6763 4.77206 37.2273 5.11217 36.792C5.57472 36.1934 5.71076 35.9077 5.64274 35.6764C5.58832 35.4452 5.62913 35.3635 5.79238 35.3635C5.92843 35.3635 5.99645 35.3363 5.95564 35.2955C5.91482 35.2547 6.06447 35.0234 6.28214 34.7922C6.51341 34.5337 6.64945 34.2616 6.62224 34.1256C6.58143 33.9623 6.62224 33.9079 6.74468 33.9623C6.85352 34.0031 6.93514 33.9623 6.93514 33.8671C6.93514 33.7855 6.98956 33.7446 7.05758 33.7855C7.18002 33.8671 8.15953 32.8332 8.15953 32.6155C8.15953 32.5611 8.25476 32.5067 8.3908 32.5067C8.59486 32.5067 9.38391 31.7584 9.38391 31.5544C9.38391 31.5135 9.72402 31.3639 10.1185 31.2278C10.8396 30.983 11.4926 30.4524 11.3157 30.2619C11.2613 30.2075 11.2885 30.1803 11.3565 30.1939C11.4382 30.2075 11.7783 30.2211 12.1184 30.2075C12.6898 30.1939 12.7714 30.1531 12.9618 29.7586C13.2067 29.2688 13.1523 29.0376 12.6761 28.5206C12.4857 28.3165 12.3769 28.1533 12.4449 28.1533C12.5129 28.1533 12.4177 28.0172 12.2544 27.8676C12.0095 27.6363 11.9823 27.5547 12.1184 27.4595C12.2544 27.3778 12.2 27.2826 11.9279 27.0513C11.683 26.8745 11.5742 26.684 11.6286 26.548C11.6694 26.4391 11.6422 26.3031 11.5742 26.2623C11.5062 26.2079 11.4109 25.7453 11.3701 25.2284C11.3293 24.6978 11.2341 24.2625 11.1525 24.2353C10.962 24.1672 10.9892 23.7999 11.1933 23.7999C11.3021 23.7999 11.3021 23.7591 11.1661 23.6775C11.0572 23.6095 10.9756 23.3238 10.962 23.0245C10.962 22.7388 10.894 22.4395 10.8124 22.3579C10.7307 22.2762 10.6763 21.8001 10.6899 21.2967C10.7035 20.807 10.6763 20.3988 10.6219 20.3988C10.5675 20.3988 10.5267 20.2764 10.5131 20.1268C10.4995 19.9771 10.5539 19.8547 10.6219 19.8547C10.7035 19.8547 10.7307 19.8003 10.6899 19.7458C10.5539 19.5146 10.4995 18.9024 10.6219 18.9024C10.6899 18.9024 10.7443 18.8071 10.7443 18.6847C10.7443 18.5759 10.6899 18.5078 10.6355 18.5487C10.5131 18.6303 10.5131 18.2222 10.6355 18.0181C10.7443 17.8276 10.6899 16.9706 10.5675 16.7529C10.4995 16.6713 10.5131 16.5896 10.5947 16.5896C10.7171 16.5896 10.7035 15.7598 10.5675 15.0252C10.5403 14.8755 10.5675 14.7123 10.6355 14.6714C10.7035 14.6306 10.7715 14.3041 10.7852 13.964C10.7988 13.6103 10.8532 13.3246 10.894 13.3246C10.9892 13.3246 11.1661 12.6988 11.2341 12.1274C11.2613 11.9642 11.3701 11.7329 11.4926 11.6105C11.6014 11.488 11.6694 11.3384 11.6286 11.2704C11.5742 11.2024 11.615 11.1479 11.683 11.1479C11.7647 11.1479 11.8327 11.0527 11.8327 10.9439C11.8327 10.835 11.9007 10.7398 11.9687 10.7398C12.0504 10.7398 12.1048 10.6446 12.1048 10.5357C12.1048 10.4269 12.1592 10.3453 12.2136 10.3589C12.3769 10.4133 13.0571 9.69228 13.0571 9.4474C13.0571 9.33857 13.1251 9.24334 13.1931 9.24334C13.2747 9.24334 13.3972 9.09369 13.4924 8.90323C13.574 8.72637 13.6965 8.60394 13.7509 8.64475C13.8189 8.68556 13.8733 8.65835 13.8733 8.59033C13.8733 8.34545 14.608 7.73326 14.8392 7.78768C14.9889 7.82849 15.2882 7.65164 15.6283 7.33874C15.9276 7.05305 16.2133 6.86259 16.2541 6.9034C16.2949 6.94421 16.3221 6.9034 16.3221 6.80817C16.3221 6.69934 16.4309 6.65852 16.5806 6.69934C16.7166 6.72655 16.9207 6.71294 17.0295 6.64492C17.3424 6.46806 18.0906 6.37283 18.2675 6.48167C18.4988 6.61771 19.315 6.64492 19.3967 6.50888C19.4375 6.44086 19.5735 6.46806 19.7232 6.54969C19.9136 6.67213 20.0225 6.67213 20.1857 6.53609C20.3354 6.41365 20.4578 6.40004 20.6619 6.50888C20.8115 6.5905 21.0292 6.61771 21.138 6.5769C21.2604 6.53609 21.3557 6.54969 21.3557 6.63132C21.3557 6.69934 21.6006 6.79457 21.8998 6.84898C22.2263 6.9034 22.4304 6.99863 22.4032 7.10747C22.3896 7.18909 22.4576 7.25711 22.5529 7.2299C22.6345 7.2163 22.7161 7.25711 22.7161 7.33874C22.7161 7.42036 22.7977 7.47478 22.893 7.47478C22.9882 7.47478 23.1378 7.59722 23.2331 7.74687C23.3283 7.91012 23.4643 7.99174 23.5324 7.95093C23.614 7.89651 23.7092 7.96454 23.7636 8.08697C23.8044 8.20941 24.0221 8.50871 24.2262 8.73998C24.4438 8.97125 24.6207 9.21613 24.6207 9.27055C24.6207 9.33857 24.7159 9.37938 24.8248 9.37938C25.0152 9.37938 25.0832 9.54263 25.0424 9.81472C25.0424 9.88274 25.0832 9.92355 25.1377 9.92355C25.3961 9.92355 25.8315 10.4813 25.7499 10.699C25.6818 10.8622 25.709 10.8895 25.8451 10.8078C25.9811 10.7262 26.0083 10.7534 25.9403 10.9031C25.8995 11.0255 25.9539 11.2296 26.0628 11.3792C26.2396 11.6105 26.2804 11.5969 26.7294 11.1207C27.1375 10.6854 27.1919 10.5493 27.1103 10.1684C27.0151 9.62426 26.5797 8.97125 26.3076 8.97125C26.1988 8.97125 26.1172 8.90323 26.1172 8.83521C26.1172 8.75358 26.0219 8.69917 25.9131 8.69917C25.7907 8.69917 25.7499 8.61754 25.7907 8.4951C25.8859 8.25022 24.92 7.29793 24.6751 7.39316C24.5663 7.43397 24.5255 7.37955 24.5799 7.25711C24.7023 6.91701 23.3963 5.86948 22.961 5.9511C22.9066 5.96471 22.7977 5.85587 22.7161 5.70623C22.6345 5.55658 22.4576 5.43414 22.308 5.43414C22.1719 5.43414 22.0087 5.36612 21.9679 5.2981C21.9135 5.21647 21.8046 5.16205 21.723 5.17566C21.6278 5.18926 21.3829 5.16205 21.1652 5.09403C20.9067 5.02601 20.7435 5.03962 20.6755 5.16205C20.5938 5.28449 20.485 5.27089 20.1585 5.10764C19.6823 4.86276 19.5871 4.84916 19.5871 5.01241ZM20.1313 5.70623C20.1313 5.77425 20.0769 5.84227 19.9952 5.84227C19.9272 5.84227 19.8592 5.77425 19.8592 5.70623C19.8592 5.6246 19.9272 5.57018 19.9952 5.57018C20.0769 5.57018 20.1313 5.6246 20.1313 5.70623ZM20.9475 5.70623C20.9475 5.77425 20.8931 5.84227 20.8115 5.84227C20.7435 5.84227 20.6755 5.77425 20.6755 5.70623C20.6755 5.6246 20.7435 5.57018 20.8115 5.57018C20.8931 5.57018 20.9475 5.6246 20.9475 5.70623ZM4.21429 53.8654C4.21429 53.9334 4.18708 54.0014 4.15987 54.0014C4.11906 54.0014 4.05104 53.9334 4.01022 53.8654C3.96941 53.7837 3.99662 53.7293 4.06464 53.7293C4.14627 53.7293 4.21429 53.7837 4.21429 53.8654ZM4.84008 54.5048C4.70404 54.6408 4.5816 54.4367 4.70404 54.2599C4.78567 54.1102 4.81288 54.1102 4.86729 54.2599C4.8945 54.3551 4.8809 54.464 4.84008 54.5048ZM39.9935 65.361C39.9935 65.2794 40.0752 65.3746 40.184 65.565C40.32 65.8371 40.32 65.9732 40.184 66.2589C40.0207 66.599 40.0888 67.3472 40.32 67.7281C40.3745 67.8097 40.3472 67.8778 40.2792 67.8778C40.1976 67.8778 40.1296 67.9594 40.1296 68.0682C40.1296 68.1771 40.0343 68.3675 39.9119 68.4764C39.8031 68.5988 39.6942 68.9117 39.6806 69.1838C39.667 69.5375 39.5174 69.8232 39.2181 70.1633C38.9732 70.4354 38.7691 70.7619 38.7691 70.8843C38.7691 71.1836 38.5243 71.238 37.0686 71.1972C36.2524 71.1836 35.749 71.238 35.5449 71.3605C35.3001 71.5101 35.2456 71.5101 35.1912 71.3605C35.1368 71.2244 34.8783 71.1836 34.1981 71.2108C33.273 71.2516 32.9601 71.1564 32.3207 70.5714C32.1847 70.4354 32.0214 70.3537 31.9806 70.3946C31.9262 70.4218 31.8038 70.3946 31.6949 70.3265C31.5453 70.2313 31.5453 70.1633 31.6677 70.0136C31.7629 69.9184 31.8038 69.796 31.7765 69.7688C31.7493 69.7416 31.8718 69.6055 32.0486 69.4695C32.2255 69.3334 32.3751 69.279 32.3751 69.347C32.3751 69.4151 32.6472 69.4695 32.9873 69.4695C33.3274 69.4695 33.5995 69.4151 33.5995 69.347C33.5995 69.211 33.9124 69.2654 34.0485 69.4423C34.1301 69.5239 34.1845 69.5239 34.2389 69.4014C34.2661 69.3198 34.3614 69.2654 34.4294 69.3198C34.4974 69.3606 34.5518 69.0341 34.5518 68.5716C34.5518 68.109 34.511 67.7417 34.4566 67.7417C34.3886 67.7417 34.1573 67.8642 33.9124 68.0002C33.5859 68.2043 33.4635 68.2315 33.4227 68.0954C33.3819 68.0002 33.1506 67.9322 32.8649 67.9458C32.4704 67.9458 32.3615 67.8914 32.2391 67.6057C32.0622 67.1703 32.2663 66.7078 32.8649 66.2044C33.2322 65.8915 33.3274 65.8779 33.6131 66.014C33.994 66.218 34.6198 66.2044 35.096 66.014C35.2865 65.9324 35.4905 65.9052 35.5585 65.946C35.6266 65.9732 36.0075 66.0276 36.4156 66.0548C37.0686 66.0956 37.1911 66.0548 37.4767 65.7555C37.7216 65.4834 37.8713 65.429 38.1161 65.5106C38.7147 65.7011 39.1909 65.6739 39.4902 65.429C39.7078 65.2521 39.8167 65.2249 39.8847 65.3338C39.9391 65.429 39.9935 65.429 39.9935 65.361Z"
          fill="white"/>
    <path d="M76.7251 7.81487C76.2898 8.26381 76.2898 8.29102 76.385 9.06646C76.453 9.5018 76.5075 10.1276 76.5347 10.4677C76.5483 10.8078 76.6027 11.2568 76.6435 11.4608C76.7115 11.7329 76.6843 11.8281 76.5755 11.7601C76.4667 11.6921 76.453 11.7601 76.5347 11.9778C76.6571 12.3723 76.6571 12.5083 76.5211 12.8076C76.4667 12.9437 76.4803 13.0525 76.5619 13.0525C76.7115 13.0525 76.7115 13.2974 76.5483 13.5559C76.4939 13.6375 76.4803 13.7871 76.5211 13.896C76.5619 14.0048 76.5075 14.3177 76.385 14.6034C76.2354 14.9707 76.2082 15.1612 76.3034 15.2836C76.385 15.3788 76.3986 15.5013 76.3442 15.5557C76.2898 15.6101 76.249 15.7054 76.249 15.7462C76.2354 15.8006 76.1946 16.0591 76.1402 16.3175C76.0857 16.576 76.0449 16.8481 76.0585 16.9161C76.0585 16.9842 76.0041 17.0794 75.9225 17.1338C75.8409 17.1746 75.7456 17.3379 75.7184 17.4875C75.6096 17.9909 75.3647 18.4942 75.2287 18.4942C75.147 18.4942 75.1198 18.6439 75.1742 18.8479C75.2423 19.0928 75.2151 19.188 75.1198 19.12C75.0382 19.0792 74.943 19.2017 74.8886 19.4465C74.8341 19.6642 74.6981 19.9091 74.5757 19.9907C74.4532 20.0587 74.3988 20.1267 74.4668 20.1267C74.5348 20.1267 74.426 20.2492 74.2356 20.3988C74.0451 20.5485 73.8546 20.875 73.8138 21.1607C73.7594 21.4328 73.6778 21.6232 73.637 21.5688C73.4737 21.4191 73.1336 21.9497 73.1608 22.317C73.188 22.5619 73.12 22.7388 72.9568 22.8204C72.7255 22.9564 72.7391 22.9972 73.0928 23.351C73.3105 23.5822 73.4601 23.8951 73.4601 24.1128C73.4601 24.3849 73.5281 24.4801 73.7322 24.4801C73.8818 24.4801 74.0043 24.5617 74.0043 24.6706C74.0043 24.8746 74.875 25.7045 75.0926 25.7045C75.1742 25.7045 75.2151 25.7861 75.1879 25.8677C75.1742 25.963 75.2287 26.031 75.3103 26.0174C75.3919 26.0038 75.5416 26.1262 75.6504 26.2759C75.7592 26.4391 75.9497 26.6568 76.0857 26.7792C76.2082 26.8881 76.317 27.0377 76.317 27.1057C76.317 27.337 77.2965 28.5614 77.419 28.4798C77.487 28.439 77.5414 28.4798 77.5414 28.5478C77.5414 28.6294 77.6366 28.6974 77.7455 28.6974C77.8543 28.6974 77.9087 28.7791 77.8679 28.8879C77.8271 28.9967 77.9087 29.1056 78.0856 29.1464C78.2352 29.1872 78.3576 29.2688 78.344 29.3368C78.2896 29.6225 78.3713 29.7722 78.5481 29.7042C78.6569 29.6633 78.8066 29.813 78.9426 30.0987C79.2011 30.6292 79.9221 31.4591 80.3303 31.6768C80.4799 31.7584 80.5343 31.8264 80.4391 31.8264C80.3439 31.8264 80.4255 31.9761 80.6024 32.1665C80.7928 32.3434 80.9425 32.5883 80.9425 32.7107C80.9425 32.8331 80.9969 32.9012 81.0513 32.8603C81.1737 32.7923 81.6227 33.2413 81.6227 33.4317C81.6227 33.6086 82.3709 34.2752 82.5614 34.2752C82.6566 34.2752 82.6974 34.3296 82.6566 34.384C82.6158 34.452 82.7654 34.6969 82.9831 34.9418C83.2144 35.1867 83.3912 35.4452 83.3912 35.5132C83.3912 35.5948 83.4456 35.622 83.5001 35.5812C83.5681 35.5404 83.7313 35.7581 83.8538 36.0574C83.9898 36.3566 84.3027 36.8328 84.5612 37.1049C84.8197 37.377 85.0237 37.6491 85.0237 37.7035C85.0237 37.7579 85.1734 37.9619 85.3502 38.1524C85.5543 38.3701 85.6495 38.6014 85.6087 38.7374C85.5679 38.8598 85.5679 38.9279 85.6223 38.8734C85.772 38.7374 86.2481 39.1999 86.2481 39.4856C86.2481 39.6217 86.3025 39.6897 86.3842 39.6489C86.4658 39.6081 86.4794 39.6625 86.4386 39.7849C86.3842 39.9074 86.4658 40.1794 86.6427 40.3971C86.7923 40.6148 86.9283 40.8597 86.9283 40.9413C86.9283 41.0093 86.9828 41.0773 87.0644 41.0773C87.1324 41.0773 87.1596 41.1726 87.1188 41.2814C87.0644 41.4038 87.1596 41.6079 87.3365 41.7575C87.5133 41.9072 87.5813 42.0296 87.4997 42.0296C87.2548 42.0296 87.4725 42.4242 87.7582 42.5058C87.9215 42.5602 88.0167 42.7234 88.0167 42.9275C88.0167 43.118 88.0711 43.2404 88.1391 43.1996C88.2071 43.1588 88.3296 43.4173 88.4248 43.771C88.5336 44.1247 88.7513 44.5464 88.9146 44.6961L89.2139 44.9954L89.69 44.492C90.139 44.0159 90.1526 43.9886 89.9757 43.5533C89.8669 43.322 89.7036 43.118 89.5948 43.118C89.4723 43.118 89.4315 42.9955 89.4587 42.7507C89.4996 42.3017 89.0642 41.5263 88.6833 41.4174C88.5336 41.363 88.4248 41.227 88.4384 41.1045C88.5064 40.5332 88.0167 39.5809 87.6358 39.5809C87.5813 39.5809 87.5541 39.3632 87.5813 39.1047C87.6358 38.683 87.5677 38.5469 87.01 38.0164C86.6699 37.6763 86.425 37.3225 86.4658 37.2273C86.493 37.1321 86.3162 36.8464 86.0577 36.5879C85.7856 36.3294 85.5679 36.0301 85.5679 35.9349C85.5679 35.8533 85.5135 35.7717 85.4455 35.7717C85.3775 35.7717 85.2686 35.6356 85.2142 35.4588C85.1054 35.0778 84.6972 34.6833 84.4116 34.6833C84.2891 34.6833 84.2075 34.5609 84.2075 34.3432C84.2075 34.1119 83.9354 33.731 83.296 33.0916C82.779 32.5747 82.2485 31.9353 82.0988 31.636C81.9492 31.3503 81.7179 31.0782 81.5955 31.0374C81.4594 31.0102 81.3506 30.9285 81.3506 30.8605C81.3506 30.7925 81.2554 30.7381 81.1465 30.7381C81.0377 30.7381 80.9425 30.6156 80.9425 30.466C80.9425 30.3163 80.888 30.1939 80.8064 30.1939C80.7384 30.1939 80.6704 30.1395 80.6704 30.0579C80.6704 29.8538 80.099 29.2416 79.8949 29.2416C79.7997 29.2416 79.7181 29.1056 79.7181 28.9423C79.7181 28.6022 79.0923 27.7315 78.861 27.7587C78.4529 27.8132 78.2352 27.7315 78.3032 27.5547C78.3713 27.3778 77.6366 26.5208 77.4053 26.5208C77.3509 26.5208 77.2557 26.3167 77.2149 26.0718C77.1197 25.5412 76.5483 24.9427 76.0177 24.8202C75.7864 24.7658 75.6368 24.6298 75.6368 24.4937C75.6368 24.3713 75.4599 24.1264 75.2423 23.9359C75.011 23.7591 74.8613 23.5686 74.9022 23.5142C74.9294 23.4598 74.8341 23.3237 74.6709 23.2149C74.4804 23.0789 74.4396 22.9836 74.5485 22.9156C74.6301 22.8612 74.6709 22.7388 74.6301 22.6435C74.6029 22.5483 74.7117 22.3306 74.8886 22.1674C75.079 21.9905 75.1879 21.7457 75.1742 21.5552C75.147 21.3375 75.2423 21.1879 75.5144 21.0246C75.9225 20.7797 76.2762 20.1676 76.3578 19.5554C76.3714 19.3513 76.5483 19.0248 76.7251 18.8343C76.9428 18.6031 77.0516 18.331 77.0516 18.0181C77.0516 17.7596 77.0925 17.5419 77.1469 17.5419C77.3237 17.5419 77.623 16.8073 77.6502 16.2495C77.6774 15.9638 77.7182 15.6917 77.7455 15.6509C77.7863 15.6237 77.7046 15.5149 77.5686 15.4197C77.4326 15.3108 77.4053 15.2428 77.5006 15.2292C77.9495 15.2156 78.208 13.8416 77.8135 13.5967C77.7046 13.5287 77.6774 13.4606 77.7591 13.4606C77.9631 13.4606 78.14 12.8485 78.0992 12.2363C78.0856 11.9778 78.0584 11.2023 78.0311 10.5357C78.0039 9.85551 77.9631 9.27053 77.9495 9.20251C77.8815 8.99844 77.8543 8.88961 77.7591 8.25021C77.6094 7.35232 77.3101 7.21628 76.7251 7.81487Z"
          fill="white"/>
    <path d="M26.811 11.2024C26.3212 11.6921 26.2532 11.8418 26.3757 12.0458C26.7702 12.7397 26.7566 12.7397 27.3007 12.2363L27.8177 11.7601L27.396 12.2363C26.9198 12.7669 26.8654 13.1206 27.2191 13.4743C27.4368 13.692 27.4776 13.6783 27.8721 13.2702C28.1578 12.9709 28.2666 12.7533 28.2122 12.6036C28.1714 12.4812 28.0762 12.3723 28.0218 12.3723C27.9538 12.3723 27.8721 12.1275 27.8177 11.8282C27.7633 11.5289 27.6681 11.2568 27.6 11.2024C27.532 11.1616 27.5048 11.0799 27.532 11.0255C27.5728 10.9711 27.5456 10.8623 27.4912 10.767C27.4232 10.6582 27.2055 10.7942 26.811 11.2024Z"
          fill="white"/>
    <path d="M27.8994 13.3926C27.6001 13.7191 27.3416 14.0728 27.3416 14.1545C27.3416 14.2497 27.3824 14.2905 27.4232 14.2361C27.4777 14.1953 27.6273 14.2905 27.7633 14.4538L28.0218 14.7531L28.498 14.2497C28.9197 13.7871 28.9469 13.7055 28.8245 13.3246C28.7429 13.1069 28.6204 12.8893 28.566 12.8485C28.5116 12.8076 28.2123 13.0525 27.8994 13.3926Z"
          fill="white"/>
    <path d="M28.3891 14.5218C27.8857 15.0388 27.8857 15.0388 28.1034 15.4741C28.2122 15.719 28.3619 15.9094 28.4163 15.9094C28.4707 15.9094 28.702 15.7054 28.9469 15.4605C29.355 15.0388 29.5319 14.413 29.2462 14.413C29.1782 14.413 29.1101 14.3177 29.1101 14.2089C29.1101 13.8824 28.9333 13.964 28.3891 14.5218Z"
          fill="white"/>
    <path d="M63.5154 14.7123C63.4201 14.9028 63.4201 15.0252 63.529 15.1476C63.6378 15.2837 63.6242 15.3517 63.4609 15.4197C63.3521 15.4605 63.2569 15.6238 63.2569 15.787C63.2569 15.9911 63.1889 16.0455 63.0528 15.9911C62.944 15.9503 62.8487 15.9911 62.8487 16.0727C62.8487 16.6577 62.3862 19.1609 62.2366 19.3922C62.0733 19.6507 62.1005 19.7323 62.5767 20.1948L63.1072 20.7118L63.6514 20.1676C63.9643 19.8683 64.2092 19.501 64.2092 19.365C64.2092 19.2153 64.2772 19.0249 64.3452 18.9568C64.4268 18.8752 64.5221 18.2494 64.5493 17.542C64.5901 16.8482 64.6853 16.1952 64.767 16.0999C64.8486 15.9911 64.8894 15.8279 64.8486 15.7054C64.7942 15.5966 64.8486 15.4333 64.9438 15.3381C65.3111 14.9572 64.8214 14.4402 64.1139 14.4402C63.801 14.4402 63.6106 14.5218 63.5154 14.7123ZM64.5493 14.9844C64.2908 15.134 64.1412 15.0524 64.2636 14.8347C64.318 14.7531 64.4541 14.7395 64.5629 14.7803C64.767 14.8483 64.7533 14.8756 64.5493 14.9844Z"
          fill="white"/>
    <path d="M28.9197 15.6238C28.4979 16.0592 28.4299 16.1952 28.5524 16.3993C28.9333 17.0931 28.9333 17.0931 29.4502 16.5897C29.9808 16.0728 30.0488 15.7463 29.6815 15.3653C29.4366 15.1069 29.423 15.1069 28.9197 15.6238Z"
          fill="white"/>
    <path d="M29.5182 16.644C29.2734 16.9025 29.1237 17.1746 29.1645 17.2426C29.2053 17.3242 29.1917 17.4331 29.1101 17.4739C29.0149 17.5283 29.0693 17.7188 29.2462 18.0044C29.3958 18.2629 29.5182 18.5622 29.5182 18.6847C29.5182 18.8071 29.5727 18.9023 29.6407 18.9023C29.7087 18.9023 29.8039 19.1744 29.8448 19.5009C29.8992 19.8274 30.0216 20.1811 30.1304 20.2628C30.2393 20.358 30.2937 20.4804 30.2529 20.5484C30.2121 20.6165 30.2393 20.6709 30.3073 20.6709C30.3889 20.6709 30.4161 20.7933 30.3753 20.943C30.3209 21.1334 30.3753 21.2151 30.525 21.2151C30.7562 21.2151 30.7698 21.4871 30.5386 21.6504C30.4433 21.7184 30.4433 21.8 30.5386 21.8545C30.6746 21.9497 30.6882 22.1401 30.6066 22.3986C30.593 22.4667 30.5794 22.6299 30.593 22.7795C30.6066 22.9292 30.4842 23.2013 30.3073 23.3917C30.1304 23.5822 30.008 23.7591 30.0216 23.7999C30.0624 23.9495 29.0421 23.8815 28.9469 23.7318C28.8652 23.6366 28.8108 23.6366 28.7428 23.7318C28.6476 23.8543 28.3619 23.8951 28.2667 23.7999C28.0626 23.6366 26.4437 23.8815 26.3076 24.0992C26.2532 24.1808 26.1852 24.1808 26.1172 24.072C26.0356 23.9495 25.9403 23.9495 25.7363 24.0584C25.505 24.1808 25.3825 24.1536 25.0696 23.8679L24.6887 23.5414L25.2873 23.0244L25.8859 22.4939L25.4506 21.6912C25.2193 21.2423 24.8112 20.5348 24.5663 20.1267C24.3078 19.7186 24.131 19.3377 24.1718 19.2832C24.199 19.2152 24.1718 19.1744 24.1037 19.1744C24.0357 19.1744 23.8997 18.9976 23.8045 18.7799L23.6412 18.3718L23.0154 18.6438C22.6617 18.7935 22.3216 18.984 22.24 19.052C22.1719 19.12 22.1039 19.5825 22.0767 20.0995C22.0631 20.6029 22.0087 21.2559 21.9543 21.5552C21.8862 22.0313 21.9271 22.181 22.2536 22.5755C22.4712 22.834 22.5665 22.9972 22.4848 22.9292C22.3896 22.8748 22.308 22.8884 22.308 22.97C22.308 23.038 22.3624 23.1333 22.4304 23.1741C22.4984 23.2285 22.5393 23.419 22.512 23.623C22.4712 24.072 22.5665 24.3712 22.7297 24.2624C22.7977 24.2216 22.8522 24.2488 22.8522 24.3304C22.8522 24.3985 22.7977 24.4801 22.7297 24.5073C22.5801 24.5617 22.8522 25.7181 23.0426 25.8541C23.1106 25.9085 23.1106 26.0174 23.0698 26.099C23.0154 26.1806 23.0834 26.2895 23.2195 26.3439C23.3555 26.3847 23.5732 26.5207 23.7092 26.6432C23.9133 26.8064 24.0085 26.82 24.2126 26.684C24.5255 26.4935 24.6615 26.4799 24.5663 26.6432C24.5119 26.7112 24.6071 26.7384 24.7568 26.6976C24.9064 26.6568 25.0288 26.5207 25.0288 26.3983C25.0288 26.099 25.4234 25.5548 25.6138 25.582C25.8587 25.6228 26.6613 25.4052 26.6613 25.3099C26.6613 25.2691 26.9742 25.2283 27.3688 25.2147C27.7497 25.2147 28.1034 25.1331 28.1306 25.0515C28.1578 24.9562 28.3211 24.997 28.6068 25.1467C29.2598 25.514 30.7426 25.2827 30.7426 24.8066C30.7426 24.6978 30.8515 24.6161 30.9739 24.6161C31.0963 24.6161 31.4092 24.3985 31.6541 24.1264C31.899 23.8543 32.1031 23.6774 32.1031 23.7455C32.1031 23.8135 32.1983 23.7182 32.3207 23.555C32.5112 23.2829 32.5112 23.2149 32.2799 22.8476C32.1575 22.6299 31.9534 22.4394 31.831 22.4394C31.6541 22.4258 31.6541 22.4122 31.831 22.2626C31.9398 22.1674 32.0486 22.0313 32.0622 21.9633C32.0759 21.8817 32.1031 21.7592 32.1167 21.6912C32.2255 21.3375 31.9534 20.426 31.7221 20.3716C31.5725 20.3308 31.4773 20.1539 31.4501 19.8818C31.4365 19.6506 31.3548 19.2832 31.2732 19.0792C31.1916 18.8751 31.1099 18.5758 31.0691 18.4398C31.0283 18.2085 30.8787 17.9092 30.1304 16.4944C29.9672 16.1951 29.9672 16.1951 29.5182 16.644Z"
          fill="white"/>
    <path d="M57.6383 26.8745C57.3662 27.0241 57.2029 27.0378 57.0805 26.9425C56.8628 26.7657 55.6112 26.8881 55.4344 27.1058C55.2847 27.3098 54.21 27.6091 53.625 27.6091C53.4209 27.6091 53.1081 27.7316 52.9312 27.8948C52.7407 28.0853 52.5775 28.1397 52.4686 28.0445C52.2102 27.854 51.1354 27.9356 50.9586 28.1805C50.8497 28.3302 50.7137 28.3574 50.5096 28.2757C50.1287 28.1397 49.2444 28.4118 48.8907 28.7791C48.6731 28.9968 48.5506 29.0376 48.4554 28.9424C48.3466 28.8335 48.2513 28.8335 48.1153 28.9424C48.0064 29.0376 47.884 29.0648 47.8432 29.0104C47.7888 28.9696 47.6391 29.024 47.5167 29.1464C47.3807 29.2553 47.2174 29.3505 47.1358 29.3505C47.0678 29.3505 46.9181 29.4865 46.8365 29.6634C46.7412 29.8402 46.6596 29.9219 46.6596 29.8538C46.6596 29.7722 46.4284 29.7314 46.1155 29.7586C45.8162 29.7858 45.5713 29.8674 45.5713 29.9491C45.5713 30.0171 45.3536 30.2892 45.0951 30.5613C44.619 31.051 44.4693 31.5544 44.7958 31.5544C44.8911 31.5544 44.9047 31.5952 44.823 31.6632C44.5238 31.8673 44.4013 32.4387 44.5238 33.0236C44.619 33.527 44.7142 33.6494 45.1087 33.8127C45.3672 33.9215 45.6393 33.9759 45.7073 33.9351C45.7889 33.8807 45.8434 33.9079 45.8434 33.9759C45.8434 34.044 46.0474 34.18 46.2923 34.2752C46.5236 34.3569 46.8229 34.4793 46.9453 34.5473C47.0541 34.6017 47.2582 34.6017 47.3807 34.5337C47.5303 34.4385 47.6391 34.4793 47.7344 34.6425C47.816 34.7786 47.884 34.8466 47.884 34.7922C47.884 34.6289 48.5642 35.2547 48.5642 35.4316C48.5642 35.7037 49.3397 36.3431 49.707 36.3703C49.8974 36.3703 50.0607 36.4247 50.0607 36.4655C50.0607 36.6288 50.6865 37.2682 50.8497 37.2682C50.945 37.2682 51.013 37.3362 51.013 37.4178C51.013 37.513 51.149 37.5403 51.3531 37.513C51.5436 37.4722 51.6932 37.4994 51.6932 37.5811C51.6932 37.7851 52.5231 38.4926 52.8768 38.5742C53.0536 38.6286 53.2713 38.6286 53.3665 38.5878C53.4618 38.547 53.625 38.6286 53.7066 38.7782C53.8019 38.9279 53.9515 38.9959 54.074 38.9551C54.1828 38.9007 54.278 38.9279 54.278 38.9959C54.278 39.0775 54.4957 39.132 54.7678 39.1456C55.1079 39.1592 55.3255 39.268 55.516 39.4993C55.6929 39.7305 55.9786 39.8666 56.4275 39.9346C56.7812 40.0026 57.1213 40.0298 57.2029 40.0026C57.271 39.989 57.407 40.0707 57.4886 40.1931C57.5975 40.3427 57.8695 40.4244 58.2777 40.4244C58.6178 40.438 58.9035 40.4924 58.9035 40.5468C58.9035 40.7101 59.4204 40.5196 59.5021 40.3155C59.5565 40.1523 59.6381 40.1795 59.8558 40.3972C60.1415 40.6828 60.3999 40.7509 60.3999 40.5332C60.3999 40.4516 60.6584 40.4244 61.0257 40.4652C61.4747 40.506 61.6651 40.4652 61.7196 40.3155C61.774 40.1795 61.842 40.1659 61.9508 40.2475C62.1549 40.4244 63.5017 40.3291 63.8962 40.1115C64.0731 40.0162 64.2091 39.853 64.2091 39.7578C64.2091 39.6489 64.2636 39.6081 64.3452 39.6489C64.7397 39.8938 65.8961 38.6422 65.6376 38.2341C65.5968 38.1524 65.6376 37.9212 65.7464 37.7171C66.0185 37.1729 65.8553 35.9077 65.5152 35.9077C65.4335 35.9077 65.4743 35.8397 65.6104 35.7581C65.7328 35.6901 65.8417 35.5132 65.8417 35.3908C65.8417 35.2683 66.0049 34.8466 66.1818 34.4793C66.3722 34.0984 66.5219 33.7175 66.5219 33.6222C66.5219 33.3501 65.4607 31.9081 65.1886 31.8129C65.0662 31.772 64.9574 31.6632 64.9574 31.5816C64.9574 31.3911 63.4337 29.9219 63.2296 29.9219C63.1616 29.9219 62.9439 29.7994 62.7535 29.6498C62.563 29.5001 62.2229 29.3777 62.0189 29.3777C61.774 29.3777 61.6243 29.3097 61.6243 29.1872C61.6243 28.9696 60.7128 28.3846 60.536 28.4934C60.468 28.5342 60.2911 28.439 60.1415 28.2757C59.9918 28.1125 59.7878 28.0173 59.6653 28.0581C59.5429 28.1125 59.4612 28.0989 59.4749 28.0445C59.4885 27.9901 59.4476 27.8404 59.4068 27.7044C59.3524 27.5819 59.2844 27.3779 59.2436 27.269C59.1892 27.0786 58.9307 26.9425 58.2913 26.7521C58.1416 26.7113 57.8423 26.7657 57.6383 26.8745ZM47.3398 30.0715C47.3398 30.1395 47.2582 30.1939 47.163 30.1939C47.0541 30.1939 46.9725 30.1123 46.9725 30.0035C46.9725 29.8947 47.0541 29.8402 47.163 29.881C47.2582 29.9219 47.3398 30.0035 47.3398 30.0715ZM52.0197 30.0035C52.1694 30.3844 52.1149 30.4524 51.5436 30.6021C50.9042 30.7789 50.1967 31.2415 50.1967 31.5C50.1967 31.5816 50.0743 31.6904 49.9383 31.7312C49.6662 31.7993 49.4757 32.5339 49.5709 33.2277C49.6118 33.5814 49.5981 33.595 49.3261 33.4182C49.0948 33.2549 49.0404 33.0781 49.0268 32.4931C49.0132 32.0849 48.986 31.6904 48.9587 31.6224C48.9043 31.4727 49.5165 30.5068 49.6934 30.4932C50.1015 30.4252 50.4688 30.2756 50.4688 30.1939C50.4688 30.1259 50.5913 30.0851 50.7409 30.0987C50.8906 30.1123 51.013 30.1667 51.013 30.2348C51.013 30.3028 51.1762 30.2212 51.3667 30.0715C51.802 29.7314 51.9109 29.7178 52.0197 30.0035ZM54.999 29.9899C55.0535 30.0851 55.1351 30.0715 55.2031 29.9763C55.2575 29.9083 55.448 29.8402 55.6384 29.8402C55.8289 29.8402 56.0194 29.9083 56.0874 29.9763C56.1554 30.0851 56.2098 30.0851 56.2915 29.9899C56.4003 29.8266 56.5771 29.813 56.7948 29.9355C56.8764 29.9763 57.3254 30.0035 57.8151 29.9899C58.7266 29.9763 58.9987 30.0851 59.0395 30.5477C59.0939 30.983 59.0531 31.0238 58.7402 30.8197C58.3185 30.5613 56.9036 30.6021 56.7268 30.8742C56.6588 30.983 56.5907 31.0102 56.5907 30.9286C56.5907 30.5885 55.3392 30.4388 54.8086 30.6973C54.1148 31.051 53.8427 30.6157 54.4005 30.0443C54.6453 29.7994 54.8358 29.7858 54.999 29.9899ZM46.5236 30.33C46.5236 30.398 46.4692 30.466 46.3875 30.466C46.3195 30.466 46.2515 30.398 46.2515 30.33C46.2515 30.2484 46.3195 30.1939 46.3875 30.1939C46.4692 30.1939 46.5236 30.2484 46.5236 30.33ZM47.4759 31.0102C47.5847 31.0782 47.6255 31.1735 47.5711 31.2279C47.5167 31.2823 47.5711 31.4591 47.6799 31.636C47.8432 31.8945 47.8432 31.9489 47.6799 32.0033C47.5575 32.0577 47.5167 32.2482 47.5303 32.5475C47.5711 33.01 47.5711 33.0236 47.0541 32.9964C46.7549 32.9964 46.5236 32.942 46.5236 32.874C46.5236 32.8196 46.3739 32.7788 46.1835 32.7788C45.8706 32.7788 45.8434 32.7516 45.993 32.4931C46.0746 32.3298 46.0882 32.1666 46.0202 32.1121C45.9522 32.0713 45.8978 31.9625 45.9114 31.8673C45.9114 31.636 46.4692 31.1462 46.7276 31.1462C46.8365 31.1462 46.9317 31.0782 46.9317 31.0102C46.9317 30.847 47.2038 30.8333 47.4759 31.0102ZM61.4883 31.0782C61.5699 31.0374 61.6243 31.0782 61.6243 31.1871C61.6243 31.5 61.0938 31.568 60.9441 31.2823C60.7401 30.915 60.7809 30.847 61.0802 31.0102C61.2298 31.0918 61.4203 31.119 61.4883 31.0782ZM58.577 31.5136C58.4409 31.6496 58.3185 31.4455 58.4409 31.2687C58.5226 31.119 58.5498 31.119 58.6042 31.2687C58.6314 31.3639 58.6178 31.4727 58.577 31.5136ZM52.0061 32.1258C52.0605 32.2482 52.1149 32.2618 52.1966 32.1666C52.2918 32.0441 52.5775 32.0033 52.6863 32.0985C52.8088 32.2074 53.8835 32.1802 53.9515 32.0713C54.0059 31.9897 54.0876 32.0033 54.1556 32.1121C54.2372 32.2346 54.3188 32.2482 54.3869 32.1666C54.5229 31.9761 54.9582 31.9217 54.9582 32.0985C54.9582 32.1802 55.0126 32.221 55.0671 32.1802C55.2983 32.0441 55.9105 31.9897 55.9105 32.1121C55.9105 32.1802 56.0058 32.2346 56.1282 32.2346C56.237 32.2346 56.3051 32.1802 56.2642 32.1121C56.2098 32.0441 56.2915 32.0033 56.4139 32.0305C56.5499 32.0577 56.6588 32.0849 56.6588 32.0985C56.6588 32.1121 56.9172 32.1394 57.2438 32.1666C57.5839 32.1938 57.8151 32.153 57.8151 32.0577C57.8151 31.9761 57.8423 31.9489 57.8832 31.9897C58.0328 32.1394 57.7743 32.5067 57.339 32.7788C57.0397 32.9692 56.6588 33.0508 56.1418 33.0508C55.7201 33.0508 55.3528 33.1053 55.3119 33.1733C55.2711 33.2413 55.0263 33.2821 54.795 33.2685C54.5501 33.2413 54.1148 33.3501 53.8291 33.4998C53.3801 33.7311 53.2849 33.7447 53.1761 33.5814C53.0944 33.459 53.0536 33.4454 53.0536 33.5542C53.0536 33.7175 52.7952 33.7038 52.3462 33.527C52.2102 33.4726 52.1013 33.4862 52.1013 33.5678C52.1013 33.8399 51.1082 33.391 51.081 33.1053C51.0538 32.9692 50.9994 32.7379 50.945 32.6019C50.8769 32.4387 50.9178 32.3706 51.081 32.3706C51.2035 32.3706 51.3939 32.2754 51.5027 32.1666C51.7612 31.9217 51.9245 31.9081 52.0061 32.1258ZM61.2978 32.7652C61.257 32.8196 61.4883 32.8604 61.8012 32.8468C62.1141 32.8332 62.495 32.9012 62.6446 33.01C62.7943 33.1053 63.012 33.1869 63.148 33.1869C63.284 33.1869 63.5153 33.2957 63.665 33.4182C63.9371 33.6494 63.9371 33.6494 63.5969 33.9487C63.2568 34.2344 62.563 34.316 62.2093 34.0984C62.1277 34.044 62.0189 34.0984 61.978 34.2208C61.9372 34.3296 61.8284 34.3841 61.7604 34.3433C61.6787 34.2888 61.5155 34.3296 61.4067 34.4249C61.2842 34.5337 61.1618 34.5473 61.1074 34.4657C60.9849 34.316 60.3999 34.3024 60.1687 34.4521C60.0734 34.5201 59.9918 34.5065 59.9918 34.4249C59.9918 34.3024 59.23 34.0576 58.9987 34.112C58.8355 34.1528 59.2164 33.5542 59.4749 33.3501C59.5973 33.2549 59.7878 33.0917 59.8966 32.9964C60.1687 32.7243 61.4475 32.5067 61.2978 32.7652ZM57.8832 34.765C58.2097 35.0779 58.4681 35.2139 58.6042 35.1731C58.7402 35.1187 58.6858 35.2003 58.4953 35.35C58.2913 35.5132 58.0872 35.5676 57.9512 35.5132C57.6927 35.3908 56.9853 35.4044 56.7676 35.5404C56.6724 35.6084 56.5907 35.5948 56.5907 35.5268C56.5907 35.4452 56.3731 35.35 56.1146 35.3092C55.8561 35.2547 55.584 35.1051 55.5024 34.9554C55.3119 34.6017 55.3255 34.5609 55.6384 34.6425C55.7881 34.6834 55.9105 34.6561 55.9105 34.5881C55.9105 34.5201 56.1554 34.4929 56.4547 34.5201C56.7948 34.5609 56.9989 34.5201 56.9989 34.4249C56.9989 34.1392 57.3934 34.2752 57.8832 34.765ZM52.0333 35.5812C52.1421 35.7037 52.3326 35.7581 52.4414 35.7173C52.5503 35.6765 52.6455 35.7037 52.6455 35.7853C52.6455 35.8669 52.6999 35.8941 52.7679 35.8397C52.836 35.7989 52.9992 35.8669 53.1217 35.9894C53.4618 36.3295 54.6181 36.4791 55.1623 36.2478C55.3119 36.1934 55.3936 36.1934 55.3255 36.2478C55.2031 36.3839 55.6248 36.8873 55.7881 36.7784C55.8561 36.7376 55.9922 36.7512 56.0874 36.8192C56.169 36.8736 56.8084 36.9417 57.475 36.9417C58.1552 36.9553 58.9171 36.9825 59.1756 37.0233C59.434 37.0505 59.815 36.9961 60.019 36.9009C60.2231 36.792 60.468 36.7512 60.5632 36.8056C60.8081 36.9553 61.5291 36.8736 61.6515 36.6696C61.706 36.588 61.7604 36.5744 61.7604 36.6424C61.7604 36.7104 61.842 36.6832 61.9508 36.6016C62.0869 36.4791 62.2229 36.4791 62.495 36.6016C62.7671 36.724 63.012 36.7376 63.5017 36.6152C64.2636 36.4383 64.5629 36.6424 64.3316 37.2274C64.1683 37.6491 64.1819 37.7171 64.3588 37.6083C64.4404 37.5539 64.4812 37.6083 64.454 37.7579C64.3996 38.1252 63.4065 38.8191 62.9712 38.8327C62.7671 38.8327 62.563 38.8735 62.5086 38.9279C62.4542 38.9823 62.3318 38.9823 62.2229 38.9415C62.1141 38.9007 62.0325 38.9415 62.0325 39.0367C62.0325 39.1184 61.9644 39.1456 61.8692 39.0775C61.6107 38.9279 60.672 38.9007 60.672 39.0503C60.672 39.132 60.5496 39.1184 60.3863 39.0367C60.1823 38.9279 60.0598 38.9279 59.9238 39.0367C59.7878 39.1592 59.6653 39.1592 59.4476 39.0367C59.23 38.9143 59.1075 38.9279 58.9579 39.0503C58.8082 39.1728 58.713 39.1728 58.6586 39.0775C58.6042 38.9959 58.3457 38.9007 58.0872 38.8735C57.8287 38.8599 57.5703 38.7782 57.5158 38.7102C57.475 38.6422 57.2574 38.5742 57.0397 38.5606C56.822 38.547 56.5635 38.4926 56.4547 38.4245C56.3459 38.3565 56.169 38.2885 56.0738 38.2749C55.9649 38.2477 55.7745 38.1388 55.6384 38.0164C55.5024 37.894 55.3119 37.8259 55.2439 37.8804C55.1623 37.9212 55.0943 37.894 55.0943 37.8259C55.0943 37.7443 54.9582 37.6763 54.7814 37.6763C54.6045 37.6763 54.4141 37.6355 54.3596 37.5675C54.2508 37.4722 54.1692 37.445 53.7202 37.4178C53.5706 37.4178 53.489 37.3362 53.5298 37.2682C53.5706 37.1865 53.4754 37.1321 53.3121 37.1321C53.1489 37.1321 53.0536 37.0913 53.0944 37.0369C53.2169 36.9281 52.6863 36.5471 52.5231 36.6424C52.4686 36.6832 52.3054 36.6016 52.1694 36.4519C52.0333 36.3023 51.8701 36.1798 51.802 36.1798C51.6932 36.1798 51.013 35.5268 51.013 35.418C51.013 35.2547 51.8429 35.4044 52.0333 35.5812ZM59.3796 39.853C59.4204 39.921 59.366 39.989 59.2572 39.989C59.1347 39.989 59.0395 39.921 59.0395 39.853C59.0395 39.7714 59.0939 39.7169 59.162 39.7169C59.2436 39.7169 59.3388 39.7714 59.3796 39.853ZM60.1279 39.853C60.1279 39.921 60.0598 39.989 59.9782 39.989C59.9102 39.989 59.883 39.921 59.9238 39.853C59.9646 39.7714 60.0326 39.7169 60.0734 39.7169C60.1006 39.7169 60.1279 39.7714 60.1279 39.853Z"
          fill="white"/>
    <path d="M16.9071 33.0644C16.7574 33.214 16.4445 33.2412 15.8459 33.146C15.6147 33.1052 15.3018 33.1596 15.1385 33.2684C14.9753 33.3773 14.7032 33.4589 14.5399 33.4589C14.3359 33.4589 14.2814 33.5269 14.3359 33.663C14.3767 33.7718 14.3495 33.867 14.2814 33.867C13.9957 33.867 13.7373 34.3296 13.7373 34.8329C13.7373 35.2003 13.6828 35.3635 13.5332 35.3771C13.2067 35.4043 13.1523 35.4179 12.6897 35.622C12.4449 35.7172 12.2408 35.8397 12.2408 35.8941C12.2408 35.9349 11.9959 35.9893 11.683 35.9893C11.3837 36.0029 11.0572 36.0845 10.9756 36.1662C10.894 36.2478 10.6899 36.3158 10.5131 36.3158C10.3362 36.3158 10.2002 36.3702 10.2002 36.4518C10.2002 36.5199 10.1321 36.5879 10.0505 36.5879C9.96888 36.5879 9.724 36.7375 9.49273 36.928C9.27506 37.1185 9.01658 37.2681 8.92135 37.2681C8.82612 37.2681 8.56764 37.4722 8.33637 37.7034C8.02347 38.0299 7.91463 38.2612 7.94184 38.5197C7.96905 38.7646 7.92824 38.9006 7.8058 38.9006C7.54732 38.9006 6.93513 39.4992 6.93513 39.7577C6.93513 39.8801 6.86711 40.0162 6.79908 40.057C6.70385 40.1114 6.70385 40.2338 6.79908 40.3835C6.89431 40.5603 6.8535 40.6964 6.66304 40.914C6.35014 41.2406 6.28212 42.0704 6.527 42.6418C6.62223 42.8595 6.71746 43.186 6.74467 43.3492C6.79908 43.7982 7.43849 44.3287 8.02347 44.4103C8.06428 44.4103 8.26835 44.56 8.47241 44.7505C8.94856 45.1722 9.7104 45.3218 10.1729 45.077C10.3634 44.9817 10.6083 44.9409 10.7307 45.0089C10.8532 45.0634 11.1661 45.1042 11.4245 45.0906C11.683 45.0906 11.9415 45.145 11.9959 45.213C12.0503 45.2946 12.2136 45.2538 12.404 45.1314C12.6897 44.9409 12.7714 44.9409 13.0979 45.1178C13.3155 45.2266 13.7101 45.281 14.0094 45.2538C14.3086 45.2266 14.5535 45.2538 14.5535 45.3082C14.5535 45.4851 15.1793 46.1109 15.3562 46.1109C15.4378 46.1109 15.7915 46.2469 16.118 46.3966C16.4581 46.5598 16.771 46.6551 16.8118 46.6142C16.8526 46.587 17.1111 46.6006 17.3832 46.6823C18.2539 46.8863 18.6892 46.8999 19.0974 46.6823C19.383 46.5462 19.5599 46.519 19.7231 46.6278C20.0633 46.8319 21.2468 46.5326 21.3285 46.2197C21.3693 46.0429 21.4373 46.0157 21.5461 46.0973C21.8862 46.383 23.1378 46.0293 23.4235 45.5667C23.5187 45.4171 23.7092 45.2946 23.8452 45.2946C24.1037 45.2946 25.0288 44.4784 25.0288 44.2471C25.0288 44.1655 25.2057 44.0702 25.4233 44.0294C25.9131 43.9342 26.7157 42.7914 26.6069 42.3561C26.5525 42.1792 26.5933 42.0296 26.7021 41.9888C26.8246 41.948 26.879 41.7303 26.8654 41.3902C26.8518 41.1045 26.8926 40.8052 26.947 40.7236C27.015 40.642 26.9878 40.4651 26.879 40.3291C26.743 40.1386 26.7294 39.989 26.8518 39.6897C26.9606 39.404 26.947 39.2407 26.8246 39.0367C26.743 38.887 26.6613 38.6421 26.6613 38.4925C26.6613 38.1796 26.2124 37.6762 25.9131 37.6762C25.7907 37.6762 25.7498 37.5946 25.7907 37.4722C25.8451 37.3633 25.8043 37.2681 25.709 37.2681C25.6274 37.2681 25.5866 37.2137 25.641 37.1457C25.7226 36.996 25.0968 36.5063 24.1445 35.9757C23.7772 35.7716 23.3283 35.4859 23.1378 35.3499C22.961 35.2139 22.7569 35.0914 22.6889 35.0914C22.6209 35.0914 22.4168 34.9418 22.2399 34.7649C21.9134 34.4384 20.8387 34.1527 20.5666 34.3296C20.4986 34.3704 20.2809 34.2616 20.0905 34.0847C19.6687 33.6902 19.2198 33.5677 18.8797 33.7446C18.7028 33.8398 18.6348 33.8262 18.6348 33.7038C18.6212 33.282 17.2064 32.7651 16.9071 33.0644ZM15.5058 34.452C15.5058 34.6289 16.4309 34.6697 16.703 34.4928C16.7846 34.452 16.8662 34.4792 16.8935 34.5609C16.9343 34.6833 17.0159 34.6833 17.2336 34.5609C17.492 34.4248 17.5873 34.4656 17.873 34.7785C18.0634 34.9826 18.1859 35.173 18.1451 35.2139C18.1042 35.2547 18.0362 35.2275 17.9818 35.1594C17.7913 34.901 16.9615 34.8329 16.2813 35.0234C16.0364 35.0914 15.7779 35.0642 15.5738 34.9554C15.2065 34.7649 15.0161 34.2752 15.3154 34.2752C15.4242 34.2752 15.5058 34.3568 15.5058 34.452ZM17.6281 36.5879C17.6689 36.5879 17.6689 36.5335 17.6145 36.4655C17.5737 36.3838 17.6689 36.343 17.8185 36.3566C17.9682 36.3702 18.0906 36.411 18.0906 36.4655C18.0906 36.5199 18.5532 36.5335 19.111 36.5199C19.7776 36.4927 20.1041 36.5199 20.0497 36.6151C19.9952 36.7103 20.1585 36.7239 20.5122 36.6695C20.9475 36.6151 21.0836 36.6423 21.1516 36.8328C21.206 36.9824 21.2604 37.0096 21.3285 36.9008C21.3965 36.792 21.5733 36.8192 21.9679 36.996C22.2671 37.1457 22.6209 37.2545 22.7569 37.2681C22.8793 37.2681 22.9882 37.3225 22.9882 37.4041C22.9882 37.4722 23.0834 37.5402 23.2058 37.5402C23.3283 37.5402 23.5596 37.649 23.7228 37.7851C23.9813 37.9755 24.0221 38.1388 23.9949 38.6693C23.9813 39.0231 24.0221 39.3087 24.1037 39.3087C24.1717 39.3087 24.1854 39.3904 24.1173 39.472C24.0629 39.5672 24.0085 39.7713 24.0085 39.9209C24.0085 40.5467 23.1378 40.193 23.1106 39.5536C23.1106 39.1455 22.4304 38.6149 21.8998 38.6013C21.6822 38.5877 21.4917 38.5469 21.4917 38.5061C21.4917 38.4653 21.3693 38.2748 21.2332 38.098C20.9611 37.7443 19.968 37.5674 17.9546 37.4994L16.9343 37.4722L16.8935 36.9008C16.8526 36.3158 16.8526 36.3158 17.2064 36.4518C17.4104 36.5335 17.6009 36.5879 17.6281 36.5879ZM14.8392 36.8464C14.9617 36.86 15.1385 37.0232 15.2473 37.2273C15.4922 37.7306 15.5602 37.9347 15.3834 37.6626C15.2337 37.4177 14.7304 37.4177 14.1454 37.649C13.9549 37.717 13.7373 37.7443 13.6556 37.717C13.5604 37.6898 13.4516 37.717 13.3972 37.7987C13.3563 37.8803 13.1931 37.9483 13.0434 37.9483C12.9074 37.9483 12.785 37.9891 12.785 38.0572C12.785 38.1116 12.6489 38.302 12.4721 38.4925C11.8599 39.1591 11.751 39.4584 11.7919 40.4651C11.8735 42.1792 11.9823 42.9139 12.2 43.0771C12.404 43.2404 12.404 43.2812 12.1728 43.5261C12.0231 43.6893 11.8735 43.7573 11.7782 43.6757C11.6014 43.5397 10.6627 43.5533 10.5267 43.7029C10.3634 43.8526 10.0369 43.8118 10.1457 43.6485C10.2002 43.5397 10.1321 43.5261 9.91446 43.6077C9.73761 43.6621 9.53354 43.7029 9.45192 43.6893C9.071 43.6485 8.83973 43.5669 8.83973 43.4717C8.85333 43.4172 8.60845 43.1724 8.29555 42.9547C7.92824 42.6826 7.7922 42.5058 7.88743 42.4377C8.00986 42.3697 8.00986 42.2609 7.91463 42.0704C7.8194 41.9072 7.8194 41.7303 7.88743 41.6079C7.95545 41.5126 7.98266 41.3222 7.94184 41.1861C7.91463 41.0637 7.94184 40.9277 8.02347 40.8732C8.09149 40.8324 8.15951 40.6692 8.15951 40.5331C8.15951 40.3835 8.30916 40.1658 8.48601 40.0434C8.67647 39.9345 8.86693 39.6489 8.90775 39.4312C8.96216 39.2135 9.04379 39.0639 9.11181 39.1047C9.17983 39.1455 9.26146 39.0503 9.31588 38.9142C9.35669 38.7646 9.51994 38.6013 9.66959 38.5605C9.80563 38.5061 9.90086 38.4245 9.86005 38.3564C9.79203 38.2476 10.1865 38.0163 10.3906 38.0708C10.4586 38.0844 10.6083 38.0027 10.7307 37.8939C10.8668 37.7715 11.1661 37.6354 11.3973 37.5946C11.6422 37.5402 11.8735 37.445 11.9143 37.3905C11.9551 37.3225 12.0775 37.2681 12.1864 37.2681C12.3088 37.2681 12.4857 37.1865 12.5945 37.0776C12.7033 36.9688 12.9346 36.9008 13.1251 36.9416C13.3155 36.9688 13.5876 36.9416 13.7101 36.8736C13.8325 36.792 14.091 36.7511 14.2814 36.7783C14.4719 36.8192 14.7168 36.8464 14.8392 36.8464ZM16.6622 36.86C16.703 36.928 16.6486 36.996 16.5397 36.996C16.4173 36.996 16.3221 36.928 16.3221 36.86C16.3221 36.7783 16.3765 36.7239 16.4445 36.7239C16.5261 36.7239 16.6214 36.7783 16.6622 36.86ZM16.0228 39.4992C16.118 39.5536 16.186 39.5264 16.186 39.4448C16.186 39.3632 16.3357 39.3768 16.5942 39.5128C16.9071 39.6761 17.0023 39.8121 17.0023 40.125C17.0023 40.3563 17.0703 40.5331 17.1383 40.5331C17.22 40.5331 17.2744 40.6692 17.2744 40.846C17.2744 41.0229 17.3424 41.2269 17.4376 41.3222C17.6553 41.5398 17.492 41.6623 17.0023 41.6487C16.7846 41.6487 16.5942 41.6895 16.5942 41.7439C16.5942 41.7983 16.4989 41.8527 16.3901 41.8527C16.2813 41.8527 16.186 41.7983 16.186 41.7303C16.186 41.6759 16.0364 41.6215 15.8595 41.6215C15.6691 41.6215 15.4786 41.5535 15.4378 41.4718C15.3834 41.3902 15.2609 41.363 15.1521 41.4038C15.0569 41.4446 14.88 41.3902 14.7712 41.2814C14.6624 41.1725 14.4719 41.0773 14.3631 41.0773C14.2406 41.0773 14.1454 41.0229 14.1454 40.9685C14.1454 40.9004 14.0094 40.7916 13.8461 40.71L13.5468 40.5739L13.9005 40.2202C14.1046 40.0162 14.3903 39.8529 14.5535 39.8529C14.7032 39.8529 14.8256 39.7577 14.8256 39.6352C14.8256 39.5264 14.8936 39.472 14.9617 39.5128C15.0433 39.5536 15.0977 39.54 15.0977 39.472C15.0977 39.336 15.7915 39.3496 16.0228 39.4992ZM26.3892 39.5808C26.3892 39.6489 26.3212 39.7169 26.2396 39.7169C26.1716 39.7169 26.1444 39.6489 26.1852 39.5808C26.226 39.4992 26.294 39.4448 26.3348 39.4448C26.362 39.4448 26.3892 39.4992 26.3892 39.5808ZM19.315 39.9073C19.315 39.8393 19.383 39.8937 19.4647 40.0162C19.5327 40.1522 19.6687 40.261 19.7368 40.261C19.8184 40.261 19.832 40.193 19.7912 40.125C19.6007 39.8121 19.9 40.0298 20.4714 40.5875L21.07 41.1861L20.7027 41.3358C20.2673 41.5126 19.6823 41.4582 19.4102 41.2406C19.3014 41.1453 19.179 41.1181 19.1382 41.1589C19.0974 41.2133 18.9749 41.0773 18.8797 40.8596C18.7845 40.642 18.662 40.4243 18.594 40.3835C18.3899 40.2474 18.4171 40.1386 18.7028 39.9345C18.8933 39.7985 19.0293 39.7849 19.1382 39.8801C19.2334 39.9618 19.315 39.9754 19.315 39.9073ZM17.8185 39.9073C17.8185 39.9481 17.7641 40.0162 17.6825 40.057C17.6145 40.0978 17.5465 40.0706 17.5465 40.0026C17.5465 39.9209 17.6145 39.8529 17.6825 39.8529C17.7641 39.8529 17.8185 39.8801 17.8185 39.9073ZM26.3892 40.3971C26.3892 40.4651 26.3348 40.5331 26.2532 40.5331C26.1852 40.5331 26.1172 40.4651 26.1172 40.3971C26.1172 40.3155 26.1852 40.261 26.2532 40.261C26.3348 40.261 26.3892 40.3155 26.3892 40.3971ZM25.2873 41.1861C25.4097 41.4038 25.4369 42.2065 25.3145 42.084C25.2873 42.0568 25.124 42.2473 24.9608 42.5194C24.7975 42.7914 24.6071 43.0227 24.5391 43.0227C24.471 43.0363 24.4438 43.1315 24.4574 43.2404C24.4846 43.3628 24.4302 43.4036 24.3078 43.3492C24.1854 43.3084 24.0629 43.3628 24.0221 43.4717C23.9813 43.5805 23.8997 43.6485 23.8452 43.6349C23.682 43.5805 22.9882 44.1519 22.9882 44.3423C22.9882 44.424 22.9338 44.4512 22.8521 44.4103C22.7841 44.3695 22.7161 44.3831 22.7161 44.4648C22.7161 44.5328 22.5664 44.5736 22.376 44.5464C22.1855 44.5328 21.9951 44.5736 21.9542 44.628C21.9134 44.696 21.7638 44.7505 21.6141 44.7505C21.4509 44.7505 21.3829 44.8049 21.4373 44.9001C21.4917 44.9953 21.3965 45.0361 21.1924 44.9953C21.002 44.9817 20.7435 45.0361 20.621 45.145C20.4714 45.2674 20.4034 45.281 20.4034 45.1722C20.4034 45.077 20.3489 45.0497 20.2673 45.0906C20.1993 45.1314 19.968 45.1994 19.764 45.2266C19.5463 45.2538 19.2606 45.3218 19.1246 45.3763C18.9341 45.4443 18.8933 45.4307 18.9749 45.3082C19.0565 45.1722 19.0021 45.1586 18.7708 45.2266C18.2403 45.3899 18.0226 45.4035 17.9138 45.2402C17.8322 45.1314 17.7777 45.1314 17.7369 45.2538C17.6689 45.4171 16.9343 45.2538 16.6758 45.0089C16.5942 44.9409 16.4173 44.8865 16.2677 44.8729C16.0636 44.8729 16.1044 44.8185 16.4173 44.7096C16.6622 44.6144 16.9751 44.4512 17.1111 44.3287C17.2472 44.2063 17.4512 44.1111 17.5601 44.0975C18.1314 44.0566 18.526 43.9614 18.662 43.8254C18.7572 43.7301 18.8933 43.7301 19.1382 43.839C19.4783 43.9886 20.3762 43.7709 20.553 43.4989C20.6074 43.4172 20.8795 43.3356 21.1652 43.2948C21.4781 43.254 21.9815 43.0227 22.3624 42.737C22.7297 42.4649 23.1514 42.2201 23.2875 42.2065C23.682 42.1384 24.3486 41.7711 24.3486 41.6079C24.3486 41.4582 24.8928 40.9549 25.056 40.9413C25.1104 40.9413 25.2193 41.0501 25.2873 41.1861ZM15.0569 42.9819C15.1521 42.9819 15.2337 43.1043 15.2337 43.2404C15.2337 43.4853 14.948 43.5533 14.744 43.3492C14.6896 43.2948 14.5535 43.254 14.4447 43.254C14.3223 43.254 14.1182 43.1588 13.9821 43.0227C13.7509 42.8186 13.7509 42.7778 13.9549 42.5602C14.159 42.3289 14.1862 42.3289 14.5263 42.6554C14.7304 42.8323 14.9617 42.9819 15.0569 42.9819ZM12.5129 44.4784C12.5129 44.5464 12.4585 44.6144 12.3768 44.6144C12.3088 44.6144 12.2408 44.5464 12.2408 44.4784C12.2408 44.3967 12.3088 44.3423 12.3768 44.3423C12.4585 44.3423 12.5129 44.3967 12.5129 44.4784Z"
          fill="white"/>
    <path d="M89.6492 44.6824C89.4043 44.9273 89.2547 45.1994 89.2955 45.2674C89.3363 45.349 89.3091 45.4307 89.2138 45.4579C89.105 45.4987 89.1458 45.6211 89.3499 45.8388C89.5131 46.0157 89.6084 46.2061 89.5676 46.2741C89.5267 46.3286 89.554 46.383 89.6356 46.383C89.7172 46.383 89.7444 46.4782 89.7036 46.587C89.6492 46.6959 89.69 46.7911 89.7852 46.7911C89.8668 46.7911 89.9213 46.8999 89.9077 47.0224C89.8532 47.5938 89.9349 48.0155 90.1389 48.2059C90.3294 48.41 90.3294 48.4236 90.1117 48.4236C89.8941 48.4236 89.8941 48.4372 90.1253 48.6957C90.275 48.8726 90.343 49.0902 90.2886 49.3351C90.2478 49.58 90.2886 49.7568 90.4382 49.8657C90.5607 49.9609 90.6015 50.0833 90.5335 50.1922C90.3838 50.437 90.343 51.0356 90.479 51.2125C90.6423 51.4302 90.6287 51.5798 90.4382 51.7022C90.2886 51.7975 90.3022 51.8519 90.4654 51.9607C90.6423 52.0696 90.6151 52.1104 90.3702 52.1784C90.1934 52.2328 90.0981 52.3144 90.1389 52.3825C90.1797 52.4505 90.0981 52.5457 89.9621 52.6001C89.6084 52.7362 88.5608 53.7565 88.6425 53.8925C88.6833 53.947 88.6425 54.0014 88.5744 54.0014C88.2888 54.0014 88.2207 54.0422 87.6494 54.4503C87.3365 54.668 87.1052 54.8992 87.1324 54.9673C87.1732 55.0217 87.0236 55.1985 86.7923 55.3618C86.5746 55.525 86.3842 55.6067 86.3842 55.5387C86.3842 55.4842 86.1393 55.7019 85.84 56.0284C85.5407 56.3549 85.255 56.5862 85.2006 56.5454C85.1598 56.491 85.0373 56.5726 84.9285 56.7222C84.8197 56.8719 84.6156 56.9943 84.466 56.9943C84.3299 56.9943 84.2075 57.0487 84.2075 57.1031C84.2075 57.1712 84.0442 57.3072 83.8402 57.416C83.6225 57.5113 83.2824 57.7425 83.0783 57.9058C82.8743 58.069 82.4661 58.3139 82.194 58.45C81.922 58.586 81.5682 58.7901 81.4322 58.9261C81.2962 59.0486 81.1193 59.1302 81.0513 59.0894C80.9969 59.0486 80.9424 59.0894 80.9424 59.1846C80.9424 59.2798 80.9016 59.307 80.8608 59.2662C80.8064 59.2254 80.6431 59.2662 80.4799 59.3751C80.3303 59.4839 80.0854 59.5791 79.9493 59.5791C79.8133 59.5791 79.6636 59.7016 79.6228 59.8376C79.582 60.0009 79.3916 60.1233 79.0923 60.1913C78.8338 60.2321 78.6297 60.3274 78.6297 60.409C78.6297 60.4906 78.5753 60.5042 78.4937 60.4634C78.4257 60.4226 78.3576 60.4362 78.3576 60.4906C78.3576 60.5586 78.2352 60.6811 78.0719 60.7763C77.9087 60.8851 77.8271 60.8987 77.8815 60.8171C78.0175 60.5722 77.8815 60.6403 77.487 61.0076C77.2693 61.2116 77.0516 61.3069 76.902 61.2524C76.7523 61.198 76.7115 61.2116 76.7795 61.3205C76.97 61.6334 76.3714 61.4837 76.0449 61.1436C75.868 60.9532 75.6504 60.8035 75.5551 60.8035C75.4599 60.8035 75.3103 60.6811 75.2286 60.5314C75.1198 60.3274 74.9974 60.2865 74.6981 60.341C74.4804 60.3818 74.1811 60.3546 74.0179 60.2729C73.8138 60.1505 73.6506 60.1505 73.4601 60.2593C73.2968 60.341 73.188 60.3546 73.188 60.2729C73.188 60.1777 72.1133 60.1641 72.0044 60.2593C71.8956 60.3546 71.6099 60.3138 71.5283 60.1913C71.4467 60.0961 71.3922 60.1097 71.3242 60.2049C71.2562 60.3001 70.9569 60.341 70.6168 60.3138C70.2359 60.2865 69.9638 60.341 69.8277 60.4634C69.7189 60.5858 69.5829 60.6403 69.5149 60.5994C69.4604 60.5586 69.3652 60.6403 69.3244 60.7627C69.2428 60.9668 69.2156 60.9668 69.0931 60.8035C68.9843 60.6539 68.9299 60.6403 68.8891 60.7627C68.8346 60.8851 68.7122 60.8851 68.4809 60.7899C68.2633 60.7083 68.0456 60.7219 67.8823 60.8035C67.7191 60.8987 67.6103 60.8851 67.583 60.8035C67.5286 60.613 66.6716 60.8987 66.3042 61.2388C66.1274 61.4021 66.0322 61.6198 66.0594 61.8374C66.073 62.0279 66.0186 62.2047 65.9233 62.2456C65.8281 62.2864 65.7737 62.5312 65.7873 62.8578C65.8009 63.1434 65.7601 63.4291 65.692 63.4699C65.624 63.5108 65.5696 63.606 65.5696 63.674C65.5696 63.7556 65.6376 63.7692 65.7057 63.7284C65.8009 63.674 65.8281 63.7692 65.7737 64.0277C65.5968 64.844 65.6512 65.497 65.9233 65.7555C66.0322 65.8779 66.0866 65.9731 66.0186 65.9731C65.7873 65.9731 66.9164 66.8982 67.2565 66.9798C67.447 67.0207 67.5966 67.1431 67.5694 67.2247C67.5422 67.4016 68.3993 67.8641 68.8754 67.9185C69.0387 67.9321 69.2564 68.0274 69.3516 68.109C69.5285 68.2859 69.9366 68.3403 70.8481 68.3267C71.0793 68.3267 71.2834 68.3675 71.2834 68.4219C71.2834 68.4899 71.5419 68.5171 71.8684 68.5035C72.1813 68.4763 72.4806 68.5307 72.5486 68.6124C72.6166 68.7212 72.6846 68.7076 72.7663 68.5852C72.8887 68.3811 73.0384 68.3811 73.256 68.5443C73.3377 68.6124 73.7866 68.6396 74.2627 68.626C75.011 68.5988 75.1606 68.5443 75.4463 68.2178C75.6232 68.0002 75.7728 67.9185 75.7728 68.0138C75.7728 68.109 76.0585 67.8913 76.3986 67.5512C76.7659 67.1703 76.9972 66.8302 76.9428 66.7214C76.902 66.6125 76.9564 66.4493 77.0516 66.3404C77.2965 66.0956 77.4597 64.9392 77.2557 64.8168C77.1469 64.7351 77.1469 64.6943 77.2693 64.6127C77.3781 64.5447 77.3917 64.4358 77.3237 64.327C77.1605 64.0685 77.1605 63.8781 77.3237 63.7692C77.4053 63.7148 77.3781 63.5516 77.2557 63.3611C77.0108 62.9802 77.0652 62.5585 77.3509 62.6673C77.623 62.7625 78.4529 62.3408 78.6297 62.0279C78.7113 61.8646 78.9154 61.7558 79.1331 61.7558C79.3235 61.7558 79.7589 61.5517 80.1126 61.2933C80.4663 61.0348 80.9152 60.7763 81.1193 60.7355C81.3234 60.6811 81.5818 60.477 81.7043 60.2729C81.8675 59.9872 82.0308 59.9192 82.4797 59.892C82.8879 59.8784 83.1055 59.7968 83.2416 59.5927C83.3368 59.4295 83.5137 59.307 83.6089 59.307C83.7177 59.307 83.7993 59.239 83.7993 59.171C83.7993 59.0894 83.8946 59.0349 84.0034 59.0349C84.1122 59.0349 84.2619 58.9125 84.3435 58.7629C84.4251 58.6132 84.6156 58.4908 84.7788 58.4908C85.2142 58.4908 85.9352 57.9874 86.1393 57.5385C86.2617 57.2392 86.3842 57.1576 86.5474 57.212C86.6834 57.2528 86.7923 57.2256 86.7923 57.144C86.7923 57.0759 86.9147 56.9671 87.0644 56.9263C87.214 56.8855 87.3365 56.763 87.3365 56.6542C87.3365 56.559 87.4725 56.4501 87.6221 56.4093C87.8126 56.3549 87.8942 56.2597 87.8398 56.1236C87.7854 55.9876 87.8806 55.8924 88.1663 55.8379C88.384 55.7835 88.5608 55.6883 88.5608 55.6203C88.5608 55.5523 88.6561 55.4978 88.7649 55.4978C88.8873 55.4978 89.0914 55.321 89.2138 55.0897C89.3363 54.872 89.5267 54.6816 89.622 54.6816C89.8396 54.6816 90.5743 53.9742 90.6287 53.7157C90.6559 53.6204 90.8872 53.43 91.1593 53.2939C91.4994 53.1171 91.717 52.8722 91.8667 52.5049C92.0571 52.0287 92.0435 51.9471 91.8259 51.5798C91.6354 51.2669 91.6082 51.1445 91.7442 51.1037C91.8667 51.0492 91.9075 50.7636 91.9075 50.1922C91.8939 49.5256 91.8259 49.3079 91.6218 49.1582C91.4858 49.0494 91.4313 48.9678 91.513 48.9678C91.717 48.9678 91.8531 48.3964 91.6898 48.2332C91.6082 48.1515 91.5538 47.9611 91.5538 47.7842C91.5538 47.6074 91.4994 47.4713 91.4313 47.4713C91.3633 47.4713 91.3361 47.3489 91.3769 47.1992C91.4313 46.9816 91.3769 46.9271 91.1457 46.9271C90.9144 46.9271 90.8736 46.8863 90.9824 46.7503C91.2001 46.4782 91.0776 45.7572 90.7239 45.2402C90.5471 44.9681 90.343 44.7505 90.275 44.7505C90.2206 44.7505 90.1934 44.6552 90.2342 44.5464C90.3974 44.1655 90.0981 44.2199 89.6492 44.6824ZM91.1457 48.6957C91.1457 48.7637 91.1184 48.8317 91.0912 48.8317C91.0504 48.8317 90.9824 48.7637 90.9416 48.6957C90.9008 48.6141 90.928 48.5597 90.996 48.5597C91.0776 48.5597 91.1457 48.6141 91.1457 48.6957ZM91.2817 49.3759C91.2817 49.4439 91.2137 49.512 91.132 49.512C91.064 49.512 91.0368 49.4439 91.0776 49.3759C91.1184 49.2943 91.1865 49.2399 91.2273 49.2399C91.2545 49.2399 91.2817 49.2943 91.2817 49.3759ZM73.909 61.0212C73.9498 61.062 73.9498 61.198 73.909 61.3069C73.841 61.4701 73.8138 61.4701 73.7186 61.3205C73.5145 61.0076 73.6642 60.7763 73.909 61.0212ZM74.6845 61.0756C74.6845 61.1436 74.6165 61.2116 74.5348 61.2116C74.4668 61.2116 74.4396 61.1436 74.4804 61.0756C74.5212 60.994 74.5892 60.9395 74.6301 60.9395C74.6573 60.9395 74.6845 60.994 74.6845 61.0756ZM69.406 62.368C69.6509 62.3816 69.991 62.3272 70.1543 62.2184C70.3991 62.0687 70.4672 62.0687 70.6032 62.232C70.6984 62.3408 70.8209 62.4088 70.8753 62.368C70.9433 62.3272 71.0385 62.368 71.0793 62.4496C71.1338 62.5176 71.2562 62.5585 71.365 62.5176C71.4739 62.4768 71.5555 62.504 71.5555 62.5585C71.5555 62.6265 71.7187 62.6673 71.9364 62.6401C72.399 62.5857 72.6438 62.7761 72.6438 63.1979C72.6438 63.7284 73.2968 64.0413 74.1675 63.9325C74.8613 63.8373 74.9021 63.8509 75.3511 64.2998C75.664 64.6263 75.8272 64.9256 75.8544 65.2521C75.8817 65.5242 75.9225 65.7691 75.9633 65.7963C75.9905 65.8371 75.8136 66.0412 75.5551 66.2724C75.2967 66.5037 75.0518 66.8302 75.011 67.0071C74.9702 67.1839 74.8749 67.3063 74.8205 67.2655C74.7525 67.2247 74.426 67.1703 74.0723 67.1431C73.6233 67.0887 73.4193 67.1295 73.3785 67.2655C73.3104 67.4288 73.2424 67.4288 72.9839 67.2519C72.6846 67.0615 72.1949 66.9935 70.3039 66.9118C70.0182 66.8982 69.7869 66.8438 69.7869 66.7894C69.7869 66.6942 68.9435 66.3404 68.6986 66.3404C68.6578 66.3404 68.5489 66.2452 68.4401 66.15C68.3449 66.0412 68.168 65.9867 68.0728 66.0275C67.964 66.0684 67.8823 66.0139 67.8823 65.9187C67.8823 65.8235 67.7055 65.6058 67.5014 65.4426C67.1477 65.1705 67.1205 65.0889 67.1477 64.3678C67.2293 62.5585 67.379 62.1231 67.8823 62.2592C68.0456 62.3 68.1816 62.2456 68.236 62.1231C68.3041 61.9191 68.3449 61.9191 68.6442 62.1095C68.821 62.232 69.1611 62.3408 69.406 62.368Z"
          fill="white"/>
    <path d="M52.1014 45.3219C51.462 45.5396 50.8498 45.8116 50.741 45.9069C50.6321 46.0021 50.3601 46.1382 50.1288 46.1926C49.435 46.3558 48.4282 46.8184 48.4282 46.9816C48.4282 47.0768 48.3874 47.0632 48.3194 46.9544C48.2242 46.832 48.129 46.8456 47.8841 47.0632C47.7072 47.2129 47.4623 47.3353 47.3263 47.3353C47.1903 47.3353 47.0406 47.4033 46.9998 47.4714C46.9454 47.553 46.8365 47.6074 46.7549 47.5938C46.442 47.553 45.7074 47.7843 45.5577 47.9611C45.4761 48.07 45.3537 48.1108 45.2857 48.07C45.2176 48.0427 45.0272 48.0972 44.8639 48.206C44.6735 48.3148 44.2925 48.3829 43.9388 48.3693C43.245 48.3284 42.9593 48.3965 43.0682 48.5733C43.109 48.6413 43.0682 48.6958 43.0001 48.6958C42.9185 48.6958 42.8505 48.6413 42.8505 48.5597C42.8505 48.4101 42.1023 48.5189 41.6941 48.7366C41.5445 48.8182 41.1908 48.859 40.9051 48.8454C40.6194 48.8318 40.3065 48.8862 40.1977 48.9678C40.0888 49.0495 39.9528 49.0903 39.8712 49.0495C39.6807 48.927 39.2998 49.1175 39.4086 49.2807C39.463 49.376 39.2454 49.3896 38.7284 49.3352C38.2931 49.2943 37.953 49.3079 37.953 49.376C37.953 49.444 37.7625 49.4712 37.5448 49.444C37.2591 49.4032 37.0959 49.4576 37.0415 49.5936C36.987 49.7433 36.851 49.7841 36.5789 49.7297C36.3613 49.6889 36.1844 49.7025 36.1844 49.7705C36.1844 49.8249 35.8715 49.8793 35.477 49.8793C35.0824 49.8657 34.7559 49.9337 34.7287 50.0154C34.7015 50.097 34.5247 50.1378 34.3342 50.1106C34.1574 50.0834 34.0077 50.1106 34.0077 50.1786C34.0077 50.3283 33.4227 50.3011 33.3003 50.1242C33.2323 50.0426 33.1506 50.0562 33.069 50.165C33.0146 50.2739 32.9194 50.3419 32.865 50.3419C32.8241 50.3283 32.7425 50.3419 32.6881 50.3419C32.6201 50.3555 32.484 50.3555 32.348 50.3419C32.2256 50.3283 32.0895 50.3827 32.0487 50.4507C31.9943 50.5323 31.8582 50.5459 31.7358 50.5051C31.5453 50.4371 31.5317 50.4915 31.5998 50.8724C31.6542 51.1173 31.695 51.4438 31.695 51.6071C31.7086 52.056 32.0487 52.4233 32.3344 52.3009C32.7561 52.124 33.0554 52.0968 33.0554 52.2329C33.0554 52.3281 33.1506 52.3281 33.3275 52.2329C33.4771 52.1512 33.5996 52.0016 33.5996 51.8928C33.5996 51.7567 33.7356 51.6887 34.0213 51.6887C34.2798 51.6887 34.5519 51.5799 34.6879 51.4166C34.824 51.2534 34.9736 51.1853 35.0008 51.2398C35.1369 51.4574 36.7558 51.3486 36.919 51.1173C37.0279 50.9677 37.2047 50.9269 37.4496 50.9677C37.6537 51.0085 37.8169 50.9813 37.8169 50.8996C37.8169 50.8316 38.0754 50.7908 38.4019 50.8044C38.7148 50.8316 39.0685 50.7636 39.1773 50.682C39.2862 50.5867 39.4494 50.5323 39.5174 50.5459C39.9664 50.6276 40.2657 50.7908 40.2657 50.9541C40.2657 51.0493 40.4833 51.2398 40.7418 51.3622C41.0003 51.4846 41.1908 51.6343 41.15 51.6887C41.1091 51.7567 41.1636 51.8656 41.286 51.92C41.3948 51.988 41.5037 52.1921 41.5445 52.3689C41.5717 52.5594 41.6669 52.6954 41.7485 52.6818C41.8302 52.6546 41.9118 52.709 41.9118 52.777C41.939 52.9267 41.9798 53.1171 42.0342 53.2804C42.0478 53.3484 42.0614 53.4436 42.0478 53.4981C42.0342 53.5661 42.1839 53.7974 42.3743 54.0286C42.5648 54.2463 42.7145 54.4912 42.7145 54.5592C42.7145 54.6408 42.7689 54.668 42.8369 54.6136C42.9049 54.5728 43.0137 54.6136 43.0682 54.6952C43.109 54.7769 43.0818 54.8993 42.9865 54.9537C42.8641 55.0353 42.8913 55.0762 43.0818 55.1442C43.2314 55.185 43.4219 55.4435 43.5307 55.702C43.6259 55.9468 43.7756 56.1509 43.8572 56.1373C43.9388 56.1237 44.0205 56.2461 44.0477 56.4094C44.0885 56.6951 44.1021 56.6951 44.7279 56.491C45.6394 56.1917 45.789 56.0149 45.7618 55.3346C45.7482 55.0081 45.721 54.7361 45.7074 54.7088C45.6122 54.6136 45.653 54.3279 45.7618 54.2463C45.8434 54.1919 45.8026 54.015 45.6666 53.811C45.5441 53.6205 45.4353 53.294 45.4353 53.0763C45.4353 52.8587 45.3401 52.6002 45.2312 52.505C45.1088 52.3961 45.0544 52.2329 45.0952 52.1104C45.2721 51.6751 45.2857 51.3622 45.1496 51.1853C45.0408 51.0629 45.0408 51.0085 45.1496 51.0085C45.2312 51.0085 45.2993 50.886 45.2993 50.7364C45.2993 50.5867 45.3673 50.4643 45.4489 50.4643C45.5169 50.4643 45.5441 50.3963 45.4897 50.3147C45.4353 50.2194 45.4897 50.1922 45.6802 50.2466C45.9931 50.3555 47.4759 49.4984 47.4759 49.2263C47.4759 49.1447 47.5576 49.1039 47.6664 49.1447C47.7752 49.1855 47.9793 49.1039 48.129 48.9542C48.2922 48.8182 48.5099 48.6958 48.6323 48.6958C48.7411 48.6958 48.9452 48.6413 49.0813 48.5733C49.2037 48.5053 49.5574 48.342 49.8567 48.2196C50.6185 47.8931 51.6116 47.417 51.6933 47.3353C51.7341 47.2945 51.9109 47.2401 52.1014 47.2129C52.2919 47.1993 52.6048 47.0904 52.8224 46.9816C53.0265 46.8728 53.1897 46.8184 53.1897 46.8592C53.1897 46.9136 53.4346 46.8048 53.7339 46.6415C54.0332 46.4647 54.2781 46.2878 54.2781 46.2334C54.2781 46.1654 54.0468 45.8797 53.7611 45.5668C53.4618 45.2675 53.2578 44.9954 53.2986 44.9546C53.3938 44.8593 53.3938 44.8593 52.1014 45.3219ZM37.5448 50.3283C37.5448 50.3963 37.4904 50.4643 37.4088 50.4643C37.3408 50.4643 37.2727 50.3963 37.2727 50.3283C37.2727 50.2466 37.3408 50.1922 37.4088 50.1922C37.4904 50.1922 37.5448 50.2466 37.5448 50.3283ZM36.8238 50.6548C36.8238 50.7636 36.7422 50.818 36.6333 50.7772C36.5381 50.7364 36.4565 50.6548 36.4565 50.5867C36.4565 50.5187 36.5381 50.4643 36.6333 50.4643C36.7422 50.4643 36.8238 50.5459 36.8238 50.6548ZM43.7212 52.1921C43.7076 52.5866 43.7484 52.8859 43.8028 52.8451C43.8572 52.8042 43.9388 52.8723 43.9933 52.9811C44.0341 53.1035 43.9524 53.2396 43.7756 53.3348C43.5987 53.43 43.5307 53.43 43.5851 53.3484C43.6259 53.2668 43.5987 53.158 43.5171 53.1171C43.4491 53.0627 43.4083 52.9403 43.4491 52.8451C43.4899 52.7362 43.3947 52.6138 43.245 52.573C43.109 52.5186 42.9729 52.3689 42.9729 52.2193C42.9593 52.0832 42.9457 51.8792 42.9321 51.7839C42.9049 51.5527 43.1362 51.403 43.4627 51.4438C43.694 51.4846 43.7348 51.5799 43.7212 52.1921Z"
          fill="white"/>
</svg>
