<svg width="92" height="114" viewBox="0 0 92 114" fill="none" xmlns="http://www.w3.org/2000/svg">
    <path d="M18.6561 0.0941409C18.6561 0.174827 18.7366 0.303924 18.817 0.352336C18.9296 0.416885 18.8331 0.610531 18.6079 0.852589C18.1896 1.27216 17.9644 2.04674 18.0931 2.67609C18.1414 2.90201 18.0449 3.20862 17.8518 3.45068C17.691 3.66046 17.5944 3.95093 17.6427 4.08003C17.691 4.20912 17.6427 4.30595 17.5462 4.30595C17.4497 4.30595 17.3692 4.51573 17.3692 4.79006C17.3692 5.04826 17.3049 5.27418 17.2245 5.27418C16.9671 5.27418 16.5488 6.41992 16.5971 7.00086C16.6293 7.37201 16.5649 7.61407 16.4362 7.66248C16.3397 7.69476 16.2432 7.85613 16.2432 8.03364C16.2432 8.19501 16.1788 8.34024 16.0984 8.34024C15.8732 8.34024 15.7445 9.51826 15.9697 9.66349C16.0984 9.74418 16.0662 9.79259 15.8732 9.79259C15.7123 9.79259 15.6158 9.85714 15.6802 9.93782C15.7284 10.0185 15.6962 10.1315 15.6158 10.196C15.5193 10.2444 15.4067 10.6317 15.3584 11.0513C15.3102 11.4709 15.1976 12.0679 15.101 12.3745C15.0206 12.6811 14.9241 13.1491 14.908 13.4235C14.8919 13.6817 14.8276 13.9398 14.7632 13.9883C14.5863 14.1335 14.345 16.2475 14.5059 16.3443C14.5863 16.3927 14.538 16.5702 14.3932 16.7316C14.2485 16.893 14.0876 17.3125 14.0554 17.6514C13.9428 18.5228 13.9107 18.7326 13.7981 18.9101C13.7498 19.0069 13.7176 19.249 13.7337 19.4749C13.7659 19.7008 13.6694 20.0558 13.5407 20.2656C13.2672 20.7336 13.2189 22.0407 13.4924 22.2021C13.6372 22.2989 13.6211 22.3796 13.4281 22.541C13.2833 22.6539 13.2029 22.8476 13.2511 22.9767C13.2994 23.0896 13.2833 23.1865 13.2029 23.1865C13.1224 23.1865 13.0581 23.4769 13.0581 23.8319C13.0581 24.187 13.1063 24.4774 13.2029 24.4774C13.2833 24.4774 13.2189 24.6065 13.042 24.784C12.672 25.1552 12.4629 26.4462 12.6881 26.8819C12.8168 27.1078 12.8168 27.2369 12.6881 27.3014C12.5916 27.366 12.5594 27.5112 12.6077 27.6403C12.6559 27.7694 12.6237 27.8662 12.5272 27.8662C12.4468 27.8662 12.3985 28.1728 12.4468 28.5924C12.479 28.9958 12.4468 29.3186 12.3825 29.3186C12.2377 29.3186 12.0768 29.6736 11.8999 30.3998C11.8033 30.7709 11.8516 31.0453 12.0768 31.4003C12.2377 31.6746 12.302 31.9005 12.2216 31.9005C11.9964 31.9005 11.6907 32.6913 11.7229 33.1431C11.7229 33.3529 11.6586 33.5143 11.5781 33.5143C11.4816 33.5143 11.4173 33.6595 11.4173 33.837C11.4173 34.0145 11.4977 34.1597 11.5781 34.1597C11.6746 34.1597 11.6264 34.3373 11.4816 34.5632C11.3529 34.773 11.2725 35.0311 11.3368 35.128C11.4012 35.2248 11.369 35.3862 11.2886 35.4991C11.0634 35.7896 11.0634 36.9031 11.2886 36.9031C11.4012 36.9031 11.3368 37.016 11.1599 37.1451C10.999 37.2742 10.9347 37.3872 11.0151 37.3872C11.1116 37.3872 11.0955 37.4517 10.9829 37.5163C10.7738 37.6454 10.6934 38.5329 10.8221 39.1139C10.8703 39.3075 10.806 39.6948 10.6612 39.9691C10.5325 40.2435 10.4682 40.5662 10.5164 40.6953C10.5647 40.8244 10.5325 40.9696 10.436 41.0342C10.3395 41.0987 10.3395 41.2117 10.4682 41.3731C10.629 41.5667 10.629 41.6313 10.436 41.7604C10.3073 41.841 10.2751 41.9056 10.3556 41.9056C10.436 41.9056 10.4199 42.0024 10.3395 42.0992C10.0338 42.4865 9.96949 43.4225 10.1947 43.8743C10.3395 44.1648 10.3717 44.3262 10.259 44.3584C10.0821 44.423 9.96949 44.9232 9.92123 45.9722C9.90515 46.311 9.82472 46.5854 9.74428 46.5854C9.66385 46.5854 9.64777 46.6338 9.69602 46.6983C9.76037 46.7467 9.7282 46.892 9.63168 47.0211C9.51907 47.134 9.42256 47.9086 9.39038 48.7316C9.27778 52.0397 9.16517 53.5405 9.05257 53.7341C8.95605 53.8955 8.84345 55.1704 8.84345 56.2354C8.84345 56.4452 8.74693 56.7679 8.65041 56.9616C8.19999 57.7362 8.08739 58.4301 8.32868 58.8174C8.50563 59.0917 8.52172 59.2208 8.37694 59.3983C8.26434 59.5274 8.19999 59.6888 8.21608 59.7533C8.23216 59.834 8.21608 59.9308 8.19999 59.9792C8.05521 60.302 8.10347 61.1411 8.28042 61.2218C8.45737 61.2702 8.44129 61.367 8.23216 61.6091C7.83001 62.0771 7.58871 63.0453 7.74957 63.594C7.83001 63.8844 7.81392 64.1104 7.7174 64.1749C7.46002 64.3363 7.34741 65.95 7.58871 65.95C7.7174 65.9661 7.66914 66.063 7.49219 66.1921C7.31524 66.3212 7.23481 66.4341 7.31524 66.4341C7.39567 66.4341 7.37959 66.5148 7.26698 66.6278C7.04177 66.8537 7.0096 68.0317 7.23481 68.3706C7.31524 68.4997 7.31524 68.6772 7.2509 68.774C7.17046 68.8547 7.02569 69.3549 6.91308 69.8713C6.7683 70.5975 6.7683 70.8557 6.91308 71.0332C7.02569 71.1623 7.04177 71.2753 6.96134 71.2753C6.70396 71.2753 6.4144 72.0499 6.62353 72.1144C6.73613 72.1628 6.75222 72.2758 6.67179 72.4049C6.46266 72.7438 6.44658 73.599 6.63961 73.7281C6.78439 73.8249 6.78439 73.8572 6.63961 73.8572C6.25354 73.8572 5.65834 75.5355 5.98007 75.7291C6.0605 75.7775 6.09268 75.9228 6.04442 76.0519C5.99616 76.1648 6.04442 76.3101 6.14094 76.3746C6.25354 76.4553 6.25354 76.5199 6.12485 76.5844C5.89964 76.7296 5.73878 78.3756 5.9479 78.3756C6.02833 78.3756 5.9479 78.5693 5.73878 78.7952C5.25618 79.3439 5.11141 80.1184 5.38488 80.6671C5.54574 81.006 5.56183 81.1512 5.41705 81.2319C5.22401 81.361 5.17575 81.5869 5.11141 82.7649C5.07923 83.1038 4.9988 83.3782 4.91837 83.3782C4.83794 83.3782 4.82185 83.4266 4.87011 83.4911C4.93446 83.5395 4.90228 83.6848 4.82185 83.7816C4.66099 83.9752 4.45187 85.2017 4.25883 86.8477C4.22666 87.2027 4.09797 87.8643 3.96927 88.3323C3.80841 88.8971 3.77624 89.3651 3.85667 89.7523C3.95319 90.2042 3.9371 90.3656 3.76015 90.4301C3.63146 90.4785 3.56711 90.5592 3.59929 90.6238C3.63146 90.6722 3.59929 91.0433 3.51886 91.4468C3.43842 91.8502 3.34191 92.4473 3.29365 92.7861C3.24539 93.1089 3.1167 93.593 2.97192 93.8673C2.68236 94.4321 2.65019 95.4972 2.92366 95.7715C3.06844 95.9168 3.06844 95.9652 2.92366 95.9652C2.65019 95.9652 2.39281 96.6752 2.29629 97.6596C2.24803 98.0953 2.15151 98.5148 2.05499 98.5633C1.8137 98.7246 1.65284 99.709 1.79761 100.242C1.86196 100.532 1.86196 100.742 1.76544 100.774C1.66892 100.806 1.60458 100.968 1.60458 101.129C1.60458 101.29 1.52414 101.484 1.44371 101.532C1.29894 101.629 1.33111 102.372 1.50806 102.533C1.54023 102.581 1.42763 102.791 1.23459 103.001C0.800257 103.501 0.65548 104.114 0.83243 104.76C0.928948 105.115 0.896776 105.26 0.719825 105.357C0.591134 105.438 0.446357 105.744 0.382012 106.051C0.333752 106.358 0.221148 106.616 0.140716 106.616C-0.020148 106.616 -0.0523207 107.116 0.0924567 107.487C0.140716 107.616 0.430271 107.81 0.735912 107.907C1.36328 108.116 1.76544 107.923 1.76544 107.406C1.76544 107.245 1.82979 107.084 1.91022 107.035C2.08717 106.922 2.31238 105.857 2.26412 105.341C2.23195 105.099 2.2802 105.002 2.4089 105.083C2.53759 105.163 2.56976 105.034 2.50541 104.631C2.44107 104.179 2.47324 104.001 2.69845 103.889C2.92366 103.743 2.92366 103.695 2.74671 103.566C2.60193 103.469 2.58585 103.388 2.71454 103.324C2.81105 103.259 2.85931 103.13 2.81105 103.049C2.74671 102.969 2.77888 102.904 2.85931 102.904C3.05235 102.904 3.37408 101.258 3.27756 100.742C3.24539 100.516 3.27756 100.322 3.35799 100.322C3.43842 100.322 3.48668 100.129 3.45451 99.9026C3.43842 99.6767 3.50277 99.4024 3.59929 99.3056C3.69581 99.1926 3.79232 98.9344 3.80841 98.7085C3.84058 98.0469 3.9371 97.6596 4.08188 97.5627C4.14622 97.4982 4.22666 97.0464 4.24274 96.5461C4.24274 96.0459 4.30709 95.6424 4.38752 95.6424C4.45187 95.6424 4.50012 95.4004 4.50012 95.0938C4.50012 94.7872 4.58056 94.4805 4.66099 94.4321C4.75751 94.3837 4.82185 94.2546 4.82185 94.1739C4.82185 94.0771 4.75751 94.061 4.66099 94.1094C4.41969 94.2546 4.46795 93.9803 4.75751 93.5769C4.8862 93.3832 5.01489 92.9152 5.03098 92.5279C5.04706 92.1568 5.12749 91.8018 5.19184 91.7534C5.25618 91.7049 5.32053 91.237 5.32053 90.7206C5.33662 90.2042 5.40096 89.6555 5.48139 89.5264C5.67443 89.1391 6.09268 86.5895 6.02833 86.0731C5.99616 85.831 6.02833 85.6374 6.10876 85.6374C6.17311 85.6374 6.23745 85.476 6.23745 85.2662C6.23745 84.766 6.31789 84.4432 6.51092 84.298C6.60744 84.2012 6.59135 84.1366 6.46266 84.0721C6.3018 84.0075 6.3018 83.9107 6.51092 83.5879C6.6557 83.362 6.80048 82.9102 6.83265 82.5713C6.84874 82.2324 6.91308 81.8774 6.97743 81.7967C7.04177 81.6999 7.04177 81.4417 6.97743 81.2319C6.92917 81.006 6.96134 80.7801 7.05786 80.7155C7.17046 80.651 7.18655 80.5219 7.07395 80.3282C6.97743 80.1184 6.99351 79.9409 7.15438 79.7312C7.42785 79.3761 7.46002 79.1179 7.23481 79.2632C6.99351 79.4084 7.04177 79.0857 7.28307 78.8275C7.58871 78.537 7.74957 77.3913 7.52436 77.1331C7.41176 76.9878 7.41176 76.9233 7.54045 76.9233C7.65306 76.9233 7.66914 76.7458 7.6048 76.4069C7.54045 76.068 7.55654 75.9389 7.68523 76.0196C7.79783 76.0842 7.83001 75.9551 7.76566 75.5678C7.7174 75.2612 7.74957 74.9868 7.86218 74.9223C7.9587 74.8577 8.03913 74.7286 8.03913 74.6479C8.03913 74.5511 7.94261 74.535 7.84609 74.6157C7.73349 74.6802 7.76566 74.535 7.92652 74.2929C8.08739 74.0509 8.23216 73.5183 8.26434 73.131C8.28042 72.7276 8.34477 72.3565 8.40911 72.2919C8.47346 72.2435 8.47346 71.9369 8.4252 71.6464C8.36086 71.3075 8.39303 71.1139 8.48955 71.1139C8.58606 71.1139 8.6665 70.9203 8.68258 70.6621C8.73084 68.8063 8.76301 68.2092 8.85953 68.2092C8.92388 68.2092 8.93996 67.9671 8.92388 67.6767C8.90779 67.4023 8.97214 67.1119 9.06866 67.0312C9.19735 66.9505 9.19735 66.886 9.06866 66.7891C8.85953 66.6439 8.84345 66.1114 9.05257 66.1114C9.133 66.1114 9.14909 65.9984 9.10083 65.8532C9.05257 65.7079 9.05257 65.5143 9.11692 65.4175C9.18126 65.3045 9.24561 64.9656 9.24561 64.659C9.26169 64.3363 9.30995 64.0135 9.3743 63.9167C9.42256 63.8199 9.4869 63.481 9.51907 63.1583C9.53516 62.8194 9.59951 62.5612 9.66385 62.5612C9.71211 62.5612 9.76037 62.3675 9.77646 62.1093C9.79254 61.3509 9.95341 59.9631 10.0499 59.8017C10.1143 59.721 10.0982 59.5597 10.0178 59.4467C9.8408 59.1724 9.79254 58.6883 9.93732 58.6883C10.0017 58.6883 10.066 58.4946 10.066 58.2364C10.0982 57.6555 10.2751 56.8809 10.436 56.6711C10.6612 56.3806 10.7577 55.3479 10.5647 55.1542C10.436 55.0251 10.436 54.9767 10.5647 54.9767C10.6934 54.9767 10.7256 54.5894 10.7095 53.8471C10.6773 53.2339 10.7256 52.7659 10.806 52.8143C10.8703 52.8627 10.9508 52.5884 10.9668 52.2011C10.9668 51.8138 10.999 51.3297 11.0312 51.1038C11.1277 50.1356 11.1277 49.3771 11.0312 48.9575C10.9668 48.6993 10.9829 48.538 11.0634 48.5864C11.1438 48.6348 11.2242 48.4089 11.2242 48.07C11.2725 46.8274 11.2886 46.6661 11.4173 46.5854C11.4977 46.537 11.5781 46.1658 11.6103 45.7785C11.6425 45.3751 11.7229 45.0039 11.8033 44.9555C11.8838 44.891 11.8677 44.6328 11.7712 44.3423C11.6746 44.068 11.6586 43.8421 11.7229 43.8421C11.8033 43.8421 11.8677 43.6 11.8838 43.3095C11.8838 43.0352 11.8999 42.6156 11.9159 42.3897C11.9159 42.1638 11.9964 41.9056 12.0768 41.8088C12.1572 41.7119 12.2377 41.0987 12.2698 40.4694C12.2859 39.84 12.3664 39.3236 12.4307 39.3236C12.5111 39.3236 12.5272 39.0009 12.4951 38.5975C12.4468 38.1618 12.479 37.8713 12.5755 37.8713C12.672 37.8713 12.6881 37.7583 12.6398 37.6131C12.5755 37.4679 12.6077 37.2581 12.6881 37.1613C12.8329 36.9676 13.0259 35.9187 13.0903 34.9666C13.1063 34.66 13.1868 34.2727 13.2511 34.1113C13.3315 33.95 13.3476 33.7724 13.2833 33.724C13.235 33.6756 13.2672 33.5304 13.3637 33.4174C13.4602 33.3045 13.5407 32.8204 13.5568 32.3524C13.5728 31.8844 13.6694 31.4487 13.7498 31.368C13.8624 31.2873 13.8624 31.2066 13.7498 31.126C13.4763 30.9323 13.4763 30.5773 13.7659 30.2707C13.9428 30.077 13.975 29.9641 13.8463 29.9641C13.7015 29.9641 13.7015 29.8834 13.8624 29.5929C13.9589 29.3993 14.0715 29.1249 14.0876 28.9958C14.1037 28.8667 14.2002 28.4795 14.2806 28.1406C14.3772 27.8178 14.3772 27.5112 14.3128 27.4628C14.2485 27.4305 14.2002 27.2046 14.2002 26.9787C14.2002 26.7689 14.2485 26.6075 14.3128 26.6559C14.3772 26.7044 14.4093 26.4946 14.3932 26.2041C14.3772 25.9298 14.4415 25.6232 14.538 25.5586C14.6667 25.4618 14.6506 25.3972 14.5059 25.3327C14.345 25.2682 14.345 25.1713 14.5541 24.8647C14.6989 24.6388 14.7632 24.3967 14.715 24.2999C14.6506 24.2192 14.6828 24.0579 14.7632 23.9449C14.9563 23.6867 15.1332 22.7669 15.0045 22.6378C14.8437 22.4764 14.8115 22.0569 14.9402 22.0569C15.0206 22.0569 15.0689 21.8309 15.085 21.5566C15.085 21.2661 15.1815 20.9595 15.2619 20.8788C15.4871 20.6529 15.4871 20.3947 15.278 20.5238C15.0689 20.6529 15.0689 20.6529 15.4389 19.604C15.6158 19.1037 15.7123 18.5712 15.6641 18.4421C15.6158 18.2969 15.6319 18.1839 15.7284 18.1839C15.8088 18.1839 15.8893 17.8289 15.8893 17.3932C15.8893 16.9736 15.9697 16.4734 16.0662 16.2797C16.1627 16.1022 16.2432 15.7472 16.2432 15.5213C16.2432 15.2954 16.3236 14.9565 16.404 14.779C16.5327 14.5531 16.5166 14.4724 16.3719 14.4724C16.2271 14.4724 16.211 14.424 16.3397 14.3433C16.5327 14.2142 16.7901 13.1814 16.7901 12.5036C16.774 12.2616 16.8384 12.1002 16.9188 12.1486C16.9992 12.197 17.0314 12.0357 16.9992 11.7775C16.9671 11.5354 16.9992 11.2288 17.0958 11.1158C17.1762 11.019 17.1923 10.9222 17.1118 10.9222C17.0314 10.9222 17.0797 10.8415 17.2084 10.7447C17.3853 10.6156 17.4014 10.551 17.2405 10.4865C17.0958 10.4219 17.0958 10.3251 17.2727 9.98624C17.5944 9.37302 17.7392 8.93732 17.707 8.69526C17.691 8.59844 17.7553 8.50162 17.8518 8.50162C17.9323 8.50162 18.0127 8.24342 18.0127 7.92068C18.0127 7.53338 18.077 7.38815 18.1896 7.46884C18.3183 7.54952 18.3505 7.4527 18.3022 7.14609C18.254 6.92017 18.2701 6.72652 18.3183 6.72652C18.3666 6.72652 18.4953 6.54902 18.5918 6.32309C18.7366 6.03263 18.7366 5.91967 18.5918 5.85512C18.4792 5.8067 18.5114 5.69374 18.6883 5.54851C18.9296 5.35486 19.5891 4.06389 19.4444 4.06389C19.4283 4.06389 19.4765 3.93479 19.5731 3.77342C19.7178 3.49909 19.7661 3.53136 20.0235 4.09616C20.1843 4.43504 20.4256 4.77392 20.5543 4.85461C20.7474 4.96757 20.7474 5.01598 20.5704 5.12894C20.4096 5.22577 20.4417 5.32259 20.7313 5.58078C20.9565 5.77443 21.0691 6.03263 21.0369 6.27468C21.0048 6.5006 21.0691 6.6297 21.1978 6.59743C21.3104 6.58129 21.3908 6.74266 21.3908 7.01699C21.3908 7.25905 21.4552 7.53338 21.5195 7.61407C21.5999 7.71089 21.7608 8.03364 21.8734 8.34024C21.986 8.64685 22.1951 9.03414 22.3238 9.17938C22.4525 9.34075 22.5169 9.46985 22.4686 9.46985C22.4043 9.46985 22.5008 9.74418 22.6777 10.0669C22.8547 10.4058 22.9995 10.777 22.9995 10.8899C22.9995 11.0029 23.0638 11.0674 23.1442 11.019C23.2086 10.9706 23.2408 11.0997 23.2086 11.2933C23.1603 11.5193 23.2408 11.7613 23.3855 11.8743C23.5303 12.0034 23.6429 12.197 23.6429 12.31C23.6429 12.5843 23.9486 13.133 24.3507 13.6171C24.5759 13.8914 24.6081 13.9883 24.4472 13.9883C24.3025 13.9883 24.3507 14.1012 24.5759 14.311C24.769 14.5046 24.9459 14.7144 24.9459 14.7951C24.962 14.8919 24.9781 15.0533 24.9942 15.1501C25.0103 15.2631 25.1068 15.3438 25.2033 15.3276C25.2998 15.3115 25.4446 15.5213 25.4928 15.8118C25.5572 16.0861 25.702 16.5057 25.8146 16.7316C25.9272 16.9575 26.1524 17.4578 26.3133 17.8612C26.4741 18.2646 26.7476 18.6842 26.8924 18.7971C27.0532 18.9101 27.1819 19.136 27.1819 19.2974C27.1819 19.7976 27.8254 21.1048 28.0184 20.9918C28.1149 20.9272 28.1471 20.9434 28.0988 21.0402C27.9541 21.2661 28.4206 22.3796 28.6458 22.3796C28.7262 22.3796 28.7745 22.4441 28.7262 22.5248C28.678 22.6055 28.7423 22.7185 28.8871 22.7669C29.0158 22.8153 29.1123 22.9605 29.0801 23.0896C29.0479 23.2187 29.0962 23.3317 29.1766 23.3317C29.4179 23.3156 29.9005 24.187 29.7879 24.4452C29.7397 24.6065 29.7718 24.6549 29.8844 24.5743C30.0131 24.5097 30.0775 24.5581 30.0775 24.7356C30.0775 25.1229 30.5922 26.2525 30.7692 26.2525C30.8496 26.2525 30.8818 26.3493 30.8335 26.4784C30.7853 26.5914 30.8979 26.8173 31.0587 26.9626C31.2357 27.1078 31.3322 27.3014 31.2839 27.3821C31.2357 27.4628 31.3644 27.721 31.5896 27.9469C31.8309 28.1728 32.0078 28.5117 32.0078 28.6892C32.0078 28.8667 32.0883 28.9636 32.1687 28.9152C32.2652 28.8667 32.3456 28.9152 32.3456 29.0281C32.41 29.6897 32.7478 30.4321 33.0534 30.545C33.1821 30.6096 33.2947 30.7064 33.2947 30.8032C33.2947 30.8839 33.4073 31.0775 33.5521 31.2228C33.7291 31.3841 33.7612 31.4971 33.6326 31.5455C33.52 31.5778 33.536 31.6908 33.713 31.8521C33.8417 31.9812 34.0025 32.304 34.0508 32.5622C34.0991 32.8204 34.1956 32.9817 34.276 32.9333C34.3564 32.8849 34.4369 32.9495 34.4369 33.0624C34.4851 33.4981 34.5173 33.6111 34.8229 34.1113C34.9999 34.4018 35.2251 34.6439 35.3055 34.6439C35.4021 34.6439 35.4825 34.8052 35.4986 34.9989C35.5147 35.1925 35.6434 35.4184 35.7881 35.483C35.9168 35.5637 36.0294 35.8057 36.0294 36.0155C36.0294 36.2737 36.1259 36.4189 36.2868 36.4189C36.4477 36.4189 36.512 36.5158 36.4638 36.6449C36.3351 36.9676 36.8016 37.8713 37.075 37.8713C37.3163 37.8713 37.5255 38.307 37.3968 38.5329C37.3485 38.5975 37.445 38.7588 37.6381 38.8718C37.815 38.9848 37.9598 39.243 37.9598 39.4366C37.9598 39.6464 38.0563 39.8078 38.1689 39.8078C38.2815 39.8078 38.378 39.9691 38.3941 40.1628C38.4102 40.3564 38.5389 40.5823 38.6837 40.6469C38.8124 40.7276 38.925 40.8889 38.925 41.018C38.925 41.1471 39.0698 41.3408 39.2467 41.4537C39.4237 41.5667 39.5684 41.7442 39.5684 41.8572C39.5684 41.9701 39.681 42.067 39.8097 42.067C39.9384 42.067 40.0671 42.1315 40.0671 42.2283C40.0832 42.309 40.0993 42.4543 40.1154 42.5511C40.1154 42.6318 40.228 42.7931 40.3406 42.89C40.4371 43.0029 40.5336 43.2288 40.5336 43.3902C40.5336 43.5516 40.598 43.6807 40.6784 43.6807C40.7588 43.6807 40.9036 43.9066 41.0001 44.1648C41.0806 44.4391 41.2736 44.6973 41.4023 44.7457C41.5471 44.7941 41.6275 44.9071 41.5792 44.9717C41.531 45.0523 41.5792 45.1653 41.6597 45.2137C41.7562 45.2783 41.917 45.5042 41.9975 45.7301C42.0779 45.956 42.1905 46.1013 42.2388 46.0528C42.3996 45.8915 42.9144 46.4724 42.8179 46.7145C42.7696 46.8597 42.8018 46.9243 42.8983 46.8597C42.9787 46.8113 43.1718 47.0211 43.3326 47.3438C43.4774 47.6504 43.6383 47.8763 43.7026 47.8279C43.8152 47.6988 44.137 48.0216 44.2817 48.4089C44.3461 48.5541 44.4748 48.7155 44.5874 48.7478C44.7 48.78 45.0378 48.8769 45.3434 48.9737C45.7295 49.1028 45.9547 49.1028 46.0995 48.9898C46.2282 48.8769 46.3086 48.893 46.3569 49.006C46.3891 49.1028 46.8716 49.1835 47.4508 49.1996C48.0299 49.2157 48.5285 49.2803 48.5768 49.3448C48.7216 49.5062 50.1854 49.6514 50.1854 49.4901C50.1854 49.4094 50.4267 49.4417 50.7324 49.5708C51.0541 49.716 51.5045 49.7644 51.8745 49.6999C52.2928 49.6353 52.518 49.6676 52.6145 49.8289C52.711 49.9742 52.8075 49.9903 52.888 49.8935C53.0649 49.6514 53.4188 49.6192 53.6601 49.8289C53.7888 49.9419 53.9336 49.9742 53.9979 49.9258C54.0462 49.8612 54.2392 49.9096 54.4162 50.0065C54.5931 50.1033 55.0918 50.184 55.51 50.2001C55.9444 50.2162 56.3304 50.2808 56.3948 50.3292C56.443 50.3938 56.6683 50.3776 56.8774 50.2969C57.1026 50.2001 57.2634 50.2001 57.2634 50.2969C57.2634 50.3776 57.3921 50.4422 57.553 50.4422C58.2608 50.4744 58.5504 50.539 58.5504 50.6519C58.5504 50.7165 58.663 50.781 58.8077 50.781C58.9364 50.781 59.0008 50.7004 58.9525 50.6197C58.7917 50.3615 59.049 50.426 59.3708 50.7165C59.5316 50.8617 59.966 50.9908 60.3199 51.007C60.6738 51.007 60.9633 51.0715 60.9633 51.1361C60.9633 51.2006 61.1885 51.2167 61.4781 51.1522C61.8159 51.0877 61.9446 51.1038 61.8642 51.2329C61.7998 51.3458 61.9446 51.4104 62.2824 51.3943C63.0385 51.3943 63.6819 51.5234 63.9393 51.7493C64.0519 51.8461 64.5023 51.9591 64.9206 51.9913C65.3388 52.0236 65.7571 52.1366 65.8375 52.2173C65.9501 52.3302 66.1431 52.2818 66.4166 52.0882C66.6418 51.9268 67.0601 51.717 67.3174 51.6363C67.6713 51.5234 67.8161 51.362 67.8483 51.0554C67.8805 50.8133 67.9609 50.6197 68.0574 50.6197C68.2344 50.6197 68.6848 49.5708 68.717 49.0705C68.733 48.8769 68.8296 48.7155 68.91 48.7316C69.0065 48.7478 69.0709 48.6187 69.0709 48.4412C69.0709 48.2636 69.1995 48.0054 69.3604 47.8602C69.5213 47.715 69.6178 47.4891 69.5695 47.3438C69.5052 47.2147 69.5856 47.0049 69.7143 46.8597C69.8591 46.7145 69.9717 46.5047 69.9717 46.3595C69.9717 46.2304 70.036 46.0851 70.1165 46.0367C70.2934 45.9238 70.5025 45.0039 70.4704 44.5198C70.4382 44.3262 70.5025 44.1648 70.5991 44.1648C70.7117 44.1648 70.7438 43.9873 70.7117 43.7614C70.6634 43.5193 70.7438 43.245 70.9047 43.0836C71.0977 42.9061 71.1138 42.7931 70.9851 42.7609C70.8404 42.7125 70.8886 42.5834 71.1138 42.3413C71.2908 42.1476 71.3873 41.9056 71.3551 41.8088C71.3229 41.7119 71.3551 41.5506 71.4195 41.486C71.4999 41.4053 71.5964 41.1956 71.6286 41.018C71.6447 40.8405 71.7251 40.5985 71.8055 40.4855C71.8699 40.3726 71.886 40.2273 71.8377 40.1789C71.7894 40.1305 71.8055 40.0014 71.9021 39.9046C71.9825 39.7916 72.0629 39.4043 72.079 39.0332C72.1112 38.662 72.1755 38.3554 72.2399 38.3554C72.2881 38.3554 72.3525 38.1618 72.3525 37.9358C72.3525 37.7099 72.4168 37.371 72.5133 37.1774C72.8029 36.5642 72.9155 36.1769 72.8833 35.9671C72.8672 35.8703 72.9155 35.7735 72.9959 35.7735C73.189 35.7735 73.4142 34.8698 73.3659 34.305C73.3498 34.0791 73.4463 33.7886 73.5911 33.6756C73.7198 33.5627 73.8324 33.3045 73.8324 33.0947C73.8324 32.901 73.9129 32.6751 74.0094 32.6106C74.1059 32.5622 74.1541 32.3685 74.1059 32.2071C74.0576 32.0296 74.0737 31.9005 74.1381 31.9005C74.2989 31.9005 74.6689 30.8032 74.5724 30.6418C74.5241 30.5611 74.6367 30.3352 74.8137 30.1416C75.0067 29.9479 75.1032 29.6897 75.0711 29.5768C75.0228 29.4638 75.1193 29.1411 75.2802 28.8667C75.4571 28.5763 75.5215 28.3504 75.425 28.3181C75.3285 28.2858 75.4089 28.0922 75.5858 27.8824C75.7628 27.6726 75.8754 27.4467 75.8432 27.366C75.795 27.3014 75.8271 27.2046 75.9236 27.1401C76.0041 27.0917 76.0845 26.8657 76.0845 26.6398C76.0845 26.43 76.1649 26.2525 76.2615 26.2525C76.3419 26.2525 76.4062 26.1234 76.3902 25.9621C76.3419 25.4618 76.4062 25.2682 76.5671 25.365C76.6636 25.4295 76.728 25.2359 76.728 24.897C76.728 24.5904 76.8406 24.2192 76.9853 24.0901C77.1784 23.8965 77.1784 23.8319 77.0175 23.8319C76.8727 23.8158 76.8888 23.7674 77.0658 23.6706C77.4036 23.4769 77.9827 22.3635 77.9023 22.0891C77.854 21.9923 77.9023 21.8955 77.9988 21.8955C78.0953 21.8955 78.1757 21.6696 78.1757 21.4114C78.1757 21.0725 78.2562 20.9272 78.4331 20.9272C78.5618 20.9272 78.6262 20.8466 78.5779 20.7659C78.5136 20.6691 78.594 20.3947 78.7549 20.1527C78.9157 19.9106 79.0605 19.6201 79.0766 19.491C79.1088 19.3619 79.1731 19.2167 79.2535 19.1683C79.4466 19.0231 79.7683 18.4905 79.9613 17.9741C80.0578 17.7321 80.2026 17.5384 80.2831 17.5384C80.3635 17.5384 80.4278 17.3609 80.4278 17.135C80.4278 16.9091 80.5404 16.6832 80.6691 16.6348C80.7978 16.5702 80.9104 16.4411 80.9104 16.3282C80.9104 16.2152 81.1195 15.8924 81.3769 15.6181C81.6182 15.3599 81.8756 14.9081 81.94 14.6337C81.9882 14.3594 82.1008 14.1658 82.1652 14.2142C82.2456 14.2626 82.3904 14.0367 82.503 13.7301C82.6156 13.4235 82.7604 13.2137 82.8408 13.2621C82.9212 13.3105 83.0177 13.2137 83.0821 13.0362C83.1303 12.8587 83.2751 12.6811 83.4038 12.6327C83.5325 12.5843 83.6451 12.4391 83.6451 12.2939C83.6451 12.1648 83.7095 12.0518 83.806 12.0518C83.8864 12.0518 84.0794 11.8097 84.2403 11.5193C84.5138 11.0029 84.5459 10.9061 84.5942 10.5994C84.5942 10.5188 84.6907 10.4542 84.8033 10.4865C84.9159 10.5026 85.0125 10.4219 85.0285 10.309C85.0446 10.2122 85.0607 10.0508 85.0768 9.9701C85.0768 9.88941 85.2377 9.76032 85.4307 9.7119C85.6076 9.64736 85.7203 9.51826 85.6881 9.42143C85.6237 9.21165 85.9455 8.82436 86.2028 8.82436C86.2994 8.82436 86.3798 8.72754 86.3798 8.61458C86.3798 8.51775 86.6211 8.21115 86.9267 7.96909C87.2324 7.69476 87.5058 7.29133 87.5702 7.01699C87.6184 6.74266 87.715 6.56515 87.7793 6.6297C87.8437 6.69425 87.9723 6.53288 88.0689 6.25855C88.2941 5.58078 88.648 5.83898 88.7445 6.79107C88.7928 7.1945 88.8732 7.53338 88.9375 7.53338C88.9858 7.53338 89.0019 7.8884 88.9858 8.34024C88.9536 8.79208 88.9858 9.1471 89.0823 9.1471C89.1627 9.1471 89.2753 9.32461 89.3075 9.55053C89.3558 9.77645 89.3236 9.95396 89.2432 9.95396C89.1467 9.95396 89.1306 10.0831 89.1949 10.2283C89.3879 10.7447 89.4201 11.0836 89.2593 11.0836C89.1627 11.0836 89.1467 11.1643 89.2271 11.2772C89.3397 11.4547 89.404 12.2454 89.4362 13.7462C89.4523 13.9076 89.5166 14.1335 89.5971 14.2303C89.7258 14.3756 89.7418 14.5853 89.7418 15.8924C89.7418 16.1829 89.7901 16.5057 89.8545 16.6025C89.9188 16.6993 89.9671 17.2318 89.9671 17.7966C89.9671 18.3614 90.0153 18.8294 90.0636 18.8294C90.1279 18.8294 90.1762 18.9746 90.1923 19.1522C90.2084 19.3297 90.1279 19.4749 90.0314 19.4749C89.9027 19.4749 89.9027 19.5233 89.9992 19.604C90.2084 19.7492 90.2244 20.4915 89.9992 20.6368C89.8866 20.7336 89.8866 20.7982 89.9992 20.8788C90.144 20.9918 90.1923 21.3307 90.0797 21.4436C89.9671 21.5889 89.9831 22.8637 90.0957 22.8637C90.1923 22.8637 90.1762 23.0089 90.0797 23.2026C89.951 23.4446 89.951 23.5899 90.0797 23.7513C90.2244 23.9126 90.2244 24.0579 90.0797 24.3161C89.951 24.5743 89.951 24.7195 90.0797 24.8809C90.1923 25.01 90.1923 25.1391 90.0957 25.1875C89.9831 25.2682 89.9671 26.5591 90.0797 26.6882C90.1923 26.8173 90.144 27.1562 89.9992 27.253C89.8866 27.3498 89.9027 27.4144 90.0153 27.4951C90.2084 27.6403 90.1923 28.0922 89.9992 28.5763C89.9027 28.8022 89.9188 28.8506 90.0475 28.7699C90.2727 28.6247 90.2888 28.7538 90.0797 29.1411C89.9188 29.48 89.7579 31.2066 89.8866 31.3357C90.0314 31.4648 90.0636 31.9005 89.951 31.9005C89.8866 31.9005 89.8223 32.3524 89.7901 32.9172C89.7418 34.2404 89.6936 34.6923 89.581 34.8859C89.5327 34.9666 89.5006 35.4184 89.5166 35.8864C89.5327 36.3544 89.4845 36.6933 89.4201 36.661C89.3558 36.6126 89.3236 36.8708 89.3558 37.2258C89.3719 37.5808 89.3397 37.8713 89.2593 37.8713C89.1949 37.8713 89.1467 38.0649 89.1788 38.307C89.1949 38.5652 89.1627 38.8395 89.0823 38.9363C89.018 39.0332 88.9375 39.4205 88.9054 39.7916C88.8893 40.1466 88.8088 40.4532 88.7445 40.4532C88.6641 40.4532 88.6319 41.0019 88.6641 41.6474C88.7123 42.309 88.6801 42.8254 88.5997 42.777C88.5354 42.7286 88.4549 42.9545 88.4389 43.2611C88.4228 43.5839 88.3906 44.0357 88.3584 44.2778C88.3262 44.536 88.2941 45.2137 88.278 45.8108C88.2458 46.3917 88.1815 46.8436 88.1171 46.8113C88.0528 46.779 88.0045 47.0211 88.0045 47.3438C87.9884 48.538 87.9563 48.7639 87.8115 48.9575C87.715 49.0544 87.6345 49.6837 87.6184 50.3615C87.6024 51.0392 87.538 51.5879 87.4898 51.5879C87.4254 51.5879 87.3772 51.83 87.3772 52.1043C87.345 53.0725 87.2645 53.6051 87.1198 53.7019C87.0554 53.7664 86.975 54.3958 86.9589 55.1219C86.9589 55.832 86.9106 56.4291 86.8624 56.4291C86.8141 56.4291 86.782 56.6873 86.798 56.9939C86.8141 57.3005 86.7659 57.5587 86.6854 57.5587C86.605 57.5587 86.5407 57.6716 86.5407 57.8169C86.5407 57.946 86.6211 58.0105 86.7176 57.946C86.8463 57.8814 86.8463 57.946 86.7176 58.1719C86.5407 58.5108 86.3315 59.8663 86.3637 60.6247C86.3637 60.8506 86.3154 61.1411 86.2672 61.2702C86.1385 61.593 86.0098 62.8194 86.0259 63.5617C86.0259 63.9006 85.9615 64.1749 85.8972 64.1749C85.8329 64.1749 85.8007 64.4654 85.8489 64.8204C85.9133 65.24 85.8811 65.4659 85.7524 65.4659C85.6559 65.4659 85.5755 65.5466 85.5755 65.6434C85.5755 65.7241 85.6559 65.7564 85.7685 65.6918C85.8972 65.6111 85.9133 65.6595 85.8329 65.8855C85.5433 66.5632 85.3985 67.5153 85.4629 68.1608C85.495 68.5481 85.479 68.8547 85.3985 68.8547C85.3342 68.8547 85.3181 69.1452 85.3664 69.5002C85.4307 69.9197 85.3985 70.1457 85.2698 70.1457C85.1733 70.1457 85.0929 70.2264 85.0929 70.3232C85.0929 70.4039 85.1733 70.4361 85.2859 70.3716C85.4146 70.2909 85.4307 70.3393 85.3503 70.5652C85.0607 71.2269 84.9159 72.1951 84.9642 72.9213C84.9964 73.3247 84.9642 73.6313 84.8998 73.599C84.8355 73.5506 84.8033 73.8088 84.8516 74.1638C84.8838 74.535 84.8355 74.8577 84.7551 74.9061C84.6746 74.9707 84.6103 75.0836 84.6103 75.1643C84.6103 75.2612 84.6907 75.2773 84.7712 75.2289C84.9803 75.0998 84.9803 75.1805 84.7551 75.7453C84.6586 75.9873 84.5459 76.6974 84.4977 77.3267C84.3851 78.8113 84.3851 78.8436 84.4977 79.4568C84.5459 79.7473 84.5299 79.9894 84.4494 79.9894C84.3851 79.9894 84.3207 80.3444 84.3207 80.7962C84.3207 81.2965 84.4012 81.6031 84.5138 81.6031C84.6264 81.6031 84.6264 81.6515 84.4816 81.7322C84.3368 81.829 84.3047 82.2808 84.3529 83.3943C84.3851 84.2334 84.3529 85.0403 84.2725 85.1855C84.176 85.3792 84.176 85.476 84.2725 85.476C84.3529 85.476 84.4173 85.6212 84.4012 85.7987C84.3851 85.9762 84.3368 86.1215 84.2725 86.1215C84.192 86.1215 84.192 88.2516 84.2886 88.3323C84.4012 88.4614 84.3529 88.8003 84.2081 88.8971C84.0955 88.9939 84.0955 89.0584 84.2242 89.1391C84.3047 89.2198 84.3851 89.4457 84.3851 89.6717C84.3851 89.8976 84.3047 90.1235 84.2242 90.1881C84.1116 90.2687 84.0955 90.3656 84.2081 90.4301C84.4173 90.5915 84.4977 90.9626 84.3207 90.9626C84.2403 90.9626 84.192 91.4306 84.192 92.0116C84.192 92.5925 84.2403 93.0605 84.2886 93.0605C84.3368 93.0605 84.3851 93.2057 84.4012 93.3832C84.4173 93.5607 84.369 93.6737 84.2725 93.6253C84.192 93.5607 84.1277 93.6091 84.1277 93.6898C84.1277 93.7866 84.192 93.8673 84.2725 93.8673C84.4655 93.8673 84.4173 94.7226 84.2081 94.8678C84.0955 94.9647 84.0955 95.0292 84.2081 95.1099C84.3529 95.2229 84.4012 95.5617 84.2886 95.6747C84.176 95.8199 84.192 97.0948 84.3047 97.0948C84.4012 97.0948 84.3851 97.24 84.2886 97.4336C84.1438 97.6757 84.1599 97.8209 84.2886 97.9985C84.4012 98.1275 84.4333 98.4019 84.3851 98.6278C84.3207 98.8537 84.3207 99.1281 84.3851 99.2087C84.4494 99.3056 84.5138 99.709 84.5459 100.096C84.5781 100.484 84.6746 100.952 84.7712 101.129C84.8998 101.371 84.8998 101.452 84.7551 101.452C84.6425 101.452 84.6264 101.565 84.6907 101.726C84.8838 102.178 84.9159 102.743 84.7551 102.743C84.6907 102.743 84.6586 102.856 84.7068 102.985C84.7712 103.114 84.8516 103.195 84.9159 103.162C84.9642 103.13 85.0285 103.646 85.0446 104.324C85.0607 104.986 85.1411 105.583 85.2055 105.631C85.3342 105.728 85.4146 106.325 85.4307 107.39C85.4307 107.681 85.495 107.874 85.5755 107.826C85.6559 107.778 85.6881 107.939 85.6398 108.165C85.5916 108.407 85.6076 108.714 85.672 108.859C85.7203 109.004 85.8007 109.407 85.8168 109.746C85.8489 110.085 85.9294 110.424 86.0098 110.472C86.1385 110.569 86.2028 110.957 86.2511 112.054C86.2672 112.344 86.3315 112.586 86.412 112.586C86.4763 112.586 86.5889 112.877 86.6372 113.248C86.7015 113.603 86.8463 113.942 86.9428 113.99C87.2324 114.087 88.471 113.426 88.471 113.167C88.471 113.038 88.4067 112.909 88.3102 112.877C88.2297 112.845 88.1171 112.393 88.0689 111.86C88.0206 111.328 87.908 110.86 87.8276 110.844C87.7311 110.811 87.6667 110.682 87.6667 110.553C87.6667 110.424 87.5863 110.327 87.4898 110.327C87.3611 110.327 87.3611 110.263 87.4737 110.117C87.6184 109.94 87.6184 109.553 87.4415 108.794C87.4093 108.617 87.3611 108.423 87.3611 108.342C87.345 108.278 87.2485 108.229 87.1198 108.229C86.9267 108.229 86.9106 108.165 87.1037 107.778C87.3932 107.213 87.2645 106.277 86.8463 105.825C86.6693 105.631 86.605 105.47 86.7015 105.405C86.9589 105.244 86.7659 103.84 86.4602 103.614C86.2994 103.485 86.2672 103.388 86.3637 103.308C86.6211 103.162 86.5728 101.581 86.2994 101.194C86.1707 101 86.1063 100.806 86.1546 100.758C86.3315 100.597 86.3637 99.6283 86.2028 99.3378C86.0902 99.1119 86.1063 99.0312 86.2511 99.0312C86.3637 99.0312 86.2994 98.886 86.1063 98.6924C85.7846 98.3535 85.7685 98.3212 86.0098 97.95C86.2028 97.6596 86.2189 97.5143 86.0902 97.4336C85.9937 97.3691 85.9455 97.0464 85.9776 96.6429C86.0259 96.1427 85.9776 95.9168 85.8168 95.8683C85.6237 95.7877 85.6237 95.707 85.8329 95.3842C86.1707 94.884 86.2189 94.0448 85.9615 93.5285C85.8168 93.238 85.8007 92.9314 85.8972 92.5602C86.0742 91.8502 86.0098 91.3015 85.7363 91.124C85.5433 90.9949 85.5433 90.9626 85.7524 90.882C85.8972 90.8335 86.0259 90.656 86.042 90.5108C86.1546 89.4942 86.1224 89.2198 85.8811 88.7518C85.6881 88.413 85.6559 88.2193 85.7846 88.1709C86.0581 88.0902 86.042 86.4281 85.7685 86.3151C85.5594 86.2506 85.5594 86.2022 85.7524 86.0569C86.0098 85.8471 86.0742 85.6535 86.1546 84.7982C86.1868 84.4594 86.1385 84.1527 86.0581 84.1043C85.9776 84.0559 85.9615 83.8139 86.0098 83.5718C86.0581 83.3297 86.1063 82.2808 86.1224 81.2319C86.1385 79.8118 86.0902 79.2955 85.9294 79.1986C85.7524 79.0857 85.7524 79.0534 85.9615 78.9727C86.0902 78.9243 86.2028 78.7468 86.1868 78.5854C86.1546 77.7463 86.412 75.3741 86.5407 75.245C86.7337 75.0514 86.7337 74.067 86.5567 73.6152C86.4763 73.4377 86.4763 73.2117 86.5567 73.1149C86.7659 72.8406 86.8463 71.5657 86.6854 71.2269C86.5889 71.0816 86.5889 70.9525 86.6693 70.9525C87.0715 70.9525 87.3128 69.484 87.0393 68.774C86.9589 68.5965 86.975 68.3706 87.0554 68.2576C87.2645 67.9994 87.3289 66.9021 87.1519 66.5471C87.0715 66.3857 87.0715 66.2727 87.1519 66.2727C87.5863 66.2727 87.8276 64.3847 87.4576 63.9006C87.3611 63.7553 87.3932 63.6585 87.538 63.6101C87.6667 63.5617 87.7632 63.2874 87.7632 62.9969C87.7793 62.7064 87.8437 62.2707 87.908 62.0125C87.9884 61.6898 87.9723 61.5123 87.8115 61.4154C87.6506 61.3186 87.6345 61.2379 87.7632 61.1411C88.085 60.9313 88.3262 60.3343 88.1171 60.2697C88.0045 60.2213 87.9884 60.1245 88.085 59.9631C88.3102 59.6081 88.2941 58.8335 88.0689 58.7528C87.9241 58.6883 87.9723 58.543 88.2619 58.2364C88.5997 57.8814 88.648 57.6716 88.5997 56.9939C88.5675 56.5582 88.4871 56.1386 88.3906 56.0579C88.2941 55.9934 88.3102 55.8965 88.4389 55.8158C88.6962 55.6383 88.8732 54.0085 88.6319 54.0085C88.5354 54.0085 88.5836 53.8148 88.7606 53.5566C89.1306 53.0402 89.3236 52.1204 89.1145 51.9913C89.018 51.9268 88.9858 51.83 89.034 51.7493C89.0823 51.6686 89.034 51.5556 88.9536 51.5072C88.841 51.4265 88.8732 51.3297 89.0501 51.1845C89.2593 51.0392 89.3397 50.7165 89.3719 49.9096C89.3879 49.3287 89.4845 48.7316 89.5971 48.6025C89.7097 48.4734 89.8223 47.8763 89.8545 47.2793C89.9349 45.3267 89.9992 44.7296 90.1279 44.5198C90.2084 44.423 90.2244 44.2616 90.1762 44.1809C90.1118 44.1002 90.144 43.8582 90.2244 43.6323C90.3049 43.4063 90.321 42.9868 90.2405 42.664C90.1762 42.3252 90.1762 42.0347 90.2727 41.9379C90.3531 41.8572 90.4496 41.4376 90.4818 41.0019C90.5944 39.4689 90.7392 38.4361 90.8679 38.3554C91.0931 38.2102 91.2218 37.1128 91.0609 36.7094C90.9644 36.4512 90.9644 36.2414 91.0609 36.1446C91.3183 35.8864 91.4148 34.2888 91.1735 34.1436C91.0127 34.0306 91.0127 33.9984 91.1735 33.9984C91.2701 33.9984 91.3666 33.8854 91.3666 33.7563C91.3666 33.6272 91.447 33.5143 91.5435 33.5143C91.8009 33.5143 91.64 31.6908 91.3827 31.6101C91.2379 31.5617 91.2379 31.4971 91.3987 31.3035C91.624 31.013 91.7205 29.6897 91.5113 29.5606C91.4309 29.4961 91.4792 29.3024 91.6079 29.1088C91.8331 28.7699 91.9618 27.7049 91.8331 27.2208C91.8009 27.0917 91.6722 26.898 91.5435 26.8012C91.3505 26.6559 91.3666 26.6075 91.5757 26.5269C91.7687 26.4462 91.817 26.2687 91.7687 25.7039C91.7205 25.2682 91.7526 24.9615 91.8492 24.9615C92.1065 24.9615 92.0261 24.6711 91.6722 24.3483C91.4148 24.1063 91.3987 24.0095 91.5757 23.9449C91.8331 23.8481 92.0583 23.1865 91.8331 23.1865C91.7526 23.1865 91.7205 22.8637 91.7687 22.4441C91.817 21.9278 91.7687 21.6857 91.6079 21.6373C91.4148 21.5566 91.4148 21.4759 91.624 21.1532C91.9939 20.6045 92.01 19.7976 91.6722 19.1844C91.5113 18.9101 91.447 18.668 91.5274 18.668C91.7205 18.668 91.7044 16.9252 91.4953 16.7961C91.4148 16.7477 91.3987 16.5541 91.4631 16.3604C91.6883 15.6343 91.3666 14.1496 90.9805 14.1496C90.9162 14.1496 90.9322 14.0528 91.0288 13.9237C91.254 13.6494 91.1253 12.197 90.8518 12.0195C90.7231 11.9388 90.707 11.842 90.8035 11.7613C91.1414 11.5193 91.1735 10.196 90.8679 9.59894C90.7714 9.42143 90.7392 9.11483 90.7875 8.90504C90.8357 8.69526 90.8196 8.48548 90.7392 8.43707C90.6749 8.38865 90.6266 8.0175 90.6427 7.61407C90.6588 7.21064 90.6105 6.83948 90.5623 6.80721C90.4979 6.7588 90.4657 6.51674 90.4979 6.25855C90.5301 5.98421 90.4818 5.72602 90.4014 5.67761C90.3049 5.6292 90.2405 5.43555 90.2405 5.25804C90.2405 5.09667 90.144 4.95143 90.0475 4.95143C89.9027 4.95143 89.8866 4.91916 90.0153 4.82234C90.1279 4.75779 90.2084 4.41891 90.2084 4.04775C90.2244 3.4184 90.1923 3.38613 89.4201 3.04725L88.6158 2.70837L88.2619 3.11179C88.0689 3.33772 87.908 3.57977 87.908 3.66046C87.908 3.74115 87.5541 4.14457 87.1198 4.548C86.4763 5.17735 86.3637 5.371 86.412 5.77443C86.4602 6.03263 86.4281 6.24241 86.3637 6.24241C86.0581 6.24241 84.8998 7.53338 84.9803 7.77544C85.0446 7.92068 84.9964 8.0175 84.8516 8.0175C84.369 8.0175 83.5164 8.96959 83.4038 9.63122C83.3395 9.98624 83.243 10.2444 83.1786 10.2122C82.9695 10.0831 82.503 10.777 82.4065 11.3095C82.3421 11.7129 82.2134 11.8743 81.8113 12.0195C81.2804 12.2132 80.7496 12.9716 80.7496 13.5526C80.7335 13.7462 80.5244 14.0851 80.267 14.311C79.9935 14.5208 79.7844 14.7951 79.7844 14.9081C79.7844 15.021 79.6396 15.1824 79.4466 15.2792C79.1892 15.4245 79.1409 15.5697 79.2214 15.8763C79.2696 16.1022 79.2535 16.2313 79.1731 16.1829C78.9801 16.07 78.4331 16.667 78.5618 16.8768C78.6262 16.9575 78.594 17.0705 78.5136 17.135C78.4331 17.1834 78.2401 17.4416 78.1114 17.7321C77.9184 18.1032 77.9023 18.2808 78.031 18.4421C78.1757 18.6196 78.1597 18.668 78.0149 18.668C77.7575 18.668 76.8888 19.5556 76.8727 19.8299C76.8567 19.9429 76.8567 20.2818 76.8567 20.5561C76.8567 20.8466 76.8084 21.0886 76.728 21.0886C76.5028 21.0886 76.0523 21.9278 76.0041 22.4119C75.988 22.6862 75.7789 23.0251 75.5215 23.251C75.1193 23.5899 75.0711 23.7674 75.055 24.542C75.0389 25.0422 74.9585 25.4457 74.878 25.4457C74.6528 25.4457 74.2668 26.3655 74.2507 26.9626C74.2346 27.2692 74.0898 27.5919 73.8646 27.7856C73.6233 28.0115 73.4785 28.3665 73.4303 28.9152C73.382 29.3509 73.2533 29.8188 73.1246 29.9479C72.9959 30.0932 72.8511 30.4643 72.7868 30.7709C72.7225 31.0775 72.5616 31.481 72.449 31.6746C72.3203 31.8521 72.272 32.0458 72.3203 32.1103C72.3846 32.1749 72.3203 32.3847 72.1755 32.5944C72.0468 32.8042 71.9503 33.2399 71.9664 33.5627C71.9825 33.9177 71.9021 34.192 71.7894 34.2243C71.6768 34.2727 71.6286 34.4179 71.6768 34.5632C71.7251 34.6923 71.6929 34.8052 71.5964 34.8052C71.4999 34.8052 71.4195 34.9343 71.4195 35.0957C71.4195 35.2571 71.2747 35.7089 71.0816 36.0801C70.9047 36.4674 70.7921 36.9192 70.8243 37.0806C70.8725 37.2581 70.7921 37.5163 70.6473 37.6615C70.4704 37.839 70.3899 38.2102 70.3738 38.8557C70.3738 39.5012 70.3095 39.8239 70.1486 39.8884C70.036 39.9369 69.9878 40.0821 70.036 40.2112C70.0843 40.3403 70.0682 40.4532 69.9878 40.4532C69.7626 40.4532 69.6339 41.4537 69.8269 41.6797C69.9717 41.8572 69.9556 41.9056 69.8108 41.9056C69.5213 41.9056 69.0065 42.5349 68.9743 42.9384C68.8939 43.8259 68.9261 44.1002 69.0709 44.2132C69.1995 44.31 69.1835 44.3746 69.0387 44.4391C68.7491 44.5521 68.4113 45.2944 68.4274 45.7785C68.4435 46.0044 68.3309 46.2949 68.2022 46.424C67.6874 46.9243 67.2531 47.8602 67.3174 48.3443C67.3657 48.6993 67.3174 48.8446 67.1566 48.8446C67.044 48.8446 66.8992 49.0544 66.8348 49.3126C66.7866 49.5708 66.6257 49.8289 66.4809 49.8774C66.2557 49.9742 66.2557 50.0226 66.5131 50.2969C66.674 50.4744 66.867 50.5713 66.9314 50.5228C67.0118 50.4744 67.0761 50.5551 67.0761 50.6842C67.0761 51.0231 66.9796 51.007 66.5453 50.6035C66.3523 50.426 66.0627 50.3131 65.9018 50.3615C65.7571 50.3938 65.3549 50.3615 65.0332 50.2647C64.631 50.1517 64.4219 50.1517 64.3736 50.2647C64.3415 50.3615 64.1484 50.2647 63.9232 50.0549C63.4406 49.603 62.6041 49.4255 62.0089 49.6514C61.7515 49.7483 61.5103 49.7644 61.462 49.6999C61.285 49.4578 60.6255 49.1512 60.4807 49.248C60.4003 49.2964 60.3038 49.2641 60.2394 49.1673C60.1751 49.0705 60.0464 49.0544 59.8694 49.1512C59.6925 49.248 59.4834 49.2157 59.2421 49.0544C59.0008 48.893 58.4699 48.7962 57.8586 48.78C57.3117 48.78 56.8291 48.7155 56.7809 48.6509C56.6361 48.4573 55.2687 48.3766 55.0596 48.5541C54.9309 48.6671 54.754 48.6025 54.5127 48.3766C54.191 48.07 53.4671 47.9248 53.0006 48.0377C52.7914 48.1023 52.1641 48.07 51.5528 47.9893C49.2042 47.6343 48.1103 47.5697 47.9816 47.7634C47.9333 47.8441 47.7886 47.7957 47.6438 47.6666C47.4829 47.5536 47.0808 47.4406 46.7269 47.4084C45.5204 47.3438 44.9413 47.0534 45.0217 46.5531C45.0378 46.3433 43.7348 45.133 43.5739 45.2299C43.4774 45.2783 43.4292 45.2299 43.4452 45.1169C43.4935 44.7941 43.1396 44.0034 42.9466 44.0034C42.8661 44.0034 42.7857 43.8905 42.7857 43.7614C42.7857 43.6323 42.657 43.5193 42.4962 43.5193C42.287 43.5193 42.2066 43.4063 42.2227 43.1482C42.2709 42.6318 41.724 41.6797 41.2575 41.4215C41.0001 41.2924 40.8553 41.0665 40.8553 40.8244C40.8553 40.6146 40.791 40.4532 40.6945 40.4532C40.614 40.4532 40.5336 40.3564 40.5336 40.2273C40.5336 40.1144 40.3406 39.9046 40.0993 39.7916C39.7936 39.6464 39.6489 39.4366 39.6328 39.1623C39.6167 38.9363 39.6006 38.662 39.5845 38.5491C39.5845 38.4522 39.2628 38.0649 38.9089 37.7099C38.5389 37.3549 38.2976 37.0644 38.362 37.0644C38.4263 37.0644 38.3941 36.9515 38.2815 36.8224C38.1689 36.6933 38.1367 36.5803 38.185 36.5803C38.2493 36.5803 38.2011 36.4189 38.0885 36.2092C37.9759 36.0155 37.8794 35.7412 37.8794 35.6121C37.8794 35.483 37.7346 35.3055 37.5576 35.2087C37.3646 35.1118 37.2198 34.8536 37.2037 34.5793C37.1876 34.305 37.059 34.0306 36.9142 33.9661C36.7855 33.8854 36.6729 33.7563 36.6729 33.6756C36.6729 33.4497 36.142 32.8688 35.9329 32.8688C35.8364 32.8688 35.772 32.6913 35.8042 32.4492C35.8525 31.9328 35.4503 30.9484 35.1447 30.8355C35.016 30.7709 34.9516 30.6741 34.9999 30.5934C35.0482 30.5127 34.9838 30.4482 34.8551 30.4482C34.7103 30.4482 34.5817 30.2223 34.5173 29.8834C34.453 29.5768 34.3404 29.3186 34.2599 29.3186C34.1634 29.3186 34.0991 29.2379 34.0991 29.1411C34.0991 29.0281 33.9865 28.8667 33.8256 28.7538C33.6808 28.6408 33.5682 28.3504 33.5843 28.076C33.6004 27.5758 32.7317 26.4139 32.3296 26.4139C32.1687 26.4139 32.1687 26.3655 32.3296 26.1718C32.4904 25.9782 32.4904 25.8652 32.3617 25.7361C32.2491 25.6232 32.1687 25.4134 32.1687 25.252C32.1687 25.0906 32.1044 24.9615 32.0078 24.9615C31.9274 24.9615 31.847 24.8486 31.847 24.7195C31.847 24.5904 31.7505 24.4774 31.6378 24.4774C31.4931 24.4774 31.4126 24.2838 31.3966 23.961C31.3805 23.3478 30.8979 22.3796 30.6083 22.3796C30.4796 22.3796 30.3188 22.1859 30.2222 21.9278C30.1257 21.6857 29.7879 20.9918 29.4984 20.3947C29.1927 19.7976 28.9514 19.1844 28.9514 19.0715C28.9514 18.9424 28.8871 18.8294 28.8066 18.8294C28.7262 18.8294 28.5975 18.6842 28.5493 18.5067C28.501 18.3292 28.3401 18.1839 28.2275 18.1839C28.0988 18.1839 28.0345 18.0871 28.0828 17.958C28.1632 17.7482 27.9058 17.0059 27.4876 16.2152C27.4071 16.0538 27.3428 15.8279 27.3428 15.7149C27.3428 15.602 27.1658 15.3438 26.9406 15.1501C26.7154 14.9404 26.5706 14.7144 26.6189 14.6176C26.7637 14.3917 26.3133 13.4719 25.9111 13.1814C25.7181 13.0523 25.5733 12.8264 25.5733 12.665C25.5733 12.1809 25.0263 11.0836 24.7529 11.0029C24.5759 10.9383 24.5116 10.7931 24.5759 10.5026C24.6564 10.0508 24.399 9.45371 23.852 8.85663C23.659 8.64685 23.5464 8.37252 23.5947 8.25956C23.6751 8.0175 23.0155 6.56515 22.8225 6.56515C22.7582 6.56515 22.726 6.40378 22.7743 6.194C22.8708 5.70988 22.549 4.95143 22.0665 4.51573C21.8573 4.32208 21.7286 4.08003 21.793 3.9832C21.8573 3.88638 21.8091 3.69273 21.6965 3.56364C21.5999 3.43454 21.5517 3.2893 21.616 3.22476C21.6643 3.17634 21.5999 2.9827 21.4391 2.82133C21.2782 2.64382 21.246 2.53086 21.3747 2.53086C21.5034 2.53086 21.5034 2.45017 21.3587 2.20811C21.246 2.0306 21.0691 1.88537 20.9726 1.88537C20.8761 1.88537 20.8278 1.69172 20.8761 1.43353C20.9726 0.755766 20.3774 0.190964 19.4283 0.0457293C18.9457 -0.0349566 18.6561 -0.00268221 18.6561 0.0941409ZM20.8117 2.40176C20.7635 2.46631 20.6187 2.53086 20.49 2.53086C20.3613 2.53086 20.2809 2.46631 20.3291 2.40176C20.3774 2.32107 20.5222 2.25652 20.6508 2.25652C20.7795 2.25652 20.86 2.32107 20.8117 2.40176ZM80.1061 15.9893C80.1061 16.0377 80.0418 16.1184 79.9452 16.1668C79.8648 16.2152 79.7844 16.1829 79.7844 16.1022C79.7844 16.0054 79.8648 15.9247 79.9452 15.9247C80.0418 15.9247 80.1061 15.957 80.1061 15.9893ZM79.6235 16.893C79.6235 16.9736 79.5592 17.0543 79.4627 17.0543C79.3822 17.0543 79.3018 16.9736 79.3018 16.893C79.3018 16.7961 79.3822 16.7316 79.4627 16.7316C79.5592 16.7316 79.6235 16.7961 79.6235 16.893ZM91.2057 23.6706C91.2057 23.7513 91.1735 23.8319 91.1414 23.8319C91.0931 23.8319 91.0127 23.7513 90.9644 23.6706C90.9162 23.5737 90.9483 23.5092 91.0288 23.5092C91.1253 23.5092 91.2057 23.5737 91.2057 23.6706ZM91.077 24.6711C90.9644 24.784 90.884 24.8002 90.884 24.7034C90.884 24.4774 91.077 24.2838 91.1896 24.3967C91.2218 24.4452 91.1735 24.5743 91.077 24.6711ZM12.3825 33.9984C12.3825 34.0791 12.3181 34.1597 12.2216 34.1597C12.1412 34.1597 12.0607 34.0791 12.0607 33.9984C12.0607 33.9015 12.1412 33.837 12.2216 33.837C12.3181 33.837 12.3825 33.9015 12.3825 33.9984ZM12.302 34.8052C12.3503 34.8859 12.3181 34.9666 12.2377 34.9666C12.1412 34.9666 12.0607 34.8859 12.0607 34.8052C12.0607 34.7084 12.0929 34.6439 12.1251 34.6439C12.1733 34.6439 12.2538 34.7084 12.302 34.8052ZM36.6729 34.8052C36.6729 34.8859 36.6085 34.9666 36.512 34.9666C36.4316 34.9666 36.3512 34.8859 36.3512 34.8052C36.3512 34.7084 36.4316 34.6439 36.512 34.6439C36.6085 34.6439 36.6729 34.7084 36.6729 34.8052ZM37.3163 35.5153C37.3163 35.5475 37.2037 35.6605 37.075 35.7735C36.882 35.9348 36.8337 35.9348 36.8337 35.7089C36.8337 35.5637 36.9464 35.4507 37.075 35.4507C37.2037 35.4507 37.3163 35.483 37.3163 35.5153ZM66.3362 51.0231C66.3844 51.1683 66.3362 51.2652 66.1914 51.2652C66.0466 51.2652 65.9984 51.1683 66.0466 51.0231C66.111 50.894 66.1592 50.781 66.1914 50.781C66.2236 50.781 66.2718 50.894 66.3362 51.0231ZM87.5058 60.6247C87.5058 60.7054 87.4415 60.7861 87.345 60.7861C87.2645 60.7861 87.1841 60.7054 87.1841 60.6247C87.1841 60.5279 87.2645 60.4634 87.345 60.4634C87.4415 60.4634 87.5058 60.5279 87.5058 60.6247ZM87.345 61.593C87.345 61.6736 87.2806 61.7543 87.1841 61.7543C87.1037 61.7543 87.0232 61.6736 87.0232 61.593C87.0232 61.4961 87.1037 61.4316 87.1841 61.4316C87.2806 61.4316 87.345 61.4961 87.345 61.593ZM7.7174 70.775C7.7174 70.8718 7.65306 70.9848 7.55654 71.0332C7.4761 71.0816 7.39567 71.0171 7.39567 70.888C7.39567 70.7427 7.4761 70.6298 7.55654 70.6298C7.65306 70.6298 7.7174 70.6943 7.7174 70.775ZM7.55654 71.7594C7.55654 71.8401 7.49219 71.9208 7.39567 71.9208C7.31524 71.9208 7.23481 71.8401 7.23481 71.7594C7.23481 71.6626 7.31524 71.598 7.39567 71.598C7.49219 71.598 7.55654 71.6626 7.55654 71.7594ZM85.4146 97.9016C85.4146 97.9823 85.3824 98.063 85.3503 98.063C85.302 98.063 85.2216 97.9823 85.1733 97.9016C85.1251 97.8048 85.1572 97.7403 85.2377 97.7403C85.3342 97.7403 85.4146 97.8048 85.4146 97.9016ZM85.6398 98.7408C85.5916 98.8053 85.495 98.8699 85.3985 98.8699C85.3181 98.8699 85.2537 98.8053 85.2537 98.7408C85.2537 98.6601 85.3664 98.5955 85.495 98.5955C85.6237 98.5955 85.6881 98.6601 85.6398 98.7408ZM0.671566 107.455C0.558962 107.568 0.47853 107.584 0.47853 107.487C0.47853 107.261 0.671566 107.068 0.784171 107.181C0.816344 107.229 0.768085 107.358 0.671566 107.455Z"
          fill="white"/>
    <path d="M25.5411 53.1532C25.3802 53.1855 25.2515 53.2985 25.2515 53.3792C25.2515 53.476 25.1068 53.5083 24.9459 53.4437C24.5116 53.3146 23.6107 54.2344 23.7233 54.7024C23.7716 54.8961 23.8359 55.3802 23.8681 55.7836C23.9646 57.0262 24.1255 57.3973 24.592 57.4942C24.8172 57.5426 25.1068 57.6232 25.2194 57.6555C25.3481 57.6878 25.6537 57.591 25.9111 57.4457C26.2489 57.236 26.3776 57.0423 26.3937 56.6712C26.4258 56.0902 26.4419 55.9611 26.6028 55.5416C27.1819 54.0085 27.1819 54.0408 26.7476 53.5244C26.3615 53.0564 26.1363 52.9919 25.5411 53.1532Z"
          fill="white"/>
    <path d="M64.3414 61.1412C64.0358 61.3187 63.7462 61.5285 63.7141 61.6253C63.698 61.706 63.5371 61.8996 63.3763 62.0449C62.9419 62.4644 62.8776 63.0615 63.1671 63.82C63.3441 64.2879 63.5371 64.53 63.8106 64.5945C64.068 64.6591 64.1645 64.7721 64.1162 64.9334C64.0519 65.0787 64.2288 65.3691 64.5345 65.6596C64.9688 66.063 65.1297 66.1276 65.6123 66.0308C65.934 65.9823 66.2718 65.8371 66.3522 65.7241C66.4488 65.6112 66.7866 65.4337 67.1083 65.3207C67.6552 65.1432 67.7518 65.0303 67.9609 64.2718C68.1861 63.4972 68.1861 63.3843 67.9287 62.8679C67.5426 62.1094 66.7544 61.3187 66.0627 61.0282C65.3066 60.7216 65.0332 60.7378 64.3414 61.1412ZM65.3066 63.9329C65.3066 64.062 65.2745 64.175 65.2423 64.175C65.2101 64.175 65.1458 64.062 65.0814 63.9329C65.0332 63.8038 65.0653 63.6909 65.1458 63.6909C65.2423 63.6909 65.3066 63.8038 65.3066 63.9329Z"
          fill="white"/>
    <path d="M38.8285 84.411C38.555 84.9596 38.5389 85.4115 38.7641 85.5567C38.8767 85.6213 38.7963 85.8149 38.555 86.057C38.185 86.412 37.8955 87.1704 37.4772 88.8164C37.3807 89.1876 37.2038 89.6071 37.0751 89.7362C36.9464 89.8653 36.8338 90.0106 36.8338 90.0751C36.8338 90.1235 36.6568 90.3495 36.4477 90.5915C36.1903 90.8658 36.0777 91.1725 36.0938 91.5275C36.1099 91.9148 36.0616 92.0277 35.9008 91.9632C35.7721 91.9148 35.3699 92.2214 34.9677 92.6571C34.5817 93.0928 34.2599 93.3832 34.2599 93.3026C34.2599 93.2219 34.0347 93.3671 33.7452 93.6414C33.4717 93.8996 33.3109 93.9965 33.3752 93.8674C33.5039 93.6576 33.4717 93.6576 33.2465 93.8512C33.1017 93.9642 32.8604 94.0287 32.7317 93.9642C32.587 93.9158 32.2974 93.9803 32.0883 94.1256C31.7183 94.3676 31.6861 94.3676 31.5896 94.1256C31.5253 93.9642 31.3966 93.8835 31.2679 93.9319C31.1553 93.9803 30.9944 93.819 30.8979 93.5285C30.8175 93.2703 30.6566 93.0605 30.5762 93.0605C30.4796 93.0605 30.3992 92.9798 30.3992 92.8991C30.3992 92.5603 29.6592 91.6243 29.3536 91.5436C29.0962 91.4791 29.0158 91.3177 28.9997 90.769C28.9836 90.3979 28.8871 90.059 28.7906 90.0267C28.7101 89.9944 28.6297 89.8653 28.6297 89.7362C28.6297 89.6071 28.5654 89.5103 28.4689 89.5103C28.3884 89.5103 28.3241 89.3812 28.3402 89.2199C28.4206 88.5744 28.0989 87.5577 27.7128 87.2511C27.5037 87.0897 27.3589 86.8638 27.4232 86.7831C27.4715 86.6863 27.4232 86.299 27.3267 85.9279C27.2141 85.5406 27.1176 85.1856 27.1176 85.121C27.0854 84.8789 26.442 84.5562 25.9272 84.5401C25.2194 84.5239 24.962 85.008 25.3481 85.6051C25.509 85.8472 25.6537 86.1054 25.6537 86.2022C25.7181 86.7025 25.9594 87.4125 26.0559 87.4125C26.1202 87.4125 26.2328 87.5254 26.2811 87.6707C26.3294 87.8159 26.3133 87.8643 26.2007 87.7998C26.1042 87.7514 26.1846 87.9934 26.3615 88.3646C26.5546 88.7196 26.6993 89.123 26.6993 89.2683C26.6993 89.3974 26.7798 89.5103 26.8763 89.5103C26.9728 89.5103 27.0211 89.6556 26.9728 89.8331C26.9246 90.0106 26.9567 90.1881 27.0211 90.2365C27.1015 90.2849 27.198 90.6077 27.2624 90.9788C27.3267 91.3338 27.4715 91.6727 27.6002 91.7211C27.7289 91.7695 27.7771 91.8664 27.7289 91.947C27.6806 92.0277 27.7128 92.0923 27.8093 92.0923C27.9058 92.0923 27.938 92.1891 27.8897 92.3021C27.8576 92.415 28.0345 92.6732 28.3241 92.883C28.5975 93.0766 28.7745 93.2864 28.7262 93.3348C28.678 93.3832 28.8549 93.6737 29.1123 93.9803C29.3858 94.2708 29.5949 94.5774 29.5949 94.6581C29.5949 94.9647 30.8335 95.6425 31.4127 95.6425C31.7344 95.6425 32.0079 95.7231 32.0079 95.82C32.0079 95.9168 32.1365 95.9329 32.3778 95.8684C32.5709 95.7877 33.0052 95.7554 33.343 95.7716C33.7291 95.7877 33.9221 95.7393 33.8417 95.6263C33.7934 95.5295 33.89 95.4165 34.083 95.3681C34.276 95.3197 34.4208 95.2229 34.4208 95.1745C34.4208 95.1099 34.5173 95.0454 34.6299 95.0454C34.9517 95.0454 35.8686 94.3192 35.8686 94.0771C35.8686 93.948 35.9329 93.8835 35.9973 93.9319C36.1903 94.0449 36.8981 93.2703 37.2359 92.5764C37.3968 92.2698 37.5737 91.9793 37.622 91.9309C37.9276 91.6888 38.4424 90.769 38.362 90.6399C38.3137 90.5431 38.3781 90.4786 38.5068 90.4786C38.8446 90.4786 39.2628 89.4296 39.1985 88.768C39.1502 88.4453 39.2146 88.2032 39.3432 88.1548C39.4558 88.1064 39.5685 87.9289 39.6006 87.7352C39.665 87.2673 39.9545 87.2511 40.0189 87.703C40.051 87.9127 40.1797 88.1225 40.3084 88.1709C40.4371 88.2193 40.5336 88.3646 40.5336 88.5098C40.5336 88.6389 40.6623 88.8971 40.8232 89.0746C40.968 89.2521 41.0001 89.349 40.9036 89.2844C40.5658 89.0908 40.6623 89.3167 41.1449 89.7847C41.3862 90.0429 41.5953 90.3495 41.6275 90.4786C41.6597 90.6077 41.7884 90.7852 41.9171 90.8497C42.0458 90.9143 42.1423 91.0756 42.1423 91.1886C42.1423 91.4468 43.1718 92.4473 43.3166 92.3182C43.3648 92.2698 43.4614 92.3989 43.5096 92.6248C43.59 92.8991 43.7509 93.0605 44.0887 93.1251C44.3622 93.1735 44.5552 93.3187 44.5552 93.4639C44.5552 93.593 44.6678 93.706 44.7965 93.706C44.9252 93.706 45.1665 93.8351 45.3435 94.0126C45.5043 94.174 45.9869 94.3676 46.4212 94.4322C46.8556 94.4967 47.3382 94.6581 47.499 94.7872C47.6438 94.9324 47.7725 94.997 47.7725 94.9324C47.7725 94.8679 47.9816 94.9647 48.239 95.1422C48.4964 95.3358 48.7377 95.4165 48.7699 95.3197C48.802 95.2229 48.979 95.239 49.2203 95.3681C49.4455 95.4972 49.735 95.594 49.8637 95.6102C49.9924 95.6263 50.4428 95.6747 50.845 95.7231C51.5689 95.82 51.6011 95.8038 51.9389 95.239C52.1158 94.9163 52.2767 94.5129 52.2767 94.3515C52.2767 94.1901 52.3732 94.0126 52.4858 93.9642C52.5823 93.9158 51.9389 93.8996 51.022 93.8996C49.7029 93.9158 49.3329 93.8674 49.172 93.6737C49.0112 93.4639 48.1264 93.1735 47.5312 93.1573C47.4508 93.1412 47.3221 93.0605 47.2417 92.9475C47.1773 92.8507 46.9199 92.7216 46.6625 92.6571C46.4052 92.6087 46.1478 92.4473 46.0995 92.3182C46.0513 92.1891 45.8421 92.0923 45.633 92.0923C45.3756 92.0923 45.1826 91.947 45.07 91.6888C44.9735 91.4629 44.8287 91.3016 44.7644 91.3177C44.6839 91.35 44.3944 91.124 44.1048 90.8336C43.8153 90.5431 43.5096 90.3495 43.4131 90.3979C43.3327 90.4624 43.2683 90.301 43.2683 90.0429C43.2522 89.5749 42.7857 88.8648 42.4801 88.8648C42.3836 88.8648 42.3031 88.768 42.3031 88.6389C42.3031 88.5098 42.2388 88.3807 42.1584 88.3484C42.0618 88.3162 41.9653 88.1225 41.9331 87.8966C41.901 87.6707 41.8366 87.3802 41.7723 87.2511C41.724 87.122 41.6436 86.88 41.5953 86.7186C41.5471 86.5572 41.4345 86.4765 41.338 86.5249C41.1127 86.6702 41.1449 86.412 41.4023 86.0731C41.6758 85.7019 41.4666 84.766 40.9841 84.2496C40.7428 83.9753 40.5015 83.8946 39.8741 83.9269C39.1663 83.943 39.0376 83.9914 38.8285 84.411ZM44.6678 92.1891C44.6196 92.2375 44.4748 92.2536 44.3622 92.2052C44.2335 92.1568 44.2818 92.1084 44.4587 92.1084C44.6357 92.0923 44.7322 92.1407 44.6678 92.1891ZM45.44 92.7378C45.4882 92.8184 45.4722 92.8991 45.3756 92.8991C45.2952 92.8991 45.1665 92.8184 45.1183 92.7378C45.07 92.6409 45.0861 92.5764 45.1826 92.5764C45.263 92.5764 45.3917 92.6409 45.44 92.7378Z"
          fill="white"/>
</svg>
