<svg width="92" height="62" viewBox="0 0 92 62" fill="none" xmlns="http://www.w3.org/2000/svg">
    <path d="M48.8958 0.0705742C48.7861 0.131176 48.7008 0.2645 48.7008 0.349342C48.7008 0.446305 48.6398 0.531148 48.5667 0.531148C48.4814 0.531148 48.457 0.652351 48.5058 0.834157C48.5545 1.01596 48.5302 1.13717 48.4448 1.13717C48.2986 1.13717 48.1036 1.33109 47.8233 1.7553C47.5796 2.13103 47.5186 2.48253 47.6405 2.67645C47.7014 2.77341 47.6771 2.83402 47.5674 2.83402C47.3115 2.83402 46.9093 3.46427 46.9215 3.82788C46.9337 4.02181 46.8971 4.16725 46.8484 4.16725C46.4828 4.16725 45.8856 5.06416 45.8734 5.6217C45.8612 5.81562 45.8247 5.96107 45.7881 5.94895C45.6541 5.90047 45.1666 6.458 45.1666 6.65193C45.1666 6.74889 45.0813 6.83373 44.9838 6.83373C44.8619 6.83373 44.801 6.95494 44.801 7.1731C44.801 7.42763 44.7157 7.56095 44.4963 7.65792C44.3257 7.74276 44.1916 7.87608 44.216 7.94881C44.2282 8.03365 44.1429 8.31242 44.021 8.55482C43.8991 8.79723 43.8382 9.06388 43.887 9.12448C43.9235 9.1972 43.8626 9.2578 43.7163 9.2578C43.4117 9.2578 42.7536 10.082 42.7048 10.5426C42.6804 10.7365 42.5708 10.9668 42.4611 11.0516C42.2173 11.2334 41.8517 11.9122 41.937 12.0455C41.9736 12.094 41.8274 12.2031 41.6324 12.2879C41.1693 12.4818 40.7793 13.0151 40.7427 13.4999C40.7305 13.6939 40.6818 13.8635 40.6331 13.8635C40.4868 13.8635 40.0481 14.3241 40.0481 14.4696C40.0481 14.5302 39.9993 14.5908 39.9262 14.5908C39.8653 14.5908 39.8043 14.6998 39.8043 14.8211C39.8043 14.9544 39.6947 15.0998 39.5606 15.1362C39.1706 15.2574 38.5857 15.8028 38.5857 16.0452C38.5857 16.1664 38.4638 16.3725 38.3054 16.4937C38.1469 16.6149 38.0007 16.7603 37.9641 16.833C37.9397 16.8936 37.6229 17.2451 37.2817 17.5966C36.9282 17.9481 36.6357 18.2875 36.6357 18.3481C36.6357 18.4208 36.587 18.4693 36.5139 18.4693C36.4529 18.4693 36.3676 18.6026 36.3189 18.7602C36.2823 18.9177 36.1483 19.0753 36.0264 19.1117C35.9045 19.148 35.6486 19.3904 35.4536 19.6692C35.2708 19.9358 35.0515 20.154 34.9783 20.1661C34.9174 20.1661 34.7468 20.3116 34.6005 20.4934C34.4665 20.6873 34.1862 20.8933 33.9668 20.9782C33.6134 21.1115 33.589 21.0994 33.5037 20.7964C33.394 20.3601 32.9797 19.6813 32.8213 19.6692C32.7359 19.6571 32.6141 19.6571 32.5288 19.6692C32.4435 19.6813 32.4191 19.5844 32.4556 19.4389C32.4922 19.3056 32.4556 19.1965 32.3825 19.1965C32.3094 19.1965 32.2485 19.0874 32.2485 18.9662C32.2485 18.8329 32.1753 18.7117 32.1022 18.6874C32.0169 18.6511 31.9438 18.5299 31.9438 18.4087C31.9438 18.2754 31.8341 18.1178 31.7001 18.0451C31.566 17.9845 31.4441 17.7905 31.4198 17.6209C31.4076 17.4633 31.3101 17.2815 31.2126 17.2209C31.1151 17.1724 31.0298 17.0512 31.0298 16.9664C31.0298 16.7845 30.4936 16.2513 30.3961 16.3482C30.3717 16.3846 30.3351 16.2028 30.3229 15.9604C30.3108 15.7058 30.2498 15.4877 30.1767 15.4634C30.1158 15.4392 30.0548 15.3422 30.0548 15.2574C30.0548 15.1604 29.9086 15.0029 29.7258 14.8938C29.4577 14.7362 29.3845 14.5908 29.3602 14.2514C29.348 14.009 29.2505 13.7423 29.153 13.6696C29.0433 13.5969 28.9946 13.5121 29.0311 13.4636C29.0677 13.4272 28.9946 13.3666 28.8727 13.3302C28.6899 13.2696 28.6533 13.1727 28.6777 12.9182C28.7386 12.4939 28.4218 11.7182 28.1415 11.6334C27.9952 11.5849 27.9221 11.4395 27.9099 11.1728C27.9099 10.9547 27.8612 10.6274 27.8246 10.4335C27.7393 10.1183 27.7028 10.1062 26.9594 10.1062C26.2038 10.1062 26.1916 10.1062 26.1916 10.4335C26.1916 11.2819 25.9722 12.1667 25.7772 12.1667C25.7163 12.1667 25.6675 12.2273 25.6675 12.3121C25.6675 12.3849 25.5335 12.6273 25.3629 12.8454C25.1923 13.0757 25.0704 13.2818 25.0826 13.306C25.1069 13.3302 24.9973 13.4878 24.8632 13.6454C24.522 14.009 24.2661 14.4938 24.3026 14.6877C24.327 14.7726 24.2904 14.8332 24.2417 14.8211C23.9858 14.7726 23.8395 14.8453 23.8395 15.015C23.8395 15.1119 23.7908 15.1968 23.7176 15.1968C23.6567 15.1968 23.5958 15.3301 23.5958 15.4998C23.5958 15.6695 23.547 15.8028 23.4739 15.8028C23.413 15.8028 23.352 15.8876 23.352 15.9846C23.352 16.0816 23.2911 16.1664 23.2302 16.1664C23.157 16.1664 23.023 16.3846 22.9133 16.6512C22.8036 16.9179 22.6696 17.136 22.6086 17.136C22.4258 17.136 22.048 18.0329 22.0846 18.3723C22.109 18.6026 22.0602 18.7117 21.9384 18.7117C21.8409 18.7117 21.7677 18.7844 21.7677 18.8814C21.7677 18.9783 21.7068 19.0753 21.6337 19.0995C21.5606 19.1238 21.4996 19.3783 21.4874 19.6571C21.4753 19.9722 21.4021 20.1661 21.3168 20.1661C21.0487 20.1661 20.4028 21.1721 20.4516 21.5115C20.4881 21.7297 20.4028 21.8993 20.1591 22.1054C19.9397 22.2993 19.7813 22.566 19.7325 22.8568C19.696 23.1114 19.6107 23.3174 19.5619 23.3174C19.501 23.3174 19.3304 23.4507 19.1841 23.6204C18.8794 23.9719 18.2701 23.9962 18.1726 23.6689C18.136 23.5598 17.9898 23.4144 17.8314 23.3295C17.6851 23.2568 17.4048 23.0871 17.1977 22.9538C17.0027 22.8205 16.7346 22.675 16.6249 22.6387C16.503 22.5902 16.4055 22.5175 16.4055 22.4569C16.4055 22.3963 16.2958 22.3478 16.1618 22.3478C16.0277 22.3478 15.8084 22.2387 15.6865 22.1175C15.5646 21.9963 15.3452 21.8509 15.199 21.8024C15.0528 21.766 14.8821 21.6206 14.809 21.4872C14.7481 21.3539 14.6384 21.2812 14.5775 21.3176C14.5165 21.3539 14.419 21.3054 14.3703 21.1964C14.2241 20.9418 13.4563 20.4085 13.3466 20.4813C13.2857 20.5176 13.2369 20.4813 13.2369 20.4085C13.2369 20.3358 13.0785 20.2146 12.8713 20.154C12.6763 20.0813 12.5057 19.9722 12.5057 19.9237C12.5057 19.8631 12.3838 19.7783 12.2376 19.7298C12.0792 19.6813 11.8964 19.5601 11.811 19.451C11.7379 19.3419 11.6161 19.245 11.5429 19.245C11.4698 19.2329 11.3601 19.2207 11.287 19.2086C11.2261 19.2086 11.1651 19.1238 11.1651 19.0268C11.1651 18.9299 11.0555 18.8086 10.9214 18.7723C10.7874 18.7359 10.6777 18.639 10.6777 18.5784C10.6777 18.5178 10.568 18.4693 10.4461 18.4693C10.3242 18.4693 10.1902 18.3844 10.1414 18.2875C10.1049 18.1905 10.0318 18.1057 9.98302 18.1178C9.73928 18.1541 9.56866 18.0935 9.64178 17.9845C9.67834 17.9117 9.61741 17.8269 9.49554 17.7784C9.20305 17.6693 8.9715 17.4269 8.9715 17.2572C8.9715 17.1724 8.88619 17.136 8.80089 17.1724C8.6912 17.2209 8.59371 17.1482 8.54496 17.0148C8.5084 16.8936 8.28904 16.6876 8.06967 16.5543L7.67969 16.324L7.33846 16.9179C7.15566 17.2451 7.03379 17.5481 7.07035 17.5845C7.10691 17.633 7.14347 17.6209 7.14347 17.5603C7.14347 17.5118 7.22878 17.536 7.32627 17.6209C7.42377 17.7057 7.59438 17.7421 7.69188 17.6936C7.81375 17.6572 7.85031 17.6693 7.81375 17.7421C7.765 17.8148 7.89906 18.0935 8.10623 18.3723C8.31341 18.6511 8.48403 18.9299 8.48403 18.9783C8.48403 19.1723 8.13061 19.0632 8.05749 18.845C7.97218 18.542 7.14347 17.9845 6.80224 17.9845C6.65599 17.9845 6.53412 17.9117 6.53412 17.8269C6.53412 17.5724 6.07102 17.2572 5.64448 17.233C5.36418 17.2088 5.20575 17.1118 5.09607 16.8936C4.91327 16.5058 4.26736 16.1543 3.75551 16.1422C3.49959 16.13 3.36553 16.0694 3.36553 15.9482C3.36553 15.8513 3.29241 15.8028 3.19492 15.8392C3.09742 15.8755 2.99993 15.8513 2.97555 15.7907C2.95118 15.718 2.82931 15.6574 2.71963 15.6331C2.59776 15.621 2.45152 15.5362 2.39058 15.4392C2.31746 15.318 2.08591 15.318 1.12314 15.4998C-0.0467976 15.7058 -0.0467977 15.7058 0.0263237 16.021C0.0750713 16.2028 0.148193 16.3967 0.209127 16.4573C0.257875 16.5179 0.270062 16.6391 0.233501 16.7239C0.19694 16.8209 0.221314 16.8936 0.294435 16.8936C0.35537 16.8936 0.440678 17.0997 0.489426 17.3663C0.525986 17.6209 0.635668 17.8996 0.733163 17.9723C0.830659 18.0572 0.891593 18.1905 0.855032 18.2875C0.818472 18.3723 0.842846 18.4814 0.915967 18.5299C0.989088 18.5662 1.05002 18.6996 1.05002 18.8086C1.05002 18.9299 1.1597 19.2329 1.29376 19.4995C1.42782 19.7662 1.5375 20.0692 1.5375 20.1904C1.5375 20.3116 1.58625 20.4085 1.64718 20.4085C1.75686 20.4085 1.90311 20.7721 1.95185 21.1721C1.97623 21.3054 2.06153 21.4388 2.14684 21.4994C2.23215 21.5478 2.26871 21.6448 2.21996 21.7175C2.1834 21.7903 2.19559 21.8751 2.26871 21.9236C2.32965 21.9599 2.39058 22.1054 2.39058 22.2266C2.39058 22.3478 2.47589 22.5296 2.57338 22.6387C2.67088 22.7356 2.75619 22.8932 2.75619 22.9902C2.75619 23.0871 2.8415 23.2083 2.95118 23.2447C3.06086 23.2811 3.12179 23.3901 3.08523 23.4871C3.04867 23.5719 3.12179 23.7174 3.24366 23.8022C3.37772 23.8992 3.45084 24.0083 3.41428 24.0689C3.37772 24.1174 3.41428 24.1658 3.4874 24.1658C3.56052 24.1658 3.5849 24.2264 3.53615 24.2992C3.49959 24.3719 3.52396 24.4689 3.59708 24.5173C3.6702 24.5658 3.75551 24.7113 3.77989 24.8446C3.87738 25.3173 4.46235 26.4445 4.65734 26.5172C4.77921 26.5657 4.82796 26.6748 4.7914 26.8323C4.75484 26.9535 4.80359 27.1232 4.90108 27.2081C4.99858 27.2808 5.0717 27.4505 5.0717 27.5717C5.0717 27.705 5.12045 27.802 5.19357 27.802C5.2545 27.802 5.33981 27.9353 5.38856 28.0928C5.42512 28.2625 5.54699 28.4201 5.64448 28.4565C5.74198 28.5049 5.80291 28.614 5.76635 28.6989C5.72979 28.7958 5.76635 28.9413 5.86385 29.014C5.96134 29.0867 6.07102 29.317 6.10758 29.5109C6.15633 29.7048 6.24164 29.8382 6.30257 29.7897C6.36351 29.7533 6.41226 29.8139 6.41226 29.9109C6.41226 30.2381 6.42444 30.2866 6.60725 30.4806C6.70474 30.5896 6.75349 30.6987 6.71693 30.7351C6.63162 30.8199 6.91192 31.3411 7.18003 31.6077C7.28971 31.7289 7.36283 31.8623 7.32627 31.9229C7.28971 31.9835 7.39939 32.1653 7.57001 32.335C7.74063 32.5046 7.87468 32.7592 7.87468 32.8925C7.87468 33.0379 7.93562 33.1107 7.99655 33.0743C8.06967 33.0379 8.11842 33.1349 8.11842 33.3046C8.11842 33.4743 8.17935 33.644 8.24029 33.6803C8.31341 33.7288 8.33778 33.8015 8.30122 33.8621C8.27685 33.9106 8.33778 34.0803 8.45965 34.2379C8.73995 34.5894 8.89838 34.9651 8.86182 35.159C8.84963 35.2438 8.89838 35.3166 8.95932 35.3166C9.069 35.3166 9.39804 35.8256 9.49554 36.1286C9.50773 36.1892 9.56866 36.2135 9.61741 36.1892C9.67834 36.1771 9.69053 36.2135 9.65397 36.2741C9.60522 36.3347 9.6296 36.4195 9.69053 36.468C9.76365 36.5044 9.78802 36.6135 9.75146 36.7104C9.69053 36.8559 9.98302 37.5346 10.1902 37.7406C10.2268 37.777 10.2511 37.8497 10.2633 37.9224C10.2755 38.2133 10.4705 38.7103 10.568 38.7103C10.6899 38.7103 10.9458 39.1708 10.9702 39.4375C11.0067 39.7647 11.2992 40.5283 11.4089 40.5283C11.4576 40.5283 11.5429 40.7223 11.5795 40.9525C11.6282 41.1828 11.7745 41.4858 11.9085 41.607C12.0426 41.7282 12.1767 41.9828 12.201 42.1646C12.2132 42.3464 12.2985 42.5403 12.3838 42.5888C12.457 42.6373 12.5179 42.71 12.5179 42.7585C12.4691 43.0615 12.5179 43.316 12.6154 43.2675C12.7373 43.1948 12.9201 43.5342 12.8835 43.7645C12.8713 43.8372 12.9201 43.9341 12.9932 43.9826C13.0541 44.019 13.115 44.1644 13.115 44.2978C13.115 44.419 13.1638 44.528 13.2369 44.528C13.2979 44.528 13.3222 44.6129 13.2735 44.722C13.2369 44.8311 13.31 45.0007 13.4685 45.1462C13.7366 45.4007 13.8097 45.5704 13.6025 45.4371C13.5416 45.4007 13.4807 45.4249 13.4807 45.4856C13.4807 45.5583 13.5294 45.6189 13.5781 45.6189C13.7244 45.6189 14.09 46.2976 14.0047 46.3946C13.9559 46.4431 13.9803 46.5279 14.0656 46.5764C14.1631 46.6249 14.2484 46.7461 14.2606 46.843C14.4434 47.643 14.5165 47.8248 14.6506 47.8854C14.7481 47.9217 14.7847 47.9945 14.7481 48.0672C14.7115 48.1278 14.7725 48.2854 14.8821 48.4066C14.9918 48.5278 15.0528 48.6853 15.0162 48.7459C14.9796 48.8065 15.0528 48.952 15.1868 49.0732C15.3209 49.1944 15.394 49.3398 15.3574 49.3883C15.3209 49.4489 15.3452 49.4974 15.4184 49.4974C15.4915 49.4974 15.5037 49.5822 15.4671 49.7034C15.4184 49.8368 15.4306 49.8731 15.5281 49.8125C15.6255 49.7519 15.6743 49.8246 15.6743 50.0186C15.6743 50.1761 15.784 50.5276 15.918 50.8064C16.0521 51.073 16.1618 51.3639 16.1618 51.4366C16.1618 51.5094 16.2471 51.6548 16.3446 51.7518C16.4421 51.8609 16.5274 52.0669 16.5274 52.2366C16.5274 52.4063 16.6127 52.5638 16.7224 52.6123C16.8199 52.6487 16.8808 52.7578 16.8442 52.8426C16.7711 53.0365 16.9905 53.5941 17.222 53.8365C17.3073 53.9213 17.3439 54.0668 17.3073 54.1637C17.2586 54.2607 17.283 54.3455 17.3561 54.3455C17.417 54.3455 17.4658 54.5516 17.4658 54.794C17.4658 55.0849 17.5145 55.2424 17.5998 55.2303C17.7339 55.194 17.807 55.4364 17.7583 55.7151C17.7217 55.9212 18.3432 57.0726 18.587 57.2423C18.721 57.3393 18.8063 57.4605 18.7698 57.5089C18.7454 57.5574 18.8551 57.7392 19.0257 57.9089C19.1963 58.0907 19.306 58.2846 19.2694 58.3452C19.2329 58.418 19.2694 58.4665 19.3669 58.4665C19.5619 58.4665 19.7325 58.7937 19.6228 58.9634C19.5863 59.024 19.6472 59.1088 19.7447 59.1452C19.8544 59.1816 19.9397 59.2906 19.9397 59.3634C19.9397 59.4482 20.1591 59.7391 20.415 60.0179C20.6709 60.2845 20.8659 60.539 20.8415 60.5633C20.805 60.5875 20.9756 60.7451 21.2193 60.9026C21.4509 61.0602 21.6459 61.2663 21.6459 61.3632C21.6459 61.4481 21.719 61.4965 21.8165 61.4602C21.9262 61.4117 22.0237 61.4844 22.0724 61.6177C22.243 62.1632 22.4624 62.1268 22.8524 61.4965C23.0596 61.1693 23.1692 60.8905 23.0961 60.8905C22.9377 60.8905 22.6208 60.5875 22.6208 60.4299C22.6208 60.2845 22.0846 59.7997 21.914 59.7997C21.8287 59.7997 21.7677 59.7512 21.7677 59.6785C21.7677 59.6179 21.6824 59.5936 21.5728 59.6421C21.4143 59.7027 21.3899 59.6664 21.4631 59.4603C21.5118 59.3028 21.4874 59.1937 21.4143 59.1937C21.3412 59.1937 21.2803 59.1088 21.2803 59.0119C21.2803 58.927 21.1828 58.7937 21.0731 58.721C20.9512 58.6604 20.8659 58.5634 20.8903 58.5028C20.9147 58.4543 20.8294 58.3816 20.7075 58.3452C20.5734 58.3089 20.4881 58.1756 20.4881 57.9816C20.5003 57.5574 20.1834 57.0241 19.7935 56.7938C19.5985 56.6848 19.4522 56.5514 19.4522 56.4908C19.4522 56.4424 19.5132 56.4302 19.5863 56.4666C19.6594 56.5151 19.7935 56.4545 19.891 56.3333C20.025 56.1636 20.0981 56.1393 20.1469 56.2605C20.22 56.4302 20.9025 56.3575 21.3778 56.1272C21.6093 56.0181 21.6824 56.0303 21.7677 56.1636C21.8409 56.2605 21.8896 56.2848 21.8896 56.2121C21.8896 56.0424 22.5233 56.0545 22.6574 56.2242C22.7183 56.309 22.7671 56.309 22.8402 56.2242C22.9377 56.0787 23.1692 56.0666 23.2911 56.1878C23.3399 56.2363 23.4861 56.2242 23.608 56.1515C23.742 56.0909 23.8395 56.0787 23.8395 56.1393C23.8395 56.1878 24.0589 56.2363 24.327 56.2484C24.5951 56.2484 24.8145 56.2121 24.8145 56.1393C24.8145 56.0787 24.8876 56.0666 24.9729 56.1272C25.046 56.1757 25.8016 56.2242 26.6303 56.2242L28.1537 56.2484L28.2755 56.612C28.3608 56.8181 28.4705 56.9514 28.568 56.9272C28.6533 56.8908 28.8118 56.9029 28.9336 56.9635C29.2627 57.0969 30.5911 57.109 30.7739 56.9635C30.981 56.806 31.0298 56.8181 31.1638 57.0362C31.237 57.1453 31.2979 57.1575 31.371 57.0605C31.4807 56.9029 32.0413 56.9029 32.1632 57.0605C32.2241 57.1575 32.2728 57.1575 32.346 57.0726C32.4191 56.9635 32.675 56.9272 32.7725 57.012C32.8456 57.0726 34.3202 57.0847 34.3202 57.0241C34.3202 56.9756 34.4299 56.9393 34.564 56.9272C34.698 56.915 34.8077 56.9756 34.8077 57.0484C34.8077 57.1453 34.8443 57.1453 34.9052 57.0726C35.0149 56.915 35.5755 56.9029 35.6974 57.0726C35.7583 57.1575 35.807 57.1575 35.8802 57.0726C35.9533 56.9635 36.2092 56.9272 36.3067 57.012C36.4042 57.0969 37.367 57.0847 37.367 56.9999C37.367 56.9272 37.4766 56.9393 37.6229 57.012C37.8057 57.109 37.9154 57.109 38.0372 57.012C38.1591 56.9029 38.2688 56.9029 38.4638 57.012C38.6588 57.1211 38.7685 57.109 38.9025 56.9999C39.0366 56.8908 39.1219 56.8908 39.1706 56.9756C39.2437 57.0726 40.1578 57.109 40.2674 57.012C40.3528 56.9272 40.6087 56.9635 40.694 57.0726C40.7549 57.1575 40.8037 57.1575 40.8768 57.0605C40.9255 56.9999 41.0962 56.9393 41.2668 56.9393C41.4374 56.9393 41.608 56.9999 41.6689 57.0605C41.7299 57.1575 41.7786 57.1575 41.8517 57.0726C41.9492 56.9272 42.1808 56.915 42.3027 57.0362C42.3514 57.0847 42.4976 57.0726 42.6195 56.9999C42.7536 56.9393 42.8511 56.9272 42.8511 56.9878C42.8511 57.0362 43.0704 57.0847 43.3385 57.0969C43.6067 57.0969 43.826 57.0726 43.826 57.0241C43.826 56.9756 43.9357 56.9393 44.0698 56.9272C44.2038 56.915 44.3135 56.9635 44.3135 57.0241C44.3135 57.0969 44.3622 57.1211 44.411 57.0847C44.6182 56.9635 45.1666 56.915 45.1666 57.0241C45.1666 57.0847 45.2519 57.1332 45.3616 57.1332C45.4591 57.1332 45.52 57.0847 45.4834 57.0241C45.4347 56.9635 45.5078 56.9272 45.6175 56.9514C45.7394 56.9756 45.8369 56.9999 45.8369 57.012C45.8369 57.0241 46.5803 57.0605 47.4821 57.0847C48.3839 57.109 49.4564 57.1575 49.8585 57.1938C50.2607 57.2302 51.1503 57.2908 51.845 57.315C52.5275 57.3393 53.1368 57.3999 53.1977 57.4241C53.3196 57.4968 54.8552 57.5211 55.3061 57.4605C55.5011 57.4241 55.6107 57.4605 55.562 57.5211C55.5254 57.5938 55.6107 57.6059 55.7814 57.5453C55.9398 57.4968 56.1348 57.4726 56.1957 57.4726C56.8782 57.5817 58.7915 57.5574 58.9256 57.4483C59.1328 57.2908 59.1815 57.3029 59.3156 57.5211C59.4009 57.6423 59.4252 57.6301 59.4252 57.4605C59.4252 57.3514 59.4984 57.2544 59.5837 57.2423C59.6568 57.2423 62.5329 57.2181 65.9452 57.1938C69.3697 57.1696 72.6846 57.1211 73.3183 57.0847C73.952 57.0605 74.6101 57.0362 74.7685 57.0241C75.0245 57.012 75.0488 56.9756 74.9757 56.5999C74.9026 56.2363 74.927 56.1878 75.2073 56.1151C75.4266 56.0545 75.5119 55.9575 75.5119 55.7636C75.5119 55.606 75.5607 55.4364 75.6216 55.3758C75.6826 55.303 75.7679 54.9637 75.8044 54.6001C75.841 54.2364 75.9385 53.8971 76.0116 53.8486C76.0969 53.8001 76.1213 53.6789 76.0847 53.5698C76.036 53.4607 76.0604 53.3759 76.1213 53.3759C76.1944 53.3759 76.2432 53.3032 76.2432 53.2062C76.2432 53.1093 76.3163 53.0002 76.4016 52.9759C76.5113 52.9274 76.5113 52.879 76.3772 52.7941C76.2432 52.6972 76.2553 52.6608 76.4138 52.5638C76.5235 52.5032 76.6331 52.3336 76.6453 52.1881C76.6575 52.0427 76.6941 51.9215 76.7306 51.9215C76.8647 51.9215 77.1694 51.1458 77.145 50.8549C77.1328 50.7094 77.1815 50.5882 77.2303 50.5882C77.2912 50.5882 77.34 50.4549 77.34 50.2852C77.34 50.1155 77.4253 49.9458 77.5228 49.9095C77.6325 49.861 77.6812 49.7519 77.6446 49.6186C77.6081 49.5095 77.6568 49.3398 77.7665 49.255C77.864 49.1701 77.9493 48.952 77.9493 48.758C77.9493 48.5641 77.9981 48.4066 78.0468 48.4066C78.0956 48.4066 78.2052 48.1641 78.2906 47.8611C78.3759 47.5581 78.4855 47.3157 78.5587 47.3157C78.6196 47.3157 78.6805 47.146 78.6805 46.9521C78.6805 46.7218 78.7537 46.5521 78.8755 46.5037C78.973 46.4673 79.034 46.3703 78.9974 46.2734C78.9608 46.1885 79.0461 45.9825 79.1802 45.8128C79.4239 45.5098 79.5458 45.1704 79.5702 44.7341C79.5824 44.625 79.6189 44.528 79.6677 44.528C79.8139 44.528 80.143 43.7887 80.143 43.4857C80.143 43.3281 80.2161 43.1584 80.3014 43.11C80.4964 42.9888 80.8864 41.9828 80.8011 41.8494C80.7645 41.7888 80.7889 41.7404 80.862 41.7404C81.1057 41.7404 81.4226 40.9041 81.4713 40.189C81.4835 40.1041 81.5445 40.0678 81.6176 40.1041C81.6907 40.1526 81.7273 40.1162 81.7151 40.0314C81.6663 39.789 81.8491 39.3163 81.9832 39.3163C82.0563 39.3163 82.0685 39.2678 82.0319 39.1951C81.9954 39.1345 82.0685 38.989 82.2025 38.88C82.3366 38.7588 82.5194 38.4315 82.6047 38.1406C82.69 37.8497 82.7997 37.6194 82.8485 37.6194C82.8972 37.6194 82.9459 37.4498 82.9459 37.2437C82.9459 37.0377 82.9947 36.9043 83.0678 36.9528C83.1409 36.9892 83.1897 36.9165 83.1897 36.7831C83.1897 36.4195 83.2141 36.371 83.4578 36.1044C83.604 35.959 83.6406 35.8499 83.5553 35.8256C83.47 35.7893 83.5187 35.7044 83.6528 35.6075C83.7868 35.5226 83.9209 35.2923 83.9453 35.1105C84.0428 34.5894 84.0915 34.4197 84.2012 34.3348C84.2499 34.2985 84.3109 34.1409 84.3231 34.0076C84.3353 33.8621 84.4084 33.7409 84.4937 33.7409C84.579 33.7409 84.6521 33.6076 84.6521 33.4258C84.6521 33.2561 84.7009 33.147 84.7618 33.1834C84.8593 33.244 84.969 33.0258 85.0787 32.541C85.103 32.444 85.164 32.335 85.2249 32.2986C85.2736 32.2622 85.3955 32.0077 85.493 31.7411C85.5783 31.4744 85.7367 31.1593 85.8342 31.0502C85.9317 30.9411 85.9805 30.7957 85.9439 30.7351C85.9074 30.6745 85.9805 30.529 86.1145 30.4078C86.2486 30.2866 86.3583 30.0927 86.3583 29.9715C86.3583 29.8503 86.468 29.5594 86.602 29.317C86.7361 29.0746 86.8458 28.7231 86.8458 28.5171C86.8458 28.2868 86.8945 28.1777 86.9798 28.2262C87.0529 28.2746 87.1017 28.2383 87.0773 28.1534C87.0407 27.802 87.1017 27.5717 87.2845 27.3899C87.382 27.2808 87.4429 27.1475 87.3942 27.0869C87.3576 27.0262 87.382 26.9414 87.4551 26.8929C87.6501 26.7717 88.2107 25.4748 88.1376 25.3052C88.101 25.2203 88.1619 25.0628 88.2594 24.9658C88.3569 24.8567 88.4422 24.7355 88.43 24.687C88.43 24.4689 88.5763 24.1658 88.686 24.1658C88.7591 24.1658 88.7835 24.0689 88.7347 23.9356C88.6982 23.8144 88.7469 23.6447 88.8566 23.5598C88.9541 23.475 89.0394 23.2811 89.0394 23.1235C89.0394 22.9659 89.1003 22.8326 89.1613 22.8326C89.2344 22.8326 89.2831 22.7235 89.2831 22.6023C89.2831 22.469 89.3441 22.3236 89.4172 22.2872C89.4903 22.2387 89.5147 22.1296 89.4781 22.0327C89.3928 21.8145 89.5269 21.4872 89.6609 21.5721C89.7219 21.6084 89.7706 21.4994 89.7706 21.3297C89.7706 21.16 89.8194 21.0146 89.8925 21.0146C89.9534 21.0146 89.9778 20.9297 89.9412 20.8327C89.8925 20.7358 89.929 20.6509 90.0143 20.6509C90.0875 20.6509 90.124 20.6025 90.0753 20.5297C90.0387 20.4691 90.1118 20.3116 90.2337 20.1904C90.5384 19.8874 90.8796 19.1965 90.7943 19.0632C90.7577 19.0026 90.8065 18.9541 90.8918 18.9541C91.0502 18.9541 91.3183 18.5299 91.5986 17.8633C91.6596 17.6936 91.8058 17.4512 91.9033 17.3057C92.0861 17.0633 92.0617 17.0391 91.3671 16.6149C90.6481 16.1664 90.1362 16.0452 90.1362 16.3119C90.1362 16.3846 90.0997 16.4209 90.0631 16.3725C90.0143 16.3361 89.6975 16.4452 89.3563 16.6391C89.015 16.833 88.6616 16.9542 88.5885 16.93C88.5032 16.8936 88.43 16.9179 88.43 16.9906C88.43 17.0512 88.296 17.1603 88.1254 17.233C87.9548 17.3178 87.8207 17.33 87.8207 17.2572C87.8207 17.1966 87.7354 17.1724 87.6379 17.2088C87.5404 17.2572 87.4795 17.3178 87.5038 17.3663C87.5404 17.4148 87.4429 17.4633 87.2967 17.4754C87.1504 17.4875 86.9432 17.5239 86.8458 17.536C86.7483 17.5603 86.4558 17.6209 86.212 17.6815C85.9561 17.7299 85.7489 17.8027 85.7489 17.8511C85.7489 17.8875 85.6393 17.9966 85.493 18.0814C85.2858 18.2147 85.2493 18.2147 85.3346 18.0814C85.3955 17.9845 85.3102 18.0087 85.103 18.1299C84.9324 18.2511 84.6399 18.3481 84.4693 18.3481C84.2621 18.3481 84.1768 18.3966 84.2378 18.4935C84.2987 18.5905 84.2134 18.6026 83.9453 18.5541C83.6772 18.5056 83.5065 18.5299 83.3725 18.6632C83.275 18.7723 83.1897 18.7965 83.1897 18.7359C83.1897 18.6026 82.4463 18.8208 82.3244 18.9905C82.2879 19.0389 82.1172 19.0995 81.9588 19.1117C81.8004 19.1117 81.6298 19.1723 81.5932 19.2329C81.5201 19.3298 81.2276 19.4147 80.8498 19.4268C80.7279 19.4389 80.6304 19.5116 80.6304 19.6086C80.6304 19.7298 80.4598 19.7662 80.0089 19.7662C79.5824 19.754 79.3386 19.8146 79.2411 19.9358C79.168 20.0449 79.0461 20.1055 78.9608 20.0813C78.8877 20.057 78.583 20.154 78.2784 20.2873C77.9737 20.4328 77.5959 20.5661 77.4375 20.5903C77.279 20.6146 76.8891 20.7237 76.56 20.8206C76.2432 20.9297 75.9263 20.9782 75.8654 20.9418C75.8044 20.9055 75.7191 20.954 75.6826 21.0509C75.6338 21.1964 75.5363 21.2085 75.2316 21.1236C74.8051 21.0024 73.9276 21.0994 73.9276 21.2691C73.9276 21.3297 73.8423 21.3782 73.7448 21.3782C73.6473 21.3782 73.562 21.4145 73.562 21.4751C73.562 21.5236 73.3305 21.5721 73.0624 21.5721C72.7821 21.5842 72.5262 21.6448 72.4774 21.7054C72.4408 21.766 72.3068 21.8509 72.1849 21.8993C72.0631 21.9478 71.9899 22.0205 72.0143 22.069C72.0509 22.1296 71.7949 22.1781 71.4537 22.1902C70.6128 22.2145 70.3447 22.2629 70.2472 22.4084C70.0888 22.6266 70.0278 22.3963 70.1497 21.9963C70.2594 21.5842 70.1985 20.9297 70.0157 20.8206C69.9669 20.7964 69.9669 20.6388 70.0157 20.4934C70.1741 20.1055 70.1131 19.5601 69.8816 19.1117C69.7719 18.8935 69.7354 18.6874 69.7841 18.6511C69.9303 18.5541 69.8572 17.5481 69.6866 17.3421C69.5891 17.233 69.5891 17.0997 69.711 16.8815C69.8938 16.53 69.8207 15.6937 69.6013 15.5968C69.4916 15.5604 69.4551 15.3665 69.4672 15.0635C69.4916 14.7968 69.4551 14.5544 69.3941 14.518C69.3454 14.4817 69.321 14.409 69.3576 14.3605C69.4672 14.1787 69.0285 13.4878 68.6629 13.2575C68.3339 13.0636 68.2729 13.0636 67.9195 13.2333C67.7001 13.3302 67.3711 13.5727 67.1883 13.7545C66.9933 13.9363 66.6521 14.1181 66.4327 14.1544C66.2133 14.2029 65.9696 14.312 65.8843 14.409C65.8112 14.4938 65.5674 14.615 65.3603 14.6635C65.1409 14.6998 64.8362 14.8695 64.6778 15.0271C64.5194 15.1847 64.3366 15.2816 64.2756 15.2453C64.0563 15.1119 63.2032 15.5846 63.1301 15.8876C63.0691 16.1058 62.996 16.1543 62.7766 16.0937C62.4476 16.0088 61.3751 16.4694 61.3751 16.6876C61.3751 16.7724 61.2289 16.8573 61.0461 16.8694C60.4855 16.9179 59.9371 17.233 59.7787 17.6087C59.6934 17.8027 59.5715 17.936 59.5106 17.8996C59.3034 17.7784 58.3284 18.3966 58.3284 18.6511C58.3284 18.7117 58.1578 18.7844 57.9384 18.7965C57.5363 18.8329 56.7441 19.5237 56.7441 19.8631C56.7441 19.9843 56.6466 19.948 56.4273 19.7419C56.2323 19.5601 56.1348 19.3662 56.1835 19.2571C56.2688 19.0147 56.147 18.7117 55.9642 18.7117C55.8667 18.7117 55.8301 18.5662 55.8667 18.2875C55.9032 18.0087 55.8667 17.8633 55.7692 17.8633C55.6839 17.8633 55.6473 17.7784 55.6839 17.6936C55.7692 17.4754 55.4401 16.7724 55.2573 16.7724C55.172 16.7724 55.172 16.7239 55.2573 16.6149C55.4645 16.3603 55.3426 15.3059 55.0623 15.0877C54.8917 14.9423 54.8308 14.7726 54.8673 14.4696C54.9039 14.0817 54.6967 13.3787 54.5505 13.3787C54.5139 13.3787 54.4896 13.0878 54.4896 12.7242C54.4896 12.2758 54.4286 11.997 54.2702 11.8394C54.1605 11.7061 54.0996 11.5607 54.1483 11.5243C54.1849 11.4758 54.1361 11.4395 54.0264 11.4395C53.7949 11.4395 53.7462 11.2577 53.9411 11.1365C54.0143 11.088 54.0264 11.0031 53.9899 10.9304C53.9411 10.8577 53.8924 10.6274 53.868 10.4214C53.8558 10.2274 53.7462 9.98503 53.6243 9.90018C53.478 9.80322 53.4415 9.69414 53.5146 9.64566C53.5877 9.59717 53.6487 9.46385 53.673 9.33053C53.7218 9.08812 53.3684 8.14273 53.1977 8.03365C53.1368 7.99729 53.0637 7.80336 53.0515 7.59732C53.0271 7.40339 52.9174 7.0519 52.8078 6.84585C52.6981 6.62769 52.5762 6.25196 52.5275 5.99743C52.4909 5.75502 52.43 5.47625 52.3934 5.37929C52.3447 5.28233 52.3081 5.149 52.3081 5.07628C52.2959 5.01568 52.1619 4.89448 51.9912 4.80963C51.8206 4.72479 51.7597 4.65207 51.845 4.65207C52.04 4.65207 51.9547 3.98545 51.6988 3.50063C51.5891 3.29459 51.5038 3.04006 51.5038 2.91886C51.5038 2.79765 51.4185 2.61585 51.321 2.51889C51.2235 2.4098 51.1382 2.15528 51.1382 1.94923C51.1382 1.48866 50.7238 0.773555 50.4313 0.688712C50.3094 0.664472 50.1632 0.519027 50.1023 0.373583C49.9682 0.0826946 49.2126 -0.111231 48.8958 0.0705742ZM49.7367 1.84015C49.8098 1.88863 49.8707 2.03407 49.8585 2.1674C49.8585 2.30072 49.9073 2.44616 49.9682 2.48253C50.017 2.53101 50.1145 2.8219 50.1754 3.13702C50.2363 3.45215 50.346 3.79152 50.4313 3.88849C50.5044 3.98545 50.5897 4.15513 50.6019 4.26422C50.6629 4.67631 50.7238 4.84599 50.9432 5.16112C51.0528 5.33081 51.1382 5.54898 51.126 5.64594C51.065 5.96107 51.2966 6.73677 51.455 6.79737C51.5525 6.83373 51.5891 6.91858 51.5525 6.97918C51.5038 7.03978 51.5281 7.22158 51.5891 7.35491C52.0034 8.26393 52.1131 8.56694 52.04 8.66391C52.0034 8.73663 52.0644 8.85783 52.1862 8.94267C52.3203 9.03964 52.369 9.1972 52.3203 9.36689C52.2837 9.50021 52.3081 9.59717 52.369 9.56081C52.43 9.52445 52.4665 9.69414 52.4665 9.94866C52.4422 10.5304 52.7225 11.5607 52.9418 11.8031C53.0759 11.9243 53.0759 11.9849 52.9784 12.0212C52.8687 12.0576 52.8931 12.1303 53.0271 12.2879C53.1368 12.4091 53.2343 12.6757 53.2343 12.8818C53.2465 13.0878 53.283 13.2212 53.3318 13.1969C53.3684 13.1727 53.4171 13.4272 53.4171 13.7545C53.4171 14.0938 53.478 14.4211 53.5512 14.4938C53.6243 14.5665 53.6487 14.6877 53.6243 14.7726C53.5877 14.8453 53.6487 14.9907 53.7583 15.0756C53.9533 15.2453 54.0143 15.4998 53.8193 15.3786C53.6365 15.2574 53.673 15.4028 53.8924 15.621C54.0143 15.7301 54.0996 15.9846 54.0874 16.1785C54.0874 16.3725 54.1118 16.53 54.1605 16.53C54.2093 16.53 54.258 16.833 54.258 17.2088C54.2702 17.5845 54.3311 17.9239 54.3799 17.9723C54.4408 18.0087 54.5139 18.1784 54.5261 18.3481C54.5505 18.5056 54.6602 18.6996 54.7699 18.7844C54.8795 18.8692 54.9283 19.0026 54.8795 19.1238C54.8308 19.245 54.8308 19.4025 54.8795 19.4753C54.9283 19.548 54.977 19.7177 55.0014 19.851C55.1964 21.257 55.2451 21.463 55.5011 21.7175C55.6595 21.8751 55.7326 22.0569 55.6839 22.1781C55.6351 22.3236 55.6473 22.3599 55.7448 22.2993C55.8423 22.2387 55.891 22.3478 55.891 22.6387C55.891 22.8811 55.891 23.0993 55.891 23.1356C55.9154 23.378 56.281 24.2143 56.4395 24.3719C56.5979 24.5295 56.6101 24.5901 56.476 24.6628C56.3663 24.7355 56.3541 24.7719 56.4638 24.7719C56.6223 24.7719 56.8172 25.3173 56.7563 25.6082C56.7441 25.693 56.7807 25.7294 56.8416 25.693C56.9147 25.6566 56.9879 25.8021 57.0244 26.0203C57.061 26.2263 57.1219 26.5414 57.1707 26.7111C57.3657 27.4141 57.3413 27.4505 56.476 27.6807C56.0251 27.7898 55.6229 27.8626 55.5864 27.8262C55.5498 27.7898 55.4036 27.8262 55.2451 27.8989C55.0989 27.9716 54.5749 28.1171 54.0752 28.214C52.8687 28.4565 52.7834 28.5534 53.1734 29.3412C53.344 29.6927 53.5633 29.9836 53.6487 29.9836C53.7462 29.9836 53.8193 29.9473 53.8193 29.8867C53.8193 29.8382 54.0508 29.7897 54.3189 29.7776C54.5992 29.7533 54.8917 29.6927 54.977 29.62C55.0623 29.5473 55.1842 29.4988 55.233 29.5109C55.2939 29.523 55.367 29.5109 55.4036 29.4988C55.4767 29.4746 55.9032 29.4018 56.5491 29.3291C56.8051 29.2928 57.195 29.2079 57.4022 29.1352C57.6216 29.0746 57.9384 29.0261 58.1212 29.0382C58.4015 29.0625 58.4625 29.1352 58.5356 29.523C58.5722 29.7776 58.6575 30.02 58.7062 30.0563C58.7672 30.0927 58.7793 30.1775 58.7428 30.2503C58.6453 30.3957 59.1328 30.3351 59.7055 30.1169C59.998 30.0079 60.0346 29.9351 59.9737 29.6079C59.9371 29.4018 59.8274 29.1473 59.7299 29.0503C59.4009 28.7231 59.5471 28.5292 60.3393 28.2868C60.6074 28.2019 60.8877 28.105 60.9486 28.0686C61.0217 28.0201 61.2655 27.9838 61.497 27.9838C62.2892 27.9595 62.411 27.9232 62.7157 27.6444C62.8863 27.4989 63.1544 27.3656 63.325 27.3535C63.4957 27.3293 63.8491 27.305 64.1172 27.2808C64.4584 27.2565 64.6412 27.1717 64.7265 27.002C64.8362 26.7838 64.9093 26.7717 65.2018 26.8687C65.4821 26.9656 65.5796 26.9414 65.6649 26.7838C65.7259 26.6748 65.8721 26.5899 65.9818 26.5899C66.0915 26.5899 66.323 26.4808 66.4936 26.3475C66.6764 26.2021 66.9933 26.1051 67.298 26.1051C67.7367 26.1051 68.212 25.8748 68.5654 25.4991C68.602 25.4627 68.8335 25.4264 69.0894 25.4142C69.3332 25.4021 69.6257 25.3052 69.7354 25.2082C69.8329 25.0991 70.04 25.0143 70.1863 25.0143C70.3325 25.0143 70.6128 24.9294 70.8078 24.8325C70.9906 24.7355 71.2222 24.6507 71.3075 24.6507C71.3928 24.6507 71.5634 24.5173 71.6853 24.3476C71.8315 24.1537 71.9899 24.0689 72.1118 24.1052C72.2337 24.1416 72.3555 24.1174 72.4043 24.0446C72.4408 23.9719 72.5262 23.9477 72.5871 23.984C72.709 24.0568 73.2086 23.8144 73.3427 23.6083C73.3914 23.5356 73.6595 23.475 73.9276 23.4629C74.4761 23.4386 75.122 23.1599 75.2316 22.8811C75.2682 22.7962 75.4266 22.7114 75.5729 22.7114C75.7313 22.7114 75.9019 22.6508 75.9385 22.5902C75.9872 22.5175 76.0725 22.4932 76.1335 22.5296C76.1944 22.5781 76.3163 22.566 76.4016 22.5054C76.6575 22.3357 77.3765 22.1175 77.474 22.1781C77.5228 22.2023 77.7909 22.1781 78.059 22.1175C78.4002 22.0448 78.5709 22.0569 78.6074 22.1539C78.644 22.2508 78.6927 22.2508 78.7658 22.1539C78.8268 22.0811 79.2777 22.0327 79.8749 22.0448L80.8742 22.069V21.4145C80.8742 20.9903 80.9229 20.7721 81.0326 20.76C81.5201 20.7115 81.9832 20.5419 82.2513 20.3116C82.3732 20.2025 82.69 20.1055 82.9703 20.0934C83.2384 20.0813 83.5065 19.9964 83.5553 19.9237C83.604 19.851 83.6772 19.7904 83.7259 19.7904C83.9696 19.8268 84.0428 19.7783 84.0428 19.6086C84.0428 19.451 84.0793 19.4389 84.2256 19.5601C84.5059 19.7904 85.4443 19.6086 85.8099 19.245C85.9805 19.0753 86.1633 18.9662 86.2242 19.0026C86.3705 19.0995 87.1748 18.8571 87.3698 18.6511C87.4795 18.5541 87.6866 18.5056 87.9182 18.542C88.4057 18.6147 89.1125 18.3238 89.2222 17.9966C89.2831 17.7905 89.3441 17.7663 89.5391 17.8754C89.7219 17.9602 89.8315 17.9602 89.9656 17.8511C90.0875 17.7542 90.1362 17.7542 90.1362 17.8511C90.1362 17.9239 90.0875 17.9845 90.0387 17.9845C89.9778 17.9845 89.8315 18.2269 89.6975 18.5299C89.5756 18.8329 89.4416 19.0753 89.3928 19.0753C89.3441 19.0753 89.2709 19.2207 89.2222 19.4025C89.1856 19.5965 89.015 19.9358 88.8444 20.1782C88.4666 20.7237 88.2838 21.3418 88.4544 21.4509C88.5397 21.4994 88.5154 21.5721 88.3813 21.6448C88.2716 21.7054 88.1863 21.8266 88.1863 21.9236C88.1863 22.0084 88.1254 22.1054 88.0644 22.1296C87.9913 22.1539 87.9304 22.3842 87.906 22.6508C87.8938 22.9417 87.7963 23.1962 87.6745 23.2932C87.3454 23.5356 87.0529 24.2507 87.1139 24.6507C87.1504 24.9294 87.1139 25.0264 86.9311 25.087C86.8092 25.1234 86.7361 25.184 86.7726 25.2203C86.8092 25.2688 86.7848 25.3658 86.7117 25.4506C86.6386 25.5354 86.5776 25.8021 86.5655 26.0324C86.5533 26.2748 86.4923 26.4687 86.4192 26.4687C86.1389 26.4808 85.8099 27.1475 85.8099 27.705C85.8221 28.0686 85.7611 28.2989 85.6636 28.3352C85.5783 28.3716 85.5052 28.4807 85.5052 28.5898C85.5052 28.6867 85.4564 28.7716 85.3833 28.7716C85.3224 28.7716 85.2615 28.917 85.2615 29.0867C85.2615 29.2806 85.2127 29.3655 85.1152 29.3049C85.0177 29.2443 85.0055 29.3291 85.0543 29.5836C85.1152 29.8867 85.0787 29.9715 84.8227 30.1048C84.6643 30.1897 84.5181 30.323 84.5181 30.3957C84.4937 30.6624 84.4571 30.7714 84.3109 31.1229C84.2256 31.3169 84.189 31.5714 84.2256 31.6926C84.2743 31.838 84.2134 31.9229 84.055 31.9835C83.7747 32.0683 83.4578 32.6501 83.409 33.1834C83.3847 33.3773 83.2141 33.6924 83.0313 33.8985C82.751 34.2015 82.69 34.3591 82.7388 34.6742C82.7875 34.9408 82.7631 35.0742 82.6656 35.0742C82.5194 35.0742 82.3244 35.3287 82.0076 35.8983C81.9222 36.0559 81.8735 36.3347 81.8979 36.5407C81.9222 36.7347 81.8979 36.8922 81.8369 36.8922C81.6785 36.8922 81.2154 37.9831 81.2885 38.177C81.3251 38.2739 81.3007 38.3467 81.2276 38.3467C80.862 38.3467 80.3867 39.1587 80.3867 39.789C80.3867 39.9829 80.3014 40.2011 80.2039 40.2859C80.1064 40.3708 80.0211 40.5162 80.0211 40.601C80.0211 40.6859 79.8505 41.0859 79.6433 41.4858C79.3021 42.1767 79.1802 42.5039 79.1314 42.9524C79.1193 43.0494 79.034 43.1827 78.9608 43.2312C78.8755 43.2796 78.8024 43.413 78.8024 43.4978C78.8024 43.5948 78.7537 43.6796 78.6805 43.6796C78.6196 43.6796 78.5587 43.7887 78.5587 43.9099C78.5587 44.0432 78.4734 44.2372 78.3637 44.3341C78.2662 44.4432 78.2052 44.5765 78.254 44.6371C78.2906 44.6977 78.2662 44.7826 78.1931 44.8311C78.1321 44.8674 78.0712 45.0371 78.0712 45.1947C78.0712 45.3522 77.9737 45.5704 77.864 45.6916C77.5228 46.031 77.34 46.4552 77.3887 46.843C77.4131 47.0733 77.3644 47.243 77.2669 47.2794C76.9987 47.3763 76.6941 48.1278 76.755 48.5278C76.7916 48.7823 76.755 48.8914 76.6453 48.8914C76.5478 48.8914 76.5113 48.9399 76.5478 49.0126C76.5844 49.0732 76.56 49.1338 76.4991 49.1338C76.3041 49.1338 75.9872 49.9943 76.0238 50.3822C76.0482 50.564 75.9994 50.7579 75.9385 50.8064C75.7191 50.964 75.5119 51.4366 75.5119 51.7881C75.5119 52.0063 75.4144 52.2123 75.2804 52.3093C74.9148 52.5638 74.6467 53.3274 74.7929 53.7032C74.9026 53.994 74.7929 54.2122 74.537 54.2243C74.5004 54.2243 74.4639 54.394 74.4517 54.5879C74.4395 54.7819 74.3176 55.0606 74.1836 55.2061C73.9398 55.4606 74.0373 55.4606 71.0881 55.5454C70.6981 55.5576 70.5275 55.606 70.5884 55.6909C70.6372 55.7757 70.5763 55.7757 70.3934 55.6788C70.2106 55.5818 69.7841 55.5576 69.0773 55.606C67.7245 55.703 63.4469 55.7273 63.2032 55.6303C62.9107 55.5212 60.8389 55.4727 60.583 55.5576C60.4489 55.606 60.254 55.606 60.1565 55.5576C59.9493 55.4485 58.4747 55.2788 57.5728 55.2667C57.2682 55.2546 57.0366 55.2182 57.061 55.1818C57.0854 55.1334 56.9026 55.1091 56.6466 55.1334C56.4029 55.1455 56.1592 55.097 56.1104 55.0243C56.0373 54.9273 55.9885 54.9273 55.9276 55.0243C55.8179 55.1697 55.4036 55.2061 55.4036 55.0606C55.4036 55.0121 55.172 54.9879 54.8917 55C54.5992 55.0243 54.3067 54.9879 54.2214 54.9273C54.1361 54.8546 53.9899 54.8788 53.8193 54.9758C53.6487 55.0849 53.539 55.097 53.478 55C53.4293 54.9273 53.2343 54.8788 53.0271 54.8788C52.8321 54.8788 52.5275 54.8303 52.369 54.7819C52.1619 54.7091 52.1009 54.7213 52.174 54.8303C52.2472 54.9394 52.1862 54.9394 51.9791 54.8182C51.8206 54.7334 51.4672 54.6607 51.1991 54.6485C50.931 54.6485 50.6507 54.6001 50.5776 54.5516C50.5044 54.5152 50.4069 54.5152 50.3582 54.5516C50.2363 54.6728 49.7732 54.7213 49.8463 54.6001C49.8829 54.5516 49.7001 54.5152 49.4198 54.5273C49.1517 54.5395 48.908 54.5031 48.8714 54.4546C48.8348 54.394 48.7495 54.3455 48.6886 54.3455C48.6155 54.3455 48.6033 54.4061 48.652 54.491C48.713 54.5879 48.6764 54.6001 48.5058 54.5273C48.3839 54.4789 47.9696 54.4304 47.604 54.4304C47.2383 54.4304 46.8971 54.3698 46.8484 54.297C46.7996 54.2243 46.7021 54.2243 46.5924 54.3213C46.4584 54.4425 46.3365 54.4425 46.0928 54.3334C45.8612 54.2243 45.7394 54.2243 45.6053 54.3334C45.5078 54.4183 45.3981 54.4304 45.3616 54.3698C45.325 54.3092 44.9838 54.2728 44.6182 54.2849C44.2404 54.3092 43.9479 54.2728 43.9479 54.2122C43.9479 54.1395 43.8748 54.1274 43.8016 54.188C43.5701 54.3334 43.0461 54.3213 42.9486 54.1758C42.8754 54.0789 42.8267 54.0789 42.7658 54.1637C42.6804 54.2728 42.4245 54.3092 42.3392 54.2243C42.2539 54.1516 40.7793 54.1516 40.7793 54.2122C40.7793 54.2607 40.6696 54.297 40.5356 54.3092C40.4015 54.3213 40.2918 54.2728 40.2918 54.2122C40.2918 54.1395 40.2431 54.1152 40.1943 54.1516C39.975 54.2849 39.4387 54.3213 39.3778 54.2122C39.3291 54.1516 39.2437 54.1031 39.1828 54.1031C39.1097 54.1031 39.0975 54.1637 39.1462 54.2486C39.2072 54.3455 39.1706 54.3577 39 54.2849C38.7441 54.1758 37.1232 54.1274 37.1232 54.2243C37.1232 54.2607 37.0135 54.297 36.8795 54.3092C36.7454 54.3213 36.6357 54.2849 36.6357 54.2243C36.6357 54.1637 36.4895 54.188 36.3189 54.2849C36.1483 54.3698 35.8436 54.4183 35.6364 54.3819C35.3927 54.3455 35.2952 54.3698 35.3561 54.4546C35.3927 54.5273 35.3439 54.5879 35.2464 54.5879C35.1489 54.5879 35.0271 54.5273 34.9905 54.4667C34.9418 54.394 34.7346 54.3698 34.5274 54.4061C34.3081 54.4304 33.9181 54.491 33.65 54.5395C33.3818 54.5758 33.0284 54.6364 32.8578 54.6607C32.4313 54.7455 28.044 54.7455 27.3128 54.6728C26.9715 54.6364 26.6425 54.6607 26.5572 54.7334C26.4597 54.8061 26.3988 54.8182 26.3988 54.7455C26.3988 54.6849 26.1428 54.6122 25.826 54.6001C24.6317 54.5516 24.3879 54.5273 24.2661 54.4546C24.2051 54.4183 23.6933 54.3819 23.1449 54.394C22.5965 54.4061 22.1821 54.3698 22.2065 54.3213C22.2308 54.2849 22.048 54.2486 21.8043 54.2607C21.5484 54.2728 21.2071 54.2364 21.0487 54.1758C20.8415 54.1031 20.7806 54.1152 20.8537 54.2243C20.9878 54.4425 20.5369 54.3213 20.22 54.0546C20.0616 53.9213 19.9397 53.7274 19.9397 53.6183C19.9397 53.5092 19.83 53.3153 19.696 53.1941C19.5497 53.0729 19.4644 52.9032 19.501 52.8184C19.5375 52.7335 19.4766 52.6002 19.3791 52.5275C19.2816 52.4426 19.2085 52.2487 19.2085 52.0911C19.2085 51.9336 19.1597 51.8003 19.111 51.8003C19.0623 51.8003 19.0135 51.6791 19.0013 51.5457C18.9648 51.0609 18.5504 49.9216 18.3676 49.7762C18.2579 49.7034 18.2092 49.5944 18.2579 49.558C18.3067 49.5095 18.2823 49.3519 18.2092 49.2065C18.1239 49.0732 18.0751 48.9156 18.0873 48.855C18.0995 48.8065 18.0629 48.7702 18.002 48.7702C17.9411 48.7702 17.9167 48.649 17.9654 48.5035C18.002 48.346 17.9776 48.2732 17.9045 48.3217C17.8314 48.3702 17.807 48.2732 17.8436 48.0793C17.8801 47.8611 17.8314 47.7157 17.6851 47.5945C17.5389 47.4975 17.5145 47.4369 17.612 47.4369C17.7339 47.4369 17.7217 47.3642 17.5755 47.1339C17.4658 46.9764 17.3805 46.7582 17.3805 46.6612C17.3805 46.5764 17.2952 46.4552 17.1855 46.4188C17.0636 46.3703 17.0149 46.2734 17.0636 46.1522C17.1123 46.0188 17.0514 45.8855 16.893 45.7764C16.7467 45.6674 16.6492 45.4734 16.6492 45.2431C16.6492 45.025 16.6005 44.9038 16.5274 44.9523C16.4543 45.0007 16.4055 44.8795 16.4055 44.6856C16.4055 44.4917 16.3202 44.225 16.2227 44.0917C16.1252 43.9463 16.0765 43.8008 16.1252 43.7645C16.1618 43.716 16.1008 43.6554 15.9912 43.6069C15.8815 43.5705 15.8205 43.4857 15.8571 43.4372C15.9424 43.2918 15.4549 42.3827 15.2478 42.2979C15.1503 42.2615 15.1015 42.1282 15.1259 41.9828C15.1746 41.7525 14.7725 40.8071 14.5653 40.6495C14.5287 40.6132 14.419 40.3829 14.3215 40.1284C14.2362 39.8738 14.0534 39.5587 13.9316 39.4375C13.8097 39.292 13.7731 39.1951 13.8584 39.1951C13.9316 39.1951 13.8584 39.0496 13.6756 38.88C13.3832 38.5769 13.31 38.4315 13.3466 38.1891C13.3466 38.1406 13.2735 38.1043 13.176 38.1043C13.0785 38.1043 13.0054 38.0679 13.0176 38.0073C13.0785 37.7649 12.8226 36.868 12.6763 36.8074C12.5788 36.771 12.5057 36.6498 12.5057 36.5286C12.5057 36.4195 12.3716 36.2256 12.2132 36.1044C12.0548 35.9832 11.9451 35.8135 11.9817 35.7165C12.0182 35.6317 11.9573 35.5347 11.8598 35.4863C11.7379 35.4378 11.6892 35.3166 11.7257 35.1105C11.7623 34.9287 11.7379 34.8439 11.6526 34.8924C11.5429 34.953 11.4698 34.7106 11.5186 34.4318C11.5308 34.3833 11.3845 34.1167 11.2017 33.8258C11.0189 33.547 10.8727 33.2804 10.8605 33.244C10.8605 33.2076 10.763 33.0864 10.6533 32.9652C10.4096 32.7349 10.3608 32.5895 10.5558 32.7107C10.7752 32.844 10.6777 32.6259 10.4217 32.4077C10.2877 32.2865 10.1658 32.0683 10.1536 31.935C10.1414 31.7895 10.0805 31.6805 10.0074 31.6805C9.93427 31.6805 9.86115 31.5471 9.84896 31.3775C9.83677 31.2078 9.72709 30.9775 9.61741 30.8442C9.19087 30.3836 9.09337 30.2381 9.09337 30.0685C9.09337 29.9836 9.03244 29.8503 8.9715 29.7897C8.89838 29.717 8.81307 29.5352 8.7887 29.3655C8.75214 29.2079 8.67902 29.0625 8.6059 29.0382C8.54496 29.014 8.37435 28.7473 8.21592 28.4443C8.06967 28.1534 7.83812 27.8504 7.72844 27.7898C7.60657 27.7171 7.53345 27.608 7.5822 27.5474C7.61876 27.4747 7.53345 27.3899 7.38721 27.3535C7.22878 27.305 7.10691 27.1596 7.05816 26.9414C7.0216 26.7475 6.94848 26.6263 6.88754 26.6626C6.82661 26.699 6.77786 26.6384 6.77786 26.5414C6.77786 26.4324 6.71693 26.3475 6.64381 26.3475C6.58287 26.3475 6.54631 26.299 6.58287 26.2384C6.61943 26.1778 6.57069 26.0687 6.47319 25.9839C6.37569 25.8991 6.31476 25.79 6.35132 25.7415C6.38788 25.693 6.32695 25.5839 6.22945 25.4991C6.13196 25.4142 6.04665 25.2809 6.04665 25.184C6.04665 25.0991 5.93697 24.9658 5.79072 24.8931C5.64448 24.8082 5.57136 24.6749 5.60792 24.5779C5.64448 24.481 5.63229 24.4083 5.57136 24.4083C5.51043 24.4083 5.40074 24.2264 5.30325 24.0083C5.21794 23.8022 5.10826 23.5962 5.0717 23.5598C4.98639 23.4992 4.86452 23.2811 4.38923 22.3478C4.26736 22.1175 4.09675 21.8509 4.01144 21.766C3.92613 21.6691 3.87738 21.56 3.91394 21.4994C3.9505 21.4509 3.88957 21.3418 3.79207 21.257C3.69458 21.1721 3.60927 21.0267 3.60927 20.9418C3.60927 20.8449 3.54834 20.7721 3.47521 20.7721C3.41428 20.7721 3.38991 20.7115 3.43865 20.6388C3.47521 20.5661 3.45084 20.4691 3.37772 20.4207C3.3046 20.3722 3.2071 20.1904 3.18273 20.0207C3.14617 19.851 2.97555 19.3904 2.80494 19.0026C2.63432 18.6026 2.41495 18.1178 2.32965 17.9239C2.08591 17.3663 2.0006 16.8936 2.14684 16.8936C2.21996 16.8936 2.42714 16.9664 2.60995 17.0512C2.79275 17.136 3.06086 17.1966 3.2071 17.1966C3.35335 17.1845 3.46303 17.233 3.45084 17.2936C3.43865 17.3663 3.4874 17.439 3.54834 17.439C3.85301 17.4633 4.21862 17.6451 4.15768 17.7421C4.12112 17.7905 4.18205 17.8754 4.29174 17.9117C4.38923 17.9481 4.43798 17.936 4.40142 17.8633C4.36486 17.7905 4.37704 17.7421 4.42579 17.7421C4.48673 17.7421 4.59641 17.8511 4.68172 17.9845C4.76703 18.1178 4.91327 18.2269 5.01076 18.2269C5.10826 18.2269 5.19357 18.2754 5.19357 18.336C5.19357 18.3844 5.46168 18.5662 5.79072 18.7238C6.11977 18.8814 6.37569 19.0389 6.35132 19.0753C6.32695 19.1117 6.49756 19.245 6.71693 19.3662C6.94848 19.4995 7.10691 19.6328 7.08253 19.6813C7.04597 19.7419 7.10691 19.8025 7.2044 19.851C7.3019 19.8874 7.38721 19.8631 7.38721 19.8146C7.38721 19.754 7.70407 20.0086 8.08186 20.3601C8.45965 20.7237 8.83745 21.0024 8.89838 20.9782C9.04462 20.9176 9.36148 21.1964 9.26399 21.2933C9.22743 21.3297 9.32492 21.3903 9.47117 21.4388C9.78802 21.5478 10.0927 21.8024 9.9952 21.8993C9.95864 21.9236 10.0196 21.9842 10.1293 22.0327C10.2511 22.069 10.2999 22.0569 10.2389 21.9721C10.2024 21.8993 10.2755 21.9115 10.4217 22.0084C10.568 22.0933 10.6777 22.2266 10.6777 22.3114C10.6777 22.5054 11.5917 22.978 11.7136 22.8568C11.7745 22.8084 11.7745 22.8326 11.7379 22.9053C11.6526 23.0629 12.2376 23.5235 12.6763 23.6325C12.8591 23.6689 12.9566 23.7659 12.9079 23.8386C12.8591 23.9113 12.9079 23.9356 13.0419 23.8871C13.1638 23.8386 13.2247 23.8507 13.176 23.9234C13.1394 23.9962 13.2004 24.081 13.3222 24.1295C13.4441 24.1658 13.6878 24.3113 13.8828 24.4325C14.0656 24.5658 14.2119 24.6385 14.2119 24.5901C14.2119 24.5537 14.3947 24.6628 14.6262 24.8325C15.004 25.1112 15.3574 25.2567 15.7596 25.2809C15.8449 25.293 15.8815 25.3415 15.8449 25.4021C15.8084 25.4506 15.8571 25.4991 15.9546 25.4991C16.0521 25.4991 16.2836 25.6203 16.4786 25.7657C16.6614 25.9112 16.8808 26.0445 16.9783 26.0566C17.0636 26.0687 17.3317 26.2748 17.5876 26.5172C17.9898 26.8929 18.136 26.9535 18.6357 26.9535C19.0013 26.9535 19.1963 27.002 19.1476 27.0747C19.0988 27.1475 19.2207 27.1959 19.44 27.1959C19.635 27.1959 19.8422 27.2444 19.8788 27.3171C19.9153 27.3777 20.0616 27.4989 20.2078 27.5717C20.3906 27.6686 20.4394 27.6686 20.3784 27.5717C20.2322 27.3414 20.4028 27.4262 20.6709 27.705C20.805 27.8504 20.9147 27.9353 20.9147 27.8868C20.9147 27.8383 21.0609 27.8747 21.2559 27.9595C21.4387 28.0565 21.6581 28.105 21.7434 28.0807C21.8165 28.0444 21.8896 28.0807 21.8896 28.1656C21.8896 28.2383 21.9627 28.2868 22.048 28.2746C22.3527 28.2383 22.5111 28.2868 22.438 28.408C22.4015 28.4686 22.4624 28.5292 22.5843 28.5413C23.0352 28.5534 23.413 28.6625 23.4495 28.7716C23.4739 28.8443 23.5592 28.8564 23.6201 28.8201C23.6933 28.7716 23.8151 28.8079 23.8883 28.9049C24.0589 29.1231 24.8998 29.414 25.0582 29.317C25.1313 29.2806 25.2166 29.3291 25.2532 29.4261C25.3019 29.5352 25.4726 29.62 25.6675 29.62C25.8503 29.62 26.0697 29.6927 26.1428 29.7897C26.2281 29.8867 26.3988 29.9351 26.5206 29.8988C26.6547 29.8624 26.7644 29.8867 26.7644 29.9594C26.7644 30.0321 27.0203 30.1654 27.3372 30.2745C27.8856 30.4563 27.9343 30.4563 28.0684 30.2624C28.1537 30.1533 28.2268 29.9836 28.2268 29.8988C28.2268 29.8139 28.2877 29.7412 28.3487 29.7412C28.4218 29.7412 28.4705 29.6564 28.4705 29.5594C28.4705 29.4624 28.5802 29.3291 28.7021 29.2564C28.9458 29.1352 29.3236 28.4928 29.3236 28.214C29.3236 28.008 29.7867 27.5232 30.1767 27.3171C30.3595 27.2202 30.4204 27.1353 30.3351 27.1111C30.2133 27.0626 30.2254 27.0141 30.3473 26.8808C30.4448 26.7838 30.5789 26.7111 30.652 26.7111C30.7251 26.7111 30.786 26.6263 30.786 26.5172C30.786 26.4202 30.8348 26.3596 30.8835 26.396C30.981 26.4566 31.5538 25.79 31.4929 25.7051C31.4198 25.6082 31.7976 25.2688 31.895 25.3294C31.956 25.3658 32.0047 25.3052 32.0047 25.2082C32.0047 25.1112 32.1388 24.9294 32.3094 24.7961C32.48 24.6628 32.6141 24.4689 32.6141 24.3598C32.6141 24.2507 32.675 24.1658 32.7481 24.1658C32.8213 24.1658 33.0406 24.0083 33.2356 23.8022C33.589 23.4629 33.6134 23.4507 33.9059 23.6325C34.0643 23.7416 34.1618 23.875 34.1252 23.9356C34.0887 23.9962 34.1496 24.0446 34.2471 24.0446C34.3568 24.0446 34.4421 24.1174 34.4421 24.2143C34.4421 24.3113 34.5274 24.4083 34.6249 24.4567C34.7224 24.4931 34.8077 24.6022 34.8077 24.6991C34.8077 24.8082 34.9174 24.9415 35.0515 25.0143C35.1855 25.087 35.2952 25.2203 35.2952 25.3294C35.2952 25.4264 35.3805 25.5354 35.478 25.5718C35.5755 25.6203 35.6608 25.7173 35.6608 25.79C35.6608 25.8748 35.807 26.0081 35.9777 26.0809C36.1483 26.1657 36.2458 26.2748 36.2092 26.3475C36.1726 26.4081 36.3067 26.5414 36.5139 26.6505C36.7089 26.7475 36.8795 26.9172 36.8795 27.0262C36.8795 27.1232 36.9404 27.1717 37.0014 27.1353C37.0745 27.099 37.1232 27.1232 37.1232 27.1838C37.1232 27.2565 37.1963 27.3171 37.2817 27.3171C37.367 27.3171 37.4888 27.4383 37.5498 27.5838C37.6229 27.7413 37.8301 27.8868 38.0494 27.9353C38.415 28.008 38.4394 27.9838 38.61 27.4383L38.7928 26.8566L38.3907 26.6626C38.1591 26.5657 37.9763 26.396 37.9763 26.3111C37.9763 26.0687 37.3548 25.5233 36.977 25.4385C36.7698 25.39 36.6723 25.293 36.7211 25.184C36.7576 25.0991 36.7089 24.9415 36.6114 24.8446C36.5261 24.7597 36.3433 24.5295 36.2214 24.3476C36.0873 24.1658 35.8923 24.0446 35.7949 24.081C35.6486 24.1174 35.5999 24.0325 35.5877 23.8022C35.5755 23.4144 35.2099 22.869 34.9052 22.772C34.6005 22.6629 34.6371 22.2872 34.954 21.9842C35.1002 21.8509 35.1733 21.7418 35.1246 21.7418C35.0758 21.7418 35.1124 21.6569 35.2221 21.56C35.3196 21.463 35.4902 21.3782 35.5877 21.3782C35.6974 21.3782 35.7827 21.3418 35.7827 21.2812C35.7827 21.2327 36.063 20.9055 36.392 20.554C36.7211 20.2025 37.0257 19.8025 37.0623 19.6692C37.111 19.548 37.1963 19.4389 37.2573 19.4389C37.367 19.4389 38.3419 18.542 38.3419 18.4329C38.3419 18.3966 38.5369 18.1663 38.7685 17.9239C39.0122 17.6815 39.1706 17.439 39.1462 17.3906C39.0731 17.2815 39.4265 16.9179 39.6215 16.9058C39.6947 16.8936 39.7556 16.833 39.7556 16.7724C39.7678 16.6997 39.78 16.6027 39.7922 16.5421C39.7922 16.4815 39.914 16.3846 40.0481 16.3482C40.1821 16.3119 40.2918 16.1907 40.2918 16.0937C40.2918 15.9967 40.3893 15.8755 40.499 15.8392C40.7671 15.7301 41.2546 15.1847 41.2668 14.9786C41.2668 14.8938 41.3521 14.7968 41.4496 14.7604C41.5471 14.712 41.6324 14.5908 41.6324 14.4696C41.6324 14.3605 41.7421 14.1423 41.8761 13.9847C42.0102 13.8393 42.0833 13.6696 42.0589 13.609C42.0224 13.5605 42.0955 13.4878 42.2295 13.4393C42.3514 13.403 42.4976 13.2333 42.5342 13.0757C42.583 12.906 42.6926 12.7727 42.7901 12.7727C42.8876 12.7727 42.9729 12.6879 42.9729 12.5909C42.9729 12.5061 43.0582 12.3727 43.1679 12.3121C43.2654 12.2515 43.3629 12.1303 43.3751 12.0334C43.3995 11.9364 43.4604 11.7788 43.5213 11.6819C43.631 11.5001 43.6554 11.4395 43.692 11.1971C43.692 11.1243 43.7773 11.0759 43.8626 11.0759C43.9479 11.0759 44.0332 10.9547 44.0332 10.8092C44.0454 10.6516 44.1551 10.4577 44.2769 10.3729C44.3988 10.288 44.4963 10.1668 44.4963 10.1062C44.4963 10.0456 44.5938 9.92442 44.7035 9.83958C44.8132 9.75474 45.0203 9.45173 45.1666 9.16084C45.3128 8.88207 45.4834 8.65179 45.5444 8.65179C45.6053 8.65179 45.6541 8.51846 45.6541 8.34878C45.6541 8.17909 45.7515 7.99729 45.8978 7.92456C46.0318 7.85184 46.1415 7.68216 46.1415 7.56095C46.1415 7.42763 46.1903 7.31855 46.2512 7.31855C46.3853 7.31855 46.7509 6.63981 46.7509 6.3974C46.7509 6.31256 46.824 6.19135 46.9215 6.14287C47.0068 6.09439 47.153 5.83986 47.2262 5.58534C47.3237 5.31869 47.4333 5.16112 47.5186 5.22173C47.5918 5.27021 47.6161 5.23385 47.5796 5.11264C47.5308 5.01568 47.604 4.87024 47.738 4.79751C47.8599 4.71267 47.9696 4.54299 47.9696 4.40966C47.9696 4.27634 48.0183 4.16725 48.0671 4.16725C48.128 4.16725 48.2499 4.02181 48.3352 3.82788C48.5058 3.50063 48.5423 3.40367 48.5667 3.10066C48.5667 3.01582 48.6398 2.97946 48.7008 3.01582C48.7739 3.05218 48.8348 3.02794 48.8348 2.96734C48.847 2.89462 48.8714 2.77341 48.8836 2.71281C48.8958 2.64009 48.9201 2.54313 48.9323 2.49465C48.9445 2.36132 49.4564 1.74318 49.5417 1.74318C49.5782 1.74318 49.6757 1.79166 49.7367 1.84015ZM45.4591 7.45187C45.3616 7.60944 45.2031 7.58519 45.13 7.39127C45.0813 7.27007 45.13 7.24582 45.3006 7.28219C45.4225 7.31855 45.4956 7.39127 45.4591 7.45187ZM45.0447 8.05789C45.0447 8.22757 44.8375 8.17909 44.7644 7.99729C44.7157 7.87608 44.7522 7.83972 44.8741 7.8882C44.9594 7.92456 45.0447 7.99729 45.0447 8.05789ZM27.2884 12.7242C27.3981 12.7606 27.4468 12.8818 27.3981 13.0394C27.3615 13.209 27.3859 13.2696 27.4712 13.209C27.5565 13.1606 27.6174 13.209 27.6296 13.3424C27.6418 13.4636 27.654 13.609 27.6662 13.6817C27.6906 13.8878 28.2512 14.8938 28.3852 14.9786C28.4583 15.015 28.5193 15.1604 28.5315 15.2816C28.5437 15.4998 28.6168 15.621 29.0311 16.0816C29.1042 16.1664 29.1408 16.2997 29.1042 16.3846C29.0799 16.4573 29.1408 16.5664 29.2505 16.6027C29.3602 16.6391 29.4211 16.7239 29.3845 16.7724C29.348 16.8209 29.4333 17.0027 29.5674 17.1724C29.7014 17.3421 29.8111 17.536 29.8111 17.6087C29.8111 17.6815 29.8842 17.7421 29.9817 17.7421C30.0914 17.7421 30.1401 17.8269 30.1158 17.9723C30.0914 18.1178 30.1767 18.239 30.3839 18.336C30.6032 18.4329 30.6764 18.542 30.6276 18.7117C30.5911 18.845 30.6276 18.9905 30.7129 19.0511C30.786 19.0995 30.9567 19.3662 31.0907 19.645C31.2248 19.9358 31.3832 20.1661 31.4319 20.1661C31.4929 20.1661 31.6147 20.251 31.7122 20.3479C31.8219 20.4449 31.8585 20.5297 31.8097 20.5297C31.761 20.5297 31.8707 20.6631 32.0413 20.8206C32.2241 20.9903 32.3338 21.1964 32.2972 21.2933C32.2607 21.3903 32.3094 21.4994 32.4069 21.5357C32.5044 21.5721 32.6263 21.8024 32.6628 22.0327C32.7359 22.4084 32.6994 22.5175 32.4313 22.7599C32.2607 22.9174 32.1266 23.1599 32.1266 23.2932C32.1266 23.475 32.0657 23.5356 31.9438 23.4871C31.8463 23.4386 31.761 23.475 31.761 23.5598C31.761 23.6325 31.7122 23.6689 31.6513 23.6204C31.4929 23.5356 30.9567 24.2507 30.847 24.6749C30.7982 24.8688 30.7129 24.9779 30.652 24.9415C30.5911 24.9052 30.5057 24.9658 30.4692 25.0628C30.4326 25.1718 30.3229 25.2567 30.2376 25.2567C30.0305 25.2567 29.6648 25.9718 29.7745 26.1415C29.8233 26.2142 29.7745 26.2384 29.6527 26.1899C29.5308 26.1415 29.2749 26.2869 28.958 26.5657C28.568 26.905 28.4462 27.1111 28.4462 27.402C28.434 27.6201 28.3852 27.7656 28.3365 27.7292C28.2877 27.705 28.1415 27.8383 28.0318 28.0444C27.8124 28.408 27.459 28.5292 27.3128 28.2868C27.2762 28.214 27.13 28.1656 26.9959 28.1656C26.874 28.1656 26.7644 28.1292 26.7644 28.0686C26.7644 27.9595 26.0575 27.5959 25.7285 27.5232C25.5944 27.4989 25.4969 27.4141 25.5091 27.3414C25.5335 27.2565 25.3994 27.1959 25.1923 27.1959C24.9973 27.1959 24.7413 27.1111 24.6317 27.002C24.522 26.8929 24.4001 26.8323 24.3635 26.8808C24.327 26.9172 24.132 26.8081 23.9248 26.6384C23.7298 26.4687 23.4008 26.299 23.218 26.2627C23.023 26.2263 22.8646 26.1536 22.8646 26.093C22.8646 26.0324 22.7061 25.9839 22.499 25.9839C22.2552 25.9839 22.1333 25.9233 22.1333 25.8021C22.1333 25.7051 22.0968 25.6324 22.048 25.6445C21.8652 25.693 21.4021 25.487 21.4021 25.3536C21.4021 25.293 21.3168 25.2567 21.2193 25.293C21.1218 25.3415 21.0122 25.3173 20.9756 25.2446C20.9268 25.184 20.8415 25.1597 20.7806 25.1961C20.7197 25.2446 20.6709 25.184 20.6709 25.0749C20.6709 24.9779 20.5247 24.8325 20.3419 24.7597L20.0006 24.6385L20.2931 24.4204C20.4516 24.2992 20.5491 24.1416 20.5003 24.0689C20.4637 23.9962 20.5125 23.8628 20.61 23.7659C20.7075 23.6568 20.7928 23.5477 20.7928 23.5113C20.7928 23.4629 20.9512 23.2083 21.1584 22.9417C21.3534 22.6629 21.4874 22.3842 21.4387 22.3114C21.4021 22.2508 21.4631 22.1175 21.5849 22.0205C21.719 21.9357 21.7677 21.863 21.719 21.863C21.6581 21.863 21.6824 21.7781 21.7677 21.6812C21.853 21.5842 21.8774 21.4994 21.8409 21.4994C21.7921 21.4994 21.8652 21.3782 22.0115 21.2327C22.1821 21.0509 22.2065 20.9418 22.1212 20.8812C22.0359 20.8327 22.0724 20.7721 22.243 20.7115C22.3771 20.6752 22.5111 20.5782 22.5111 20.5176C22.5233 20.457 22.5355 20.3601 22.5477 20.2873C22.5477 20.2267 22.633 20.1055 22.7183 20.0207C22.7914 19.948 22.8646 19.7783 22.8646 19.6692C22.8646 19.548 22.9255 19.4147 22.9864 19.3783C23.0596 19.3298 23.1083 19.2329 23.0961 19.1601C23.0596 18.845 23.1083 18.5784 23.2058 18.639C23.2667 18.6753 23.3764 18.5056 23.4617 18.2754C23.547 18.0572 23.6689 17.8633 23.742 17.8633C23.803 17.8633 23.8395 17.7905 23.803 17.6936C23.7664 17.6087 23.9248 17.3178 24.1564 17.0754C24.5342 16.6512 24.6195 16.4937 24.5829 16.2513C24.5829 16.2028 24.6195 16.1664 24.6804 16.1664C24.7413 16.1664 24.8388 16.0452 24.8876 15.8998C25.0095 15.4877 25.4726 14.8332 25.6188 14.8332C25.7041 14.8332 25.7894 14.7362 25.826 14.615C25.9235 14.3241 26.2891 13.7423 26.6181 13.3787C26.7644 13.209 26.9228 12.9788 26.9594 12.8576C27.0325 12.6273 27.0325 12.6273 27.2884 12.7242ZM68.3582 15.4634C68.3948 15.5725 68.3704 15.6816 68.2973 15.7058C68.212 15.7422 68.2364 15.8755 68.3826 16.0816C68.5532 16.3482 68.5654 16.4452 68.4435 16.5906C68.346 16.7118 68.3339 16.7724 68.4192 16.7724C68.5045 16.7724 68.5289 17.027 68.5045 17.4875C68.4679 17.8875 68.4923 18.239 68.5532 18.2754C68.602 18.3117 68.6263 18.4693 68.602 18.639C68.5654 18.7965 68.602 18.9662 68.6751 19.0026C68.7482 19.0511 68.8092 19.148 68.8092 19.2086C68.8092 19.2813 68.7482 19.2935 68.6751 19.245C68.5776 19.1965 68.5654 19.2571 68.6385 19.451C68.6873 19.6086 68.736 19.9237 68.736 20.1298C68.7238 20.3479 68.7726 20.5297 68.8213 20.5297C68.8701 20.5297 68.8945 20.8327 68.8701 21.1964C68.8579 21.56 68.8945 21.8993 68.9554 21.9357C69.0285 21.9842 69.0163 22.0569 68.9188 22.1175C68.8092 22.1902 68.797 22.2629 68.8701 22.3114C69.0407 22.4448 69.0894 22.8326 68.931 22.8326C68.8701 22.8326 68.8092 22.9053 68.8092 22.9902C68.8092 23.075 68.6995 23.2083 68.5654 23.2932C68.4192 23.378 68.346 23.4992 68.3826 23.5598C68.4314 23.6325 68.2729 23.681 68.0414 23.681C67.7733 23.681 67.5905 23.7538 67.5417 23.875C67.5052 23.9719 67.4198 24.0325 67.3589 23.9962C67.298 23.9598 67.0908 24.0689 66.8958 24.2628C66.6643 24.4689 66.4327 24.5779 66.2621 24.5537C65.8112 24.481 65.409 24.6385 65.0556 24.99C64.8728 25.1718 64.5803 25.3294 64.3975 25.3294C63.9831 25.3536 63.325 25.6445 63.325 25.8021C63.325 25.8627 63.0204 25.9233 62.6548 25.9354C62.0942 25.9354 61.9236 25.996 61.6433 26.2627C61.4483 26.4445 61.2655 26.5536 61.2167 26.5172C61.1192 26.4202 59.998 26.7111 59.9005 26.8566C59.864 26.9172 59.5715 26.9899 59.2546 27.0141C58.7062 27.0747 58.6818 27.0626 58.6087 26.7111C58.5722 26.5051 58.499 26.3475 58.4381 26.3475C58.3772 26.3475 58.3284 26.2384 58.3284 26.1051C58.3284 25.9718 58.2553 25.8263 58.17 25.79C58.0725 25.7536 58.0359 25.5718 58.0603 25.2809C58.0725 25.0264 58.0116 24.6991 57.9019 24.5295C57.8044 24.3598 57.6825 24.1295 57.646 24.0083C57.6094 23.8992 57.5119 23.8022 57.451 23.8022C57.3778 23.8022 57.3535 23.7174 57.4022 23.6204C57.4388 23.5235 57.4144 23.4386 57.3413 23.4386C57.2682 23.4386 57.256 23.378 57.2925 23.3053C57.39 23.172 57.1341 22.469 56.9879 22.469C56.9513 22.469 56.9269 22.166 56.9635 21.7903C57.0244 21.1115 57.3535 20.554 57.6703 20.6267C57.7435 20.6388 57.8775 20.5176 57.9628 20.3479C58.0603 20.1782 58.2553 20.0086 58.4137 19.9722C58.56 19.9237 58.6575 19.851 58.6209 19.7904C58.5843 19.7298 58.6697 19.6813 58.7915 19.6813C58.9256 19.6813 59.0962 19.5965 59.1815 19.4995C59.2668 19.4025 59.4009 19.3177 59.4862 19.3177C59.5715 19.3177 59.8518 19.1238 60.0955 18.8814C60.3393 18.6511 60.5708 18.4814 60.6196 18.5178C60.6561 18.5541 60.7536 18.4814 60.8511 18.3481C60.9486 18.2147 61.1558 18.1057 61.3264 18.1057C61.497 18.1057 61.6067 18.0572 61.5579 17.9845C61.5092 17.9117 61.6433 17.8269 61.8504 17.7905C62.0576 17.7421 62.2282 17.6693 62.2282 17.6087C62.2282 17.5481 62.3135 17.4996 62.411 17.4996C62.6304 17.4996 63.0326 17.2815 63.3738 16.9785C63.5566 16.8209 63.6419 16.8088 63.715 16.9179C63.776 17.0391 63.8613 17.0027 63.9953 16.7967C64.105 16.6512 64.2513 16.5543 64.3122 16.5906C64.3731 16.6391 64.4219 16.6149 64.4219 16.5421C64.4219 16.4694 64.5072 16.4573 64.629 16.4937C64.7387 16.5421 64.7997 16.5179 64.7509 16.4573C64.7144 16.3967 64.8606 16.2755 65.0678 16.1907C65.2871 16.1058 65.6771 15.9361 65.9452 15.8149C66.2133 15.6937 66.6399 15.4998 66.8958 15.3907C67.1395 15.2816 67.3467 15.1362 67.3467 15.0877C67.3467 15.0392 67.4686 14.9423 67.6148 14.8695C67.8342 14.7726 67.9317 14.7968 68.0901 15.0029C68.1876 15.1483 68.3095 15.3543 68.3582 15.4634ZM1.96404 15.8028C2.0006 15.8634 1.97623 15.924 1.91529 15.924C1.84217 15.924 1.78124 15.8634 1.78124 15.8028C1.78124 15.7301 1.80561 15.6816 1.82998 15.6816C1.86654 15.6816 1.92748 15.7301 1.96404 15.8028ZM31.0785 17.8027C31.0298 17.8996 30.9445 17.9481 30.8835 17.9117C30.8104 17.8633 30.8226 17.7905 30.9201 17.7299C31.1516 17.5845 31.1516 17.5966 31.0785 17.8027ZM31.4563 18.4693C31.4929 18.5299 31.4441 18.5905 31.3345 18.5905C31.2248 18.5905 31.176 18.5299 31.2126 18.4693C31.2491 18.3966 31.3101 18.3481 31.3345 18.3481C31.3588 18.3481 31.4198 18.3966 31.4563 18.4693ZM55.5986 19.1601C55.4767 19.2813 55.367 19.0995 55.4767 18.942C55.5498 18.8086 55.5742 18.8086 55.6229 18.942C55.6473 19.0268 55.6351 19.1238 55.5986 19.1601ZM9.92208 19.6813C10.0074 19.6813 10.1049 19.754 10.1414 19.851C10.178 19.948 10.2999 19.9964 10.4217 19.9601C10.5802 19.9237 10.6777 20.0086 10.7874 20.251C10.9458 20.6388 11.6039 21.0388 12.067 21.0388C12.2376 21.0388 12.3716 21.0752 12.3595 21.1236C12.3351 21.366 12.4082 21.4994 12.5666 21.4994C12.6641 21.4994 12.7494 21.5357 12.7494 21.5963C12.7494 21.7297 13.4563 22.0084 13.5903 21.9357C13.6513 21.8872 13.7366 22.0205 13.7853 22.2266C13.8706 22.6144 14.3215 22.9902 14.8578 23.1235C15.1503 23.1962 15.1868 23.2326 15.0528 23.3901C14.9187 23.5598 14.8943 23.5598 14.7968 23.378C14.7359 23.2811 14.6384 23.2205 14.5897 23.2447C14.5409 23.2811 14.3825 23.2083 14.2484 23.075C14.1022 22.9538 13.7975 22.8084 13.5538 22.772C13.2979 22.7235 13.115 22.6144 13.115 22.5175C13.115 22.4205 13.0297 22.3478 12.9322 22.3478C12.8347 22.3478 12.7494 22.2751 12.7494 22.1781C12.7494 22.0811 12.6276 21.9842 12.4691 21.9357C12.3229 21.8993 12.067 21.7418 11.8964 21.5963C11.7257 21.4388 11.5551 21.3297 11.5186 21.3418C11.4698 21.3539 11.2017 21.1479 10.9214 20.8812C10.4217 20.3964 9.89771 20.1055 9.60522 20.154C9.51991 20.1661 9.45898 20.1298 9.47117 20.0813C9.50773 19.8752 9.45898 19.645 9.38586 19.7056C9.30055 19.7904 8.84963 19.3662 8.84963 19.2086C8.84963 18.942 9.28836 19.0268 9.51991 19.3419C9.65397 19.5237 9.83677 19.6813 9.92208 19.6813ZM15.723 23.681C15.8815 23.7295 16.0033 23.8628 16.0033 23.9598C16.0033 24.1052 15.9546 24.1174 15.7474 24.0083C15.4306 23.8265 15.3087 23.6689 15.3209 23.4386C15.3209 23.3053 15.3452 23.2932 15.394 23.4144C15.4306 23.4992 15.5768 23.6204 15.723 23.681ZM68.8945 23.875C68.8579 23.9113 68.7482 23.9234 68.6629 23.8871C68.5654 23.8507 68.602 23.8144 68.736 23.8144C68.8701 23.8022 68.9432 23.8386 68.8945 23.875ZM16.4543 24.1052C16.4908 24.2022 16.4664 24.287 16.4055 24.287C16.3324 24.287 16.2836 24.2022 16.2836 24.1052C16.2836 24.0083 16.308 23.9234 16.3324 23.9234C16.3568 23.9234 16.4055 24.0083 16.4543 24.1052ZM68.1754 24.2264C68.1389 24.2628 68.0658 24.2022 68.0292 24.081C67.9561 23.9113 67.9683 23.8992 68.0901 24.0083C68.1754 24.0931 68.212 24.1901 68.1754 24.2264ZM8.17935 29.62C8.21592 29.6806 8.20373 29.7412 8.13061 29.7412C8.06967 29.7412 7.97218 29.6806 7.93562 29.62C7.89906 29.5473 7.91124 29.4988 7.98436 29.4988C8.0453 29.4988 8.14279 29.5473 8.17935 29.62ZM85.7489 29.7291C85.7489 29.8018 85.7002 29.8867 85.6271 29.923C85.5661 29.9594 85.5052 29.9109 85.5052 29.8139C85.5052 29.7048 85.5661 29.62 85.6271 29.62C85.7002 29.62 85.7489 29.6685 85.7489 29.7291ZM8.48403 30.226C8.48403 30.2866 8.43528 30.3472 8.36216 30.3472C8.30122 30.3472 8.24029 30.2866 8.24029 30.226C8.24029 30.1533 8.30122 30.1048 8.36216 30.1048C8.43528 30.1048 8.48403 30.1533 8.48403 30.226ZM85.3224 30.4684C85.359 30.529 85.3346 30.5896 85.2736 30.5896C85.2005 30.5896 85.1396 30.529 85.1396 30.4684C85.1396 30.3957 85.164 30.3472 85.1883 30.3472C85.2249 30.3472 85.2858 30.3957 85.3224 30.4684ZM12.7494 39.6799C12.7494 39.7405 12.6641 39.7647 12.5666 39.7284C12.4691 39.6799 12.3838 39.6314 12.3838 39.6072C12.3838 39.5829 12.4691 39.5587 12.5666 39.5587C12.6641 39.5587 12.7494 39.6072 12.7494 39.6799ZM13.6513 41.7282C13.6269 41.7525 13.7 41.9464 13.8097 42.1525C13.9925 42.5039 13.9925 42.5161 13.8097 42.3585C13.6878 42.2737 13.6025 42.1282 13.6025 42.0434C13.6025 41.9585 13.5172 41.8252 13.4197 41.7404C13.3222 41.6555 13.2735 41.5464 13.31 41.4858C13.3466 41.4252 13.4441 41.4495 13.5416 41.5343C13.6269 41.607 13.6756 41.704 13.6513 41.7282ZM14.0413 42.8918C14.0413 43.0615 13.9559 43.1948 13.8828 43.1948C13.7488 43.1948 13.7366 42.9524 13.8341 42.613C13.8463 42.6009 13.895 42.5888 13.9559 42.5888C14.0169 42.5888 14.0534 42.7221 14.0413 42.8918ZM14.3825 43.013C14.3337 43.11 14.3703 43.2675 14.4434 43.3645C14.5165 43.4493 14.5531 43.5463 14.5165 43.5827C14.48 43.619 14.5287 43.716 14.6384 43.8008C14.8943 44.0069 14.87 44.1644 14.5775 44.1644C14.4312 44.1644 14.3703 44.1038 14.4069 43.9947C14.4434 43.8978 14.419 43.7887 14.3459 43.7402C14.1753 43.6433 14.1631 42.8312 14.3337 42.8312C14.3947 42.8312 14.419 42.916 14.3825 43.013ZM14.9675 44.5159C14.9431 44.6129 15.0162 44.7704 15.1137 44.8795C15.3574 45.1462 15.4062 45.5219 15.199 45.5946C15.0771 45.631 15.0406 45.5704 15.0893 45.3401C15.1259 45.1583 15.1137 45.0492 15.0528 45.0735C15.004 45.1098 14.8821 45.0492 14.7847 44.9523C14.675 44.8553 14.5409 44.7704 14.4678 44.7704C14.3703 44.7704 14.3825 44.6856 14.48 44.528C14.6506 44.2614 15.0284 44.2614 14.9675 44.5159ZM15.5524 46.2128C15.5524 46.3461 15.6865 46.5279 15.8693 46.6127C16.1252 46.7339 16.1983 46.8794 16.2349 47.2551C16.2593 47.5218 16.3324 47.7521 16.3933 47.7763C16.4664 47.8005 16.4786 47.8975 16.4421 47.9945C16.3933 48.1157 16.4664 48.2005 16.6371 48.249C16.8442 48.2975 16.8686 48.346 16.7589 48.4793C16.6858 48.5641 16.6736 48.7096 16.7224 48.7823C16.7711 48.8793 16.7589 48.8914 16.6736 48.8429C16.5883 48.7944 16.5274 48.649 16.5274 48.5156C16.5274 48.3944 16.4543 48.2854 16.3811 48.2854C16.2958 48.2854 16.1252 48.2005 16.0033 48.1157C15.8205 47.9702 15.8084 47.8975 15.918 47.6915C15.9912 47.5339 16.0033 47.4369 15.9302 47.4369C15.8571 47.4369 15.7718 47.243 15.723 47.0127C15.6743 46.7218 15.5768 46.5885 15.4306 46.5885C15.2721 46.5885 15.2234 46.5037 15.2356 46.2855C15.2478 45.934 15.5524 45.8734 15.5524 46.2128ZM17.0758 51.3033C17.1123 51.3639 17.088 51.4488 17.0149 51.4972C16.9539 51.5336 16.893 51.4851 16.893 51.3882C16.893 51.17 16.9661 51.1336 17.0758 51.3033ZM17.4292 51.9821C17.3439 52.176 17.1367 52.2366 17.1367 52.0548C17.1367 51.9578 17.222 51.8972 17.4658 51.8124C17.478 51.8003 17.4658 51.8851 17.4292 51.9821ZM46.7509 55.0728C46.7509 55.1334 46.6899 55.194 46.6168 55.194C46.5559 55.194 46.5315 55.1334 46.5681 55.0728C46.6046 55 46.6656 54.9515 46.7021 54.9515C46.7265 54.9515 46.7509 55 46.7509 55.0728ZM19.1719 55.606C19.1841 55.8485 19.1841 55.8485 19.0623 55.5818C18.9891 55.4364 18.8794 55.3152 18.8185 55.3152C18.7576 55.3152 18.7454 55.2667 18.782 55.194C18.8916 55.0243 19.1597 55.303 19.1719 55.606Z"
          fill="white"/>
    <path d="M70.6372 36.6983C70.6372 36.8074 70.5397 36.8922 70.4056 36.8922C70.2837 36.8922 70.1131 36.9771 70.0278 37.074C69.9425 37.171 69.8085 37.2558 69.7231 37.2558C69.6378 37.2558 69.5282 37.3407 69.4916 37.4376C69.455 37.5467 69.3454 37.6195 69.2479 37.5952C69.1504 37.571 68.9676 37.6801 68.8335 37.8376C68.6873 37.9952 68.4801 38.1406 68.3582 38.1649C68.2363 38.177 68.151 38.2497 68.1632 38.3224C68.1754 38.3952 68.0292 38.5042 67.8342 38.577C67.627 38.6376 67.4686 38.783 67.4686 38.8921C67.4686 39.0012 67.4198 39.0618 67.3589 39.0254C67.298 38.9891 67.103 39.1466 66.9323 39.3769C66.7495 39.6072 66.6399 39.8011 66.6764 39.8011C66.713 39.8011 66.6764 39.8738 66.5911 39.9708C66.5058 40.0678 66.3839 40.1284 66.3108 40.1284C66.2499 40.1162 66.2011 40.1768 66.2133 40.2496C66.2377 40.3344 66.0915 40.5162 65.8843 40.6617C65.6893 40.8071 65.5552 40.9768 65.5918 41.0253C65.6162 41.0738 65.5309 41.1465 65.3968 41.195C65.2627 41.2313 65.0921 41.3889 65.019 41.5222C64.9459 41.6677 64.7143 41.9101 64.5193 42.0797C64.3244 42.2373 64.1903 42.407 64.2269 42.4312C64.3244 42.5282 64.0075 42.807 63.8613 42.7464C63.7881 42.7221 63.6906 42.8312 63.6419 43.0009C63.6053 43.1585 63.4591 43.3403 63.325 43.3766C63.191 43.4251 63.1057 43.4978 63.13 43.5463C63.1666 43.5827 62.996 43.7524 62.7644 43.922L62.3379 44.2008L62.8254 44.6977L63.3128 45.1826L63.5688 44.8553C63.715 44.6735 63.8978 44.5281 63.9831 44.5281C64.2147 44.5281 64.7631 43.8978 64.8484 43.5221C64.8971 43.3403 65.019 43.1948 65.1043 43.1948C65.2018 43.1948 65.4455 43.0251 65.6405 42.8312C65.9696 42.4918 66.0549 42.3222 66.0183 42.0797C66.0183 42.0434 66.1646 41.9707 66.3596 41.9222C66.7983 41.8252 67.1517 41.4495 67.3589 40.8556C67.4442 40.6132 67.5661 40.4071 67.6392 40.4071C67.8098 40.4071 68.4557 39.6436 68.407 39.4981C68.3704 39.4375 68.5532 39.3648 68.7848 39.3405C69.1991 39.3163 69.6622 39.0375 69.6622 38.8072C69.6622 38.7588 69.7719 38.6012 69.906 38.4679C70.3081 38.0679 70.3934 38.383 70.43 40.3102C70.43 40.5647 70.4787 40.7707 70.5275 40.7707C70.6737 40.7707 70.3934 41.3889 70.1131 41.704C69.8328 42.0191 69.845 42.0676 70.4178 42.6979C70.8443 43.1585 70.9175 43.1948 71.539 43.1948C72.1605 43.1948 72.1849 43.1827 72.124 42.8918C72.0996 42.7221 72.0265 42.5888 71.9655 42.5888C71.9046 42.5888 71.9412 42.4434 72.0508 42.2737C72.258 41.9707 72.3068 41.2434 72.1362 40.9768C72.0265 40.8071 72.0021 40.5647 71.9777 39.6799C71.9655 39.3163 71.9046 38.7951 71.8559 38.5285C71.7827 38.2134 71.7949 37.9952 71.8802 37.8982C72.0874 37.6437 71.3928 36.6013 70.9662 36.5529C70.7347 36.5286 70.6372 36.565 70.6372 36.6983Z"
          fill="white"/>
    <path d="M45.9709 37.68C45.6906 37.8861 45.3859 38.4558 45.4713 38.6012C45.5078 38.6618 45.4103 38.7345 45.2397 38.783C44.8132 38.88 44.2769 39.6193 44.3501 39.995C44.3866 40.2011 44.3501 40.2859 44.2038 40.2859C43.9235 40.2859 43.4604 40.8192 43.436 41.1828C43.4117 41.401 43.3264 41.5101 43.0826 41.5586C42.6805 41.6434 42.1686 42.1767 42.0467 42.6252C41.998 42.8433 41.9127 42.9403 41.803 42.9039C41.7055 42.8676 41.6324 42.8918 41.6324 42.9524C41.6324 43.0251 41.5471 43.0736 41.4496 43.0736C41.3399 43.0736 41.2302 43.1584 41.1937 43.2554C41.1449 43.3524 41.0718 43.413 41.0109 43.3766C40.9621 43.3403 40.828 43.4372 40.7184 43.6069C40.2675 44.2856 40.9012 45.2432 41.413 44.6493C41.5227 44.5159 41.6689 44.4068 41.7543 44.4068C41.9736 44.4068 42.717 43.8008 42.7901 43.5463C42.8389 43.4251 42.912 43.3281 42.9729 43.3524C43.0217 43.3645 43.0704 43.3281 43.0826 43.2797C43.0948 43.1463 43.3629 42.8918 43.6798 42.7221C43.826 42.6373 43.9235 42.5282 43.887 42.4555C43.8382 42.3949 43.9479 42.2979 44.1185 42.2252C44.2891 42.1646 44.4354 42.0555 44.4354 41.9828C44.4354 41.8495 44.5816 41.6434 44.9716 41.2556C45.1056 41.1222 45.1788 40.9768 45.13 40.9404C45.0813 40.8919 45.1422 40.7707 45.2641 40.6617C45.3738 40.5526 45.5444 40.3223 45.6419 40.1405C45.7394 39.9587 45.8734 39.8254 45.9465 39.8375C46.0197 39.8496 46.0684 39.8011 46.0562 39.7163C46.0197 39.5223 46.3487 39.2799 46.5681 39.3648C46.6656 39.4011 46.7509 39.5466 46.7509 39.6799C46.7509 39.8132 46.824 39.9587 46.9215 39.995C47.019 40.0314 47.0677 40.1405 47.0312 40.2496C46.9581 40.4314 47.2262 41.3768 47.348 41.3768C47.3846 41.3768 47.4333 41.5707 47.4455 41.801C47.4577 42.0313 47.5552 42.3464 47.6527 42.4918C47.7624 42.6373 47.8477 42.9039 47.8477 43.0736C47.8477 43.7887 47.9574 43.8978 48.4936 43.8372C49.2858 43.7402 49.3954 43.4615 49.0176 42.5524C48.9445 42.3706 48.7983 42.2252 48.7008 42.2131C48.5667 42.2131 48.5667 42.1888 48.6764 42.1403C48.847 42.0797 48.7617 41.3162 48.5545 41.0616C48.4936 40.9768 48.457 40.8677 48.4692 40.8192C48.4936 40.698 48.4083 40.4556 48.128 39.8375C48.0427 39.6193 47.9696 39.3648 47.9818 39.2921C48.0183 39.0254 47.8233 38.3467 47.7136 38.3467C47.6527 38.3467 47.543 38.2012 47.4821 38.0315C47.409 37.8619 47.3115 37.7528 47.2505 37.7891C47.1896 37.8255 46.9824 37.777 46.7996 37.68C46.3731 37.4619 46.2634 37.4619 45.9709 37.68ZM41.023 43.9826C41.1449 44.1281 41.1449 44.1644 40.9987 44.1644C40.9012 44.1644 40.8159 44.0796 40.8159 43.9826C40.8159 43.8857 40.828 43.8008 40.8402 43.8008C40.8646 43.8008 40.9377 43.8857 41.023 43.9826Z"
          fill="white"/>
    <path d="M26.4841 40.5526C26.1429 40.8313 26.0819 41.2071 26.3135 41.5707C26.3622 41.6555 26.3257 41.7404 26.2282 41.7767C26.0088 41.8616 26.0088 42.5888 26.2282 42.9282C26.3744 43.1585 26.3866 43.2433 26.2403 43.5342C26.0332 43.9342 26.0697 44.5644 26.3257 44.9401C26.4963 45.2068 26.4963 45.2432 26.3135 45.3038C26.2038 45.3522 26.155 45.4128 26.1916 45.4613C26.2403 45.4977 26.2282 45.5946 26.1672 45.6674C26.1063 45.7401 26.021 46.031 25.9722 46.2976C25.8991 46.7461 25.9357 46.8309 26.1794 47.0006C26.6913 47.3642 27.4834 47.1218 27.3006 46.6612C27.264 46.5522 27.2884 46.3825 27.3737 46.2855C27.459 46.1885 27.4956 46.1037 27.4468 46.1037C27.4103 46.1037 27.4347 45.9583 27.5078 45.7764C27.5687 45.6068 27.5931 45.3644 27.5443 45.2674C27.4103 44.9765 27.4103 44.8432 27.5565 44.7341C27.6418 44.6735 27.6418 44.625 27.5443 44.5523C27.4834 44.5038 27.4225 44.3341 27.4225 44.1644C27.4225 43.9948 27.4834 43.8251 27.5443 43.7645C27.6297 43.716 27.6418 43.6433 27.5565 43.5827C27.3859 43.4615 27.3494 43.1948 27.5078 43.1948C27.5809 43.1948 27.6053 43.0857 27.5565 42.9524C27.4956 42.7706 27.52 42.7342 27.6662 42.7827C27.7637 42.8191 27.8856 42.9645 27.9221 43.0857C27.9709 43.2191 28.1415 43.3766 28.2999 43.4493C28.4705 43.5099 28.568 43.619 28.5315 43.6796C28.4827 43.7523 28.6412 43.9948 28.8849 44.2372C29.1165 44.4675 29.348 44.7826 29.3968 44.928C29.5064 45.2674 30.0792 45.9825 30.2376 45.9825C30.3108 45.9825 30.4326 46.1522 30.5301 46.3582C30.6276 46.5643 30.8592 46.8309 31.042 46.94C31.237 47.0491 31.3954 47.2188 31.3954 47.3279C31.3954 47.4369 31.566 47.6672 31.761 47.8369C31.9682 48.0187 32.1266 48.2248 32.1266 48.2975C32.1266 48.3581 32.1875 48.3823 32.2485 48.346C32.3216 48.3096 32.3704 48.3581 32.3704 48.455C32.3704 48.8308 32.6507 48.7823 33.1138 48.3338C33.5037 47.9581 33.5525 47.849 33.4062 47.7642C33.3087 47.7157 33.2234 47.5945 33.2234 47.5218C33.2234 47.4369 33.1259 47.2794 33.0163 47.1824C32.8944 47.0733 32.6507 46.8188 32.4557 46.6128C32.2729 46.3946 32.0413 46.2249 31.9438 46.2249C31.8463 46.2249 31.7976 46.1522 31.8341 46.0673C31.8585 45.9825 31.6391 45.6431 31.3345 45.328C31.0298 45.0007 30.7861 44.6977 30.7861 44.6371C30.7861 44.5887 30.6764 44.4796 30.5423 44.4068C30.4083 44.3341 30.262 44.1281 30.2133 43.9463C30.128 43.5948 29.3602 42.7464 29.1774 42.807C29.1165 42.8191 29.0799 42.7706 29.0921 42.6858C29.153 42.3221 28.568 41.5101 28.2512 41.498C28.1659 41.498 28.1171 41.4495 28.1659 41.3768C28.2756 41.2071 27.8978 40.4071 27.7028 40.4071C27.6053 40.4071 27.3737 40.3829 27.1787 40.3465C26.9228 40.298 26.7278 40.3587 26.4841 40.5526ZM26.6425 46.6976C26.6425 46.7703 26.5938 46.8552 26.5206 46.8915C26.4597 46.9279 26.3988 46.8794 26.3988 46.7824C26.3988 46.6734 26.4597 46.5885 26.5206 46.5885C26.5938 46.5885 26.6425 46.637 26.6425 46.6976Z"
          fill="white"/>
</svg>
