<svg width="92" height="112" viewBox="0 0 92 112" fill="none" xmlns="http://www.w3.org/2000/svg">
    <path d="M24.2053 0.0952491C23.6574 0.150209 23.5113 0.241809 23.5113 0.534928C23.5113 0.736448 23.3834 1.15781 23.2191 1.45093C23.073 1.76237 22.9086 2.34861 22.8721 2.76996C22.8355 3.173 22.7259 3.55772 22.6346 3.61268C22.3972 3.75924 21.7945 5.13324 21.8493 5.40804C21.8675 5.51796 21.7032 5.66452 21.5023 5.7378C20.7169 5.99428 20.0594 7.51484 20.4795 8.17436C20.5526 8.30259 20.4978 8.39419 20.3334 8.39419C20.169 8.39419 20.0412 8.52243 20.0412 8.66899C20.0412 8.81555 19.9681 8.94379 19.8768 8.94379C19.6759 8.94379 19.2193 10.0247 19.3654 10.1712C19.4385 10.2262 19.2193 10.446 18.9088 10.6659C18.507 10.9407 18.2513 11.3437 18.0139 12.0399C17.8495 12.5711 17.6304 13.0658 17.5391 13.1391C17.466 13.194 17.2286 13.5421 17.0459 13.8902C16.845 14.2383 16.5711 14.6047 16.4432 14.6779C16.3154 14.7695 16.2423 14.8978 16.2971 14.9894C16.3519 15.0627 16.2789 15.1726 16.151 15.2275C15.804 15.3558 15.2378 16.6015 15.3657 16.9313C15.4205 17.0962 15.4022 17.1511 15.2744 17.0779C15.0735 16.9496 13.2836 18.7633 13.2836 19.1114C13.2836 19.4045 12.48 20.064 12.2243 19.9724C12.0234 19.9175 10.9094 21.4747 10.9094 21.8227C10.9094 21.9143 10.5806 22.2807 10.1788 22.6654C9.77701 23.0318 9.44826 23.4715 9.44826 23.6364C9.44826 23.8013 9.2291 23.9845 8.95514 24.0578C8.1698 24.241 7.47578 24.9921 7.58537 25.5234C7.65842 25.9081 7.58537 25.9814 7.20183 25.9814C6.94614 25.9814 6.70871 26.1096 6.63566 26.2562C6.58086 26.4027 6.41649 26.531 6.27038 26.531C6.01469 26.531 5.68594 27.1722 5.759 27.4836C5.77726 27.5752 5.70421 27.6302 5.59463 27.6302C5.46678 27.6302 5.02845 27.8134 4.59013 28.0332C3.89611 28.3813 3.45778 28.9126 3.56736 29.3156C3.58562 29.3706 3.27514 29.4805 2.87334 29.5538C2.4898 29.627 1.94189 29.8652 1.6862 30.1217C1.43051 30.3598 1.02871 30.5614 0.791283 30.5614C0.279901 30.5614 -0.0488452 31.1659 0.00594581 32.0636C0.0424731 32.5766 0.206846 32.9246 0.77302 33.4926C1.21135 33.9506 1.59488 34.1887 1.75926 34.1337C1.92363 34.0788 1.99668 34.0788 1.92363 34.1337C1.86884 34.1887 2.01495 34.4635 2.27064 34.7383C2.50807 34.9948 2.76376 35.4528 2.81855 35.7276C2.87334 36.0024 3.01945 36.2589 3.16556 36.3138C3.31167 36.3688 3.42125 36.5153 3.42125 36.6436C3.43951 36.955 4.26138 37.8893 4.51707 37.8893C4.68144 37.8893 4.71797 38.0176 4.68144 38.3657C4.68144 38.4206 4.80929 38.5672 4.9554 38.6771C5.11977 38.8053 5.26588 39.0985 5.32067 39.3549C5.3572 39.6114 5.48504 39.7946 5.59463 39.758C5.70421 39.7397 5.79553 39.9229 5.79553 40.161C5.79553 40.4175 5.99643 40.7656 6.25212 40.9671C6.48955 41.1686 6.65392 41.3701 6.59913 41.4251C6.47128 41.5533 6.89135 42.2861 7.34794 42.7075C7.54884 42.8907 7.71321 43.1289 7.71321 43.2205C7.71321 43.3121 7.82279 43.4586 7.95064 43.5502C8.1698 43.6785 8.29765 44.0082 8.33418 44.5761C8.35244 44.6677 8.42549 44.6494 8.51681 44.5029C8.64466 44.3013 8.71771 44.4296 8.82729 44.9609C8.90035 45.3456 9.13778 45.9135 9.35694 46.2249C9.5761 46.518 9.88659 47.0676 10.051 47.434C10.2153 47.8004 10.471 48.2035 10.6354 48.3317C10.7815 48.46 10.8546 48.6248 10.7998 48.7164C10.745 48.808 10.7998 48.8813 10.9094 48.8813C11.0189 48.8813 11.0555 48.9546 11.0007 49.0645C10.8911 49.266 11.786 50.7133 12.0234 50.7133C12.1148 50.7133 12.1878 50.8782 12.1878 51.0797C12.1878 51.2812 12.2791 51.4461 12.3704 51.4461C12.48 51.4461 12.5531 51.5744 12.5531 51.7209C12.5531 51.8858 12.6809 52.0507 12.827 52.1056C12.9731 52.1789 13.0462 52.2888 12.9914 52.3804C12.9366 52.472 12.9731 52.5453 13.0827 52.5453C13.174 52.5453 13.2288 52.7102 13.1923 52.9117C13.1558 53.1132 13.1923 53.2781 13.2836 53.2781C13.3567 53.2781 13.5576 53.6262 13.7037 54.0476C13.8498 54.4872 14.069 54.817 14.1785 54.7804C14.2881 54.762 14.3794 54.7987 14.3977 54.872C14.4342 55.22 14.5438 55.6048 14.763 56.1177C14.8726 56.4108 15.0004 56.7589 15.0004 56.8505C15.0187 56.9604 15.2013 57.2352 15.4387 57.4917C15.6944 57.7665 15.7675 57.968 15.6396 58.0413C15.5301 58.1146 15.6396 58.2978 15.9136 58.481C16.2241 58.6642 16.3885 58.9573 16.3885 59.2504C16.3885 59.5069 16.4615 59.6718 16.5528 59.6168C16.6441 59.5619 16.7537 59.9283 16.8268 60.4229C16.8998 60.9175 17.0277 61.3755 17.119 61.4305C17.2103 61.4855 17.2468 61.6503 17.1921 61.7786C17.1373 61.9251 17.2651 62.1633 17.4843 62.3099C17.6852 62.4564 17.8495 62.6396 17.8313 62.7312C17.7582 63.0243 18.0687 63.9037 18.2513 63.9037C18.3427 63.9037 18.3609 64.0686 18.3061 64.2701C18.2331 64.5083 18.2696 64.6365 18.4157 64.6365C18.5984 64.6365 18.5984 64.6915 18.4522 64.838C18.2148 65.0762 18.6166 66.2303 19.0367 66.5601C19.1828 66.6883 19.3106 67.2746 19.3654 68.0074C19.4202 68.6852 19.5481 69.3447 19.6576 69.4546C19.7672 69.5646 19.8585 69.8027 19.8585 70.0042C19.8585 70.1874 19.9681 70.4439 20.096 70.5905C20.3151 70.8103 20.3699 71.4698 20.2238 72.0561C20.2056 72.1477 20.1873 72.4042 20.2056 72.6057C20.2238 72.9171 20.2603 72.9354 20.4065 72.6973C20.5526 72.4774 20.5891 72.5141 20.6074 72.8805C20.6256 73.137 20.6256 73.3934 20.6074 73.4667C20.6074 73.5583 21.0457 73.6133 21.5936 73.6133C22.2328 73.6133 22.5981 73.54 22.5981 73.3934C22.5981 73.2835 22.6529 73.2286 22.7077 73.3018C22.9086 73.5034 23.6939 72.1477 23.6939 71.5798C23.6939 71.2317 23.767 71.0668 23.8948 71.1401C24.0044 71.2134 24.0775 71.1584 24.0409 71.0302C23.9679 70.4256 24.0775 69.9493 24.2784 70.0042C24.4062 70.0226 24.5158 69.821 24.5158 69.5279C24.534 69.2348 24.6071 68.96 24.6984 68.8867C24.9906 68.6852 25.3376 67.9707 25.3376 67.6043C25.3376 67.4211 25.3924 67.2013 25.4838 67.128C25.6116 66.9998 25.6299 66.9265 25.6847 66.4502C25.6847 66.3586 25.7942 66.3219 25.8856 66.3769C26.0865 66.5051 26.0865 66.4685 26.1412 65.6441C26.1412 65.3327 26.2508 65.0395 26.3421 64.9663C26.4517 64.893 26.5248 64.7647 26.5248 64.6915C26.543 64.5632 26.8535 63.8121 27.3832 62.6763C27.4928 62.4747 27.511 62.1816 27.438 62.0351C27.3466 61.9068 27.3649 61.8702 27.438 61.9435C27.6206 62.09 28.2598 60.8992 28.2598 60.4229C28.2598 60.258 28.4242 59.9283 28.6251 59.6901C28.826 59.4519 28.9904 59.1588 28.9904 59.0489C28.9904 58.9207 29.1182 58.7558 29.2826 58.7008C29.4287 58.6459 29.5018 58.5176 29.447 58.4077C29.3922 58.3161 29.4287 58.2245 29.5383 58.2245C29.7027 58.2245 30.2506 57.2352 30.3602 56.7589C30.4697 56.246 30.6889 55.8612 30.8715 55.8979C30.9811 55.9162 31.0907 55.7696 31.109 55.5681C31.1455 54.9636 31.3829 54.3773 31.5656 54.3773C31.6751 54.3773 31.7117 54.304 31.6386 54.2124C31.5838 54.1025 31.7117 53.9376 31.9126 53.8277C32.1135 53.7178 32.2778 53.5163 32.2778 53.388C32.2778 53.2598 32.5153 52.9117 32.8257 52.6186C33.118 52.3255 33.3737 51.9957 33.3737 51.8675C33.3737 51.7576 33.5015 51.5194 33.6659 51.3728C33.812 51.208 33.9581 50.9148 33.9764 50.7133C33.9946 50.5118 34.159 50.292 34.3416 50.237C34.5243 50.182 34.6338 50.0904 34.5791 50.0355C34.4512 49.9072 34.9261 49.4309 35.1818 49.4309C35.2913 49.4309 35.3827 49.321 35.3827 49.1928C35.3827 49.0828 35.6018 48.7164 35.894 48.4233C36.168 48.1119 36.4967 47.6356 36.6246 47.3608C36.7342 47.086 36.9351 46.9028 37.0264 46.9577C37.136 47.0127 37.209 46.8661 37.209 46.6096C37.209 46.3165 37.3003 46.1516 37.4465 46.17C37.556 46.2066 37.6474 46.1333 37.6291 46.0051C37.6108 45.8952 37.8117 45.712 38.0857 45.6204C38.3596 45.5288 38.798 45.1441 39.0354 44.7777C39.2911 44.4113 39.5833 44.1181 39.6929 44.1181C39.8025 44.1181 39.9851 43.9166 40.0947 43.6601C40.2225 43.3853 40.46 43.2021 40.6791 43.2021C40.9165 43.2021 41.0444 43.0739 41.0444 42.8357C41.0444 42.6342 41.154 42.4693 41.3001 42.4693C41.4279 42.4693 41.848 42.1396 42.2133 41.7365C42.5785 41.3335 42.8708 41.0953 42.8708 41.1869C42.8708 41.2969 43.163 41.1503 43.51 40.8755L44.1492 40.3625L43.4735 39.6847C42.7429 38.9336 42.4324 38.9702 41.6654 39.8496L41.3001 40.2893L40.46 39.9229C39.492 39.5198 39.0171 39.5198 38.8528 39.9778C38.798 40.161 38.7066 40.2893 38.6701 40.2709C38.3962 40.161 37.1725 40.5457 37.0629 40.7656C36.9716 40.9121 36.7342 41.0404 36.515 41.0587C36.2958 41.077 36.0584 41.2236 36.0036 41.4068C35.9123 41.7182 35.7114 41.8098 35.2548 41.7549C35.127 41.7365 35.0174 41.8098 35.0174 41.9197C35.0174 42.0113 34.853 42.1029 34.6338 42.1029C34.1773 42.1029 33.0632 42.9273 32.9171 43.3853C32.844 43.6052 32.6979 43.6968 32.5153 43.6235C32.3144 43.5502 32.2596 43.5869 32.3509 43.7151C32.4239 43.8433 32.4239 43.9349 32.3326 43.9533C31.5108 44.0265 30.9629 44.2647 31.0907 44.4845C31.1455 44.5761 31.1272 44.6677 31.0176 44.6677C30.7437 44.6677 29.1913 46.1516 28.9173 46.6646C28.7895 46.9211 28.6068 47.1226 28.4973 47.1043C28.3877 47.086 28.1685 47.3974 27.9859 47.7821C27.8032 48.1852 27.5841 48.46 27.4745 48.3867C27.3649 48.3134 27.3284 48.3867 27.4014 48.5699C27.4562 48.7348 27.4562 48.863 27.3832 48.863C26.9996 48.808 26.817 48.9363 26.6161 49.4309C26.3969 49.9439 25.0272 51.2629 24.6984 51.2629C24.6254 51.2629 24.3149 51.4644 24.0227 51.7392C23.7122 51.9957 23.3469 52.1606 23.2191 52.1056C23.0912 52.0507 22.9268 52.0873 22.8721 52.1789C22.799 52.2888 22.5981 52.3621 22.4155 52.3621C22.2328 52.3621 21.8675 52.6186 21.6119 52.93C21.3562 53.2415 21.0639 53.443 20.9726 53.388C20.8813 53.3148 20.7535 53.388 20.7169 53.498C20.6621 53.6262 20.6074 53.5529 20.6074 53.3331C20.5891 53.1132 20.6621 52.8934 20.7535 52.8384C20.8448 52.7835 20.9726 52.4354 21.0274 52.0873C21.1005 51.7209 21.2283 51.4828 21.3196 51.5377C21.411 51.5927 21.7762 51.3545 22.1415 50.9881C22.4885 50.6217 22.7807 50.3652 22.7807 50.4385C22.7807 50.5118 22.9086 50.4752 23.0547 50.3469C23.2191 50.2187 23.2921 49.9622 23.2373 49.779C23.146 49.5042 23.2191 49.4309 23.5113 49.4309C23.7487 49.4309 23.9496 49.2844 24.0044 49.0645C24.0592 48.863 24.2236 48.6981 24.3514 48.6981C24.4975 48.6981 24.6619 48.5699 24.7167 48.4233C24.7897 48.2768 24.9358 48.1485 25.082 48.1485C25.2281 48.1485 25.3376 47.9836 25.3376 47.7638C25.3376 47.5623 25.4107 47.434 25.502 47.489C25.9769 47.7821 27.8398 46.3715 27.6389 45.8585C27.5841 45.712 27.6389 45.5837 27.7667 45.5837C28.2416 45.5837 28.9539 45.1257 29.2278 44.6128C29.3922 44.338 29.5931 44.1365 29.6844 44.1731C29.867 44.3013 30.4515 43.9533 31.456 43.1105C31.9308 42.7075 32.4057 42.3777 32.5335 42.3777C32.6431 42.3594 32.7162 42.2678 32.6796 42.1396C32.6614 42.0113 32.8075 41.9197 32.9901 41.9197C33.191 41.9197 33.4832 41.7732 33.6659 41.59C33.8485 41.4251 34.0311 41.2785 34.0859 41.2785C34.3782 41.2602 35.2 40.5641 35.2 40.3259C35.2 40.1793 35.2913 40.1244 35.3827 40.1793C35.4922 40.2343 35.5653 40.1977 35.5653 40.1061C35.5653 39.9961 35.6931 39.9045 35.8393 39.9045C35.9854 39.9045 36.1132 39.8313 36.1132 39.7397C36.1132 39.6481 36.4054 39.4465 36.7707 39.2633C37.136 39.0985 37.3734 38.9153 37.3186 38.8603C37.1908 38.7137 37.6839 38.2557 37.9761 38.2557C38.2135 38.2557 39.218 37.3031 39.218 37.0649C39.218 37.01 39.4737 36.7352 39.7659 36.4787L40.3138 36.0207L39.912 35.4528C39.0902 34.2986 39.0354 34.2437 38.4144 34.4269C38.1039 34.5185 37.5012 34.9581 37.0994 35.3978C36.6611 35.8558 36.0949 36.2589 35.7845 36.3321C35.2913 36.4421 34.5791 36.9733 34.9261 36.9733C35.0174 36.9733 34.8713 37.1382 34.6338 37.3397C33.9216 37.926 33.8485 37.9993 33.5746 38.4023C33.4284 38.6221 33.2093 38.7321 33.0449 38.6588C32.8988 38.6038 32.8075 38.6405 32.8623 38.7321C32.9719 38.8969 32.5701 39.3733 32.3692 39.3549C32.1865 39.3366 29.7209 41.4434 29.7209 41.6083C29.7209 41.6816 29.6479 41.7182 29.5566 41.6633C29.4652 41.6083 29.3009 41.6816 29.173 41.8281C29.0452 41.9747 28.8443 42.1029 28.7347 42.1029C28.6251 42.1029 28.3694 42.3045 28.1685 42.5426C27.8763 42.8724 27.6754 42.9457 27.164 42.8907C26.6344 42.8174 26.4152 42.9273 25.849 43.4403C25.4655 43.7701 25.1915 44.0998 25.2281 44.1365C25.2646 44.1731 24.9176 44.2281 24.461 44.2464C24.0044 44.2647 23.5661 44.3746 23.5113 44.5029C23.4382 44.6128 23.3104 44.7044 23.2191 44.7044C22.8355 44.7227 22.5981 44.9059 22.5798 45.199C22.5798 45.3822 22.5433 45.4005 22.4703 45.254C22.3424 44.9425 21.3379 44.9792 21.2101 45.3089C21.137 45.4555 20.9361 45.5837 20.7535 45.5837C20.5708 45.5837 20.4065 45.657 20.4065 45.7669C20.4065 45.8585 20.2786 45.9501 20.1325 45.9501C19.9681 45.9501 19.8038 46.06 19.749 46.1883C19.6394 46.4814 19.0915 46.518 18.9088 46.2432C18.7079 45.9501 18.7262 45.7669 18.9636 45.7669C19.3472 45.7669 20.5891 44.7593 20.5891 44.4479C20.5891 44.2647 20.7169 44.1548 20.9361 44.1731C21.3562 44.1914 22.5616 43.4037 22.6894 43.0189C22.7442 42.8724 23.0182 42.5793 23.3286 42.3777C23.6209 42.1762 23.8766 41.9564 23.8766 41.8831C23.8766 41.6266 24.4975 41.0037 24.7532 41.0037C24.8811 41.0037 25.0272 40.8755 25.082 40.7289C25.1367 40.5824 25.4838 40.4175 25.849 40.3442C26.2326 40.2709 26.6709 40.1061 26.8535 39.9412C27.0179 39.7946 27.164 39.7397 27.164 39.8129C27.164 39.9045 27.3284 39.7946 27.5475 39.5748C27.7484 39.3549 27.9859 39.2084 28.0772 39.2633C28.1502 39.3183 28.4425 39.245 28.7164 39.0985C28.9904 38.9519 29.3191 38.8786 29.447 38.9153C29.5566 38.9702 29.7757 38.8603 29.9218 38.6954C30.141 38.4023 30.141 38.384 29.9036 38.5122C29.7575 38.5855 29.794 38.5122 29.9766 38.3657C30.1775 38.2008 30.4515 38.0725 30.5793 38.0725C30.7072 38.0725 30.8167 38.0176 30.8167 37.926C30.8167 37.7977 31.8578 37.2665 32.1317 37.2481C32.2048 37.2481 32.4057 37.0649 32.5518 36.8268C32.7162 36.6069 33.0084 36.4237 33.191 36.4237C33.3737 36.4237 33.6111 36.2955 33.7024 36.1306C33.7937 35.9657 33.9216 35.8558 33.9946 35.8741C34.1955 35.9108 35.2 34.9948 35.2 34.7749C35.2 34.6467 35.3096 34.5917 35.4557 34.6467C35.6018 34.7017 35.8575 34.5734 36.0584 34.3719C36.2411 34.1704 36.6063 33.8773 36.8985 33.749C37.1725 33.6025 37.3551 33.401 37.2821 33.291C37.2273 33.1811 37.3186 33.0529 37.5195 33.0162C37.8848 32.9063 38.5423 31.8987 38.3962 31.6422C38.3414 31.569 37.8848 31.2942 37.3917 31.0377L36.4785 30.5797L35.9306 31.1293C35.6384 31.4407 35.3827 31.5873 35.3827 31.459C35.3827 31.3308 35.1087 31.4774 34.7982 31.7888C34.4695 32.1002 34.0859 32.3018 33.9398 32.2468C33.7937 32.1918 33.7389 32.2468 33.812 32.3567C33.885 32.485 33.6293 32.6498 33.1545 32.7781C32.3144 32.9979 31.4194 33.5475 31.0359 34.0788C30.9081 34.262 30.7072 34.3719 30.6158 34.3169C30.5245 34.262 30.2688 34.3719 30.0497 34.5734C29.8305 34.7933 29.5383 34.9581 29.4104 34.9581C29.2826 34.9581 29.173 35.0864 29.173 35.2513C29.173 35.3978 29.1 35.4711 28.9904 35.4161C28.8991 35.3612 28.8077 35.3795 28.8077 35.4711C28.8077 35.581 28.6616 35.6177 28.4973 35.581C28.2964 35.5261 27.9311 35.7276 27.5841 36.0573C27.2553 36.3505 26.9083 36.6069 26.7987 36.6069C26.47 36.6069 25.3559 37.5229 25.2463 37.9077C25.1733 38.1092 25.0637 38.2191 24.9724 38.1641C24.8993 38.1275 24.6436 38.2374 24.4062 38.4206C24.1688 38.6038 23.6574 38.8603 23.2921 39.0069C22.9086 39.1351 22.5981 39.3183 22.5981 39.3916C22.5981 39.4649 22.4703 39.5381 22.3241 39.5381C22.178 39.5381 22.0502 39.6297 22.0502 39.7397C22.0502 39.8496 21.9223 39.9045 21.7762 39.8313C21.3379 39.6664 20.443 39.9229 19.9864 40.3442C19.6942 40.619 19.4202 40.7106 19.1097 40.6373C18.5984 40.5091 17.5025 40.7839 17.1555 41.132C17.0277 41.2602 16.8085 41.3885 16.6989 41.3885C16.5711 41.4068 16.2789 41.4434 16.0414 41.4617C15.7858 41.4801 15.5118 41.6266 15.4022 41.7549C15.2378 41.9747 14.0142 42.1396 14.0142 41.9564C14.0142 41.9197 14.2151 41.6266 14.4708 41.2969C14.7265 40.9671 14.8726 40.6373 14.7995 40.5824C14.7447 40.5091 14.8726 40.4541 15.0917 40.4541C15.3109 40.4541 15.7858 40.1427 16.1693 39.758C16.5894 39.3366 17.0459 39.0618 17.393 39.0252C17.9409 38.9702 19.128 37.8893 19.128 37.4313C19.128 37.3031 19.3472 37.1565 19.6394 37.1016C20.2603 36.9733 21.2283 36.1673 21.0639 35.8925C20.9909 35.7825 21.0639 35.6909 21.2101 35.6909C21.8493 35.6909 23.3286 34.665 23.3286 34.2437C23.3286 34.1337 23.5113 34.0422 23.7122 34.0422C23.9313 34.0422 24.2601 33.859 24.4427 33.6391C24.6436 33.4376 24.8445 33.3094 24.8993 33.3643C25.1185 33.5658 25.7029 33.1262 25.7029 32.7414C25.7029 32.43 25.7577 32.4117 26.1047 32.5949C26.4152 32.7598 26.543 32.7598 26.7074 32.5033C26.8353 32.3384 27.1092 32.2102 27.3284 32.2102C27.8032 32.2102 28.2598 31.8071 28.2598 31.4224C28.2598 31.2392 28.4607 31.1476 28.8808 31.1476C29.3557 31.1476 29.6661 31.001 30.0679 30.5797C30.3784 30.2682 30.7072 30.0118 30.8167 30.0118C30.9081 30.0118 30.9994 29.8835 30.9994 29.7186C30.9994 29.5721 31.0724 29.4805 31.1638 29.5538C31.2551 29.6087 31.3829 29.5721 31.456 29.4622C31.529 29.3522 31.6386 29.3156 31.7299 29.3706C31.803 29.4255 31.9674 29.3339 32.0952 29.1874C32.223 29.0408 32.4239 28.9126 32.5518 28.9126C32.6979 28.9126 32.8257 28.8393 32.8623 28.766C32.8988 28.6927 33.3919 28.3813 33.9946 28.0882C34.5791 27.795 35.1087 27.447 35.1452 27.3187C35.2 27.1905 35.3279 27.0806 35.4192 27.0806C35.5105 27.0806 35.8393 26.9157 36.1315 26.6958L36.6611 26.3294L36.168 25.4684C35.4922 24.2593 35.4922 24.2593 34.8347 24.8272C34.506 25.102 34.1042 25.3402 33.9581 25.3585C33.812 25.3951 33.3554 25.6516 32.9353 25.9447C31.9674 26.6226 30.3419 27.447 30.214 27.337C30.1593 27.2821 29.7575 27.4286 29.3191 27.6485C28.8991 27.8866 28.4973 28.0882 28.4425 28.0882C28.0407 28.1981 27.7119 28.4362 27.7119 28.6194C27.7119 28.7477 27.4928 28.8393 27.2188 28.821C26.9266 28.821 26.5248 28.9309 26.3056 29.0591C26.0682 29.2057 25.8856 29.2606 25.8856 29.1874C25.8856 29.1141 25.7577 29.1507 25.6116 29.279C25.4655 29.3889 25.2646 29.4438 25.155 29.3706C25.0637 29.3156 24.6984 29.4622 24.3879 29.7003C24.0592 29.9385 23.493 30.14 23.146 30.1766C22.1963 30.2316 21.7032 30.5247 21.831 30.9644C21.9041 31.2758 21.8675 31.3125 21.5753 31.1476C21.3196 31.0194 21.1187 31.0377 20.863 31.2209C20.6804 31.3674 20.3699 31.4407 20.2056 31.3858C20.0047 31.3125 19.7307 31.4224 19.5115 31.6422C19.2741 31.8804 19.0915 31.9354 19.0184 31.8254C18.9454 31.6789 18.8358 31.6972 18.7079 31.8254C18.5984 31.9354 18.2879 32.027 18.0322 32.027C17.7765 32.027 17.3747 32.2102 17.119 32.43C16.845 32.6865 16.3702 32.8697 15.9319 32.9063C15.5301 32.943 15.1465 33.0712 15.0552 33.1811C14.5621 33.9322 14.5438 33.9506 14.4525 33.7124C14.3977 33.6025 14.2699 33.5292 14.1785 33.6025C13.8681 33.7857 14.0142 33.4559 14.4708 32.9063C14.7265 32.6132 14.9274 32.2651 14.9274 32.1369C14.9274 32.0086 15.183 31.9354 15.6762 31.972C16.1693 31.9903 16.4432 31.917 16.5163 31.7338C16.5711 31.6056 16.7172 31.4774 16.8633 31.4774C17.0094 31.4774 17.119 31.3674 17.119 31.2209C17.119 31.0377 17.2834 30.9827 17.6304 31.0194C18.1235 31.0743 19.128 30.6163 19.128 30.3232C19.128 30.0301 19.6394 29.6454 19.9864 29.682C20.4612 29.737 21.8675 29.0591 21.8675 28.766C21.8675 28.6378 21.9771 28.5462 22.105 28.5645C22.7625 28.6378 23.3469 28.5095 23.9313 28.1065C24.2784 27.8683 24.808 27.6118 25.1002 27.5569C25.7212 27.4103 27.7484 26.073 27.5841 25.9081C27.511 25.8531 27.6754 25.7982 27.9493 25.7982C28.205 25.7982 28.479 25.7066 28.5521 25.5966C28.6068 25.4867 28.9539 25.2852 29.3009 25.1386C29.6296 24.9921 29.867 24.7906 29.8122 24.699C29.7575 24.6074 29.9949 24.4791 30.3602 24.4058L30.9994 24.2959V23.0868V21.896L30.141 22.0059C29.1913 22.1159 28.1685 22.5555 27.9493 22.9402C27.858 23.0868 27.2919 23.4532 26.6709 23.7646C26.0317 24.0761 25.5203 24.4242 25.5203 24.5158C25.5203 24.6257 25.4107 24.699 25.2646 24.699C25.1367 24.699 24.9176 24.8272 24.7897 24.9738C24.6619 25.1203 24.3879 25.2486 24.1505 25.2486C23.9313 25.2486 23.42 25.4867 23.0182 25.7798C22.5981 26.073 21.9223 26.421 21.484 26.5493C21.0457 26.6775 20.516 26.9523 20.3151 27.1538C20.0594 27.4286 19.7672 27.5202 19.3289 27.4836C18.6166 27.4103 17.3016 27.9416 17.3016 28.2897C17.3016 28.4179 17.0459 28.5095 16.6624 28.5095C16.2971 28.5095 15.8953 28.6011 15.7492 28.7294C15.6031 28.8576 15.3474 28.9126 15.183 28.8393C14.7995 28.6927 14.1785 29.0408 14.3064 29.3522C14.3794 29.5354 14.2699 29.5721 13.9411 29.5171C13.6672 29.4622 13.4663 29.4988 13.4663 29.6087C13.4663 29.7186 13.0645 29.8652 12.5531 29.9385C11.9504 30.0118 11.6399 30.14 11.6399 30.3232C11.6399 30.5247 11.5486 30.5064 11.1833 30.2682C10.9459 30.1217 10.6537 30.0301 10.5623 30.085C10.471 30.1583 10.3432 30.1217 10.2701 30.0118C10.2153 29.9202 10.2701 29.8286 10.4162 29.8286C10.7085 29.8286 11.4573 29.0774 11.4573 28.766C11.4573 28.6378 11.5486 28.5462 11.6399 28.5462C11.7495 28.5462 11.8225 28.4179 11.8225 28.2714C11.8225 28.1248 11.9321 28.0515 12.0782 28.1065C12.3704 28.2164 12.5896 28.0698 13.5211 27.1722C13.8315 26.8607 14.1603 26.6409 14.2333 26.6775C14.5073 26.7508 15.3839 26.2012 15.8405 25.6699C16.0962 25.3951 16.5528 25.047 16.845 24.9005C17.1555 24.7722 17.5208 24.589 17.6669 24.4974C17.813 24.4058 18.0504 24.2776 18.1966 24.2043C18.3427 24.1494 18.5984 23.9478 18.781 23.8013C19.2924 23.3433 19.5846 23.1418 19.8585 23.0868C20.0047 23.0502 20.1873 22.9036 20.2786 22.7754C20.3517 22.6288 20.5343 22.5555 20.6621 22.6105C20.79 22.6654 21.1918 22.5372 21.5388 22.354C22.6529 21.7311 22.8355 21.6212 24.0775 21.0533C24.7349 20.7419 25.4107 20.4854 25.5751 20.4854C25.7394 20.4854 25.8856 20.4121 25.8856 20.3205C25.8856 20.2472 26.2326 20.1007 26.6709 19.9907C27.1092 19.8991 27.4197 19.7343 27.4014 19.606C27.3649 19.4778 27.4562 19.3862 27.6023 19.3862C27.7302 19.3862 28.0589 19.2213 28.3146 19.0198C28.5703 18.8183 28.9356 18.6351 29.1548 18.5984C29.3557 18.5618 29.5931 18.4885 29.6479 18.4152C29.7209 18.3419 29.9401 18.287 30.1227 18.287C30.5245 18.287 30.5245 18.3419 30.1593 17.0229C29.8488 15.9054 29.8488 15.9054 28.9904 16.2168C28.8443 16.2901 28.5886 16.3084 28.4059 16.2901C28.2416 16.2718 28.0589 16.3267 28.0041 16.4183C27.9128 16.5649 26.1595 17.4809 24.0227 18.4702C23.5295 18.69 23.1095 18.9465 23.0364 19.0381C22.9816 19.1297 22.8538 19.148 22.7442 19.0931C22.6529 19.0198 22.3241 19.148 22.0502 19.3495C21.7762 19.5694 21.3196 19.7892 21.0639 19.8625C20.8083 19.9175 20.5891 20.0457 20.5891 20.119C20.5891 20.1923 20.2969 20.3205 19.9316 20.3755C19.5846 20.4487 19.2558 20.5953 19.2011 20.7235C19.1645 20.8518 18.781 20.9617 18.3427 20.9983C17.9226 21.035 17.4112 21.1632 17.1921 21.3098C16.8268 21.5479 16.8085 21.5296 16.8085 21.1083C16.8085 20.8335 16.8998 20.6686 17.0642 20.6686C17.2286 20.6686 17.6486 20.3571 18.0139 19.9724C18.3792 19.606 18.8723 19.2763 19.128 19.2579C19.8038 19.203 20.6621 18.6717 21.0092 18.0855C21.1735 17.7923 21.4475 17.5542 21.6301 17.5542C21.8128 17.5359 22.1598 17.2977 22.4155 17.0046C22.6529 16.6931 22.9268 16.455 23.0364 16.455C23.3469 16.455 24.9724 14.8245 24.9724 14.4947C24.9724 14.3665 25.1002 14.3115 25.2281 14.3665C25.3742 14.4215 25.7394 14.2566 26.0134 14.0001C26.2874 13.7436 26.5796 13.5238 26.6526 13.5238C26.7439 13.5238 26.8353 13.5238 26.8901 13.5238C27.0544 13.5238 27.7119 12.791 27.7119 12.6078C27.7119 12.4979 27.9128 12.4246 28.1685 12.4246C28.4242 12.4246 28.6251 12.4979 28.6251 12.6078C28.6251 12.6994 28.753 12.791 28.8991 12.791C29.0634 12.791 29.2278 13.0108 29.3009 13.3406C29.3557 13.6337 29.4652 13.8902 29.5383 13.8902C29.6113 13.8902 29.7392 14.165 29.794 14.4764C29.867 14.8062 30.1045 15.2825 30.3602 15.5207C30.6158 15.7405 30.762 16.0153 30.7072 16.1069C30.6524 16.1985 30.8167 16.3634 31.0724 16.4916C31.5473 16.6931 31.6203 16.8397 31.5656 17.3527C31.529 17.4809 31.6021 17.5359 31.7117 17.4626C31.8212 17.4076 31.9308 17.4626 31.9491 17.5908C31.9491 17.7191 31.9856 17.9023 31.9856 18.0122C32.0404 18.3969 32.9171 19.5694 33.1545 19.5694C33.2823 19.5694 33.3371 19.661 33.2823 19.7526C33.1728 19.9358 34.1955 21.4197 34.506 21.5479C34.5973 21.5846 34.6156 21.6945 34.5425 21.7861C34.4877 21.8777 34.6521 22.2075 34.9078 22.5189C35.1635 22.8303 35.3827 23.1601 35.3827 23.2517C35.3827 23.3616 35.474 23.3799 35.6018 23.3066C35.7114 23.2334 35.7479 23.2517 35.6931 23.3616C35.5836 23.5448 36.6794 25.1753 37.0812 25.4501C37.1725 25.5234 37.136 25.615 37.0081 25.6699C36.8255 25.7249 36.862 25.7982 37.1177 25.9081C37.5926 26.0913 38.1405 26.7142 38.0126 26.9157C37.9578 27.0073 38.0309 27.0806 38.177 27.0806C38.3048 27.0806 38.4327 27.1905 38.4327 27.337C38.4327 27.7218 39.0354 28.9126 39.218 28.9126C39.3276 28.9126 39.4007 29.0408 39.4007 29.1874C39.4007 29.3339 39.6381 29.6087 39.9486 29.8102C40.2408 29.9934 40.4417 30.195 40.3869 30.2499C40.3138 30.3049 40.4782 30.4698 40.7522 30.5797C41.1174 30.7446 41.2088 30.8911 41.1174 31.1659C41.0444 31.4041 41.0809 31.4774 41.2088 31.4041C41.3366 31.3125 41.4097 31.4407 41.4097 31.6972C41.4097 31.9354 41.7384 32.4666 42.1767 32.943C42.5968 33.401 42.9255 33.7857 42.9073 33.804C42.889 33.8406 42.9073 33.859 42.9621 33.859C43.0169 33.8406 43.1812 33.9689 43.3456 34.1154C43.4917 34.2803 43.6196 34.4452 43.6013 34.5001C43.6013 34.5551 43.7657 34.7566 43.9666 34.9581C44.1857 35.178 44.2771 35.4345 44.204 35.6177C44.131 35.8375 44.1492 35.8925 44.2953 35.8009C44.4232 35.7276 44.5328 35.7825 44.5328 35.9108C44.5875 36.4054 44.6241 36.5337 44.9711 37.1016C45.172 37.4313 45.4277 37.7061 45.5555 37.7061C45.6834 37.7061 45.7382 37.871 45.7016 38.0909C45.6468 38.3657 45.7564 38.5122 46.1582 38.6588C46.6696 38.8237 46.7974 39.0069 46.7244 39.4099C46.7061 39.5015 46.8705 39.6114 47.0714 39.6664C47.2723 39.7213 47.4367 39.9045 47.4367 40.0877C47.4367 40.4358 48.222 41.3701 48.5325 41.3701C48.6238 41.3701 48.7151 41.4617 48.7151 41.5717C48.7151 41.6633 48.6055 41.6999 48.496 41.6266C48.3316 41.535 48.3499 41.59 48.5142 41.7915C48.6603 41.9747 48.8064 42.0663 48.8612 42.0297C49.0256 41.8648 49.5918 42.7258 49.4822 43.0006C49.4274 43.1472 49.4639 43.2205 49.5735 43.1472C49.6831 43.0739 49.9023 43.3853 50.0666 43.8433C50.3223 44.5212 51.1442 45.4005 51.5095 45.4005C51.546 45.4005 51.8017 45.0708 52.0756 44.6494L52.5688 43.8983L51.9295 43.2754C51.5643 42.9273 51.272 42.4693 51.272 42.2495C51.272 41.7365 50.578 40.6373 50.2493 40.6373C50.1032 40.6373 49.9936 40.5457 49.9936 40.4541C49.9936 40.3442 49.8657 40.2709 49.7014 40.2709C49.5553 40.2709 49.4639 40.1977 49.5187 40.1061C49.6466 39.9045 49.1169 38.8053 48.8978 38.8053C48.8064 38.8053 48.7151 38.6221 48.6786 38.4023C48.6421 38.1275 48.4594 37.9443 48.1672 37.8893C47.8933 37.8344 47.6924 37.6512 47.6558 37.4313C47.6193 37.2298 47.4732 36.9917 47.3271 36.9184C47.181 36.8451 47.0714 36.6985 47.0714 36.6069C47.0714 36.3871 46.2861 35.581 46.14 35.636C46.0852 35.6543 46.0304 35.4161 46.0121 35.1047C45.9756 34.0422 45.1172 32.9246 44.478 33.0895C44.3866 33.1078 44.3319 32.9796 44.3319 32.7964C44.3319 32.6132 44.2771 32.3934 44.204 32.3201C44.1127 32.2468 44.0579 32.1002 44.0579 31.9903C44.0579 31.8804 43.8022 31.6606 43.4917 31.4957C43.0534 31.2575 42.9438 31.0926 42.9986 30.7446C43.0899 30.1034 42.2681 28.9675 41.6106 28.821C41.2453 28.7477 41.0992 28.6194 41.1722 28.4362C41.227 28.2897 41.1905 28.1798 41.1174 28.1798C41.0261 28.1798 40.8435 27.9233 40.6974 27.6118C40.5513 27.2821 40.2956 26.989 40.1312 26.9523C39.9303 26.8974 39.8207 26.6775 39.8025 26.3111C39.7842 25.6333 39.3276 24.9188 38.7614 24.699C38.4875 24.589 38.2866 24.3326 38.2135 23.9478C38.1405 23.6181 37.8848 23.1784 37.6474 22.9586C37.4099 22.7387 37.209 22.4456 37.209 22.3357C37.209 22.2075 37.0447 21.951 36.8438 21.7311C36.6429 21.5113 36.4785 21.2365 36.4785 21.1449C36.4785 21.035 36.2228 20.7785 35.9306 20.577C35.5836 20.3571 35.4009 20.1007 35.4375 19.9175C35.4922 19.7526 35.2 19.2213 34.8165 18.7267C34.4329 18.232 34.1042 17.774 34.1042 17.6824C34.1042 17.6091 33.9398 17.3893 33.7389 17.1878C33.538 16.9863 33.3737 16.6565 33.3737 16.4367C33.3737 15.942 32.6979 14.9894 32.3509 14.9894C32.2048 14.9894 32.0952 14.8978 32.0952 14.7879C32.0952 14.6963 32.0039 14.6596 31.876 14.7329C31.7299 14.8245 31.7117 14.7695 31.7847 14.568C31.8395 14.4031 31.8212 14.2199 31.7117 14.165C31.6203 14.0917 31.5838 13.9818 31.6386 13.8902C31.803 13.6154 31.0724 12.5162 30.7437 12.5528C30.5245 12.5528 30.4697 12.4795 30.5245 12.2963C30.6706 11.9116 30.141 10.8491 29.52 10.3361C29.2461 10.098 29.0452 9.85979 29.1 9.80483C29.2278 9.69491 28.7895 8.22931 28.6434 8.24763C28.2233 8.28427 27.8946 8.17436 27.9859 8.0278C28.2781 7.55148 28.2416 6.87364 27.8763 6.08588C27.6571 5.62788 27.3649 5.20652 27.2371 5.15156C27.091 5.0966 27.0179 4.98668 27.0727 4.9134C27.1275 4.8218 27.091 4.71188 26.9996 4.6386C26.8901 4.58364 26.8535 4.41876 26.9083 4.29052C26.9631 4.14396 26.9266 3.97908 26.817 3.9058C26.7074 3.85084 26.6161 3.59436 26.6161 3.3562C26.6161 3.13636 26.47 2.87988 26.3056 2.82492C26.0865 2.73332 26.0499 2.66004 26.2143 2.49516C26.5248 2.18373 26.4883 1.30437 26.1595 1.17613C26.0134 1.12117 25.8856 0.956288 25.8856 0.828048C25.8856 0.534928 25.3011 -0.0513106 25.0454 0.00364929C24.9541 0.0219693 24.5706 0.0586092 24.2053 0.0952491ZM25.7029 2.16541C25.7029 2.25701 25.6664 2.34861 25.6299 2.34861C25.5751 2.34861 25.4838 2.25701 25.429 2.16541C25.3742 2.05549 25.4107 1.98221 25.502 1.98221C25.6116 1.98221 25.7029 2.05549 25.7029 2.16541ZM25.9769 3.30124C25.6299 3.50276 25.429 3.39284 25.5933 3.09972C25.6664 2.9898 25.849 2.97148 25.9951 3.02644C26.2691 3.11804 26.2508 3.15468 25.9769 3.30124ZM24.8993 4.29052C24.7897 4.58364 25.1915 5.51796 25.6664 6.04924C25.8125 6.23244 25.8856 6.379 25.8125 6.379C25.7394 6.379 25.8125 6.50724 25.9769 6.69044C26.1595 6.85532 26.2508 7.16676 26.196 7.42324C26.1412 7.67972 26.2143 7.8446 26.3604 7.8446C26.4883 7.8446 26.5613 8.0278 26.5248 8.33923C26.5065 8.61403 26.5796 8.92547 26.7257 9.03539C26.8535 9.12699 27.0179 9.43843 27.0727 9.71323C27.164 10.098 27.1092 10.2445 26.817 10.4094C26.5978 10.5193 26.3421 10.556 26.2326 10.501C26.1412 10.4277 25.9403 10.4644 25.7942 10.5926C25.6116 10.7575 25.429 10.7392 25.0272 10.5376C24.7349 10.3911 24.2236 10.3178 23.84 10.3544C23.2008 10.446 23.1643 10.4277 23.1825 9.89643C23.2008 9.51171 23.2739 9.36515 23.4565 9.43843C23.5843 9.49339 23.8766 9.34683 24.0775 9.10867C24.2966 8.87051 24.5888 8.68731 24.7349 8.72395C25.4107 8.87051 25.6116 8.17436 25.1733 7.25836C24.9176 6.76372 24.1322 6.4706 24.0044 6.81868C23.8948 7.09348 23.0182 7.16676 22.8721 6.9286C22.8173 6.81868 22.8538 6.7454 22.9451 6.7454C23.0547 6.7454 23.146 6.61716 23.146 6.4706C23.146 6.32404 23.2191 6.1958 23.2921 6.1958C23.493 6.1958 24.0592 5.1882 24.0592 4.8218C24.0592 4.51036 24.534 4.01572 24.8628 3.9974C24.9358 3.9974 24.9541 4.12564 24.8993 4.29052ZM22.6894 7.6614C22.6346 7.753 22.4885 7.8446 22.3972 7.8446C22.2876 7.8446 22.2694 7.753 22.3241 7.6614C22.3789 7.55148 22.525 7.4782 22.6164 7.4782C22.7259 7.4782 22.7442 7.55148 22.6894 7.6614ZM24.8811 7.6614C24.9358 7.753 24.8993 7.8446 24.808 7.8446C24.6984 7.8446 24.6071 7.753 24.6071 7.6614C24.6071 7.55148 24.6436 7.4782 24.6802 7.4782C24.7349 7.4782 24.8263 7.55148 24.8811 7.6614ZM22.9634 10.8491C22.9634 10.904 22.8903 10.9956 22.7807 11.0506C22.6894 11.1055 22.5981 11.0689 22.5981 10.9773C22.5981 10.8674 22.6894 10.7758 22.7807 10.7758C22.8903 10.7758 22.9634 10.8124 22.9634 10.8491ZM20.6074 12.6444C20.7535 12.8643 22.5981 12.9742 22.5981 12.7727C22.5981 12.6627 22.6712 12.6261 22.7625 12.6994C22.8538 12.7543 22.9999 12.6994 23.0547 12.5895C23.1277 12.4979 23.3104 12.4429 23.4748 12.5162C23.6209 12.5711 23.8035 12.5345 23.8583 12.4429C23.9313 12.333 24.0775 12.333 24.2236 12.4063C24.4245 12.5345 24.4062 12.6444 24.1505 13.0475C23.9679 13.3039 23.6574 13.6337 23.4382 13.7619C22.3241 14.4031 21.8675 14.7329 21.8675 14.9527C21.8675 15.081 21.7945 15.1543 21.7032 15.0993C21.6301 15.0443 21.137 15.3924 20.6439 15.8687C20.1325 16.3451 19.6211 16.7115 19.4933 16.6748C19.3654 16.6199 19.3106 16.6565 19.3654 16.7481C19.402 16.8397 19.3472 17.0229 19.2011 17.1511C19.0549 17.2794 18.9454 17.3343 18.9454 17.2794C18.9454 17.2244 18.781 17.2611 18.5801 17.371C18.3792 17.4809 18.2513 17.6458 18.3061 17.7374C18.3609 17.8107 18.2513 17.8656 18.087 17.829C17.9043 17.8107 17.5208 17.9023 17.2468 18.0488C16.9546 18.1954 16.6807 18.287 16.6441 18.2503C16.5346 18.1221 16.7903 17.371 16.9729 17.371C17.0642 17.371 17.0825 17.2794 17.0094 17.1511C16.9364 17.0229 16.9546 17.0046 17.0825 17.0779C17.1921 17.1511 17.3747 17.0046 17.5025 16.7847C17.6304 16.5466 18.0687 15.8871 18.507 15.3008C18.9271 14.6963 19.2376 14.11 19.2011 13.9818C19.1463 13.8535 19.2741 13.6337 19.475 13.4871C19.6942 13.3406 19.8768 13.0108 19.8951 12.7543C19.9316 12.4063 20.0229 12.3147 20.2238 12.3879C20.3699 12.4429 20.5526 12.5528 20.6074 12.6444ZM14.6351 23.4166C15.183 23.7097 15.2926 24.0028 14.9091 24.131C14.7812 24.1677 14.7447 24.1127 14.836 23.9478C14.9091 23.8013 14.7812 23.8929 14.5438 24.1494C13.9959 24.7173 13.3567 25.2302 13.5211 24.9371C13.8133 24.4791 12.3522 25.3951 11.9504 25.9447C11.713 26.2562 11.4573 26.476 11.4025 26.421C11.3477 26.3661 11.165 26.531 11.0007 26.7874C10.818 27.0439 10.5989 27.2088 10.4345 27.1355C10.2884 27.0806 10.1788 27.1355 10.1788 27.2454C10.1788 27.4653 9.50305 28.2164 9.1743 28.363C9.08299 28.4179 9.00993 28.5095 9.04646 28.5828C9.06472 28.6744 9.00993 28.7294 8.91861 28.7294C8.62639 28.7294 7.60363 29.682 7.43926 30.085C7.34794 30.3415 7.43926 30.7446 7.73148 31.3308C8.15154 32.1552 8.20633 32.1918 8.80903 32.1186C9.15604 32.0636 9.44826 32.1002 9.44826 32.2102C9.44826 32.3201 9.61263 32.3201 9.86832 32.2285C10.3249 32.0453 11.0372 32.3384 10.5989 32.5216C10.471 32.5582 10.3614 32.6865 10.3614 32.7964C10.3614 33.0346 9.88659 33.4926 9.64916 33.4926C9.53958 33.4926 9.44826 33.6391 9.44826 33.804C9.44826 33.9689 9.24736 34.3353 8.99167 34.5917L8.53508 35.0864L9.35694 35.8375C10.3249 36.7169 10.5441 36.7535 11.7312 36.2405C12.2061 36.039 12.6627 35.9108 12.754 35.9841C12.8453 36.039 13.0462 35.9657 13.1923 35.8009C13.3567 35.6543 13.6672 35.5627 13.9229 35.6177C14.1968 35.6726 14.3794 35.6177 14.3794 35.4894C14.3794 35.3612 14.5621 35.3245 14.836 35.3612C15.1283 35.4161 15.3839 35.3429 15.5848 35.123C15.7492 34.9398 15.9684 34.8299 16.0414 34.8849C16.1328 34.9398 16.3154 34.9215 16.4432 34.8299C16.5528 34.7566 16.772 34.6833 16.8816 34.665C17.0094 34.6467 17.2468 34.5001 17.4112 34.3353C17.7217 34.0055 17.9226 33.9506 17.7582 34.2253C17.7034 34.3169 17.7217 34.4085 17.8313 34.4085C17.9226 34.4085 18.0687 34.3169 18.1235 34.2253C18.1783 34.1154 18.5253 34.0422 18.8723 34.0422C19.2741 34.0422 19.4933 33.9506 19.4933 33.7857C19.4933 33.4926 20.0777 33.3094 20.5891 33.4376C21.0092 33.5475 21.0822 33.859 20.6804 33.859C20.5343 33.859 20.3882 33.9322 20.3882 34.0422C20.3699 34.1337 20.3517 34.3353 20.3334 34.4452C20.3151 34.5734 20.2056 34.665 20.0777 34.6284C19.9499 34.6101 19.8038 34.7017 19.749 34.8482C19.6942 34.9948 19.5481 35.0864 19.4202 35.0314C19.1828 34.9398 18.2879 35.8558 18.3609 36.1123C18.3792 36.2039 18.3244 36.2222 18.2148 36.1489C18.1235 36.094 18.0322 36.1123 18.0322 36.2222C18.0322 36.3321 17.9226 36.3688 17.7948 36.3138C17.6669 36.2772 17.4477 36.4421 17.3016 36.6802C17.1738 36.9367 16.8998 37.1932 16.7172 37.2665C16.5346 37.3214 16.4432 37.4497 16.498 37.5596C16.5894 37.6878 16.4798 37.7245 16.1693 37.6512C15.8588 37.5596 15.6579 37.6329 15.4753 37.8893C15.3474 38.0725 15.1648 38.2008 15.0917 38.1458C15.0187 38.1092 14.7995 38.2741 14.5986 38.5305C14.3977 38.787 14.142 38.9885 14.0507 38.9885C13.9411 38.9885 13.8133 39.1534 13.7402 39.3366C13.6854 39.5381 13.5211 39.6664 13.4115 39.6114C13.2836 39.5748 13.0462 39.7763 12.8636 40.0694C12.6444 40.4541 12.4435 40.5824 12.2426 40.5091C12.0234 40.4175 11.9686 40.4725 12.06 40.6923C12.1148 40.8572 12.1148 40.9854 12.0417 40.9671C11.7312 40.9121 10.9276 41.3885 10.4893 41.9014C10.0144 42.4693 9.6309 42.6342 9.6309 42.2678C9.6309 42.1762 9.3752 41.993 9.06472 41.8831C8.71771 41.7732 8.55334 41.6083 8.60813 41.4434C8.66292 41.3152 8.62639 41.1503 8.53508 41.0953C8.42549 41.0221 8.35244 40.8205 8.35244 40.6373C8.35244 40.4358 8.13328 40.1977 7.80453 40.0511C7.3662 39.8679 7.25662 39.703 7.25662 39.245C7.25662 38.3473 6.37996 36.9733 5.81379 36.9733C5.70421 36.9733 5.66768 36.8451 5.72247 36.6985C5.83205 36.4237 4.99193 35.5077 4.62665 35.5077C4.49881 35.5077 4.40749 35.2146 4.40749 34.8116C4.40749 34.0605 3.78652 33.0346 3.23861 32.888C2.81855 32.7781 2.41675 31.6606 2.78202 31.6606C3.16556 31.6606 4.33443 31.0743 4.33443 30.8728C4.33443 30.5797 4.79103 30.2499 5.06498 30.3415C5.21109 30.3965 5.28414 30.3598 5.21109 30.2866C5.06498 30.1217 5.46678 29.6454 5.66768 29.7736C5.74074 29.8102 5.79553 29.7553 5.79553 29.6454C5.79553 29.5354 5.88685 29.4988 5.97816 29.5538C6.08775 29.6087 6.23385 29.4622 6.34344 29.2057C6.43476 28.9492 6.63566 28.7294 6.78176 28.7294C6.92787 28.7294 7.11051 28.5645 7.1653 28.363C7.23836 28.1614 7.3662 28.0332 7.45752 28.0882C7.54884 28.1614 7.67668 28.0698 7.73148 27.9233C7.78627 27.7584 7.95064 27.6302 8.09675 27.6302C8.24286 27.6302 8.35244 27.5019 8.35244 27.3554C8.35244 27.2088 8.44376 27.0806 8.53508 27.0806C8.64466 27.0806 8.71771 26.9523 8.71771 26.8058C8.71771 26.6592 8.82729 26.531 8.95514 26.531C9.10125 26.531 9.32041 26.3294 9.44826 26.073C9.5761 25.8348 9.77701 25.6516 9.88659 25.6699C9.99617 25.6882 10.0692 25.5966 10.051 25.4684C10.0144 25.3585 10.0875 25.2486 10.1788 25.2486C10.2884 25.2486 10.5441 25.0654 10.7815 24.8272C11.0007 24.6074 11.2381 24.4242 11.2929 24.4242C11.5486 24.4242 12.3704 23.2517 12.3704 22.8853C12.3704 22.6654 12.4618 22.5189 12.5713 22.5372C12.6809 22.5739 12.8088 22.4273 12.8453 22.2441C12.9549 21.5296 13.3567 21.5846 13.7402 22.3723C13.9594 22.7754 14.3612 23.2517 14.6351 23.4166ZM15.11 29.8652C15.11 29.9751 15.0004 29.9568 14.836 29.8286C14.6899 29.7003 14.5621 29.5721 14.5621 29.5354C14.5621 29.4988 14.6899 29.5171 14.836 29.5721C14.9821 29.6454 15.11 29.7736 15.11 29.8652ZM0.754756 31.6422C0.608647 31.8071 0.352955 31.4224 0.444274 31.1659C0.553856 30.8911 0.572119 30.9094 0.681701 31.2209C0.754756 31.4041 0.791283 31.6056 0.754756 31.6422ZM26.1595 31.6422C26.2143 31.7338 26.1778 31.8621 26.0682 31.9354C25.9769 31.9903 25.8856 31.917 25.8856 31.7705C25.8856 31.4407 25.9951 31.3858 26.1595 31.6422ZM37.5012 32.0636L38.0309 32.6682L37.4465 32.1369C36.8803 31.6239 36.7524 31.4774 36.8985 31.4774C36.9351 31.4774 37.1908 31.7522 37.5012 32.0636ZM25.3376 32.2834C25.3376 32.485 24.9906 32.5582 24.8811 32.3934C24.8263 32.3018 24.8993 32.2102 25.0454 32.2102C25.2098 32.2102 25.3376 32.2468 25.3376 32.2834ZM9.99617 35.3245C9.99617 35.4161 9.92311 35.5077 9.81353 35.5077C9.72221 35.5077 9.6309 35.4161 9.6309 35.3245C9.6309 35.2146 9.72221 35.1413 9.81353 35.1413C9.92311 35.1413 9.99617 35.2146 9.99617 35.3245ZM47.1627 37.7061C47.1079 37.7977 46.9436 37.8893 46.834 37.8893C46.7061 37.8893 46.7244 37.8161 46.8888 37.7061C47.2358 37.4863 47.3088 37.4863 47.1627 37.7061ZM47.875 38.5305C47.8019 38.6771 47.6741 38.7504 47.5828 38.6954C47.4732 38.6221 47.4915 38.5122 47.6376 38.4206C47.9846 38.2008 47.9846 38.2191 47.875 38.5305ZM19.9133 42.6892C19.8585 42.964 19.749 43.1472 19.6576 43.0922C19.475 42.9823 19.2558 43.1472 18.1966 44.1548C17.813 44.5395 17.4843 44.9242 17.4843 45.0341C17.4843 45.1257 17.4295 45.199 17.3564 45.1624C17.2651 45.1441 17.1921 45.199 17.1738 45.2723C17.1373 45.4738 16.3702 46.1333 16.1693 46.1333C16.0962 46.1333 16.0232 46.2616 16.0232 46.4081C16.0232 46.573 15.8223 46.7745 15.5848 46.8661C15.3474 46.9577 15.11 47.1043 15.0552 47.1776C14.9274 47.3791 15.2744 48.8996 15.4935 49.1378C15.731 49.4126 17.3199 49.3943 17.4295 49.1195C17.4843 48.9912 17.5939 48.9363 17.6852 48.9912C17.7765 49.0462 17.8495 48.9729 17.8495 48.8447C17.8495 48.6615 17.8861 48.6615 18.0139 48.863C18.1418 49.0645 18.2513 49.0462 18.5984 48.7164C18.8358 48.4966 19.1828 48.35 19.3472 48.405C19.5298 48.4416 19.6759 48.3867 19.6759 48.2584C19.6759 48.1485 19.8403 48.0386 20.0412 48.0203C20.5891 47.9653 21.8675 47.3791 21.758 47.2142C21.7214 47.1409 21.831 47.1043 22.0319 47.1409C22.2328 47.1776 22.4885 47.086 22.6164 46.9394C22.9086 46.573 23.1277 46.628 23.0912 47.0493C23.073 47.3791 22.9268 47.489 22.5616 47.434C22.5068 47.434 22.3607 47.6722 22.2511 47.9836C22.1415 48.2951 21.8858 48.5882 21.6849 48.6432C21.484 48.6981 21.3196 48.8264 21.3196 48.918C21.3196 49.0096 21.0639 49.3027 20.7535 49.5592C20.443 49.834 20.1142 50.237 20.0229 50.4752C19.9316 50.7133 19.7672 50.8782 19.6576 50.8599C19.5298 50.8232 19.3472 51.0797 19.2558 51.3912C19.1645 51.7209 18.9271 52.0324 18.7262 52.0873C18.5436 52.1606 18.434 52.2705 18.4888 52.3438C18.5253 52.4354 18.3609 52.582 18.1235 52.6919C17.8495 52.8201 17.6669 53.0583 17.6669 53.2781C17.6669 53.4796 17.5939 53.6445 17.4843 53.6445C17.393 53.6445 17.1738 53.9376 17.0094 54.2857C16.6807 54.9819 16.4798 55.0918 16.3154 54.6521C16.2606 54.5056 16.078 54.3773 15.9319 54.3773C15.7675 54.3773 15.6944 54.304 15.7492 54.1941C15.8771 53.9926 15.4205 52.9117 14.8908 52.1423C14.7082 51.8858 14.5621 51.4828 14.5621 51.2812C14.5621 51.0614 14.489 50.8965 14.416 50.8965C14.3247 50.8965 14.069 50.5301 13.8498 50.0721C13.6306 49.6141 13.3567 49.2477 13.2654 49.2477C13.174 49.2477 13.101 49.1378 13.101 49.0096C13.101 48.863 12.9366 48.5699 12.7357 48.3317C12.5348 48.0936 12.3704 47.8371 12.3704 47.7455C12.3704 47.6722 12.2609 47.5989 12.1148 47.5989C11.9504 47.5989 11.8956 47.4707 11.9504 47.2692C12.0417 46.9211 11.8408 46.3715 11.2746 45.4372C10.9641 44.9242 10.9459 44.8326 11.1833 44.741C11.3294 44.6677 11.5851 44.6677 11.713 44.7227C11.8591 44.7777 12.2609 44.7044 12.5713 44.5395C13.1193 44.2647 13.8498 44.0998 14.6169 44.0998C14.7812 44.0998 14.9274 44.0265 14.9274 43.9349C14.9274 43.8433 15.0369 43.8067 15.183 43.8617C15.4387 43.9716 16.7537 43.4403 16.9546 43.1655C17.0094 43.0922 17.2834 43.0006 17.5939 42.9823C17.8861 42.964 18.2331 42.8357 18.3609 42.7075C18.4705 42.5976 18.781 42.5243 19.0367 42.5793C19.2924 42.6159 19.4933 42.5793 19.4933 42.4693C19.4933 42.3594 19.5846 42.3228 19.6759 42.3777C19.7855 42.4327 19.8585 42.3961 19.8585 42.2678C19.8585 42.1396 19.8951 42.0846 19.9316 42.1213C19.9681 42.1579 19.9681 42.4144 19.9133 42.6892ZM37.0264 42.1762C37.0264 42.2312 36.9533 42.3228 36.8438 42.3777C36.7524 42.4327 36.6611 42.3961 36.6611 42.3045C36.6611 42.1945 36.7524 42.1029 36.8438 42.1029C36.9533 42.1029 37.0264 42.1396 37.0264 42.1762ZM36.1132 42.8357C36.1132 42.9273 36.0402 43.0189 35.9488 43.0189C35.8393 43.0189 35.7114 42.9273 35.6566 42.8357C35.6018 42.7258 35.6749 42.6525 35.821 42.6525C35.9854 42.6525 36.1132 42.7258 36.1132 42.8357ZM35.7479 44.3563C35.7479 44.4479 35.547 44.4845 35.3096 44.4479C34.8347 44.3929 34.2868 44.7593 34.2868 45.1441C34.2868 45.2906 34.1955 45.4005 34.0859 45.4005C33.9764 45.4005 33.9216 45.5471 33.9581 45.7303C34.0311 46.0051 33.9581 46.06 33.5198 46.0234C32.7892 45.9684 32.6796 45.8036 33.2458 45.657C33.5198 45.602 33.7755 45.3822 33.8302 45.199C33.9033 45.0158 34.0129 44.8509 34.1042 44.8509C34.1955 44.8509 34.232 44.7227 34.1773 44.5761C34.0859 44.3746 34.1407 44.338 34.3599 44.4113C34.5243 44.4662 34.6521 44.4296 34.6521 44.3197C34.6521 44.2097 34.8895 44.1365 35.2 44.1548C35.5105 44.1731 35.7479 44.2647 35.7479 44.3563ZM23.3286 45.602C23.3286 45.6936 23.1825 45.7669 23.0182 45.7486C22.8173 45.7486 22.7807 45.6936 22.9268 45.6387C23.0364 45.602 23.0912 45.4555 23.0364 45.3639C22.9634 45.2357 22.9999 45.2173 23.1095 45.2906C23.2373 45.3639 23.3286 45.4921 23.3286 45.602ZM22.2328 45.9501C22.2328 46.0417 22.1598 46.1333 22.0502 46.1333C21.9589 46.1333 21.8675 46.0417 21.8675 45.9501C21.8675 45.8402 21.9589 45.7669 22.0502 45.7669C22.1598 45.7669 22.2328 45.8402 22.2328 45.9501ZM32.1865 46.4448C31.9856 46.573 31.7847 46.6829 31.6934 46.6829C31.6203 46.6829 31.5473 46.8112 31.5473 46.9577C31.5473 47.1043 31.456 47.2325 31.3647 47.2325C31.2368 47.2325 31.2368 47.1226 31.3647 46.8844C31.6569 46.3165 32.1135 45.9318 32.3144 46.06C32.4422 46.1516 32.3874 46.2799 32.1865 46.4448ZM30.214 48.002C30.1593 48.1485 30.1045 48.0936 30.1045 47.892C30.0862 47.6905 30.141 47.5806 30.1958 47.6539C30.2506 47.7088 30.2688 47.8737 30.214 48.002ZM33.3737 48.5149C33.3737 48.6065 33.3371 48.6981 33.3006 48.6981C33.2458 48.6981 33.1545 48.6065 33.0997 48.5149C33.0449 48.405 33.0814 48.3317 33.1728 48.3317C33.2823 48.3317 33.3737 48.405 33.3737 48.5149ZM16.0232 48.5882C16.0232 48.6248 15.8771 48.7714 15.7127 48.8996C15.4205 49.1378 15.4022 49.1195 15.6396 48.8264C15.8771 48.5332 16.0232 48.4416 16.0232 48.5882ZM23.3834 48.7714C23.4565 48.9546 23.4017 49.0096 23.2191 48.9363C23.0912 48.8813 22.9634 48.7714 22.9634 48.6798C22.9634 48.4233 23.2739 48.4966 23.3834 48.7714ZM32.6431 48.9546C32.6431 48.9912 32.5153 49.0645 32.3692 49.1378C32.223 49.1928 32.0952 49.1561 32.0952 49.0645C32.0952 48.9546 32.223 48.8813 32.3692 48.8813C32.5153 48.8813 32.6431 48.918 32.6431 48.9546ZM22.5981 49.4309C22.5981 49.5225 22.5068 49.6141 22.3972 49.6141C22.3059 49.6141 22.2694 49.5225 22.3241 49.4309C22.3789 49.321 22.4703 49.2477 22.525 49.2477C22.5616 49.2477 22.5981 49.321 22.5981 49.4309ZM32.1135 49.9256C32.0404 50.2187 32.0039 50.5484 32.0404 50.6584C32.0952 50.7866 32.0404 50.8965 31.9308 50.8965C31.6934 50.8965 30.9081 51.6843 30.7254 52.124C30.6524 52.3072 30.5976 52.6003 30.6158 52.7652C30.6341 52.9484 30.5611 53.0949 30.4515 53.0949C30.0497 53.0949 29.5566 53.7728 29.3739 54.5605C29.2826 55.0185 29.0269 55.5315 28.8077 55.6964C28.5886 55.8612 28.3877 56.246 28.3329 56.5208C28.2781 56.7956 28.132 57.0887 27.9859 57.1803C27.4197 57.4917 26.7987 58.8107 26.7805 59.7267C26.7805 59.9099 26.6526 60.0565 26.5065 60.0565C26.3604 60.0565 26.2508 60.1664 26.2508 60.313C26.2508 60.4412 26.1412 60.6611 25.9951 60.771C25.849 60.8992 25.6847 61.3206 25.6116 61.7236C25.5385 62.1083 25.4107 62.4381 25.3194 62.4381C25.2098 62.4381 25.155 62.548 25.1733 62.6579C25.2463 63.2259 25.1367 63.5556 24.7532 63.9037C24.5158 64.1235 24.3331 64.5083 24.3149 64.7831C24.3149 65.0579 24.2418 65.3876 24.1688 65.5159C24.0957 65.6441 24.0775 65.809 24.1505 65.9006C24.2053 66.0105 24.1322 66.1387 23.9861 66.2303C23.6391 66.4319 22.9268 67.9707 23.1095 68.1539C23.2008 68.2455 22.9451 68.6486 22.5616 69.0699C22.178 69.4913 21.8675 69.8943 21.8675 69.9859C21.8675 70.0592 21.7762 70.1325 21.6849 70.1325C21.5571 70.1325 21.5571 70.0226 21.6849 69.7844C21.8128 69.5279 21.8128 69.3814 21.6666 69.3081C21.5571 69.2348 21.5205 69.0699 21.5753 68.9234C21.6301 68.7768 21.5936 68.6669 21.5023 68.6669C21.411 68.6669 21.3744 68.4287 21.4292 68.1356C21.5023 67.8425 21.4475 67.5494 21.3379 67.4944C21.2283 67.4211 21.137 66.9998 21.137 66.5418C21.137 65.9555 21.0639 65.7357 20.863 65.7357C20.7169 65.7357 20.5891 65.6258 20.5891 65.4975C20.5891 65.3693 20.4247 65.0762 20.2238 64.8563C20.0229 64.6548 19.9316 64.4167 20.0412 64.3617C20.4065 64.1235 19.9499 62.603 19.2924 61.9068C19.0184 61.6137 18.8723 61.2107 18.8358 60.6427C18.8175 60.1664 18.6714 59.7084 18.5436 59.5985C18.3975 59.5069 18.2696 59.1588 18.2513 58.8291C18.1966 58.1512 17.5208 56.8872 17.2834 57.052C17.1921 57.107 17.119 57.107 17.119 57.052C17.119 57.0154 17.0642 56.8505 17.0094 56.6856C16.9364 56.5024 16.9912 56.3925 17.1738 56.3925C17.3199 56.3925 17.5025 56.5208 17.5573 56.6673C17.6304 56.8872 17.74 56.9238 18.0139 56.7589C18.2148 56.6673 18.5801 56.5574 18.8358 56.5391C19.1097 56.5208 19.3106 56.4108 19.3106 56.3009C19.3106 56.191 19.5298 56.0811 19.822 56.0628C20.096 56.0444 20.4065 55.8979 20.516 55.7513C20.6256 55.6048 20.8083 55.4765 20.8996 55.4765C21.1918 55.4765 22.0867 54.9819 22.2511 54.7254C22.4337 54.4323 23.3286 54.3407 23.3286 54.6155C23.3286 54.7437 23.0364 55.0735 22.6712 55.3666C22.3059 55.6414 21.9406 56.136 21.831 56.4292C21.7214 56.7223 21.5936 56.9238 21.5571 56.8688C21.5023 56.8139 21.137 57.1253 20.7535 57.5467L20.0594 58.3161L20.7717 59.0306L21.4657 59.7451L22.0684 59.1405C22.7625 58.4627 23.1825 57.7115 23.0364 57.4734C22.9816 57.3818 23.0912 57.3085 23.2739 57.3085C23.5661 57.3085 23.8035 57.0887 24.9724 55.678C25.1733 55.4399 25.3376 55.0918 25.3376 54.9086C25.3376 54.7254 25.5568 54.414 25.849 54.1941C26.123 53.9743 26.5613 53.4613 26.8535 53.04C27.438 52.1606 28.4059 51.2629 28.753 51.2629C29.1365 51.2629 30.4515 50.5484 30.4515 50.3469C30.4515 50.237 30.5976 50.1637 30.7802 50.1637C30.9446 50.1637 31.2916 49.9988 31.5473 49.7973C32.1683 49.321 32.2778 49.3393 32.1135 49.9256ZM20.7717 67.128C20.7717 67.1647 20.6439 67.2013 20.4978 67.2013C20.3517 67.2013 20.2238 67.128 20.2238 67.0181C20.2238 66.9265 20.3517 66.8899 20.4978 66.9448C20.6439 67.0181 20.7717 67.0914 20.7717 67.128ZM20.5891 67.8608C20.5891 68.0074 20.4978 68.0807 20.4065 68.0257C20.2969 67.9524 20.2603 67.8242 20.3151 67.7326C20.4795 67.4761 20.5891 67.5311 20.5891 67.8608Z"
          fill="white"/>
    <path d="M73.2432 55.4032C72.8779 55.7329 72.6223 56.0627 72.6953 56.136C72.7684 56.2093 72.7318 56.3741 72.6223 56.5207C72.4579 56.6856 72.4761 56.7589 72.6223 56.7589C72.9875 56.7589 72.8414 57.052 72.3666 57.2718C71.8734 57.4917 71.289 58.4993 71.4534 58.7924C71.5264 58.884 71.4716 59.0855 71.3621 59.2321C71.2525 59.3786 71.1977 59.5801 71.2707 59.6901C71.3255 59.7817 71.2707 59.8733 71.1246 59.8733C70.9968 59.8733 70.7776 60.1664 70.6315 60.5145C70.4854 60.8625 70.321 61.1557 70.248 61.1557C70.1749 61.1557 70.1384 61.3022 70.1567 61.4671C70.1932 61.6503 69.974 61.9434 69.6453 62.1633C69.3348 62.3648 68.9147 62.8228 68.6956 63.1708C68.4764 63.5189 68.1111 63.9952 67.9102 64.2334C67.7093 64.4532 67.4719 64.8563 67.4171 65.1128C67.3441 65.3692 67.1066 65.6624 66.8692 65.7723C66.6318 65.8822 66.4309 66.0837 66.4309 66.2303C66.4309 66.3585 66.3578 66.4684 66.2482 66.4684C66.1569 66.4684 65.9743 66.8348 65.8647 67.2745C65.7003 67.934 65.609 68.0623 65.3168 67.989C65.1159 67.934 64.9332 68.0073 64.8602 68.1905C64.8054 68.3554 64.641 68.4836 64.4949 68.4836C64.3488 68.4836 64.2392 68.5936 64.2392 68.7035C64.2392 68.9783 63.4539 69.9309 62.1024 71.3049C61.5727 71.8362 61.1344 72.4041 61.1344 72.569C61.1344 72.7522 61.0066 72.8804 60.8605 72.8804C60.4221 72.8804 59.308 74.0529 59.308 74.5109C59.308 74.7307 59.235 74.859 59.1254 74.804C59.0341 74.7491 58.7601 74.8223 58.5227 74.9689C58.0478 75.2987 57.2442 76.6177 57.4269 76.8009C57.4817 76.8559 57.4086 76.9108 57.226 76.9108C56.8242 76.9108 55.6188 78.1932 55.7284 78.4863C55.7832 78.6146 55.7284 78.6879 55.6005 78.6329C55.1987 78.4863 54.176 79.2924 53.8655 79.9886C53.6646 80.4099 53.4454 80.6481 53.281 80.6115C53.1167 80.5931 52.8062 80.7397 52.587 80.9595C52.3496 81.1611 52.0574 81.3626 51.9478 81.3809C50.9798 81.5275 51.0529 82.3519 52.1487 83.506C53.4819 84.9167 53.9751 85.5212 53.8107 85.5212C53.5367 85.5212 53.8655 86.0525 54.2125 86.1624C54.4316 86.2357 54.5595 86.4555 54.5595 86.712C54.5595 86.9502 54.6508 87.17 54.7604 87.2066C54.8517 87.2433 54.9613 87.4082 54.9796 87.573C55.0161 87.7379 55.1257 87.9761 55.2535 88.1226C55.3631 88.2692 55.4179 88.4341 55.3631 88.489C55.3083 88.5623 55.5092 88.947 55.8197 89.3684C56.1302 89.8081 56.3311 90.2111 56.2763 90.3027C56.2215 90.3943 56.3128 90.5958 56.4772 90.7607C56.6415 90.9256 56.8242 91.292 56.879 91.5668C56.9338 91.8966 57.0616 92.0614 57.226 91.9882C57.3904 91.9332 57.4451 92.0248 57.3904 92.3546C57.3356 92.611 57.4086 92.9042 57.573 93.0324C57.7191 93.1606 57.8469 93.3622 57.8469 93.4904C57.8469 93.6003 58.1392 94.0034 58.5044 94.3881C58.8515 94.7545 59.1071 95.1209 59.0341 95.2125C58.9793 95.3041 59.1437 95.6338 59.3994 95.927C59.6551 96.2201 59.856 96.5682 59.856 96.6964C59.856 96.8063 59.929 96.8613 60.0021 96.8063C60.0751 96.7697 60.1664 96.9712 60.1847 97.2826C60.203 97.5757 60.3491 97.9605 60.4952 98.107C60.6413 98.2536 60.7691 98.4917 60.7691 98.6383C60.7691 98.7849 60.8239 98.8948 60.9152 98.8948C60.9883 98.8948 61.0614 99.1513 61.0796 99.4444C61.0979 99.7558 61.2805 100.214 61.4814 100.47C61.6823 100.727 61.7919 101.057 61.7554 101.185C61.7006 101.331 61.7736 101.624 61.938 101.863C62.1024 102.082 62.2302 102.467 62.2302 102.687C62.2302 102.925 62.3033 103.108 62.3763 103.108C62.4677 103.108 62.5407 103.218 62.559 103.328C62.6503 104.226 62.7781 104.647 62.9973 104.775C63.1251 104.867 63.1617 104.94 63.0886 104.94C63.0156 104.94 63.0338 105.124 63.1617 105.325C63.3078 105.6 63.3078 105.673 63.1617 105.6C62.8512 105.398 62.9242 105.838 63.253 106.168C63.3991 106.333 63.5087 106.662 63.4722 106.937C63.4356 107.23 63.5087 107.395 63.6365 107.377C63.7826 107.34 63.947 107.762 64.0931 108.421C64.2027 109.026 64.3853 109.52 64.4767 109.52C64.568 109.52 64.6045 109.649 64.5497 109.795C64.4767 109.942 64.5132 110.107 64.6045 110.162C64.7141 110.217 64.8785 110.436 64.988 110.656C65.1342 110.931 65.1342 111.004 64.988 110.913C64.5862 110.656 64.8054 111.004 65.3898 111.536C65.883 111.975 66.0839 112.049 66.6135 111.975C67.5632 111.829 67.892 111.719 67.8372 111.572C67.8189 111.499 68.1111 111.114 68.4947 110.729C68.8782 110.308 69.1704 109.832 69.1704 109.575C69.1704 109.355 69.2617 109.154 69.3531 109.154C69.4626 109.154 69.5357 109.007 69.5357 108.843C69.5357 108.678 69.8462 108.256 70.2297 107.908C70.595 107.56 70.9055 107.23 70.9055 107.157C70.9055 107.084 71.2159 106.717 71.5995 106.314C72.0561 105.838 72.2387 105.508 72.1657 105.27C72.1109 105.087 72.1474 104.94 72.257 104.94C72.3483 104.94 72.4944 104.775 72.5492 104.574C72.604 104.372 72.8232 104.208 73.0241 104.208C73.2067 104.208 73.3711 104.098 73.3711 103.969C73.3711 103.841 73.6633 103.401 74.0103 103.017C74.3573 102.614 74.686 102.064 74.7408 101.789C74.8139 101.496 74.9417 101.313 75.0331 101.386C75.1244 101.441 75.1974 101.405 75.1974 101.313C75.1974 101.203 75.4531 100.855 75.7636 100.525C76.1654 100.104 76.2567 99.9024 76.0923 99.7925C75.928 99.7009 76.0376 99.6093 76.4028 99.5177C77.1516 99.3345 78.01 98.565 78.1196 97.9971C78.1744 97.7406 78.3205 97.5208 78.4484 97.5208C78.5762 97.5208 78.7406 97.4292 78.8136 97.3193C78.8867 97.2093 79.1241 97.0261 79.3615 96.8979C79.5807 96.7697 79.7268 96.6048 79.6903 96.5315C79.6355 96.4582 79.7999 96.2934 80.0373 96.1834C80.293 96.0552 80.4939 95.8537 80.4939 95.7071C80.4939 95.5606 80.7861 95.2674 81.1331 95.0476C81.4801 94.8278 81.7723 94.5346 81.7723 94.3881C81.7723 94.2415 81.8637 94.1316 81.955 94.1316C82.0646 94.1316 82.1376 94.0034 82.1376 93.8385C82.1376 93.6919 82.2107 93.6003 82.302 93.6736C82.3933 93.7286 82.5212 93.6003 82.5942 93.3988C82.649 93.1973 82.8682 93.0324 83.0691 93.0324C83.2517 93.0324 83.4161 92.9591 83.4161 92.8675C83.4161 92.7576 83.8727 92.3912 84.4206 92.0248C84.9685 91.6401 85.4251 91.2737 85.4251 91.1638C85.4251 91.0722 85.4981 91.0355 85.5712 91.0905C85.7356 91.1821 86.7401 90.1928 87.0505 89.6066C87.1784 89.3501 87.361 89.2402 87.5254 89.2951C87.6715 89.3684 87.7994 89.3318 87.7994 89.2218C87.7994 89.1302 88.055 88.947 88.3473 88.8188C88.6577 88.6906 88.8952 88.489 88.8952 88.3608C88.8952 88.2326 89.0413 88.141 89.2239 88.1776C89.3883 88.2142 89.644 88.2509 89.7718 88.2509C89.8997 88.2692 89.9545 88.3425 89.8997 88.4524C89.8449 88.544 89.8814 88.6356 89.991 88.6356C90.1006 88.6356 90.1371 88.7089 90.0823 88.8188C90.0093 88.9287 90.3563 89.002 90.9772 89.002C92 89.002 92 89.002 92 88.4524C92 88.1226 91.8904 87.8478 91.726 87.7929C91.5617 87.7196 91.4521 87.4448 91.4521 87.1517C91.4521 86.3639 90.5754 84.6785 90.3015 84.9533C89.9727 85.2831 89.6805 85.1915 89.5527 84.7151C89.4979 84.4587 89.3335 84.1472 89.2057 84.019C89.0961 83.8724 88.8769 83.5976 88.7491 83.4144C88.4203 82.8648 87.4889 81.4725 87.2149 81.0511C87.0871 80.8679 86.8314 80.5382 86.6487 80.3367C86.4661 80.1535 86.1922 79.7138 86.046 79.3657C85.8999 79.0176 85.6625 78.6879 85.5164 78.6329C85.3703 78.5779 85.2059 78.2482 85.1329 77.9001C85.0781 77.552 84.9685 77.2772 84.8954 77.2772C84.8224 77.2772 84.658 76.9658 84.5302 76.5811C84.3841 76.2147 84.0918 75.6651 83.8544 75.3903C83.617 75.0971 83.4526 74.7857 83.5074 74.7124C83.69 74.4193 82.9777 73.2468 82.5029 73.027C82.1194 72.8621 82.028 72.6972 82.0463 72.2576C82.0646 71.8728 81.9367 71.5614 81.608 71.2133C81.2975 70.9019 81.1149 70.4988 81.0783 70.0592C81.0235 69.2531 80.5669 68.5569 79.9825 68.392C79.6355 68.3004 79.599 68.2272 79.7633 67.934C79.946 67.6043 79.7633 66.9814 79.3798 66.6516C79.325 66.5967 79.2337 66.4135 79.1606 66.2303C79.0876 66.0471 78.9597 65.9555 78.8502 66.0104C78.5945 66.1753 78.6127 65.8639 78.8867 65.5891C79.0511 65.4242 79.0511 65.3692 78.905 65.3692C78.7771 65.3692 78.7041 65.2227 78.7041 65.0395C78.7406 64.5815 78.1379 63.409 77.8091 63.2808C77.59 63.1892 77.5717 63.1159 77.7361 62.9144C77.8822 62.7312 77.9004 62.6212 77.7543 62.5296C77.6448 62.4747 77.6082 62.3281 77.6813 62.2365C77.7361 62.1449 77.6813 61.9434 77.5717 61.7969C77.4621 61.6503 77.4073 61.4488 77.4804 61.3572C77.6448 61.0641 77.243 60.4229 76.8777 60.4045C76.695 60.4045 76.6585 60.3496 76.8046 60.2946C76.9142 60.258 77.0238 59.9649 77.0238 59.6717C77.0238 59.342 76.9507 59.1588 76.8412 59.2321C76.7316 59.3053 76.6585 59.1221 76.6585 58.8107C76.6585 58.4443 76.5307 58.2245 76.2019 58.0413C75.9462 57.8947 75.8184 57.7481 75.9097 57.6932C76.2385 57.4733 76.275 56.4657 75.9645 55.6597C75.654 54.8536 75.6358 54.8353 74.7956 54.8169C74.0651 54.7986 73.8277 54.8902 73.2432 55.4032ZM74.5217 58.9023C74.686 59.287 74.8504 59.7267 74.8687 59.8733C74.9052 60.0198 75.0331 60.258 75.1609 60.4045C75.307 60.5511 75.3801 60.8625 75.307 61.174C75.2522 61.5037 75.307 61.7053 75.4714 61.7785C75.6175 61.8335 75.6905 61.9984 75.6358 62.1449C75.581 62.2915 75.7453 62.8228 75.9828 63.3357C76.2385 63.8304 76.3846 64.2884 76.3298 64.3616C76.2567 64.4166 76.3115 64.5448 76.4394 64.6181C76.5672 64.6914 76.695 64.9479 76.7498 65.1677C76.8959 65.9738 77.0603 66.2852 77.243 66.1753C77.3343 66.1204 77.4073 66.212 77.3708 66.3952C77.3343 66.7432 77.4621 67.2196 77.7726 67.7875C77.8639 67.9707 77.937 68.2455 77.937 68.392C77.937 68.5569 78.0648 68.7218 78.2292 68.7951C78.3753 68.85 78.4666 69.0149 78.4118 69.1615C78.357 69.2897 78.5214 69.5828 78.7588 69.8027C79.0145 70.0225 79.2154 70.3523 79.2154 70.5355C79.2154 70.7187 79.3068 70.8652 79.4163 70.8652C79.5077 70.8652 79.5807 71.0301 79.5442 71.2133C79.5077 71.4148 79.6903 71.7812 79.9277 72.0377C80.1834 72.2942 80.2747 72.514 80.1651 72.514C79.8912 72.514 80.3295 73.3384 80.8226 73.7781C81.0418 73.9613 81.1696 74.1628 81.1149 74.2178C81.0418 74.2727 81.1331 74.4743 81.2975 74.6391C81.4801 74.804 81.5714 75.0605 81.5167 75.2071C81.4436 75.3536 81.5714 75.5185 81.8271 75.6101C82.0463 75.7017 82.2107 75.7933 82.1741 75.8299C82.0098 76.0315 82.8134 77.8268 83.0508 77.8268C83.1604 77.8268 83.2152 77.9001 83.1421 78.01C83.0143 78.2299 83.8909 79.6588 84.1649 79.6588C84.2745 79.6588 84.3293 79.8237 84.2745 80.0252C84.1649 80.4283 85.3338 82.1137 85.6077 81.9488C85.6808 81.8939 85.8086 82.1503 85.8817 82.5167C85.9547 82.9381 86.1191 83.2129 86.3383 83.2679C86.7218 83.3778 86.9958 83.8724 86.6487 83.8724C86.5209 83.8724 86.6487 84.0739 86.941 84.3121C87.2149 84.5503 87.4341 84.8251 87.4341 84.9533C87.4341 85.0632 87.5254 85.1548 87.6167 85.1548C87.7263 85.1548 87.7994 85.2831 87.7994 85.4479C87.7994 85.5945 87.8907 85.6678 87.982 85.6128C88.0916 85.5578 88.1829 85.5578 88.1829 85.6494C88.3107 86.4738 88.2742 86.6387 87.8724 86.7303C87.635 86.7853 87.4341 86.9135 87.4341 87.0051C87.4341 87.0967 87.3062 87.17 87.1601 87.17C87.014 87.17 86.8862 87.2433 86.8862 87.3532C86.8862 87.4448 86.7766 87.5364 86.6305 87.5364C86.3748 87.5364 85.6808 88.4341 85.7538 88.6722C85.7721 88.7638 85.626 88.8188 85.4251 88.8188C85.2242 88.8188 85.0598 88.8921 85.0598 89.002C85.0598 89.0936 84.9502 89.1852 84.8224 89.1852C84.6945 89.1852 84.4936 89.3501 84.3658 89.5516C84.2379 89.7531 84.0553 89.918 83.9457 89.918C83.7631 89.918 83.343 90.321 82.6673 91.1638C82.5577 91.292 82.4116 91.347 82.302 91.292C82.2107 91.2187 81.8454 91.4019 81.4984 91.6767C81.0235 92.0248 80.8592 92.2996 80.8592 92.6843C80.8592 93.0874 80.7678 93.2156 80.4939 93.2156C80.293 93.2156 80.1286 93.2706 80.1286 93.3622C80.1286 93.4354 79.946 93.582 79.7268 93.6736C79.4894 93.7835 79.2337 94.1133 79.1424 94.443C79.0145 94.8827 78.8319 95.0659 78.4484 95.1392C78.1744 95.2125 77.937 95.3224 77.937 95.3957C77.937 95.469 77.7361 95.6338 77.4804 95.7438C77.1882 95.8903 76.969 96.1651 76.9142 96.5132C76.8229 96.8979 76.5307 97.2643 75.8914 97.704C75.3983 98.0704 75.0513 98.4368 75.1061 98.5284C75.1609 98.6383 75.0878 98.7116 74.9052 98.7116C74.5947 98.7116 73.4806 99.8841 73.4441 100.25C73.4259 100.36 73.4076 100.599 73.3893 100.763C73.3893 100.947 73.298 101.093 73.1884 101.093C72.951 101.093 72.3666 101.679 72.2205 102.082C72.1474 102.247 72.0196 102.339 71.91 102.284C71.7456 102.174 71.6543 102.54 71.7091 103.072C71.7273 103.2 71.6725 103.273 71.5995 103.255C71.3438 103.163 70.4123 103.988 70.5219 104.189C70.595 104.281 70.5585 104.409 70.4489 104.482C70.3393 104.556 70.3028 104.684 70.3576 104.775C70.4306 104.867 70.3393 104.995 70.1932 105.05C70.0288 105.105 69.901 105.325 69.901 105.508C69.901 105.691 69.8279 105.856 69.7366 105.856C69.3348 105.856 68.4033 106.882 67.965 107.798C67.4902 108.806 66.5587 109.887 66.1934 109.887C66.0656 109.887 66.1204 109.795 66.2848 109.685C66.5222 109.557 66.5587 109.41 66.4491 109.191C66.1752 108.678 66.0108 108.165 66.0473 107.927C66.0656 107.817 65.9195 107.67 65.7551 107.615C65.4994 107.523 65.4081 107.304 65.4081 106.626C65.4081 106.095 65.262 105.545 65.0976 105.288C64.9332 105.05 64.7871 104.629 64.7871 104.354C64.7871 104.079 64.7141 103.823 64.6228 103.768C64.5314 103.713 64.4949 103.493 64.5497 103.292C64.6045 103.09 64.568 102.925 64.4767 102.925C64.3853 102.925 64.2027 102.431 64.0749 101.844C63.947 101.24 63.7278 100.708 63.5817 100.654C63.4356 100.599 63.326 100.434 63.326 100.269C63.326 100.122 63.1799 99.994 63.0156 99.9757C62.8147 99.9757 62.7781 99.9207 62.9242 99.8657C63.2165 99.7558 63.0338 98.6749 62.559 97.8322C62.3763 97.5025 62.2302 97.1544 62.2302 97.0445C62.2302 96.9346 62.1024 96.733 61.9563 96.5682C61.7919 96.4216 61.6093 96.0552 61.5545 95.7621C61.4997 95.469 61.3901 95.2308 61.2988 95.2308C61.2075 95.2308 61.1344 95.1209 61.1344 94.9926C61.1161 94.6812 60.4769 93.9484 60.2212 93.9484C60.0934 93.9484 60.0386 93.8202 60.1116 93.6553C60.2212 93.3438 59.3446 91.9515 59.0341 91.9332C58.9428 91.9332 58.8515 91.6767 58.8332 91.3653C58.8149 90.7241 58.4679 89.9913 57.9383 89.46C57.7191 89.2402 57.5913 88.9287 57.6278 88.6722C57.6643 88.4524 57.6095 88.2692 57.4999 88.2692C57.3904 88.2692 57.3173 88.2142 57.3356 88.1226C57.4086 87.9028 56.7146 86.9868 56.5502 87.0784C56.4772 87.1334 56.4406 86.9135 56.4772 86.5838C56.5502 85.9792 56.2763 85.3563 55.637 84.7335C55.4544 84.5686 55.2352 84.422 55.1257 84.422C55.0343 84.422 54.9978 84.2571 55.0526 84.0556C55.1074 83.8358 55.0343 83.6526 54.8517 83.5793C54.6873 83.5243 54.5595 83.3595 54.5595 83.2129C54.5595 83.0847 54.4316 82.9015 54.2673 82.8099C53.9933 82.6633 54.0116 82.59 54.3769 82.0771C54.6143 81.7656 54.87 81.5458 54.9613 81.6007C55.0343 81.6557 55.1622 81.5458 55.2352 81.3626C55.3631 81.0145 55.9841 80.3916 56.2215 80.3916C56.2945 80.3916 56.4224 80.2267 56.4772 80.0252C56.532 79.8237 56.6598 79.6588 56.7511 79.6588C56.9703 79.6588 58.3949 78.3581 58.3949 78.1566C58.3949 77.9367 58.8697 77.4604 58.9793 77.5703C59.0341 77.607 59.2167 77.3505 59.4176 77.0024C59.6003 76.6543 59.8742 76.3612 60.0021 76.3612C60.1482 76.3612 60.2212 76.2513 60.1482 76.0864C60.0934 75.9399 60.1299 75.8116 60.2212 75.8116C60.5134 75.8116 62.2302 74.1262 62.1206 73.943C62.0293 73.8148 62.3033 73.7232 62.632 73.7781C62.7051 73.7781 62.8695 73.6132 62.979 73.3751C63.1069 73.1552 63.3808 72.8255 63.5817 72.624C63.8009 72.4408 63.947 72.2209 63.9287 72.1293C63.8922 72.0377 64.1114 71.8545 64.3853 71.708C64.8602 71.4698 65.4446 70.6088 65.3716 70.2607C65.3533 70.1874 65.4081 70.1508 65.4994 70.1691C65.6638 70.224 67.892 67.9707 67.892 67.7325C67.892 67.6409 68.1111 67.3478 68.4033 67.0547C68.8965 66.5417 69.4261 65.644 69.4444 65.241C69.4444 64.9845 69.6818 64.728 69.9192 64.728C70.0105 64.728 70.1019 64.6364 70.1201 64.5448C70.1749 64.2517 70.8872 63.5739 71.0516 63.6655C71.1246 63.7021 71.1977 63.6472 71.1977 63.5556C71.2159 63.4456 71.2525 63.2624 71.2707 63.1708C71.289 63.0609 71.3255 62.896 71.3438 62.7861C71.3438 62.6945 71.4351 62.6396 71.5264 62.6945C71.7091 62.8228 72.4579 61.632 72.4579 61.2289C72.4579 61.0641 72.5857 60.8259 72.7318 60.661C72.8779 60.5145 72.9693 60.3313 72.9145 60.2397C72.8597 60.1664 72.951 60.0381 73.1154 59.9832C73.2615 59.9282 73.3711 59.7817 73.3528 59.6534C73.2797 59.1038 73.3893 58.7741 73.6085 58.8107C73.7181 58.8473 73.8094 58.7191 73.7729 58.5359C73.6815 57.9497 74.2295 58.2245 74.5217 58.9023ZM76.2932 60.0565C76.2932 60.1481 76.2202 60.2397 76.1106 60.2397C76.0193 60.2397 75.928 60.1481 75.928 60.0565C75.928 59.9465 76.0193 59.8733 76.1106 59.8733C76.2202 59.8733 76.2932 59.9465 76.2932 60.0565ZM76.8412 60.8809C76.8412 60.9175 76.7133 61.0274 76.5672 61.1557C76.348 61.3389 76.2932 61.3389 76.2932 61.119C76.2932 60.9725 76.4211 60.8442 76.5672 60.8442C76.7133 60.8442 76.8412 60.8625 76.8412 60.8809ZM52.1852 82.4068C52.1852 82.4984 52.0574 82.59 51.893 82.59C51.7469 82.59 51.6738 82.4984 51.7286 82.4068C51.7834 82.2969 51.9113 82.2236 52.0208 82.2236C52.1122 82.2236 52.1852 82.2969 52.1852 82.4068ZM72.5492 103.31C72.3666 103.585 72.0926 103.493 72.2022 103.2C72.2752 103.053 72.3848 102.98 72.4761 103.035C72.5675 103.09 72.604 103.218 72.5492 103.31Z"
          fill="white"/>
</svg>
