<svg width="92" height="83" viewBox="0 0 92 83" fill="none" xmlns="http://www.w3.org/2000/svg">
    <path d="M84.6342 0.165141C84.4153 0.301672 84.1143 0.356284 83.9775 0.274366C83.868 0.192448 83.5397 0.301672 83.2387 0.492815C82.883 0.765876 82.5547 0.793182 82.0622 0.629345C81.6791 0.465509 81.3234 0.465509 81.2413 0.602039C81.1592 0.73857 80.5573 0.820488 79.9006 0.765876C79.0798 0.73857 78.6693 0.820488 78.5599 1.09355C78.4504 1.39392 78.3136 1.42122 78.04 1.17547C77.4654 0.711264 75.4133 0.683958 74.5104 1.17547C74.0726 1.39392 73.5801 1.55775 73.4706 1.53045C72.4309 1.23008 70.7618 1.28469 70.6524 1.58506C70.5429 1.88543 70.3787 1.88543 69.7768 1.63967C68.6823 1.12086 65.8914 1.44853 65.8914 2.07657C65.8914 2.2131 65.7273 2.24041 65.5631 2.10388C65.0706 1.83081 63.4289 1.7762 63.2647 2.07657C63.1826 2.18579 62.9911 2.24041 62.8543 2.15849C62.7175 2.04926 62.5259 2.18579 62.4439 2.40424C62.307 2.73192 62.1429 2.75922 61.5683 2.51347C60.4738 2.07657 58.6953 2.24041 58.2849 2.78653C58.0933 3.03228 57.5461 3.27804 57.0536 3.30535C55.6582 3.35996 53.9344 3.57841 53.6881 3.71494C53.5513 3.79686 52.8399 3.96069 52.1285 4.04261C51.3624 4.15183 50.7331 4.4249 50.651 4.64334C50.5415 4.91641 50.4047 4.94371 50.1858 4.77988C49.7754 4.4249 48.2158 4.58873 47.6959 5.02563C47.5044 5.18947 47.0392 5.38061 46.6835 5.40792C46.3278 5.46253 45.6985 5.65367 45.2334 5.81751C44.7956 6.00865 44.1936 6.09057 43.9474 6.00865C43.1539 5.81751 41.5943 6.36363 41.1565 6.99167C40.8281 7.45588 40.664 7.51049 40.363 7.26473C40.1441 7.07359 39.8978 7.01898 39.8157 7.1009C39.7063 7.21012 39.4327 7.31934 39.1591 7.34665C38.1467 7.48318 37.4353 7.83816 37.4353 8.22045C37.4353 8.52081 37.2711 8.54812 36.8333 8.38428C35.2737 7.83816 33.0574 8.52081 33.0574 9.58575C33.0574 9.88612 32.948 9.88612 32.4555 9.64036C31.9903 9.39461 31.8261 9.39461 31.7441 9.64036C31.6893 9.8042 31.5252 9.88612 31.3884 9.7769C31.2515 9.69498 30.9779 9.72228 30.8138 9.85881C30.6222 9.96804 30.2939 10.0773 30.075 10.1319C29.8561 10.1592 29.6098 10.2684 29.5278 10.4049C29.4457 10.5142 28.8164 10.6234 28.1323 10.6507C26.7369 10.6507 25.1225 11.2787 25.1225 11.7975C25.1225 12.0433 24.9857 12.0706 24.6574 11.9068C24.3564 11.7156 23.9733 11.7975 23.3714 12.1525C22.8241 12.4802 22.4958 12.5621 22.359 12.3437C22.2496 12.1525 21.9759 12.2618 21.5655 12.6713C21.2372 12.999 20.7994 13.1902 20.5805 13.1082C20.3616 13.0263 20.1974 13.0536 20.1974 13.1629C20.1974 13.2721 19.7596 13.8455 19.2124 14.4462C18.1727 15.6204 17.6254 16.658 17.899 17.0676C17.9811 17.2042 17.899 17.3134 17.7349 17.3134C17.5707 17.3134 17.2697 17.4772 17.0508 17.6411C16.8593 17.8322 16.3668 18.2418 15.9564 18.5149C15.5459 18.8152 15.2723 19.2521 15.3544 19.4706C15.4091 19.7709 15.245 19.9075 14.8345 19.9348C13.9863 19.9894 12.3446 21.3001 12.1531 22.092C12.0436 22.4742 11.7974 22.7746 11.5785 22.7746C11.3596 22.7746 11.1681 22.8838 11.1681 23.0477C11.1681 23.1842 11.0039 23.3207 10.8124 23.3207C10.4019 23.3207 9.52637 24.2764 9.52637 24.7133C9.52637 24.8772 9.33484 24.9591 9.11595 24.8772C8.89705 24.768 8.6508 24.8226 8.56871 24.9864C8.45927 25.1229 8.2951 25.1775 8.15829 25.0956C7.85731 24.9045 5.69574 26.9251 5.69574 27.362C5.69574 27.5532 5.44948 27.6897 5.1485 27.6897C4.84753 27.6897 4.60127 27.7989 4.60127 27.9628C4.60127 28.0993 4.40974 28.2358 4.19085 28.2358C3.97195 28.2358 3.78042 28.427 3.78042 28.7C3.78042 28.9458 3.69834 29.055 3.58889 28.9731C3.37 28.7273 2.41234 29.5738 2.41234 30.0107C2.41234 30.2019 2.084 30.3384 1.70093 30.3384C0.770636 30.3384 0.250764 30.9118 0.0592325 32.1133C-0.0775759 32.8779 0.00450917 33.2055 0.497019 33.6971C0.852721 34.052 0.98953 34.3797 0.852721 34.4889C0.633828 34.6255 0.579104 36.6734 0.770636 36.8919C0.962168 37.1103 0.880083 37.6837 0.633828 37.8476C0.442296 38.0114 0.442296 38.1206 0.661189 38.2572C1.01689 38.5302 1.01689 39.7863 0.661189 40.0321C0.442296 40.1959 0.442296 40.3051 0.633828 40.4417C0.962168 40.6874 0.98953 41.2062 0.715913 41.4793C0.606466 41.5885 0.633828 41.9162 0.797998 42.1893C0.962168 42.5169 0.962168 42.7081 0.797998 42.7081C0.497019 42.7081 0.715913 44.8106 1.12634 45.5752C1.31787 45.9302 1.29051 46.1213 1.07161 46.2033C0.907444 46.2579 0.825359 46.4217 0.934806 46.5582C1.20842 47.0224 1.29051 47.8962 1.04425 47.8962C0.907444 47.8962 0.852721 48.0874 0.934806 48.3058C1.04425 48.5243 1.20842 48.6335 1.34523 48.5516C1.53676 48.4424 1.5094 49.2615 1.31787 49.8077C1.26315 49.8896 1.29051 50.0534 1.31787 50.2173C1.34523 50.3538 1.42732 51.0911 1.5094 51.8556C1.56412 52.5929 1.72829 53.2482 1.89246 53.3028C2.24817 53.4394 2.19344 54.1766 1.83774 54.1766C1.61885 54.1766 1.61885 54.2859 1.78302 54.5043C2.2208 55.0504 2.38497 56.3611 2.02927 56.3611C1.81038 56.3611 1.81038 56.4157 2.05663 56.5796C2.2208 56.6888 2.38497 57.508 2.38497 58.4091C2.41234 59.3102 2.46706 60.2932 2.52178 60.5936C2.82276 62.4777 3.01429 63.4061 3.23319 63.9249C3.39736 64.3072 3.37 64.553 3.20583 64.6076C3.01429 64.6622 3.01429 64.9626 3.23319 65.4814C3.39736 65.9183 3.45208 66.4917 3.37 66.7648C3.26055 67.0651 3.28791 67.2836 3.42472 67.2836C3.53417 67.2836 3.67097 67.7751 3.67097 68.3485C3.69834 68.9493 3.94459 69.823 4.21821 70.3146C4.60127 70.9426 4.65599 71.2157 4.40974 71.2976C4.16348 71.3795 4.16348 71.5979 4.35502 72.1441C4.51919 72.5264 4.57391 73.1271 4.49182 73.4548C4.38238 73.8097 4.4371 74.1647 4.60127 74.2466C4.76544 74.3286 4.7928 74.7108 4.71072 75.0658C4.62863 75.3935 4.68336 75.7758 4.84753 75.8577C5.0117 75.9669 5.1485 76.3492 5.1485 76.7315C5.1485 77.0865 5.25795 77.3868 5.42212 77.3868C5.55893 77.3868 5.61365 77.578 5.53157 77.7964C5.42212 78.0149 5.50421 78.3972 5.69574 78.6156C5.85991 78.8341 5.94199 79.2437 5.83255 79.5713C5.7231 79.899 5.77782 80.1175 5.96935 80.1175C6.13352 80.1175 6.18825 80.2267 6.10616 80.3905C6.02408 80.527 6.0788 80.6636 6.24297 80.6636C6.4345 80.6636 6.51659 80.8547 6.40714 81.0732C6.32506 81.3189 6.40714 81.4828 6.62603 81.4828C6.87229 81.4828 6.95437 81.6739 6.87229 82.0016C6.68076 82.7115 7.74786 83.3123 8.32246 82.8208C8.62344 82.575 8.81497 82.575 8.92442 82.7662C9.14331 83.0938 10.7576 83.0392 11.7153 82.6569C12.1805 82.4658 12.4541 82.4658 12.5909 82.6569C12.7003 82.8208 12.9192 82.7662 13.2202 82.4931C13.7401 81.947 13.7948 81.947 14.4788 82.3019C14.7798 82.4931 14.9987 82.4931 14.9987 82.3293C14.9987 82.1927 15.327 82.1108 15.7648 82.1654C16.1753 82.22 16.6404 82.1381 16.8046 82.0016C16.9961 81.865 17.2424 81.7558 17.3518 81.7831C17.7622 81.8924 19.2124 81.4282 19.8691 80.9913C20.2521 80.7455 20.471 80.7182 20.471 80.9093C20.471 81.1005 20.7173 81.0732 21.1551 80.7728C21.5381 80.527 22.0307 80.4178 22.3864 80.527C22.7147 80.6363 23.1251 80.5544 23.344 80.3905C23.5629 80.2267 23.8639 80.1448 24.0281 80.254C24.1649 80.3359 24.4658 80.3359 24.6574 80.1994C24.8215 80.0902 25.232 79.9536 25.533 79.9536C26.4359 79.8717 27.3935 79.5986 27.5577 79.3802C27.7219 79.1617 28.0776 79.1071 30.1844 78.9979C30.6496 78.9706 31.0874 78.8068 31.1968 78.6702C31.2789 78.5064 32.0724 78.3426 32.948 78.2879C33.8235 78.2333 34.617 78.0695 34.7265 77.9057C34.8359 77.6872 34.9454 77.6872 35.0001 77.8784C35.0822 78.0695 35.4926 78.0695 36.3408 77.8784C37.0249 77.7145 38.3929 77.578 39.4327 77.578C40.4451 77.578 41.2659 77.4415 41.2659 77.3322C41.2659 77.1957 41.4301 77.1684 41.5943 77.3049C42.0594 77.578 44.0021 77.6599 44.0021 77.3868C44.0021 77.0865 45.206 77.1957 45.4523 77.5234C45.5617 77.7145 45.7259 77.6872 45.8627 77.4961C45.9721 77.3595 46.3552 77.223 46.7383 77.223C47.1213 77.223 47.5044 77.3595 47.6412 77.4961C47.7506 77.6872 47.9148 77.7145 48.0516 77.5234C48.2979 77.1684 48.9272 77.0319 48.9272 77.3322C48.9272 77.5507 52.4842 77.578 52.7031 77.3868C52.8946 77.1957 53.4692 77.2776 53.6608 77.5234C53.7976 77.7145 53.907 77.7145 54.0712 77.4961C54.1806 77.3595 54.5637 77.223 54.9468 77.223C55.3298 77.223 55.7129 77.3595 55.8497 77.4961C55.9865 77.7145 56.0959 77.7145 56.2601 77.5234C56.479 77.1957 56.8621 77.1684 57.2725 77.4415C57.4367 77.5234 58.066 77.578 58.7227 77.5234C59.352 77.4961 59.8719 77.578 59.8719 77.6872C59.8719 77.8237 60.0634 77.933 60.2823 77.933C60.5012 77.933 60.6927 77.8237 60.6927 77.7145C60.6927 77.578 60.8842 77.4688 61.1031 77.4688C61.322 77.4688 61.5136 77.578 61.5136 77.7145C61.5136 77.851 61.7325 77.9057 62.0334 77.7964C62.307 77.7145 62.8816 77.7691 63.3194 77.933C63.8667 78.1514 64.1403 78.1514 64.195 77.9603C64.2497 77.7691 64.496 77.7691 64.879 77.9876C65.2074 78.1787 65.9735 78.3426 66.5755 78.3699C67.1774 78.3972 67.752 78.4518 67.8341 78.4518C67.9162 78.4791 68.1351 78.7795 68.2993 79.1617C68.6002 79.7898 68.7644 79.8444 70.3787 79.8444C72.0204 79.8444 72.212 79.7625 73.0602 78.9433C74.3735 77.6599 74.9481 76.8407 74.784 76.5677C74.7019 76.4584 74.8387 76.1581 75.0576 75.9396C75.2765 75.6939 75.468 75.3935 75.468 75.257C75.468 75.0931 75.6595 74.9293 75.8784 74.8201C76.0973 74.7382 76.2889 74.4378 76.2889 74.1374C76.2889 73.837 76.4257 73.5094 76.5625 73.4275C76.7266 73.3182 76.8361 73.0998 76.8087 72.9359C76.7266 72.1714 76.8635 71.6253 77.1097 71.7891C77.356 71.9256 77.5201 71.3795 77.4107 70.7515C77.4107 70.6422 77.5201 70.5603 77.6843 70.5603C77.8211 70.5603 77.8758 70.4238 77.7938 70.2873C77.7117 70.1234 77.8211 70.0142 78.0674 70.0142C78.3136 70.0142 78.4504 69.905 78.3683 69.7684C78.2863 69.6319 78.5052 69.3315 78.8882 69.0858C79.2713 68.84 79.5449 68.5397 79.4902 68.4031C79.4628 68.2939 79.8459 67.857 80.3384 67.4201C80.8309 67.0105 81.1866 66.6009 81.1045 66.5463C80.913 66.3552 81.597 65.6725 81.8159 65.809C81.9254 65.891 82.1443 65.6725 82.3084 65.3722C82.4726 65.0445 82.9104 64.6895 83.2935 64.553C83.6765 64.3891 83.8954 64.1434 83.8133 64.0068C83.7039 63.843 84.0049 63.6519 84.4974 63.5699C84.9625 63.4607 85.5097 63.1331 85.7286 62.8054C85.9475 62.505 86.1391 62.3958 86.1391 62.5596C86.1391 63.215 86.9599 62.5596 87.2883 61.6585C87.4524 61.1397 87.8081 60.7301 88.027 60.7301C88.2459 60.7301 88.8205 60.2932 89.313 59.7744C89.7782 59.2556 90.6264 58.6275 91.1463 58.4091C91.9397 58.0814 92.0765 57.9176 91.9671 57.3988C91.8577 57.0438 91.6661 56.6888 91.502 56.5796C91.3378 56.4704 91.2557 55.7058 91.2831 54.8866C91.3378 53.6578 91.2283 53.2482 90.7906 52.8113C90.3528 52.3744 90.3254 52.2106 90.599 52.1014C90.8179 52.0195 90.9821 51.8283 91.0094 51.6372C91.0094 51.446 91.0642 51.1184 91.0915 50.8999C91.2557 49.7804 91.0094 48.6608 90.5169 48.2512C90.1886 47.9508 90.0791 47.7051 90.2707 47.5959C90.6264 47.3774 90.8179 45.4933 90.4896 45.2748C90.3528 45.1929 90.298 45.0018 90.3801 44.8653C90.4896 44.7287 90.3528 44.5376 90.0791 44.4284C89.6961 44.2918 89.6687 44.2099 89.9971 43.9642C90.216 43.8003 90.4348 43.4726 90.4896 43.2542C90.6811 42.6262 90.5169 40.7966 90.2707 40.2778C90.1339 40.0321 90.0791 38.5575 90.1065 36.9738C90.1339 35.39 90.0791 33.9701 89.9971 33.8336C89.915 33.6697 89.8055 33.3148 89.7782 33.0417C89.7234 32.7413 89.5593 32.3591 89.3951 32.1406C89.1762 31.9222 89.1762 31.7856 89.3677 31.7856C89.5593 31.7856 89.614 30.8026 89.5319 28.9731C89.4498 27.444 89.3951 25.9967 89.4225 25.7783C89.4772 24.0853 89.3404 23.1296 88.9847 22.7473C88.6563 22.3923 88.629 22.1466 88.8479 21.737C89.012 21.4366 89.0668 21.1635 89.012 21.0816C88.9573 21.027 88.8479 20.5082 88.7931 19.9348C88.7111 19.3613 88.4922 18.7879 88.3006 18.6514C88.0817 18.5149 88.0544 18.4056 88.2186 18.4056C88.9026 18.4056 89.2036 15.8935 88.6563 14.7739C88.4101 14.2824 88.3554 13.9001 88.5469 13.6817C88.8752 13.2448 88.7111 10.7326 88.3006 10.4869C88.1091 10.3503 88.0817 10.2138 88.2733 10.1046C88.629 9.88612 88.4374 7.1009 88.0544 6.99167C87.9176 6.93706 87.7808 6.71861 87.7808 6.50016C87.7808 6.28171 87.644 6.11788 87.5071 6.11788C87.3156 6.11788 87.3156 5.95404 87.5071 5.59906C87.6713 5.24408 87.6987 4.99832 87.5071 4.8891C87.3703 4.80718 87.343 4.53412 87.4251 4.31567C87.5071 4.06992 87.4251 3.76955 87.2062 3.63302C86.9326 3.46918 86.9326 3.38726 87.1788 3.38726C87.3977 3.38726 87.5071 2.89575 87.5071 1.85812C87.5071 1.01163 87.3977 0.410897 87.2609 0.492815C87.1241 0.602039 86.9599 0.520121 86.9052 0.356284C86.7957 0.00130473 85.2088 -0.135226 84.6342 0.165141ZM83.868 1.94004C83.5671 2.2131 83.1566 1.72159 83.3208 1.312C83.4576 0.902407 83.5123 0.929713 83.7312 1.3393C83.8954 1.58506 83.9228 1.85812 83.868 1.94004ZM82.3084 1.85812C82.3084 1.94004 82.199 2.07657 82.0348 2.15849C81.898 2.24041 81.7612 2.18579 81.7612 2.04926C81.7612 1.88543 81.898 1.7489 82.0348 1.7489C82.199 1.7489 82.3084 1.80351 82.3084 1.85812ZM78.6146 3.66032C78.6146 3.85147 80.5573 3.82416 80.6941 3.63302C80.7762 3.46918 81.1592 3.60571 81.5149 3.90608C81.8706 4.20645 82.0348 4.4522 81.8706 4.47951C81.3234 4.47951 79.5449 6.28171 79.7091 6.6913C79.8185 6.96437 79.627 7.07359 79.1071 7.1282C77.8758 7.18281 76.6446 8.82118 76.8087 10.1319C76.8361 10.323 76.6719 10.4869 76.4257 10.4869C75.7964 10.4869 74.9208 11.4972 74.7292 12.4256C74.6198 12.9717 74.4556 13.1902 74.2094 13.1082C73.9905 13.0263 73.8263 13.0809 73.8263 13.2175C73.8263 13.354 73.6074 13.5178 73.3612 13.6271C72.7318 13.8182 71.9384 14.9104 71.8015 15.7296C71.7468 16.1392 71.5553 16.3304 71.2543 16.2758C70.9807 16.2211 70.5703 16.4123 70.324 16.7126C69.7768 17.3134 68.2172 18.1872 67.9983 17.9687C67.9436 17.8868 67.451 18.078 66.9312 18.351C66.1377 18.8152 65.9461 18.8152 65.7273 18.5149C65.5357 18.2145 65.2895 18.1872 64.5507 18.4056C63.894 18.5695 63.5383 18.5695 63.4289 18.4056C63.2373 18.1053 62.307 18.3237 62.0334 18.7333C61.9513 18.8698 61.5409 18.8425 61.1031 18.6787C60.5285 18.4602 60.2823 18.4602 60.1455 18.706C60.036 18.8698 59.7077 18.9244 59.4341 18.8425C59.1331 18.7606 58.5585 18.8698 58.1481 19.0883C57.4914 19.416 57.2451 19.4433 56.6432 19.1156C55.8223 18.706 54.2627 18.8425 53.4966 19.3613C53.1409 19.6071 52.6757 19.6344 51.937 19.4706C50.8425 19.2248 49.4744 19.5252 49.4744 20.0167C49.4744 20.1532 49.1187 20.0986 48.7083 19.8802C47.8327 19.4433 46.5467 19.5525 45.3702 20.1532C44.905 20.3717 44.5493 20.4536 44.5493 20.3171C44.5493 20.0167 42.9076 20.0986 42.4425 20.399C42.2509 20.5355 41.9773 20.5628 41.8405 20.4809C41.7037 20.399 41.5122 20.5082 41.4301 20.7266C41.2933 21.0816 41.1565 21.1089 40.664 20.8359C39.8705 20.399 37.9278 20.4809 37.5721 20.9451C37.4353 21.1635 36.6418 21.4093 35.8483 21.4912C35.0548 21.5731 34.2613 21.7643 34.0698 21.8735C33.7415 22.092 33.5499 22.092 31.9356 22.1739C31.3063 22.2012 30.6769 22.4742 30.2392 22.8838C29.8287 23.2661 29.4457 23.4573 29.3636 23.2934C29.1447 22.9384 27.2567 23.1023 26.819 23.5392C26.6001 23.7303 26.3538 23.8122 26.217 23.7303C26.0802 23.6484 25.916 23.703 25.8066 23.8395C25.7245 24.0034 25.4509 24.0307 25.232 23.9488C24.9857 23.8669 24.6847 23.9488 24.5753 24.1399C24.4658 24.3311 23.8092 24.5222 23.1251 24.5495C21.8118 24.6314 21.073 24.9318 20.3616 25.6691C20.0059 26.024 19.8144 26.0513 19.5134 25.7783C19.2124 25.5052 19.0209 25.5052 18.7199 25.751C18.501 25.9148 18.2274 26.0513 18.1179 26.024C17.6254 25.9421 16.6678 26.379 16.531 26.734C16.4215 27.0071 16.1753 27.0617 15.6007 26.8978C15.1629 26.7613 14.643 26.7613 14.4241 26.8978C14.2052 27.0344 13.7674 27.1436 13.4391 27.1436C13.0834 27.1436 12.8098 27.2528 12.8098 27.4166C12.8098 27.5532 12.6182 27.6897 12.3993 27.6897C12.1805 27.6897 11.9889 27.8262 11.9889 27.9628C11.9889 28.1539 11.8248 28.1539 11.4417 27.9628C11.0313 27.7443 10.8945 27.7443 10.8945 27.9901C10.8945 28.1539 10.7029 28.2085 10.4567 28.1266C10.2104 28.0174 9.82735 28.0993 9.60846 28.2904C9.25276 28.5635 9.19803 28.5362 9.28012 28.1539C9.33484 27.8809 9.49901 27.6897 9.63582 27.6897C9.77263 27.717 9.99152 27.5532 10.1283 27.3074C10.2651 27.0617 10.5388 26.8705 10.7303 26.8705C10.9492 26.8705 11.1954 26.6794 11.2775 26.4336C11.387 26.1879 11.5238 26.0513 11.6332 26.1333C11.8521 26.3517 13.4391 25.0137 13.658 24.4403C13.7401 24.1945 13.9316 24.0034 14.0958 24.0034C14.2326 24.0034 14.6977 23.6211 15.1082 23.1842C15.5186 22.72 15.929 22.3923 15.9837 22.4196C16.0385 22.4742 16.0658 22.4469 16.0385 22.365C15.9837 22.2831 16.3668 21.9554 16.8593 21.6551C17.3245 21.3274 17.7349 20.9724 17.7349 20.8359C17.7349 20.6993 17.899 20.5901 18.0906 20.5901C18.501 20.5901 19.486 19.3613 19.7596 18.4602C19.8691 18.1326 20.0606 17.9141 20.1701 17.996C20.3069 18.0506 20.6352 17.6957 20.9088 17.1769C21.1824 16.658 21.5381 16.2211 21.7023 16.2211C21.8665 16.2211 22.2496 16.0027 22.5505 15.7296C22.8515 15.4566 23.2893 15.2108 23.5356 15.2108C24.1375 15.2108 25.9434 14.337 25.9434 14.0366C25.9434 13.9001 26.1896 13.8455 26.4906 13.9001C26.7916 13.9547 27.0378 13.8728 27.0378 13.709C27.0378 13.5451 27.1199 13.4632 27.202 13.5724C27.2841 13.6544 27.6672 13.6271 28.0229 13.4905C28.4333 13.3267 28.6795 13.3267 28.6795 13.4905C28.6795 13.6271 28.8711 13.6817 29.09 13.5998C29.3089 13.4905 29.4457 13.354 29.3909 13.2448C29.3089 13.1355 29.5825 13.0263 29.9929 12.9717C31.7988 12.7806 33.331 12.371 33.331 12.0979C33.331 11.9614 33.5226 11.8522 33.7415 11.8522C33.9603 11.8522 34.1519 11.7156 34.1519 11.5791C34.1519 11.4153 34.2887 11.306 34.4529 11.306C34.5897 11.306 34.6444 11.4426 34.5349 11.6064C34.4529 11.7702 34.6718 11.6883 35.0548 11.4426C35.4926 11.1695 35.9851 11.0603 36.3682 11.1695C36.806 11.306 36.888 11.2787 36.7512 11.033C36.5871 10.7599 36.7239 10.7326 37.3258 10.8418C37.8457 10.9238 38.2835 10.8418 38.5845 10.5688C38.8581 10.323 39.5148 10.1046 40.0894 10.05C40.6366 9.99534 41.1838 9.8042 41.3206 9.61306C41.4301 9.42192 41.5395 9.3673 41.5395 9.50383C41.5395 9.64036 41.7584 9.55845 42.0047 9.3673C42.3877 9.03963 42.4151 9.03963 42.2509 9.34C42.0594 9.66767 42.1141 9.66767 42.6614 9.3673C43.0171 9.14885 43.5643 8.98502 43.8653 8.98502C44.1663 8.95771 44.6861 8.82118 44.9871 8.63004C45.3154 8.4662 45.6438 8.38428 45.7259 8.49351C45.9174 8.65734 48.38 8.002 48.38 7.75624C48.38 7.67432 48.6536 7.59241 49.0093 7.59241C49.6112 7.53779 50.049 7.42857 50.9246 7.1282C51.937 6.74592 52.1832 6.6913 52.2653 6.93706C52.3474 7.15551 54.4269 6.71861 55.0836 6.36363C55.2477 6.28171 55.795 6.2271 56.3148 6.25441C56.8347 6.25441 57.3546 6.17249 57.4367 6.03596C57.5188 5.92673 57.8745 5.7902 58.1754 5.7629C58.5038 5.73559 58.7774 5.62637 58.7774 5.51714C58.7774 5.40792 58.9142 5.29869 59.0784 5.29869C59.2152 5.29869 59.2699 5.43522 59.1605 5.59906C59.051 5.7902 59.2425 5.7629 59.6256 5.54445C60.5012 5.05294 60.9663 4.99832 60.9663 5.38061C60.9663 5.59906 61.0484 5.59906 61.1852 5.43522C61.2947 5.27139 62.0334 5.13486 62.8269 5.10755C63.6204 5.08024 64.4413 4.94371 64.6328 4.77988C64.797 4.61604 65.2347 4.56143 65.5631 4.67065C65.8914 4.75257 66.165 4.69796 66.165 4.56143C66.165 4.4249 66.3566 4.28837 66.5755 4.28837C66.7944 4.28837 66.9859 4.39759 66.9859 4.53412C66.9859 4.67065 67.2048 4.64334 67.4784 4.50681C67.752 4.37028 68.4361 4.31567 69.0107 4.39759C69.6126 4.47951 69.9957 4.4249 69.9136 4.28837C69.8041 4.15183 69.9136 4.0153 70.1325 4.0153C70.3514 4.0153 70.5429 4.09722 70.5429 4.20645C70.5429 4.37028 72.6771 4.37028 73.0055 4.20645C73.0875 4.17914 73.3612 4.15183 73.6348 4.17914C73.881 4.20645 74.0999 4.12453 74.0999 3.988C74.0999 3.68763 74.5924 3.68763 75.0576 3.988C75.2218 4.09722 75.5227 4.06992 75.7143 3.96069C75.9058 3.82416 76.5078 3.79686 77.0276 3.85147C77.6296 3.93339 77.9306 3.87877 77.8211 3.71494C77.739 3.5511 77.8758 3.46918 78.1221 3.52379C78.3957 3.57841 78.6146 3.63302 78.6146 3.66032ZM82.883 3.63302C82.6915 3.76955 82.6094 4.0153 82.6915 4.17914C82.8009 4.34298 82.7462 4.47951 82.6094 4.47951C82.2811 4.47951 82.199 3.85147 82.5 3.57841C82.582 3.46918 82.8009 3.38726 82.9651 3.38726C83.1293 3.38726 83.1019 3.49649 82.883 3.63302ZM85.154 7.26473C85.072 7.5651 85.154 7.75624 85.3456 7.75624C85.5371 7.75624 85.6192 7.83816 85.5097 7.92008C85.4277 8.002 85.455 8.38428 85.5918 8.71196C85.756 9.14885 85.7286 9.39461 85.5097 9.47653C85.2909 9.53114 85.3456 9.72228 85.6739 10.05C85.9202 10.323 86.0843 10.6507 86.0023 10.7599C85.756 11.1695 85.5918 14.0366 85.8107 14.0366C85.9202 14.0366 86.0296 14.2824 86.057 14.5828C86.0843 14.8831 85.9749 15.1289 85.8381 15.1289C85.6739 15.1289 85.6192 15.2381 85.7013 15.3473C86.0023 15.8389 86.0843 17.0403 85.8381 17.1769C85.7013 17.2861 85.5918 17.4772 85.5918 17.6138C85.5918 17.7776 85.7286 17.8049 85.9202 17.6957C86.1391 17.5591 86.1664 17.6411 86.0023 18.0233C85.5918 18.9791 85.8381 22.2285 86.3853 22.8838C86.6316 23.1842 86.6316 23.2934 86.3853 23.3753C86.1664 23.4573 86.1391 23.6211 86.2759 23.8942C86.6316 24.413 86.6042 25.041 86.2759 25.2868C86.1117 25.4233 86.1117 25.5871 86.3306 25.7237C86.7137 25.9694 86.7957 26.734 86.5769 28.2358C86.5221 28.7546 86.6042 29.3554 86.741 29.5192C86.9326 29.765 86.9326 29.8742 86.7137 29.8742C86.3853 29.8742 86.5769 31.9222 86.9599 32.4683C87.042 32.6048 87.1241 33.5605 87.0967 34.5709C87.0694 35.6085 87.1514 36.4277 87.2883 36.4277C87.4251 36.4277 87.4524 36.5642 87.3703 36.7007C87.0967 37.1649 86.9599 39.1583 87.2062 39.1583C87.343 39.1583 87.3977 39.6498 87.343 40.2505C87.2883 40.8513 87.343 41.3428 87.4798 41.3428C87.8081 41.3428 87.6987 42.5169 87.3703 42.7627C87.1788 42.8992 87.1788 43.0357 87.3703 43.1723C87.7534 43.4726 87.8355 44.0734 87.5071 44.0734C87.1788 44.0734 87.4798 46.6128 87.8355 46.7494C87.9723 46.804 87.9176 47.0497 87.726 47.2955C87.4524 47.5959 87.4524 47.7324 87.6987 47.8143C87.8629 47.8689 87.9449 48.2512 87.8629 48.7427C87.8081 49.1796 87.8629 49.5346 87.9997 49.5346C88.328 49.5346 88.2733 50.7088 87.9176 50.9545C87.7534 51.0911 87.7808 51.2549 87.9997 51.4187C88.4648 51.6918 88.4648 51.9922 88.0544 52.2652C87.8081 52.4017 87.8355 52.784 88.1091 53.7944C88.5195 55.187 88.4648 56.3611 88.027 56.3611C87.8902 56.3611 87.7808 56.6615 87.7808 57.0438C87.7808 57.4261 87.6166 57.7264 87.4251 57.7264C87.0694 57.7264 85.5918 59.2556 85.5918 59.6652C85.5918 59.7744 85.4003 59.8017 85.1267 59.7198C84.8257 59.6106 84.7436 59.6379 84.8804 59.8563C84.9899 60.0475 84.9352 60.184 84.771 60.184C84.6068 60.184 84.5521 60.2932 84.6342 60.4571C84.7163 60.6209 84.6068 60.6482 84.3606 60.5663C84.1143 60.4571 83.6492 60.6755 83.2387 61.0851C82.8557 61.4947 82.2537 61.877 81.9527 61.9862C80.8856 62.3139 79.8732 63.2696 79.7091 64.0615C79.5723 64.5803 79.3534 64.826 78.9977 64.826C78.6967 64.826 78.3957 65.0172 78.3136 65.2356C78.2042 65.4541 77.9853 65.6452 77.7664 65.6452C77.5475 65.6452 77.3833 65.8364 77.3833 66.0548C77.3833 66.2733 77.2465 66.4644 77.0824 66.4644C76.8908 66.4644 76.8361 66.7375 76.9455 67.147C77.055 67.5293 77.0276 67.8024 76.9182 67.7751C76.453 67.6386 75.468 68.4304 75.0576 69.195C74.8113 69.6592 74.6198 70.4511 74.5924 70.9699C74.5651 71.4887 74.4283 71.9256 74.2641 71.9256C73.9358 71.9256 73.0055 73.837 73.0055 74.5197C73.0055 74.7382 72.6771 75.1204 72.2941 75.3935C71.61 75.8304 71.5553 75.8304 71.1996 75.3389C71.0081 75.0658 70.8986 74.7655 70.9807 74.6289C71.0354 74.5197 70.8439 73.9736 70.5429 73.4548C70.2419 72.9086 70.1325 72.4717 70.2693 72.4717C70.5703 72.4717 70.4882 71.1337 70.1598 70.6149C70.0504 70.4238 70.023 70.178 70.1051 70.0415C70.1872 69.905 70.0778 69.7138 69.8589 69.6319C69.4758 69.4954 69.4758 69.3862 69.8041 68.7308C70.1051 68.1028 70.1598 67.229 70.023 65.8637C69.9957 65.7544 69.8041 65.4814 69.5579 65.2629C69.339 65.0172 69.2295 64.6895 69.339 64.4984C69.6126 64.0615 69.6126 63.1331 69.339 62.6962C69.2295 62.4777 69.2022 62.2593 69.2843 62.1773C69.3664 62.0954 69.3116 61.8497 69.1475 61.6585C68.9286 61.4128 68.9286 61.0305 69.0927 60.539C69.2569 60.1021 69.3116 59.3375 69.2295 58.8187C69.0927 57.5899 68.9286 55.2416 68.8191 52.156C68.737 50.463 68.6002 49.6711 68.3813 49.5892C68.0804 49.48 68.1077 49.4254 68.3813 49.2342C68.655 49.0704 68.7644 48.1693 68.8191 45.9302C68.8465 44.2372 68.8738 42.4077 68.9012 41.8889C68.9286 40.5782 68.8191 39.8682 68.4908 39.6225C68.3266 39.5133 68.3813 39.3221 68.6276 39.1583C69.0654 38.8852 69.2569 36.4277 68.8465 36.1546C68.737 36.0727 68.8465 35.6358 69.0654 35.1989C69.6673 34.0793 69.7221 32.8779 69.2569 32.1133C69.0107 31.7037 68.9559 31.3487 69.1201 31.1576C69.5579 30.5842 69.6673 29.6557 69.4484 28.6454C69.2843 27.9355 69.3116 27.6078 69.5579 27.5259C69.941 27.3893 69.9957 27.1982 69.9957 25.6418C70.023 23.9488 69.941 23.6211 69.4758 23.4573C69.1201 23.3207 69.1201 23.2388 69.4211 23.0477C69.64 22.9384 69.8315 22.5015 69.8862 22.1193C69.9683 21.2728 70.5429 20.6447 71.0354 20.8086C71.227 20.8632 71.5553 20.754 71.7742 20.5901C72.0478 20.3444 72.1846 20.3444 72.1846 20.5628C72.1846 20.754 72.4035 20.7813 72.896 20.5901C73.2791 20.4263 73.6895 20.3717 73.8263 20.4536C74.3462 20.7813 74.7292 19.7163 74.5651 18.2418C74.4283 16.8765 74.483 16.6307 75.0576 16.0573C75.4133 15.7023 75.6322 15.402 75.5227 15.402C75.4133 15.3746 75.6595 15.1835 76.0973 14.9651C76.5078 14.7466 76.8361 14.4462 76.8361 14.3097C76.8361 14.1732 77.1644 13.709 77.5475 13.2994C77.9579 12.8898 78.3957 12.2071 78.5325 11.7702C78.6967 11.3607 78.9703 11.033 79.1892 11.033C79.4081 11.033 79.5723 10.8418 79.5723 10.6234C79.5723 10.4049 79.8732 10.0227 80.2563 9.7769C80.6394 9.53114 80.8583 9.23077 80.7762 9.09424C80.6941 8.95771 80.7488 8.84849 80.8856 8.84849C81.1866 8.84849 82.883 7.45588 83.786 6.47285C84.3058 5.92673 84.3879 5.92673 84.8531 6.30902C85.1267 6.58208 85.2635 6.96437 85.154 7.26473ZM22.1127 13.6271C22.3043 13.8728 22.3316 14.0366 22.1675 14.0366C22.0307 14.0366 21.8391 13.8455 21.7297 13.6271C21.6476 13.4086 21.6202 13.2175 21.675 13.2175C21.7297 13.2175 21.9212 13.4086 22.1127 13.6271ZM62.8816 19.8255C62.8816 19.9621 62.7722 20.044 62.608 20.044C62.4712 20.044 62.3344 19.7709 62.3344 19.416C62.3344 18.9244 62.3891 18.8971 62.608 19.2248C62.7448 19.4433 62.8816 19.7163 62.8816 19.8255ZM61.2399 20.044C61.2399 20.1805 61.1305 20.3171 60.9663 20.3171C60.8295 20.3171 60.6927 20.1805 60.6927 20.044C60.6927 19.8802 60.8295 19.7709 60.9663 19.7709C61.1305 19.7709 61.2399 19.8802 61.2399 20.044ZM63.21 21.5185C63.4015 21.4093 64.2497 21.3001 65.1253 21.2728C66.4113 21.2728 66.7396 21.3547 66.8764 21.737C66.9585 22.01 66.9312 22.3377 66.8491 22.5015C66.767 22.6381 66.767 22.9384 66.9038 23.1023C67.2048 23.5938 67.1774 23.9761 66.8491 24.1945C66.6576 24.3584 66.6576 24.4676 66.8764 24.6041C67.0133 24.7406 67.1501 25.1229 67.1501 25.5052C67.1501 25.8875 67.0133 26.2698 66.8764 26.379C66.6849 26.5155 66.6576 26.6794 66.8491 26.7886C67.2321 27.089 67.3142 27.6897 66.9585 27.6897C66.7944 27.6897 66.7123 27.9355 66.7944 28.2358C66.8764 28.5362 66.8217 28.782 66.6849 28.782C66.5481 28.782 66.4934 29.5738 66.5481 30.5569C66.6302 31.6218 66.5481 32.3317 66.4113 32.3317C66.2471 32.3317 66.1924 32.441 66.2745 32.5502C66.5207 32.9598 66.6849 34.2432 66.4934 34.2432C66.2471 34.2432 66.165 35.117 66.1377 37.9841C66.1103 39.2402 66.0009 40.2505 65.8641 40.2505C65.7273 40.2505 65.7546 40.5509 65.8914 40.9332C66.1924 41.7251 66.165 42.2166 65.7546 42.4896C65.5631 42.6262 65.5631 42.7627 65.7546 42.8992C66.0556 43.145 66.1103 43.773 65.8641 44.2099C65.6178 44.5922 65.7273 46.3125 65.9735 46.7221C66.1103 46.9132 66.083 47.0771 65.9188 47.0771C65.6725 47.0771 65.6999 48.9066 66.0009 50.2719C66.083 50.6268 66.0556 50.8999 65.9461 50.8999C65.8367 50.8999 65.7273 51.5006 65.7273 52.2652C65.7273 53.0025 65.782 53.6305 65.8641 53.6305C65.9735 53.6305 66.0282 54.2313 66.0009 54.9958C65.9461 55.7331 66.0282 56.3611 66.1377 56.3611C66.466 56.3611 66.3566 57.5353 66.0282 57.7811C65.8367 57.9176 65.8641 58.0814 66.0556 58.1906C66.2471 58.3272 66.3292 58.9279 66.2745 59.5833C66.2198 60.2113 66.3019 60.6755 66.4387 60.5936C66.5755 60.5117 66.6576 60.7028 66.6302 61.0032C66.6028 61.3035 66.4934 61.5493 66.4113 61.5493C66.1377 61.5493 66.4387 63.5153 66.767 63.9249C66.9038 64.1161 66.8764 64.2799 66.6849 64.3345C66.4113 64.4164 66.466 64.6349 66.7944 65.0991C67.3416 65.8637 67.3963 66.3006 66.9312 66.0275C66.7123 65.891 66.6849 65.9729 66.8491 66.3552C67.1227 67.0105 67.1227 67.5566 66.8491 68.212C66.7123 68.5397 66.7123 68.6762 66.9038 68.567C67.068 68.4577 67.1774 69.0039 67.1774 70.0415C67.2048 70.9426 67.3416 71.8164 67.5058 72.0348C67.6699 72.226 67.7247 72.4444 67.6426 72.5537C67.5605 72.6356 67.6152 72.9633 67.8067 73.2636C67.9709 73.5913 67.9983 73.837 67.8615 73.837C67.752 73.837 67.6426 74.1647 67.6699 74.5743C67.6699 75.2843 67.5878 75.3389 66.6302 75.3662C66.0282 75.3935 65.4536 75.5573 65.3168 75.7758C65.1527 76.0488 65.0706 76.0488 65.0706 75.8304C65.0706 75.257 63.6204 74.7382 62.3344 74.8474C61.6504 74.902 60.9116 74.9566 60.6927 74.9566C60.4738 74.9839 59.6803 74.8747 58.9689 74.7108C57.8471 74.4924 57.6282 74.5197 57.4914 74.8747C57.3546 75.2024 57.2725 75.2297 57.0262 74.902C56.6432 74.4105 56.1507 74.2739 54.8099 74.3286C53.1682 74.4105 53.0588 74.4378 52.8946 74.902C52.7578 75.257 52.7031 75.257 52.4842 74.9293C52.1559 74.3832 49.4744 74.3559 49.2555 74.8747C49.1461 75.2297 49.064 75.2297 48.8177 74.902C48.4347 74.4105 47.9148 74.2739 46.6014 74.3559C45.9995 74.4105 43.92 74.4651 41.95 74.4924C40.0073 74.4924 38.2288 74.6289 38.0372 74.7382C37.7089 74.9566 35.0548 75.2297 32.9206 75.257C32.4828 75.257 32.0177 75.3935 31.9356 75.53C31.8535 75.6666 30.9232 75.8304 29.9108 75.9123C28.4607 76.0215 27.9134 76.1854 27.5304 76.6223C27.1473 77.0592 26.9558 77.1138 26.6821 76.868C26.4632 76.7042 26.217 76.6496 26.1349 76.7315C26.0255 76.8407 25.5056 76.9499 24.931 77.0046C24.3838 77.0592 23.8092 77.2776 23.6997 77.4961C23.5082 77.8237 23.3167 77.851 22.7694 77.6599C21.8938 77.3049 20.2521 77.7145 19.486 78.4518C19.1303 78.7522 18.7746 78.8887 18.5557 78.7522C18.1179 78.4791 15.8196 79.189 15.8196 79.5986C15.8196 79.7079 15.4365 79.6533 14.9987 79.4621C13.9042 79.0252 12.7003 79.2164 11.8795 79.9809C11.4964 80.3359 11.1407 80.4724 11.1133 80.3359C11.0586 80.1721 10.6482 80.0082 10.2378 79.9536C9.41693 79.8717 8.34982 79.1071 8.56871 78.7522C8.6508 78.6429 8.51399 78.4518 8.26774 78.3699C7.96676 78.2606 7.91203 78.0968 8.0762 77.851C8.40454 77.4142 8.26774 75.6393 7.91203 75.53C7.74786 75.4754 7.66578 75.3116 7.77523 75.175C7.85731 75.0385 7.7205 74.8474 7.50161 74.7655C7.17327 74.6289 7.14591 74.4924 7.3648 74.0555C7.52897 73.7551 7.58369 73.0179 7.50161 72.3625C7.39216 71.7618 7.25535 70.6968 7.17327 70.0142C7.06382 69.3315 6.89965 68.6489 6.76284 68.485C6.6534 68.3485 6.46186 67.4201 6.37978 66.4371C6.21561 64.5803 5.77782 63.1877 5.39476 63.1877C5.25795 63.1877 5.34004 62.8873 5.55893 62.5323C5.80518 62.1773 5.88727 61.8224 5.77782 61.7404C5.64101 61.6585 5.50421 60.812 5.47684 59.8836C5.42212 58.9279 5.25795 57.9449 5.12114 57.6718C4.95697 57.3988 4.92961 56.8799 5.03906 56.5523C5.34004 55.6512 5.20323 54.5043 4.68336 53.7124C4.32765 53.1663 4.30029 52.9206 4.54655 52.511C4.71072 52.2379 4.76544 51.9375 4.62863 51.8556C4.49182 51.7737 4.4371 51.4733 4.51919 51.173C4.60127 50.8726 4.51919 50.6268 4.35502 50.6268C4.21821 50.6268 4.13612 50.463 4.21821 50.2446C4.30029 50.0534 4.16348 49.8077 3.88987 49.6984C3.56153 49.5619 3.53417 49.4254 3.7257 49.1796C4.30029 48.497 4.30029 46.3671 3.75306 45.466C3.47944 45.0018 3.37 44.5649 3.5068 44.483C3.83514 44.2645 3.67097 41.807 3.28791 41.6704C3.09638 41.6158 3.1511 41.2882 3.47944 40.7147C4.13612 39.5133 4.02668 37.6837 3.26055 37.083C2.93221 36.8373 2.95957 36.7553 3.28791 36.6188C3.61625 36.5096 3.69834 36.1546 3.61625 35.2262C3.58889 34.5435 3.67097 33.9701 3.80778 33.9701C3.94459 33.9701 4.05404 33.8336 4.05404 33.6697C4.05404 33.2875 5.34004 32.2498 5.94199 32.1406C7.58369 31.8675 8.15829 31.7037 8.15829 31.5126C8.15829 31.376 8.45927 31.3214 8.84233 31.4033C9.25276 31.458 9.69054 31.4306 9.88207 31.3214C10.0736 31.2122 10.3472 31.103 10.484 31.0757C11.3322 30.9937 12.5362 30.5842 12.5362 30.393C12.5362 30.2838 12.7824 30.2292 13.0834 30.2838C13.3844 30.3384 14.041 30.2292 14.5336 30.038C14.9987 29.8469 15.5733 29.7377 15.7648 29.7923C15.929 29.8742 16.0932 29.765 16.0932 29.6011C16.0932 29.3827 16.3121 29.3281 16.6678 29.41C16.9961 29.4919 17.4613 29.4646 17.7075 29.3281C18.3095 29.0004 19.185 28.6727 19.5134 28.6454C19.6776 28.6454 20.0606 28.4816 20.389 28.2904C20.7173 28.0993 21.1551 28.0447 21.374 28.0993C21.5655 28.1812 21.8938 28.072 22.0854 27.8535C22.3043 27.6078 22.7147 27.5259 23.2619 27.6078C23.8092 27.6897 24.0281 27.6351 23.8913 27.444C23.7271 27.1436 24.2196 27.0071 25.1773 27.089C25.4235 27.1163 26.1075 26.9251 26.6821 26.6794C27.2567 26.4336 27.9681 26.1879 28.2691 26.106C29.0352 25.9694 29.3089 25.8875 29.8014 25.6691C30.0476 25.5598 30.3486 25.5052 30.4854 25.5325C30.6222 25.5598 30.7864 25.5325 30.8685 25.5052C30.9506 25.4779 31.2515 25.4233 31.5525 25.3687C31.8535 25.3414 33.2216 25.041 34.5623 24.7133C35.9304 24.3857 37.189 24.0853 37.3806 24.0853C37.5447 24.058 37.7089 23.9488 37.7089 23.8122C37.7089 23.703 37.8457 23.5938 38.0099 23.5938C38.1467 23.5938 38.2014 23.703 38.1193 23.8669C37.8457 24.2764 38.2835 24.1945 38.8307 23.703C39.2138 23.3753 39.4327 23.348 39.8705 23.5938C40.1988 23.7576 40.4451 23.7849 40.4451 23.6757C40.4451 23.5665 41.2112 23.43 42.1415 23.4026C43.0991 23.3753 43.8926 23.2388 43.9474 23.075C44.0021 22.9384 44.1936 22.8565 44.4125 22.9384C44.604 23.0204 45.0145 22.9658 45.3154 22.8019C45.7259 22.5835 45.9174 22.5835 45.9995 22.8565C46.1089 23.1023 46.2184 23.1023 46.3826 22.8838C46.492 22.72 47.1213 22.6108 47.778 22.6654C48.4073 22.72 48.8998 22.6654 48.8177 22.5562C48.7357 22.4196 49.4197 22.365 50.3226 22.3923C51.4171 22.4469 51.937 22.365 51.937 22.1466C51.937 21.9281 52.0191 21.9554 52.1832 22.2012C52.3748 22.5015 52.5389 22.5015 53.0588 22.1193C53.7976 21.6004 54.2354 21.5458 53.9617 22.01C53.8249 22.2285 53.9617 22.2558 54.4269 22.1193C55.3025 21.8462 55.5213 21.8462 56.1507 22.1193C56.5611 22.2831 56.6158 22.2285 56.4516 21.9554C56.2875 21.6824 56.3422 21.6551 56.7526 21.8189C57.4093 22.1193 59.7077 22.01 59.8171 21.6824C59.8719 21.5458 60.1455 21.5731 60.4465 21.7643C60.8569 22.01 61.0484 21.9827 61.4041 21.6278C61.7598 21.2728 62.0061 21.2455 62.3891 21.4366C62.6627 21.5731 63.0458 21.6278 63.21 21.5185ZM1.31787 31.6218C1.31787 31.9222 0.797998 32.0314 0.633828 31.7856C0.551743 31.6491 0.661189 31.5126 0.880083 31.5126C1.12634 31.5126 1.31787 31.5672 1.31787 31.6218Z"
          fill="white"/>
    <path d="M43.1265 11.8795C42.6887 12.1799 42.3604 12.371 42.3604 12.2891C42.3604 11.8522 41.2385 13.3267 40.7734 14.3644C40.4177 15.2109 40.3356 15.7024 40.4998 16.112C40.8281 16.8219 42.2783 17.5319 43.1812 17.4227C43.5643 17.3954 44.1936 17.3407 44.6314 17.3407C45.0692 17.3134 45.7806 16.9585 46.3552 16.4123L47.3402 15.5112L47.0392 14.0367C46.5467 11.743 44.6587 10.7054 43.1265 11.8795Z"
          fill="white"/>
    <path d="M79.6543 22.2559C78.7787 22.802 78.04 24.4676 78.3683 25.0138C78.4504 25.1503 78.3957 25.4234 78.2315 25.6145C78.04 25.8603 78.0947 26.2425 78.423 26.9525C78.8608 27.9082 78.9429 27.9355 80.2836 27.9628C81.597 27.9628 81.7612 27.8809 82.4726 26.9252C83.2934 25.8876 83.5944 24.6861 83.1019 24.413C82.9377 24.3038 82.9377 23.9761 83.0745 23.5939C83.2934 23.0204 83.184 22.8566 82.3905 22.3105C81.2413 21.5459 80.7761 21.5186 79.6543 22.2559Z"
          fill="white"/>
    <path d="M74.9756 54.122C74.6746 54.5316 74.5104 55.0231 74.5651 55.187C74.6472 55.4054 74.4557 55.5419 74.1273 55.5419C73.7443 55.5419 73.5527 55.7058 73.5527 56.0608C73.5527 56.3338 73.3886 56.7161 73.1697 56.8799C72.9508 57.0711 72.7866 57.4261 72.7866 57.6718C72.7866 57.9176 72.7319 58.3272 72.6224 58.5729C72.3762 59.1463 73.0602 59.8563 74.0453 60.0748C74.4557 60.1567 75.0576 60.3478 75.386 60.5117C76.0427 60.8393 77.3834 60.4297 77.958 59.7198C78.3684 59.2556 78.5599 57.7264 78.2316 57.7264C78.0948 57.7264 78.1495 57.3441 78.3958 56.9072C78.6967 56.2519 78.7241 55.8969 78.4778 55.1597C78.3137 54.6408 77.958 54.1766 77.7117 54.0947C77.4655 54.0128 76.8361 53.8217 76.371 53.6851C75.5501 53.4121 75.4407 53.4667 74.9756 54.122Z"
          fill="white"/>
    <path d="M49.5565 33.2328C48.7083 33.6424 48.2431 34.0793 47.8327 34.9531C47.5317 35.6085 47.2855 36.4003 47.2855 36.7007C47.2855 37.0011 47.176 37.2468 47.0118 37.2468C46.492 37.2468 46.7382 38.3118 47.3128 38.6394C47.7506 38.8579 48.3252 38.8306 49.8575 38.4483C51.8822 37.9568 53.305 36.9738 53.305 36.1273C53.305 35.8542 53.4966 35.5265 53.7428 35.39C54.0712 35.1989 54.1259 34.9531 53.9343 34.2158C53.4966 32.5775 51.718 32.1952 49.5565 33.2328ZM48.3799 38.0114C48.3799 38.1479 48.1884 38.2572 47.9695 38.2572C47.7506 38.2572 47.6412 38.1479 47.7232 38.0114C47.8053 37.9022 47.9695 37.7929 48.1337 37.7929C48.2705 37.7929 48.3799 37.9022 48.3799 38.0114Z"
          fill="white"/>
    <path d="M15.4912 37.0831C15.0534 37.2196 14.7251 37.4654 14.7251 37.5746C14.7251 37.7111 14.4241 37.7384 14.0684 37.6292C13.2202 37.4381 11.7153 38.2026 11.7153 38.8307C11.7153 39.1037 11.4691 39.5952 11.1681 39.9229L10.6208 40.5236L11.7427 41.3428C12.7824 42.0801 13.6033 42.2166 13.2202 41.5886C13.1108 41.4521 13.1655 41.3428 13.3297 41.3428C13.5212 41.3428 13.5212 41.1244 13.357 40.6329C13.0013 39.7045 13.0013 39.5679 13.4938 39.9775C13.7127 40.1687 13.9043 40.6329 13.9043 41.0425C13.9043 41.4248 14.2326 42.2439 14.6157 42.8174C15.1902 43.6365 15.4365 43.8277 15.9017 43.6639C16.23 43.5546 16.8319 43.4181 17.2697 43.3362C18.2548 43.145 18.3368 42.9812 18.4189 40.8513C18.5284 38.7761 18.1179 37.7111 16.9688 37.165C16.4215 36.8919 16.0385 36.8646 15.4912 37.0831ZM12.5088 40.4963C12.7003 40.6329 12.8371 40.8786 12.7551 41.0698C12.7003 41.2609 12.4814 41.179 12.1531 40.824C11.6332 40.2506 11.8248 40.0594 12.5088 40.4963Z"
          fill="white"/>
    <path d="M31.7988 52.0468C31.4431 52.5929 31.4157 53.1663 31.744 53.5486C31.9629 53.8217 31.9082 53.9036 31.5799 53.9036C31.2242 53.9036 31.1694 54.0674 31.3062 54.6408C31.4704 55.4327 32.4007 56.3884 33.632 57.0438C34.316 57.4261 34.4255 57.3715 35.3558 56.4703C35.903 55.9515 36.2861 55.4054 36.204 55.2689C36.1219 55.1323 36.1766 54.9685 36.3134 54.8593C36.6965 54.6408 36.2313 53.5213 35.4105 52.6475C34.6717 51.8283 32.1818 51.4187 31.7988 52.0468Z"
          fill="white"/>
    <path d="M52.539 60.0201C51.8276 60.4024 51.0341 61.7404 51.2803 62.1227C51.3624 62.2865 51.2803 62.5869 51.0888 62.8054C50.651 63.3242 50.5142 64.5802 50.8426 64.9625C50.9794 65.1537 51.1435 65.536 51.1983 65.8363C51.3898 67.0651 52.5937 67.7205 53.2504 66.9286C53.4146 66.7647 53.6334 66.2186 53.7429 65.7817C53.825 65.3175 54.0712 64.7714 54.2901 64.5529C54.4817 64.3345 54.6732 63.9522 54.7279 63.7338C54.7826 63.5153 54.9468 63.2149 55.1383 63.0511C55.3025 62.9146 55.5214 62.3958 55.6308 61.9042C55.795 61.0851 55.7403 61.0031 54.4817 60.3478C53.3598 59.8017 53.0588 59.7471 52.539 60.0201ZM53.1683 65.9182C53.2504 66.0548 53.1409 66.1913 52.922 66.1913C52.6758 66.1913 52.4843 66.0548 52.4843 65.9182C52.4843 65.7544 52.5937 65.6452 52.7305 65.6452C52.8947 65.6452 53.0862 65.7544 53.1683 65.9182Z"
          fill="white"/>
    <path d="M17.516 66.1094C16.23 66.2732 15.6281 67.502 16.1206 69.0311C16.5584 70.4238 17.6528 71.6525 18.4463 71.6525C20.3617 71.6525 22.0034 69.7957 21.1825 68.5942C20.9636 68.2939 20.8542 67.857 20.9362 67.6658C21.1825 67.0378 20.4711 66.4644 19.4587 66.4644C18.9115 66.4644 18.5831 66.3551 18.6926 66.1913C18.7747 66.0275 18.7747 65.9455 18.6379 65.9729C18.5284 65.9729 18.0085 66.0548 17.516 66.1094Z"
          fill="white"/>
</svg>
