<svg width="92" height="57" viewBox="0 0 92 57" fill="none" xmlns="http://www.w3.org/2000/svg">
    <path d="M18.3524 0.173534C18.3039 0.237945 18.1422 0.254047 18.0129 0.205739C17.8673 0.157431 17.7056 0.189637 17.641 0.302355C17.5763 0.398972 17.3176 0.511691 17.0427 0.543896C16.784 0.576102 16.3636 0.688821 16.0887 0.80154C15.83 0.898156 15.5713 0.994772 15.5228 0.994772C15.4742 0.994772 15.4581 1.05918 15.4904 1.1397C15.5066 1.22021 15.3449 1.28462 15.1347 1.28462C14.6981 1.28462 13.5824 1.88042 13.5824 2.10586C13.5824 2.18637 13.4369 2.25078 13.2429 2.25078C13.0326 2.25078 12.871 2.37961 12.8224 2.58894C12.7578 2.78217 12.5476 2.9432 12.2727 3.00761C11.9978 3.05592 11.8038 3.20084 11.8038 3.34577C11.8038 3.47459 11.7553 3.539 11.6906 3.47459C11.5612 3.34577 10.5102 4.32803 10.5102 4.60178C10.5102 4.6984 10.3323 4.97214 10.106 5.21368C9.87959 5.45522 9.70172 5.69676 9.70172 5.74507C9.70172 5.79338 9.5562 5.97051 9.36216 6.13154C9.1843 6.29256 9.07111 6.5019 9.13579 6.59852C9.20047 6.71123 9.10345 6.82395 8.90941 6.87226C8.71538 6.92057 8.56985 7.0816 8.56985 7.25873C8.56985 7.43586 8.50518 7.56468 8.4405 7.56468C8.23029 7.56468 7.85839 8.38592 7.82606 8.93341C7.80989 9.19105 7.71287 9.43259 7.61585 9.4648C7.51883 9.497 7.43799 9.65803 7.43799 9.83516C7.43799 9.99619 7.35714 10.1411 7.26012 10.1411C7.17927 10.1411 7.14694 10.2055 7.19544 10.3021C7.24395 10.3827 7.21161 10.4632 7.09843 10.4632C7.00141 10.4632 6.9529 10.592 7.00141 10.7691C7.04992 10.9462 6.96907 11.2361 6.83971 11.4293C6.71036 11.6065 6.64568 11.8641 6.69419 11.9929C6.7427 12.1217 6.66185 12.4438 6.53249 12.7014C6.3708 13.0074 6.32229 13.41 6.3708 13.7642C6.43548 14.1185 6.40314 14.3278 6.28995 14.3278C6.17676 14.3278 6.16059 14.4405 6.22527 14.6016C6.38697 14.9719 6.38697 15.133 6.24144 15.5999C6.14442 15.8576 6.16059 15.9381 6.28995 15.8737C6.50015 15.7449 6.45165 16.2118 6.24144 16.5661C6.04741 16.872 6.01507 18.0314 6.19293 18.0314C6.27378 18.0314 6.27378 18.1281 6.17676 18.2408C5.9989 18.4501 6.03124 19.6578 6.22527 19.9638C6.28995 20.0604 6.25761 20.2375 6.14442 20.3663C6.01507 20.5113 5.9989 20.8494 6.07975 21.3647C6.14442 21.7834 6.2091 22.2504 6.22527 22.3792C6.35463 23.3131 6.53249 23.9894 6.64568 23.9894C6.71036 23.9894 6.77504 24.231 6.77504 24.5047C6.79121 24.7946 6.82354 25.2938 6.85588 25.5997C6.88822 25.9057 6.92056 26.276 6.93673 26.4048C6.9529 26.582 6.98524 26.5981 7.08226 26.4532C7.14694 26.3404 7.21161 26.6625 7.21161 27.1617C7.21161 27.6609 7.29246 28.0956 7.38948 28.1278C7.4865 28.16 7.535 28.3372 7.4865 28.4982C7.43799 28.6914 7.50267 28.8525 7.64819 28.9169C7.79372 28.9652 7.87456 29.1423 7.84223 29.3516C7.79372 29.5288 7.84223 29.7703 7.93924 29.883C8.08477 30.0602 8.18179 30.4788 8.23029 31.1551C8.24646 31.2357 8.32731 31.2035 8.42433 31.0746C8.55368 30.8814 8.58602 30.9458 8.52135 31.3001C8.4405 31.7671 8.76389 32.7493 9.03877 32.9264C9.13579 32.9748 9.16813 33.1197 9.11962 33.2485C9.05494 33.3773 9.13579 33.5384 9.28131 33.5867C9.42684 33.635 9.54003 33.7477 9.54003 33.8443C9.54003 33.9248 9.47535 33.9409 9.37833 33.8926C9.11962 33.7316 9.1843 33.8926 9.54003 34.2952C9.71789 34.5045 9.86342 34.8427 9.86342 35.052C9.86342 35.2452 9.9281 35.4224 10.0089 35.4224C10.0898 35.4224 10.2677 35.7927 10.4132 36.2436C10.5749 36.7106 10.8013 37.1776 10.9306 37.3064C11.06 37.4352 11.1246 37.6123 11.0761 37.6767C11.0276 37.7573 11.1408 37.9022 11.3187 37.9988C11.4965 38.0954 11.6421 38.337 11.6421 38.5624C11.6421 38.7878 11.7553 38.9811 11.9493 39.0455C12.111 39.0938 12.305 39.3031 12.3535 39.5125C12.402 39.7057 12.6607 40.1083 12.9356 40.382C13.2105 40.6719 13.3399 40.8973 13.2267 40.8973C13.1297 40.8973 13.1943 41.0422 13.3884 41.2193C13.5824 41.3965 13.7764 41.5414 13.825 41.5414C14.0028 41.5414 14.3747 41.9762 14.2777 42.0889C14.2292 42.1372 14.31 42.2177 14.4556 42.2821C14.6011 42.3304 14.7143 42.4915 14.7143 42.6203C14.7143 42.7491 14.9245 43.0712 15.1994 43.361C15.4581 43.6509 15.6845 43.9246 15.6845 43.989C15.6845 44.0695 15.7653 44.1178 15.8623 44.1178C15.9593 44.1178 16.1372 44.2306 16.2666 44.3594C16.4768 44.5687 16.4606 44.6331 16.1857 44.9069C16.024 45.0679 15.83 45.3577 15.7815 45.5349C15.7006 45.7442 15.5713 45.8247 15.3772 45.7764C15.2155 45.7281 15.0215 45.7764 14.973 45.873C14.9083 45.9535 14.7628 46.0018 14.6334 45.9374C14.5041 45.8891 14.3909 45.9374 14.3909 46.018C14.3909 46.1146 14.2454 46.2434 14.0675 46.2917C13.8896 46.34 13.7441 46.4849 13.7441 46.5976C13.7441 46.7265 13.5662 46.7748 13.2105 46.7265C12.8548 46.6943 12.4505 46.7909 12.0301 47.0324C11.2702 47.4511 9.86342 47.4994 9.23281 47.0968C9.07111 47.0163 8.97409 47.0324 8.92558 47.1451C8.87708 47.2901 8.78006 47.2901 8.53752 47.1612C8.35965 47.0646 8.11711 47.0324 7.98775 47.0807C7.85839 47.129 7.76138 47.1129 7.76138 47.0485C7.76138 46.968 7.35714 46.9197 6.87205 46.9358C6.38697 46.9519 5.98273 46.9036 5.98273 46.8231C5.98273 46.7426 5.65934 46.6943 5.2551 46.7426C4.85086 46.7748 4.52747 46.7426 4.52747 46.6621C4.52747 46.5976 4.44662 46.5332 4.34961 46.5332C4.26876 46.5332 4.23642 46.6138 4.3011 46.7104C4.36577 46.807 4.25259 46.807 4.02621 46.6782C3.60581 46.4366 3.29859 46.3883 1.90801 46.34C1.39058 46.3239 0.970172 46.2434 0.970172 46.1629C0.970172 46.0824 0.840816 46.0663 0.69529 46.1307C0.533595 46.1951 0.307221 46.2595 0.210204 46.2595C0.0646781 46.2595 0 46.5493 0 47.1129C0 48.0791 0.226374 48.2401 1.01868 47.8537C1.40675 47.6604 1.50377 47.6604 1.66546 47.8698C1.77865 47.9986 2.0697 48.0952 2.34458 48.0791C2.61946 48.063 2.91052 48.1113 3.00753 48.1918C3.12072 48.2562 3.31476 48.2079 3.46028 48.063C3.65432 47.8537 3.71899 47.8537 3.71899 48.0147C3.71899 48.3528 4.52747 48.5622 5.41679 48.4495C5.98273 48.385 6.30612 48.4173 6.46781 48.5622C6.61334 48.6749 6.9529 48.7393 7.24395 48.7071C7.85839 48.6266 7.89073 48.7232 7.37331 49.319C7.08226 49.6572 6.88822 49.7538 6.64568 49.6733C6.45165 49.625 6.30612 49.6411 6.30612 49.7216C6.30612 49.8182 6.16059 49.8504 5.98273 49.8021C5.78869 49.7538 5.65934 49.8021 5.65934 49.9148C5.65934 50.0275 5.52998 50.0758 5.35212 50.0275C4.68917 49.8665 4.41428 50.414 4.70534 51.2996C4.8832 51.8632 5.38446 52.1048 5.67551 51.7505C5.77252 51.6217 5.95039 51.5412 6.04741 51.5412C6.32229 51.5895 7.1631 51.3318 7.535 51.0903C7.71287 50.9776 7.92307 50.9293 7.97158 50.9937C8.03626 51.042 8.21412 50.9293 8.39199 50.7521C8.55368 50.5589 8.84474 50.3979 9.03877 50.3979C9.21664 50.3979 9.37833 50.3174 9.37833 50.2208C9.37833 49.9953 10.4779 50.8971 10.494 51.1547C10.5102 51.2513 10.4455 51.3641 10.3647 51.3963C10.2677 51.4124 10.1868 51.6217 10.1545 51.8471C10.1221 52.0726 10.0089 52.4107 9.89576 52.5879C9.79874 52.7811 9.75023 52.9743 9.79874 53.0065C9.83108 53.0548 9.7664 53.1837 9.62087 53.2964C9.49152 53.4091 9.37833 53.6345 9.37833 53.7795C9.37833 53.9405 9.31365 54.1015 9.23281 54.1337C9.15196 54.1498 9.03877 54.5524 8.97409 55.0033L8.87708 55.8084L9.50769 56.0016C10.2838 56.2432 10.397 56.2432 10.2677 56.0177C10.203 55.9211 10.2677 55.7601 10.4132 55.6635C10.5587 55.5508 10.7042 55.2448 10.7527 54.9872C10.8821 54.0854 10.9306 53.9888 11.2217 53.6989C11.5936 53.3125 11.8038 52.7489 11.8038 52.0726C11.8038 51.6539 11.8684 51.5251 12.0948 51.5251C12.2727 51.5251 12.4829 51.2835 12.6607 50.881C12.8063 50.5267 13.0003 50.2369 13.0973 50.2369C13.1782 50.2369 13.259 50.0275 13.259 49.786C13.259 49.2063 14.0352 47.9825 14.3424 48.0952C14.4556 48.1435 14.5526 48.0952 14.5526 47.9986C14.5526 47.902 14.6496 47.8215 14.779 47.8215C15.1023 47.8215 16.024 47.3223 16.3636 46.968C16.5091 46.7909 16.7031 46.7104 16.784 46.7587C16.881 46.807 17.0265 46.7426 17.1397 46.6138C17.4954 46.1951 18.0452 46.34 18.7243 47.0324C19.3064 47.6121 19.5813 47.757 20.0987 47.8054C20.1796 47.8215 20.1796 47.902 20.1311 47.9986C20.0664 48.0952 20.1634 48.2079 20.3574 48.2562C20.5515 48.3045 20.697 48.4012 20.697 48.4817C20.697 48.5622 20.8102 48.6266 20.9396 48.6266C21.0689 48.6266 21.1659 48.7071 21.1498 48.8037C21.1174 48.9003 21.2791 49.0131 21.5055 49.0453C21.7319 49.0936 21.9421 49.1902 21.9744 49.2868C22.0067 49.3834 22.2169 49.625 22.4433 49.8182C22.6697 49.9953 22.9607 50.2691 23.1063 50.414C23.5105 50.7844 24.222 51.203 24.4807 51.203C24.61 51.203 24.9496 51.4124 25.2245 51.67C25.5155 51.9276 25.9359 52.2336 26.1623 52.3463C26.4049 52.459 26.7768 52.7006 26.987 52.8616C27.2133 53.0065 27.6984 53.2159 28.0703 53.3125C28.4584 53.4091 28.7494 53.5701 28.7333 53.6667C28.7009 53.8439 28.7979 53.8761 29.3315 53.9244C29.4609 53.9244 29.6873 54.0532 29.8166 54.1981C29.9622 54.327 30.14 54.4075 30.2047 54.3592C30.2855 54.3108 30.5928 54.488 30.8838 54.7456C31.4012 55.2126 31.5953 55.2931 31.9187 55.2448C31.9833 55.2287 32.145 55.3253 32.2421 55.4702C32.3391 55.6152 32.5008 55.7279 32.5816 55.7118C32.9373 55.6313 33.3254 55.7279 33.2446 55.8567C33.1961 55.9372 33.3416 55.9855 33.5841 55.9855C33.8105 55.9855 34.0692 56.1144 34.1501 56.2593C34.2471 56.4364 34.4088 56.5008 34.6028 56.4364C34.813 56.372 34.9585 56.4525 35.0879 56.6779C35.1849 56.8551 35.3466 57 35.4598 57C35.7347 57 36.3976 55.6152 36.2844 55.3092C36.1874 55.0516 36.6725 54.5524 36.8827 54.6812C36.9474 54.7134 37.0767 54.6329 37.1899 54.5041C37.3031 54.3753 37.4972 54.2625 37.6103 54.2625C37.7397 54.2625 37.8367 54.1337 37.8367 53.9727C37.8367 53.7956 37.9661 53.6828 38.2086 53.6506C38.726 53.6184 39.4698 53.2159 39.7771 52.8133C39.9064 52.6362 40.1975 52.459 40.4077 52.4107C40.634 52.3785 40.8443 52.2819 40.8928 52.2175C41.0545 52.0082 41.7012 51.6861 41.9599 51.6861C42.0893 51.6861 42.2025 51.6217 42.2025 51.5412C42.2025 51.4607 42.3965 51.3479 42.6552 51.2835C43.1242 51.1869 43.8194 50.6877 43.8194 50.4462C43.8194 50.3818 44.0782 50.3174 44.4015 50.3013C44.7573 50.3013 45.0807 50.1886 45.1939 50.0275C45.307 49.8826 45.5172 49.7538 45.6628 49.7538C45.8083 49.7538 45.9215 49.6733 45.9215 49.5928C45.9215 49.4961 46.0347 49.4317 46.1802 49.4317C46.3257 49.4317 46.5683 49.3029 46.7138 49.1419C46.8593 48.9809 47.0857 48.8681 47.215 48.8681C47.8618 48.9164 49.1554 48.1113 49.1554 47.6604C49.1554 47.5638 49.2847 47.5155 49.4464 47.5638C49.6081 47.6282 49.8669 47.5316 50.0609 47.3706C50.2226 47.2096 50.4975 47.0324 50.6592 46.968C50.8047 46.9197 50.934 46.7587 50.934 46.646C50.934 46.5171 51.1119 46.4205 51.3868 46.4205C51.9204 46.4205 52.745 45.873 53.0523 45.3094C53.1654 45.1001 53.3918 44.923 53.5535 44.923C53.7152 44.923 53.8446 44.8747 53.8446 44.7941C53.8446 44.7297 54.0063 44.6009 54.2003 44.5204C54.4105 44.4238 54.6369 44.2144 54.7339 44.0373C54.8309 43.8602 55.0896 43.6992 55.3645 43.667C55.8981 43.6025 56.7551 43.0228 56.7551 42.7169C56.7551 42.6042 56.8198 42.5076 56.9168 42.5076C56.9976 42.5076 57.0623 42.4109 57.03 42.2982C57.0138 42.2016 57.1108 42.1211 57.2563 42.1533C57.4019 42.1694 57.7091 42.0084 57.9355 41.799C58.178 41.5897 58.4852 41.3804 58.6469 41.3482C58.8086 41.316 58.9865 41.0905 59.035 40.8168C59.0997 40.543 59.1482 40.4142 59.1643 40.5108C59.1805 40.7685 59.989 40.5913 59.989 40.3337C59.989 40.221 60.1668 40.0761 60.3771 40.0277C60.6034 39.9794 60.8621 39.7218 60.9915 39.448C61.1047 39.1904 61.2664 38.9811 61.3634 38.9811C61.8808 39.0455 62.188 38.9006 62.754 38.3531C63.0935 37.9988 63.3846 37.6445 63.3846 37.5479C63.3846 37.4352 63.4331 37.3708 63.5139 37.3869C63.7403 37.4352 64.5165 37.0326 64.5165 36.8716C64.5165 36.7911 64.5811 36.7106 64.6781 36.7106C64.7752 36.7106 64.9854 36.5657 65.1632 36.3885C65.3411 36.2114 65.6322 36.0665 65.7938 36.0665C66.1819 36.0665 67.1036 35.2291 67.1036 34.8749C67.1036 34.7138 67.2491 34.6172 67.5078 34.6172C67.7342 34.6172 67.9606 34.5045 68.0091 34.3757C68.0738 34.2469 68.2031 34.1342 68.3163 34.1342C68.4295 34.1342 68.575 33.9087 68.6397 33.6511C68.7044 33.3773 68.8337 33.168 68.9307 33.1841C69.5775 33.2646 70.4022 32.7493 70.5315 32.2018C70.5962 31.8959 70.8064 31.6865 71.3562 31.3323C71.5987 31.1713 71.7927 30.9297 71.7927 30.817C71.7927 30.6882 71.8574 30.5916 71.9383 30.5916C72.0191 30.5916 72.1161 30.4627 72.1808 30.3017C72.294 29.9797 72.5851 29.5127 72.957 29.094C73.1186 28.9169 73.1995 28.7075 73.151 28.627C73.1025 28.5626 73.1348 28.4982 73.2157 28.4982C73.3127 28.4982 73.3612 28.2889 73.345 28.0312C73.3288 27.7736 73.345 27.5642 73.3935 27.5642C73.7331 27.5965 73.8948 27.4998 73.8948 27.2905C73.8948 27.1617 73.9756 27.049 74.0565 27.049C74.1535 27.049 74.2182 26.904 74.2182 26.7269C74.2182 26.5498 74.3314 26.3565 74.4607 26.3082C74.5901 26.2438 74.7033 26.0667 74.7033 25.9057C74.7033 25.7446 74.7841 25.5997 74.865 25.5997C74.962 25.5997 75.0267 25.3743 75.0267 25.1166C75.0267 24.8268 75.1237 24.5852 75.2692 24.5208C75.6411 24.392 76.1262 23.3292 76.0777 22.8139C76.0453 22.5402 76.11 22.3309 76.2555 22.2665C76.3849 22.2181 76.4819 22.0571 76.4819 21.9122C76.4819 21.7512 76.5304 21.574 76.5951 21.5096C76.7245 21.3808 76.8376 20.9621 76.8215 20.5435C76.8215 20.3663 76.967 20.1087 77.1449 19.9477C77.5653 19.5773 77.7916 18.6433 77.5976 17.9992C77.5329 17.7255 77.5168 17.4195 77.5653 17.3229C77.7755 16.9848 77.7431 15.922 77.5006 15.6804C77.3066 15.4872 77.3066 15.4389 77.5006 15.3745C77.6138 15.3262 77.727 15.1491 77.7431 15.0041C77.824 14.3439 77.7431 13.4422 77.6138 13.2811C77.4683 13.104 77.921 12.154 78.1797 12.154C78.5516 12.1378 79.2307 11.687 79.3277 11.3971C79.3763 11.2361 79.5056 11.1234 79.6188 11.1395C79.732 11.1717 80.0069 10.9785 80.2494 10.7369C80.5081 10.4471 80.7507 10.3182 80.8639 10.3988C81.0094 10.4793 81.0255 10.431 80.9609 10.2377C80.8962 10.0767 80.9124 9.99619 81.0094 10.0606C81.1064 10.1089 81.2196 10.0445 81.2681 9.91567C81.3166 9.77075 81.446 9.65803 81.5591 9.65803C81.6562 9.65803 81.9796 9.43259 82.2706 9.17495C82.5617 8.9012 82.8527 8.69187 82.9012 8.69187C82.9497 8.69187 83.2731 8.40202 83.6127 8.03166C83.9361 7.6774 84.3241 7.37145 84.4373 7.33924C84.5667 7.32314 84.8739 7.1138 85.1164 6.87226C85.359 6.63072 85.6177 6.43749 85.7147 6.43749C85.8117 6.43749 85.8279 6.35697 85.7794 6.27646C85.7309 6.17984 85.7794 6.11543 85.8926 6.11543C86.1351 6.11543 87.1053 5.18148 87.17 4.90773C87.2347 4.65009 87.5904 4.34414 87.7036 4.45685C87.7521 4.52127 87.8006 4.47296 87.8006 4.37634C87.8006 4.21531 88.8516 3.90936 89.1588 3.98988C89.2235 4.02208 89.3852 3.95767 89.4984 3.86105C89.8218 3.60341 89.9188 4.07039 89.6439 4.58568C89.5146 4.82722 89.4175 5.11707 89.4337 5.21368C89.4822 5.64846 89.4014 5.97051 89.2558 5.87389C89.1588 5.82559 89.0941 5.9383 89.0941 6.16374C89.0941 6.38918 88.981 6.64682 88.8354 6.77565C88.7061 6.88836 88.6252 7.1138 88.6576 7.27483C88.7061 7.43586 88.6414 7.6774 88.5282 7.79012C88.318 7.98335 88.2048 8.32151 88.0593 9.17495C88.027 9.30377 87.9461 9.54531 87.8814 9.69024C87.8168 9.85126 87.7521 10.431 87.7359 10.9785L87.7197 11.9929L88.512 12.0412L89.3044 12.0895L89.2073 11.6065C89.1427 11.3327 89.1588 11.1073 89.2397 11.1073C89.3205 11.1073 89.4337 10.8013 89.4984 10.4149C89.5631 10.0445 89.6924 9.65803 89.7733 9.54531C89.8541 9.43259 89.8865 9.27157 89.8218 9.17495C89.7733 9.09444 89.7894 9.01392 89.8703 9.01392C89.9511 9.01392 90.032 8.83679 90.032 8.61135C90.032 8.38592 90.129 8.07996 90.2584 7.91894C90.6303 7.48416 90.9213 6.63072 90.8405 6.21205C90.7919 5.97051 90.8405 5.77728 90.9698 5.72897C91.0992 5.68066 91.1962 5.53574 91.1962 5.40691C91.1962 5.27809 91.277 5.14927 91.3741 5.11707C91.4549 5.08486 91.5681 4.81111 91.6166 4.50516C91.6813 4.19921 91.7783 3.81275 91.8591 3.66782C92.0693 3.28136 92.037 2.28299 91.8106 2.15417C91.7136 2.08976 91.3255 1.97704 90.9698 1.91263C90.4524 1.81601 90.226 1.86432 89.8703 2.10586C89.6439 2.28299 89.4014 2.3474 89.3529 2.26689C89.3044 2.18637 88.3665 2.13806 87.2993 2.17027C85.4722 2.21858 85.3105 2.23468 84.9871 2.58894C84.7769 2.83048 84.4212 2.99151 84.0816 3.02371C83.7744 3.03982 83.4833 3.13643 83.4348 3.23305C83.3701 3.31356 83.2246 3.34577 83.0952 3.29746C82.6748 3.13643 82.2706 3.76444 82.3838 4.37634C82.497 5.00435 83.0629 5.47133 83.2893 5.13317C83.354 5.02045 83.6774 4.90773 83.9846 4.89163L84.5667 4.87553L84.0816 5.3425C83.8067 5.58404 83.5965 5.87389 83.5965 5.97051C83.5965 6.05102 83.5318 6.08323 83.4348 6.03492C83.354 5.98661 83.2408 6.11543 83.1761 6.34087C83.1276 6.58241 82.9982 6.71123 82.8689 6.64682C82.6102 6.55021 81.834 7.0816 81.8179 7.35534C81.8179 7.45196 81.6723 7.59688 81.4945 7.64519C81.3166 7.6935 81.1711 7.82232 81.1711 7.90283C81.1711 7.98335 81.0741 8.04776 80.9609 8.04776C80.8477 8.04776 80.589 8.25709 80.4111 8.49864C80.2171 8.75628 79.9745 8.96561 79.8452 8.96561C79.5056 8.96561 78.7456 9.51311 78.7456 9.75465C78.7456 9.88347 78.6648 9.98008 78.5678 9.98008C78.4869 9.98008 78.4546 10.0606 78.5193 10.1733C78.6001 10.3021 78.5193 10.3182 78.2767 10.2538C78.0504 10.2055 77.8887 10.2538 77.824 10.3988C77.6299 10.9301 76.3687 10.4471 76.4496 9.86737C76.5142 9.4648 76.207 8.80459 76.013 8.91731C75.9483 8.96561 75.7219 8.78848 75.5117 8.51474C75.2854 8.25709 74.9781 8.04776 74.8326 8.04776C74.6709 8.04776 74.5416 7.96725 74.5416 7.85453C74.5416 7.75791 74.2829 7.41975 73.9595 7.1299C73.4905 6.69513 73.2318 6.59852 72.6821 6.59852C72.2293 6.59852 71.9544 6.518 71.9059 6.37308C71.7927 6.08323 70.6447 5.74507 70.2728 5.89C70.1273 5.9383 70.0141 5.9222 70.0141 5.84169C70.0141 5.58404 69.0924 5.14927 68.5265 5.14927C68.2354 5.14927 67.8312 5.26199 67.6372 5.39081C67.3623 5.58404 67.2814 5.58404 67.2168 5.40691C67.1197 5.18148 65.7292 5.13317 65.3734 5.35861C65.2603 5.42302 64.9692 5.39081 64.7267 5.26199C64.2092 5.00435 63.2714 5.02045 62.754 5.3103C62.5438 5.40691 62.2851 5.45522 62.1395 5.40691C62.0102 5.3425 61.6221 5.37471 61.2664 5.47133C60.9268 5.56794 60.2962 5.68066 59.8758 5.71287C58.9865 5.80948 58.2103 6.08323 58.2103 6.30867C58.2103 6.40528 58.0325 6.42139 57.8223 6.37308C57.5959 6.32477 57.3695 6.35697 57.321 6.43749C57.2563 6.5341 57.1593 6.56631 57.0785 6.518C57.0138 6.46969 56.8683 6.5341 56.7712 6.66293C56.6581 6.79175 56.3185 6.93667 56.0113 7.00108C55.6879 7.04939 55.2675 7.24262 55.0896 7.41975C54.9117 7.58078 54.6045 7.72571 54.4105 7.72571C53.8607 7.72571 53.0361 8.20879 52.842 8.62746C52.7289 8.85289 52.5348 9.01392 52.4055 8.99782C51.8719 8.93341 50.7885 9.67413 50.7723 10.0928C50.7723 10.2055 50.643 10.3182 50.4975 10.3182C49.98 10.3504 49.883 10.3827 49.3818 10.6564C48.9128 10.914 48.5895 11.3488 48.638 11.6226C48.6541 11.7031 48.5248 11.7514 48.3469 11.7514C48.1691 11.7514 48.0235 11.7997 48.0235 11.8802C48.0235 11.9446 47.8618 12.0734 47.6678 12.154C47.4576 12.2506 47.2312 12.4599 47.1342 12.637C47.0372 12.8464 46.7785 12.9752 46.4227 13.0074C45.7598 13.0557 45.0807 13.5549 44.8705 14.1668C44.7249 14.5533 44.6603 14.5855 44.3369 14.4727C44.1267 14.3922 43.9165 14.1829 43.868 14.0058C43.8194 13.8286 43.7063 13.6837 43.6254 13.6837C43.3667 13.6837 42.9786 13.2167 43.0918 13.0396C43.1403 12.9591 43.1242 12.8786 43.0433 12.8786C42.7684 12.8786 42.251 12.315 42.3318 12.0895C42.3804 11.9285 42.3318 11.8963 42.154 11.9607C41.8953 12.0573 41.4749 11.7192 41.6527 11.5582C41.7983 11.4132 40.3915 10.0284 39.9711 9.89957C39.7609 9.83516 39.6315 9.75465 39.68 9.70634C39.7286 9.64193 39.5669 9.4487 39.3081 9.27157C39.0656 9.07833 38.8392 8.8851 38.8231 8.80459C38.8231 8.74018 38.7584 8.70797 38.7099 8.72407C38.6614 8.75628 38.5158 8.57915 38.3865 8.32151C38.2571 8.07996 38.0793 7.88673 37.9822 7.88673C37.8852 7.88673 37.5618 7.64519 37.2546 7.35534C36.9474 7.0816 36.6402 6.84006 36.5755 6.82395C36.2521 6.79175 35.9125 6.55021 35.9934 6.42139C36.0419 6.34087 36.0096 6.27646 35.9287 6.27646C35.8317 6.27646 35.5406 6.05102 35.2496 5.79338C34.9585 5.51963 34.6351 5.3103 34.522 5.3103C34.3926 5.3103 34.2632 5.18148 34.1986 5.02045C34.1501 4.84332 33.8267 4.56957 33.4709 4.40855C33.1152 4.24752 32.8242 4.05429 32.8242 3.98988C32.8242 3.79664 31.6761 3.21695 31.2719 3.21695C31.0617 3.21695 30.8838 3.15254 30.8838 3.05592C30.8838 2.81438 29.5903 2.05755 29.3315 2.15417C29.2022 2.20248 29.1052 2.17027 29.1052 2.10586C29.1052 1.94483 28.232 1.57447 27.7631 1.52616C27.6014 1.51006 27.3912 1.41344 27.278 1.30072C27.181 1.20411 26.8738 1.12359 26.5989 1.12359C26.324 1.12359 25.9521 1.01087 25.7742 0.882053C25.3862 0.592204 25.1598 0.576102 25.3377 0.833745C25.4023 0.946464 25.2568 0.914258 25.0143 0.753231C24.7717 0.592204 24.2543 0.44728 23.8824 0.415074C23.5105 0.382869 23.0739 0.318458 22.9284 0.254047C22.7829 0.189637 22.508 0.205739 22.3301 0.318458C22.1361 0.415074 21.9906 0.431177 21.9906 0.334561C21.9906 0.254047 21.7157 0.205739 21.3923 0.237945C21.0527 0.254047 20.7293 0.189637 20.6647 0.0930202C20.5677 -0.0196987 20.503 -0.0358014 20.4221 0.0769175C20.3089 0.221842 19.9694 0.27015 19.8562 0.157431C19.7107 0.0447121 18.4171 0.0447121 18.3524 0.173534ZM20.2928 1.83211C20.8264 2.05755 21.651 2.08976 22.1038 1.91263C22.3463 1.83211 22.5727 1.81601 22.6212 1.88042C22.6697 1.94483 22.8637 2.02535 23.0416 2.05755C23.2195 2.07365 23.5428 2.12196 23.7692 2.15417C23.9956 2.18637 24.2705 2.13806 24.3837 2.05755C24.513 1.92873 24.5777 1.96093 24.5777 2.13806C24.5777 2.44402 25.4023 2.78217 26.1946 2.81438C26.5342 2.83048 26.9223 2.9271 27.0678 3.03982C27.1972 3.15254 27.4074 3.26525 27.5206 3.28136C28.0218 3.39408 29.089 3.84495 29.4286 4.1187C29.5579 4.21531 29.849 4.34414 30.0753 4.39244C30.7383 4.55347 30.7706 4.56957 31.191 4.95604C31.4174 5.16537 31.8378 5.43912 32.1289 5.58404C32.4199 5.71287 32.6625 5.89 32.6625 5.97051C32.6625 6.05102 32.9212 6.21205 33.2284 6.34087C33.5356 6.46969 33.7943 6.67903 33.7943 6.80785C33.7943 7.0816 34.91 7.88673 35.2819 7.88673C35.4275 7.88673 35.5892 8.01555 35.6377 8.16048C35.7508 8.48253 36.7372 9.17495 37.0929 9.17495C37.2223 9.17495 37.3678 9.38428 37.4325 9.64193C37.578 10.3182 38.7422 11.2683 39.1303 11.0268C39.2273 10.9785 39.292 11.059 39.292 11.2039C39.292 11.4615 40.1813 12.3955 40.44 12.3955C40.5047 12.3955 40.6017 12.5726 40.6502 12.7981C40.7796 13.2972 41.8953 14.4727 42.1702 14.3761C42.2995 14.3278 42.3318 14.3922 42.2672 14.5694C42.2025 14.7143 42.2348 14.8914 42.348 14.9558C42.445 15.0202 42.5582 15.294 42.5906 15.5838C42.6391 16.083 42.7684 16.3084 43.3667 17.0009C43.6901 17.3712 44.4662 17.3551 44.4662 16.9848C44.4662 16.8559 44.8381 16.3729 45.307 15.9059C45.776 15.4389 46.0993 15.1652 46.0185 15.294C45.9538 15.4228 46.067 15.3262 46.2934 15.0846C46.5036 14.827 46.8108 14.6016 46.9887 14.5855C47.1504 14.5533 47.2797 14.4405 47.2474 14.3439C47.2312 14.2473 47.3929 14.1668 47.6031 14.1668C47.8133 14.1668 48.0397 14.0541 48.0882 13.9091C48.1367 13.7803 48.2499 13.6998 48.3146 13.7481C48.4763 13.8447 49.6405 12.7981 49.6405 12.5565C49.6405 12.4599 49.7052 12.4116 49.8022 12.476C49.883 12.5243 50.0932 12.4277 50.2873 12.2345C50.4651 12.0573 50.7238 11.9124 50.8532 11.9124C50.9825 11.9124 51.0957 11.7997 51.0957 11.6387C51.0957 11.4937 51.1442 11.4293 51.1928 11.4776C51.2574 11.542 51.597 11.3649 51.9527 11.1073C52.3246 10.8335 52.6965 10.6242 52.8097 10.6242C52.9229 10.6242 53.1654 10.431 53.3433 10.2055C53.5212 9.98008 53.7475 9.83516 53.8446 9.89957C53.9254 9.94788 54.0063 9.93178 54.0063 9.83516C54.0063 9.67413 54.5884 9.41649 55.1543 9.35208C55.2351 9.35208 55.2675 9.27157 55.219 9.17495C55.1705 9.09444 55.3322 8.98172 55.5747 8.91731C56.2053 8.78848 58.2265 8.03166 58.6146 7.79012C58.7924 7.6935 59.326 7.56468 59.8111 7.51637C60.2962 7.46806 60.7328 7.33924 60.7975 7.24262C60.9753 6.96888 61.4927 7.54858 61.3634 7.87063C61.2987 8.01555 61.1855 8.51474 61.1047 8.98172C61.0077 9.4487 60.846 10.1089 60.7166 10.4471C60.6034 10.7691 60.5549 11.2522 60.6034 11.5098C60.6519 11.8158 60.6196 11.9285 60.4902 11.848C60.3771 11.7675 60.3124 11.8641 60.3124 12.1217C60.3124 12.3472 60.2154 12.6048 60.086 12.7014C59.9566 12.8142 59.8435 13.0879 59.8273 13.3294C59.7788 14.3439 59.7464 14.6177 59.6333 14.5533C59.4554 14.4405 59.1805 15.6482 59.2614 16.1474C59.3099 16.389 59.2775 16.5822 59.1805 16.5822C59.0997 16.5822 59.0188 16.711 59.0188 16.872C59.0188 17.0331 58.9056 17.3068 58.7763 17.4839C58.5014 17.8543 58.469 18.0959 58.7116 17.9348C58.9541 17.7899 58.7278 18.5145 58.4205 18.8527C58.2912 19.0137 58.178 19.3841 58.1618 19.7061C58.1457 20.0282 58.081 20.2858 58.0325 20.2858C57.9031 20.2858 57.6929 21.1876 57.6606 21.7995C57.6444 22.0571 57.5474 22.2987 57.4342 22.3309C57.3372 22.3792 57.2402 22.6207 57.2402 22.8623C57.2402 23.1199 57.1593 23.3775 57.0785 23.4258C56.9814 23.4903 56.9168 23.6513 56.9329 23.7962C56.9653 24.1666 56.7389 24.7946 56.5772 24.7946C56.5125 24.7946 56.4802 24.6336 56.5125 24.4403C56.561 24.2471 56.5125 24.0055 56.4155 23.8767C56.2862 23.7318 56.2862 23.6674 56.3993 23.6674C56.5772 23.6674 56.5449 22.1054 56.367 21.9283C56.3185 21.88 56.3508 21.7512 56.4317 21.6545C56.6742 21.3486 56.7712 19.8027 56.5449 19.8027C56.4155 19.8027 56.3993 19.7705 56.5287 19.6739C56.7551 19.529 56.9329 18.3857 56.7551 18.273C56.5772 18.1603 56.7389 17.5484 56.9491 17.5484C57.03 17.5484 57.0461 17.3873 56.9814 17.178C56.8359 16.7271 56.8359 16.5983 56.9814 16.1152C57.0785 15.8576 57.0623 15.7771 56.9329 15.8415C56.6904 16.0025 56.7066 15.8576 56.9653 15.5838C57.224 15.3101 57.5797 13.9575 57.4342 13.8125C57.3695 13.7481 56.9491 13.5549 56.4802 13.3778L55.6394 13.0557L55.5424 13.5227C55.4777 13.7964 55.3645 14.038 55.2836 14.0863C55.2028 14.1507 55.1381 14.3278 55.1381 14.5049C55.1381 14.666 55.0573 14.8109 54.9603 14.8109C54.8632 14.8109 54.8147 14.9236 54.8794 15.0524C54.9279 15.1813 54.8309 15.4228 54.6854 15.5677C54.265 15.9864 53.9739 16.7271 54.0871 17.0814C54.1518 17.2585 54.1194 17.3873 54.0224 17.3873C53.9254 17.3873 53.8446 17.5806 53.8446 17.806C53.8446 18.0314 53.7799 18.1764 53.6829 18.112C53.5858 18.0636 53.5212 18.1764 53.5212 18.3857C53.5212 18.595 53.3756 18.8527 53.1816 18.9654C53.0037 19.0781 52.8906 19.2713 52.9391 19.4002C52.9876 19.529 52.9229 19.7222 52.8097 19.851C52.5833 20.0765 52.3085 21.0265 52.3731 21.3808C52.3893 21.4935 52.2923 21.6223 52.1468 21.6707C52.0174 21.719 51.9042 21.9444 51.9042 22.1376C51.9042 22.347 51.791 22.6368 51.6455 22.7817C51.5 22.9267 51.4191 23.0877 51.4838 23.136C51.5323 23.2004 51.4838 23.3453 51.3544 23.4903C51.0634 23.8445 50.7562 24.7946 50.8694 24.9878C50.934 25.0844 50.8694 25.2132 50.7562 25.2938C50.546 25.4226 50.5136 25.487 50.4651 25.9862C50.4651 26.115 50.3358 26.3404 50.1902 26.4693C50.0609 26.6142 50.0124 26.7269 50.1256 26.7269C50.2226 26.7269 50.1417 26.8879 49.9639 27.0812C49.7698 27.2905 49.6566 27.5803 49.689 27.7253C49.7375 27.8863 49.7052 27.9829 49.6081 27.9668C49.4464 27.9346 48.9937 29.0779 49.1231 29.2067C49.1716 29.255 49.1231 29.3839 49.0422 29.4966C48.9452 29.6093 48.832 29.9797 48.7673 30.3017C48.7026 30.6399 48.5733 30.9136 48.4763 30.9136C48.3954 30.9136 48.3469 31.0102 48.3954 31.139C48.4439 31.2518 48.3469 31.4611 48.1852 31.606C48.0074 31.7509 47.9103 32.0086 47.9427 32.2018C47.975 32.379 47.9427 32.4917 47.878 32.4434C47.7648 32.379 47.6355 32.701 47.4414 33.5706C47.4253 33.6511 47.4091 33.8604 47.3929 34.0214C47.3929 34.1825 47.2959 34.263 47.1989 34.2147C47.1019 34.1503 47.0372 34.1986 47.0695 34.3113C47.118 34.7461 47.0534 35.0842 46.8593 35.2935C46.7461 35.4063 46.6329 35.6478 46.6006 35.8249C46.5683 36.0021 46.4551 36.2114 46.3581 36.308C46.0993 36.5174 45.7436 37.5157 45.8568 37.6928C45.9053 37.7734 45.873 37.8378 45.7921 37.8378C45.6466 37.8378 45.2424 38.6429 45.1939 39.0455C45.1777 39.126 45.113 39.3675 45.0483 39.5769C44.9513 39.8506 44.8705 39.8989 44.7249 39.7862C44.6118 39.6896 44.4501 39.6735 44.3854 39.7379C44.3045 39.8023 44.3207 39.7057 44.3854 39.5286C44.4662 39.3514 44.5147 38.8039 44.5147 38.3209C44.5147 37.8378 44.5794 37.3869 44.6603 37.3386C44.7573 37.2742 44.7573 37.1132 44.6441 36.8877C44.4986 36.6462 44.4986 36.469 44.6279 36.2114C44.7573 35.9699 44.7573 35.8249 44.6279 35.6639C44.5147 35.5351 44.5147 35.4063 44.6118 35.358C44.7734 35.2452 44.7411 34.2147 44.5471 33.7477C44.4501 33.5384 44.4824 33.4095 44.5956 33.3612C44.7088 33.329 44.7249 33.1841 44.6441 32.9587C44.5632 32.7654 44.5632 32.4595 44.6441 32.2823C44.822 31.8154 44.822 31.6865 44.5956 31.8154C44.4662 31.8959 44.4501 31.8476 44.5309 31.6221C44.6118 31.4611 44.6926 30.9941 44.7249 30.5916C44.7573 30.189 44.822 29.7864 44.8543 29.6737C44.9028 29.5771 44.8866 29.4483 44.822 29.4C44.6603 29.2389 44.6118 28.6592 44.7734 28.6592C44.8381 28.6592 44.8866 28.4016 44.8705 28.0956C44.8381 27.7897 44.8866 27.4837 44.9675 27.4354C45.0483 27.3871 45.113 27.2744 45.113 27.1939C45.113 27.0973 45.0483 27.0812 44.9513 27.1295C44.7411 27.2583 44.7411 27.1617 44.9675 26.6625C45.113 26.3565 45.113 26.1955 44.9675 26.0184C44.822 25.8413 44.822 25.7768 44.9675 25.7285C45.0807 25.6963 45.1453 25.3099 45.1453 24.7463C45.1453 24.2471 45.1939 23.8606 45.2747 23.9089C45.3394 23.9572 45.3717 23.6996 45.3394 23.3453C45.307 22.9911 45.3556 22.7012 45.4364 22.7012C45.5334 22.7012 45.5981 22.5885 45.5981 22.4436C45.5981 22.3148 45.5334 22.2342 45.4526 22.2826C45.2909 22.3792 45.2909 21.8639 45.4526 21.7351C45.5172 21.6868 45.5819 21.3325 45.6143 20.9299L45.6789 20.2053L44.8381 20.157C44.2722 20.1248 43.9811 20.1731 43.9811 20.3019C43.9811 20.3985 43.868 20.4468 43.7386 20.3824C43.4961 20.3019 42.9301 21.1232 43.1242 21.3003C43.1727 21.3486 43.0595 21.6384 42.8816 21.9283C42.7037 22.2181 42.3965 22.9267 42.2025 23.5064C42.0085 24.0861 41.7659 24.6336 41.6851 24.7463C41.6042 24.859 41.5719 25.02 41.6366 25.1166C41.7012 25.2132 41.6366 25.3904 41.4749 25.487C41.3293 25.5997 41.2 25.7929 41.1676 25.9218C41.0868 26.421 40.8766 26.8879 40.7472 26.8879C40.6826 26.8879 40.5694 27.0006 40.5209 27.1456C40.4724 27.2744 40.4885 27.3388 40.5855 27.2905C40.8928 27.0973 40.7472 27.5159 40.3915 27.8541C40.1975 28.0312 40.1005 28.1761 40.1813 28.1761C40.246 28.1761 40.1975 28.305 40.0519 28.466C39.8902 28.627 39.8094 28.8042 39.8579 28.8525C39.9064 28.9008 39.8417 29.0296 39.6962 29.1423C39.5669 29.255 39.4537 29.561 39.4537 29.8186C39.4537 30.1085 39.389 30.2534 39.2758 30.1729C39.1788 30.1085 39.1141 30.189 39.1464 30.3661C39.2111 30.7687 38.9848 31.3967 38.7907 31.3967C38.6937 31.3967 38.6775 31.4611 38.726 31.5577C38.7745 31.6382 38.6775 31.8315 38.4835 31.9925C38.3056 32.1535 38.1601 32.379 38.1601 32.5239C38.1439 32.7171 38.1116 32.701 37.9822 32.4756C37.8852 32.3306 37.8691 32.0569 37.9176 31.8798C37.9661 31.7026 37.9337 31.4289 37.8529 31.2518C37.7235 31.0263 37.7397 30.8975 37.9176 30.7526C38.0469 30.6399 38.1116 30.4788 38.0469 30.3661C37.8691 30.0924 37.8367 29.7381 37.9984 29.5449C38.0631 29.4644 38.1116 29.1906 38.0793 28.933C38.0469 28.6914 38.0793 28.4982 38.1439 28.4982C38.2571 28.4982 38.2571 26.3887 38.1601 26.276C38.0469 26.1633 38.0954 25.8252 38.241 25.7124C38.3541 25.6319 38.3541 25.5675 38.2248 25.4709C38.1439 25.4065 38.0631 25.181 38.0631 24.9556C38.0631 24.7302 38.1439 24.5047 38.2248 24.4242C38.3541 24.3437 38.3541 24.2793 38.241 24.1827C38.0954 24.0861 38.0469 23.7479 38.1601 23.6191C38.2895 23.4742 38.2571 22.202 38.1278 22.1215C38.0308 22.0571 38.0469 21.9605 38.1763 21.88C38.3218 21.7834 38.338 21.6868 38.241 21.6062C38.0308 21.4613 37.9337 20.9299 38.1116 20.9299C38.1924 20.9299 38.241 20.6723 38.241 20.3663C38.2248 20.0604 38.2733 19.8027 38.338 19.8027C38.4188 19.8027 38.4512 19.6095 38.4512 19.3519C38.435 19.1103 38.5158 18.4018 38.629 17.7577C38.7422 17.1136 38.7907 16.5178 38.7422 16.4373C38.6775 16.3568 38.2571 16.2118 37.8044 16.0991C36.7857 15.8898 36.5593 16.083 36.5108 17.1297C36.4623 18.112 36.43 18.4018 36.3329 18.6755C36.2844 18.8044 36.2521 19.0298 36.2521 19.1586C36.2359 19.7061 36.0904 20.624 35.9934 20.7206C35.9449 20.7689 35.8964 20.946 35.8964 21.1071C35.8964 21.252 35.8317 21.413 35.7508 21.4452C35.67 21.4613 35.5568 21.88 35.5083 22.3631C35.4598 22.8462 35.3628 23.2809 35.2819 23.3292C35.2173 23.3775 35.1687 23.5869 35.1849 23.7962C35.2011 24.0055 35.1041 24.2793 34.9585 24.4081C34.8292 24.5369 34.7645 24.698 34.813 24.7463C34.8777 24.7946 34.813 25.0361 34.6837 25.2777C34.5543 25.5192 34.4896 25.7607 34.522 25.7929C34.5705 25.8252 34.4573 26.1472 34.2956 26.5015C34.1016 26.8879 34.0207 27.3066 34.0692 27.5965C34.1501 27.9507 34.1177 28.0312 33.956 27.9346C33.7943 27.838 33.762 27.8702 33.8267 28.0473C33.8913 28.1761 33.7943 28.5143 33.6165 28.8042C33.4548 29.0779 33.3901 29.3033 33.4871 29.3033C33.5841 29.3033 33.5033 29.5127 33.3092 29.7864C32.9697 30.2534 32.808 30.7204 32.7757 31.2679C32.7595 31.4289 32.6948 31.5577 32.6301 31.5577C32.5654 31.5577 32.5008 31.7026 32.5008 31.8637C32.5008 32.0408 32.4361 32.234 32.3391 32.2823C32.2582 32.3306 32.1774 32.6205 32.1774 32.9264C32.1774 33.2163 32.0804 33.5706 31.951 33.6833C31.6438 34.0053 31.191 34.9071 31.2395 35.1486C31.2557 35.2452 31.1587 35.5512 31.0132 35.8249C30.8838 36.0826 30.7221 36.5818 30.6574 36.9199C30.5766 37.3064 30.4796 37.4835 30.3664 37.4191C30.2532 37.3386 30.2209 37.3869 30.2694 37.5479C30.3987 37.87 30.1562 38.2403 29.7681 38.2564C29.5741 38.2725 29.4771 38.192 29.5094 38.0149C29.5417 37.87 29.5741 37.7573 29.5903 37.7573C29.6064 37.7573 29.6388 37.3064 29.6549 36.7428C29.6873 36.1953 29.6549 35.7444 29.6064 35.7444C29.5417 35.7444 29.4932 35.5995 29.4771 35.4224C29.4609 35.2452 29.5094 35.1003 29.5903 35.1003C29.6873 35.1003 29.6711 34.9071 29.5741 34.6494C29.3639 34.1019 29.3639 34.118 29.6226 33.9409C29.7843 33.8282 29.7843 33.7638 29.6388 33.7155C29.4932 33.6511 29.4932 33.5061 29.6064 33.2324C29.7034 32.9587 29.6873 32.7171 29.5903 32.5078C29.4771 32.3145 29.4771 32.2018 29.5741 32.2018C29.6549 32.2018 29.7034 31.8154 29.6711 31.3162C29.6388 30.8331 29.6711 30.4305 29.7519 30.4305C29.8328 30.4305 29.8328 30.2051 29.7519 29.9474C29.6711 29.6737 29.6064 29.4161 29.5903 29.3516C29.5741 29.3033 29.6549 29.1906 29.7843 29.1262C29.9136 29.0296 29.9298 28.933 29.8328 28.8525C29.6549 28.7236 29.6226 28.3372 29.7843 28.0956C29.8328 27.999 29.8651 27.6287 29.8328 27.2422C29.8166 26.8718 29.8651 26.5659 29.9298 26.5659C30.0107 26.5659 30.0268 26.1472 29.9783 25.6319C29.9298 25.1327 29.8975 24.6336 29.8975 24.553C29.9136 24.4564 29.946 23.9733 29.9783 23.4581C30.0107 22.9428 29.9783 22.5402 29.8813 22.5402C29.8005 22.5402 29.7843 22.4436 29.8651 22.347C30.0268 22.0732 30.0753 20.9299 29.9136 20.9299C29.7358 20.9299 29.8005 20.2214 29.9945 20.0765C30.1077 20.0121 30.0915 19.9155 29.9783 19.8349C29.8975 19.7705 29.8166 19.5451 29.8166 19.3197C29.8166 19.0942 29.8975 18.8688 29.9783 18.7883C30.0915 18.7239 30.1077 18.6272 29.9945 18.5467C29.7843 18.4018 29.7196 18.0314 29.8975 18.0314C30.0268 18.0314 30.0268 17.645 29.9298 16.4856C29.9136 16.389 29.5256 16.2279 29.0728 16.1152C28.3129 15.9542 28.1997 15.9542 28.0218 16.1957C27.9086 16.3407 27.8601 16.5339 27.9248 16.6305C27.9733 16.7271 27.941 16.7432 27.8601 16.6949C27.7631 16.6305 27.6337 16.7593 27.5852 16.9848C27.5367 17.1941 27.3265 17.5323 27.1325 17.7094C26.9384 17.8865 26.8576 18.0314 26.9546 18.0314C27.0516 18.0314 26.8414 18.3374 26.5019 18.7078C26.1623 19.0781 25.9198 19.4324 25.9521 19.4968C26.0006 19.5612 25.9198 19.69 25.7904 19.8027C25.6611 19.9155 25.5964 20.0604 25.6449 20.1409C25.7419 20.318 25.5155 20.7367 25.3053 20.7528C25.2245 20.7689 25.1275 20.8333 25.1275 20.9299C25.1113 21.0104 25.0951 21.1554 25.079 21.2198C25.079 21.3003 24.7071 21.7512 24.2543 22.2181C23.8177 22.6851 23.4458 23.1682 23.4458 23.297C23.4458 23.4097 23.3973 23.4903 23.3326 23.4903C22.9769 23.4258 22.8314 23.5386 22.7344 23.9089C22.6374 24.3115 22.2655 24.4242 21.8612 24.1666C21.6833 24.07 21.6995 23.9894 21.9097 23.764C22.0714 23.6191 22.1523 23.442 22.0876 23.3936C22.0391 23.3292 22.0876 23.136 22.2008 22.9589C22.3301 22.7656 22.5242 22.3309 22.6374 21.9766C22.8314 21.413 22.8799 21.1393 22.9446 20.5596C22.9607 20.4791 23.0416 20.4791 23.1224 20.5274C23.2195 20.5757 23.2841 20.5757 23.3003 20.4952C23.3003 20.4307 23.3326 20.1248 23.3488 19.8349C23.365 19.529 23.4782 19.2391 23.6075 19.1586C23.7207 19.0942 23.7692 18.9654 23.7045 18.8688C23.656 18.7883 23.7369 18.5467 23.8986 18.3374C24.3513 17.7255 24.6262 17.1136 24.513 16.9365C24.4645 16.8559 24.5292 16.7432 24.6585 16.6788C24.7879 16.6305 24.9011 16.4534 24.9011 16.2923C24.9011 16.1313 24.9496 15.9381 25.0304 15.8737C25.0951 15.8093 25.1436 15.5516 25.1436 15.3262C25.1436 15.0685 25.2245 14.9075 25.3377 14.9236C25.5317 14.9719 26.8899 12.4116 26.9384 11.9124C26.9546 11.7836 27.0193 11.4776 27.084 11.2361C27.181 10.8496 27.1325 10.7691 26.7444 10.6081C26.4857 10.5115 26.1461 10.3665 25.9844 10.2699C25.7581 10.1572 25.5964 10.2216 25.273 10.5276C25.0466 10.753 24.7879 10.9462 24.7071 10.9462C24.6262 10.9462 24.61 11.0107 24.6585 11.1073C24.7071 11.1878 24.6909 11.2683 24.5939 11.2683C24.3352 11.2683 23.2841 12.2345 23.2841 12.476C23.2841 12.5887 23.1871 12.7175 23.0578 12.7659C22.9446 12.8142 22.799 13.0718 22.7505 13.3456C22.6859 13.6193 22.5888 13.8286 22.508 13.8125C22.3786 13.7642 21.4246 14.6338 21.4246 14.8109C21.4246 14.8592 21.2468 15.0846 21.0204 15.3101C20.0017 16.3568 19.7107 16.7432 19.8077 16.9043C19.8562 16.9848 19.8077 17.0653 19.6622 17.0653C19.5328 17.0653 19.452 16.9526 19.4843 16.7754C19.5166 16.6305 19.549 16.4212 19.549 16.3084C19.5651 16.1957 19.6783 16.1474 19.8239 16.2118C20.0341 16.2923 20.0664 16.244 19.9855 15.9703C19.9047 15.7449 19.9694 15.5677 20.2281 15.4067C20.406 15.2618 20.5191 15.0846 20.4706 15.0041C20.4221 14.9075 20.5838 14.6338 20.8425 14.3761C21.3923 13.8125 22.6374 11.848 22.6374 11.5259C22.6374 11.1556 22.8152 10.7852 22.9607 10.8657C23.0739 10.9301 23.656 9.64193 23.7045 9.25546C23.7045 9.15885 23.8177 8.869 23.9309 8.61135C24.0441 8.33761 24.1573 7.90283 24.1896 7.61299C24.2543 7.16211 24.1896 7.04939 23.7854 6.84006C23.0578 6.46969 22.4271 6.59852 21.9259 7.19432C21.6833 7.48416 21.5378 7.72571 21.6187 7.72571C21.6833 7.72571 21.6187 7.83842 21.457 7.96725C20.9557 8.33761 20.3898 9.19105 20.4868 9.43259C20.5353 9.57752 20.4868 9.65803 20.3574 9.62583C20.2281 9.59362 20.1149 9.69024 20.1149 9.81906C20.0987 9.94788 20.0826 10.1572 20.0664 10.2538C20.0664 10.3665 19.9532 10.4471 19.8562 10.4149C19.6622 10.3827 19.6298 10.4632 19.5813 11.1395C19.5813 11.3005 19.4681 11.4293 19.3388 11.4293C19.2094 11.4293 19.0639 11.6065 19.0154 11.8319C18.9507 12.0573 18.8052 12.2345 18.692 12.2345C18.5626 12.2345 18.4333 12.3633 18.3686 12.5082C18.2716 12.8142 17.932 13.3939 17.7703 13.5227C17.7056 13.571 17.6248 13.7642 17.5601 13.9575C17.4954 14.1668 17.3337 14.3278 17.2044 14.3278C17.075 14.3278 16.978 14.4083 16.978 14.5049C16.978 14.7304 16.5576 15.133 16.3312 15.133C16.218 15.133 16.1695 15.2457 16.2342 15.3745C16.2827 15.5033 16.2504 15.616 16.1695 15.616C15.8947 15.616 14.876 16.6144 14.9892 16.7915C15.0538 16.8881 14.9568 16.9204 14.7466 16.872C14.5202 16.8076 14.3909 16.872 14.3424 17.0814C14.2939 17.2907 14.116 17.3873 13.8411 17.3873C13.6148 17.3873 13.4207 17.4356 13.4207 17.5001C13.4369 17.7738 13.8735 18.1925 14.1322 18.1925C14.2939 18.1925 14.3585 18.273 14.31 18.3535C14.2454 18.4501 14.1322 18.4662 14.0352 18.4179C13.9543 18.3535 14.0028 18.4984 14.1483 18.74C14.4556 19.2069 14.7143 19.1586 14.7304 18.6272C14.7304 18.434 14.779 18.3535 14.8113 18.4662C14.9083 18.6917 16.024 18.3696 16.0402 18.112C16.0564 17.8865 16.5414 17.5645 16.687 17.645C16.7678 17.6933 16.8163 17.6289 16.8163 17.5162C16.8163 17.3551 16.8648 17.3712 16.978 17.5484C17.0912 17.7255 17.0265 17.8221 16.7355 17.9509C16.2342 18.1442 15.7006 19.1586 15.7491 19.8027C15.7653 20.0765 15.733 20.2858 15.6683 20.2858C15.4581 20.2858 15.1185 21.1393 15.1185 21.6545C15.1185 21.9122 14.973 22.2987 14.7951 22.508C14.6173 22.7173 14.4394 23.0716 14.3909 23.3131C14.31 23.6835 14.4071 23.8284 14.9892 24.2632C15.3611 24.553 15.7168 24.7946 15.7653 24.7946C16.0078 24.7946 16.3151 24.3115 16.2342 24.0861C16.1695 23.9089 16.218 23.8284 16.4121 23.8284C16.7031 23.8284 16.9457 23.603 17.2367 23.1038C17.3337 22.9267 17.4793 22.8139 17.5439 22.83C17.738 22.9106 17.9482 22.4919 17.8673 22.2181C17.8188 22.0571 17.9482 21.9122 18.2716 21.7834C18.5788 21.6707 18.7567 21.4935 18.7567 21.2842C18.7567 21.1071 18.8698 20.9138 19.0154 20.8655C19.1447 20.8172 19.2256 20.7045 19.1609 20.624C19.1124 20.5435 19.1447 20.4307 19.2256 20.3824C19.3064 20.3341 19.3388 20.157 19.2903 19.9799C19.2417 19.7544 19.3226 19.6578 19.6783 19.5773C20.2119 19.4646 20.8425 18.7078 20.891 18.1442C20.9072 17.9026 21.1336 17.6128 21.457 17.3873C21.748 17.1941 21.9906 16.9204 21.9906 16.8076C21.9906 16.6788 22.0714 16.5822 22.1684 16.5822C22.2655 16.5822 22.2978 16.4534 22.2493 16.2923C22.1684 16.0508 22.2331 16.0025 22.5888 16.0347C22.8476 16.0508 23.0578 16.0669 23.0739 16.083C23.1063 16.083 22.9769 16.3407 22.8152 16.6305C22.6535 16.9204 22.4595 17.4034 22.3948 17.6772C22.3463 17.967 22.2169 18.2408 22.1361 18.2891C21.8936 18.434 21.6672 19.1264 21.6348 19.8188C21.6187 20.157 21.554 20.4468 21.4893 20.4468C21.3114 20.4468 20.8425 21.4291 20.9396 21.574C20.9881 21.6545 20.9234 21.7351 20.8264 21.7834C20.6485 21.8317 20.6485 21.9283 20.8264 22.202C20.9719 22.4436 20.9719 22.5402 20.8425 22.5402C20.3089 22.5402 19.646 24.2793 19.9694 24.7946C20.0341 24.8912 19.9694 25.0683 19.84 25.1649C19.6945 25.2777 19.4843 25.7607 19.3549 26.276L19.1124 27.1778L19.743 27.7897C20.503 28.5304 20.8102 28.4338 21.1659 27.3871C21.2953 26.9684 21.457 26.743 21.5863 26.7752C21.6995 26.8235 21.9744 26.6786 22.2169 26.4532C22.4595 26.2277 22.7505 26.0345 22.8476 26.0184C23.2033 25.9701 23.4458 25.7446 23.4458 25.4709C23.4458 25.2938 23.5752 25.181 23.7854 25.1649C24.1411 25.1327 24.4968 24.8912 24.4968 24.6658C24.4968 24.6013 24.7071 24.3437 24.9496 24.0861C25.1921 23.8284 25.3538 23.5064 25.3215 23.3936C25.273 23.2809 25.3377 23.1843 25.467 23.1843C25.5964 23.1843 25.7096 23.1199 25.7096 23.0394C25.7096 22.9589 25.8389 22.8462 26.0006 22.7978C26.3402 22.6851 26.8414 21.7995 26.8899 21.252C26.9061 21.0265 27.084 20.7206 27.278 20.5596C27.4882 20.3985 27.6499 20.157 27.6499 20.0282C27.6499 19.7544 27.9086 19.7383 28.0865 19.996C28.1512 20.1087 28.2158 21.252 28.2158 22.5241C28.2158 24.3437 28.2644 24.859 28.4422 24.9234C28.6039 24.9717 28.6201 25.02 28.4584 25.1166C28.2644 25.2455 28.1997 25.5836 28.0703 27.8541C27.9248 29.9313 27.9733 30.7526 28.1835 30.7526C28.2644 30.7526 28.2482 30.8653 28.1188 31.0102C27.8116 31.3806 27.7631 32.8298 28.0541 32.9426C28.2482 33.0231 28.2482 33.0875 28.038 33.4256C27.6984 33.9409 27.6499 34.7622 27.9248 35.3096C28.0541 35.5512 28.0865 35.841 28.0218 35.9538C27.8116 36.308 27.8439 37.3708 28.0865 37.6123C28.2805 37.8056 28.2805 37.8539 28.0865 37.9183C27.8601 38.0149 27.8116 38.192 27.7793 39.126C27.7631 39.8506 27.8439 40.1244 28.1188 40.3498C28.3129 40.4947 28.2967 40.543 28.0541 40.6235C27.9086 40.688 27.8116 40.8329 27.8601 40.9456C27.9086 41.0905 27.7631 41.1227 27.3103 41.0905C26.8899 41.0422 26.5019 41.1388 26.0491 41.3965C25.6772 41.5897 25.3862 41.8151 25.3862 41.8635C25.3862 41.9279 25.2245 41.9762 25.0304 41.9601C24.8202 41.944 24.4807 42.0245 24.2543 42.1372C24.0279 42.2499 23.6075 42.3465 23.3326 42.3465C23.0416 42.3465 22.799 42.4109 22.799 42.5076C22.799 42.5881 22.6535 42.6686 22.4757 42.6686C22.2978 42.6686 21.8612 42.8457 21.5217 43.0551C21.1821 43.2805 20.8587 43.4093 20.794 43.361C20.7455 43.3127 20.3574 43.3932 19.937 43.5703C19.5005 43.7314 19.1286 43.8763 19.0801 43.8763C19.0315 43.8763 18.9184 43.9407 18.8213 44.0051C18.7082 44.0534 18.4656 43.9729 18.2554 43.8119C18.0452 43.6509 17.7218 43.4737 17.5439 43.4093C17.3661 43.361 17.1235 43.1034 17.0104 42.8296C16.881 42.572 16.5899 42.2338 16.3312 42.0889C16.0564 41.9118 15.8138 41.5897 15.7006 41.2032C15.5874 40.849 15.4581 40.5752 15.3934 40.5752C15.1994 40.5752 14.2292 39.6574 14.2292 39.4641C14.2292 39.2387 13.8735 38.5946 13.6633 38.4497C13.5824 38.3853 13.5016 38.2403 13.5016 38.1276C13.5016 38.0149 13.356 37.8539 13.1782 37.7573C12.9841 37.6606 12.8386 37.4191 12.8224 37.1454C12.8063 36.9038 12.6769 36.5818 12.5314 36.4368C12.3859 36.2919 12.1918 36.0021 12.111 35.7927C12.0463 35.5995 11.8684 35.4224 11.7553 35.4224C11.6097 35.4224 11.5612 35.2774 11.5936 34.9715C11.6906 34.3757 11.2378 33.3773 10.8336 33.2485C10.6072 33.168 10.5264 33.0553 10.591 32.862C10.6396 32.701 10.6072 32.3951 10.5264 32.1857C10.4455 31.9764 10.397 31.7509 10.4132 31.7026C10.4132 31.6543 10.3162 31.4772 10.1868 31.3162C10.0575 31.1551 9.9281 30.8331 9.9281 30.6077C9.87959 29.8508 9.66938 29.1745 9.34599 28.8364C9.1843 28.6431 9.07111 28.4338 9.11962 28.3694C9.24898 28.1439 8.89325 26.8074 8.63453 26.6142C8.47284 26.5015 8.45667 26.4048 8.55368 26.3243C8.74772 26.2116 8.63453 24.6174 8.42433 24.4725C8.31114 24.4081 8.21412 23.8445 8.00392 22.1376C7.97158 21.8639 7.93924 21.6223 7.92307 21.574C7.9069 21.5257 7.9069 21.3325 7.92307 21.1393C7.92307 20.946 7.87456 20.5113 7.77755 20.1892C7.68053 19.8671 7.66436 19.5129 7.72904 19.4163C7.79372 19.3197 7.84223 18.6272 7.85839 17.8543C7.85839 17.0975 7.92307 16.2762 8.00392 16.0025C8.19796 15.294 8.14945 14.521 7.9069 14.2151C7.72904 14.0058 7.72904 13.9414 7.89073 13.893C7.98775 13.8447 8.08477 13.6837 8.08477 13.5227C8.08477 13.3617 8.16562 13.1684 8.26263 13.104C8.35965 13.0557 8.40816 12.8625 8.35965 12.7014C8.31114 12.5404 8.35965 12.3794 8.47284 12.3472C8.58602 12.2989 8.55368 12.1862 8.35965 12.0573C8.10094 11.848 8.10094 11.8158 8.48901 11.5259C8.71538 11.3649 8.89325 11.0912 8.89325 10.9301C8.89325 10.7691 8.97409 10.592 9.05494 10.5437C9.15196 10.4793 9.20047 10.1894 9.15196 9.88347C9.07111 9.4648 9.11962 9.33598 9.29748 9.33598C9.42684 9.33598 9.54003 9.22326 9.54003 9.09444C9.54003 8.96561 9.6047 8.85289 9.68555 8.85289C9.7664 8.85289 9.87959 8.56305 9.94427 8.20879C10.0089 7.85453 10.1383 7.56468 10.2191 7.56468C10.5749 7.56468 11.4804 6.35697 11.4804 5.9061C11.4804 5.63235 11.545 5.48743 11.6582 5.55184C11.7391 5.61625 11.9978 5.47133 12.208 5.24589C12.4182 5.02045 12.7093 4.82722 12.8386 4.82722C13.1135 4.82722 13.4692 4.27973 13.3075 4.1187C13.259 4.07039 13.356 4.02208 13.5501 4.02208C14.0352 4.02208 14.4071 3.84495 14.2939 3.66782C14.2454 3.58731 14.3424 3.47459 14.5364 3.42628C14.7304 3.37797 14.876 3.28136 14.876 3.20084C14.876 3.12033 14.9892 3.05592 15.1185 3.05592C15.264 3.05592 15.3611 2.91099 15.3611 2.71776C15.3611 2.47622 15.4257 2.41181 15.5713 2.50843C15.9755 2.79828 17.0912 2.50843 17.5601 1.99314C17.7542 1.7838 17.9482 1.65498 17.9967 1.70329C18.0452 1.7677 18.4333 1.83211 18.8375 1.84822C19.3873 1.89652 19.6136 1.84822 19.6783 1.65498C19.7268 1.52616 19.8239 1.47785 19.8724 1.55837C19.9209 1.63888 20.1149 1.7677 20.2928 1.83211ZM13.6794 3.45849C13.6956 3.58731 13.6471 3.66782 13.5662 3.60341C13.4854 3.5551 13.4207 3.41018 13.4207 3.26525C13.4207 2.9593 13.6309 3.12033 13.6794 3.45849ZM12.9841 3.92547C13.0488 4.08649 13.0003 4.1348 12.8386 4.07039C12.5961 3.97377 12.5314 3.70003 12.7578 3.70003C12.8386 3.70003 12.9356 3.81275 12.9841 3.92547ZM83.1114 4.18311C83.1114 4.26362 83.0467 4.34414 82.9659 4.34414C82.8689 4.34414 82.7557 4.26362 82.7072 4.18311C82.6587 4.08649 82.7234 4.02208 82.8527 4.02208C82.9982 4.02208 83.1114 4.08649 83.1114 4.18311ZM64.4679 7.03329C64.6296 7.0977 64.6943 7.0816 64.6135 6.95278C64.5488 6.84006 64.6296 6.79175 64.8398 6.80785C65.0177 6.82395 65.1632 6.87226 65.1632 6.93667C65.1632 6.98498 65.6483 7.01719 66.2628 7.00108C66.861 6.96888 67.3461 6.93667 67.3461 6.92057C67.3461 6.90447 67.4755 6.87226 67.6372 6.84006C67.7827 6.80785 67.9121 6.84006 67.9121 6.88836C67.9121 6.95278 68.1546 7.00108 68.4295 6.98498C68.7205 6.96888 69.0116 7.04939 69.0924 7.14601C69.1733 7.27483 69.2541 7.25873 69.3511 7.0816C69.4967 6.87226 69.529 6.88836 69.6099 7.0977C69.6584 7.24262 70.0141 7.45196 70.386 7.56468C70.7579 7.66129 71.1783 7.80622 71.3077 7.87063C71.437 7.95114 71.6796 7.98335 71.8413 7.95114C71.9868 7.93504 72.1161 8.01555 72.1161 8.14438C72.1161 8.2732 72.1646 8.35371 72.2455 8.35371C72.5527 8.3054 72.7791 8.40202 73.0863 8.72407C73.3127 8.96561 73.4097 8.99782 73.4097 8.83679C73.4097 8.70797 73.5552 8.83679 73.7331 9.12664C73.8948 9.41649 74.2343 9.75465 74.4607 9.91567C74.6871 10.0606 74.865 10.2699 74.865 10.3827C74.865 10.4954 74.9781 10.6242 75.1075 10.6886C75.253 10.7369 75.3015 10.8818 75.2369 11.0429C75.1883 11.1878 75.2369 11.3649 75.3662 11.4293C75.5279 11.542 75.4471 11.7031 74.9781 12.154C74.6548 12.476 74.3799 12.782 74.3799 12.8625C74.3799 12.9269 74.1373 13.0718 73.8463 13.1845C73.5552 13.2972 73.1672 13.6032 72.9893 13.8608C72.8276 14.1185 72.5527 14.3278 72.4072 14.3278C71.8898 14.3278 70.9843 14.8914 70.7902 15.3262C70.6447 15.6482 70.4992 15.7449 70.3051 15.6804C70.1435 15.6321 70.0141 15.6643 70.0141 15.761C70.0141 15.8576 69.8847 15.9381 69.723 15.9381C69.5613 15.9381 69.3673 15.9864 69.3026 16.0508C68.8337 16.5178 68.5588 15.9864 68.6559 14.7304C68.672 14.2795 68.6235 14.0058 68.5265 14.0058C68.4295 14.0058 68.3971 13.9575 68.4456 13.893C68.5103 13.8447 68.478 13.6998 68.381 13.571C68.2354 13.41 68.2516 13.3617 68.3971 13.3617C68.5265 13.3617 68.5427 13.265 68.478 13.0718C68.4133 12.9269 68.3648 12.0251 68.381 11.059L68.4133 9.33598H67.3623H66.2951L66.3921 9.98008C66.473 10.4471 66.4083 10.8979 66.1496 11.5904C65.9555 12.1217 65.8262 12.6209 65.8747 12.7014C65.9232 12.782 65.8585 12.8786 65.7292 12.943C65.5998 12.9913 65.4866 13.1362 65.4866 13.2811C65.4866 13.41 65.4219 13.5227 65.3249 13.5227C65.2441 13.5227 65.1632 13.6354 65.1632 13.7642C65.1632 14.1024 64.8075 14.8109 64.6781 14.7304C64.6135 14.6821 64.565 14.8431 64.565 15.0846C64.565 15.3262 64.4679 15.5516 64.3709 15.5838C64.2739 15.616 64.1122 15.7932 64.0152 15.9703C63.8858 16.2118 63.8858 16.2762 64.0152 16.1957C64.1284 16.1313 64.1607 16.1796 64.096 16.3246C64.0475 16.4534 63.902 16.5983 63.7727 16.6466C63.6433 16.6949 63.5463 16.8398 63.5463 16.9526C63.5463 17.0814 63.4331 17.178 63.3037 17.178C63.1582 17.178 63.0774 17.0975 63.1097 17.0009C63.3846 16.2762 63.4169 16.0669 63.2067 16.1796C63.0612 16.2762 63.045 16.2279 63.142 16.0025C63.3361 15.5516 63.3522 14.3278 63.1744 14.2151C63.0935 14.1668 63.1097 14.0702 63.2229 14.0058C63.3522 13.9252 63.3684 13.7964 63.2876 13.6676C63.0774 13.3294 63.0612 13.0396 63.2552 13.0396C63.3522 13.0396 63.3684 12.9108 63.3037 12.7498C63.1259 12.315 63.1259 11.848 63.3037 11.7031C63.4169 11.6065 63.4008 11.542 63.2552 11.4776C63.1582 11.4454 63.1097 11.3327 63.1582 11.2522C63.3199 10.9785 63.3522 9.65803 63.1906 9.56141C63.1097 9.497 63.1097 9.40039 63.2067 9.28767C63.2876 9.17495 63.3522 8.91731 63.3684 8.69187C63.3684 8.06386 63.5301 7.0816 63.6433 6.90447C63.6918 6.80785 63.8373 6.77565 63.9667 6.82395C64.096 6.87226 64.3062 6.96888 64.4679 7.03329ZM76.3849 10.8657C76.3202 10.9946 76.2232 11.1073 76.1423 11.1073C76.0615 11.1073 75.9968 10.9946 75.9968 10.8657C75.9968 10.7369 76.11 10.6242 76.2394 10.6242C76.3849 10.6242 76.4334 10.7208 76.3849 10.8657ZM76.0777 14.3922C76.0938 14.4888 76.013 14.6177 75.916 14.6821C75.8028 14.7787 75.8028 14.8431 75.916 14.9236C76.11 15.0685 76.1262 15.3745 75.9645 15.5355C75.8998 15.5999 75.916 15.7932 76.013 15.9542C76.0938 16.1313 76.11 16.2601 76.0292 16.2601C75.9645 16.2601 75.8998 16.55 75.8836 16.9043C75.8836 17.2585 75.916 17.5484 75.9807 17.5484C76.0453 17.5484 76.11 17.6611 76.11 17.7899C76.11 17.9187 76.0615 18.0314 76.013 18.0314C75.9483 18.0314 75.8836 18.2247 75.8675 18.4501C75.8513 18.6755 75.7866 18.9493 75.7219 19.0459C75.6573 19.1586 75.5926 19.3519 75.5602 19.4807C75.5441 19.6095 75.4471 19.7383 75.3662 19.7705C75.2692 19.8027 75.1883 19.9638 75.1883 20.1409C75.1883 20.318 75.0428 20.7367 74.8811 21.0749C74.7033 21.413 74.5901 21.8156 74.6062 21.9927C74.6386 22.1537 74.5739 22.347 74.4769 22.4114C74.3799 22.4758 74.299 22.5885 74.299 22.6529C74.2829 22.7173 74.1858 22.9589 74.0565 23.1843C73.9271 23.4097 73.8139 23.7157 73.7816 23.8606C73.7654 24.0055 73.5552 24.392 73.3288 24.7302C73.1025 25.0522 72.9246 25.4226 72.9246 25.5353C72.9246 25.6641 72.8599 25.7607 72.7953 25.7607C72.6336 25.7607 72.1161 26.904 72.1161 27.2583C72.1161 27.4193 72.0515 27.532 71.9706 27.532C71.7442 27.532 70.8064 28.9813 70.9034 29.1584C70.9681 29.2389 70.9358 29.3033 70.8549 29.3033C70.7741 29.3033 70.4507 29.6737 70.1273 30.1246C69.7877 30.6077 69.529 30.8492 69.4805 30.7204C69.432 30.6077 69.3188 30.7365 69.2056 31.0263C69.0278 31.5094 68.8661 31.6382 68.5103 31.5738C68.4295 31.5577 68.4133 31.6221 68.4618 31.7026C68.5265 31.7832 68.3971 31.912 68.2031 31.9603C67.7989 32.0891 66.8449 33.007 66.9095 33.2002C66.9257 33.2807 66.8287 33.329 66.6993 33.329C66.57 33.329 66.3759 33.4739 66.2628 33.635C66.1657 33.796 65.9879 33.9087 65.8747 33.8604C65.7615 33.8282 65.6322 33.9409 65.5675 34.118C65.519 34.3113 65.3573 34.4723 65.2279 34.4723C64.7428 34.5206 64.6781 34.5367 64.6458 34.6977C64.5973 34.9715 64.2092 35.2935 64.0314 35.1808C63.9505 35.1325 63.8697 35.1647 63.8697 35.2452C63.8697 35.3419 63.7727 35.4224 63.6433 35.4224C63.5139 35.4224 63.3037 35.5673 63.1744 35.7605C63.0127 35.9699 62.8995 36.0343 62.8187 35.9054C62.7055 35.7122 62.657 30.8653 62.7701 30.656C62.8187 30.5755 62.8672 30.1246 62.8833 29.6576C62.8995 29.1745 62.9803 28.627 63.0612 28.4177C63.1582 28.1761 63.1582 27.9829 63.045 27.9346C62.9642 27.8702 62.9318 27.7736 62.9642 27.7092C63.0127 27.6448 63.0774 27.1939 63.1259 26.7269C63.1744 26.2599 63.2714 25.8252 63.3522 25.7768C63.5948 25.6158 63.6918 24.7302 63.5624 24.1022C63.4816 23.764 63.4816 23.5064 63.5786 23.4742C63.6595 23.442 63.7403 23.2165 63.7727 22.975C63.7888 22.7334 63.8697 22.4919 63.9182 22.4436C63.9667 22.3792 63.9505 22.2181 63.8697 22.0571C63.7727 21.8639 63.805 21.6868 63.999 21.4774C64.5326 20.8977 64.759 19.8349 64.4679 19.3841C64.4033 19.2713 64.4679 19.1586 64.5973 19.0942C64.7267 19.0459 64.8398 18.8688 64.8398 18.6917C64.8398 18.5145 64.9045 18.3374 64.9854 18.2891C65.0662 18.2408 65.1147 17.967 65.0986 17.7094C65.0662 17.3551 65.1632 17.1619 65.4219 16.9848C65.8262 16.7271 66.3759 15.7126 66.2466 15.5033C66.1496 15.3423 66.2628 15.133 66.6347 14.8592C66.8449 14.6821 66.8772 14.7465 66.8449 15.3101C66.8287 15.7932 66.8934 16.0025 67.1197 16.1474C67.3138 16.2762 67.3623 16.389 67.2491 16.5178C66.861 16.9848 67.0227 18.5306 67.4916 18.8688C67.5887 18.9332 67.5725 19.062 67.4431 19.2069C67.3138 19.3841 67.2976 19.4807 67.427 19.5612C67.524 19.6095 67.5563 19.7222 67.5078 19.8027C67.3946 19.9799 67.7665 20.7689 67.9606 20.7689C68.0414 20.7689 68.0414 20.8494 67.9444 20.9782C67.7342 21.2359 67.8312 22.4919 68.0899 22.7978C68.2031 22.9267 68.284 23.6191 68.3001 24.3276C68.3325 25.7929 68.4133 25.9218 69.4643 25.9218C70.1435 25.9218 70.4668 25.6319 70.2405 25.2455C70.1758 25.1488 70.1111 24.7141 70.0788 24.2793C70.0464 23.8284 69.9332 23.3614 69.8201 23.2326C69.6745 23.0555 69.6745 22.975 69.8686 22.8462C70.0626 22.7334 70.0626 22.6851 69.8847 22.5563C69.7554 22.4919 69.6422 22.1537 69.626 21.8156C69.5937 21.4935 69.5128 21.1715 69.432 21.1232C69.3511 21.0587 69.2865 20.6401 69.2703 20.2053C69.2541 19.4324 69.1894 19.062 68.9631 18.4662C68.8822 18.2891 68.9307 18.1925 69.0763 18.1925C69.2056 18.1925 69.4482 18.0475 69.6099 17.8704C69.7716 17.6933 69.9494 17.5967 70.0303 17.6289C70.2081 17.7416 71.2591 17.0975 71.3723 16.8076C71.4208 16.6788 71.5987 16.5822 71.7442 16.6144C71.9059 16.6466 72.0191 16.5822 72.0029 16.4695C71.9706 16.2923 72.4395 16.0508 72.8438 16.0347C72.9408 16.0186 73.0216 15.9542 73.0378 15.8898C73.1025 15.6804 73.4582 15.3906 73.9756 15.133C74.6871 14.7948 75.3824 14.3117 75.2854 14.2151C75.2369 14.1668 75.2854 14.038 75.3986 13.9252C75.5441 13.7803 75.6411 13.7803 75.8351 13.9736C75.9645 14.1185 76.0777 14.2956 76.0777 14.3922ZM61.5736 15.3101C61.7515 15.5677 61.7353 15.7126 61.5736 16.0669C61.2987 16.6305 61.2987 18.0153 61.5898 18.1764C61.7515 18.2891 61.7515 18.3213 61.5574 18.4018C61.3149 18.4984 61.2664 19.8671 61.4927 20.2375C61.5574 20.3502 61.5251 20.6401 61.3957 20.8816C61.2664 21.1393 61.2017 21.5901 61.2502 21.8961C61.3634 22.8139 61.3957 24.0539 61.2987 24.231C61.2502 24.3115 61.2017 24.7463 61.1855 25.1971C61.1532 26.3726 60.943 28.7236 60.846 28.8525C60.8136 28.9169 60.7489 30.1568 60.7004 31.5899C60.6519 33.0392 60.5873 34.8427 60.5549 35.6156L60.5064 37.0326H61.0885H61.6706L61.1208 37.4352C60.8136 37.6606 60.4902 37.8378 60.3932 37.8378C60.2962 37.8378 59.989 38.0471 59.6979 38.3209C59.4069 38.5785 59.0511 38.8039 58.9218 38.8039C58.7924 38.8039 58.5984 38.9811 58.5014 39.2065C58.3882 39.4641 58.1942 39.6091 57.9355 39.6091C57.7091 39.6091 57.5636 39.7057 57.5636 39.8506C57.5636 39.9794 57.4665 40.0922 57.3695 40.0922C57.0946 40.1083 56.27 40.8329 56.27 41.0583C56.27 41.1388 56.2053 41.2354 56.1083 41.2354C56.0274 41.2515 55.8819 41.2677 55.7849 41.2838C55.7041 41.2838 55.6232 41.3643 55.6394 41.4287C55.6555 41.638 54.9603 42.1855 54.7015 42.1855C54.5722 42.1855 54.5075 42.2499 54.556 42.3143C54.5884 42.3787 54.4913 42.4593 54.2973 42.4593C53.9577 42.4915 53.0199 43.1517 52.4216 43.7797C52.2276 43.989 52.0174 44.1339 51.9689 44.0695C51.9204 44.0212 51.6778 44.1983 51.4191 44.4721C51.1604 44.7297 50.9017 44.9552 50.8209 44.9713C50.7562 44.9874 50.7077 45.0518 50.74 45.1162C50.7562 45.1967 50.643 45.245 50.4813 45.245C50.0285 45.245 49.3009 45.6476 48.638 46.2756C48.2822 46.6138 48.0235 46.7587 47.975 46.646C47.9265 46.5171 47.8133 46.5654 47.6516 46.7748C47.5223 46.9519 47.2312 47.0968 47.021 47.0968C46.8108 47.1129 46.6653 47.1934 46.6815 47.2901C46.6976 47.3867 46.4874 47.5316 46.2125 47.596C45.9215 47.6443 45.4202 47.8698 45.0807 48.0791C44.7411 48.3045 44.4662 48.4334 44.4662 48.3689C44.4662 48.3206 44.0943 48.5461 43.6254 48.8842C43.1565 49.2063 42.6714 49.48 42.5259 49.4961C42.0893 49.5283 40.9251 50.1241 41.0059 50.2691C41.0545 50.3496 41.0383 50.3818 40.9574 50.3657C40.7149 50.2852 39.7124 50.7844 39.3243 51.1547C39.1141 51.3641 38.8716 51.4929 38.7907 51.4446C38.7099 51.3802 38.6452 51.4124 38.6452 51.4929C38.6452 51.5734 38.4027 51.7344 38.1278 51.8632C37.8367 51.976 37.481 52.2014 37.3355 52.3624C37.1899 52.5234 36.9636 52.6523 36.8342 52.6523C36.7048 52.6523 36.3976 52.8294 36.1551 53.0548C35.9125 53.2803 35.6215 53.4574 35.5083 53.4574C35.3951 53.4574 35.2011 53.6345 35.0879 53.86C34.9747 54.0693 34.7968 54.1981 34.6998 54.1498C34.6028 54.0854 34.6351 54.182 34.7645 54.3431C34.9909 54.6168 34.9747 54.6329 34.6837 54.5041C34.5058 54.4236 34.0854 54.3592 33.762 54.3592C33.4224 54.3592 33.1476 54.2786 33.1476 54.182C33.1476 53.9888 32.1774 53.3769 32.1774 53.5701C32.1774 53.6345 32.0965 53.5701 31.9995 53.4252C31.9187 53.2642 31.7408 53.1837 31.5953 53.2481C31.4497 53.2964 31.2557 53.1998 31.1102 52.9904C30.8676 52.6523 29.9783 52.2014 29.3962 52.1209C29.2507 52.0887 28.992 51.9599 28.8303 51.8149C28.6686 51.67 28.3614 51.509 28.135 51.4446C27.9086 51.3802 27.6014 51.1869 27.4397 51.0259C27.278 50.8488 27.084 50.7521 26.987 50.8005C26.9061 50.8649 26.8414 50.8327 26.8414 50.7521C26.8414 50.5106 25.4347 49.8665 25.2083 49.9953C25.0951 50.0758 25.0466 50.0597 25.1113 49.9631C25.2083 49.8021 24.5454 49.1097 24.2866 49.1097C24.222 49.1097 23.9633 48.8842 23.7369 48.6266C23.4943 48.3528 23.0739 48.063 22.8152 47.9664C22.5403 47.8698 22.314 47.7087 22.314 47.596C22.314 47.3062 21.4246 46.7104 20.8587 46.5976C20.6 46.5332 20.3736 46.3883 20.3736 46.2756C20.3736 46.1468 20.3089 46.0502 20.2281 46.0502C19.9855 46.0502 19.8724 45.5671 20.0502 45.2772C20.1311 45.1162 20.2119 45.084 20.2119 45.1967C20.2119 45.3416 20.3736 45.3255 20.8264 45.1162C21.1498 44.9713 21.4731 44.778 21.5378 44.6975C21.5863 44.617 21.845 44.5365 22.1038 44.5204C22.6697 44.5043 23.9471 44.1017 23.8662 43.9729C23.8339 43.9246 24.0764 43.8602 24.416 43.8441C24.7556 43.828 25.273 43.667 25.564 43.4898C25.8389 43.3127 26.1785 43.2161 26.2917 43.2644C26.421 43.3127 26.518 43.2805 26.518 43.1839C26.518 42.9584 27.4074 42.6686 27.6499 42.8296C27.7631 42.894 27.8116 43.0228 27.7469 43.1195C27.6984 43.2161 27.7308 43.3127 27.8278 43.3449C27.9571 43.3932 27.9248 43.4898 27.7469 43.667C27.6014 43.8119 27.4882 43.9729 27.4882 44.0051C27.4882 44.0695 28.895 44.6009 29.0567 44.6009C29.089 44.6009 29.0728 44.5204 29.0243 44.4238C28.9596 44.3272 29.0567 44.15 29.2507 44.0212C29.7196 43.6831 30.0753 42.8457 29.9945 42.2338C29.9622 41.944 29.9783 41.7185 30.043 41.7185C30.4311 41.7829 30.5604 41.638 30.6574 41.0583C30.7221 40.7041 30.8191 40.4142 30.9 40.4142C30.9808 40.4142 31.0455 40.3015 31.0455 40.1727C31.0455 40.0438 30.9647 39.9311 30.8676 39.9311C30.7545 39.9311 30.8676 39.7862 31.094 39.593C31.5629 39.2387 32.0965 38.2564 31.951 38.031C31.9025 37.9666 32.0157 37.6606 32.1935 37.3869C32.3552 37.097 32.5008 36.7589 32.5008 36.6301C32.5008 36.5012 32.5654 36.3885 32.6463 36.3885C32.7271 36.3885 32.8403 36.1148 32.905 35.7927C32.9697 35.4546 33.1314 35.0037 33.2931 34.7783C33.5841 34.3596 33.6326 33.8604 33.4224 33.5222C33.3416 33.4095 33.3739 33.329 33.5356 33.329C33.7943 33.329 34.2794 32.4917 34.2794 32.0408C34.2794 31.8959 34.3603 31.7026 34.4735 31.5899C34.5866 31.4772 34.6028 31.3967 34.5381 31.3967C34.4573 31.3967 34.4896 31.3001 34.5866 31.1713C34.6837 31.0424 34.7645 30.8814 34.7483 30.817C34.6837 30.4466 34.7968 30.1085 35.0394 29.8508C35.4436 29.4644 35.7023 28.6109 35.5568 28.2084C35.476 27.999 35.5083 27.8058 35.67 27.6931C35.7994 27.5803 35.8964 27.3871 35.8964 27.2744C35.8964 27.0651 36.0581 27.0006 36.3329 27.0812C36.3976 27.1134 36.4461 27.371 36.43 27.6448C36.4138 27.9346 36.4785 28.2084 36.5593 28.2567C36.6402 28.3211 36.5917 28.5626 36.4623 28.8203C36.3329 29.0618 36.2198 29.6898 36.2036 30.2212C36.1713 32.0569 36.1227 32.7654 36.0257 32.9264C35.8964 33.1358 35.961 35.052 36.1066 35.1969C36.1713 35.2613 36.1066 35.3902 35.961 35.4868C35.8317 35.5834 35.7023 35.9216 35.6862 36.2275C35.67 36.5335 35.5892 36.8716 35.5406 36.9682C35.476 37.0648 35.3789 37.4674 35.3304 37.8539C35.2819 38.2242 35.1526 38.6912 35.0232 38.8683C34.91 39.0616 34.716 39.7057 34.6028 40.3176C34.4896 40.9295 34.2956 41.6219 34.1824 41.8473C34.053 42.0728 33.956 42.3948 33.956 42.5398C33.956 42.6847 33.8913 42.8618 33.7943 42.9101C33.7135 42.9584 33.6326 43.1517 33.6326 43.3288C33.6326 43.5059 33.5356 43.8441 33.4063 44.0856C33.2931 44.3272 33.1476 44.8264 33.0829 45.1967L32.9859 45.8891H33.9399C34.8777 45.8891 34.8939 45.8891 35.1687 45.2933C35.3304 44.9552 35.476 44.4882 35.476 44.2467C35.4921 44.0051 35.5406 43.7958 35.6053 43.7958C35.67 43.7958 35.7994 43.4898 35.8964 43.1034C35.9934 42.733 36.1389 42.2821 36.2036 42.105C36.5108 41.3965 37.0282 39.5608 36.9474 39.4803C36.9151 39.4319 37.0121 39.287 37.2061 39.1582C37.384 39.0294 37.4972 38.8361 37.4486 38.7073C37.4001 38.5946 37.481 38.3853 37.6103 38.2403C37.7397 38.1115 37.8205 37.9344 37.7559 37.8539C37.7074 37.7734 37.7397 37.6606 37.8367 37.5962C37.9499 37.5318 37.9499 37.403 37.8367 37.1776C37.7235 36.9682 37.7235 36.8716 37.8367 36.8716C38.1924 36.8716 38.6614 36.2758 38.7584 35.6961C38.8069 35.3741 38.9039 35.052 38.9848 35.0037C39.0494 34.9715 39.0818 34.8266 39.0171 34.6977C38.9686 34.5689 39.0009 34.4562 39.0979 34.4562C39.3081 34.4562 39.8417 33.0875 39.7124 32.8781C39.6639 32.7976 39.7932 32.6044 40.0196 32.4595C40.5694 32.1052 40.9251 31.3484 40.8281 30.7687C40.7796 30.4466 40.8281 30.2695 40.9898 30.2051C41.1191 30.1568 41.2323 30.0119 41.2323 29.8669C41.2323 29.7381 41.297 29.6254 41.3778 29.6254C41.5719 29.6254 41.9276 28.5465 41.8144 28.3533C41.7497 28.2728 41.8468 28.0956 42.0085 27.9829C42.2995 27.7736 42.7361 27.0651 42.914 26.5176C42.9948 26.276 43.0595 26.2599 43.3505 26.421C43.5446 26.5176 43.6254 26.6464 43.5446 26.7108C43.1565 26.9684 42.9301 28.3533 43.1888 28.8525C43.302 29.0779 43.302 29.2228 43.1565 29.4C43.0595 29.5288 43.011 29.6737 43.0595 29.7381C43.1242 29.7864 43.0918 29.9152 43.011 30.028C42.914 30.1407 42.914 30.4144 43.011 30.7526C43.1242 31.139 43.108 31.4128 42.9625 31.7187C42.7199 32.1857 42.7361 32.862 42.9786 33.5061C43.0756 33.7316 43.0918 34.0053 43.0271 34.118C42.9625 34.2147 42.914 34.5689 42.9301 34.9071C42.9463 35.2291 42.8816 35.5512 42.7846 35.6156C42.6876 35.68 42.7199 35.8571 42.8816 36.0987C43.0918 36.4046 43.0918 36.5335 42.9463 36.7428C42.7361 37.0326 42.7037 38.5946 42.8978 38.9167C42.9625 39.0294 42.914 39.3192 42.7846 39.5608C42.6229 39.8828 42.5906 40.221 42.6876 40.7041C42.7523 41.0744 42.7684 41.3804 42.7037 41.3804C42.6552 41.3804 42.7199 41.4609 42.8493 41.5414C43.0433 41.6702 43.0433 41.7346 42.8978 41.8312C42.6229 42.0084 42.3642 43.4093 42.5582 43.6025C42.6552 43.6992 42.6229 43.9246 42.4774 44.2144C42.348 44.4721 42.2833 44.9391 42.3157 45.245C42.3642 45.551 42.3804 46.1146 42.3642 46.4849C42.348 47.2096 42.2672 47.1612 43.868 47.4189L44.4662 47.5155L44.4015 46.9358C44.353 46.5815 44.4015 46.3722 44.5147 46.3561C44.6441 46.3561 44.6441 46.3239 44.4986 46.2595C44.3369 46.1951 44.3369 46.0985 44.5471 45.7925C44.6764 45.5832 44.8705 45.0357 44.9513 44.5687C45.0483 44.1178 45.2262 43.6186 45.3556 43.4737C45.4849 43.3288 45.5496 43.1678 45.5011 43.1195C45.4526 43.0551 45.5334 42.8296 45.6789 42.6042C45.8406 42.3787 45.8891 42.1855 45.8245 42.1855C45.7436 42.1855 45.7598 42.1211 45.8406 42.0567C46.0993 41.8635 46.4389 40.8651 46.4712 40.221C46.4874 39.8506 46.5683 39.6091 46.6976 39.6091C46.7946 39.6091 46.8917 39.5125 46.8917 39.3836C46.8917 39.2709 47.0048 39.0777 47.1342 38.965C47.2797 38.8522 47.3606 38.659 47.3121 38.5463C47.2636 38.4175 47.3282 38.2403 47.4414 38.1276C47.5546 38.0149 47.6193 37.8217 47.5708 37.709C47.5384 37.6123 47.5869 37.5157 47.684 37.5157C47.781 37.5157 47.8618 37.3064 47.8618 37.0487C47.8618 36.7911 47.975 36.5012 48.1205 36.3724C48.5571 36.0182 48.832 35.2935 48.7673 34.7138C48.7026 34.263 48.7512 34.1342 49.0099 34.0536C49.2847 33.957 49.4141 33.5706 49.3333 33.1036C49.3171 33.0231 49.3818 32.9103 49.495 32.8459C49.6243 32.7493 49.6243 32.6366 49.5111 32.4273C49.3818 32.2018 49.4141 32.1052 49.689 31.9603C50.2226 31.7026 50.6268 30.817 50.546 30.0924C50.4813 29.6093 50.5298 29.4644 50.7077 29.4644C50.837 29.4644 50.9179 29.4 50.8694 29.3194C50.8209 29.2389 50.8694 29.094 50.9987 28.9974C51.1281 28.8847 51.2089 28.5626 51.1928 28.2567C51.1766 27.9507 51.2413 27.6931 51.3383 27.6931C51.7749 27.677 52.4863 25.8896 52.2761 25.3421C52.2276 25.1971 52.2923 25.1166 52.4701 25.1166C52.6157 25.1166 52.6965 25.0522 52.6318 24.9717C52.5833 24.8912 52.6157 24.7785 52.7127 24.7141C52.7935 24.6658 52.8744 24.4725 52.8744 24.3115C52.8744 24.1505 53.0037 23.9411 53.1654 23.8445C53.3756 23.7157 53.408 23.6191 53.2625 23.3936C53.1169 23.1682 53.1816 23.0394 53.5535 22.7334C53.8607 22.4758 53.9901 22.2504 53.9254 22.0571C53.8769 21.8961 53.8931 21.719 53.9739 21.6707C54.0548 21.6223 54.1033 21.3325 54.0871 21.0104C54.0871 20.6401 54.1518 20.4468 54.2973 20.4468C54.4105 20.4468 54.4752 20.3824 54.4267 20.3019C54.362 20.2214 54.4752 20.1892 54.653 20.2375C54.8309 20.2858 54.9441 20.3824 54.8956 20.4468C54.7177 20.7367 54.7662 22.1215 54.9603 22.1859C55.1381 22.2504 55.1381 22.2826 54.9603 22.3953C54.8147 22.4758 54.7501 22.9911 54.7339 24.1022C54.7177 24.9717 54.6207 25.8413 54.5237 26.0345C54.2811 26.4693 54.265 27.4515 54.4913 27.8541C54.6045 28.0634 54.6045 28.1923 54.4913 28.2567C54.3943 28.3211 54.362 28.4982 54.4105 28.6753C54.4752 28.8364 54.4428 28.9813 54.362 28.9813C54.0871 28.9813 54.1841 30.0924 54.4752 30.2695C54.6207 30.35 54.653 30.4305 54.556 30.4305C54.1356 30.4305 53.8446 31.8476 54.1194 32.5239C54.2326 32.7815 54.2326 32.9909 54.1356 33.1197C54.0548 33.2324 54.0224 33.3934 54.0709 33.4739C54.1356 33.5545 54.0871 33.6833 53.9901 33.7316C53.8931 33.796 53.8607 34.0536 53.9092 34.3596C53.9739 34.6655 53.9092 35.0359 53.7475 35.3419C53.602 35.5995 53.4727 36.2275 53.4403 36.7106C53.408 37.1937 53.3433 37.709 53.311 37.8378C53.2625 37.9666 53.1169 38.4014 52.9714 38.8039C52.5672 39.9794 52.648 40.1566 53.6829 40.2693C54.6045 40.3498 54.8471 40.221 54.9279 39.6091C55.0249 38.7556 55.2998 37.4996 55.5262 36.8877C55.6555 36.4851 55.7364 36.1148 55.6879 36.0343C55.6394 35.9699 55.6555 35.8249 55.7202 35.7122C55.7849 35.5995 55.8657 35.3741 55.8819 35.1969C55.8981 35.0037 55.9951 34.585 56.076 34.263C56.173 33.8604 56.173 33.6189 56.0598 33.5061C55.9304 33.3773 55.9466 33.329 56.0921 33.329C56.2053 33.329 56.2376 33.2485 56.1891 33.168C56.1406 33.0714 56.1568 33.007 56.2376 33.007C56.5125 33.007 56.8521 31.8154 56.7389 31.2679C56.6581 30.8814 56.6904 30.7043 56.8521 30.6399C56.9814 30.5916 57.03 30.4949 56.9814 30.4144C56.9329 30.3178 56.9653 30.1729 57.0461 30.0602C57.3048 29.722 57.4019 29.094 57.2078 28.8686C57.0946 28.7236 57.1108 28.6431 57.3048 28.5626C57.4504 28.5143 57.515 28.4016 57.4665 28.3211C57.418 28.2406 57.4342 28.1761 57.515 28.1761C57.7091 28.1761 58.0648 26.9523 57.9516 26.6464C57.8869 26.5176 57.9678 26.2277 58.1133 26.0023C58.2588 25.7768 58.3397 25.5192 58.2912 25.4387C58.2427 25.3582 58.275 25.2616 58.3559 25.2132C58.4367 25.1488 58.5499 24.8107 58.6146 24.4242C58.6792 24.0539 58.8086 23.6191 58.8895 23.4581C58.9703 23.297 59.0511 22.8784 59.0835 22.5241C59.1158 22.1537 59.229 21.7995 59.3422 21.7351C59.4554 21.6707 59.4877 21.5257 59.4392 21.4291C59.3745 21.3325 59.4069 21.252 59.4877 21.252C59.5847 21.252 59.6656 21.0587 59.6656 20.8011C59.6656 20.5596 59.7788 20.157 59.9081 19.8994C60.0375 19.6578 60.1507 19.2875 60.1507 19.0942C60.1507 18.901 60.28 18.5789 60.4256 18.3696C60.5711 18.1442 60.7004 17.5967 60.7328 17.0975C60.7489 16.6144 60.8621 16.1635 60.9753 16.0991C61.0723 16.0347 61.1047 15.8898 61.0562 15.7932C60.9915 15.6965 61.0562 15.616 61.2017 15.616C61.4119 15.616 61.4281 15.5516 61.2825 15.294C61.0562 14.8753 61.3149 14.8753 61.5736 15.3101ZM19.2903 17.7577C19.2417 17.8382 19.1286 17.8221 19.0477 17.7416C18.9507 17.645 18.9345 17.4839 18.9992 17.3873C19.0962 17.2424 19.1447 17.2424 19.2579 17.4034C19.3226 17.5162 19.3388 17.6772 19.2903 17.7577ZM15.1347 17.9509C15.1509 18.0797 15.1023 18.1603 15.0215 18.0959C14.9407 18.0475 14.876 17.9026 14.876 17.7577C14.876 17.4517 15.0862 17.6128 15.1347 17.9509ZM17.9967 21.3164C18.0614 21.4774 18.0129 21.5257 17.8512 21.4613C17.738 21.413 17.6248 21.3164 17.6248 21.2359C17.6248 21.0104 17.8997 21.0749 17.9967 21.3164ZM17.3014 22.0571C17.3014 22.1376 17.2691 22.2181 17.2367 22.2181C17.1882 22.2181 17.1074 22.1376 17.0589 22.0571C17.0104 21.9605 17.0427 21.8961 17.1235 21.8961C17.2206 21.8961 17.3014 21.9605 17.3014 22.0571ZM53.0361 22.3148C53.0361 22.4436 52.9552 22.508 52.8744 22.4597C52.7774 22.3953 52.745 22.2826 52.7935 22.202C52.9391 21.9766 53.0361 22.0249 53.0361 22.3148ZM52.7127 23.1843C52.7127 23.2648 52.6318 23.3453 52.5348 23.3453C52.454 23.3453 52.4216 23.2648 52.4701 23.1843C52.5187 23.0877 52.5995 23.0233 52.648 23.0233C52.6804 23.0233 52.7127 23.0877 52.7127 23.1843ZM23.8177 24.5369C23.8824 24.698 23.8339 24.7463 23.6722 24.6819C23.559 24.6336 23.4458 24.5369 23.4458 24.4564C23.4458 24.231 23.7207 24.2954 23.8177 24.5369ZM23.0416 25.1166C22.9931 25.1971 22.8799 25.2777 22.7829 25.2777C22.702 25.2777 22.6374 25.1971 22.6374 25.1166C22.6374 25.02 22.7505 24.9556 22.8961 24.9556C23.0254 24.9556 23.0901 25.02 23.0416 25.1166ZM69.3673 25.4065C69.3673 25.648 69.1894 25.7446 68.9307 25.648C68.7367 25.5675 68.7367 25.5353 68.9146 25.4226C69.1894 25.2455 69.3673 25.2455 69.3673 25.4065ZM36.7695 26.2277C36.818 26.3082 36.7695 26.4048 36.6563 26.4532C36.527 26.5015 36.43 26.4371 36.43 26.3082C36.43 26.0506 36.6402 26.0023 36.7695 26.2277ZM43.8194 36.0665C43.8194 36.147 43.7548 36.2275 43.6577 36.2275C43.5769 36.2275 43.4961 36.147 43.4961 36.0665C43.4961 35.9699 43.5769 35.9054 43.6577 35.9054C43.7548 35.9054 43.8194 35.9699 43.8194 36.0665ZM43.8194 37.0487C43.8194 37.1293 43.7548 37.1937 43.6577 37.1937C43.5769 37.1937 43.4961 37.0809 43.4961 36.936C43.4961 36.8072 43.5769 36.7428 43.6577 36.7911C43.7548 36.8394 43.8194 36.9521 43.8194 37.0487ZM12.2888 37.5318C12.2888 37.6284 12.2242 37.6445 12.1272 37.5962C12.0463 37.5479 11.9655 37.4191 11.9655 37.3386C11.9655 37.242 12.0463 37.2259 12.1272 37.2742C12.2242 37.3225 12.2888 37.4513 12.2888 37.5318ZM12.8386 38.0793C12.7254 38.337 12.4505 38.4175 12.4505 38.1759C12.4505 38.0471 12.5637 37.9666 12.8871 37.8539C12.9033 37.8378 12.8871 37.9505 12.8386 38.0793ZM54.1679 39.9311C54.1679 40.0116 54.1033 40.0922 54.0063 40.0922C53.9254 40.0922 53.8446 40.0116 53.8446 39.9311C53.8446 39.8345 53.9254 39.7701 54.0063 39.7701C54.1033 39.7701 54.1679 39.8345 54.1679 39.9311ZM59.3907 39.9955C59.4554 40.1566 59.4069 40.2049 59.2452 40.1405C59.0026 40.0438 58.938 39.7701 59.1643 39.7701C59.2452 39.7701 59.3422 39.8828 59.3907 39.9955ZM58.7439 40.4786C58.8248 40.6719 58.7116 40.7041 58.2427 40.5913C58.2103 40.5752 58.2427 40.4947 58.2912 40.4142C58.4367 40.1888 58.6469 40.221 58.7439 40.4786ZM5.17425 50.8971C5.17425 50.9776 5.10957 51.042 5.01256 51.042C4.93171 51.042 4.85086 50.9293 4.85086 50.7844C4.85086 50.6555 4.93171 50.5911 5.01256 50.6394C5.10957 50.6877 5.17425 50.8005 5.17425 50.8971Z"
          fill="white"/>
</svg>
