<svg width="92" height="84" viewBox="0 0 92 84" fill="none" xmlns="http://www.w3.org/2000/svg">
    <path d="M32.4259 0.668365C32.1684 1.12075 32.2006 1.41157 32.4903 1.76701C32.7799 2.12246 32.7799 2.34865 32.5546 2.4779C32.2972 2.67178 32.2006 5.09527 32.4581 5.35377C32.6834 5.61228 32.5868 6.29085 32.2972 6.48473C32.0719 6.67861 32.0719 6.80786 32.3293 6.96943C32.4903 7.13099 32.6512 7.58338 32.6512 8.03576C32.6512 8.48815 32.4903 8.94053 32.3293 9.06978C32.0719 9.26366 32.1041 9.39291 32.3615 9.58679C32.5546 9.71605 32.7799 10.5562 32.8121 11.4286C32.9087 14.1429 33.0052 14.0137 30.6236 14.0783C29.4327 14.1106 28.3062 14.0137 28.1131 13.9168C27.566 13.5613 25.8924 13.6582 25.0878 14.0783C24.6372 14.2722 24.1544 14.3691 23.9935 14.2722C23.2532 13.8198 20.7106 13.9168 20.1635 14.4015C19.8416 14.6923 19.5842 14.7569 19.5842 14.5953C19.5842 13.8521 16.591 13.4644 15.4323 14.046C14.9495 14.3045 14.4346 14.3691 14.1449 14.1753C13.469 13.8198 11.8598 14.1429 11.1517 14.7246C10.7011 15.1123 10.508 15.1447 9.70342 14.7246C8.44821 14.1106 5.42284 14.4661 5.42284 15.2416C5.42284 15.4355 5.22973 15.3708 5.03662 15.08C4.74696 14.7246 4.26418 14.6276 3.42738 14.7246C2.7515 14.8215 2.30091 15.0154 2.39746 15.177C2.49402 15.3385 2.39746 15.4678 2.23654 15.4678C2.04343 15.4678 1.88251 15.3385 1.88251 15.1447C1.88251 14.7246 0.852592 15.1447 0.402004 15.7586C-0.241692 16.5987 -0.0807681 18.3437 0.659483 18.7314C1.07789 18.9576 1.39973 18.9576 1.65721 18.7637C1.88251 18.5698 2.39746 18.4406 2.84805 18.4083C3.68486 18.4083 5.26191 18.1821 5.26191 18.0851C5.26191 18.0205 5.51939 17.9559 5.84124 17.8913C6.1309 17.8266 6.38838 17.9236 6.38838 18.1175C6.38838 18.3113 6.64586 18.3437 6.96771 18.2144C7.67577 17.8913 7.99762 17.8913 8.93098 18.1821C9.47812 18.376 9.60686 18.3437 9.44594 18.0528C9.18846 17.6004 10.2827 17.7297 10.6368 18.1821C10.7333 18.376 11.1517 18.279 11.6023 18.0205C11.9885 17.762 12.8253 17.5681 13.4047 17.5681C13.9518 17.6005 14.4346 17.5035 14.4346 17.4066C14.4346 17.3096 14.7242 17.2127 15.0783 17.1804C15.4323 17.1481 15.722 17.2773 15.722 17.4389C15.722 17.6328 15.8507 17.6974 15.9795 17.6005C16.5588 17.245 17.9749 17.1481 18.1358 17.4389C18.2646 17.6005 18.4899 17.7297 18.6508 17.7297C18.8439 17.7297 18.8761 17.5681 18.7474 17.3419C18.5864 17.0834 18.683 17.0511 19.1336 17.245C20.0026 17.6328 23.8004 17.6651 24.5728 17.3096C24.9912 17.0834 25.2165 17.1158 25.3131 17.3419C25.3774 17.5681 25.6671 17.6005 26.1177 17.4389C26.5039 17.2773 27.1154 17.2773 27.4694 17.4389C28.3706 17.7943 28.6603 17.7943 28.435 17.4389C28.2419 17.0834 29.5615 17.0834 30.0442 17.4389C30.2373 17.5681 30.9776 17.6328 31.7178 17.5681C33.1662 17.5035 34.003 18.0205 33.5524 18.7314C33.4236 18.9899 33.4558 19.0222 33.6811 18.893C33.9386 18.7314 34.003 18.9576 33.8742 19.6039C33.7777 20.1532 33.8742 20.8964 34.0995 21.3165C34.4535 22.0274 34.6145 22.5444 34.7754 23.7723C34.8076 23.9985 34.9363 24.1923 35.0972 24.1923C35.2582 24.1923 35.3225 24.3216 35.1938 24.4831C35.0972 24.6447 35.1938 24.9032 35.3869 25.0325C35.6444 25.194 35.6122 25.3233 35.3225 25.5172C34.9685 25.711 35.0007 25.8726 35.4191 26.3573C35.7731 26.7451 35.8697 27.1005 35.6766 27.4236C35.4835 27.7145 35.5156 27.973 35.7409 28.1022C35.9662 28.2315 36.1272 28.6515 36.1593 29.007C36.2237 29.6856 35.8697 29.8471 34.4857 29.7179C34.0673 29.6856 33.7455 29.8148 33.7455 30.0087C33.7455 30.2672 33.5524 30.2672 33.1018 30.0087C32.6512 29.7502 32.265 29.7502 31.8144 30.0087C31.3638 30.2672 31.0098 30.2349 30.5592 29.9441C30.0764 29.6533 29.8189 29.6533 29.4649 29.9441C29.2396 30.1703 28.9178 30.2349 28.789 30.1056C28.4994 29.8148 26.0211 29.6856 26.0211 29.9764C26.0211 30.1056 25.7315 30.2026 25.3774 30.2349C25.0234 30.2672 24.7981 30.1703 24.8947 29.9764C25.1521 29.5563 24.605 29.6209 24.1866 30.041C23.9935 30.2349 23.2854 30.4288 22.6095 30.4611C21.7405 30.5257 21.3221 30.7196 21.2578 31.1073C21.1934 31.3982 20.9359 31.6244 20.6784 31.6244C20.421 31.6244 19.9382 31.9152 19.6163 32.2383C19.2623 32.5937 18.9083 32.7553 18.7795 32.6584C18.5542 32.4322 16.3657 34.7264 16.3657 35.2111C16.3657 35.3727 16.1726 35.5019 15.9151 35.5019C15.6576 35.5019 15.3358 35.8251 15.207 36.2128C14.9174 37.1176 14.2737 37.7962 13.9518 37.5053C13.7909 37.3761 13.7909 37.57 13.9196 37.9254C14.0484 38.2809 14.0484 38.4424 13.9196 38.3455C13.63 38.0224 12.7288 39.0564 12.0529 40.5105C11.6989 41.2214 11.3127 42.0615 11.1839 42.3523C11.023 42.6755 10.9908 43.1278 11.0874 43.4187C11.1839 43.6772 11.1195 43.9034 10.9586 43.9034C10.6368 43.9034 10.2184 44.7758 10.0574 45.8098C9.99308 46.0683 9.79997 46.3591 9.57468 46.4884C9.38157 46.6177 9.28501 46.8762 9.38157 47.0377C9.47812 47.1993 9.34938 47.7809 9.09191 48.2979C8.51258 49.3966 8.28728 51.5939 8.70569 51.8847C8.8988 51.9816 8.8988 52.1432 8.73787 52.2725C8.22292 52.6279 7.70796 54.1789 7.90107 54.8575C7.99762 55.2453 7.90107 55.7623 7.67577 56.0208C7.193 56.6024 6.99989 60.0599 7.45048 60.0599C7.64359 60.0599 7.64359 60.2215 7.45048 60.4477C7.09645 60.9324 7.12863 62.548 7.48266 63.3882C7.64359 63.7113 7.57922 64.1314 7.38611 64.3899C7.16082 64.6807 7.12863 65.1008 7.28956 65.5855C7.45048 66.0055 7.48266 66.6518 7.35393 67.0073C7.09645 67.7505 7.28956 68.526 7.70796 68.2675C7.96544 68.1059 8.15855 68.8168 8.02981 69.5277C7.93325 70.1093 8.70569 72.3389 8.99535 72.3389C9.18846 72.3389 9.25283 72.4682 9.12409 72.6297C9.02754 72.8236 9.12409 73.1144 9.34938 73.3083C9.57468 73.5022 10.1218 73.9223 10.5402 74.2777C10.9586 74.6332 11.2161 74.924 11.0552 74.924C10.9264 74.924 11.5701 75.441 12.4713 76.0549C14.2093 77.2505 14.5955 77.4121 14.2415 76.7658C14.1127 76.5396 14.1449 76.475 14.3058 76.6366C14.4668 76.7981 14.5955 77.089 14.5955 77.2828C14.5955 77.8645 17.6853 78.5754 18.3933 78.1553C18.7795 77.9291 18.9405 77.9291 18.9405 78.1876C18.9405 78.3815 19.2301 78.4461 19.6163 78.3169C20.0347 78.1876 20.2279 78.2199 20.1313 78.4138C20.0026 78.5754 20.5175 78.6723 21.4509 78.64C22.2877 78.6077 23.0601 78.7369 23.221 78.9308C23.382 79.1893 23.5107 79.1893 23.7038 78.9631C23.8969 78.6723 24.5728 78.5754 24.8303 78.8015C25.0878 79.0277 27.6304 78.9954 27.6304 78.7692C27.6304 78.5754 27.92 78.6077 28.3062 78.8015C28.789 79.0601 29.0787 79.0601 29.4005 78.8015C29.7224 78.5107 30.012 78.5107 30.527 78.8015C31.042 79.0924 31.3316 79.0601 31.6856 78.7692C32.1041 78.4461 32.2328 78.4461 32.4581 78.8015C32.6834 79.157 32.9087 79.157 33.7133 78.8339C34.2283 78.6077 34.8076 78.4138 34.9363 78.4138C35.0651 78.4138 35.4513 78.2199 35.8053 77.9937C36.1272 77.7352 36.5777 77.6383 36.803 77.7029C36.9961 77.7998 37.3824 77.6383 37.6077 77.3475C37.833 77.089 38.4123 76.8628 38.895 76.8628C39.3778 76.8628 39.9571 76.6366 40.1824 76.3781C40.4077 76.1196 40.8583 75.8934 41.1802 75.8934C41.5342 75.8934 41.7917 75.7318 41.7917 75.5702C41.7917 75.3764 41.9848 75.2471 42.2101 75.2471C42.4354 75.2471 43.2722 74.6332 44.0446 73.8576C44.8171 73.1144 45.332 72.6944 45.2033 72.8882C44.6883 73.8253 45.3964 73.2114 45.9757 72.242C46.3297 71.6927 46.6194 71.3372 46.6194 71.4988C46.6194 71.6927 46.8447 71.5311 47.1344 71.1756C47.3918 70.8525 47.5206 70.7879 47.3918 71.0464C47.1987 71.4018 47.3275 71.3695 47.8102 70.9495C48.1643 70.6586 48.6149 70.4001 48.8402 70.4001C49.0333 70.4001 49.4195 69.9154 49.677 69.3338C49.9344 68.7845 50.1276 68.429 50.1597 68.5906C50.1597 69.043 51.769 67.4273 51.769 66.9749C51.769 66.7487 52.1874 66.361 52.7023 66.1025C53.6035 65.6501 53.6679 65.6501 54.6334 66.7487C55.1806 67.3627 55.6312 68.0413 55.6312 68.2352C55.6312 68.4613 56.0817 68.8814 56.5967 69.1722C57.2404 69.5277 57.4979 69.8831 57.3691 70.2063C57.2404 70.5617 57.3691 70.7233 57.691 70.7233C57.9806 70.7233 58.2059 70.9171 58.2059 71.1433C58.2059 71.628 60.652 73.9546 61.1348 73.9546C61.2957 73.9546 61.3922 74.0515 61.3601 74.1808C61.2635 74.5685 62.744 76.8951 62.9693 76.7335C63.098 76.6689 63.3877 76.7981 63.613 77.0566C63.8383 77.3151 63.9348 77.509 63.8383 77.509C63.4843 77.509 65.7372 80.4818 66.3487 80.7727C66.6384 80.9665 66.8315 81.225 66.7349 81.3866C66.5418 81.7097 67.6683 83.0023 68.1832 83.0023C68.3763 83.0023 68.5051 83.2284 68.5051 83.487C68.5051 84.1655 71.2408 84.1655 71.4983 83.5193C71.7558 82.873 71.1121 80.6757 70.7258 80.9019C70.5649 81.0312 70.4362 80.9342 70.4362 80.708C70.4362 80.3203 68.7947 78.64 68.5051 78.7369C68.4085 78.7369 68.3763 78.543 68.4407 78.2845C68.5051 78.026 68.3763 77.8322 68.1832 77.8322C68.0223 77.8322 67.8614 77.6383 67.8614 77.4121C67.8614 76.7981 66.3165 75.5056 65.8981 75.7641C65.6085 75.9257 65.5763 75.8287 65.705 75.441C66.0912 74.4393 63.6452 71.4018 62.6474 71.628C62.229 71.6927 62.1325 71.5957 62.2612 71.208C62.39 70.9171 62.1647 70.4324 61.6497 69.9477C61.1991 69.5277 60.7807 68.9137 60.7164 68.5906C60.652 68.2028 60.298 67.9443 59.7186 67.8797C59.2359 67.8151 58.914 67.6212 59.0106 67.4596C59.3324 66.9749 58.8496 65.8763 58.3347 65.8763C58.0772 65.8763 57.8841 65.6501 57.8841 65.3916C57.8841 65.1008 57.5301 64.5515 57.0795 64.1314C56.1139 63.2266 56.0817 62.6773 56.9185 61.5786C57.2726 61.1263 57.5622 60.6739 57.5622 60.5769C57.5622 60.48 57.8197 60.0922 58.1416 59.7691C59.2359 58.5412 59.4611 58.1534 59.6864 57.3456C59.783 56.8932 60.0083 56.5055 60.2014 56.5055C60.3623 56.5055 60.3945 56.3439 60.2658 56.1177C60.137 55.9238 60.1692 55.8592 60.3623 55.9562C60.7485 56.2147 62.4865 53.7265 62.2934 53.1772C62.229 52.9833 62.5187 52.531 62.9371 52.1432C63.3555 51.7878 63.7417 51.2707 63.8061 51.0122C64.0958 49.5582 64.4176 48.7826 64.7073 48.9442C64.9004 49.0735 64.9648 48.7503 64.8682 48.1364C64.7395 47.3609 64.836 47.0377 65.3188 46.8115C65.6406 46.6177 65.9303 46.2622 65.9303 46.0037C65.9303 45.7452 66.1556 45.519 66.4131 45.519C66.7027 45.519 66.8958 45.2282 66.8958 44.7112C66.8958 44.2265 67.2499 43.5479 67.7005 43.1278C68.1511 42.7078 68.5051 42.1261 68.5051 41.8353C68.5051 41.2214 69.9534 41.1244 70.3396 41.7384C70.5971 42.1584 71.627 42.7078 73.1075 43.2571C73.5903 43.4187 73.9765 43.7418 73.9765 43.9357C73.9765 44.4527 75.2961 45.4544 76.326 45.6806C76.841 45.8098 77.195 46.1006 77.195 46.4561C77.195 46.7469 77.4525 47.2962 77.7743 47.6517C78.0962 47.9748 78.4502 48.5241 78.5789 48.8796C78.7077 49.2027 78.9973 49.3966 79.2548 49.2996C79.6088 49.1704 79.6732 49.332 79.5767 50.0428C79.4801 50.5922 79.6732 51.4969 80.0916 52.3048C80.5744 53.2419 80.6709 53.7589 80.4457 54.0497C80.1238 54.4374 80.2204 56.8932 80.5744 57.5072C80.7031 57.6688 80.4135 58.4443 79.9629 59.2521C79.0617 60.7708 78.9008 61.8371 79.5445 62.0957C79.7698 62.1926 79.7054 62.2895 79.3836 62.2895C79.0617 62.3218 78.8042 62.4834 78.8042 62.6773C78.8042 62.9035 78.5789 63.2266 78.3215 63.4205C78.064 63.6144 77.7743 64.2283 77.6778 64.81C77.5812 65.3916 77.3881 66.1671 77.2272 66.5872C77.0341 67.1042 77.0662 67.5243 77.3237 67.8797C77.7099 68.3967 77.8065 68.3967 78.7399 67.8151C80.7997 66.5549 82.0227 64.81 82.0227 63.1297C82.0227 62.4188 82.1514 62.031 82.3446 62.1603C82.5377 62.2572 82.6664 62.0633 82.6664 61.7079C82.6664 61.3201 82.763 61.0293 82.9239 61.0293C83.3101 61.0293 84.0504 59.0259 83.7607 58.7997C83.3745 58.5412 83.2457 57.798 83.5676 57.798C83.7285 57.798 83.8251 56.8932 83.7607 55.7623C83.7285 54.6636 83.6641 53.7589 83.6319 53.7589C83.5998 53.7589 83.5354 53.4357 83.4388 53.0157C83.3745 52.5633 83.4388 52.3371 83.6319 52.4663C84.1147 52.7572 84.0182 52.2078 83.471 51.4646C83.2135 51.1415 82.9883 50.4306 82.9883 49.9136C82.9883 49.4289 82.5699 48.3626 82.0227 47.5547C81.5078 46.7792 81.0572 46.036 81.0572 45.9068C81.0572 45.5513 78.8364 43.5802 78.4502 43.5802C78.2571 43.5802 78.2249 43.451 78.3215 43.2571C78.418 43.0955 78.1605 42.7724 77.7099 42.5785C77.2594 42.3523 76.8088 41.9322 76.7122 41.6091C76.6157 41.3183 76.2938 40.9629 76.0363 40.8659C75.7789 40.769 75.6501 40.8013 75.7467 40.9952C75.8432 41.189 75.7789 41.3183 75.6179 41.3183C75.4248 41.3183 75.2639 41.1567 75.2639 40.9952C75.2639 40.8013 75.0386 40.672 74.7811 40.672C74.5236 40.672 74.1696 40.3812 73.9765 40.0258C73.7834 39.6703 73.5259 39.4118 73.3972 39.4441C73.1397 39.5411 70.1143 37.5053 70.1143 37.2468C70.1143 37.1499 70.2431 37.1822 70.4362 37.2792C70.7902 37.5053 71.627 35.7604 71.6592 34.7264C71.6592 34.5649 71.9167 34.3063 72.2063 34.1448C72.5282 33.9509 72.6569 33.5955 72.5282 33.24C72.3994 32.8523 72.6247 32.3676 73.1397 31.8505L73.9121 31.075L72.6569 29.8148C71.4661 28.6515 71.4017 28.6192 70.7902 29.1686C70.0178 29.8794 69.4063 31.5274 69.7925 31.7859C69.9856 31.8829 69.6959 32.3999 69.181 32.8846C68.4407 33.6278 68.2476 34.0155 68.3763 34.791C68.6016 36.2128 67.6361 36.3421 64.3211 35.3404C63.9027 35.2111 62.8084 34.7587 62.1969 34.4679C61.8428 34.3063 61.4244 34.2094 61.2313 34.2417C60.4911 34.371 59.783 34.1771 59.9761 33.8863C60.0727 33.6924 59.8474 33.5631 59.429 33.5308C57.2082 33.4339 56.7254 33.3693 56.3714 33.1431C56.1461 32.9815 55.953 32.9815 55.953 33.1108C55.953 33.24 55.7599 33.1431 55.5668 32.8523C54.8265 31.9475 51.4471 31.4951 50.031 32.1091C49.6126 32.3029 49.4839 32.2706 49.6126 32.0444C49.8379 31.689 49.677 31.6567 47.0378 31.5597C46.2654 31.5274 45.6539 31.3982 45.6539 31.2689C45.6539 31.1397 45.1389 30.8488 44.5274 30.655C43.6584 30.3641 43.2722 30.3641 42.9503 30.655C42.5963 30.9135 42.4676 30.9135 42.371 30.6226C42.2745 30.3641 42.0813 30.3318 41.7595 30.4934C41.1158 30.9135 40.4721 30.9781 40.6974 30.6226C40.794 30.4611 40.7296 30.3318 40.5365 30.3318C39.9571 30.3318 39.3456 28.6192 39.2813 26.9389C39.2491 25.711 39.056 25.194 38.541 24.8063C37.9617 24.3862 37.8973 24.1923 38.2192 23.5784C38.4445 23.1906 38.4766 22.7059 38.3479 22.4797C38.2192 22.2859 38.0904 22.0274 38.0582 21.9304C37.9939 21.575 37.5433 20.444 37.2536 19.927C37.0927 19.5716 37.0927 19.0545 37.2858 18.5375C37.6077 17.6651 37.5433 17.6974 41.6308 17.5681C42.886 17.5358 43.9481 17.4712 44.0446 17.4066C44.5274 17.1481 45.9757 17.1804 45.8148 17.4389C45.4608 17.9559 46.1688 17.762 46.9413 17.0834C47.8102 16.3402 48.0999 16.2756 48.3252 16.8249C48.4539 17.1158 48.5827 17.1481 48.7758 16.9219C49.0011 16.6311 49.677 16.5341 49.9344 16.7603C50.0954 16.9219 53.8932 16.9542 54.1828 16.7926C54.6978 16.5018 55.1162 16.5341 55.4059 16.9219C55.5346 17.1158 55.7277 17.0834 55.953 16.7603C56.1139 16.5018 56.2749 16.4049 56.2749 16.5664C56.2749 16.728 56.468 16.6957 56.6933 16.5018C57.2082 16.0494 59.4933 15.7263 59.4933 16.0817C59.4933 16.2433 60.3945 16.3079 61.521 16.2756C62.6153 16.211 63.5164 16.1464 63.5164 16.114C63.5164 16.0817 63.8383 16.0171 64.2567 15.9202C64.7716 15.8232 64.9326 15.9202 64.7716 16.1787C64.6107 16.4372 64.7073 16.4695 65.1579 16.2756C66.1234 15.8879 67.0246 15.8555 67.3142 16.2433C67.4752 16.4695 67.6039 16.5018 67.797 16.2756C67.9901 15.9848 68.666 15.8879 68.9235 16.114C69.181 16.3402 71.7236 16.3079 71.7236 16.0817C71.7236 15.8879 72.0132 15.9202 72.3994 16.114C72.8822 16.3726 73.1719 16.3726 73.4937 16.114C73.8156 15.8232 74.1052 15.8232 74.6202 16.114C75.1352 16.4049 75.4248 16.3726 75.7789 16.0817C76.1329 15.7909 76.3582 15.7909 76.4869 16.0171C76.68 16.2756 79.0939 16.3726 79.3836 16.114C79.6088 15.8879 80.2847 15.9848 80.51 16.2756C80.6709 16.5018 80.7997 16.5018 80.9928 16.2433C81.1215 16.0817 81.5721 15.9202 82.0227 15.9202C82.4733 15.9202 82.9239 16.0817 83.0848 16.2433C83.2457 16.4695 83.471 16.4049 83.7607 16.0171C84.1147 15.5647 84.5653 15.5001 86.3033 15.597C87.4619 15.6617 88.524 15.6294 88.6206 15.5001C88.9424 15.2093 89.554 15.2416 89.7793 15.5647C89.908 15.7263 90.2942 15.694 90.6804 15.5001C91.0666 15.2739 91.5172 15.2093 91.6782 15.3062C91.8713 15.4355 92 14.8215 92 13.7229C92 12.1395 91.9356 11.9457 91.2919 11.8487C90.8735 11.7841 90.1333 11.9133 89.6505 12.1718C89.039 12.4304 88.5884 12.495 88.3631 12.3011C87.8482 11.881 84.5009 12.1718 84.2113 12.6565C84.0504 12.9474 83.8251 12.9474 83.4067 12.6889C82.4733 12.1072 80.1882 12.398 79.5767 13.1736C79.287 13.5613 79.1904 13.529 79.0295 13.0766C78.8686 12.6889 78.5146 12.5919 77.3559 12.7212C76.5513 12.7858 75.9076 12.7212 75.9076 12.5919C75.9076 12.1395 74.6846 12.5596 74.4915 13.0766C74.3627 13.4644 74.1696 13.3997 73.6547 12.8827C72.9788 12.2042 72.3673 12.0426 72.3673 12.5596C72.3673 12.7535 71.7558 12.8181 70.8868 12.7212C69.8568 12.6242 69.3741 12.7212 69.2775 13.0443C69.1166 13.4321 68.9557 13.4321 68.312 13.012C67.3142 12.3334 65.6406 12.2365 64.6107 12.7535C64.0314 13.0443 63.4199 13.0766 62.6796 12.8827C61.521 12.5919 60.4911 12.6242 59.9761 12.9474C59.783 13.0766 59.0427 13.012 58.3347 12.8181C57.1438 12.495 56.8542 12.5273 55.5346 13.2705C54.6656 13.7552 54.0219 13.9814 53.9254 13.7552C53.7644 13.2382 50.4816 13.1736 50.2563 13.7229C50.1276 14.1106 49.9988 14.0783 49.4195 13.6906C48.5505 13.0766 46.8125 13.0766 46.201 13.6582C45.8792 14.0137 44.8171 14.0783 41.3733 14.0137C37.0283 13.9168 36.1272 13.7552 36.4812 13.2059C36.7387 12.7858 36.0306 10.2977 35.6444 10.2977C35.4835 10.2977 35.5156 9.97455 35.7731 9.55448C36.4168 8.45583 36.2237 6.22623 35.3869 5.57996C35.0007 5.28915 35.0329 5.19221 35.4191 5.03064C35.8053 4.90139 35.9019 4.48132 35.8053 3.38267C35.7731 2.57484 35.8375 1.89626 35.9984 1.89626C36.4168 1.89626 35.9662 0.829931 35.3869 0.377547C34.5501 -0.236403 32.8121 -0.074837 32.4259 0.668365ZM34.8719 1.31463C34.2604 1.67007 33.9064 1.47619 34.1961 0.959184C34.3248 0.765305 34.6467 0.732992 34.9041 0.829931C35.3869 0.991497 35.3547 1.05612 34.8719 1.31463ZM73.6547 13.9814C73.6547 14.0783 73.5259 14.2399 73.3328 14.3368C73.1719 14.4338 73.011 14.3691 73.011 14.2076C73.011 14.0137 73.1719 13.8521 73.3328 13.8521C73.5259 13.8521 73.6547 13.9168 73.6547 13.9814ZM75.5857 14.1753C75.5857 14.3368 75.457 14.4984 75.2961 14.4984C75.103 14.4984 74.8777 14.3368 74.7811 14.1753C74.6846 13.9814 74.8133 13.8521 75.0708 13.8521C75.3605 13.8521 75.5857 13.9814 75.5857 14.1753ZM1.4641 16.9865C1.11007 17.3096 0.627298 16.728 0.820407 16.2433C0.981331 15.7586 1.0457 15.7909 1.30318 16.2756C1.49629 16.5664 1.52847 16.8896 1.4641 16.9865ZM30.527 31.9475C30.527 32.1091 30.3983 32.2706 30.2051 32.2706C30.0442 32.2706 29.8833 32.1091 29.8833 31.9475C29.8833 31.7536 30.0442 31.6244 30.2051 31.6244C30.3983 31.6244 30.527 31.7536 30.527 31.9475ZM32.4581 31.9475C32.4581 32.1091 32.3293 32.2706 32.1362 32.2706C31.9753 32.2706 31.8144 32.1091 31.8144 31.9475C31.8144 31.7536 31.9753 31.6244 32.1362 31.6244C32.3293 31.6244 32.4581 31.7536 32.4581 31.9475ZM37.6077 34.7587C37.6077 34.9526 37.8008 35.5342 38.0582 36.0513C38.3157 36.536 38.7341 37.8285 38.9916 38.8948C39.2169 39.9611 39.6031 40.8013 39.764 40.769C39.9571 40.7367 40.1824 41.286 40.279 41.9969C40.3756 42.7078 40.6652 43.5479 40.9549 43.871C41.2445 44.1942 41.3733 44.5496 41.2445 44.6466C41.148 44.7758 41.2445 44.8727 41.502 44.8727C41.8882 44.8727 41.8561 44.9374 41.4698 45.1959C41.1158 45.4221 41.0836 45.5836 41.3411 45.7452C41.7595 46.036 43.2078 48.718 43.24 49.235C43.2722 49.752 44.7205 51.9816 45.0424 51.9816C45.1711 51.9816 45.2355 52.2078 45.1389 52.4663C45.0102 52.7248 45.1067 52.951 45.332 52.951C45.5573 52.951 45.6539 53.1772 45.5251 53.468C45.3964 53.7912 45.5573 54.2112 45.9113 54.5344C46.2654 54.8252 46.7803 55.5361 47.07 56.1177C47.3597 56.6994 47.7459 57.0871 47.9068 56.9902C48.0999 56.8609 48.2608 56.9579 48.2608 57.1194C48.3574 57.798 48.3896 57.9596 48.8402 58.9936C49.0655 59.5752 49.4839 60.0599 49.7091 60.0599C49.9666 60.0599 50.1597 60.2861 50.1597 60.5446C50.1597 60.7708 50.4172 61.1586 50.7391 61.3201C51.0931 61.5463 51.1253 61.6433 50.8356 61.6756C50.6103 61.6756 50.4816 61.8695 50.5781 62.1603C50.7069 62.4188 50.5781 63.0327 50.3207 63.5174C50.0632 64.0021 49.8379 64.6161 49.8379 64.8423C49.8379 65.0685 49.7091 65.1977 49.516 65.0685C49.0976 64.81 46.8447 67.0719 47.0378 67.5889C47.1344 67.8474 46.8769 68.0413 46.2332 68.0736C45.1711 68.1705 43.4009 69.3338 43.4009 69.9801C43.4009 70.2063 43.2722 70.4001 43.0791 70.4001C42.9182 70.4001 42.7894 70.594 42.8538 70.7879C42.886 71.0464 42.6607 71.1756 42.3388 71.111C41.7595 71.0141 39.6353 72.8882 39.7962 73.4053C39.8284 73.5668 39.5709 73.5668 39.1847 73.4699C38.1226 73.1144 36.5456 73.5668 35.58 74.4716C35.0972 74.924 34.5501 75.1825 34.357 75.0855C34.1961 74.9563 33.5846 75.0532 33.0374 75.2794C32.2972 75.5702 31.9753 75.6025 31.9109 75.344C31.75 74.8917 30.7845 75.1825 30.4304 75.7641C30.2373 76.0872 30.0442 76.0549 29.5615 75.5702C28.8856 74.8917 28.2741 74.7301 28.2741 75.2471C28.2741 75.441 27.6625 75.5056 26.7936 75.4087C25.7636 75.3117 25.2809 75.4087 25.1843 75.7318C25.0234 76.0872 24.8303 76.0872 24.09 75.6025C23.3498 75.1825 22.7705 75.0855 21.3543 75.2471C20.3566 75.344 19.4876 75.344 19.4232 75.2148C19.1658 74.827 17.4921 74.6655 17.1059 74.9886C16.6553 75.344 16.0438 75.0855 16.0438 74.5039C16.0438 74.0838 14.0484 72.6621 13.469 72.6621C13.3081 72.6621 13.1472 72.5005 13.1472 72.3066C13.1472 72.1127 12.8897 72.0481 12.5679 72.145C12.1173 72.3066 11.9885 72.1774 12.0207 71.4665C12.0529 70.4648 11.4736 69.1399 10.8943 68.7845C10.6368 68.6229 10.6046 68.3644 10.8299 67.9443C10.9908 67.5889 11.0552 66.8134 10.9586 66.1994C10.8621 65.5855 10.7977 62.9681 10.8299 60.3831C10.8299 57.2164 10.7011 55.633 10.4437 55.4715C10.2184 55.3099 10.2506 55.213 10.5724 55.213C11.2805 55.213 12.0207 53.3711 12.0529 51.4969C12.1173 49.0735 12.1495 48.8473 12.6001 48.3626C12.9541 48.0071 13.5656 46.2945 13.9196 44.6142C13.9518 44.3557 14.1771 44.0649 14.4024 43.9357C14.6277 43.7741 14.853 43.2894 14.853 42.8047C14.8852 42.3523 15.0461 41.9646 15.207 41.9646C15.3358 41.9646 15.4001 41.6091 15.3358 41.1567C15.207 40.5105 15.3036 40.3489 15.7863 40.3489C16.591 40.3489 18.2002 38.5394 18.4899 37.3761C18.5864 36.8591 18.8439 36.5036 19.037 36.5683C19.2623 36.6329 19.5842 36.536 19.7773 36.3421C20.0026 36.1482 20.5497 35.6958 21.0003 35.3727C21.4509 35.0495 21.8371 34.5972 21.8371 34.4033C21.8371 34.2094 22.3199 34.0155 22.9314 33.9832C23.5429 33.9509 24.5084 33.6924 25.0556 33.4016C25.6671 33.0784 26.2142 32.9815 26.4395 33.1431C26.6648 33.3046 27.3407 33.4339 27.9522 33.4016C28.5637 33.3693 29.2396 33.4662 29.4327 33.6278C29.6258 33.757 30.0442 33.6601 30.3983 33.4339C30.9132 33.0461 31.1385 33.0461 31.9431 33.4662C32.4903 33.757 32.9409 33.8216 33.0696 33.6601C33.1662 33.4662 33.8742 33.3693 34.6467 33.4339C35.6444 33.4662 36.095 33.3693 36.2237 33.0138C36.3524 32.6584 36.5456 32.7876 36.9961 33.4662C37.3502 33.9509 37.6077 34.5325 37.6077 34.7587ZM43.6584 33.9832C43.8515 33.8863 44.0446 33.9832 44.0446 34.1771C44.0446 34.4033 44.3021 34.4033 44.8492 34.2094C45.4608 33.9832 45.686 34.0155 45.9113 34.4033C46.0723 34.6941 46.3297 34.9203 46.4907 34.9203C46.6516 34.9203 47.07 35.0495 47.424 35.1788C47.7781 35.3081 48.293 35.4696 48.5505 35.5666C48.808 35.6635 49.4517 35.5342 49.9344 35.2757C50.4172 35.0172 50.9965 34.9526 51.2218 35.0819C51.4471 35.2111 51.9943 35.3404 52.477 35.3404C52.9598 35.3404 53.4426 35.4696 53.5713 35.5989C53.7001 35.7281 53.9897 35.6635 54.2472 35.4696C54.5047 35.2434 54.6656 35.2111 54.6656 35.4373C54.6656 36.0513 56.4358 36.9237 57.5622 36.8268C58.1738 36.7945 59.1071 36.9883 59.6543 37.2468C60.6842 37.7639 61.4888 38.0224 61.7463 37.9577C61.8428 37.9577 62.3256 38.1839 62.8084 38.5071C63.2911 38.8302 63.8383 38.9918 63.9992 38.8948C64.1601 38.7979 64.6107 39.0241 64.9648 39.3795C65.5763 39.9935 65.5763 40.1227 65.1579 40.9629C64.8682 41.4799 64.4498 41.9646 64.1923 42.0615C63.9027 42.1908 63.7739 42.5462 63.8383 42.9663C63.9348 43.4833 63.7095 43.9357 63.0015 44.5173C61.8428 45.4867 61.0382 46.9085 61.3922 47.3285C61.7463 47.684 61.2635 49.0735 60.7807 49.0735C60.6198 49.0735 60.4589 49.2673 60.4589 49.5258C60.4589 49.752 60.2336 50.1398 59.9761 50.366C59.7186 50.5922 59.4933 51.0446 59.4933 51.3677C59.4933 51.6908 59.0749 52.4017 58.56 52.9833C58.045 53.5327 57.5301 54.5021 57.4013 55.0837C57.3048 55.6977 57.0473 56.1823 56.822 56.1823C56.3392 56.1823 55.3093 57.3456 55.3093 57.8949C55.3093 58.412 54.2472 59.349 53.507 59.4783C53.1529 59.5429 52.8633 59.2521 52.638 58.6058C52.477 58.0565 52.2196 57.5718 52.123 57.4749C52.0265 57.3779 51.769 57.0225 51.5437 56.667C51.3506 56.3116 51.0287 56.0531 50.8678 56.0854C50.7069 56.1177 50.4494 55.6653 50.3528 55.0514C50.2241 54.4374 49.7735 53.6619 49.3551 53.3065C48.9045 52.9833 48.5505 52.531 48.5505 52.3371C48.5505 52.1432 48.4218 51.9816 48.2286 51.9816C48.0677 51.9816 48.0034 51.7554 48.0999 51.4969C48.4218 50.6891 47.3275 48.7826 46.4585 48.5564C45.8148 48.3949 45.686 48.201 45.847 47.6194C46.0401 46.8115 45.2998 44.8081 44.5274 44.0326C44.2699 43.7418 44.0446 43.1925 44.0446 42.8047C44.0446 42.4169 43.9481 41.9646 43.8193 41.8353C43.594 41.6091 42.9825 39.9935 42.2423 37.6992C41.9848 36.8591 41.5342 35.922 41.2445 35.6312C40.7618 35.1465 40.7618 35.0495 41.1802 34.7264C41.4698 34.5325 41.6308 34.2094 41.5664 33.9832C41.4698 33.6924 41.6951 33.6601 42.3388 33.854C42.8216 33.9832 43.4331 34.0478 43.6584 33.9832ZM78.7077 66.0702C78.6111 66.1671 78.3215 66.1994 78.0962 66.1025C77.8387 66.0055 77.9352 65.9086 78.2893 65.9086C78.6433 65.8763 78.8364 65.9732 78.7077 66.0702ZM58.045 67.4919C58.1416 67.6535 58.1094 67.8151 57.9163 67.8151C57.7554 67.8151 57.4979 67.6535 57.4013 67.4919C57.3048 67.2981 57.337 67.1688 57.5301 67.1688C57.691 67.1688 57.9485 67.2981 58.045 67.4919ZM59.3324 68.7522C59.429 68.9137 59.3646 69.1399 59.1715 69.2692C59.0106 69.3661 58.8496 69.2369 58.8496 68.9784C58.8496 68.3967 59.0427 68.2998 59.3324 68.7522ZM29.5615 76.6689C29.5615 76.7658 29.4327 76.9274 29.2396 77.0243C29.0787 77.1213 28.9178 77.0566 28.9178 76.8951C28.9178 76.7012 29.0787 76.5396 29.2396 76.5396C29.4327 76.5396 29.5615 76.6043 29.5615 76.6689ZM31.4925 76.8628C31.4925 77.0243 31.3638 77.1859 31.2029 77.1859C31.0098 77.1859 30.7845 77.0243 30.6879 76.8628C30.5914 76.6689 30.7201 76.5396 30.9776 76.5396C31.2672 76.5396 31.4925 76.6689 31.4925 76.8628Z"
          fill="white"/>
</svg>
