<svg width="92" height="72" viewBox="0 0 92 72" fill="none" xmlns="http://www.w3.org/2000/svg">
    <path d="M65.1697 0.591258C64.8501 0.920998 64.5534 1.27348 64.5192 1.37581C64.4736 1.48952 64.3709 1.58048 64.2796 1.58048C64.1997 1.58048 64.0856 1.71692 64.0399 1.88748C64.0057 2.05803 63.8802 2.27407 63.7661 2.36503C63.6634 2.46736 63.5607 2.67203 63.5607 2.81985C63.5492 2.96766 63.4922 3.12684 63.4351 3.16096C63.2982 3.25192 63.07 4.55951 63.1613 4.70732C63.2868 4.90062 63.3096 5.24173 63.1955 5.17351C63.1384 5.1394 63.1156 5.27584 63.127 5.48051C63.1499 5.6738 63.1042 5.91258 63.0357 5.99217C62.9445 6.10587 62.9559 6.1741 63.0586 6.23095C63.2183 6.33328 63.2183 6.45836 63.0472 6.66302C62.9787 6.75398 62.9787 6.87906 63.07 7.02687C63.1499 7.18606 63.1499 7.26565 63.0814 7.26565C62.9559 7.26565 63.0357 8.18665 63.1727 8.28898C63.2183 8.32309 63.2411 8.44817 63.2411 8.57324C63.2411 8.69831 63.2868 8.90298 63.3553 9.02805C63.4237 9.15313 63.4808 9.35779 63.4694 9.48287C63.4694 9.60794 63.515 9.74438 63.5721 9.78987C63.6291 9.82398 63.6748 10.0286 63.6634 10.2333C63.6634 10.438 63.709 10.6995 63.7661 10.8132C63.8345 10.9383 63.8916 11.1429 63.9144 11.2794C63.9601 11.6773 64.1198 12.2004 64.2339 12.3482C64.3024 12.4278 64.3709 12.6779 64.3937 12.9053C64.4165 13.1441 64.485 13.3829 64.5534 13.4511C64.6105 13.508 64.6676 13.6785 64.6676 13.8263C64.6676 13.9742 64.7246 14.0879 64.7931 14.0879C64.8501 14.0879 64.8844 14.1333 64.8501 14.1902C64.7817 14.2925 65.0213 15.0202 65.1582 15.1226C65.2838 15.2135 65.1354 16.0208 64.9985 16.0208C64.9414 16.0208 64.9072 15.964 64.93 15.8957C64.9414 15.8275 64.8501 15.7593 64.7246 15.7366C64.3366 15.7024 63.9829 15.5546 63.9829 15.4296C63.9829 15.3727 63.9144 15.3386 63.8231 15.3727C63.7432 15.4068 63.5607 15.3613 63.4237 15.2704C63.2868 15.1794 63.127 15.1339 63.07 15.168C63.0015 15.2135 62.8874 15.2021 62.8075 15.1339C62.7276 15.0771 62.3739 15.043 62.0201 15.0543C61.655 15.0657 61.3583 15.0316 61.3583 14.9861C61.3583 14.9293 61.2442 14.9293 61.1072 14.9861C60.9589 15.043 60.7192 15.0316 60.5595 14.9747C60.3769 14.9065 60.2628 14.9065 60.24 14.9861C60.2171 15.0543 60.103 15.0657 59.9547 15.0089C59.5781 14.861 58.4256 14.9747 58.1175 15.168C57.9691 15.2704 57.798 15.3386 57.7523 15.3159C57.6953 15.3045 57.5355 15.3613 57.3871 15.4409C57.2388 15.5205 57.0562 15.5546 56.9763 15.5319C56.9079 15.4978 56.7481 15.5433 56.6226 15.6342C56.5085 15.7252 56.3145 15.7934 56.189 15.7934C55.9607 15.7934 55.2761 16.1345 55.219 16.2823C55.1962 16.3278 55.1277 16.3278 55.0707 16.2937C55.0022 16.2596 54.8652 16.2937 54.7625 16.3847C54.6598 16.4756 54.4316 16.6121 54.2604 16.703C54.0779 16.7826 53.9409 16.8963 53.9409 16.9532C53.9409 17.01 53.8953 17.0214 53.8268 16.9873C53.7698 16.9532 53.7127 16.9646 53.7127 17.0214C53.7127 17.0783 53.6442 17.1237 53.5644 17.1237C53.3818 17.1237 52.6857 17.624 52.6857 17.7491C52.6857 17.806 52.64 17.8287 52.583 17.7946C52.4689 17.7264 52.001 18.0561 51.5217 18.5337C51.3392 18.727 51.2022 18.7952 51.168 18.7156C51.1452 18.636 51.0539 18.7156 50.974 18.8861C50.8941 19.0681 50.78 19.2159 50.7229 19.2159C50.6773 19.2273 50.5632 19.2386 50.4947 19.25C50.4148 19.2614 50.3578 19.3296 50.3806 19.4092C50.392 19.4888 50.3007 19.5456 50.1752 19.5456C49.8671 19.5456 49.2623 19.8526 49.2623 20.0118C49.2623 20.08 49.1938 20.1141 49.1254 20.08C49.0455 20.0573 48.8287 20.1596 48.6461 20.3302C48.4635 20.4894 48.3494 20.5462 48.395 20.4552C48.4407 20.3643 48.3608 20.4325 48.201 20.6031C48.0527 20.785 47.8587 20.9328 47.7674 20.9442C47.505 20.9897 47.311 21.1488 47.3794 21.2625C47.4251 21.3194 47.3908 21.3649 47.3224 21.3649C47.1512 21.3649 46.4095 22.1722 46.4095 22.3541C46.4095 22.4337 46.3638 22.5019 46.2954 22.5019C46.2383 22.5019 46.1812 22.6042 46.1812 22.7179C46.1812 22.843 46.1014 23.0136 46.0101 23.1159C45.9188 23.2069 45.8389 23.3547 45.8389 23.4456C45.8389 23.5252 45.702 23.6731 45.5308 23.7526C45.3368 23.8322 45.2683 23.9118 45.3596 23.9459C45.4509 23.9801 45.3254 24.1506 45.0401 24.4008C44.7891 24.6282 44.5837 24.8783 44.5837 24.9579C44.5837 25.0489 44.5494 25.1057 44.5038 25.1057C44.2527 25.0602 44.15 25.1512 44.093 25.4582C44.0359 25.697 43.956 25.7993 43.7849 25.7993C43.6251 25.7993 43.5566 25.8789 43.5566 26.0381C43.5566 26.1632 43.511 26.2428 43.4539 26.2086C43.3398 26.1404 42.6209 26.9705 42.6552 27.1296C42.6894 27.3457 42.6323 27.5162 42.541 27.4594C42.4954 27.4253 42.3927 27.6072 42.3128 27.846C42.2443 28.0961 42.1302 28.3008 42.0618 28.3008C41.9933 28.3008 41.9705 28.3917 42.0161 28.5168C42.0504 28.6305 42.0047 28.7783 41.9134 28.8579C41.8221 28.9375 41.708 29.2104 41.6738 29.4719C41.6281 29.7335 41.5483 30.0063 41.4912 30.0746C41.4341 30.1428 41.4113 30.302 41.4456 30.4384C41.4684 30.5749 41.4456 30.6886 41.3771 30.6886C41.32 30.6886 41.2744 30.8364 41.2744 31.0183C41.2744 31.2002 41.1945 31.4049 41.1032 31.4845C40.8978 31.655 40.875 31.8711 41.0804 31.7574C41.1489 31.7119 41.1032 31.8029 40.9663 31.962C40.8179 32.1099 40.7038 32.3259 40.7038 32.4282C40.7038 32.5306 40.6582 32.6329 40.6011 32.667C40.5441 32.7125 40.4642 32.9967 40.4185 33.3037C40.3729 33.6221 40.293 33.8723 40.236 33.8723C40.1789 33.8723 40.1333 33.9973 40.1333 34.1565C40.1333 34.3157 40.042 34.5886 39.9393 34.7478C39.8252 34.9183 39.8023 35.0207 39.8822 34.9752C40.0762 34.8501 40.0534 35.0093 39.7909 35.4982C39.6654 35.737 39.5513 36.0554 39.5399 36.2032C39.5285 36.3624 39.4828 36.4874 39.4372 36.4874C39.4029 36.4874 39.3002 36.7262 39.2318 37.0218C39.1519 37.3288 39.0149 37.8291 38.9237 38.1475C38.8324 38.4772 38.7297 38.8525 38.7183 39.0003C38.684 39.2618 38.627 39.4437 38.433 39.9554C38.3759 40.0805 38.3531 40.3761 38.3759 40.6149C38.3987 40.8536 38.3645 41.0128 38.3189 40.9901C38.2618 40.956 38.2162 41.0924 38.2047 41.2971C38.1819 42.1271 38.1363 42.4 38.0678 42.4C38.0222 42.4 37.9423 42.6388 37.8966 42.9344C37.8624 43.2414 37.7711 43.537 37.7141 43.6166C37.657 43.6962 37.6456 43.8213 37.6912 43.9009C37.8282 44.1169 37.851 44.333 37.7255 44.333C37.6684 44.333 37.6456 44.4694 37.6684 44.6286C37.7026 44.7992 37.6684 45.0379 37.5999 45.163C37.5087 45.3449 37.5087 45.4132 37.6114 45.4473C37.7141 45.4814 37.7141 45.5496 37.5885 45.7315C37.4972 45.8907 37.4402 46.2887 37.4516 46.8003C37.4516 47.2438 37.4174 47.5849 37.3717 47.5621C37.3375 47.5394 37.3033 47.71 37.3147 47.9374C37.3261 48.1761 37.2918 48.4945 37.2348 48.6423C37.1663 48.8243 37.1777 48.8811 37.269 48.8356C37.4288 48.7333 37.4288 48.8356 37.269 49.1199C37.1207 49.4155 37.0522 50.5867 37.1891 50.8368C37.2462 50.9619 37.2348 51.1211 37.1435 51.2575C37.0408 51.4281 37.0408 51.519 37.1549 51.6441C37.2234 51.7464 37.2462 51.8488 37.1891 51.8829C37.0636 51.9511 37.0978 52.8266 37.2234 53.1336C37.2918 53.2928 37.2804 53.3269 37.1891 53.2701C37.0294 53.1791 37.0294 53.2701 37.1549 53.5998C37.212 53.7249 37.212 53.9409 37.1549 54.0774C37.0978 54.2365 37.1093 54.3389 37.2006 54.373C37.3033 54.4071 37.3033 54.4753 37.212 54.6345C37.075 54.8733 37.0864 56.0899 37.2234 56.4083C37.269 56.5333 37.2576 56.6129 37.1777 56.6129C37.0978 56.6129 37.0864 56.7039 37.1549 56.8631C37.212 57.0109 37.212 57.2383 37.1549 57.3748C37.0978 57.5453 37.0978 57.6363 37.1777 57.6363C37.2576 57.6363 37.2804 57.7841 37.2348 58.0456C37.1777 58.2958 37.2006 58.5118 37.2918 58.6141C37.3831 58.7278 37.3831 58.7733 37.2918 58.7733C37.1777 58.7733 37.212 59.2963 37.3603 59.6829C37.4516 59.899 37.5315 60.4447 37.5315 60.8427C37.5429 61.0246 37.5771 61.1611 37.6228 61.1611C37.7483 61.1611 37.8396 61.6045 37.7369 61.6727C37.657 61.7182 37.657 62.5824 37.7369 62.5824C37.7483 62.5824 37.7597 62.8098 37.7825 63.094C37.7939 63.3783 37.8738 63.7194 37.9537 63.8672C38.0222 64.0037 38.0564 64.1856 38.0108 64.2538C37.9081 64.413 37.9537 65.5159 38.0564 65.5955C38.1249 65.641 38.1591 65.8002 38.2162 66.3914C38.2162 66.4824 38.2732 66.5847 38.3189 66.6188C38.3759 66.653 38.433 66.8576 38.4672 67.0737C38.5014 67.2897 38.5699 67.6194 38.627 67.8127C38.684 67.9947 38.7068 68.2221 38.6726 68.313C38.6384 68.404 38.6726 68.4381 38.7411 68.3926C38.8666 68.3244 38.8666 68.6087 38.7411 68.7337C38.6954 68.7678 38.684 68.8588 38.7068 68.927C38.8438 69.3022 38.8324 70.246 38.6954 70.3028C38.6156 70.3369 38.5243 70.3028 38.49 70.2232C38.4558 70.1323 38.4101 70.1209 38.3417 70.2119C38.296 70.2687 38.1249 70.3256 37.9651 70.3256C37.8054 70.3256 37.6456 70.2687 37.5999 70.2119C37.5315 70.1209 37.4858 70.1209 37.4288 70.2005C37.3489 70.3028 37.1207 70.3369 37.0294 70.2687C36.9381 70.2005 35.5687 70.1891 35.5687 70.246C35.5687 70.2915 35.466 70.3256 35.3405 70.3369C35.215 70.3483 35.1123 70.3028 35.1123 70.246C35.1123 70.1778 35.0324 70.1778 34.8955 70.246C34.7814 70.3142 34.6558 70.3369 34.6216 70.2915C34.5417 70.2232 33.8685 70.1209 33.4348 70.1209C33.2865 70.1209 33.1724 70.0754 33.1724 70.0186C33.1724 69.9617 33.0468 69.939 32.8871 69.9617C32.7387 69.9958 32.579 69.9731 32.5447 69.9276C32.5219 69.8708 32.3507 69.8594 32.191 69.8935C31.9742 69.9276 31.9057 69.9049 31.9628 69.8139C32.0198 69.7343 31.9285 69.6888 31.7003 69.6888C31.5063 69.6888 31.3237 69.7002 31.2895 69.7116C31.2667 69.7343 31.164 69.6434 31.0613 69.5183C30.9586 69.3932 30.9129 69.3705 30.9586 69.4501C31.0156 69.5524 30.9129 69.5183 30.6961 69.3705C30.3652 69.1431 29.7033 68.8361 29.6805 68.9157C29.6805 68.9384 29.5892 68.8588 29.4751 68.7451C29.361 68.6428 29.2126 68.5518 29.1213 68.5518C29.0415 68.5518 28.9502 68.5063 28.9274 68.4381C28.9045 68.3812 28.7562 68.313 28.585 68.3017C28.4138 68.2903 28.3111 68.2221 28.3454 68.1652C28.391 68.1084 28.334 68.0856 28.2199 68.1311C28.1057 68.1766 28.0487 68.1652 28.0943 68.097C28.1742 67.9719 27.2727 67.3465 27.17 67.4489C27.1244 67.483 26.9646 67.3693 26.7934 67.1987C26.6337 67.0282 26.337 66.8235 26.1316 66.7439C25.9262 66.6643 25.7778 66.5393 25.7892 66.4824C25.8007 66.4142 25.7208 66.346 25.6067 66.3346C25.4926 66.3118 25.2986 66.1754 25.173 66.0276C25.0361 65.8798 24.8878 65.7661 24.8421 65.7661C24.7851 65.7661 24.6025 65.5841 24.4427 65.3681C24.283 65.1521 24.1232 64.9929 24.1004 65.027C24.0661 65.0611 23.9749 64.9701 23.8721 64.8451C23.7809 64.7086 23.5755 64.5608 23.4043 64.5267C23.2445 64.4812 23.1304 64.413 23.1761 64.3789C23.2103 64.3448 23.0848 64.2197 22.9022 64.106C22.7082 63.9809 22.5599 63.8104 22.5599 63.7194C22.5599 63.6284 22.4914 63.5602 22.4229 63.5716C22.343 63.5943 22.286 63.5261 22.3088 63.4238C22.3202 63.3214 22.1605 63.0713 21.9322 62.878C21.7154 62.6961 21.5328 62.48 21.5328 62.4118C21.5328 62.355 21.4758 62.2981 21.4073 62.2981C21.2133 62.2981 20.9965 62.0252 21.0536 61.8547C21.0878 61.7637 21.0536 61.7296 20.9965 61.7637C20.9394 61.7978 20.8025 61.65 20.6998 61.434C20.5857 61.2179 20.4488 61.0701 20.3917 61.1042C20.3232 61.1383 20.2662 61.1042 20.2662 61.0246C20.2434 60.7404 20.2091 60.6494 20.0494 60.331C19.9695 60.1605 19.8326 60.024 19.7527 60.024C19.6614 60.024 19.6271 59.9331 19.65 59.7966C19.6842 59.6261 19.6157 59.5237 19.4217 59.4555C19.2163 59.3759 19.1365 59.2622 19.1365 59.0462C19.1365 58.8529 19.068 58.7278 18.9082 58.6937C18.7827 58.6596 18.68 58.5459 18.68 58.4436C18.68 58.2389 18.2806 57.8296 17.9725 57.7159C17.8584 57.6818 17.7671 57.5681 17.7671 57.4657C17.7671 57.3748 17.7215 57.2952 17.6758 57.2952C17.5503 57.2952 17.0596 56.8858 17.071 56.7949C17.0824 56.7608 17.0482 56.7266 17.014 56.738C16.9797 56.738 16.8428 56.6129 16.6944 56.4538C16.5575 56.2946 16.3863 56.1581 16.3065 56.1581C16.2266 56.1581 16.1695 56.1126 16.1695 56.0558C16.1695 55.9194 15.599 55.5669 15.3251 55.5328C15.1882 55.5214 15.017 55.4986 14.9371 55.4873C14.8572 55.4873 14.823 55.4191 14.8572 55.3622C14.8915 55.294 14.8002 55.2485 14.6404 55.2485C14.4921 55.2485 14.2867 55.1689 14.184 55.0779C14.0927 54.987 13.9443 54.9415 13.853 54.9756C13.7389 55.0097 13.6248 54.9415 13.5449 54.7937C13.4765 54.6572 13.3852 54.5777 13.3509 54.6118C13.3167 54.6459 13.1341 54.589 12.9401 54.4867C12.7461 54.3957 12.3581 54.2934 12.0729 54.2593C11.7876 54.2365 11.5365 54.1797 11.5137 54.1228C11.5023 54.0774 11.3311 54.066 11.1485 54.0887C10.9546 54.1115 10.8062 54.0887 10.8062 54.0319C10.8062 53.975 10.6122 53.9182 10.384 53.9182C10.1444 53.9068 9.71072 53.8841 9.41403 53.8499C9.10592 53.8272 8.86629 53.8499 8.86629 53.9182C8.86629 53.9864 8.82064 53.9864 8.72935 53.9182C8.64947 53.8499 8.35278 53.8272 8.0675 53.8499C7.78221 53.8727 7.47411 53.8841 7.38282 53.8841C6.82366 53.8386 5.95641 53.9068 5.92217 53.9978C5.89935 54.066 5.81947 54.0774 5.751 54.0319C5.56842 53.9182 4.82669 53.9978 4.74681 54.1342C4.70116 54.1911 4.48435 54.2479 4.26753 54.2479C4.03931 54.2479 3.79967 54.3161 3.7312 54.3957C3.66273 54.4867 3.48015 54.5208 3.32039 54.4981C3.17205 54.4753 3.04652 54.4981 3.04652 54.5549C3.04652 54.6118 2.90959 54.6345 2.73842 54.6118C2.25914 54.5208 1.88257 54.6572 1.95104 54.8846C1.99668 55.0211 1.88257 55.1462 1.54023 55.3167C1.27777 55.4532 1.0039 55.6465 0.935432 55.7715C0.878376 55.8852 0.752851 56.0558 0.672972 56.1468C0.467569 56.3628 0.262165 56.8631 0.296399 57.0564C0.319222 57.1473 0.239343 57.2952 0.136641 57.3634C-0.331222 57.7045 0.513214 58.7051 1.0039 58.3981C1.12942 58.3185 1.22071 58.1479 1.22071 58.0115C1.22071 57.8637 1.26636 57.75 1.32342 57.75C1.41471 57.75 1.66576 57.3293 2.05374 56.5561C2.17926 56.3173 3.21769 55.7602 3.50298 55.7829C3.59427 55.7943 3.92519 55.6692 4.2333 55.5214C4.5414 55.3622 4.87233 55.2712 4.96362 55.3054C5.0435 55.3395 5.18044 55.3281 5.2489 55.2826C5.32878 55.2371 5.59124 55.1916 5.84229 55.1689C6.09334 55.1575 6.32157 55.1462 6.3558 55.1348C6.39003 55.1234 6.52697 55.1234 6.66391 55.1348C6.80084 55.1348 7.10895 55.1007 7.33717 55.0325C7.57681 54.9642 7.81645 54.9529 7.88492 55.0097C7.95338 55.0552 8.50113 55.0893 9.09451 55.0779C9.6879 55.0666 10.2471 55.0893 10.3498 55.1462C10.829 55.3963 11.217 55.4418 11.4338 55.2826C11.6164 55.1575 11.6849 55.1575 11.7762 55.2712C11.9588 55.4873 12.4038 55.7147 12.5179 55.6465C12.575 55.6124 12.6434 55.6351 12.6891 55.7033C12.7347 55.7829 12.826 55.7829 12.9858 55.7033C13.1341 55.6124 13.2026 55.6237 13.2026 55.7033C13.2026 56.0672 14.1383 56.5675 14.629 56.4765C14.8002 56.4424 14.9143 56.4651 14.9143 56.5447C14.9143 56.738 15.6788 57.2156 15.8728 57.1473C15.9755 57.1019 16.0554 57.1815 16.1125 57.3861C16.2038 57.7386 16.7857 58.2958 17.1623 58.3867C17.3107 58.4322 17.3905 58.5118 17.3449 58.6141C17.3107 58.7051 17.3449 58.7733 17.4134 58.7733C17.4818 58.7733 17.5389 58.8529 17.5389 58.9439C17.5389 59.0462 17.6188 59.1485 17.71 59.1826C17.8013 59.2281 17.8812 59.3532 17.8812 59.4669C17.8812 59.6602 17.9953 59.7284 18.235 59.7057C18.2806 59.6943 18.3491 59.8649 18.3833 60.0809C18.429 60.3197 18.5317 60.4789 18.623 60.4789C18.7142 60.4789 18.7941 60.5812 18.7941 60.7063C18.7941 60.8313 18.8512 60.9337 18.9082 60.9337C18.9767 60.9337 19.0223 61.0133 19.0223 61.1042C19.0223 61.1952 19.1136 61.2748 19.2278 61.2748C19.3875 61.2748 19.4446 61.3657 19.4446 61.5932C19.4446 62.0025 19.9809 62.7302 20.3461 62.8211C20.4944 62.8553 20.6085 62.9235 20.5971 62.969C20.5629 63.2987 21.0307 63.89 21.3503 63.89C21.453 63.89 21.5328 63.9582 21.5214 64.0264C21.453 64.4244 22.0578 65.243 22.4229 65.2544C22.4914 65.2544 22.5599 65.2999 22.5599 65.3681C22.5599 65.425 22.6397 65.4477 22.731 65.4136C22.8337 65.3681 22.9022 65.4136 22.9022 65.5273C22.9022 65.6296 22.9821 65.7092 23.0734 65.7092C23.1647 65.7092 23.2331 65.7433 23.2217 65.7888C23.1761 65.9253 23.6782 66.3914 23.8721 66.3914C23.9634 66.3914 24.0433 66.4483 24.0433 66.5279C24.0433 66.7098 24.8649 67.4148 25.0932 67.4148C25.1959 67.4148 25.504 67.6194 25.7664 67.8696C26.0403 68.1197 26.3142 68.3244 26.394 68.3244C26.4739 68.3244 26.5652 68.404 26.5995 68.5063C26.6451 68.6087 26.7022 68.6655 26.7478 68.62C26.7934 68.5859 26.9646 68.6882 27.1472 68.8588C27.3526 69.0521 27.5922 69.1658 27.8547 69.1658C28.0715 69.1772 28.2313 69.1999 28.2084 69.234C28.1286 69.3705 28.334 69.541 28.8589 69.7798C29.1556 69.9162 29.4523 70.0299 29.5093 70.0299C29.5664 70.0299 29.6463 70.1095 29.6805 70.2005C29.7147 70.3028 29.806 70.3711 29.8859 70.3597C30.0913 70.3142 30.5478 70.4848 30.5478 70.5985C30.5478 70.7576 31.3351 70.9623 31.7231 70.9055C31.9514 70.8714 32.1339 70.9168 32.2024 71.0192C32.3393 71.2011 33.6288 71.3489 33.6288 71.1784C33.6288 71.1101 33.7315 71.1442 33.857 71.2579C34.1766 71.5308 34.8726 71.6104 35.2606 71.4171C35.4889 71.3148 35.6258 71.3034 35.7285 71.383C35.9111 71.5308 36.8354 71.4399 36.9495 71.2579C37.018 71.1556 37.0522 71.1556 37.1093 71.2921C37.1435 71.3944 37.269 71.4853 37.3717 71.4967C38.0564 71.5649 38.2846 71.5536 38.5585 71.4285C38.9465 71.2352 39.0264 71.2466 38.9579 71.4399C38.878 71.6445 39.3231 71.8378 39.6996 71.7696C39.848 71.7355 40.2474 71.7923 40.5669 71.8833C41.1032 72.0425 41.1603 72.0425 41.32 71.8606C41.4227 71.7469 41.4684 71.6332 41.4341 71.5877C41.3885 71.5536 41.514 71.4853 41.6852 71.4399C41.8678 71.3944 42.0732 71.3262 42.1302 71.2807C42.2558 71.1897 42.4269 71.167 43.123 71.1556C43.3741 71.1442 43.5224 71.0988 43.4882 71.0305C43.4425 70.9623 43.511 70.9623 43.6479 71.0419C43.8191 71.1329 43.956 71.1215 44.2299 70.9851C44.4239 70.8941 44.5837 70.769 44.5837 70.7122C44.5837 70.6667 44.8233 70.6212 45.1314 70.6098C46.0557 70.5757 46.3752 70.5189 46.7975 70.2801C46.8545 70.246 46.8659 70.2801 46.8203 70.3483C46.7746 70.4279 46.8089 70.4848 46.9116 70.4848C47.0143 70.4848 47.0942 70.4279 47.0942 70.3597C47.0942 70.2801 47.2539 70.246 47.4935 70.2801C47.7104 70.3028 47.8929 70.2801 47.8929 70.2346C47.8929 70.1891 48.0299 70.2005 48.1896 70.2574C48.3494 70.3256 48.532 70.3369 48.6004 70.3028C48.6575 70.2574 48.9314 70.2232 49.1824 70.2005C49.4449 70.1891 49.7872 70.1209 49.947 70.0641C50.1067 69.9958 50.2551 69.9731 50.2893 70.0186C50.3806 70.1323 51.2136 70.0754 51.2935 69.9617C51.3392 69.9049 51.4989 69.8708 51.6587 69.8935C52.583 70.0072 53.7926 69.9845 54.0779 69.848C54.2833 69.7457 54.4088 69.7343 54.4544 69.8025C54.5457 69.9504 55.6755 69.8253 55.7782 69.6547C55.8238 69.5979 55.8809 69.5979 55.9151 69.6547C55.9836 69.7571 56.6568 69.7571 57.1703 69.6434C57.3986 69.5865 57.4784 69.6092 57.4214 69.7002C57.3643 69.7912 57.41 69.8025 57.604 69.7343C57.7523 69.6775 58.049 69.6434 58.2544 69.6434C58.4484 69.6434 58.6196 69.6206 58.6196 69.5751C58.6196 69.5297 58.6994 69.4955 58.7907 69.4955C58.882 69.4955 58.9619 69.5297 58.9619 69.5751C58.9619 69.6434 59.852 69.6434 59.9889 69.5751C60.0232 69.5638 60.1601 69.5638 60.3084 69.5751C60.4454 69.5865 60.5595 69.5297 60.5595 69.4501C60.5595 69.3477 60.5937 69.3477 60.7192 69.4501C60.8448 69.5524 60.9475 69.5638 61.1186 69.4614C61.3012 69.3705 61.4267 69.3705 61.5979 69.4728C61.7805 69.5638 61.8604 69.5638 61.9288 69.4728C62.0201 69.3136 62.2484 69.3022 62.8646 69.3932C63.1156 69.4387 63.321 69.4159 63.3667 69.3364C63.4123 69.2454 63.4694 69.2568 63.5378 69.3591C63.6063 69.4614 63.6748 69.4728 63.7318 69.4046C63.8459 69.2454 64.2111 69.1999 64.2111 69.3364C64.2111 69.4159 64.3138 69.4159 64.4736 69.3705C64.7703 69.2568 64.9072 69.2681 65.1012 69.3932C65.1811 69.4387 65.318 69.4273 65.3979 69.3591C65.4778 69.2909 65.5805 69.2681 65.6261 69.3136C65.7516 69.4387 66.6075 69.4501 66.6075 69.3364C66.6075 69.2681 66.6988 69.2795 66.8357 69.3477C66.9955 69.4387 67.1324 69.4387 67.2922 69.3477C67.4519 69.2568 67.5774 69.2681 67.7372 69.3705C67.9084 69.4728 67.9997 69.4728 68.1252 69.3705C68.2051 69.2909 68.3192 69.2681 68.3648 69.3136C68.4903 69.4387 69.3462 69.4501 69.3462 69.325C69.3462 69.2568 69.4831 69.234 69.6543 69.2681C69.8255 69.3022 70.0651 69.2795 70.1678 69.2227C70.3047 69.1544 70.4531 69.1544 70.6014 69.234C70.7384 69.3022 70.8297 69.3136 70.8297 69.2454C70.8297 69.1885 70.921 69.1544 71.0351 69.1772C71.1378 69.1999 71.2291 69.2227 71.2291 69.234C71.2291 69.2454 71.5486 69.2681 71.948 69.2795C72.336 69.2909 72.6555 69.2681 72.6555 69.234C72.6555 69.1999 72.7582 69.1658 72.8837 69.1544C73.0092 69.1431 73.0891 69.1772 73.0549 69.2227C73.032 69.2795 73.2032 69.3022 73.4543 69.2909C73.7053 69.2795 73.9107 69.3136 73.9107 69.3591C73.9107 69.4159 73.9906 69.4614 74.0933 69.4614C74.196 69.4614 74.2302 69.4046 74.1846 69.325C74.1275 69.234 74.1618 69.2227 74.3215 69.2909C74.6182 69.4273 75.9762 69.4387 76.2386 69.3136C76.3641 69.2454 76.4783 69.2568 76.5239 69.325C76.6608 69.541 77.1059 69.2568 77.1059 68.9498C77.1059 68.7451 77.1629 68.6655 77.3227 68.6655C77.5966 68.6655 77.7221 68.3471 77.5395 68.1311C77.4482 68.0174 77.4368 67.9492 77.5281 67.8923C77.665 67.8127 77.6422 66.8349 77.4939 66.6075C77.4482 66.5165 77.4596 66.5051 77.5395 66.5506C77.6422 66.6075 77.665 66.5165 77.6308 66.2323C77.5966 66.0048 77.6194 65.8002 77.6879 65.7661C77.7449 65.7206 77.7677 65.5728 77.7449 65.425C77.7107 65.2658 77.7449 65.118 77.802 65.0725C77.859 65.0384 77.8818 64.9133 77.8476 64.7882C77.802 64.6745 77.8248 64.5722 77.8818 64.5722C77.9389 64.5722 77.9731 64.2652 77.9503 63.89C77.9275 63.5147 77.9503 63.2077 77.996 63.2077C78.0416 63.2077 78.0758 63.0372 78.0644 62.8325C78.0644 62.6392 78.1101 62.4004 78.1785 62.3209C78.2584 62.2185 78.247 62.1389 78.1443 62.0821C78.0416 62.0139 78.053 61.957 78.19 61.8433C78.2927 61.7637 78.3383 61.6045 78.3041 61.4908C78.2698 61.3885 78.2812 61.2634 78.3383 61.2293C78.3954 61.1952 78.4296 60.8882 78.4068 60.5357C78.3839 60.1946 78.4182 59.9103 78.4638 59.9103C78.5209 59.9103 78.5551 59.7284 78.5323 59.5124C78.5095 59.2963 78.5323 59.1144 78.5779 59.1144C78.6236 59.1144 78.6692 58.9552 78.6806 58.7506C78.6806 58.5573 78.7377 58.364 78.7947 58.3299C78.9659 58.2162 79.0686 57.3179 78.9203 57.2269C78.829 57.1701 78.829 57.136 78.9203 57.0678C78.9887 57.0336 79.0686 56.7266 79.0914 56.4083C79.1143 56.0899 79.1827 55.7488 79.2626 55.6578C79.3311 55.5669 79.3767 55.3622 79.3425 55.203C79.3083 55.0438 79.3425 54.8846 79.3995 54.8392C79.468 54.8051 79.4908 54.6914 79.4566 54.6004C79.411 54.4981 79.4452 54.3502 79.5137 54.2593C79.5935 54.1797 79.6506 53.8272 79.6506 53.4861C79.6506 53.145 79.6848 52.8607 79.7305 52.8607C79.7761 52.8607 79.8218 52.6902 79.8218 52.4855C79.8446 51.826 79.9016 51.4394 79.9929 51.3712C80.107 51.2803 80.1983 50.8709 80.2554 50.1318C80.2896 49.7907 80.3467 49.4837 80.3923 49.4496C80.438 49.4155 80.4836 49.2677 80.495 49.1085C80.5293 48.5627 80.632 48.1648 80.7575 48.0852C80.826 48.0397 80.8944 47.7441 80.9058 47.4257C80.9173 47.096 80.9629 46.8344 81.0085 46.8344C81.0542 46.8344 81.0656 46.6753 81.02 46.4706C80.9743 46.2091 80.9857 46.1409 81.0884 46.1977C81.1797 46.2659 81.2025 46.1977 81.1455 45.993C81.0998 45.7997 81.1455 45.5951 81.271 45.4018C81.3965 45.2085 81.4079 45.1289 81.3166 45.1971C81.2139 45.254 81.2254 45.1744 81.3623 44.9811C81.465 44.8105 81.5677 44.4694 81.5905 44.2193C81.6019 43.9691 81.659 43.7645 81.7046 43.7645C81.7617 43.7645 81.7731 43.719 81.7389 43.6621C81.6932 43.6053 81.7275 43.537 81.7959 43.5143C81.8758 43.4916 81.8758 43.3779 81.7959 43.1732C81.7046 42.9458 81.716 42.8435 81.8416 42.7411C81.9329 42.6615 81.9785 42.5592 81.9443 42.491C81.91 42.4341 81.9329 42.3204 82.0013 42.2408C82.0812 42.1499 82.1497 41.7974 82.1611 41.4563C82.1725 41.1152 82.2181 40.8536 82.2524 40.8764C82.2866 40.8991 82.3208 40.7627 82.3323 40.5808C82.3323 40.3988 82.4007 40.1373 82.4692 40.0009C82.5833 39.8076 82.5719 39.7394 82.4578 39.6598C82.3323 39.5915 82.3437 39.5574 82.492 39.5006C82.6974 39.421 82.8115 38.8525 82.88 37.5676C82.9485 36.5329 82.9713 36.351 83.0968 36.1463C83.3364 35.7711 83.5989 34.7364 83.4848 34.6C83.4163 34.509 83.4277 34.418 83.519 34.3157C83.6103 34.2247 83.6788 34.0314 83.6902 33.8723C83.713 33.3492 83.8385 32.7011 83.9527 32.5647C84.0097 32.4964 84.0782 32.2463 84.0896 32.0189C84.1124 31.7915 84.1467 31.5982 84.1809 31.5982C84.2836 31.5982 84.5232 30.8705 84.5232 30.5407C84.5232 30.3816 84.5689 30.2224 84.6259 30.1883C84.7629 30.0973 85.1166 28.9944 85.0367 28.8693C85.0025 28.8125 85.0367 28.7329 85.1052 28.6987C85.1623 28.6533 85.1965 28.5509 85.1623 28.46C85.128 28.3804 85.2079 28.1985 85.322 28.0506C85.5388 27.8005 85.5617 27.8005 85.71 28.0052C85.8013 28.1189 85.9268 28.1757 85.9953 28.1302C86.0637 28.0961 86.1208 28.1302 86.1208 28.2212C86.1208 28.3122 86.2121 28.4145 86.3262 28.46C86.6001 28.5509 86.9652 28.7897 87.0679 28.9489C87.1136 29.0285 87.2848 29.0967 87.4331 29.0967C87.5929 29.0967 87.707 29.1536 87.6956 29.2218C87.6727 29.29 87.7869 29.3696 87.9352 29.3923C88.0836 29.4265 88.289 29.5402 88.3917 29.6539C88.4944 29.7676 88.6427 29.8358 88.7226 29.813C88.7911 29.7789 88.8595 29.813 88.8595 29.8926C88.8595 29.9609 88.9166 29.9836 88.9736 29.9495C89.0421 29.9154 89.0877 29.9495 89.0877 30.0404C89.0877 30.1314 89.179 30.2337 89.2931 30.2792C89.5328 30.3588 89.9208 30.5976 90.0121 30.734C90.0577 30.7909 90.1718 30.8023 90.2745 30.7682C90.3772 30.7227 90.4571 30.7454 90.4571 30.8136C90.4571 30.8819 90.5142 30.8932 90.5712 30.8591C90.6397 30.825 90.6853 30.8591 90.6853 30.9614C90.6853 31.2002 90.9592 31.1206 91.4727 30.734C91.952 30.3816 92.1346 30.0291 91.8949 29.9381C91.815 29.904 91.7466 29.7221 91.7352 29.5288C91.7238 29.1308 91.4042 28.4031 91.176 28.2667C91.0961 28.2098 91.0505 28.1302 91.0847 28.0734C91.119 28.0165 91.0277 27.8915 90.8679 27.7891C90.7082 27.6868 90.5712 27.4935 90.5484 27.357C90.5256 27.1979 90.4229 27.0955 90.2631 27.0728C90.1148 27.05 90.0006 26.9705 90.0006 26.8909C90.0006 26.7317 89.2475 26.0267 89.0763 26.0267C89.0193 26.0267 88.985 25.9926 88.9965 25.9358C89.0193 25.8903 88.985 25.8448 88.9394 25.8334C88.8025 25.8107 88.4031 25.3331 88.4031 25.2081C88.4031 25.1512 88.346 25.1398 88.289 25.1739C88.1634 25.2535 87.8325 24.9693 87.8325 24.7873C87.8325 24.7191 87.7526 24.6623 87.6499 24.6623C87.5586 24.6623 87.513 24.6054 87.5472 24.5486C87.5815 24.4803 87.57 24.4349 87.5016 24.4349C87.4445 24.4349 87.2505 24.3098 87.0794 24.1506C86.9082 23.9914 86.7028 23.8664 86.6115 23.8664C86.5202 23.8664 86.486 23.8209 86.5202 23.7526C86.5544 23.6958 86.4061 23.5707 86.1779 23.4798C85.961 23.3888 85.7899 23.241 85.8013 23.1614C85.8241 23.0932 85.7785 23.0249 85.6986 23.0136C85.6301 23.0136 85.459 22.8999 85.322 22.7521C85.1965 22.6156 85.0025 22.5019 84.9112 22.5019C84.8199 22.5019 84.7743 22.4451 84.8085 22.3882C84.8427 22.32 84.8313 22.2745 84.7629 22.2745C84.6944 22.2745 84.546 22.1722 84.4205 22.0357C84.295 21.8993 84.1581 21.8197 84.101 21.8538C83.9983 21.922 83.713 21.6491 83.7929 21.5582C83.8271 21.5354 83.713 21.4672 83.5533 21.4331C83.3935 21.3876 83.2908 21.308 83.325 21.2512C83.3593 21.1829 83.3136 21.1375 83.2223 21.1375C83.1196 21.1375 83.0398 21.0806 83.0398 21.001C83.0398 20.9328 83.0055 20.8987 82.9713 20.9442C82.8914 21.0238 82.5833 20.7509 82.5833 20.6031C82.5833 20.5462 82.1839 20.1028 81.7046 19.6252C81.2139 19.1363 80.6206 18.5109 80.3695 18.238C80.1299 17.9538 79.8902 17.7605 79.8332 17.7946C79.7761 17.8287 79.7419 17.8173 79.7533 17.7605C79.7875 17.6468 79.274 16.9987 79.1257 16.9646C78.9659 16.9191 78.7149 16.6234 78.7833 16.5552C78.8176 16.5097 78.7149 16.4301 78.5551 16.3506C78.4068 16.2823 78.2128 16.1004 78.1443 15.9412C78.0758 15.7934 77.9617 15.7024 77.9047 15.7366C77.8362 15.7707 77.7906 15.7593 77.7906 15.7024C77.7906 15.4864 76.7179 14.3266 76.4554 14.2584C76.3071 14.2243 76.2158 14.1447 76.25 14.0879C76.2843 14.0196 76.2729 13.9742 76.2044 13.9742C76.1359 13.9742 75.9533 13.8377 75.7708 13.6558C75.5996 13.4852 75.417 13.3488 75.3714 13.3488C75.3143 13.3488 75.2002 13.2123 75.1203 13.0418C74.9834 12.7803 74.972 12.6779 75.1089 12.4164C75.4398 11.7001 75.5882 11.2908 75.5996 11.0179C75.611 10.8587 75.6566 10.7222 75.7137 10.6995C75.7708 10.6881 75.7936 10.5517 75.7708 10.4039C75.7365 10.256 75.7936 10.0628 75.8963 9.96042C76.1017 9.76712 76.1473 9.48287 75.9647 9.59657C75.7822 9.71027 75.8278 9.4715 76.0218 9.31231C76.1245 9.23272 76.1702 9.07353 76.1359 8.95983C76.0903 8.84613 76.1017 8.68694 76.1473 8.61872C76.25 8.43679 76.3071 7.60676 76.2044 7.60676C76.1587 7.60676 76.1245 7.50443 76.1131 7.37935C76.1017 7.25428 76.1473 7.15195 76.2044 7.15195C76.2729 7.15195 76.2957 7.10646 76.2614 7.06098C76.1473 6.86769 76.1017 6.35602 76.2044 6.35602C76.2614 6.35602 76.3071 6.27643 76.3071 6.1741C76.3071 6.08313 76.2614 6.02628 76.2158 6.06039C76.1017 6.12862 76.1131 5.70791 76.2272 5.59421C76.3071 5.51462 76.2386 4.86651 76.1131 4.53677C76.0789 4.4458 76.0332 4.30936 76.0332 4.24114C76.0104 3.99099 73.9449 1.9557 73.8422 2.0694C73.7966 2.11488 73.7053 2.08077 73.6368 1.98981C73.5684 1.91022 73.2945 1.78514 73.0206 1.70555C72.5642 1.58048 72.5185 1.59185 72.1077 1.88748C71.8795 2.05803 71.6627 2.23996 71.6513 2.29681C71.6285 2.34229 71.56 2.35366 71.5029 2.30818C71.4459 2.27407 71.3888 2.30818 71.3888 2.36503C71.366 2.52422 71.3203 2.69477 71.2861 2.77436C71.2747 2.80847 71.2519 2.88807 71.2405 2.94492C71.2405 3.01314 71.1606 3.11547 71.0693 3.16096C70.978 3.21781 70.8981 3.38836 70.8867 3.53618C70.8753 3.68399 70.784 3.80907 70.6585 3.83181C70.5558 3.85455 70.4873 3.83181 70.5216 3.77495C70.5672 3.7181 70.3846 3.47933 70.145 3.25192C69.8939 3.02451 69.6885 2.78573 69.6885 2.72888C69.6885 2.67203 69.5516 2.59244 69.3918 2.55833C69.1978 2.50148 69.118 2.42188 69.1636 2.31955C69.1978 2.22859 69.1294 2.12625 68.9924 2.09214C68.8783 2.04666 68.7642 1.96707 68.7642 1.91022C68.7528 1.85337 68.7414 1.73966 68.73 1.66007C68.7186 1.59185 68.6501 1.535 68.5816 1.54637C68.5018 1.56911 68.4105 1.46677 68.3648 1.31896C68.2621 0.966479 67.7486 0.443444 67.509 0.443444C67.3949 0.443444 67.2579 0.363851 67.2009 0.261518C67.1324 0.125074 66.8928 0.0682223 66.4249 0.0341112L65.7516 1.99353e-07L65.1697 0.591258ZM66.1054 0.727702C66.0711 0.818665 66.094 0.898257 66.151 0.898257C66.2195 0.898257 66.2651 0.955109 66.2651 1.0347C66.2651 1.12566 66.1967 1.11429 66.0826 0.98922C65.9799 0.886887 65.9342 0.750443 65.9684 0.682221C66.0826 0.500295 66.1853 0.534406 66.1054 0.727702ZM66.7216 0.67085C66.7216 0.727702 66.6645 0.784554 66.5961 0.784554C66.539 0.784554 66.5162 0.727702 66.5504 0.67085C66.5847 0.602628 66.6417 0.557147 66.6759 0.557147C66.6988 0.557147 66.7216 0.602628 66.7216 0.67085ZM66.8129 1.44403C66.8357 1.52363 66.927 1.58048 67.0183 1.58048C67.1096 1.58048 67.178 1.63733 67.178 1.70555C67.178 1.77377 67.2693 1.80788 67.3949 1.77377C67.509 1.75103 67.6003 1.78514 67.6003 1.85337C67.5889 2.30818 67.6801 2.52422 68.0681 2.91081C68.2964 3.16096 68.5588 3.34288 68.6387 3.30877C68.7072 3.28603 68.7756 3.34288 68.7756 3.42247C68.7756 3.67262 69.4261 4.34347 69.5972 4.28662C69.6999 4.24114 69.757 4.3321 69.7684 4.54814C69.8026 4.95747 70.0537 5.30995 70.5672 5.65106L70.9666 5.90121L71.2861 5.6738C71.4573 5.54873 71.6741 5.44639 71.7654 5.44639C71.8795 5.44639 71.9251 5.29858 71.9137 4.9461C71.9137 4.67321 71.8795 4.40032 71.8224 4.35484C71.7768 4.30936 71.8795 4.12743 72.0507 3.94551C72.2561 3.72947 72.3588 3.50207 72.3588 3.24055C72.3588 2.8767 72.3816 2.85396 72.7011 2.89944C72.8951 2.92218 73.0663 2.9904 73.0891 3.05862C73.1119 3.11547 73.1804 3.17233 73.2374 3.17233C73.2945 3.17233 73.4999 3.32014 73.6825 3.51344C73.8651 3.69536 74.1389 3.87729 74.2987 3.92277C74.4699 3.95688 74.5612 4.04784 74.5269 4.13881C74.4927 4.2184 74.5726 4.36621 74.7095 4.45717C74.9149 4.60499 74.9606 4.74143 74.9606 5.40091C74.9606 5.83299 74.9377 6.36739 74.9149 6.58343C74.8807 6.81084 74.9263 7.11784 75.0176 7.29976C75.1089 7.47032 75.1317 7.67498 75.0861 7.75457C75.0404 7.83417 74.9948 8.06157 74.9834 8.26624C74.972 8.47091 74.9377 8.67557 74.8921 8.70968C74.8579 8.74379 74.8807 8.84613 74.9491 8.92572C75.0404 9.03942 75.0062 9.14176 74.835 9.32368C74.5612 9.61931 74.3786 10.5858 74.584 10.654C74.7551 10.7109 74.7437 10.9042 74.5612 10.9042C74.4014 10.9042 73.9906 11.7797 74.0591 11.973C74.0933 12.0526 73.9906 12.2231 73.8422 12.3709C73.6939 12.5187 73.5684 12.7234 73.5684 12.8371C73.5684 12.9622 73.5227 13.0873 73.4543 13.1214C73.3972 13.1555 73.363 13.3488 73.3744 13.5534C73.3972 13.7581 73.3173 14.0879 73.2032 14.2925C73.0891 14.4972 73.0206 14.7132 73.0549 14.7701C73.0891 14.8269 73.032 14.9406 72.9408 15.0316C72.587 15.3841 72.7924 15.7366 73.4314 15.8616C73.8651 15.9526 74.1846 15.7366 74.1047 15.4296C74.0705 15.3159 74.0933 15.2249 74.1503 15.2249C74.2074 15.2249 74.3101 14.9975 74.3786 14.7132C74.447 14.429 74.5269 14.2016 74.5497 14.2016C74.5726 14.2016 74.7551 14.3835 74.9606 14.5995C75.166 14.8156 75.4626 15.0089 75.6224 15.0202C75.8164 15.043 75.9647 15.168 76.0789 15.4068C76.2957 15.8389 76.581 16.1345 76.7978 16.1345C76.8891 16.1345 77.0032 16.271 77.0488 16.4415C77.1401 16.8167 77.5167 17.2602 77.8818 17.3966C78.0188 17.4535 78.1785 17.5899 78.2128 17.6923C78.3269 17.9879 80.0614 19.6593 80.2554 19.6593C80.3467 19.6593 80.4152 19.7617 80.4152 19.9095C80.4152 20.1255 81.1455 20.9101 81.3623 20.9101C81.4079 20.9101 81.4422 20.9669 81.4422 21.0238C81.4422 21.2512 82.8229 22.4905 83.1539 22.5588C83.3935 22.6156 83.4962 22.7066 83.4962 22.8544C83.4962 22.9681 83.5647 23.0704 83.656 23.0704C83.7473 23.0704 83.85 23.15 83.8842 23.2524C83.9184 23.3433 83.9983 23.4002 84.0554 23.3661C84.1124 23.3319 84.1923 23.3774 84.2265 23.4798C84.2722 23.5935 84.3863 23.6389 84.5232 23.6048C84.683 23.5707 84.7515 23.6048 84.7515 23.7185C84.7515 24.0255 85.5046 24.6395 85.8241 24.6054C86.0067 24.5827 86.1208 24.6282 86.1208 24.7078C86.1208 25.0148 86.7941 25.5833 87.1935 25.6174C87.2505 25.6288 87.3076 25.7197 87.3304 25.8448C87.3646 26.1063 87.9352 26.7089 88.1406 26.7089C88.2205 26.7089 88.289 26.7544 88.289 26.8113C88.289 26.8681 88.3917 26.8909 88.5172 26.8568C88.6998 26.8113 88.734 26.834 88.6769 26.9818C88.6313 27.1183 88.7226 27.2775 88.9622 27.4935C89.1562 27.664 89.316 27.8687 89.316 27.9369C89.316 28.0165 89.4415 28.0734 89.5898 28.0734C89.7382 28.0734 89.8637 28.1416 89.8523 28.2098C89.8409 28.5964 89.8979 28.7556 90.0577 28.7556C90.2061 28.7556 90.2175 28.8238 90.1262 29.3127C90.1148 29.3355 90.0463 29.29 89.955 29.2218C89.8751 29.1536 89.7154 29.1195 89.6127 29.1649C89.4986 29.2104 89.4301 29.1763 89.4301 29.0626C89.4301 28.7783 88.6998 28.2894 88.2547 28.2667C88.0265 28.2553 87.8553 28.2212 87.8553 28.1871C87.8667 27.9597 87.8097 27.846 87.6613 27.846C87.57 27.846 87.4902 27.7891 87.4902 27.7323C87.4902 27.664 87.4103 27.6186 87.319 27.6186C87.2163 27.6186 87.1136 27.539 87.0794 27.448C87.0223 27.3229 86.9538 27.3116 86.7941 27.4025C86.6343 27.4821 86.5773 27.4708 86.5773 27.357C86.5773 27.0614 86.0637 26.7089 85.5959 26.6862C85.1623 26.6748 84.4091 26.9136 84.4091 27.0614C84.4091 27.0955 84.3064 27.2547 84.1695 27.4025C84.0439 27.5503 83.9641 27.755 83.9869 27.8687C84.0211 27.9824 83.9983 28.0961 83.9412 28.1302C83.8956 28.1643 83.8728 28.2667 83.9184 28.3576C83.9527 28.46 83.9184 28.5964 83.85 28.6874C83.7815 28.767 83.7587 28.8579 83.7929 28.9034C83.8271 28.9375 83.7929 29.0853 83.713 29.2332C83.6217 29.3696 83.5419 29.597 83.5304 29.7221C83.4734 30.1542 83.4277 30.2906 83.2337 30.6772C83.131 30.8932 83.0398 31.1547 83.0398 31.2684C83.0398 31.3822 82.9827 31.5072 82.9256 31.5413C82.8572 31.5868 82.8344 31.6664 82.88 31.7233C82.9142 31.7801 82.8914 31.8938 82.8229 31.9734C82.7659 32.053 82.7316 32.2577 82.7431 32.4282C82.7659 32.6101 82.7202 32.8148 82.6404 32.883C82.435 33.0877 82.3323 33.804 82.4578 34.1338C82.5377 34.3498 82.5262 34.4408 82.4235 34.4749C82.2181 34.5545 81.9671 35.5664 82.1154 35.737C82.1953 35.828 82.1383 35.953 81.9443 36.135C81.7046 36.3624 81.5905 36.7944 81.659 37.1924C81.7046 37.488 81.7389 37.579 81.8416 37.6586C81.91 37.7041 81.8758 37.7837 81.7503 37.8632C81.6476 37.9315 81.5791 38.0338 81.6248 38.0907C81.659 38.1475 81.6362 38.2726 81.5677 38.3522C81.4878 38.4431 81.4878 38.6137 81.5449 38.8525C81.6248 39.1254 81.6133 39.2391 81.4992 39.2959C81.2596 39.4437 81.02 40.251 81.1112 40.6717C81.1569 40.9219 81.1455 41.0697 81.0542 41.1038C80.9857 41.1265 80.9173 41.3426 80.8944 41.5813C80.883 41.8088 80.8146 42.0134 80.7575 42.0362C80.5977 42.093 80.6206 42.5478 80.7917 42.7298C80.883 42.8321 80.883 42.8662 80.7917 42.8093C80.6662 42.7411 80.4494 43.1391 80.5064 43.3438C80.5293 43.4006 80.4836 43.628 80.4266 43.8554C80.3581 44.0942 80.3467 44.3102 80.4152 44.3898C80.4722 44.458 80.4152 44.6059 80.2326 44.7764C80.0842 44.9242 79.9473 45.1744 79.9359 45.3449C79.8902 46.0385 79.9131 46.2091 80.0158 46.3C80.0842 46.3683 80.0842 46.4137 79.9929 46.4592C79.9131 46.482 79.8446 46.607 79.8446 46.7321C79.8446 46.8458 79.7989 46.9481 79.7305 46.9481C79.6278 46.9481 79.662 47.5963 79.7647 47.71C79.7989 47.7327 79.7077 47.8805 79.5593 48.0397C79.2284 48.3922 79.1143 48.9948 79.2854 49.3814C79.411 49.6316 79.3995 49.6998 79.2284 49.8248C79.1143 49.9044 79.0116 50.1432 78.9887 50.3365C78.9773 50.5412 78.9317 50.7345 78.8975 50.78C78.8518 50.8141 78.8746 50.9164 78.9431 50.996C79.0344 51.1097 79.0002 51.212 78.829 51.394C78.692 51.5418 78.5779 51.7578 78.5779 51.8829C78.5209 52.6447 78.4866 52.9631 78.4182 53.3724C78.3839 53.6225 78.3383 53.9068 78.3383 53.9978C78.3383 54.0887 78.2812 54.2365 78.2242 54.3048C78.1557 54.3844 78.1329 54.5208 78.1671 54.6231C78.2128 54.7141 78.19 54.8164 78.1443 54.8505C78.0872 54.8733 78.053 55.1803 78.0644 55.5328C78.0872 55.9648 78.0416 56.1695 77.9275 56.215C77.8476 56.2377 77.8134 56.3287 77.8476 56.3855C77.8933 56.4538 77.8704 56.5675 77.8134 56.6471C77.7449 56.7266 77.7107 56.9768 77.7221 57.2156C77.7449 57.4543 77.7221 57.6704 77.665 57.7045C77.608 57.7272 77.5966 57.8978 77.6308 58.0797C77.6764 58.2958 77.6308 58.4549 77.4939 58.5914C77.277 58.8074 77.1858 59.8649 77.3569 60.0923C77.414 60.1719 77.3912 60.2515 77.2885 60.2856C77.1743 60.331 77.1401 60.5357 77.1401 61.0133C77.1401 61.3771 77.0831 61.7978 76.9918 61.957C76.7978 62.3095 76.7293 63.4351 76.9005 63.4351C76.9804 63.4351 76.9575 63.5147 76.8548 63.6284C76.6608 63.8558 76.6152 64.6631 76.7978 64.8792C76.8548 64.9588 76.8548 65.027 76.8092 65.027C76.4897 65.027 76.25 66.4483 76.5239 66.778C76.6266 66.8917 76.6152 66.9486 76.5011 66.9941C76.4098 67.0282 76.3527 67.2101 76.3641 67.4716C76.3641 67.7104 76.3185 67.9151 76.2386 67.9492C76.1587 67.9833 76.1245 68.0856 76.1587 68.1766C76.2158 68.313 76.193 68.3358 76.0789 68.2675C75.7936 68.097 74.835 68.097 74.6524 68.2789C74.5612 68.3812 74.4813 68.4154 74.4813 68.3585C74.4813 68.1766 73.9449 68.0288 73.3858 68.0629C72.7696 68.097 72.7353 68.097 71.9251 68.0742C71.5714 68.0629 71.3432 68.1197 71.2747 68.2221C71.2176 68.313 71.172 68.3244 71.172 68.2562C71.172 67.9719 70.0195 67.8696 69.7228 68.1197C69.6429 68.188 69.5744 68.1993 69.5744 68.1425C69.5744 68.0856 69.5288 68.1084 69.4717 68.1993C69.3918 68.313 69.3234 68.3358 69.2093 68.2562C69.1294 68.188 68.8783 68.1425 68.6615 68.1538C68.4447 68.1652 68.2051 68.1311 68.1366 68.0742C68.0681 68.0288 67.9198 68.0629 67.7943 68.1425C67.6117 68.2789 67.5318 68.2789 67.2465 68.1311C67.0525 68.0288 66.8928 68.006 66.8471 68.0629C66.8129 68.1311 66.5618 68.1652 66.288 68.1425C65.9456 68.1311 65.7745 68.1766 65.6946 68.313C65.6375 68.4154 65.5805 68.4381 65.5805 68.3699C65.5805 68.0856 64.5306 67.9605 64.0742 68.188C63.903 68.2675 63.709 68.313 63.6405 68.2675C63.5835 68.2334 63.2754 68.1766 62.9559 68.1538C62.5108 68.1197 62.3625 68.1538 62.2712 68.3017C62.2141 68.404 62.1571 68.4381 62.1571 68.3699C62.1571 68.3017 62.0886 68.2448 62.0201 68.2334C61.9403 68.2221 61.6892 68.1993 61.4724 68.1766C61.0502 68.1311 60.4454 68.313 60.4454 68.4722C60.4454 68.5291 60.3769 68.5291 60.3084 68.4608C60.103 68.313 59.0532 68.3471 58.9961 68.5063C58.9619 68.6087 58.8706 68.5973 58.6424 68.4949C58.4598 68.3926 58.1517 68.3585 57.8778 68.404C57.6268 68.4381 56.9421 68.4608 56.3715 68.4722C55.7896 68.4722 55.3103 68.5063 55.3103 68.5404C55.3103 68.5745 55.025 68.6087 54.6713 68.62C54.2833 68.62 53.998 68.6769 53.9409 68.7678C53.8953 68.8474 53.8268 68.8702 53.7926 68.8133C53.7241 68.711 51.9325 68.711 51.4875 68.8133C51.362 68.8361 51.2136 68.8361 51.1452 68.8019C50.9626 68.6882 50.2551 68.7906 50.0154 68.9498C49.8899 69.0407 49.7188 69.0748 49.616 69.018C49.5133 68.9725 49.3079 68.9498 49.1482 68.9725C48.9884 68.9952 48.783 69.018 48.6917 69.0294C48.6004 69.0294 48.4635 69.0862 48.395 69.1431C48.3152 69.1999 48.1326 69.1885 47.9614 69.1203C47.7902 69.0635 47.505 69.0066 47.3338 69.0066C46.98 69.0066 46.4095 69.2454 46.4095 69.3932C46.4095 69.4501 46.341 69.4387 46.2725 69.3818C46.147 69.2909 45.4395 69.2568 45.4395 69.3364C45.4395 69.3591 45.3368 69.3818 45.2113 69.4046C45.0858 69.4273 44.9716 69.5069 44.9488 69.5751C44.9146 69.6661 44.8575 69.6547 44.7434 69.5638C44.5837 69.4273 43.7621 69.3932 43.5566 69.5183C43.4996 69.5524 43.3512 69.541 43.2371 69.4728C42.9176 69.3022 41.4227 69.5979 41.2287 69.8708C41.1032 70.0299 40.9206 70.0868 40.487 70.0982C39.9849 70.0982 39.9279 70.0754 40.0191 69.9162C40.0762 69.8025 40.099 69.6888 40.0648 69.6661C40.042 69.632 40.0077 69.4159 39.9963 69.1885C39.9849 68.9498 39.905 68.7337 39.8137 68.6769C39.6996 68.6087 39.6882 68.5632 39.7795 68.5063C39.9621 68.3926 39.9279 67.6308 39.7224 67.2442C39.6197 67.0509 39.517 66.7212 39.5056 66.5051C39.4828 66.2891 39.4372 65.9821 39.3915 65.8229C39.3459 65.6637 39.3116 65.425 39.3231 65.2771C39.3231 65.1407 39.2888 65.027 39.2432 65.027C39.1975 65.027 39.1633 64.7882 39.1747 64.504C39.1747 64.2083 39.1177 63.9127 39.0264 63.8331C38.9465 63.7421 38.9237 63.6512 38.9693 63.6171C39.0606 63.5716 39.072 62.7984 38.9921 62.6392C38.9579 62.5824 38.9237 62.1958 38.8438 60.8541C38.821 60.4675 38.7411 60.0695 38.6726 59.9899C38.5927 59.899 38.5699 59.7966 38.6156 59.7625C38.6498 59.717 38.6384 59.6829 38.5699 59.6829C38.49 59.6829 38.4558 59.41 38.4786 58.9325C38.5129 58.2616 38.49 58.1707 38.2846 58.1138C38.1135 58.0683 38.0906 58.0342 38.2162 57.966C38.296 57.9092 38.3759 57.8182 38.3759 57.75C38.3873 57.6931 38.4101 57.6135 38.4216 57.5794C38.5129 57.3975 38.4672 56.7494 38.3417 56.5106C38.2618 56.3514 38.2504 56.1581 38.296 56.0558C38.433 55.7829 38.3531 54.8846 38.1705 54.7823C38.0792 54.7255 38.0678 54.68 38.1477 54.68C38.433 54.68 38.5699 53.6225 38.3417 53.1677C38.239 52.9744 38.2162 52.7925 38.2732 52.7129C38.3303 52.6333 38.3759 52.3945 38.3645 52.1785C38.3531 51.9625 38.3873 51.7237 38.4444 51.6555C38.49 51.5872 38.4558 51.4394 38.3759 51.3144C38.239 51.1324 38.239 51.0528 38.3873 50.7686C38.49 50.5639 38.5243 50.4161 38.4558 50.3934C38.3873 50.3706 38.3759 50.1773 38.4216 49.9044C38.4672 49.6657 38.4558 49.4155 38.3987 49.3587C38.3417 49.3018 38.3531 49.1199 38.433 48.9266C38.6156 48.4945 38.6498 47.9942 38.5243 47.6645C38.4672 47.5053 38.49 47.3006 38.5927 47.096C38.7753 46.7207 38.7525 46.175 38.5357 46.0385C38.433 45.9703 38.4444 45.9248 38.6041 45.8225C38.7297 45.7543 38.7753 45.6974 38.7297 45.6974C38.6726 45.6974 38.7068 45.5951 38.7981 45.47C38.9807 45.2199 38.9351 44.3785 38.7411 44.1397C38.6498 44.026 38.6726 43.9919 38.7867 43.9919C38.878 43.9919 38.9579 43.9236 38.9693 43.844C38.9693 43.7758 39.0264 43.5257 39.0834 43.2983C39.1519 43.0481 39.1519 42.8093 39.0834 42.6956C39.0264 42.5819 39.0264 42.5137 39.0834 42.5137C39.2546 42.5137 39.4828 41.8542 39.5056 41.2857C39.5056 40.9901 39.5513 40.6717 39.5969 40.5808C39.6312 40.4898 39.6882 40.251 39.7224 40.0464C39.7453 39.8531 39.8023 39.6256 39.848 39.5574C39.9621 39.3755 40.042 38.9093 40.0534 38.2839C40.0648 37.9769 40.1104 37.7382 40.1675 37.7382C40.2588 37.7382 40.4642 37.272 40.5441 36.8968C40.5669 36.7717 40.6468 36.6352 40.7152 36.5898C40.7837 36.5443 40.8179 36.4647 40.7723 36.3965C40.7381 36.3282 40.7495 36.2487 40.8179 36.2032C40.8864 36.1691 40.9092 36.0099 40.8864 35.8507C40.8522 35.7029 40.9092 35.5096 41.0005 35.4186C41.2402 35.1798 41.3657 34.7705 41.3429 34.3271C41.3314 34.0542 41.3885 33.8836 41.5368 33.7699C41.651 33.6903 41.7194 33.5539 41.6852 33.4629C41.651 33.372 41.6738 33.3037 41.7423 33.3037C41.8107 33.3037 41.845 33.2241 41.8107 33.1332C41.7651 33.0422 41.7879 32.9399 41.8564 32.8944C41.9248 32.8603 41.9477 32.7466 41.902 32.6443C41.8678 32.5419 41.9591 32.3486 42.1416 32.1553C42.3927 31.8938 42.4498 31.7233 42.4612 31.2343C42.4726 30.8591 42.5296 30.5862 42.6323 30.5066C42.735 30.427 42.8035 30.1655 42.8035 29.8244C42.8149 29.4378 42.872 29.2218 43.0089 29.1195C43.26 28.9375 43.5452 28.3349 43.5795 27.9256C43.5909 27.755 43.6593 27.6186 43.7278 27.6186C43.7849 27.6186 43.9446 27.4594 44.0702 27.2775C44.1957 27.0955 44.3554 26.9363 44.4353 26.9363C44.6065 26.9363 44.8005 26.5839 44.732 26.3906C44.6978 26.311 44.7777 26.2541 44.9032 26.2541C45.0287 26.2541 45.1885 26.1745 45.2683 26.0836C45.3482 25.9926 45.371 25.913 45.3254 25.913C45.2798 25.913 45.4281 25.7311 45.6677 25.5151C46.0329 25.1626 46.0671 25.083 45.9302 24.9238C45.8047 24.7532 45.8047 24.7419 45.9873 24.8101C46.09 24.8442 46.1812 24.8328 46.1812 24.776C46.1812 24.7078 46.2497 24.6623 46.3296 24.6623C46.5578 24.6623 47.0827 23.8777 47.0371 23.6162C47.0029 23.4684 47.1056 23.2865 47.3224 23.1045C47.5164 22.9454 47.6419 22.7748 47.5962 22.7179C47.562 22.6611 47.5962 22.6156 47.6533 22.6156C47.7218 22.6156 47.7788 22.5133 47.7788 22.3882C47.7788 22.2404 47.8587 22.1608 47.9956 22.1608C48.4065 22.1608 49.0112 21.7174 49.0911 21.3535C49.1482 21.092 49.2052 21.0465 49.3422 21.1261C49.559 21.2398 50.4148 20.8305 50.4833 20.5576C50.5175 20.4439 50.6773 20.387 50.9512 20.3757C51.3049 20.3643 51.4533 20.2733 51.8413 19.8412C52.0923 19.557 52.3434 19.3182 52.389 19.3182C52.4346 19.3182 52.64 19.1931 52.8454 19.034C53.0509 18.8748 53.2791 18.7497 53.3475 18.7497C53.416 18.7497 53.5187 18.6815 53.5644 18.6019C53.61 18.5109 53.8154 18.3745 53.998 18.2835C54.192 18.1925 54.386 18.0106 54.4544 17.8628C54.5229 17.715 54.637 17.6354 54.7283 17.6695C54.8196 17.7036 55.3673 17.499 55.9493 17.2147C56.5313 16.9304 57.079 16.7371 57.1589 16.7599C57.3643 16.8395 58.1517 16.5097 58.2316 16.3164C58.2658 16.2141 58.4826 16.18 58.9391 16.1914C59.2928 16.2027 59.6466 16.1686 59.7265 16.1118C59.8063 16.0436 59.9547 16.0549 60.1144 16.1459C60.434 16.3051 60.9703 16.3164 61.3583 16.1573C61.5523 16.0777 61.6892 16.089 61.7919 16.1686C62.0201 16.3506 62.9559 16.3847 62.9559 16.2141C62.9559 16.1345 63.07 16.2141 63.2183 16.3733C63.4694 16.6689 64.1997 16.9873 64.5763 16.9532C64.679 16.9532 64.9186 17.0896 65.0898 17.2716C65.5691 17.7605 65.9 17.8514 66.3793 17.624C66.8015 17.4307 66.9726 17.0214 66.733 16.7826C66.6645 16.7144 66.6075 16.4415 66.6075 16.18C66.6075 15.9071 66.539 15.6229 66.4591 15.5433C66.3793 15.4637 66.2994 15.1908 66.2766 14.9406C66.2651 14.6905 66.1967 14.4176 66.1282 14.338C66.0597 14.2698 66.0483 14.2016 66.1054 14.2016C66.151 14.2016 66.1396 14.1447 66.0597 14.0651C65.9799 13.9855 65.9228 13.815 65.9228 13.6899C65.9228 13.5534 65.8886 13.4056 65.8429 13.3602C65.7973 13.3147 65.7402 13.1441 65.7174 12.9736C65.6946 12.803 65.6375 12.6438 65.5691 12.6325C65.512 12.6097 65.4663 12.5187 65.4663 12.4278C65.4663 12.3368 65.3865 12.2345 65.2952 12.2004C65.1697 12.1549 65.1582 12.0867 65.2609 11.9389C65.3522 11.791 65.3408 11.6432 65.2039 11.3476C64.9528 10.7905 64.7588 10.0059 64.736 9.48287C64.7132 8.99394 64.3709 8.17528 64.1883 8.17528C64.1312 8.17528 64.1198 8.11843 64.1655 8.03883C64.2111 7.95924 64.2682 7.67498 64.291 7.39072C64.3138 7.00413 64.2682 6.83358 64.1312 6.71987C64.0285 6.65165 63.9943 6.58343 64.0628 6.58343C64.3138 6.58343 64.4964 5.54873 64.3366 5.08254C64.2568 4.87788 64.2682 4.74143 64.3366 4.69595C64.4051 4.66184 64.4279 4.55951 64.3937 4.46855C64.3595 4.38895 64.3823 4.28662 64.4507 4.25251C64.5534 4.18429 64.5078 3.66125 64.3937 3.53618C64.3595 3.51344 64.4507 3.38836 64.5991 3.27466C64.7474 3.16096 64.9528 2.84259 65.0555 2.54696C65.1697 2.2627 65.3066 2.03529 65.3636 2.03529C65.4207 2.03529 65.6375 1.86474 65.8543 1.66007C66.2423 1.27348 66.7216 1.17115 66.8129 1.44403ZM73.4543 15.5091C73.4543 15.6115 73.3858 15.6456 73.2717 15.6001C73.1233 15.5433 73.1233 15.5205 73.2489 15.4409C73.4428 15.3159 73.4543 15.3159 73.4543 15.5091ZM44.8461 25.8448C44.8918 25.9585 44.8575 25.9926 44.7434 25.9471C44.5723 25.8789 44.5266 25.6856 44.6864 25.6856C44.7434 25.6856 44.8119 25.7652 44.8461 25.8448ZM44.4696 26.3678C44.5608 26.4247 44.5951 26.4815 44.5266 26.4815C44.4696 26.4815 44.3326 26.4247 44.2413 26.3678C44.15 26.311 44.1272 26.2541 44.1843 26.2541C44.2527 26.2541 44.3783 26.311 44.4696 26.3678ZM90.0006 27.7209C90.0006 27.7778 89.9208 27.846 89.8409 27.8801C89.7268 27.9256 89.6925 27.8915 89.7382 27.7778C89.8067 27.6072 90.0006 27.5617 90.0006 27.7209ZM90.4571 28.3008C90.4571 28.3576 90.4115 28.4145 90.343 28.4145C90.2859 28.4145 90.2289 28.3576 90.2289 28.3008C90.2289 28.2326 90.2859 28.1871 90.343 28.1871C90.4115 28.1871 90.4571 28.2326 90.4571 28.3008ZM81.2139 43.1959C81.2139 43.2528 81.1683 43.3096 81.0998 43.3096C81.0428 43.3096 80.9857 43.2528 80.9857 43.1959C80.9857 43.1277 81.0428 43.0822 81.0998 43.0822C81.1683 43.0822 81.2139 43.1277 81.2139 43.1959ZM37.9651 50.7004C37.9651 50.7572 37.9195 50.8141 37.851 50.8141C37.7939 50.8141 37.7369 50.7572 37.7369 50.7004C37.7369 50.6321 37.7939 50.5867 37.851 50.5867C37.9195 50.5867 37.9651 50.6321 37.9651 50.7004ZM37.9651 51.3826C37.9651 51.4394 37.9195 51.4963 37.851 51.4963C37.7939 51.4963 37.7369 51.4394 37.7369 51.3826C37.7369 51.3144 37.7939 51.2689 37.851 51.2689C37.9195 51.2689 37.9651 51.3144 37.9651 51.3826ZM0.593093 57.8523C0.627327 57.9092 0.604504 57.9888 0.536037 58.0342C0.47898 58.0683 0.421924 58.0229 0.421924 57.9319C0.421924 57.7272 0.490391 57.6931 0.593093 57.8523ZM19.0223 59.9103C19.0223 59.9672 18.9767 60.024 18.9082 60.024C18.8512 60.024 18.7941 59.9672 18.7941 59.9103C18.7941 59.8421 18.8512 59.7966 18.9082 59.7966C18.9767 59.7966 19.0223 59.8421 19.0223 59.9103ZM67.2922 68.6655C67.2922 68.7224 67.2465 68.7792 67.178 68.7792C67.121 68.7792 67.0639 68.7224 67.0639 68.6655C67.0639 68.5973 67.121 68.5518 67.178 68.5518C67.2465 68.5518 67.2922 68.5973 67.2922 68.6655ZM67.9768 68.6655C67.9768 68.7224 67.9312 68.7792 67.8627 68.7792C67.8057 68.7792 67.7486 68.7224 67.7486 68.6655C67.7486 68.5973 67.8057 68.5518 67.8627 68.5518C67.9312 68.5518 67.9768 68.5973 67.9768 68.6655ZM40.8179 71.5536C40.8179 71.5877 40.7723 71.6445 40.7038 71.6786C40.6468 71.7128 40.5897 71.69 40.5897 71.6332C40.5897 71.5649 40.6468 71.5081 40.7038 71.5081C40.7723 71.5081 40.8179 71.5308 40.8179 71.5536Z"
          fill="white"/>
    <path d="M66.0141 4.98023C65.8316 5.08256 65.6946 5.24174 65.6832 5.33271C65.6604 5.66245 65.6604 6.52659 65.6718 6.8677L65.6946 7.22018L66.2994 7.15196C66.8358 7.10648 66.8928 7.07237 66.87 6.83359C66.8472 6.67441 66.9042 6.58345 67.0069 6.58345C67.1439 6.58345 67.1553 6.52659 67.0868 6.37878C67.0297 6.27645 67.0069 6.12863 67.0297 6.04904C67.0526 5.98082 67.0297 5.88985 66.9613 5.85574C66.9042 5.81026 66.8814 5.61697 66.9156 5.40093C67.0069 4.83241 66.5847 4.63912 66.0141 4.98023ZM66.4364 5.219C66.4706 5.27586 66.4249 5.33271 66.3222 5.33271C66.2195 5.33271 66.1739 5.27586 66.2081 5.219C66.2424 5.15078 66.2994 5.1053 66.3222 5.1053C66.3451 5.1053 66.4021 5.15078 66.4364 5.219Z"
          fill="white"/>
    <path d="M72.644 5.92396C72.5642 6.08315 72.5642 6.18548 72.6554 6.29918C72.7353 6.40152 72.7467 6.46974 72.6669 6.52659C72.5984 6.5607 72.5185 6.84496 72.4729 7.15196C72.4272 7.45896 72.3587 7.69773 72.3131 7.66362C72.2675 7.62951 72.199 7.7091 72.1648 7.82281C72.1305 7.99336 72.2332 8.0957 72.6783 8.30036C73.3059 8.59599 73.4542 8.5164 73.3858 7.94788C73.3629 7.74322 73.4086 7.60677 73.5113 7.56129C73.6026 7.52718 73.6825 7.40211 73.6825 7.27703C73.6825 7.15196 73.7395 7.01551 73.7966 6.9814C73.865 6.94729 73.8765 6.78811 73.8422 6.62892C73.7966 6.46974 73.8194 6.35603 73.8993 6.35603C74.059 6.35603 73.9221 5.99218 73.6939 5.82163C73.3972 5.60559 72.781 5.66244 72.644 5.92396ZM73.5113 6.15137C73.2945 6.27644 73.169 6.20822 73.2717 6.02629C73.3173 5.95807 73.4314 5.9467 73.5227 5.98081C73.6939 6.03766 73.6825 6.06041 73.5113 6.15137Z"
          fill="white"/>
    <path d="M77.3341 20.876C76.9119 21.0238 76.6608 21.3877 76.6722 21.8311C76.6722 22.0813 76.7179 22.2746 76.7749 22.2746C76.832 22.2746 76.8777 22.3428 76.8777 22.4224C76.8777 22.5133 76.9918 22.6839 77.1401 22.809C77.4482 23.0819 78.1101 23.0705 78.6692 22.7635C78.9773 22.6043 79.0458 22.4906 79.0458 22.2063C79.0458 21.888 78.5779 21.183 78.4524 21.3195C78.4182 21.3422 78.2812 21.2399 78.1329 21.0807C77.8704 20.7964 77.6764 20.7509 77.3341 20.876Z"
          fill="white"/>
</svg>
