<svg width="92" height="87" viewBox="0 0 92 87" fill="none" xmlns="http://www.w3.org/2000/svg">
    <path d="M35.0391 0.253075C34.6493 0.421797 34.2873 0.618638 34.2038 0.702999C34.1202 0.787359 33.5634 0.871723 32.9508 0.927964C32.3383 0.984204 31.6143 1.23728 31.3081 1.49037C31.0296 1.74345 30.7234 1.94029 30.612 1.91217C30.5285 1.88405 30.4728 2.05277 30.5285 2.27773C30.5841 2.5027 30.4449 2.69954 30.25 2.69954C30.0551 2.72766 29.5818 2.7839 29.2477 2.81202C28.3288 2.89638 26.9088 4.38675 26.881 5.31472C26.8531 5.76464 26.6582 6.04585 26.4076 6.04585C25.8508 6.04585 24.3751 8.2111 24.5421 8.68915C24.6257 8.91411 24.4586 9.13907 24.1523 9.22343C23.3449 9.44839 22.5374 11.5855 22.8159 12.7947C22.9829 13.4977 22.9272 13.8352 22.6766 13.9758C22.4817 14.0882 22.3425 14.6225 22.3704 15.2412C22.426 16.4785 21.8135 17.3783 21.0896 17.1533C20.839 17.069 20.5327 17.1252 20.4213 17.2658C20.31 17.4627 20.0872 17.4627 19.7252 17.2377C19.3354 16.9846 19.1127 16.9846 18.8343 17.2377C18.6115 17.4064 17.4142 17.6033 16.1613 17.6314C14.9083 17.6595 13.8781 17.8001 13.8781 17.9126C13.8781 18.2219 13.2377 18.0813 12.9872 17.7157C12.8479 17.5189 12.6809 17.547 12.5695 17.7439C12.2911 18.1094 11.0103 18.1094 10.7597 17.7439C10.5926 17.5189 10.4813 17.5189 10.342 17.7157C10.1471 17.9688 9.56243 18.0532 9.36753 17.8563C9.17262 17.6876 5.80358 17.6876 5.80358 17.8282C5.80358 17.9407 5.55299 18.0251 5.24671 18.0532C4.94044 18.0813 4.68985 17.9688 4.68985 17.8001C4.68985 17.6033 4.55063 17.6314 4.30004 17.8282C4.0773 18.0251 3.38121 18.1657 2.76866 18.1938C2.15611 18.1938 1.68277 18.2782 1.73846 18.3906C1.82199 18.5031 1.43218 18.5312 0.903157 18.475C-0.182733 18.3344 -0.210576 18.4187 0.401977 20.2184C0.736097 21.1745 0.931 21.4557 1.18159 21.2589C1.46002 21.0339 1.73846 21.0058 2.71297 21.2027C2.76866 21.2308 2.49023 21.4839 2.10042 21.8213C1.37649 22.3837 1.23728 23.3117 1.79414 23.7054C2.04473 23.9022 2.21179 24.3802 2.29532 25.1676C2.32317 25.3926 2.51807 25.8706 2.68513 26.2081C2.93572 26.6861 2.93572 26.8548 2.65729 26.9673C2.4067 27.0517 2.43454 27.1923 2.76866 27.4735C3.01925 27.6703 3.18631 28.2046 3.18631 28.6545C3.15847 29.0763 3.29768 29.4981 3.46474 29.5825C3.65965 29.6668 3.74318 30.0324 3.65965 30.5386C3.57612 31.101 3.68749 31.4103 3.93808 31.5228C4.2722 31.6353 4.30004 31.8602 4.10514 32.5351C3.96592 33.0694 3.99377 33.6037 4.16083 33.913C4.30004 34.2223 4.38357 34.5598 4.30004 34.6723C4.24436 34.7847 4.35573 35.5159 4.55063 36.2751C4.77338 37.1749 4.80122 37.8498 4.63416 38.1592C4.49495 38.4966 4.52279 38.8903 4.71769 39.284C4.9126 39.6495 5.1075 40.2401 5.16319 40.6337C5.19103 41.0274 5.24671 41.5336 5.27456 41.7585C5.3024 41.9835 5.4973 42.3491 5.72005 42.5459C6.16554 42.9958 6.19339 43.4458 5.77574 43.4458C5.55299 43.4458 5.55299 43.5582 5.72005 43.7832C6.08201 44.2613 6.08201 45.133 5.69221 45.133C5.55299 45.133 5.66436 45.3017 5.97064 45.5267C6.24907 45.7516 6.41613 46.0328 6.30476 46.1453C6.19339 46.2578 6.24907 46.539 6.44398 46.764C6.66672 47.0733 6.69457 47.2139 6.47182 47.2982C6.10986 47.4107 6.61104 49.6322 7.00084 49.6322C7.11222 49.6322 7.14006 49.7728 7.02869 49.9415C6.91731 50.1665 7.39065 50.1946 8.61576 50.0821C11.4836 49.8291 12.2354 49.8853 12.5417 50.3071C12.6252 50.4477 13.015 50.6164 13.377 50.6727C13.7389 50.7289 14.2401 51.0664 14.4907 51.4038C14.7691 51.7412 14.9919 51.8537 14.9919 51.6569C14.9919 51.3757 15.0754 51.3757 15.3817 51.6569C15.6044 51.8537 15.7436 52.0506 15.688 52.1068C15.5209 52.2755 17.6092 54.4127 17.9711 54.4127C18.3052 54.4127 18.3888 54.6095 18.3052 55.1438C18.3052 55.2563 18.4444 55.425 18.6115 55.5375C18.8064 55.6499 18.9735 56.0718 18.9735 56.4936C18.9735 56.8872 19.057 57.1403 19.1962 57.056C19.3354 56.9716 19.4468 57.1122 19.4468 57.3372C19.4468 57.5621 19.3076 57.8433 19.1684 57.9277C18.9735 58.0402 18.9735 58.2933 19.1684 58.6588C19.3633 58.9963 19.3633 59.1931 19.1962 59.1931C19.0292 59.1931 18.9735 59.8117 19.0292 60.6272C19.1127 61.4427 19.0848 62.0051 18.9735 61.8926C18.8621 61.8083 18.5837 62.0332 18.3331 62.455C18.0546 62.8487 17.7484 63.1862 17.6092 63.2143C17.4699 63.2424 17.3864 63.4111 17.3864 63.608C17.4142 63.8611 16.3284 64.4516 15.688 64.5359C15.4095 64.5359 14.2958 65.8014 14.3793 65.9982C14.4072 66.1388 14.2123 66.2232 13.9338 66.2232C13.6554 66.2232 13.0985 66.7574 12.6252 67.4886C12.1797 68.1916 11.5671 68.8383 11.2052 68.9227C10.704 69.0633 10.5926 69.2039 10.7597 69.5695C10.8989 69.8226 10.9546 70.385 10.9268 70.8349C10.8711 71.2567 10.9268 71.566 11.0103 71.4535C11.3444 71.1161 11.8734 72.2971 11.7621 73.1689C11.7064 73.675 11.7621 74.1531 11.9013 74.2374C12.0405 74.3218 12.0962 74.6311 12.0126 74.9404C11.9291 75.2498 11.9848 75.5028 12.1519 75.5028C12.3189 75.5028 12.4024 75.8403 12.3468 76.2621C12.3189 76.6558 12.5138 77.3869 12.7923 77.8649C13.1821 78.5117 13.2099 78.7648 12.9593 78.9335C12.7087 79.1022 12.7087 79.1585 12.9872 79.1585C13.2656 79.1585 13.2656 79.2991 13.015 79.749C12.7923 80.1708 12.7923 80.4239 13.015 80.6488C13.1821 80.8176 13.3213 81.2394 13.3213 81.5768C13.3213 81.9424 13.4605 82.3079 13.5997 82.3923C13.8225 82.5329 13.8225 82.7016 13.5997 82.9547C13.4048 83.2078 13.4327 83.5171 13.7389 84.1076C13.9617 84.5294 14.073 85.2043 13.9617 85.5699C13.8225 86.1604 13.8781 86.1885 14.5464 86.0198C15.0197 85.9073 15.5209 86.0198 15.9664 86.301C16.6903 86.7791 19.1684 87.1727 19.1684 86.8072C19.1684 86.6947 19.419 86.5822 19.7252 86.5541C20.0872 86.526 20.2264 86.6103 20.1151 86.8072C19.9758 87.0321 20.0872 87.0603 20.4492 86.8915C20.7276 86.7509 21.4515 86.6385 22.0362 86.6666C22.5931 86.6666 23.0664 86.5541 23.0664 86.4697C23.0664 86.3573 24.0131 86.2729 25.2104 86.2729C26.9645 86.2729 27.41 86.1885 27.7441 85.7386C28.0226 85.373 28.1896 85.3168 28.2731 85.5418C28.3567 85.7948 28.5516 85.823 28.8857 85.6542C29.1641 85.4855 29.7767 85.4574 30.2779 85.5136C30.9739 85.6261 31.141 85.5699 31.0018 85.3168C30.8347 85.0637 31.0018 85.0356 31.6979 85.1481C32.2269 85.2606 32.7559 85.2043 32.9787 85.0356C33.2571 84.8106 33.3685 84.8106 33.3685 85.0356C33.3685 85.4293 34.9555 85.1481 35.8187 84.5857C36.1528 84.3888 36.5705 84.2764 36.7097 84.3607C36.8489 84.4451 37.2665 84.3326 37.6563 84.0795C38.1854 83.7139 38.3524 83.7139 38.4638 83.9952C38.5752 84.2482 38.6865 84.2764 38.8536 84.0795C38.965 83.9108 39.3548 83.7983 39.7167 83.8264C40.385 83.8546 40.3571 84.0233 40.4407 78.7929C40.4407 77.7525 40.5799 76.9089 40.7191 76.9089C40.8583 76.9089 40.8862 76.8245 40.8026 76.7401C40.552 76.4589 41.1368 75.4466 41.4709 75.6434C41.6101 75.7559 41.7215 75.6997 41.7215 75.531C41.7215 75.2498 44.1995 73.9843 44.5893 74.0687C44.7007 74.0687 44.8678 73.9 44.9513 73.675C45.0348 73.4501 45.2297 73.3376 45.3689 73.4219C45.5082 73.5063 45.6195 73.4219 45.6195 73.2813C45.6195 73.1126 45.7587 72.972 45.9258 72.972C46.065 72.972 46.1207 73.0845 46.0372 73.2532C45.9537 73.4219 46.065 73.4501 46.2878 73.3657C46.5384 73.2813 46.7333 73.0845 46.7333 72.972C46.7333 72.5221 48.5709 72.1847 50.5756 72.2409C51.6615 72.269 52.5804 72.2128 52.5804 72.1284C52.5804 72.0441 52.831 71.9597 53.1372 71.9316C53.4435 71.9034 53.6941 71.9878 53.6941 72.1284C53.6941 72.2971 53.9725 72.2971 54.3623 72.1284C54.8635 71.9597 55.1419 71.9878 55.4482 72.3534C55.6988 72.6065 56.2 73.1689 56.562 73.5907C57.3137 74.4061 58.9008 77.4713 58.7616 77.8368C58.7337 77.9774 58.9565 78.4836 59.2628 79.0179C59.569 79.524 59.8196 80.2552 59.8196 80.677C59.8196 81.2394 59.9588 81.4081 60.46 81.4081C60.7941 81.4081 61.2675 81.2956 61.4902 81.1269C61.7408 80.9863 62.0192 80.9863 62.242 81.1831C62.4926 81.38 62.604 81.38 62.604 81.1831C62.604 80.8738 63.1887 80.93 64.3302 81.2956C64.72 81.4081 64.8314 81.3518 64.72 81.155C64.4695 80.7894 64.72 80.7613 65.3604 81.0988C65.8338 81.3518 68.1169 80.9863 68.4511 80.5926C68.6738 80.3114 70.1217 80.2833 70.1217 80.5645C70.1217 80.7051 70.4558 80.6488 70.8456 80.4239C71.2354 80.227 71.8758 80.0864 72.2377 80.1427C72.5997 80.1708 72.906 80.1146 72.906 80.0021C72.906 79.8615 73.1287 79.8052 73.4072 79.8615C73.6578 79.9177 73.8805 79.974 73.8805 80.0021C73.8805 80.1989 75.6346 80.1427 75.8852 79.9177C76.0801 79.7771 76.5256 79.7209 76.8597 79.8052C77.2217 79.9177 77.6672 79.8052 77.9735 79.524C78.3633 79.1866 78.5582 79.1585 78.8645 79.4116C79.1429 79.6646 79.3099 79.6646 79.4492 79.4397C79.5605 79.2428 79.7554 79.2147 79.9503 79.4116C80.1452 79.5522 80.73 79.6365 81.2868 79.5803C82.3727 79.4678 84.1547 78.5117 83.8484 78.2024C83.737 78.0899 83.7649 77.9212 83.9319 77.8087C84.2939 77.5837 84.9065 74.378 84.5723 74.378C84.461 74.378 84.4053 74.1531 84.461 73.8719C84.5166 73.6188 84.5723 73.3938 84.628 73.3938C84.6559 73.3938 84.6837 72.6065 84.7116 71.6222C84.7394 70.6662 84.6559 69.8788 84.5445 69.8788C84.4331 69.8788 84.3217 69.6538 84.3217 69.3726C84.3217 69.0914 84.1547 68.6977 83.9876 68.5009C83.7092 68.1916 83.7092 68.1353 83.9876 68.3041C84.461 68.5853 84.4053 68.051 83.9041 67.6292C83.5978 67.3761 83.57 67.1511 83.7649 66.7856C83.9319 66.4762 83.9319 66.195 83.7927 66.1107C83.6535 66.0263 83.57 65.014 83.6257 63.9173C83.6535 62.5394 83.57 61.6677 83.3194 61.3021C82.8739 60.6554 82.8182 60.2054 83.208 60.4585C83.3751 60.5429 83.4864 60.4304 83.4864 60.2054C83.4864 59.9523 83.3751 59.7555 83.208 59.7555C83.0688 59.7555 82.7904 59.2212 82.6233 58.5463C82.4284 57.8996 82.15 57.2247 82.0107 57.0278C81.5931 56.4373 82.0386 55.6781 83.1523 55.2C84.5723 54.5814 86.048 53.316 85.881 52.8379C85.7974 52.613 85.881 52.5286 86.1037 52.613C86.2986 52.6973 86.6606 52.5567 86.9112 52.3318C87.1618 52.0787 87.468 51.8818 87.6351 51.8818C87.7743 51.8818 87.9971 51.6288 88.0806 51.3194C88.192 50.982 88.7488 50.2509 89.3335 49.6322C89.9183 49.0136 90.4751 48.2824 90.5865 47.945C90.67 47.6357 90.8649 47.3826 91.0041 47.3826C91.394 47.3826 91.8951 45.1049 91.7559 44.0925C91.6724 43.5864 91.7002 43.1083 91.8394 43.024C91.9787 42.9396 92.0343 42.2085 91.9787 41.393C91.8951 40.3244 91.7002 39.7901 91.2826 39.4527C90.9485 39.1715 90.7257 38.8622 90.8092 38.7497C91.199 38.0748 88.5539 35.319 87.9135 35.7408C87.7743 35.8252 87.6629 35.6565 87.6629 35.3753C87.6629 34.7285 86.5771 33.688 85.6861 33.4631C85.2963 33.3787 84.7672 32.9288 84.5166 32.4789C83.8484 31.3822 82.2892 30.4542 81.259 30.5667C80.7856 30.5948 80.3123 30.5105 80.2009 30.3417C80.006 30.0324 79.5048 29.948 78.2519 29.948C77.5001 29.948 76.7205 29.2732 76.6648 28.5702C76.637 28.3171 76.4699 27.839 76.275 27.4735C76.108 27.136 76.0244 26.7142 76.108 26.5455C76.2193 26.4049 76.1358 26.0675 75.9409 25.8425C75.4676 25.252 75.384 24.6614 75.746 24.4365C75.9131 24.324 75.8852 24.1834 75.6625 24.0428C75.4119 23.8741 75.384 23.7054 75.6068 23.4242C75.9131 23.0305 75.7738 20.9496 75.4119 20.9496C75.3005 20.9496 75.2448 20.5559 75.3005 20.106C75.384 19.5154 75.2727 19.178 74.9664 19.0655C74.6601 18.953 74.5766 18.6718 74.688 18.1094C74.7715 17.6314 74.7158 17.2939 74.5487 17.2939C74.3817 17.2939 74.2982 17.069 74.3538 16.7878C74.4374 16.2254 73.7691 14.51 73.2401 13.9476C72.9617 13.6383 72.9338 13.4977 73.2123 13.329C73.4628 13.1884 73.435 13.0197 73.073 12.626C72.7389 12.2885 72.6276 11.8949 72.7389 11.3324C72.8503 10.7982 72.7946 10.5732 72.5997 10.7138C72.4048 10.8263 72.3213 10.6294 72.377 10.2358C72.544 8.54855 71.4024 7.3675 69.3977 7.05817C68.4789 6.91757 68.2005 6.97381 68.0612 7.33938C67.9499 7.59246 67.8107 7.73306 67.6993 7.62058C67.6158 7.53622 67.2816 7.6487 67.0032 7.9299C66.7248 8.18298 66.502 8.29547 66.502 8.2111C66.502 8.09862 66.1957 8.15486 65.8059 8.29546C65.3604 8.46419 65.1099 8.46419 65.1099 8.29546C65.1099 8.15486 64.915 8.09862 64.6922 8.18298C64.4695 8.29547 64.3581 8.46419 64.4416 8.60479C64.5251 8.74539 64.4138 8.85787 64.2189 8.85787C64.024 8.85787 63.4949 9.05471 63.0773 9.27967C62.6596 9.50463 61.88 9.75772 61.351 9.8702C60.822 9.95456 60.3765 10.1514 60.3765 10.3201C60.3765 10.4607 60.2651 10.517 60.1259 10.4045C59.9867 10.3201 59.7639 10.4045 59.6804 10.5732C59.569 10.7138 59.3184 10.7982 59.1235 10.7138C58.9008 10.6294 58.5945 10.7419 58.4275 10.9669C58.2604 11.1637 57.8427 11.3043 57.5086 11.22C57.2023 11.1637 56.8404 11.2481 56.7569 11.4168C56.6455 11.5574 56.2557 11.698 55.8937 11.698C54.9749 11.7261 53.1372 12.2604 53.1372 12.5416C53.1372 12.6541 52.9145 12.6822 52.6361 12.5979C52.3576 12.5416 51.4109 12.7385 50.5478 13.0478C48.6823 13.6945 48.1254 13.3571 49.9352 12.6541C50.6313 12.401 51.1882 12.1479 51.1882 12.0917C51.1882 11.7824 50.2694 10.3482 49.8239 9.98268C49.5454 9.75772 48.905 8.80163 48.4039 7.87366C47.9027 6.94569 47.3737 6.04584 47.1788 5.90524C47.0117 5.73652 46.6776 5.23036 46.4548 4.78044C46.2321 4.30239 45.6195 3.73999 45.1462 3.51503C44.645 3.29006 44.2274 2.86826 44.1717 2.55894C44.116 2.27774 43.6705 1.79969 43.1693 1.51849C42.6403 1.2654 42.0277 0.843602 41.7493 0.590519C41.4709 0.337437 41.1924 0.224954 41.0811 0.309315C40.9975 0.393676 40.7748 0.365556 40.5799 0.253075C40.023 -0.0843676 35.8187 -0.0843676 35.0391 0.253075ZM39.8003 3.17758C40.2179 3.3463 40.6356 3.40254 40.7748 3.29006C40.8862 3.17758 40.8862 3.26194 40.7748 3.43067C40.6356 3.65563 40.8583 3.90871 41.3595 4.13367C41.7772 4.33051 42.3062 4.63983 42.5011 4.83668C42.696 5.03352 43.0023 5.20224 43.1415 5.20224C43.2807 5.20224 43.4478 5.51156 43.5591 5.90524C43.6427 6.29892 43.8654 6.72073 44.0603 6.83321C44.2274 6.9457 44.5058 7.28313 44.7007 7.59246C44.8678 7.90178 45.1462 8.12675 45.3411 8.07051C45.536 8.04239 45.6195 8.15486 45.536 8.3517C45.3689 8.88599 46.0372 10.1233 46.9003 10.7982C47.318 11.1356 47.485 11.3887 47.2623 11.3887C46.9839 11.4168 46.9839 11.5012 47.3458 11.7824C47.9584 12.2323 48.5152 13.6383 48.0976 13.6383C47.9305 13.6383 48.1811 14.0882 48.6545 14.6225C49.1278 15.1849 49.5176 15.8317 49.5176 16.0566C49.5176 16.4222 49.6568 16.3941 50.3251 15.8879C50.8262 15.5505 51.216 15.438 51.3274 15.6067C51.5223 15.916 52.4411 15.7754 54.0561 15.1568C54.6129 14.9318 55.1976 14.7912 55.309 14.8194C55.4204 14.8475 55.7823 14.735 56.1165 14.5382C56.4506 14.3413 57.091 14.2288 57.5086 14.257C58.7059 14.3413 60.3208 13.6664 60.5436 13.0197C60.6549 12.626 60.7941 12.5416 60.989 12.7385C61.5738 13.329 64.7757 12.1479 64.6087 11.4168C64.5808 11.22 64.7757 11.1637 65.2212 11.2762C65.5832 11.3606 66.3906 11.2762 67.031 11.1075C67.8942 10.8825 68.1726 10.6576 68.1726 10.2076C68.1726 9.7296 68.2283 9.67336 68.6181 10.0108C68.9244 10.2639 69.1193 10.2639 69.2307 10.067C69.3699 9.8702 69.5369 9.8702 69.7597 10.1514C69.9546 10.3482 70.0103 10.5732 69.8711 10.6857C69.3699 10.995 69.8432 13.4415 70.5393 14.2007C70.9848 14.6788 71.124 15.0443 70.9848 15.2974C70.8456 15.5224 70.9013 15.9723 71.124 16.4222C71.3468 16.8159 71.4303 17.3783 71.3468 17.6314C71.2632 17.8845 71.4303 18.3344 71.7087 18.6156C72.015 18.9249 72.1821 19.4311 72.1264 19.9372C72.0707 20.3872 72.1821 20.8371 72.3491 20.9496C72.5162 21.0621 72.6832 21.5682 72.6832 22.0463C72.7111 22.5524 72.8781 23.0305 73.0452 23.1148C73.3236 23.1992 73.2958 23.4242 72.9895 24.0709C72.4883 25.0551 72.7111 26.7986 73.4072 27.586C73.7134 27.9234 73.9083 28.6545 73.9083 29.6387C73.9362 30.4823 74.1032 31.2416 74.2982 31.3541C74.4931 31.4665 74.5487 31.804 74.4374 32.1696C74.2703 32.732 74.3538 32.7601 75.8017 32.7601C76.637 32.7601 77.3888 32.8444 77.4444 32.9569C77.528 33.0975 78.3354 33.1819 79.2543 33.1819C80.1731 33.1819 80.8692 33.2662 80.8135 33.3787C80.73 33.5193 80.897 33.6037 81.1754 33.6037C81.4539 33.6037 81.8715 33.8568 82.0943 34.138C82.2892 34.4473 82.5676 34.6441 82.679 34.5598C82.7904 34.5035 82.9574 34.7004 83.0688 35.0097C83.1523 35.319 83.3472 35.5721 83.4586 35.5721C83.6535 35.5721 84.0712 35.8814 85.3519 36.9781C85.5469 37.1187 85.7696 37.2593 85.8531 37.2593C85.9645 37.2593 86.2151 37.4562 86.4378 37.6811C86.6884 37.9061 86.772 38.1029 86.6606 38.1029C86.5492 38.1029 86.8276 38.3841 87.301 38.7216C87.7465 39.0871 88.192 39.4808 88.2477 39.6495C88.3033 39.7901 88.4426 39.9026 88.5818 39.8464C88.7767 39.7901 88.8602 40.5775 88.8324 42.3772C88.8324 42.9958 88.9437 43.4458 89.1386 43.4458C89.3614 43.4458 89.3335 43.5582 89.1108 43.7832C88.9159 43.98 88.7767 44.4581 88.7767 44.8799C88.7767 45.3017 88.5818 45.836 88.359 46.0609C88.0528 46.3984 88.0249 46.539 88.3033 46.6234C88.4982 46.7077 88.4426 46.8483 88.0806 46.9608C87.468 47.2139 86.0202 48.5355 85.9923 48.8449C85.9923 48.9573 85.5469 49.4916 85.0178 50.0259C84.4888 50.5883 84.0433 51.1788 84.0433 51.3476C84.0433 51.5444 83.9598 51.6288 83.8763 51.5163C83.7649 51.4319 83.2915 51.5444 82.8182 51.7975C82.3449 52.0506 81.8437 52.3036 81.6766 52.3318C81.5374 52.3599 80.8413 52.6973 80.1452 53.0629L78.8923 53.7378L78.9201 55.2563C78.9201 56.0999 79.0872 57.1684 79.2543 57.5902C79.4492 58.0402 79.5327 58.4901 79.4492 58.6307C79.2543 58.94 80.0339 60.7116 80.5629 61.1615C80.8135 61.3865 80.897 61.6396 80.73 61.8364C80.368 62.2863 80.5351 65.0984 80.9527 65.3796C81.2033 65.5202 81.2311 65.6608 81.0362 65.7732C80.5907 66.0544 80.7856 69.0071 81.259 69.3164C81.5096 69.4851 81.6488 70.16 81.7045 71.2848C81.7323 72.4096 81.8994 73.1126 82.1221 73.2813C82.3449 73.4219 82.3727 73.5344 82.2335 73.5344C81.8994 73.5344 81.2311 75.1092 81.4817 75.3341C81.5653 75.4185 81.8715 75.5028 82.15 75.5028C82.7068 75.5028 82.7347 75.6434 82.3727 76.487C82.2335 76.7964 82.1221 76.9089 82.1221 76.712C82.0943 76.487 81.6766 76.4308 80.8413 76.487C80.0617 76.5714 79.5884 76.5152 79.5884 76.3183C79.5884 76.0371 78.4746 76.234 78.1962 76.5995C78.1127 76.6839 77.6115 76.7964 77.0825 76.7964C75.7182 76.8526 74.1589 77.0776 73.8248 77.2744C73.6856 77.3588 73.1009 77.3025 72.5719 77.1338C71.6809 76.8807 71.3746 76.9089 70.1495 77.5556C69.3699 77.9493 68.7295 78.1461 68.7295 78.0055C68.7295 77.5837 66.7248 77.7243 66.1957 78.2024C65.7502 78.6242 65.611 78.6242 64.8314 78.2305C64.3581 77.9774 63.8012 77.8368 63.6063 77.9212C63.0773 78.118 61.7687 77.5275 61.5738 76.9932C61.4624 76.712 61.2675 76.4027 61.1283 76.3183C60.989 76.2058 60.8498 75.6997 60.7941 75.1654C60.7385 74.1531 59.9032 72.7471 58.7059 71.6222C58.3161 71.2567 57.5643 70.5256 57.0353 70.0194C55.8937 68.9508 54.5294 68.6696 53.3878 69.232C52.9423 69.457 52.4411 69.5413 52.2462 69.4289C51.6058 69.0071 49.2392 69.0914 49.0164 69.5132C48.8215 69.8226 48.6266 69.8507 47.9862 69.5976C46.9003 69.1758 46.0372 69.4289 45.0348 70.4693C44.5336 71.0036 44.0325 71.2567 43.7819 71.1723C43.5313 71.088 43.1972 71.088 43.0301 71.2004C42.8352 71.3129 42.5568 71.4254 42.3897 71.4535C41.8885 71.5379 40.8862 72.494 40.8862 72.9158C40.8862 73.1407 40.7191 73.2532 40.552 73.1689C39.4105 72.7752 37.712 74.7998 37.8512 76.4308C37.9069 76.937 37.8512 77.4994 37.712 77.6962C37.6007 77.8931 37.4614 78.5679 37.4058 79.2147C37.3222 80.3114 36.3477 81.6893 35.5959 81.6893C35.4567 81.6893 35.3175 81.8018 35.3175 81.9143C35.3175 82.0549 34.5379 82.1392 33.6191 82.083C32.1434 82.0267 31.8928 82.1111 31.7814 82.561C31.6422 83.0109 31.5865 83.0391 31.0296 82.6735C30.1108 82.083 26.9645 82.5329 26.9645 83.264C26.9645 83.5452 26.7974 83.5733 26.2963 83.3765C25.5167 83.0953 23.6233 83.3203 23.6233 83.7139C23.6233 83.8546 23.4562 83.8827 23.2892 83.7421C22.7045 83.3765 20.7554 83.4327 19.9201 83.8546C19.5025 84.0795 19.0013 84.1639 18.8343 84.0514C18.2495 83.6858 17.2193 83.6858 17.2193 84.0514C17.2193 84.2201 16.9966 84.3888 16.7182 84.3888C16.2448 84.3888 16.2448 84.3045 16.5511 83.6858C16.8295 83.1797 16.8295 82.8703 16.6068 82.6173C16.4397 82.4204 16.384 81.9986 16.4676 81.6893C16.5511 81.3518 16.3562 80.9019 15.9942 80.5082C15.4652 79.9177 15.4374 79.7771 15.7993 79.046C16.2448 78.0618 15.855 76.4308 15.0197 75.8122C14.6021 75.5028 14.5464 75.2498 14.7413 74.603C15.0476 73.5063 14.7691 72.1003 14.1009 71.4535C13.5719 70.9474 13.5719 70.9474 14.1566 70.5256C14.4907 70.3006 14.6856 69.935 14.6021 69.7101C14.5185 69.4851 14.6021 69.3164 14.797 69.3164C14.9919 69.3164 15.3817 68.9508 15.688 68.4728C15.9942 67.9947 16.3005 67.7698 16.4119 67.9666C16.5511 68.1635 16.746 68.1635 17.108 67.9385C17.4142 67.7698 17.5535 67.6292 17.4421 67.6292C17.2472 67.6292 18.2774 66.645 20.4213 64.7328C21.3402 63.9173 21.5351 63.5517 21.5629 62.6519C21.5629 62.0332 21.7021 61.3584 21.8135 61.1334C22.259 60.4304 22.2311 58.237 21.7856 57.8714C21.5072 57.6746 21.4515 57.5059 21.6464 57.3653C22.0362 57.1403 22.0362 55.5656 21.6464 54.4408C21.368 53.6253 20.4213 52.8098 19.948 52.9504C19.8088 52.9785 19.7252 52.8098 19.7252 52.5567C19.7252 51.9662 17.7762 50.1384 17.3029 50.3071C17.108 50.3915 16.9409 50.2509 16.9409 49.9978C16.9409 49.7447 16.4954 49.0979 15.9386 48.5918C15.0197 47.7482 14.2958 47.4951 12.9872 47.6076C12.7087 47.6357 12.486 47.467 12.486 47.2139C12.486 46.9327 12.3189 46.8202 12.0683 46.9046C11.8456 47.017 11.595 46.9608 11.4836 46.7921C11.4001 46.6234 11.1495 46.5671 10.9546 46.6515C10.7597 46.7077 10.3142 46.539 9.95224 46.2297C9.61812 45.9485 9.22831 45.6954 9.11694 45.6954C9.00556 45.6954 8.92203 45.1611 8.97772 44.4862C9.03341 43.3052 8.69929 42.0398 8.28164 42.0398C8.17026 42.0398 8.08673 41.7586 8.08673 41.393C8.17026 40.0151 8.0032 39.3121 7.47418 38.7497C7.14006 38.356 7.05653 38.1029 7.25143 38.0467C7.75261 37.878 7.64124 35.2628 7.11222 34.4192C6.86163 34.0255 6.69457 33.6318 6.80594 33.5474C6.88947 33.4631 7.00084 32.9288 7.08437 32.3664C7.22359 31.2416 6.52751 29.8075 5.97064 30.1449C5.74789 30.2855 5.74789 30.2293 5.99848 29.9199C6.16554 29.695 6.27692 28.9076 6.22123 28.1484C6.16554 27.1079 5.97064 26.6299 5.52515 26.2924C4.99613 25.8987 4.94044 25.73 5.21887 25.2238C5.41377 24.8583 5.41377 24.5771 5.24671 24.4646C5.1075 24.3802 5.05181 24.1272 5.16319 23.9022C5.24672 23.6491 5.13534 23.2836 4.94044 23.0305C4.74554 22.8055 4.55063 22.2431 4.49495 21.7651C4.43926 21.0902 4.55063 20.8933 5.13534 20.6684C5.55299 20.4996 5.99848 20.4715 6.19339 20.6121C6.61104 20.9496 8.97772 20.7809 9.08909 20.4153C9.14478 20.2184 9.42321 20.2747 9.84086 20.5559C10.7597 21.1464 12.1797 21.2308 13.1264 20.7527C13.5997 20.5278 14.0452 20.4434 14.2401 20.584C14.435 20.7246 15.3817 20.8371 16.384 20.809C17.9711 20.809 18.1939 20.7527 18.1103 20.3028C18.0268 19.8248 18.0825 19.8248 18.9178 20.2466C19.3911 20.5278 19.8645 20.6121 19.9758 20.4715C20.0594 20.3309 20.6998 20.2184 21.368 20.2466C22.3147 20.2466 22.6209 20.1622 22.7323 19.7685C22.8437 19.3467 22.9272 19.3467 23.4562 19.6842C23.7625 19.881 24.4865 20.0216 25.0155 19.9935C25.8229 19.9654 26.0178 19.8248 26.0735 19.2624C26.1292 18.8968 26.0178 18.0813 25.8229 17.4345C25.4053 16.0004 25.2382 13.0197 25.628 13.2446C25.7951 13.3571 25.8508 13.0759 25.7672 12.5697C25.6559 11.9792 25.7672 11.6699 26.0457 11.5574C26.2684 11.4449 26.4076 11.22 26.3241 11.0231C26.2406 10.8263 26.7974 9.95456 27.5492 9.13907C28.301 8.29546 28.8857 7.42374 28.83 7.19878C28.8022 6.9457 28.9414 6.74885 29.1084 6.74885C29.3033 6.74885 29.6653 6.46765 29.8881 6.10209C30.1386 5.76464 30.5285 5.48344 30.7512 5.48344C30.9739 5.48344 31.1132 5.37096 31.0296 5.23036C30.9461 5.08976 31.2524 4.83668 31.6979 4.66796C32.1712 4.52736 32.5332 4.24615 32.5332 4.10555C32.5332 3.93683 32.9787 3.79623 33.5077 3.79623C34.0924 3.79623 34.5657 3.62751 34.6493 3.43067C34.7885 3.00886 35.5959 2.89638 35.5959 3.29006C35.5959 3.43066 35.8465 3.40254 36.1806 3.23382C36.4869 3.03698 37.0716 2.98074 37.4336 3.0651C37.7956 3.17758 38.1018 3.12134 38.1018 2.98074C38.1018 2.67142 38.6865 2.75578 39.8003 3.17758ZM73.1844 18.1375C73.1844 18.2781 72.9895 18.4188 72.7389 18.4188C72.5162 18.4188 72.4048 18.2781 72.4883 18.1375C72.5719 17.9688 72.7668 17.8563 72.9338 17.8563C73.073 17.8563 73.1844 17.9688 73.1844 18.1375ZM19.4468 18.9812C19.4468 19.1218 19.3354 19.2624 19.1684 19.2624C19.0292 19.2624 18.8899 19.1218 18.8899 18.9812C18.8899 18.8124 19.0292 18.7 19.1684 18.7C19.3354 18.7 19.4468 18.8124 19.4468 18.9812ZM17.7762 19.2624C17.7762 19.403 17.6648 19.5436 17.4978 19.5436C17.3586 19.5436 17.2193 19.403 17.2193 19.2624C17.2193 19.0936 17.3586 18.9812 17.4978 18.9812C17.6648 18.9812 17.7762 19.0936 17.7762 19.2624ZM73.7413 19.8248C73.7413 19.9654 73.6299 20.106 73.4629 20.106C73.3236 20.106 73.1844 19.9654 73.1844 19.8248C73.1844 19.656 73.3236 19.5436 73.4629 19.5436C73.6299 19.5436 73.7413 19.656 73.7413 19.8248ZM3.29768 22.3837C3.29768 22.5243 3.18631 22.6368 3.01925 22.6368C2.88003 22.6368 2.74082 22.4399 2.74082 22.1869C2.74082 21.9619 2.88003 21.8494 3.01925 21.9338C3.18631 22.0181 3.29768 22.215 3.29768 22.3837ZM13.0428 69.7382C13.0428 69.9913 12.8758 70.0756 12.5974 69.9632C12.2354 69.8226 12.2354 69.7663 12.5417 69.5695C13.015 69.2601 13.0428 69.2601 13.0428 69.7382ZM79.0315 77.7525C79.0315 77.8931 78.9201 78.0337 78.7531 78.0337C78.6139 78.0337 78.4746 77.8931 78.4746 77.7525C78.4746 77.5837 78.6139 77.4713 78.7531 77.4713C78.9201 77.4713 79.0315 77.5837 79.0315 77.7525ZM77.6394 77.8649C77.6394 78.1743 77.1103 78.2867 76.9433 78.0337C76.8597 77.8931 76.9711 77.7525 77.1939 77.7525C77.4444 77.7525 77.6394 77.8087 77.6394 77.8649ZM15.5487 83.3765C15.5487 83.5171 15.4374 83.6577 15.2703 83.6577C15.1311 83.6577 14.9919 83.5171 14.9919 83.3765C14.9919 83.2078 15.1311 83.0953 15.2703 83.0953C15.4374 83.0953 15.5487 83.2078 15.5487 83.3765ZM15.7993 85.0356C15.3817 85.1762 15.1868 84.8669 15.4095 84.5013C15.5766 84.2482 15.688 84.2482 15.855 84.5294C15.9942 84.7544 15.9664 84.9512 15.7993 85.0356Z"
          fill="white"/>
</svg>
