<svg width="92" height="60" viewBox="0 0 92 60" fill="none" xmlns="http://www.w3.org/2000/svg">
    <path d="M52.3664 0.0620571C52.2227 0.086067 51.9832 0.230126 51.8275 0.374186C51.6598 0.53025 51.4323 0.62629 51.2766 0.60228C50.9414 0.55426 50.1869 0.890399 50.0911 1.1305C50.0552 1.22654 49.9834 1.26255 49.9235 1.22654C49.8636 1.19052 49.8157 1.25055 49.8157 1.35859C49.8157 1.46664 49.7678 1.52666 49.7079 1.49065C49.5403 1.3826 48.3787 1.93483 48.3787 2.12691C48.3787 2.22295 48.3069 2.25896 48.1991 2.21094C48.1033 2.17493 48.0195 2.19894 48.0195 2.27097C48.0195 2.343 47.9596 2.355 47.8997 2.31899C47.768 2.23495 46.9417 2.70315 46.9417 2.85921C46.9417 2.90723 46.7621 3.01528 46.5585 3.11132C46.343 3.19535 46.0077 3.38743 45.8041 3.51948C45.6125 3.66354 45.1934 3.90364 44.894 4.0477C44.5827 4.19176 44.1995 4.43186 44.0438 4.58792C43.8761 4.73198 43.5408 4.96008 43.2894 5.09213C43.0499 5.21218 42.7505 5.36825 42.6188 5.44028C42.499 5.5003 42.3913 5.59634 42.3913 5.64436C42.3913 5.70439 42.3314 5.7404 42.2476 5.7404C42.1757 5.7404 41.9841 5.84845 41.8404 5.9925C41.6967 6.12456 41.5051 6.24461 41.4213 6.25661C41.0022 6.32864 40.4872 6.62877 40.3555 6.89288C40.2597 7.04894 40.0921 7.181 39.9603 7.181C39.8406 7.181 39.5652 7.30104 39.3616 7.4451C39.146 7.60117 38.9544 7.70921 38.9185 7.6852C38.8826 7.66119 38.8347 7.76924 38.7988 7.9253C38.7628 8.08137 38.691 8.14139 38.6551 8.06936C38.4874 7.81726 37.8288 8.04535 37.3498 8.52555C37.0624 8.81367 36.799 8.96973 36.7032 8.93372C36.6074 8.8977 36.5235 8.92171 36.5235 8.98174C36.5235 9.05377 36.4397 9.10179 36.3319 9.10179C36.2242 9.10179 36.0086 9.23384 35.8649 9.40191C35.6613 9.606 35.5057 9.67803 35.2781 9.63001C34.847 9.55798 33.8891 10.1822 33.8891 10.5424C33.8891 10.6264 33.8172 10.6384 33.6615 10.5424C33.4939 10.4583 33.422 10.4583 33.3861 10.5664C33.3502 10.6744 32.3203 10.8065 31.5539 10.7945C30.7995 10.7825 29.4344 10.6504 29.123 10.5544C28.6919 10.4223 28.1291 10.4944 28.0094 10.6864C27.9615 10.7705 27.9136 10.7705 27.8896 10.6744C27.8297 10.5064 27.2789 10.4103 26.1652 10.3863C25.7102 10.3743 25.2671 10.3263 25.1953 10.2783C24.9677 10.1342 24.1415 10.1342 23.8541 10.2903C23.7104 10.3623 23.5188 10.3863 23.4349 10.3383C23.3631 10.2903 23.2074 10.2423 23.1116 10.2182C23.0158 10.2062 22.7524 10.1582 22.5368 10.1222C22.2494 10.0742 22.1297 10.0982 22.0818 10.2303C22.0219 10.3983 21.974 10.3863 21.7225 10.2303C21.3393 9.97815 20.7286 9.94213 20.3215 10.1462C20.082 10.2663 19.9383 10.2783 19.8305 10.1942C19.7107 10.0982 18.9803 10.0982 18.609 10.2062C18.5492 10.2182 18.3456 10.1462 18.142 10.0382C17.651 9.78607 16.8248 9.8461 16.5733 10.1702C16.4655 10.3143 16.4296 10.3023 16.3697 10.1462C16.3099 9.97815 16.1781 9.95414 15.6872 10.0022C15.3159 10.0382 15.0884 10.0142 15.0884 9.94213C15.0884 9.66602 14.5974 10.0862 14.5376 10.4223C14.4537 10.8305 14.2861 10.9145 13.4119 10.9746C13.0527 11.0106 12.5617 11.0586 12.3342 11.0946C11.8073 11.1786 11.3522 11.2027 11.1966 11.1546C10.8732 11.0466 10.3104 11.1666 10.0829 11.3947C9.92722 11.5388 9.75957 11.5988 9.66377 11.5388C9.40032 11.3707 8.37048 11.4067 8.29863 11.5748C8.25073 11.7069 8.17888 11.7069 7.98728 11.5988C7.64001 11.4187 7.00533 11.4548 6.65806 11.6829C6.44251 11.8269 6.29881 11.8509 6.14314 11.7669C5.87969 11.6228 5.28094 11.7189 5.0175 11.935C4.8738 12.067 4.74207 12.079 4.46665 11.971C4.03555 11.8269 3.23323 11.995 2.93386 12.3071C2.80213 12.4272 2.69436 12.4512 2.62251 12.3791C2.53869 12.2951 2.33511 12.2951 2.05969 12.3551C1.80821 12.4152 1.60464 12.4032 1.58069 12.3431C1.53279 12.1991 1.16157 12.3431 1.04182 12.5472C0.993919 12.6312 0.838245 12.7033 0.718496 12.7033C0.395173 12.7033 0.179624 13.1355 0.371223 13.3756C0.478997 13.5076 0.478997 13.5916 0.395173 13.6397C0.299373 13.6997 0.263448 14.6841 0.359248 14.6841C0.371223 14.6841 0.395173 14.7801 0.419123 14.9002C0.443072 15.0082 0.419123 15.0803 0.371223 15.0562C0.323323 15.0202 0.299373 15.2243 0.299373 15.5004C0.311348 15.7765 0.263448 16.0407 0.191599 16.0887C0.107774 16.1487 0.107774 16.1847 0.215549 16.1847C0.335298 16.1847 0.335298 16.2327 0.215549 16.4488C0.0718496 16.7369 -0.0239499 18.2256 0.107774 18.2256C0.155674 18.2256 0.191599 18.3336 0.203574 18.4657C0.215549 18.5977 0.167649 18.7058 0.107774 18.7058C0.0359248 18.7058 0.0119749 18.7538 0.0478997 18.8018C0.167649 19.0059 0.215549 19.5461 0.107774 19.5461C0.0478997 19.5461 0 19.6301 0 19.7382C0 19.8342 0.0478997 19.8822 0.119749 19.8462C0.203574 19.7982 0.203574 19.8822 0.119749 20.0863C0.0478997 20.2664 0.0239499 20.4585 0.0598746 20.5185C0.107774 20.5785 0.155674 20.9027 0.179624 21.2508C0.203574 21.5989 0.275423 21.8991 0.347273 21.9231C0.431097 21.9471 0.431097 22.0671 0.347273 22.2832C0.167649 22.7394 0.311348 23.1836 0.598746 23.1116C0.754421 23.0756 0.838245 23.1116 0.838245 23.2196C0.838245 23.3157 0.934045 23.3877 1.05379 23.3877C1.16157 23.3877 1.38909 23.4597 1.55674 23.5437C1.72439 23.6278 1.97586 23.6878 2.11956 23.6758C2.27524 23.6638 2.35906 23.7118 2.31116 23.8199C2.28721 23.9039 2.35906 24.072 2.47881 24.192C2.59856 24.3241 2.70633 24.4921 2.71831 24.5882C2.75423 24.9483 2.86201 25.2965 2.99373 25.5366C3.08953 25.7287 3.08953 25.7887 2.96978 25.7887C2.86201 25.7887 2.85003 25.8247 2.94583 25.8847C3.01768 25.9327 3.06558 26.1488 3.05361 26.3649C3.01768 27.0012 3.41286 27.2293 4.23913 27.0612C4.65825 26.9772 4.88577 26.8331 5.64019 26.1128C5.85574 25.9207 5.87969 25.9207 6.08326 26.1248C6.20301 26.2449 6.28684 26.4009 6.26289 26.473C6.23894 26.545 6.27486 26.641 6.33474 26.689C6.40659 26.7251 6.46646 26.8811 6.46646 27.0372C6.46646 27.1812 6.50239 27.3493 6.55029 27.3973C6.59819 27.4454 6.64609 27.6014 6.64609 27.7455C6.64609 27.9376 6.72991 28.0096 6.94546 28.0336C8.4543 28.1537 8.5022 28.1537 8.6459 27.9736C8.77762 27.8175 8.76565 27.7935 8.62195 27.8655C8.52615 27.9136 8.53812 27.8895 8.66985 27.8055C8.7896 27.7215 9.0291 27.5294 9.19675 27.3733L9.50809 27.0972L9.0291 26.617L8.53812 26.1368L8.37048 26.473C8.19085 26.8451 7.9274 26.9171 7.77173 26.629C7.60408 26.3049 7.50828 25.9687 7.48433 25.6206C7.44841 25.2965 7.47236 25.2845 7.8316 25.3685C8.41838 25.4886 8.56207 25.5246 8.56207 25.5486C8.56207 25.5606 8.6938 25.5966 8.86145 25.6206C9.01712 25.6446 9.18477 25.7166 9.2207 25.7647C9.25662 25.8127 9.44822 25.8607 9.63982 25.8727C10.3224 25.9087 10.7894 26.0288 10.993 26.2209C11.1726 26.4009 11.1606 26.4129 10.9092 26.3289C10.7056 26.2689 10.6577 26.2809 10.7176 26.3889C10.7655 26.473 10.7415 26.581 10.6577 26.629C10.5499 26.7011 10.5499 26.7851 10.6457 26.9652C10.7176 27.1092 10.7295 27.2413 10.6697 27.2773C10.5858 27.3373 10.5739 28.2977 10.6577 28.3938C10.7415 28.4898 10.7056 28.7419 10.5978 28.8139C10.514 28.8739 10.514 28.946 10.5978 28.994C10.6697 29.054 10.7295 29.2221 10.7535 29.3902C10.8373 30.0384 11.6875 30.2065 12.1665 29.6903C12.3222 29.5222 12.5018 29.3902 12.5737 29.3902C12.6336 29.3902 12.6934 29.3301 12.6934 29.2581C12.6934 29.1981 12.7413 29.1621 12.7892 29.1981C12.8491 29.2341 13.0886 29.078 13.3281 28.8619C13.5796 28.6338 13.7712 28.5018 13.7712 28.5618C13.7712 28.6218 13.8909 28.5978 14.0466 28.4898C14.2023 28.3938 14.3699 28.3457 14.4058 28.3938C14.4537 28.4298 14.4897 28.4058 14.4897 28.3337C14.4897 28.2497 14.5735 28.1897 14.6693 28.1897C14.7651 28.1897 14.8489 28.1416 14.8489 28.0936C14.8489 28.0336 14.9806 27.9136 15.1483 27.8295C15.3159 27.7335 15.4237 27.5894 15.3998 27.5054C15.3159 27.3013 15.5674 27.3013 15.8668 27.5174C16.0823 27.6614 16.1063 27.8175 16.1063 29.078C16.1063 29.8463 16.1422 30.4706 16.1901 30.4706C16.2859 30.4706 16.25 30.7227 16.1302 30.9028C16.0344 31.0709 16.1422 31.1909 16.4176 31.1909C16.5374 31.1909 16.6691 31.2989 16.705 31.431C16.7529 31.5871 16.8607 31.6591 16.9805 31.6231C17.0882 31.5991 17.3636 31.539 17.5792 31.491C17.9863 31.407 18.0582 31.2269 17.8187 30.7947C17.7468 30.6507 17.675 30.2785 17.651 29.9664C17.6391 29.6663 17.6031 29.3541 17.5552 29.2941C17.5193 29.2221 17.5433 29.1501 17.6151 29.1261C17.6989 29.102 17.6989 28.982 17.5912 28.7299C17.4115 28.2737 17.3397 27.5894 17.4834 27.5894C17.6391 27.5894 17.4834 27.1332 17.2918 27.0612C17.172 27.0132 17.1481 26.8931 17.196 26.7011C17.2559 26.4489 17.2199 26.4129 16.8607 26.3529C16.6452 26.3169 16.1422 26.1968 15.747 26.0888C14.8609 25.8487 14.4537 25.7767 13.831 25.7527C13.5676 25.7407 13.3161 25.6686 13.2562 25.5846C13.2083 25.5006 12.9688 25.4045 12.7174 25.3565C12.4779 25.3085 12.2144 25.2364 12.1426 25.1764C12.0827 25.1164 11.7833 25.0444 11.4959 25.0084C11.2085 24.9723 10.8613 24.8763 10.7295 24.7803C10.3463 24.5402 9.86734 24.4561 9.53204 24.5882C9.28057 24.6842 9.20872 24.6602 9.08897 24.4561C9.01712 24.3121 8.8854 24.24 8.7896 24.2761C8.6938 24.3121 8.62195 24.3001 8.62195 24.24C8.62195 24.096 7.86753 23.9879 7.7358 24.12C7.66396 24.18 7.48433 24.108 7.29273 23.9159C6.94546 23.5798 6.04734 23.4237 5.78389 23.6518C5.67612 23.7358 5.62822 23.7358 5.62822 23.6518C5.62822 23.4477 4.98157 23.1836 4.5385 23.1956C4.31097 23.2076 4.04753 23.1236 3.95173 23.0155C3.56853 22.6194 2.81411 22.4633 2.44289 22.7034C2.35906 22.7514 2.27524 22.6914 2.23931 22.5593C2.21536 22.4273 2.03574 22.2952 1.83216 22.2592C1.47292 22.1752 1.48489 22.2352 1.42502 20.7706C1.42502 20.5545 1.32922 20.3384 1.22144 20.2664C1.10169 20.2064 1.07774 20.1463 1.14959 20.1463C1.44897 20.1463 1.59267 19.0299 1.35317 18.5497C1.25737 18.3696 1.22144 18.1535 1.26934 18.0815C1.41304 17.8414 1.43699 17.3852 1.30527 17.0491C1.24539 16.881 1.23342 16.7129 1.29329 16.6769C1.47292 16.5449 1.59267 16.1367 1.61662 15.5004C1.62859 15.0202 1.59267 14.8642 1.44897 14.8041C1.28132 14.7321 1.28132 14.7201 1.46094 14.6121C1.56872 14.552 1.64057 14.432 1.60464 14.3359C1.50884 14.0718 1.95191 13.6877 2.40696 13.6277C2.64646 13.5916 2.90991 13.5316 2.99373 13.4836C3.17336 13.3756 3.6763 13.2795 4.1553 13.2675C4.37085 13.2675 4.51455 13.2195 4.47862 13.1715C4.41875 13.0634 4.75405 13.0994 4.86182 13.2195C4.90972 13.2555 5.04145 13.2435 5.17317 13.1715C5.29292 13.0994 5.61624 13.0394 5.86772 13.0274C6.13116 13.0154 6.34671 12.9794 6.34671 12.9314C6.34671 12.8233 6.67004 12.8593 6.77781 12.9794C6.82571 13.0274 6.93348 13.0034 7.01731 12.9434C7.22088 12.7633 7.66396 12.6913 7.66396 12.8353C7.66396 12.8954 7.72383 12.9434 7.79568 12.9434C7.85555 12.9434 7.89148 12.9074 7.86753 12.8473C7.8316 12.7993 8.2148 12.7633 8.71775 12.7753C9.30452 12.7753 9.77154 12.7153 9.99907 12.6072C10.2386 12.4872 10.3583 12.4752 10.3942 12.5592C10.4182 12.6553 10.526 12.6312 10.7176 12.5112C11.0648 12.2831 11.1367 12.2831 11.2684 12.4872C11.3403 12.5832 11.4121 12.5952 11.472 12.5232C11.5199 12.4512 11.9031 12.3911 12.3222 12.3791C12.8012 12.3671 13.1245 12.2951 13.1844 12.1991C13.2562 12.091 13.2922 12.091 13.2922 12.1871C13.2922 12.3551 14.0705 12.2591 14.4298 12.043C14.5615 11.959 14.7651 11.9109 14.8848 11.923C15.0525 11.959 15.0764 11.9109 15.0285 11.7189C14.9327 11.4548 15.304 11.1066 15.5075 11.2507C15.6153 11.3227 16.3099 11.3347 16.4655 11.2627C16.6332 11.1786 16.8368 11.2027 16.9206 11.3227C16.9805 11.4067 17.0284 11.4067 17.1002 11.3227C17.208 11.1666 17.8426 11.1306 17.8426 11.2747C17.8426 11.3347 17.9025 11.3827 17.9744 11.3827C18.0342 11.3827 18.0582 11.3227 18.0103 11.2507C17.9624 11.1666 18.0462 11.1786 18.2139 11.2747C18.5132 11.4307 19.9981 11.5268 19.9981 11.3947C19.9981 11.3467 20.1059 11.3107 20.2376 11.2987C20.3813 11.2867 20.4532 11.3347 20.4053 11.4067C20.3574 11.4788 20.4173 11.5028 20.5969 11.4428C21.0639 11.2987 21.2555 11.2867 21.3513 11.4307C21.4231 11.5268 21.471 11.5148 21.5189 11.4067C21.5429 11.3347 21.6267 11.2867 21.6866 11.3347C21.7465 11.3707 22.0578 11.4187 22.3692 11.4548C22.6805 11.4788 23.0757 11.5268 23.2673 11.5748C23.4469 11.6108 23.5906 11.5988 23.5906 11.5388C23.5906 11.4788 23.6984 11.4307 23.8301 11.4187C23.9858 11.4067 24.0457 11.4428 23.9978 11.5268C23.9379 11.6228 23.9858 11.6348 24.1415 11.5748C24.2612 11.5148 24.4528 11.4788 24.5486 11.4908C24.6444 11.5028 24.9198 11.5268 25.1474 11.5388C25.3749 11.5508 25.6263 11.5988 25.6862 11.6348C25.7581 11.6829 26.0335 11.7069 26.3209 11.6829C26.5963 11.6708 26.8598 11.6949 26.8837 11.7429C26.9436 11.8389 28.1291 11.8029 28.2249 11.6949C28.2728 11.6588 28.3566 11.6829 28.4405 11.7429C28.5602 11.8389 28.8835 11.8869 30.4522 12.031C30.7037 12.055 30.9312 12.031 30.9552 11.971C31.027 11.8629 31.4941 11.8749 31.4941 11.995C31.4941 12.031 31.6617 12.067 31.8773 12.079C32.0808 12.079 32.2964 12.1631 32.3443 12.2591C32.4161 12.3791 32.6796 12.4272 33.3502 12.4152C33.8412 12.4032 34.2483 12.4392 34.2483 12.4992C34.2483 12.5472 34.4399 12.5592 34.6674 12.5112C34.9548 12.4632 35.0865 12.4872 35.0865 12.5712C35.0865 12.6553 35.1464 12.6793 35.2422 12.6192C35.4578 12.4872 36.0445 12.4752 36.0445 12.6072C36.0445 12.6793 36.1284 12.6913 36.2361 12.6553C36.3439 12.6072 36.4996 12.6312 36.5834 12.7033C36.6672 12.7753 36.9427 12.8353 37.1941 12.8593C37.4456 12.8713 37.733 12.9314 37.8288 12.9914C37.9126 13.0514 38.0204 13.0514 38.0683 12.9794C38.1641 12.8473 38.703 12.7993 38.6191 12.9314C38.5952 12.9914 38.7389 13.0154 38.9544 13.0034C39.158 12.9914 39.3736 13.0394 39.4334 13.1114C39.4933 13.2075 39.5412 13.1955 39.625 13.0754C39.6969 12.9554 39.7807 12.9434 39.9723 13.0514C40.116 13.1234 40.4633 13.1955 40.7387 13.2195C41.0261 13.2315 41.2896 13.2915 41.3255 13.3395C41.3614 13.3876 41.5291 13.3756 41.6967 13.2915C41.9242 13.1955 42.0679 13.1955 42.2595 13.3035C42.4631 13.3996 42.5709 13.3996 42.6906 13.3035C42.7864 13.2195 42.8702 13.2195 42.9181 13.2915C42.966 13.3515 43.2894 13.3876 43.6486 13.3635C44.0079 13.3515 44.3072 13.3756 44.3072 13.4116C44.3072 13.4596 44.4869 13.5076 44.7024 13.5076C44.906 13.5076 45.2173 13.5556 45.373 13.6036C45.5886 13.6757 45.6365 13.6637 45.5646 13.5556C45.4928 13.4356 45.5287 13.4236 45.7442 13.5436C45.8879 13.6157 46.1155 13.6637 46.2352 13.6277C46.355 13.5916 46.4627 13.6036 46.4627 13.6517C46.4627 13.7597 47.3968 13.7237 47.6961 13.6036C47.8159 13.5556 47.8997 13.5676 47.8997 13.6517C47.8997 13.7597 48.235 13.6997 48.5104 13.5316C48.5464 13.5076 48.6661 13.5556 48.7739 13.6517C48.9296 13.7717 48.9775 13.7717 48.9775 13.6637C48.9775 13.5556 49.0613 13.5796 49.2768 13.7117C49.5044 13.8678 49.6361 13.8798 49.8157 13.7837C49.9953 13.6877 50.0552 13.6877 50.0552 13.7957C50.0552 13.8918 50.2708 13.9158 50.7737 13.8678C51.1689 13.8437 51.4922 13.8437 51.4922 13.8918C51.4922 13.9398 51.6718 13.9758 51.8874 13.9638C52.0909 13.9638 52.3185 14.0118 52.3664 14.0838C52.4382 14.1679 52.4861 14.1559 52.534 14.0478C52.5819 13.9158 52.6418 13.9278 52.8454 14.0598C53.1208 14.2399 53.959 14.36 55.1446 14.408C55.5397 14.42 55.887 14.468 55.9229 14.516C55.9948 14.6121 57.1683 14.7561 58.1383 14.7801C58.5335 14.7921 58.8927 14.8402 58.9286 14.9002C58.9765 14.9602 59.1083 14.9482 59.252 14.8762C59.4436 14.7801 59.5394 14.7801 59.6831 14.9242C59.8866 15.1283 60.0423 15.1643 59.9345 14.9842C59.8267 14.8161 60.0183 14.8402 60.2938 15.0202C60.5093 15.1763 61.2278 15.2603 62.0301 15.2483C62.1978 15.2483 62.3894 15.2963 62.4732 15.3564C62.557 15.4404 62.6289 15.4284 62.6768 15.3564C62.7247 15.2963 62.8684 15.2723 63.0241 15.3083C63.1678 15.3444 63.4671 15.3804 63.6827 15.3804C63.8863 15.3804 64.0659 15.4284 64.0659 15.4644C64.0659 15.6085 64.94 15.7045 65.0957 15.5725C65.1915 15.5004 65.2634 15.4884 65.3113 15.5725C65.3592 15.6325 65.4909 15.6685 65.6226 15.6445C65.7663 15.6205 65.8382 15.6445 65.7903 15.7165C65.7424 15.8006 65.8621 15.8246 66.1375 15.7765C66.4489 15.7285 66.6285 15.7645 66.7602 15.9086C66.9159 16.0527 66.9878 16.0647 67.0476 15.9566C67.1195 15.8486 67.2752 15.8726 67.6703 16.0407C67.9577 16.1607 68.2571 16.2447 68.317 16.2207C68.3888 16.1967 68.7121 16.4248 69.0474 16.7129C69.4785 17.0971 69.6941 17.2171 69.7899 17.1211C69.8498 17.0611 70.1372 17.0131 70.4006 17.0491C70.8796 17.0851 70.8916 17.0851 70.9634 16.6649C71.0832 15.9326 71.1431 15.8246 71.3945 15.8246C71.5382 15.8246 71.658 15.7285 71.6939 15.5845C71.7298 15.4524 71.8137 15.3444 71.8975 15.3564C72.3286 15.4044 72.604 15.2963 73.0231 14.8882C73.4782 14.432 73.7536 14.2639 74.1248 14.1919C74.2206 14.1679 74.3164 14.0958 74.3404 14.0358C74.3643 13.9638 74.4601 13.9038 74.5559 13.9038C74.6517 13.9038 74.7236 13.8197 74.7236 13.7237C74.7236 13.6036 74.8433 13.5436 75.0589 13.5436C75.49 13.5436 76.1246 13.2315 76.3162 12.9314C76.3881 12.8113 76.5557 12.7033 76.6755 12.7033C76.7952 12.7033 77.0706 12.5712 77.2862 12.4032C77.5017 12.2351 77.8011 12.103 77.9328 12.103C78.0765 12.103 78.1963 12.043 78.1963 11.983C78.1963 11.9109 78.2562 11.8629 78.34 11.8629C78.5436 11.8629 79.274 11.3467 79.274 11.2027C79.274 11.1306 79.4896 11.0706 79.765 11.0586C80.0285 11.0586 80.3398 10.9626 80.4476 10.8665C80.5554 10.7585 80.6751 10.6744 80.711 10.6744C80.8907 10.6744 81.4056 10.4103 81.657 10.1942C81.8127 10.0502 82.0402 9.94213 82.172 9.94213C82.2917 9.94213 82.3875 9.88211 82.3875 9.82209C82.3875 9.75006 82.4594 9.70204 82.5432 9.70204C82.7108 9.70204 83.1419 9.25785 83.2018 9.04176C83.2258 8.96973 83.3455 8.93372 83.4653 8.95773C83.597 8.98174 83.7048 8.95773 83.7048 8.8977C83.7048 8.84968 83.8724 8.72963 84.076 8.63359C84.2796 8.54956 84.4831 8.38149 84.5191 8.27345C84.567 8.1654 84.6747 8.08137 84.7586 8.06936C84.8304 8.05736 85.034 8.04535 85.1897 8.03335C85.3453 8.03335 85.6806 7.82926 85.9201 7.60117C86.2315 7.28904 86.4231 7.193 86.5907 7.24102C86.7224 7.28904 86.8182 7.26503 86.8182 7.181C86.8182 7.10897 86.8661 7.07295 86.926 7.10897C86.9859 7.14498 87.1895 7.03694 87.3811 6.84486C87.6086 6.64077 87.8361 6.53273 88.0038 6.55674C88.375 6.61676 89.0576 6.26862 89.2851 5.92047C89.3929 5.76441 89.5485 5.66837 89.6323 5.70439C89.7281 5.7284 89.9557 5.68038 90.1473 5.59634C90.4227 5.45228 90.5065 5.45228 90.6263 5.58434C90.7221 5.66837 90.7221 5.7404 90.6622 5.7404C90.5185 5.7404 90.1592 6.50872 90.1113 6.85686C90.0994 6.98892 90.0395 7.12097 89.9796 7.15699C89.9078 7.20501 89.8479 7.37307 89.8479 7.52914C89.8359 7.6852 89.7401 7.90129 89.6323 8.02134C89.4767 8.18941 89.4767 8.24944 89.5964 8.29746C89.7281 8.34548 89.7281 8.36949 89.5964 8.36949C89.5126 8.38149 89.4767 8.42951 89.5126 8.50154C89.5485 8.56157 89.5006 8.62159 89.4048 8.62159C89.2971 8.62159 89.2132 8.72963 89.2132 8.86169C89.2132 9.07778 89.0097 9.55798 88.854 9.70204C88.7223 9.82209 88.7462 10.4223 88.8779 10.4223C88.9618 10.4223 88.9378 10.5064 88.8181 10.6264C88.7223 10.7465 88.5786 11.0706 88.5067 11.3587C88.4229 11.6468 88.2433 11.935 88.0996 12.043C87.9439 12.139 87.7523 12.4032 87.6685 12.6432C87.5846 12.8713 87.4649 13.0634 87.405 13.0634C87.3451 13.0634 87.2374 13.1835 87.1775 13.3275C87.1056 13.4836 87.0098 13.6877 86.9619 13.7837C86.6506 14.3239 86.5787 14.528 86.6386 14.6241C86.6865 14.6961 86.6506 14.7441 86.5668 14.7441C86.3991 14.7441 85.8602 15.2963 85.8602 15.4764C85.8602 15.5845 85.6207 16.0647 85.501 16.1847C85.4651 16.2207 85.3333 16.4488 85.2136 16.6889C85.0819 16.941 84.9382 17.1451 84.8903 17.1451C84.7226 17.1451 84.4113 17.8534 84.3993 18.2376C84.3873 18.4657 84.3155 18.6097 84.1598 18.6457C84.0401 18.6937 83.9443 18.8018 83.9443 18.8978C83.9443 18.9939 83.8844 19.0659 83.8125 19.0659C83.7407 19.0659 83.7048 19.1499 83.7527 19.246C83.7886 19.342 83.7646 19.426 83.7167 19.426C83.5491 19.426 83.4413 19.8102 83.573 19.9423C83.6569 20.0263 83.609 20.1103 83.4293 20.1944C83.0222 20.3985 82.7228 21.0947 82.8545 21.5629C82.9503 21.8751 82.9264 21.9471 82.7468 22.0071C82.5432 22.0791 82.1959 23.0515 82.3157 23.2556C82.3516 23.3036 82.2438 23.4357 82.0881 23.5558C81.9205 23.6878 81.7289 24.048 81.5972 24.4801C81.4774 24.8643 81.3457 25.1884 81.2858 25.1884C81.2379 25.1884 81.19 25.2725 81.19 25.3685C81.19 25.4645 81.1421 25.5486 81.0703 25.5486C81.0104 25.5486 80.9505 25.6566 80.9505 25.8007C80.9505 25.9327 80.9026 26.0048 80.8308 25.9687C80.711 25.8967 80.6631 26.1248 80.6991 26.533C80.711 26.641 80.6631 26.7611 80.5913 26.8091C80.4236 26.9171 80.4356 27.1092 80.6272 27.1092C80.735 27.1092 80.7589 27.2533 80.735 27.5894C80.6991 27.9736 80.7589 28.1777 81.0104 28.5498C81.19 28.8139 81.3936 29.03 81.4535 29.03C81.5133 29.03 81.5133 29.114 81.4535 29.2341C81.3457 29.4142 81.5732 29.9904 81.9205 30.4106C81.9684 30.4826 82.0402 30.7227 82.0642 30.9508C82.1241 31.419 82.3516 32.0553 82.4953 32.1513C82.6749 32.2714 83.2258 33.4959 83.2258 33.772C83.2258 33.928 83.2617 34.0721 83.3216 34.0961C83.3695 34.1201 83.5251 34.3482 83.6569 34.6123C83.8006 34.8764 84.0281 35.1525 84.1718 35.2246C84.3394 35.3086 84.3754 35.3926 84.2915 35.4767C84.2077 35.5607 84.2436 35.7288 84.4113 36.0049C84.543 36.233 84.7466 36.6051 84.8663 36.8332C84.9741 37.0613 85.1418 37.3254 85.2256 37.4095C85.3094 37.4935 85.3812 37.6976 85.3812 37.8537C85.3812 38.2738 85.8243 38.9581 86.1476 39.0421C86.3752 39.1022 86.4111 39.1742 86.3632 39.4143C86.3392 39.5944 86.3632 39.7144 86.447 39.7144C86.5189 39.7144 86.5787 39.7985 86.5787 39.8945C86.5787 39.9905 86.6386 40.0746 86.6985 40.0746C86.7703 40.0746 86.8182 40.1586 86.8182 40.2546C86.8182 40.3627 86.8901 40.4707 86.9739 40.5068C87.0577 40.5308 87.1176 40.7108 87.1056 40.8909C87.0937 41.3231 87.2733 41.7553 87.6325 42.0794C87.8601 42.2835 87.884 42.3795 87.7882 42.5716C87.7164 42.7037 87.7044 42.8477 87.7523 42.8957C87.8002 42.9318 87.8481 43.0278 87.8481 43.0878C87.8601 43.1478 87.872 43.2439 87.884 43.2919C87.884 43.3519 88.0038 43.508 88.1475 43.6641C88.2792 43.8081 88.363 44.0122 88.3271 44.1082C88.1954 44.4444 88.3989 45.2367 88.6863 45.5128C88.854 45.6809 88.9139 45.8249 88.842 45.909C88.7821 45.981 88.7821 46.1851 88.854 46.4132C88.9378 46.7133 88.9258 46.7973 88.7821 46.7973C88.5426 46.7973 87.429 46.1491 86.9619 45.7529C85.6567 44.5884 85.022 44.1923 84.7705 44.3483C84.7107 44.3844 84.6628 44.3243 84.6628 44.2283C84.6628 43.9882 84.2915 43.556 84.088 43.556C84.0041 43.556 83.9083 43.472 83.8724 43.3759C83.8245 43.2799 83.7287 43.1959 83.6449 43.1959C83.5611 43.1959 83.4653 43.1118 83.4174 43.0158C83.3814 42.9197 83.2976 42.8477 83.2258 42.8597C83.1539 42.8837 82.8785 42.6316 82.5911 42.3195C82.2079 41.8753 81.9923 41.7433 81.7049 41.7193C81.3936 41.6952 81.3098 41.6352 81.3098 41.4551C81.3098 41.167 80.4236 40.5068 80.1722 40.6028C80.0524 40.6388 79.9925 40.5908 79.9925 40.4347C79.9925 40.0626 79.4297 39.5103 78.9747 39.4263C78.6633 39.3663 78.5555 39.2822 78.5555 39.1142C78.5555 38.9821 78.5076 38.8741 78.4358 38.8741C78.3759 38.8741 78.2083 38.766 78.0765 38.634C77.9448 38.5019 77.7293 38.3939 77.6095 38.3939C77.4778 38.3939 77.358 38.2858 77.3101 38.1058C77.2263 37.7576 76.4839 37.1694 76.0887 37.1454C75.933 37.1454 75.8013 37.0613 75.8013 36.9773C75.8013 36.8813 75.6217 36.6292 75.4181 36.4131C75.2026 36.197 74.8553 35.7768 74.6397 35.4767C74.3284 35.0325 74.2086 34.9485 73.9572 34.9965C73.7895 35.0325 73.6458 35.1045 73.6458 35.1645C73.6458 35.2246 73.574 35.2726 73.4782 35.2726C73.3824 35.2726 73.2267 35.3686 73.1429 35.5007C73.059 35.6207 72.8076 35.8128 72.604 35.9209C72.3885 36.0289 72.2088 36.173 72.2088 36.233C72.2088 36.305 72.125 36.353 72.0292 36.353C71.9334 36.353 71.8496 36.4011 71.8496 36.4731C71.8496 36.5331 71.658 36.6772 71.4065 36.7852C71.167 36.9053 70.7599 37.2054 70.4964 37.4575C70.233 37.7096 69.9456 37.9137 69.8498 37.9137C69.7659 37.9137 69.6941 37.9617 69.6941 38.0337C69.6941 38.0938 69.6222 38.1538 69.5384 38.1538C69.4546 38.1538 69.3229 38.2618 69.239 38.3939C69.1552 38.5259 69.0115 38.634 68.9157 38.634C68.8199 38.634 68.7361 38.682 68.7361 38.754C68.7361 38.8141 68.6642 38.8741 68.5804 38.8741C68.4966 38.8741 68.3649 38.9821 68.281 39.1142C68.1972 39.2462 68.0296 39.3543 67.8979 39.3543C67.4787 39.3543 66.8441 39.8225 66.7602 40.2066C66.7123 40.3987 66.6405 40.5308 66.5806 40.4947C66.5207 40.4587 66.401 40.5068 66.3052 40.6028C66.2094 40.6988 66.1016 40.7469 66.0657 40.7108C65.9699 40.6148 65.3831 41.179 65.3831 41.3591C65.3831 41.4431 65.3113 41.5152 65.2394 41.5272C64.6526 41.5632 64.1736 41.8873 63.9581 42.3795C63.8743 42.5716 63.7665 42.6917 63.7066 42.6556C63.6587 42.6316 63.4432 42.6917 63.2157 42.7997C62.8325 42.9918 62.8205 42.9918 62.6528 42.7397C62.557 42.5956 62.4133 42.4756 62.3175 42.4756C62.1978 42.4756 62.1858 42.4035 62.2816 42.1274C62.4253 41.7072 62.114 40.9389 61.7188 40.7348C61.5152 40.6388 61.4913 40.5548 61.5631 40.3387C61.623 40.1826 61.611 40.0746 61.5511 40.0746C61.4793 40.0746 61.4314 39.9785 61.4314 39.8585C61.4314 39.7384 61.3236 39.5223 61.1799 39.3783C61.0482 39.2342 60.9763 39.0542 61.0242 38.9821C61.1799 38.73 60.9404 37.8296 60.6171 37.4695C60.4375 37.2774 60.2818 36.9653 60.2698 36.7732C60.2578 36.5931 60.162 36.353 60.0543 36.233C59.9585 36.1249 59.8746 35.9449 59.8746 35.8368C59.8746 35.5607 59.4555 35.3566 59.1681 35.5007C58.6412 35.7888 58.4137 36.7132 58.8807 36.7132C58.9765 36.7132 59.0244 36.7612 58.9885 36.8212C58.9047 36.9533 59.1442 37.4455 59.4436 37.7336C59.6112 37.9017 59.6232 37.9737 59.4915 38.0457C59.3837 38.1178 59.3717 38.1538 59.4795 38.1538C59.6352 38.1538 59.8267 38.694 59.7669 38.9821C59.7549 39.0782 59.7908 39.1022 59.8866 39.0542C59.9944 38.9821 60.0064 39.0421 59.9704 39.2822C59.9345 39.4503 59.9585 39.6304 60.0064 39.6664C60.0662 39.7024 60.1141 39.8585 60.1141 40.0145C60.1141 40.1706 60.174 40.3387 60.2339 40.3747C60.3057 40.4107 60.3536 40.5428 60.3536 40.6508C60.3536 40.7709 60.4734 40.9269 60.6051 41.023C60.7967 41.131 60.8326 41.203 60.7129 41.2751C60.6051 41.3351 60.641 41.4311 60.8326 41.6112C61.0123 41.7793 61.0841 41.9473 61.0362 42.1034C61.0003 42.2475 61.0242 42.3315 61.0841 42.2835C61.144 42.2475 61.1919 42.3795 61.1919 42.5596C61.1919 42.7517 61.2518 42.9678 61.3116 43.0278C61.4434 43.1598 61.5032 43.3639 61.6948 44.3964C61.8146 45.0206 62.0062 45.3568 62.2457 45.3568C62.3056 45.3568 62.3535 45.4528 62.3415 45.5608C62.3415 45.6809 62.4014 45.7649 62.4852 45.7409C62.593 45.7169 62.6409 45.8129 62.6169 46.041C62.581 46.4012 62.8325 47.2775 62.9762 47.2775C63.0241 47.2775 63.06 47.4696 63.072 47.6977C63.0839 47.9378 63.1438 48.2019 63.2157 48.286C63.2995 48.382 63.4432 48.8022 63.551 49.2223C63.6468 49.6305 63.7785 50.0387 63.8384 50.0987C63.8863 50.1707 63.9701 50.4589 64.018 50.747C64.0778 51.1071 64.1497 51.2392 64.2575 51.1912C64.4131 51.1311 64.4491 51.3472 64.4251 52.0195C64.4251 52.0555 64.497 52.2356 64.5928 52.4277C64.7005 52.6197 64.7484 52.7998 64.7125 52.8238C64.6886 52.8598 64.7365 53.0399 64.8442 53.232C64.94 53.4241 65.0239 53.7002 65.0239 53.8563C65.0239 54.0123 65.0718 54.1084 65.1197 54.0723C65.1795 54.0363 65.2155 54.1804 65.1915 54.3965C65.1795 54.6126 65.2753 54.9607 65.3951 55.1768C65.5268 55.3929 65.6226 55.645 65.6226 55.729C65.6226 55.9451 65.0598 55.9331 64.976 55.729C64.94 55.633 64.8323 55.561 64.7365 55.561C64.6526 55.561 64.5329 55.4769 64.497 55.3689C64.4491 55.2608 64.3892 55.2008 64.3413 55.2368C64.3054 55.2848 64.1976 55.2608 64.1138 55.1888C64.018 55.1168 63.8623 55.0808 63.7665 55.1288C63.6707 55.1648 63.5869 55.1288 63.5869 55.0568C63.5869 54.7446 62.7367 54.1684 62.3654 54.2284C62.3056 54.2284 62.2696 54.1924 62.2696 54.1324C62.2696 54.0723 62.1738 54.0003 62.0661 53.9523C61.9463 53.9163 61.7667 53.8323 61.6709 53.7602C61.5751 53.7002 61.3595 53.5801 61.1919 53.5201C60.7847 53.34 60.3896 53.112 60.1501 52.8959C60.0303 52.7878 59.7549 52.6678 59.5394 52.6197C59.3238 52.5717 58.9765 52.3797 58.773 52.1876C58.5574 52.0075 58.3658 51.8754 58.3419 51.8995C58.3059 51.9235 58.0784 51.7914 57.8389 51.5993C57.5874 51.3952 57.3 51.2392 57.1923 51.2392C57.0845 51.2392 56.8091 51.0471 56.5696 50.819C56.3061 50.5549 56.0427 50.3988 55.8391 50.3988C55.6475 50.3988 55.2883 50.1947 54.8691 49.8346C54.3422 49.3784 54.1866 49.3064 54.0189 49.4024C53.8513 49.5105 53.7674 49.4745 53.5878 49.2464C53.4681 49.0903 53.3124 48.9582 53.2286 48.9582C53.1447 48.9582 53.013 48.8742 52.9292 48.7782C52.8454 48.6701 52.6777 48.6221 52.5101 48.6701C52.3185 48.7181 52.1269 48.6341 51.8514 48.37C51.6239 48.1779 51.4084 48.0339 51.3605 48.0699C51.3126 48.0939 51.2287 48.0579 51.1928 47.9858C51.1449 47.9258 51.0372 47.8898 50.9414 47.9258C50.8456 47.9618 50.7737 47.9378 50.7737 47.8658C50.7737 47.5056 49.8277 46.9054 49.3487 46.9654C49.0972 46.9894 48.9775 46.9534 48.9775 46.8454C48.9775 46.7493 48.8936 46.6773 48.7978 46.6773C48.702 46.6773 48.6182 46.6173 48.6182 46.5572C48.6182 46.4852 48.4865 46.3772 48.3188 46.3171C48.1512 46.2571 48.0195 46.1491 48.0195 46.0771C48.0195 45.945 47.6602 45.921 47.3728 46.029C47.277 46.065 47.1333 46.2811 47.0615 46.5092C46.9058 46.9774 47.0495 47.2775 47.4207 47.2775C47.5405 47.2775 47.6602 47.3616 47.7081 47.4576C47.744 47.5537 47.8518 47.6377 47.9596 47.6377C48.0554 47.6377 48.1392 47.6857 48.1392 47.7577C48.1392 47.8178 48.247 47.8778 48.3667 47.8778C48.6901 47.8778 48.9894 48.0098 48.9176 48.1179C48.8936 48.1659 48.9894 48.2019 49.1571 48.2019C49.3247 48.2019 49.5642 48.334 49.696 48.49C49.8157 48.6461 49.9235 48.7061 49.9355 48.6221C49.9355 48.5381 50.1151 48.6461 50.3306 48.8502C50.7019 49.2103 51.3006 49.5825 51.5521 49.6185C51.6239 49.6305 51.7676 49.6545 51.8874 49.6545C52.0071 49.6665 52.067 49.7266 52.0311 49.7986C51.9951 49.8586 52.043 49.9186 52.1388 49.9186C52.2466 49.9186 52.3304 49.9667 52.3304 50.0387C52.3304 50.0987 52.3903 50.1467 52.4622 50.1227C52.7017 50.0747 52.7017 50.3388 52.4502 50.6149C52.3185 50.747 52.2107 50.9391 52.2107 51.0351C52.2107 51.1311 52.055 51.1912 51.8035 51.2032C51.3006 51.2152 50.6899 51.5273 50.5941 51.8274C50.5582 51.9595 50.3666 52.0915 50.175 52.1396C49.9714 52.1876 49.8157 52.2596 49.8157 52.2956C49.8157 52.3436 49.6361 52.4517 49.4325 52.5477C48.5464 52.9079 48.0434 53.22 47.8279 53.5321C47.6722 53.7722 47.5524 53.8323 47.4327 53.7602C47.277 53.6762 46.9058 53.7962 46.7022 54.0003C46.5466 54.1564 46.0795 54.3605 45.864 54.3605C45.7323 54.3605 45.6245 54.4085 45.6245 54.4685C45.6245 54.5766 45.3131 54.7206 44.9778 54.7686C44.6904 54.8167 43.7085 55.3449 43.7085 55.4649C43.7085 55.537 43.6247 55.561 43.5289 55.5249C43.4331 55.4769 43.3253 55.5009 43.2774 55.573C43.2415 55.645 43.1457 55.669 43.0738 55.645C42.8583 55.573 42.2715 55.8971 42.2715 56.0892C42.2715 56.1972 42.1877 56.2332 42.032 56.1972C41.6249 56.0892 40.9662 56.2813 40.6669 56.5814C40.4992 56.7495 40.2956 56.8455 40.1998 56.8095C40.104 56.7735 39.9843 56.7975 39.9484 56.8575C39.9124 56.9295 39.7687 56.9535 39.637 56.9175C39.5053 56.8815 39.3975 56.9055 39.3975 56.9775C39.3975 57.1336 38.9425 57.2777 38.5233 57.2537C38.1761 57.2417 37.1223 57.6858 37.1223 57.8419C37.1223 57.9019 36.9666 57.9379 36.775 57.9379C36.5954 57.9259 36.3679 57.974 36.284 58.022C36.2002 58.07 36.1044 58.058 36.0565 57.998C35.9368 57.7939 35.4578 58.046 35.326 58.3821C35.2183 58.6823 34.9668 58.8023 34.9668 58.5502C34.9668 58.4902 34.9189 58.4662 34.847 58.5022C34.7872 58.5382 34.7273 58.4902 34.7273 58.3821C34.7273 58.142 34.1884 57.9379 33.6735 57.986C33.458 57.998 33.2424 57.962 33.1945 57.9019C33.0269 57.6618 32.464 57.4577 32.1647 57.5058C31.997 57.5418 31.8533 57.5178 31.8533 57.4457C31.8533 57.1816 30.8354 56.6174 30.4642 56.6774C30.3445 56.6894 30.1648 56.7615 30.069 56.8095C29.9613 56.8815 29.9253 56.8695 29.9732 56.8095C30.105 56.5934 29.5541 56.1612 29.159 56.1612C29.0392 56.1612 29.0033 56.1012 29.0512 56.0292C29.1111 55.9331 29.0033 55.9091 28.7039 55.9451C28.4644 55.9691 28.2848 55.9571 28.2968 55.9211C28.3327 55.765 27.9974 55.3209 27.8896 55.3929C27.8178 55.4289 27.6621 55.3689 27.5423 55.2608C27.4226 55.1528 27.2669 55.0928 27.1951 55.1288C27.1352 55.1768 27.0514 55.1528 27.0154 55.0928C26.9795 55.0327 26.8478 55.0087 26.728 55.0448C26.5843 55.0808 26.4646 54.9967 26.3688 54.8167C26.2011 54.5045 25.7581 54.2764 25.2072 54.2164C25.0156 54.1924 24.7642 54.0844 24.6444 53.9643C24.4049 53.7362 23.8421 53.4721 23.6744 53.5081C23.5427 53.5321 23.2314 53.208 23.2314 53.0519C23.2314 52.8719 22.4769 52.5477 22.0458 52.5357C21.8183 52.5237 21.6746 52.4637 21.6746 52.3556C21.6746 52.2716 21.6028 52.1996 21.507 52.1996C21.4112 52.1996 21.3154 52.1155 21.2675 52.0195C21.2316 51.9235 21.1238 51.8394 21.016 51.8394C20.9202 51.8394 20.8364 51.7794 20.8364 51.7074C20.8364 51.6353 20.7286 51.5993 20.5969 51.6353C20.4412 51.6714 20.3454 51.6233 20.2975 51.4673C20.1897 51.1431 19.3635 50.6389 19.0641 50.723C18.8964 50.759 18.7647 50.699 18.6569 50.5309C18.5731 50.3868 18.4414 50.2788 18.3695 50.2788C18.2857 50.2788 18.0702 50.1347 17.8786 49.9426C17.675 49.7626 17.3038 49.5105 17.0523 49.3784C16.8008 49.2464 16.5134 49.0663 16.4176 48.9822C16.3338 48.8982 16.1781 48.8502 16.0943 48.8862C15.9985 48.9222 15.9267 48.8742 15.9267 48.7782C15.9267 48.6821 15.8548 48.5981 15.759 48.5981C15.6632 48.5981 15.5674 48.5141 15.5195 48.418C15.4836 48.322 15.3638 48.2379 15.268 48.2379C15.0285 48.2379 14.0945 47.6017 13.5436 47.0735C13.1724 46.7133 12.909 46.6173 12.4899 46.6653C12.406 46.6773 12.3342 46.6173 12.3342 46.5332C12.3342 46.2331 11.3882 45.5608 11.1008 45.6569C11.0169 45.6929 10.8732 45.5488 10.7774 45.3327C10.5978 44.9726 9.67574 44.3363 9.53204 44.4804C9.49612 44.5284 9.46019 44.5044 9.46019 44.4324C9.46019 44.2403 9.0291 43.7961 8.84947 43.7961C8.598 43.7841 8.32258 43.532 8.10703 43.1238C7.99925 42.9197 7.6879 42.6316 7.37656 42.4636C7.07718 42.3075 6.82571 42.1154 6.82571 42.0554C6.82571 41.9113 6.47844 41.5872 6.20301 41.4792C6.02339 41.4191 6.01141 41.215 6.14314 40.5548C6.17906 40.3747 5.95154 39.7144 5.85574 39.7144C5.79587 39.7144 5.74797 39.6064 5.74797 39.4743C5.74797 39.3423 5.68809 39.2342 5.62822 39.2342C5.54439 39.2342 5.54439 39.1622 5.62822 39.0061C5.70007 38.8621 5.70007 38.742 5.64019 38.706C5.58032 38.67 5.55637 38.5259 5.59229 38.3939C5.62822 38.2618 5.59229 38.1538 5.52044 38.1538C5.44859 38.1538 5.38872 38.0818 5.38872 37.9857C5.38872 37.8897 5.31687 37.7816 5.24502 37.7576C5.13724 37.7096 5.13724 37.6616 5.20909 37.5895C5.50847 37.3494 5.26897 36.1009 4.8738 35.8488C4.76602 35.7888 4.76602 35.7288 4.86182 35.6327C4.94565 35.5487 4.9696 35.3446 4.90972 35.1045C4.84985 34.8404 4.8738 34.6723 4.99355 34.5763C5.16119 34.4202 6.22696 34.3482 6.94546 34.4563C7.18496 34.4923 7.50828 34.4442 7.69988 34.3482C7.91543 34.2402 8.09505 34.2162 8.17888 34.2882C8.34653 34.4202 9.32847 34.4082 9.54402 34.2762C9.61587 34.2282 9.80747 34.2402 9.96314 34.3002C10.3823 34.4563 11.0409 34.3962 11.3642 34.1681C11.5199 34.0481 11.6995 33.9881 11.7594 34.0241C11.9989 34.1681 12.4899 34.1561 12.8251 33.9881C13.0527 33.868 13.2323 33.856 13.3281 33.916C13.4598 34.0241 13.5915 34.0361 14.3819 33.9761C14.5495 33.964 14.801 33.844 14.9447 33.7119C15.0764 33.5799 15.2201 33.5199 15.2561 33.5799C15.292 33.6279 15.6393 33.6759 16.0344 33.6759C16.9206 33.6759 17.1481 33.4839 17.0523 32.8596C16.9805 32.4394 16.5613 32.0192 16.4176 32.2353C16.3817 32.2954 16.1302 32.3554 15.8668 32.3554C15.3878 32.3674 14.9687 32.1273 14.9687 31.8392C14.9687 31.7551 14.8968 31.6711 14.825 31.6351C14.7052 31.5871 14.7052 31.5511 14.825 31.419C14.9447 31.2869 14.8848 31.1789 14.5376 30.8188C14.1783 30.4466 14.0466 30.3866 13.831 30.4706C13.5436 30.5787 12.9329 31.1429 12.9329 31.2869C12.9329 31.347 12.7413 31.383 12.5018 31.395C12.2384 31.407 11.963 31.515 11.7833 31.6831C11.6277 31.8272 11.4959 31.8992 11.4959 31.8392C11.4959 31.7791 11.4121 31.8272 11.3283 31.9472C11.1606 32.1633 11.1966 32.5715 11.4001 32.8236C11.46 32.9076 11.4361 32.9916 11.3163 33.0397C11.2205 33.0757 11.1367 33.0517 11.1367 32.9796C11.1367 32.8956 11.0529 32.8836 10.9331 32.9316C10.4541 33.1237 10.1787 33.1237 10.2505 32.9316C10.2984 32.8356 10.2625 32.7515 10.1907 32.7515C10.047 32.7515 10.0589 32.4874 10.2266 32.3794C10.3823 32.2593 9.85537 31.7912 9.57994 31.7912C9.44822 31.7912 9.34045 31.7071 9.34045 31.6111C9.34045 31.515 9.08897 31.1909 8.7896 30.8788C8.37048 30.4706 8.10703 30.3025 7.77173 30.2665C7.31668 30.2065 6.94546 30.3986 6.94546 30.6987C6.94546 30.7707 6.86163 30.8308 6.76584 30.8308C6.43054 30.8308 5.62822 31.6231 5.62822 31.9472C5.62822 32.0673 5.71204 32.3554 5.80784 32.5955C5.90364 32.8236 5.98746 33.0277 5.98746 33.0397C5.98746 33.0397 5.75994 33.0637 5.47254 33.0877C5.19712 33.1117 4.81392 33.1477 4.61035 33.1717C4.41875 33.1837 4.09543 33.2077 3.90383 33.2197C3.59248 33.2317 3.56853 33.2678 3.6284 33.5799C3.6763 33.796 3.6284 34.0121 3.50865 34.1921C3.38891 34.3602 3.36496 34.4923 3.4368 34.5403C3.50865 34.5763 3.56853 34.7684 3.56853 34.9725C3.59248 35.4046 3.6763 35.8248 3.7721 36.0049C3.87988 36.161 3.9637 36.6652 3.98765 37.1574C3.99963 37.3615 4.0595 37.5055 4.11938 37.4575C4.17925 37.4215 4.19123 37.5535 4.1553 37.7576C4.11938 37.9617 4.11938 38.1658 4.16728 38.2138C4.21518 38.2498 4.2511 38.3579 4.2511 38.4299C4.27505 38.694 4.46665 39.2943 4.57442 39.4383C4.6343 39.5223 4.65825 39.6304 4.62232 39.6904C4.5864 39.7624 4.62232 40.0145 4.71812 40.2667C4.80195 40.5308 4.84985 40.8069 4.81392 40.9029C4.778 40.999 4.81392 41.035 4.89775 40.9869C5.08935 40.8669 5.0654 41.215 4.86182 41.3831C4.6343 41.5752 4.76602 42.1154 5.04145 42.1154C5.17317 42.1154 5.26897 42.1874 5.26897 42.2715C5.26897 42.4395 5.89167 42.9558 6.09524 42.9558C6.15511 42.9558 6.23894 43.0638 6.28684 43.1839C6.32276 43.3159 6.45449 43.448 6.56226 43.484C6.86163 43.58 7.54421 44.2043 7.54421 44.3723C7.54421 44.4564 7.59211 44.5164 7.64001 44.5164C7.69988 44.5164 7.95135 44.7085 8.2148 44.9366C8.46628 45.1647 8.75367 45.3327 8.8375 45.2967C8.9333 45.2607 9.0291 45.3327 9.06502 45.4648C9.10095 45.5969 9.24465 45.7289 9.40032 45.7649C9.55599 45.8009 9.72364 45.945 9.75957 46.0891C9.80747 46.2331 9.90327 46.3051 10.011 46.2691C10.1068 46.2331 10.2625 46.3292 10.3703 46.4972C10.4781 46.6653 10.6457 46.7973 10.7295 46.7973C10.8253 46.7973 10.8972 46.8454 10.8972 46.8934C10.8972 46.9534 11.1846 47.1455 11.5319 47.3136C11.8672 47.4936 12.1546 47.6857 12.1546 47.7337C12.1546 47.7818 12.1905 47.8058 12.2384 47.7938C12.2863 47.7697 12.4899 47.9378 12.7054 48.1539C12.9209 48.358 13.0646 48.466 13.0048 48.382C12.9569 48.31 12.9808 48.2379 13.0407 48.2379C13.1125 48.2379 13.1724 48.286 13.1724 48.358C13.1724 48.418 13.2562 48.478 13.352 48.478C13.4478 48.478 13.5317 48.5501 13.5317 48.6461C13.5317 48.8622 14.346 49.3544 14.5136 49.2464C14.5855 49.1983 14.6094 49.2223 14.5615 49.2944C14.4897 49.4264 15.0645 49.7746 15.5075 49.8706C15.6393 49.8946 15.759 49.9667 15.783 50.0387C15.8548 50.2428 16.8966 50.891 17.0284 50.807C17.1122 50.759 17.1241 50.783 17.0762 50.855C17.0284 50.9271 17.1241 51.0471 17.2678 51.1311C17.4235 51.2152 17.5792 51.3232 17.6151 51.3832C17.651 51.4433 17.7588 51.5153 17.8546 51.5393C18.3336 51.6473 18.5492 51.7554 18.4893 51.8514C18.4534 51.9115 18.5851 51.9595 18.7887 51.9595C19.0401 51.9595 19.1719 52.0315 19.2198 52.1996C19.2677 52.3316 19.3395 52.4157 19.3994 52.3797C19.5551 52.2836 19.8784 52.4517 19.8784 52.6318C19.8784 52.7278 19.9502 52.7998 20.046 52.7998C20.1299 52.7998 20.2736 52.8839 20.3574 52.9799C20.4412 53.0759 20.5969 53.16 20.7166 53.16C20.8364 53.16 20.9681 53.244 21.004 53.34C21.04 53.4481 21.1358 53.5201 21.2196 53.5081C21.5309 53.4721 21.6866 53.5201 21.6147 53.6402C21.5788 53.7002 21.6267 53.7722 21.7225 53.7722C22.1656 53.8082 22.5248 54.0003 22.429 54.1564C22.3811 54.2284 22.429 54.2524 22.5488 54.2044C22.6685 54.1564 22.8003 54.2404 22.932 54.4325C23.0398 54.6006 23.1715 54.6966 23.2194 54.6606C23.2793 54.6366 23.387 54.6846 23.4709 54.7806C23.5547 54.8767 23.7463 54.9607 23.902 54.9607C24.0576 54.9607 24.1894 55.0207 24.1894 55.0928C24.1894 55.1648 24.2732 55.2008 24.369 55.1528C24.4648 55.1168 24.5845 55.1648 24.6324 55.2488C24.6923 55.3449 24.836 55.4409 24.9677 55.4649C25.0995 55.4769 25.315 55.597 25.4348 55.705C25.5545 55.8251 25.6982 55.8851 25.7581 55.8611C25.806 55.8251 25.9137 55.8731 26.0095 55.9571C26.1892 56.1372 26.9556 56.4733 27.0873 56.4253C27.1352 56.4133 27.231 56.5094 27.3028 56.6294C27.3747 56.7735 27.5064 56.8335 27.6501 56.7975C27.8058 56.7615 27.9255 56.8215 28.0213 57.0016C28.1171 57.1816 28.2369 57.2417 28.3926 57.2056C28.5123 57.1696 28.6201 57.1936 28.6201 57.2537C28.6201 57.4097 29.4344 57.7219 29.8415 57.7219C30.081 57.7219 30.1648 57.7699 30.105 57.8659C30.0451 57.962 30.081 57.974 30.2127 57.9259C30.3205 57.8899 30.4882 57.9379 30.5959 58.034C30.6917 58.142 30.7756 58.178 30.7756 58.13C30.7756 58.082 30.8594 58.142 30.9672 58.2741C31.063 58.3941 31.1228 58.4301 31.0749 58.3461C30.9432 58.094 31.1827 58.19 31.3504 58.4542C31.4701 58.6342 31.6018 58.6943 31.7934 58.6462C31.9611 58.6222 32.0569 58.6462 32.021 58.6943C31.985 58.7543 32.0689 58.8023 32.2006 58.8023C32.3323 58.8023 32.464 58.8503 32.5119 58.9103C32.5479 58.9704 32.7395 59.0184 32.943 59.0184C33.1466 59.0064 33.3502 59.0544 33.3861 59.1144C33.4699 59.2225 33.6735 59.2945 34.0328 59.3185C34.1525 59.3305 34.2483 59.4266 34.2483 59.5466C34.2483 59.8467 34.6914 60.0628 34.9189 59.8707C35.0746 59.7507 35.1225 59.7507 35.2063 59.8948C35.3021 60.0268 35.362 60.0388 35.5655 59.9068C35.6973 59.8347 35.9008 59.7627 36.0086 59.7627C36.1284 59.7627 36.296 59.6547 36.3798 59.5226C36.4637 59.3905 36.5834 59.2825 36.6433 59.2825C36.7151 59.2825 36.9666 59.1985 37.2181 59.0784C37.4576 58.9704 37.7091 58.8983 37.7689 58.9103C37.8288 58.9224 37.9725 58.8383 38.0923 58.7303C38.212 58.6222 38.4156 58.5622 38.5593 58.5982C38.703 58.6342 38.7988 58.5982 38.7988 58.5022C38.7988 58.4181 38.9185 58.3581 39.0742 58.3701C39.2179 58.3821 39.4095 58.3461 39.4933 58.2861C39.5771 58.2141 39.8286 58.154 40.0561 58.13C40.2837 58.106 40.595 58.01 40.7507 57.9019C40.9064 57.8059 41.062 57.7579 41.1099 57.7939C41.1459 57.8419 41.2656 57.7819 41.3734 57.6738C41.553 57.5058 41.8045 57.4217 42.0679 57.4698C42.1158 57.4698 42.1518 57.4097 42.1518 57.3137C42.1518 57.1936 42.2595 57.1576 42.4871 57.1816C42.6667 57.1936 42.8463 57.1696 42.8822 57.1096C42.9181 57.0496 43.0499 56.9775 43.1816 56.9535C43.6007 56.8695 44.0438 56.6534 44.0917 56.5214C44.1156 56.4493 44.2593 56.3653 44.427 56.3413C44.8102 56.2693 45.7203 55.9331 45.5646 55.9211C45.3491 55.9091 45.7921 55.681 46.0316 55.681C46.2711 55.681 47.2411 55.2248 47.8398 54.8407C48.0434 54.7086 48.3308 54.5525 48.4985 54.4805C48.6661 54.4205 48.8817 54.3004 48.9775 54.2404C49.0733 54.1684 49.2768 54.0723 49.4325 54.0003C49.5762 53.9403 49.696 53.8323 49.696 53.7602C49.696 53.6882 49.7439 53.6522 49.8037 53.7002C49.9355 53.7722 50.7737 53.304 50.7737 53.148C50.7737 53.0879 50.8575 53.0399 50.9533 53.0399C51.0491 53.0399 51.133 52.9799 51.133 52.9199C51.133 52.8478 51.2048 52.7998 51.3006 52.8238C51.3964 52.8478 51.4802 52.7998 51.4922 52.7398C51.5161 52.5597 51.9951 52.3316 52.1987 52.4157C52.2945 52.4517 52.3424 52.4277 52.2945 52.3556C52.2586 52.2956 52.4382 52.1396 52.7136 52.0195C52.9771 51.9115 53.3124 51.6954 53.4561 51.5513C53.5878 51.4193 53.7315 51.2992 53.7674 51.2872C53.8034 51.2872 53.9231 51.2392 54.0429 51.1912C54.1626 51.1311 54.3183 51.1551 54.4261 51.2392C54.5219 51.3112 54.6536 51.3472 54.7135 51.3112C54.7733 51.2632 54.8572 51.2872 54.9051 51.3592C54.953 51.4313 55.0248 51.4553 55.0847 51.4193C55.1326 51.3832 55.2164 51.4433 55.2523 51.5513C55.2883 51.6473 55.3721 51.7074 55.42 51.6714C55.4798 51.6353 55.6355 51.7074 55.7553 51.8274C55.887 51.9355 56.0427 52.0195 56.1145 51.9955C56.1864 51.9715 56.378 52.0795 56.5336 52.2356C56.9767 52.6558 57.4677 52.9439 57.6234 52.8478C57.6952 52.7998 57.7192 52.8118 57.6832 52.8839C57.5994 53.0279 58.4377 53.5201 58.737 53.5201C58.8328 53.5201 58.9167 53.5681 58.9167 53.6282C58.9167 53.7602 60.1141 54.4325 60.2578 54.3965C60.3057 54.3725 60.3536 54.4085 60.3536 54.4805C60.3536 54.6006 60.9644 54.9007 61.4673 55.0087C61.6469 55.0568 61.7667 55.1288 61.7308 55.1888C61.7068 55.2488 61.8146 55.3329 61.9942 55.3809C62.1738 55.4169 62.4014 55.561 62.5211 55.693C62.6289 55.8251 62.7846 55.9091 62.8444 55.8971C62.9163 55.8731 63.048 55.9451 63.1318 56.0532C63.3474 56.3293 64.3772 56.8815 64.6766 56.8815C64.8083 56.8815 64.8921 56.9295 64.8442 56.9896C64.8083 57.0496 64.8442 57.1456 64.9161 57.1936C64.9879 57.2297 65.0957 57.1936 65.1556 57.1096C65.2394 56.9775 65.2634 57.0016 65.2634 57.1936C65.2634 57.3377 65.4669 57.6018 65.7543 57.8299L66.2333 58.2261L66.5567 57.9499C67.0596 57.4938 67.1674 57.3257 67.0596 57.1216C67.0117 57.0256 66.9638 56.7855 66.9638 56.6054C66.9638 56.4253 66.88 56.1972 66.7602 56.1132C66.5567 55.9691 66.5567 55.9571 66.8081 55.8851C67.0955 55.8131 67.1554 55.561 66.88 55.561C66.6285 55.561 66.6525 55.3209 66.9159 55.3089C67.0357 55.3089 67.0596 55.2728 66.9638 55.2368C66.892 55.2128 66.8441 55.1288 66.88 55.0688C66.9518 54.9607 66.6405 53.6042 66.4609 53.256C66.389 53.124 66.401 53.0399 66.4968 52.9919C66.6046 52.9559 66.5926 52.9079 66.4728 52.8238C66.377 52.7518 66.2932 52.5117 66.2932 52.2716C66.2812 52.0315 66.2333 51.8394 66.1854 51.8394C66.1256 51.8394 66.1016 51.6954 66.1256 51.5033C66.1615 51.0591 65.9819 49.9186 65.8621 49.9186C65.8142 49.9186 65.7424 49.8106 65.7064 49.6785C65.6705 49.5465 65.6945 49.4384 65.7543 49.4384C65.8142 49.4384 65.7783 49.3064 65.6705 49.1503C65.4669 48.8262 65.4669 48.7301 65.6466 48.5021C65.7184 48.43 65.7184 48.358 65.6585 48.358C65.5987 48.358 65.5747 48.1779 65.5987 47.9618L65.6466 47.5777L64.976 47.6137C64.4012 47.6497 64.3173 47.6257 64.3173 47.4336C64.3293 47.1815 63.9222 46.053 63.8024 45.945C63.7545 45.909 63.6587 45.6089 63.5989 45.2847C63.527 44.9486 63.4671 44.6245 63.4552 44.5644C63.4073 44.3123 63.4791 44.1563 63.6348 44.1563C63.7186 44.1563 64.0299 43.9282 64.3173 43.64C64.5928 43.3639 64.7844 43.2199 64.7245 43.3159C64.6646 43.412 64.7844 43.3159 64.9879 43.0998C65.1915 42.8957 65.443 42.7157 65.5508 42.7157C65.6705 42.7157 65.7064 42.6436 65.6585 42.5356C65.6226 42.4275 65.6346 42.3555 65.6945 42.3795C65.8741 42.4275 66.3411 42.2235 66.3411 42.1034C66.3411 42.0434 66.4249 41.9954 66.5207 41.9954C66.6165 41.9954 66.7004 41.9473 66.7004 41.8993C66.7004 41.8393 66.8321 41.7313 66.9997 41.6592C67.1674 41.5872 67.2991 41.4671 67.2991 41.3951C67.2991 41.3111 67.3829 41.179 67.4787 41.083C67.5745 40.9749 67.6584 40.9269 67.6584 40.9629C67.6584 40.999 67.7661 40.9389 67.8979 40.8189C68.0416 40.7108 68.1972 40.6148 68.2571 40.6148C68.3289 40.6148 68.3768 40.5668 68.3649 40.5068C68.3649 40.4467 68.5684 40.3147 68.8199 40.1946C69.0714 40.0746 69.4187 39.8585 69.5863 39.7024C69.7659 39.5464 69.9695 39.4023 70.0414 39.3783C70.1252 39.3663 70.4006 39.1382 70.6521 38.8741C70.9155 38.61 71.179 38.3939 71.2389 38.3939C71.4664 38.3939 72.2687 37.7696 72.2328 37.6376C72.2088 37.5535 72.2328 37.5295 72.2807 37.5775C72.4004 37.7096 73.0351 37.3014 73.3105 36.9053C73.5261 36.6171 73.574 36.5931 73.6698 36.7612C73.7296 36.8692 73.8853 36.9533 74.017 36.9533C74.1488 36.9533 74.2925 37.0493 74.3284 37.1574C74.4362 37.4455 74.8313 37.7816 75.2265 37.9257C75.4181 37.9977 75.5379 38.1058 75.5019 38.1538C75.466 38.2138 75.5618 38.2978 75.7055 38.3459C75.9809 38.4299 76.3162 38.706 76.2564 38.802C76.2324 38.8261 76.2564 38.8981 76.3162 38.9461C76.3641 38.9941 76.4001 38.9701 76.4001 38.8861C76.4001 38.778 76.448 38.79 76.5797 38.9221C76.6755 39.0181 76.7593 39.1502 76.7593 39.2222C76.7593 39.2943 76.8671 39.3543 76.9988 39.3543C77.1305 39.3543 77.2263 39.3903 77.2024 39.4503C77.1664 39.5824 77.6574 40.0386 77.9448 40.1346C78.0885 40.1706 78.1963 40.2787 78.1963 40.3507C78.1963 40.4347 78.3639 40.5668 78.5555 40.6388C78.7591 40.7108 78.9028 40.8429 78.8908 40.9389C78.8669 41.023 78.9387 41.083 79.0585 41.059C79.1663 41.047 79.286 41.131 79.3339 41.2631C79.3698 41.3831 79.6333 41.6472 79.9087 41.8273C80.1841 42.0194 80.4356 42.2115 80.4715 42.2475C80.5075 42.2835 80.6512 42.3795 80.8068 42.4636C80.9505 42.5476 81.0463 42.6556 81.0104 42.7277C80.9625 42.7877 81.0224 42.8357 81.1182 42.8357C81.214 42.8357 81.4415 42.9798 81.6091 43.1598C81.7768 43.3399 81.9085 43.448 81.9085 43.3999C81.9085 43.3399 81.9923 43.3759 82.0881 43.484C82.1839 43.58 82.2678 43.7241 82.2678 43.7961C82.2678 43.8681 82.3875 43.9762 82.5432 44.0482C83.0581 44.2763 83.3455 44.4804 83.2737 44.5524C83.2258 44.5884 83.3335 44.6965 83.5132 44.7685C83.6808 44.8525 83.8245 44.9486 83.8245 44.9966C83.8245 45.0446 83.9802 45.1167 84.1718 45.1527C84.3873 45.2007 84.555 45.3207 84.6029 45.4768C84.6388 45.6089 84.7226 45.7169 84.7825 45.7169C84.8424 45.7169 85.046 45.861 85.2495 46.029C85.4531 46.1971 85.6207 46.3051 85.6207 46.2691C85.6207 46.2211 85.7884 46.3772 85.992 46.6173C86.2075 46.8574 86.435 47.0254 86.5069 47.0014C86.5787 46.9774 86.7105 47.0254 86.7943 47.1215C86.8901 47.2055 87.0218 47.2415 87.0937 47.1935C87.1655 47.1455 87.1895 47.1935 87.1416 47.3136C87.1056 47.4336 87.1176 47.5176 87.1895 47.5176C87.2493 47.5176 87.4409 47.6497 87.6086 47.8178C87.7762 47.9858 87.9559 48.0939 88.0038 48.0699C88.0517 48.0339 88.1714 48.1179 88.2552 48.2499C88.351 48.37 88.5187 48.478 88.6384 48.478C88.7582 48.478 88.9618 48.5381 89.0935 48.6221C89.3929 48.8142 89.4647 48.7181 89.5366 48.0579C89.5845 47.6617 89.6563 47.5176 89.8 47.5176C90.1113 47.5176 90.6502 47.2295 90.6143 47.0975C90.5903 47.0254 90.4706 46.9174 90.3389 46.8574C90.1712 46.7733 90.0994 46.5933 90.0874 46.2211C90.0754 45.933 90.0036 45.6209 89.9317 45.5368C89.776 45.3568 89.6802 44.9006 89.6683 44.3003C89.6563 44.0962 89.5964 43.9162 89.5246 43.9162C89.4408 43.9162 89.3809 43.7961 89.3689 43.6641C89.333 43.2559 88.9498 42.1154 88.842 42.1154C88.7941 42.1154 88.7702 41.9834 88.8061 41.8153C88.83 41.6472 88.8061 41.5152 88.7342 41.5152C88.6744 41.5152 88.6145 41.4311 88.6145 41.3351C88.6145 41.2391 88.5546 41.155 88.4828 41.155C88.4229 41.155 88.3989 41.095 88.4349 41.035C88.4708 40.9629 88.4588 40.9149 88.387 40.9149C88.3151 40.9149 88.2912 40.8309 88.3271 40.7348C88.375 40.6388 88.3391 40.5548 88.2672 40.5548C88.1954 40.5548 88.1355 40.4227 88.1355 40.2667C88.1355 40.1106 88.0636 39.9185 87.9678 39.8345C87.872 39.7624 87.8122 39.6304 87.8481 39.5464C87.884 39.4623 87.8241 39.3183 87.7164 39.2342C87.6206 39.1502 87.5367 39.0301 87.5367 38.9581C87.5367 38.8981 87.393 38.718 87.2134 38.5619C87.0098 38.3939 86.95 38.2738 87.0458 38.2738C87.1535 38.2738 87.0937 38.1658 86.8901 37.9737C86.7224 37.8176 86.5787 37.6136 86.5787 37.5175C86.5787 37.4215 86.5069 37.2774 86.4111 37.1934C86.3153 37.1214 86.2674 36.9773 86.3033 36.8813C86.3392 36.7852 86.2913 36.6171 86.1955 36.4971C86.0997 36.3891 85.9321 36.1009 85.8123 35.8728C85.4531 35.1405 85.2735 34.8644 85.1178 34.7324C85.022 34.6723 84.9621 34.5283 84.9621 34.4322C84.9741 34.3362 84.8783 34.1081 84.7586 33.928C84.6388 33.76 84.543 33.5559 84.543 33.4718C84.543 33.2438 84.052 32.2473 83.8125 31.9952C83.6808 31.8512 83.597 31.6831 83.6209 31.6231C83.6449 31.5511 83.597 31.419 83.5012 31.335C83.4174 31.2389 83.3695 31.1189 83.4054 31.0589C83.4533 30.9988 83.4293 30.9508 83.3575 30.9508C83.2856 30.9508 83.2617 30.8788 83.2976 30.7827C83.3335 30.6987 83.2737 30.5907 83.1659 30.5426C83.0461 30.4946 82.9982 30.3866 83.0342 30.2545C83.118 30.0024 82.8066 29.1501 82.627 29.1501C82.5671 29.1501 82.5432 29.066 82.5791 28.97C82.627 28.8739 82.5671 28.7659 82.4713 28.7179C82.3755 28.6819 82.3157 28.5618 82.3516 28.4538C82.3755 28.3457 82.2917 28.1416 82.172 27.9976C81.9205 27.7335 81.8127 26.509 82.0283 26.509C82.1001 26.509 82.148 26.4369 82.148 26.3409C82.148 26.2569 82.2318 26.1128 82.3396 26.0288C82.4354 25.9327 82.5073 25.7287 82.4833 25.5606C82.4594 25.3685 82.5073 25.2605 82.5911 25.2725C82.6629 25.2845 82.7587 25.1404 82.8066 24.9483C82.8426 24.7562 82.9623 24.5402 83.0581 24.4561C83.1539 24.3841 83.2018 24.216 83.1659 24.108C83.13 23.9879 83.1659 23.8199 83.2497 23.7358C83.4653 23.5077 83.6569 23.0636 83.8245 22.3913C83.9083 22.0791 84.0161 21.827 84.064 21.827C84.1119 21.827 84.1359 21.683 84.1119 21.5149C84.0999 21.3468 84.1478 21.1908 84.2436 21.1548C84.3275 21.1187 84.4352 21.0107 84.4712 20.9147C84.5071 20.8066 84.4831 20.7706 84.4233 20.8066C84.2077 20.9387 84.3035 20.7226 84.6508 20.2784C84.8424 20.0383 85.0939 19.5701 85.2136 19.222C85.3333 18.8858 85.4651 18.6217 85.501 18.6457C85.5489 18.6697 85.6447 18.5017 85.7285 18.2736C85.8123 18.0575 85.9201 17.8654 85.98 17.8654C86.0399 17.8654 86.0638 17.7934 86.0279 17.6973C85.992 17.5893 86.0638 17.4572 86.2195 17.3612C86.4949 17.1931 86.8781 16.4728 86.8302 16.1967C86.8182 16.1127 86.8542 16.0767 86.914 16.1127C86.9739 16.1487 87.1416 15.9326 87.2853 15.6445C87.429 15.3444 87.5966 15.1043 87.6565 15.1043C87.7044 15.1043 87.872 14.8642 88.0157 14.564C88.1594 14.2639 88.3271 13.9998 88.387 13.9518C88.4468 13.9158 88.4708 13.8437 88.4349 13.7837C88.3989 13.7357 88.4468 13.6637 88.5307 13.6277C88.6145 13.5916 88.7941 13.3515 88.9139 13.0754C89.0456 12.8113 89.1893 12.5832 89.2492 12.5832C89.2971 12.5832 89.333 12.4992 89.333 12.4032C89.333 12.3071 89.3929 12.2351 89.4767 12.2471C89.5605 12.2711 89.6323 12.1631 89.6443 12.007C89.6563 11.8629 89.7521 11.6348 89.8718 11.5028C89.9796 11.3827 90.0395 11.2267 90.0036 11.1546C89.9557 11.0946 90.0275 11.0106 90.1353 10.9746C90.255 10.9385 90.4466 10.6744 90.5784 10.3863C90.6981 10.1102 90.8418 9.78607 90.9017 9.67803C90.9616 9.55798 91.0095 9.32988 91.0095 9.16181C91.0095 8.99374 91.0574 8.86169 91.1172 8.86169C91.237 8.86169 91.1771 7.46911 91.0574 7.27703C91.0214 7.22902 91.0813 7.181 91.1771 7.181C91.2849 7.181 91.3687 7.09696 91.3687 7.00092C91.3687 6.90488 91.4286 6.82085 91.4885 6.82085C91.5603 6.82085 91.6082 6.7128 91.6082 6.56874C91.6082 6.43669 91.6561 6.35265 91.716 6.40067C91.8956 6.50872 92.0752 6.07654 91.9675 5.80043C91.9196 5.66837 91.704 5.40426 91.5004 5.21218C91.2969 5.0081 91.1292 4.79201 91.1292 4.70797C91.1292 4.62394 91.0693 4.40785 90.9855 4.23978C90.8298 3.89164 90.3628 3.83161 90.1832 4.14374C90.1233 4.26379 90.0275 4.32382 89.9796 4.2758C89.8838 4.17976 89.2971 4.46788 88.866 4.84003C88.7103 4.97208 88.6145 5.0081 88.6624 4.92406C88.7941 4.69597 88.6504 4.75599 88.387 5.03211C88.2552 5.17617 88.0277 5.30822 87.872 5.32023C87.417 5.36825 87.405 5.38025 87.4649 5.4883C87.5008 5.54832 87.3571 5.63236 87.1416 5.66837C86.7224 5.75241 85.98 6.08854 85.6567 6.36466C85.513 6.4727 85.477 6.4727 85.5489 6.36466C85.6926 6.12456 85.5369 6.19659 85.2256 6.50872C85.0579 6.67679 84.8903 6.77283 84.8544 6.73681C84.8184 6.68879 84.7825 6.72481 84.7825 6.79684C84.7825 6.86887 84.6987 6.90488 84.6029 6.86887C84.4951 6.82085 84.4233 6.86887 84.4233 6.98892C84.4233 7.09696 84.3275 7.181 84.2077 7.181C83.9203 7.181 83.2976 7.49312 83.106 7.72122C83.0222 7.81726 82.9024 7.90129 82.8426 7.90129C82.7827 7.90129 82.615 8.02134 82.4833 8.1654C82.3516 8.32147 82.2917 8.35748 82.3396 8.26144C82.3875 8.1534 82.3276 8.17741 82.172 8.32147C81.7648 8.70562 81.6211 8.80166 81.4295 8.80166C81.3337 8.80166 81.2619 8.86169 81.2738 8.94572C81.2978 9.01775 81.19 9.1258 81.0344 9.16181C80.5194 9.31788 79.9925 9.59399 79.9925 9.72605C79.9925 9.78607 79.9087 9.82209 79.8129 9.78607C79.7171 9.73805 79.6093 9.76206 79.5734 9.82209C79.5255 9.89411 79.4058 9.94213 79.286 9.94213C79.1663 9.94213 78.9747 10.0502 78.8549 10.1822C78.7352 10.3143 78.5915 10.3863 78.5436 10.3503C78.4837 10.3143 78.4358 10.3503 78.4358 10.4223C78.4358 10.4944 78.3759 10.5184 78.316 10.4824C78.2442 10.4463 78.0406 10.5184 77.849 10.6504C77.6574 10.7945 77.4419 10.9025 77.358 10.9025C77.2862 10.9025 77.2622 10.9626 77.3101 11.0466C77.358 11.1186 77.3461 11.1426 77.2622 11.0946C77.1066 10.9986 76.1606 11.4788 76.0767 11.6949C76.0408 11.7909 75.969 11.8269 75.9091 11.7909C75.8492 11.7549 75.8013 11.7789 75.8013 11.8509C75.8013 11.923 75.7175 11.947 75.6217 11.9109C75.5259 11.8629 75.4421 11.8989 75.4421 11.971C75.4421 12.031 75.2265 12.151 74.9631 12.2231C74.6996 12.2951 74.508 12.4032 74.532 12.4512C74.5679 12.5112 74.3404 12.6432 74.029 12.7633C73.7177 12.8833 73.3943 13.0634 73.3225 13.1595C73.2387 13.2675 73.1668 13.3035 73.1668 13.2315C73.1548 13.1715 73.0231 13.2795 72.8674 13.4836C72.6758 13.7117 72.5681 13.7717 72.5681 13.6637C72.5681 13.5436 72.4723 13.5916 72.2807 13.8077C72.137 13.9878 71.9693 14.1079 71.9214 14.0598C71.8855 14.0238 71.8496 14.0358 71.8496 14.1079C71.8496 14.1799 71.7538 14.2279 71.646 14.2159C71.5263 14.2159 71.4424 14.2759 71.4544 14.348C71.4784 14.444 71.2628 14.564 70.9515 14.6361C70.6401 14.7201 70.3527 14.8762 70.2809 15.0082C70.221 15.1283 70.1132 15.2003 70.0653 15.1643C70.0054 15.1403 69.8977 15.1883 69.8138 15.2843C69.6701 15.4524 69.6222 15.4404 69.3827 15.2123C69.239 15.0803 69.0474 14.9962 68.9756 15.0442C68.9037 15.0923 68.784 15.0683 68.7002 15.0082C68.4726 14.8402 67.7901 14.7441 67.7182 14.8762C67.6703 14.9362 67.5147 14.9002 67.3231 14.7681C66.9159 14.48 66.377 14.372 66.0058 14.516C65.8142 14.5881 65.6585 14.5881 65.5508 14.492C65.3232 14.3119 64.1856 14.2159 64.1856 14.384C64.1856 14.456 64.0419 14.408 63.8623 14.2639C63.4432 13.9638 62.7127 13.9278 62.3175 14.1799C62.2337 14.2279 62.114 14.1799 62.0301 14.0838C61.9463 13.9878 61.8505 13.9278 61.8026 13.9518C61.7547 13.9878 61.5032 13.9638 61.2518 13.9038C60.9165 13.8317 60.7488 13.8437 60.6889 13.9398C60.6291 14.0358 60.5333 14.0118 60.3656 13.8558C60.0902 13.6036 59.1921 13.3996 59.0843 13.5556C59.0125 13.6877 58.5095 13.6997 58.3898 13.5796C58.3419 13.5316 58.0784 13.4836 57.803 13.4596C57.5276 13.4476 57.1444 13.4116 56.9408 13.3635C56.7492 13.3155 56.3301 13.2795 56.0307 13.2915C55.3841 13.2915 55.2284 13.0754 55.2763 12.2471C55.2883 11.923 55.2404 11.7069 55.1326 11.6468C55.0009 11.5748 55.0009 11.4668 55.1086 11.1186C55.2164 10.7345 55.2044 10.6144 54.929 10.0742C54.7614 9.73805 54.6656 9.43793 54.7135 9.40191C54.8572 9.31788 54.8452 8.62159 54.7135 8.62159C54.6416 8.62159 54.6296 8.56157 54.6656 8.50154C54.7015 8.42951 54.6656 8.34548 54.5578 8.30946C54.4141 8.24944 54.4141 8.18941 54.5458 7.86528C54.7135 7.4331 54.6536 6.76082 54.4141 6.41268C54.3183 6.26862 54.2943 6.12456 54.3662 6.04052C54.4261 5.96849 54.4261 5.71639 54.3662 5.44028C54.2943 5.14015 54.2943 4.94807 54.3662 4.92406C54.5578 4.85203 54.5099 4.68396 54.2345 4.44387C54.0429 4.26379 54.0309 4.19176 54.1626 4.14374C54.3422 4.07171 54.5219 3.57951 54.3782 3.57951C54.3303 3.57951 54.2824 3.33941 54.2824 3.05129C54.2824 2.75117 54.2225 2.43904 54.1506 2.355C54.0668 2.24696 54.0668 2.1149 54.1866 1.89882C54.4261 1.44263 54.2704 0.818369 53.8034 0.350176C53.4681 0.0140372 53.3723 -0.0339826 53.2884 0.110077C53.2046 0.242131 53.1447 0.242131 53.025 0.122082C52.8813 -0.0219776 52.8334 -0.0339826 52.3664 0.0620571ZM52.8693 1.65872C52.8334 1.79077 52.8334 1.89882 52.8933 1.89882C52.9531 1.89882 52.9891 2.22295 52.9771 2.61911C52.9771 3.01528 53.013 3.33941 53.0729 3.33941C53.1328 3.33941 53.1208 3.44745 53.0489 3.59151C52.9531 3.77159 52.9531 3.87963 53.0489 3.99968C53.1567 4.11973 53.1567 4.22778 53.0489 4.41986C52.9531 4.61193 52.9531 4.71998 53.0489 4.84003C53.1328 4.94807 53.1447 5.0201 53.0609 5.06812C52.9771 5.12815 52.9771 5.2482 53.0609 5.46429C53.1208 5.64436 53.1567 5.84845 53.1208 5.93248C53.0849 6.02852 53.1088 6.12456 53.1687 6.16057C53.2286 6.19659 53.2525 6.36466 53.2166 6.53273C53.1926 6.68879 53.2166 6.91689 53.2765 7.03694C53.3483 7.15699 53.3483 7.31305 53.2765 7.4451C53.1926 7.60117 53.2046 7.6852 53.3363 7.73322C53.516 7.80525 53.5519 8.26144 53.3723 8.26144C53.3244 8.26144 53.3124 8.32147 53.3483 8.38149C53.3962 8.45352 53.4441 8.76565 53.48 9.06577C53.516 9.3779 53.5758 9.66602 53.6237 9.70204C53.7674 9.81008 53.7914 10.2182 53.6597 10.1222C53.5878 10.0862 53.5279 10.0982 53.5279 10.1702C53.5279 10.2303 53.5878 10.3023 53.6597 10.3263C53.7435 10.3503 53.8034 10.5904 53.8153 10.8425C53.8273 11.1066 53.8632 11.3707 53.8992 11.4428C53.995 11.6108 53.959 12.7393 53.8513 12.8954C53.7555 13.0514 53.2525 13.0154 52.7376 12.8113C52.2107 12.6072 51.6239 12.5712 51.3605 12.7153C51.1809 12.7993 51.0731 12.7993 50.9653 12.7153C50.8695 12.6432 50.5582 12.5592 50.2588 12.5232C49.8157 12.4752 49.684 12.5112 49.5882 12.6793C49.5163 12.7873 49.4565 12.8233 49.4565 12.7393C49.4565 12.3671 48.3069 12.151 47.7919 12.4152C47.6363 12.4992 47.4566 12.5472 47.3968 12.5112C47.1812 12.3791 46.5585 12.3551 46.2592 12.4752C46.0795 12.5352 45.9119 12.5472 45.876 12.4872C45.7921 12.3671 45.1814 12.127 44.8341 12.079C44.7024 12.055 44.4509 12.139 44.2833 12.2471C43.9839 12.4512 43.96 12.4512 43.9001 12.2471C43.8402 12.091 43.7085 12.043 43.3253 12.043C43.0379 12.055 42.7744 12.007 42.7385 11.947C42.6427 11.8029 42.1518 12.067 42.1518 12.2471C42.1518 12.3311 42.0799 12.2951 41.9841 12.1631C41.8644 11.995 41.6488 11.935 41.086 11.923C40.6788 11.9109 40.3196 11.947 40.2837 12.007C40.2477 12.067 40.1519 12.055 40.0681 11.983C39.9843 11.923 39.6729 11.7909 39.3736 11.6949C38.9425 11.5748 38.7748 11.5628 38.5593 11.6829C38.2719 11.8389 37.721 11.7789 37.721 11.5988C37.721 11.5268 37.6133 11.5028 37.4935 11.5388C37.3738 11.5628 37.1941 11.5508 37.1103 11.4908C37.0145 11.4428 36.8828 11.4548 36.799 11.5268C36.6912 11.6228 36.6433 11.6108 36.6433 11.5028C36.6433 11.4067 36.6074 11.3827 36.5714 11.4187C36.5235 11.4548 36.3798 11.4187 36.2601 11.3227C36.1284 11.2387 35.9487 11.1907 35.8649 11.2267C35.7691 11.2507 35.5895 11.2267 35.4578 11.1426C35.3141 11.0706 35.2183 11.0586 35.2302 11.1066C35.2542 11.1546 35.2302 11.2147 35.1823 11.2387C35.1225 11.2507 35.0865 11.2387 35.0865 11.2027C35.0865 11.1666 35.0865 11.0826 35.0865 11.0226C35.0865 10.9506 35.2542 10.9025 35.4578 10.9025C35.6613 10.9025 35.7931 10.8545 35.7452 10.7825C35.7092 10.7105 35.7452 10.6504 35.829 10.6504C36.0685 10.6264 36.2122 10.5904 36.4397 10.5064C36.5475 10.4583 36.7151 10.3983 36.799 10.3623C37.0624 10.2543 37.4097 10.0022 37.6252 9.76206C37.7809 9.58199 37.8288 9.55798 37.8408 9.70204C37.8408 9.82209 37.9366 9.76206 38.1282 9.54597C38.2958 9.35389 38.4515 9.20983 38.4874 9.20983C38.7748 9.24585 38.9185 9.19783 38.8586 9.10179C38.8227 9.02976 38.9065 8.98174 39.0742 8.98174C39.2418 8.98174 39.4334 8.8977 39.5173 8.80166C39.6011 8.70562 39.7089 8.6456 39.7568 8.68161C39.8526 8.74164 40.4154 8.34548 40.7507 7.97332C40.8824 7.82926 40.9543 7.80525 40.9543 7.90129C40.9543 8.00934 41.0501 7.97332 41.2297 7.80525C41.3854 7.66119 41.553 7.57716 41.5889 7.62518C41.6368 7.66119 41.6728 7.64919 41.6728 7.57716C41.6728 7.50513 41.7686 7.45711 41.8883 7.46911C41.9961 7.46911 42.0799 7.40909 42.056 7.32505C42.044 7.24102 42.1877 7.14498 42.3793 7.10897C42.5709 7.07295 42.8942 6.88087 43.1097 6.68879C43.3133 6.49671 43.5289 6.36466 43.5887 6.40067C43.6366 6.43669 43.7444 6.37666 43.8282 6.28062C43.9121 6.18458 44.0438 6.10055 44.1276 6.10055C44.2114 6.10055 44.3671 5.96849 44.4749 5.80043C44.5827 5.63236 44.7503 5.5003 44.8581 5.5003C44.9539 5.5003 45.3371 5.33223 45.7083 5.12815C46.4148 4.73198 46.4388 4.71998 46.9776 4.23978C47.1692 4.07171 47.3728 3.96367 47.4327 4.01169C47.5045 4.0477 47.6482 3.97567 47.768 3.84362C47.8758 3.69956 48.1153 3.5555 48.2949 3.51948C48.4745 3.47146 48.5823 3.38743 48.5464 3.3274C48.5104 3.26738 48.6182 3.21936 48.7739 3.21936C48.9415 3.21936 49.1331 3.13533 49.217 3.03929C49.3008 2.94325 49.4445 2.85921 49.5283 2.85921C49.6241 2.85921 49.696 2.79919 49.696 2.72716C49.696 2.65513 49.7798 2.61911 49.8756 2.66713C49.9714 2.70315 50.1151 2.63112 50.1989 2.51107C50.4025 2.23495 50.7258 2.03087 50.5941 2.27097C50.5462 2.36701 50.618 2.31899 50.7617 2.16292C50.9893 1.93483 51.2407 1.83879 51.5281 1.88681C51.576 1.88681 51.6119 1.82679 51.6119 1.73075C51.6119 1.6107 51.7077 1.57468 51.8993 1.6107C52.067 1.63471 52.2346 1.6107 52.2706 1.53867C52.3065 1.47864 52.4741 1.41862 52.6418 1.41862C52.8933 1.41862 52.9292 1.46664 52.8693 1.65872ZM53.8872 4.53991C53.8872 4.59993 53.8273 4.65995 53.7555 4.65995C53.6956 4.65995 53.6716 4.59993 53.7076 4.53991C53.7435 4.46788 53.8034 4.41986 53.8393 4.41986C53.8632 4.41986 53.8872 4.46788 53.8872 4.53991ZM90.8897 4.73198C90.8897 4.82802 90.8418 4.87604 90.77 4.84003C90.7101 4.80401 90.6502 4.71998 90.6502 4.64795C90.6502 4.58792 90.7101 4.53991 90.77 4.53991C90.8418 4.53991 90.8897 4.62394 90.8897 4.73198ZM91.7639 5.78842C91.8118 5.90847 91.7759 5.94448 91.6561 5.89647C91.4765 5.82444 91.4286 5.62035 91.5962 5.62035C91.6561 5.62035 91.728 5.70439 91.7639 5.78842ZM14.9687 10.4824C15.0525 10.5904 15.0645 10.6624 14.9926 10.6624C14.9327 10.6624 14.8489 10.5784 14.801 10.4824C14.7651 10.3863 14.7531 10.3023 14.7771 10.3023C14.801 10.3023 14.8848 10.3863 14.9687 10.4824ZM41.7446 12.6673C41.6249 12.7873 41.5171 12.6072 41.6249 12.4512C41.6967 12.3191 41.7207 12.3191 41.7686 12.4512C41.7925 12.5352 41.7805 12.6312 41.7446 12.6673ZM42.511 12.5832C42.511 12.6432 42.4631 12.7033 42.3913 12.7033C42.3314 12.7033 42.2715 12.6432 42.2715 12.5832C42.2715 12.5112 42.3314 12.4632 42.3913 12.4632C42.4631 12.4632 42.511 12.5112 42.511 12.5832ZM0.886145 22.4393C0.85022 22.4993 0.766396 22.5233 0.706521 22.4753C0.646646 22.4393 0.622696 22.3553 0.670596 22.2952C0.706521 22.2352 0.790345 22.2112 0.85022 22.2592C0.910095 22.2952 0.934045 22.3793 0.886145 22.4393ZM4.78997 24.5882C5.08935 24.5882 5.28094 24.7803 5.19712 24.9843C5.16119 25.0924 5.02947 25.1884 4.90972 25.1884C4.778 25.1884 4.65825 25.2364 4.62232 25.2965C4.5864 25.3445 4.41875 25.3685 4.26308 25.3445C3.99963 25.2845 3.97568 25.2364 4.03555 24.9003C4.11938 24.4801 4.31097 24.3001 4.47862 24.4681C4.55047 24.5402 4.6822 24.5882 4.78997 24.5882ZM5.86772 24.8283C5.86772 24.8883 5.97549 24.9003 6.10721 24.8643C6.34671 24.8043 6.70596 25.0084 6.70596 25.2004C6.70596 25.2605 6.59819 25.3565 6.45449 25.4405C6.23894 25.5486 6.14314 25.5126 5.79587 25.1764C5.32884 24.7202 5.28094 24.5882 5.62822 24.6722C5.75994 24.7082 5.86772 24.7803 5.86772 24.8283ZM6.88558 25.6686C6.92151 25.7287 6.87361 25.7887 6.76584 25.7887C6.65806 25.7887 6.61016 25.7287 6.64609 25.6686C6.68201 25.5966 6.74189 25.5486 6.76584 25.5486C6.78979 25.5486 6.84966 25.5966 6.88558 25.6686ZM11.6277 26.485C11.5438 26.509 11.4121 26.473 11.3522 26.4129C11.2564 26.3169 11.3043 26.3049 11.5079 26.3529C11.6636 26.4009 11.7235 26.4489 11.6277 26.485ZM12.8491 26.689C13.6155 26.7851 13.855 27.0252 13.4598 27.3133C13.3401 27.3973 13.1365 27.5534 13.0167 27.6494C12.909 27.7455 12.7294 27.8295 12.6336 27.8295C12.5378 27.8295 12.4539 27.8775 12.4539 27.9376C12.4539 27.9856 12.3342 28.0336 12.1905 28.0216C11.939 28.0096 11.927 27.9496 11.939 27.2293C11.963 26.2809 11.963 26.2929 12.0707 26.461C12.1186 26.545 12.4659 26.641 12.8491 26.689ZM81.2619 26.545C81.3098 26.593 81.2619 26.629 81.1541 26.629C81.0463 26.629 80.9386 26.581 80.9026 26.521C80.8188 26.4009 81.1421 26.4129 81.2619 26.545ZM11.448 26.9532C11.3283 27.0732 11.2205 26.8931 11.3283 26.7371C11.4001 26.605 11.4241 26.605 11.472 26.7371C11.4959 26.8211 11.484 26.9171 11.448 26.9532ZM7.75975 27.2893C7.72383 27.3253 7.65198 27.2653 7.61606 27.1452C7.54421 26.9772 7.55618 26.9652 7.67593 27.0732C7.75975 27.1572 7.79568 27.2533 7.75975 27.2893ZM6.10721 32.1633C6.10721 32.2233 6.05931 32.2714 5.98746 32.2714C5.92759 32.2714 5.86772 32.1873 5.86772 32.0793C5.86772 31.9832 5.92759 31.9352 5.98746 31.9712C6.05931 32.0072 6.10721 32.0913 6.10721 32.1633ZM7.54421 32.0793C7.54421 32.1633 7.62803 32.3074 7.72383 32.3914C7.81963 32.4754 7.86753 32.5955 7.8316 32.6555C7.79568 32.7155 7.86753 32.7035 7.99925 32.6195C8.2148 32.4874 8.28665 32.4994 8.49023 32.6795C8.63392 32.8116 8.7896 32.8596 8.8854 32.7996C8.99317 32.7275 8.99317 32.7636 8.87342 32.9196C8.76565 33.0517 8.60997 33.0997 8.44233 33.0637C8.29863 33.0277 8.14295 33.0277 8.09505 33.0757C7.95135 33.2197 7.52026 33.2438 7.61606 33.0997C7.66396 33.0037 7.60408 32.9916 7.42446 33.0517C6.69399 33.2798 6.37066 33.0997 6.61016 32.5835C6.68201 32.4154 6.81374 32.2714 6.88558 32.2714C6.96941 32.2714 7.10113 32.1873 7.18496 32.0913C7.37656 31.8632 7.54421 31.8632 7.54421 32.0793ZM9.69969 32.2113C9.61587 32.3194 9.52007 32.3674 9.47217 32.3314C9.43624 32.2954 9.48414 32.2113 9.57994 32.1513C9.83142 31.9832 9.86734 32.0072 9.69969 32.2113ZM11.7354 32.5235C11.7354 32.6915 11.5319 32.6435 11.46 32.4634C11.4121 32.3434 11.448 32.3074 11.5678 32.3554C11.6516 32.3914 11.7354 32.4634 11.7354 32.5235ZM13.7712 32.4394C13.7712 32.5355 13.843 32.6435 13.9268 32.6675C13.9987 32.6915 13.9149 32.7035 13.7352 32.6795C13.5317 32.6555 13.4239 32.6795 13.4718 32.7515C13.5796 32.9196 13.2443 32.8956 13.0766 32.7275C12.9688 32.6195 13.0048 32.5595 13.2083 32.4394C13.5676 32.2353 13.7712 32.2353 13.7712 32.4394ZM15.0884 32.4394C15.0884 32.4754 15.0405 32.5355 14.9687 32.5715C14.9088 32.6075 14.8489 32.5835 14.8489 32.5235C14.8489 32.4514 14.9088 32.3914 14.9687 32.3914C15.0405 32.3914 15.0884 32.4154 15.0884 32.4394ZM6.34671 33.0517C6.47844 33.2077 6.46646 33.2197 6.29881 33.1597C6.19104 33.1237 6.10721 33.0397 6.10721 32.9796C6.10721 32.8236 6.17906 32.8476 6.34671 33.0517ZM16.8248 32.9916C16.8607 33.0517 16.8128 33.1117 16.717 33.1117C16.6092 33.1117 16.5254 33.0517 16.5254 32.9916C16.5254 32.9196 16.5733 32.8716 16.6332 32.8716C16.705 32.8716 16.7889 32.9196 16.8248 32.9916ZM59.3358 35.9929C59.3717 36.0529 59.3597 36.1129 59.2879 36.1129C59.228 36.1129 59.1322 36.0529 59.0963 35.9929C59.0604 35.9209 59.0723 35.8728 59.1442 35.8728C59.2041 35.8728 59.2999 35.9209 59.3358 35.9929ZM5.50847 41.3951C5.50847 41.4551 5.46057 41.5152 5.38872 41.5152C5.32884 41.5152 5.26897 41.4551 5.26897 41.3951C5.26897 41.3231 5.32884 41.2751 5.38872 41.2751C5.46057 41.2751 5.50847 41.3231 5.50847 41.3951ZM47.6003 46.4372C47.6363 46.4972 47.6243 46.5572 47.5524 46.5572C47.4926 46.5572 47.3968 46.4972 47.3608 46.4372C47.3249 46.3652 47.3369 46.3171 47.4087 46.3171C47.4686 46.3171 47.5644 46.3652 47.6003 46.4372ZM88.9737 47.6857C88.9737 47.7217 88.9258 47.7818 88.854 47.8178C88.7941 47.8538 88.7342 47.8298 88.7342 47.7697C88.7342 47.6977 88.7941 47.6377 88.854 47.6377C88.9258 47.6377 88.9737 47.6617 88.9737 47.6857ZM27.9854 55.9811C27.9854 56.0772 27.9375 56.1612 27.8776 56.1612C27.7579 56.1612 27.7459 55.9931 27.8657 55.8851C27.9734 55.765 27.9854 55.7771 27.9854 55.9811ZM28.5722 56.4853C28.4524 56.6054 28.3447 56.4253 28.4524 56.2693C28.5243 56.1372 28.5482 56.1372 28.5961 56.2693C28.6201 56.3533 28.6081 56.4493 28.5722 56.4853ZM34.8111 59.2465C34.6794 59.3665 34.4998 59.1504 34.5716 58.9704C34.6315 58.7903 34.6554 58.8023 34.7512 58.9824C34.8231 59.0904 34.8351 59.2105 34.8111 59.2465Z"
          fill="white"/>
    <path d="M11.2923 14.408C11.2325 14.492 11.1367 14.6601 11.0888 14.7921C11.0409 14.9482 10.969 14.9722 10.8612 14.8882C10.6217 14.6961 10.011 14.7561 9.79547 14.9962C9.61584 15.1763 9.59189 15.3924 9.63979 16.4968C9.66374 17.2051 9.72362 17.8174 9.78349 17.8534C9.91522 17.9494 9.92719 18.4656 9.80744 18.4656C9.74757 18.4656 9.69967 18.5137 9.69967 18.5857C9.69967 18.6577 10.023 18.7057 10.4182 18.7057H11.1367V19.234C11.1367 19.5341 11.2085 19.8102 11.2923 19.8702C11.5199 20.0143 12.1186 19.9903 12.4419 19.8222C12.6096 19.7502 12.7892 19.7142 12.8491 19.7502C13.1245 19.9182 14.1304 19.8822 14.31 19.7142C14.4058 19.6061 14.4896 19.5821 14.4896 19.6421C14.4896 19.9182 15.6153 20.0383 16.0703 19.8102C16.25 19.7262 16.4655 19.6901 16.5493 19.7382C16.9086 19.9663 17.9624 19.7982 17.9624 19.5221C17.9624 19.438 18.0222 19.438 18.118 19.4981C18.4414 19.7382 19.4473 19.4981 19.7466 19.1139C19.8664 18.9578 19.9981 18.8618 20.034 18.9098C20.07 18.9458 20.1897 18.9458 20.2975 18.9098C20.3933 18.8618 20.513 18.8378 20.549 18.8378C20.5969 18.8378 20.6807 18.7778 20.7286 18.6817C20.8004 18.5857 20.8364 18.5737 20.8364 18.6697C20.8364 18.8738 21.3034 18.7057 21.495 18.4296C21.7225 18.1055 21.7225 17.6613 21.495 17.4332C21.3632 17.3012 21.3513 17.1811 21.4351 16.953C21.6147 16.4968 21.5908 16.4488 21.1118 16.2447C20.7765 16.1007 20.5849 16.0887 20.3095 16.1847C20.1179 16.2567 19.9263 16.2567 19.8903 16.2087C19.7706 16.0286 18.6569 15.8005 18.5252 15.9326C18.4533 16.0046 18.3096 15.9446 18.118 15.7525C17.8666 15.5004 17.7229 15.4524 17.2319 15.4764C16.8966 15.5004 16.5972 15.5604 16.5613 15.6205C16.5254 15.6805 16.4535 15.6565 16.3937 15.5724C16.3458 15.4764 16.25 15.4044 16.2021 15.3924C16.1542 15.3924 16.0224 15.3444 15.9027 15.2963C15.7949 15.2483 15.5554 15.2243 15.3638 15.2483C15.1602 15.2723 14.9207 15.1883 14.7531 15.0442C14.4058 14.7441 13.9508 14.6481 13.4119 14.7561C13.1365 14.8161 12.9688 14.8041 12.9089 14.7081C12.861 14.6241 12.7652 14.552 12.6934 14.552C12.6335 14.54 12.5617 14.516 12.5497 14.504C12.5258 14.492 12.406 14.456 12.2743 14.432C12.1426 14.408 11.8911 14.3599 11.7234 14.3239C11.5318 14.2759 11.3762 14.2999 11.2923 14.408ZM11.6157 14.8642C11.6157 14.9242 11.5678 14.9842 11.5079 14.9842C11.436 14.9842 11.3522 14.9242 11.3163 14.8642C11.2804 14.7921 11.3283 14.7441 11.4241 14.7441C11.5318 14.7441 11.6157 14.7921 11.6157 14.8642ZM12.2024 15.8005C12.3102 15.8246 12.5737 15.8486 12.7892 15.8486C12.9928 15.8486 13.1724 15.8966 13.1724 15.9566C13.1724 16.0166 13.34 16.0406 13.5436 16.0166C13.7592 15.9926 13.9747 16.0526 14.0825 16.1607C14.2501 16.3168 14.2861 16.3168 14.3819 16.1727C14.4657 16.0406 14.4896 16.0406 14.4896 16.1607C14.4896 16.2447 14.5495 16.2807 14.6094 16.2447C14.6812 16.2087 14.7291 16.2327 14.7291 16.2927C14.7291 16.3648 14.8489 16.4248 15.0046 16.4248C15.1483 16.4368 15.4836 16.5088 15.747 16.6049C16.0105 16.7009 16.238 16.7369 16.2619 16.6769C16.2979 16.5569 16.7649 16.6529 16.7649 16.7729C16.7649 16.809 16.9445 16.845 17.1481 16.833C17.3636 16.821 17.5911 16.881 17.639 16.953C17.7109 17.0491 17.7588 17.0371 17.8067 16.929C17.8546 16.797 17.9025 16.809 18.0701 16.941C18.2857 17.1331 19.6149 17.3972 20.0101 17.3252C20.2616 17.2772 20.2616 17.2772 20.058 17.5052C19.9382 17.6373 19.7826 17.7453 19.7107 17.7453C19.6269 17.7453 19.4952 17.8534 19.3994 17.9854C19.2796 18.1535 19.2078 18.1775 19.1359 18.0695C19.0641 17.9614 19.0162 17.9614 18.9443 18.0695C18.8964 18.1535 18.6928 18.2375 18.4893 18.2496C18.2977 18.2616 18.1061 18.3216 18.0701 18.3816C18.0222 18.4536 17.6271 18.5017 17.196 18.5017C16.7649 18.5137 16.4056 18.5497 16.4056 18.5857C16.4056 18.6217 16.2979 18.6577 16.1661 18.6697C16.0344 18.6817 15.9266 18.6337 15.9266 18.5737C15.9266 18.5017 15.8787 18.4776 15.8308 18.5137C15.6153 18.6457 15.0884 18.6817 15.0285 18.5737C14.9806 18.5137 14.8968 18.4656 14.8369 18.4656C14.7651 18.4656 14.7531 18.5257 14.801 18.6097C14.8609 18.7057 14.8249 18.7177 14.6573 18.6457C14.334 18.5017 12.9209 18.4897 12.6335 18.6217C12.4779 18.7057 12.394 18.6937 12.3581 18.6097C12.3342 18.5257 12.2264 18.5137 12.0587 18.5737C11.7234 18.7057 11.2923 18.5497 11.2205 18.2616C11.1846 18.1415 11.1486 17.8294 11.1486 17.5653C11.1367 17.3012 11.1247 16.977 11.1127 16.845C11.0528 16.1367 11.1486 15.7525 11.4121 15.6325C11.5917 15.5484 11.7234 15.5484 11.8432 15.6325C11.927 15.7045 12.0827 15.7765 12.2024 15.8005ZM21.3752 18.1055C21.4111 18.1655 21.3632 18.2255 21.2674 18.2255C21.1597 18.2255 21.0759 18.1655 21.0759 18.1055C21.0759 18.0335 21.1238 17.9854 21.1836 17.9854C21.2555 17.9854 21.3393 18.0335 21.3752 18.1055Z"
          fill="white"/>
    <path d="M39.9364 17.2412C39.5293 17.3252 39.182 17.7213 39.2539 18.0455C39.2778 18.2136 39.3497 18.3456 39.4095 18.3456C39.4694 18.3456 39.5173 18.4176 39.5173 18.5137C39.5173 18.7298 39.7808 19.222 40.0322 19.4741C40.14 19.5941 40.2119 19.7262 40.1759 19.7862C40.14 19.8462 40.2478 20.0263 40.4154 20.1944C40.5831 20.3744 40.6909 20.5665 40.6549 20.6265C40.619 20.6986 40.6669 20.7466 40.7747 20.7466C40.8825 20.7466 40.9304 20.7946 40.8944 20.8666C40.8585 20.9267 40.8705 20.9867 40.9304 20.9867C41.0022 20.9867 41.0262 21.0947 40.9902 21.2268C40.9543 21.3709 40.9902 21.4669 41.0621 21.4669C41.1459 21.4669 41.1818 21.5149 41.1459 21.5749C41.11 21.623 41.1579 21.779 41.2537 21.8991C41.3495 22.0191 41.4333 22.2112 41.4333 22.3072C41.4333 22.4153 41.5411 22.5713 41.6608 22.6554C41.7925 22.7514 41.8644 22.8955 41.8285 22.9915C41.7925 23.0756 41.8285 23.1476 41.9003 23.1476C41.9722 23.1476 42.032 23.2796 42.032 23.4357C42.032 23.8319 42.1518 24.12 42.2835 24.036C42.3434 23.9999 42.4033 24.048 42.4033 24.132C42.4152 24.3001 42.4631 24.4921 42.4991 24.5882C42.511 24.6242 42.547 24.8643 42.5709 25.1284C42.6068 25.3925 42.6907 25.6566 42.7745 25.7287C42.9661 25.8727 43.026 26.1488 42.8823 26.1488C42.8224 26.1488 42.8823 26.3649 43.014 26.629C43.2415 27.0972 43.2774 27.1092 43.8522 27.1092H44.463L44.3791 26.629C44.3073 26.1968 44.1277 25.7287 43.948 25.5486C43.9121 25.5126 43.8762 25.2725 43.8522 25.0084C43.8403 24.7442 43.7684 24.5041 43.7085 24.4921C43.6367 24.4681 43.6127 24.3961 43.6487 24.3481C43.6846 24.2881 43.6127 24.168 43.505 24.084C43.3613 23.9879 43.2894 23.7478 43.2774 23.4237C43.2535 22.6194 43.1457 22.3433 42.8104 22.2592C42.5589 22.1992 42.523 22.1272 42.5829 21.8871C42.6308 21.695 42.6068 21.5869 42.511 21.5869C42.4392 21.5869 42.4152 21.5389 42.4512 21.4669C42.547 21.3228 42.1638 20.7466 41.9722 20.7466C41.8764 20.7466 41.8524 20.6386 41.8883 20.4345C41.9602 20.0383 41.577 19.33 41.1699 19.1139C40.9663 19.0059 40.8705 18.8738 40.9064 18.7658C40.9543 18.6697 40.8705 18.3816 40.7388 18.1175C40.607 17.8654 40.5112 17.6253 40.5472 17.6013C40.6549 17.4812 40.164 17.1931 39.9364 17.2412ZM40.0322 17.6253C39.9963 17.7574 39.9245 17.8654 39.8646 17.8654C39.6969 17.8654 39.7329 17.5293 39.9125 17.4692C39.9843 17.4332 40.0682 17.3972 40.0801 17.3972C40.0801 17.3852 40.0682 17.4933 40.0322 17.6253Z"
          fill="white"/>
    <path d="M31.7814 17.4933C31.3623 17.7454 31.3024 18.0935 31.6377 18.3216C31.7575 18.4057 31.8293 18.5257 31.7934 18.5737C31.7335 18.6938 32.2604 19.4381 32.5119 19.5821C32.6197 19.6302 32.6675 19.7382 32.6197 19.7982C32.5837 19.8703 32.6316 19.9903 32.7394 20.0623C32.8472 20.1464 32.943 20.3385 32.9789 20.5065C33.0028 20.6746 33.0747 20.7946 33.1465 20.7826C33.2184 20.7586 33.2543 20.8547 33.2304 20.9867C33.2064 21.1188 33.2543 21.3709 33.3501 21.551C33.4459 21.731 33.5657 22.0312 33.6375 22.2112C33.7094 22.4033 33.8531 22.5474 33.9489 22.5474C34.0566 22.5474 34.1165 22.5954 34.0806 22.6554C34.0327 22.7154 34.0806 22.7995 34.1524 22.8235C34.2602 22.8715 34.2602 22.8955 34.1405 22.8955C34.0207 22.9075 34.0447 22.9916 34.2482 23.1956C34.4039 23.3757 34.4877 23.5798 34.4518 23.6758C34.4039 23.7839 34.4279 23.8679 34.4877 23.8679C34.5476 23.8679 34.6434 24.012 34.6793 24.192C34.7272 24.3841 34.7871 24.5762 34.835 24.6482C34.8709 24.7083 34.9069 24.8163 34.9069 24.8883C34.9308 25.1765 35.1344 25.7407 35.2422 25.8007C35.302 25.8487 35.3739 26.0048 35.3978 26.1609C35.4218 26.3169 35.4577 26.557 35.4817 26.6891C35.5056 26.8211 35.7212 27.0252 35.9726 27.1573C36.3918 27.3614 36.4397 27.3614 36.6193 27.1813C36.9665 26.8331 36.7271 25.5486 36.3079 25.5486C36.2002 25.5486 36.1882 25.4886 36.284 25.3205C36.3558 25.1644 36.3678 25.0564 36.284 25.0084C36.2241 24.9724 36.2002 24.8643 36.2361 24.7803C36.272 24.6843 36.2481 24.5762 36.1762 24.5282C36.1044 24.4922 36.0445 24.3481 36.0445 24.2281C36.0445 24.108 35.9367 23.964 35.805 23.9279C35.6014 23.8679 35.5894 23.8079 35.6972 23.6038C35.8649 23.2917 35.6493 22.7154 35.2062 22.3073C35.0266 22.1392 34.835 21.8271 34.7991 21.623C34.7512 21.4189 34.5835 21.1068 34.4279 20.9387C34.2722 20.7706 34.1884 20.6026 34.2482 20.5666C34.5117 20.3985 33.8531 19.0899 33.4579 18.9939C33.2783 18.9459 33.2184 18.8618 33.2543 18.6938C33.2902 18.5737 33.2543 18.4657 33.1825 18.4657C33.1106 18.4657 33.0507 18.3937 33.0507 18.2976C33.0507 18.2136 32.9789 18.0695 32.8831 17.9855C32.7873 17.9135 32.7394 17.7694 32.7753 17.6734C32.8112 17.5653 32.7154 17.4693 32.5119 17.3852C32.1287 17.2412 32.2245 17.2292 31.7814 17.4933ZM32.2125 17.7454C32.2125 17.8054 32.1646 17.8654 32.0928 17.8654C32.0329 17.8654 31.973 17.8054 31.973 17.7454C31.973 17.6734 32.0329 17.6253 32.0928 17.6253C32.1646 17.6253 32.2125 17.6734 32.2125 17.7454Z"
          fill="white"/>
    <path d="M26.5365 18.2376C26.2012 18.5017 26.1054 19.0659 26.3928 19.0659C26.4886 19.0659 26.5844 19.246 26.6204 19.4981C26.6683 19.7382 26.812 20.0623 26.9557 20.2184C27.1353 20.4105 27.1712 20.5065 27.0634 20.5065C26.9557 20.5065 26.9916 20.5906 27.1592 20.7466C27.3029 20.8907 27.4227 21.0948 27.4227 21.2268C27.4227 21.3469 27.4825 21.4669 27.5424 21.4909C27.6143 21.5149 27.6741 21.659 27.6861 21.8271C27.6981 21.9951 27.746 22.1752 27.7819 22.2472C27.8298 22.3073 27.9017 22.5594 27.9496 22.7875C27.9855 23.0276 28.1412 23.3157 28.2729 23.4357C28.4765 23.6038 28.5004 23.6758 28.3807 23.7479C28.2489 23.8319 28.2609 23.8799 28.4166 24.036C28.5244 24.156 28.5842 24.3481 28.5483 24.5282C28.5244 24.6963 28.5363 24.8283 28.5842 24.8283C28.7399 24.8283 28.68 26.545 28.5244 26.605C28.2729 26.6891 28.3687 26.9292 28.8357 27.3854C29.3626 27.9016 29.5063 27.8416 29.662 27.0972C29.6979 26.8692 29.7937 26.6531 29.8536 26.605C29.9254 26.569 29.9853 26.2449 29.9973 25.9088C30.0093 25.4406 29.9614 25.2485 29.8177 25.1524C29.638 25.0444 29.638 24.9964 29.7698 24.7203C29.8536 24.5522 29.9015 24.2761 29.8536 24.108C29.7817 23.7839 29.4464 23.1236 29.3147 23.0156C29.2548 22.9795 29.2069 22.7995 29.183 22.5954C29.1231 22.1272 28.8956 21.587 28.7399 21.587C28.6681 21.587 28.6441 21.4669 28.692 21.2868C28.8118 20.8187 28.2849 19.7862 27.9256 19.7862C27.8657 19.7862 27.8418 19.6062 27.8538 19.3901C27.8777 19.186 27.8059 18.8739 27.7101 18.7298C27.6023 18.5737 27.5544 18.4177 27.5903 18.3817C27.722 18.2496 27.3987 17.9855 27.1233 17.9855C26.9796 17.9855 26.7162 18.0935 26.5365 18.2376ZM27.0994 18.4297C27.0634 18.5137 26.9916 18.5857 26.9317 18.5857C26.8718 18.5857 26.8239 18.5137 26.8239 18.4297C26.8239 18.3336 26.8958 18.2616 26.9916 18.2616C27.0874 18.2616 27.1353 18.3336 27.0994 18.4297Z"
          fill="white"/>
</svg>
