<svg width="92" height="97" viewBox="0 0 92 97" fill="none" xmlns="http://www.w3.org/2000/svg">
    <path d="M17.3393 0.928847C17.0243 1.03384 16.5443 1.33383 16.2894 1.58882C16.0194 1.84381 15.7494 2.0538 15.6744 2.0538C15.5994 2.0538 15.3594 2.2338 15.1344 2.44379C14.7294 2.83377 14.3094 3.10376 13.7095 3.38875C13.5445 3.46375 13.2445 3.76373 13.0345 4.06372C12.8395 4.36371 12.5545 4.6037 12.4195 4.6037C12.2695 4.6037 12.1495 4.6487 12.1495 4.7087C12.1495 4.78369 11.8945 4.99369 11.5795 5.20368C10.9796 5.60866 10.4096 6.13364 10.3346 6.38863C10.3046 6.47863 10.1096 6.58362 9.91461 6.62862C9.44962 6.71862 8.71465 7.40859 8.59466 7.87357C8.54966 8.05356 8.47466 8.18856 8.42966 8.14356C8.30967 8.02357 7.4997 8.54854 7.4997 8.74354C7.4997 8.84853 7.39471 8.96853 7.25971 9.01353C7.12472 9.07352 7.04972 9.22352 7.07972 9.37351C7.13972 9.5535 7.04972 9.6285 6.79473 9.6435C6.38975 9.6735 5.69977 10.2435 5.69977 10.5585C5.69977 10.6785 5.60978 10.7985 5.48978 10.8435C5.36979 10.8885 5.30979 11.0234 5.35479 11.1434C5.39979 11.2784 5.33979 11.3534 5.17479 11.3534C4.82981 11.3534 3.86985 12.3734 4.00484 12.5984C4.06484 12.6884 4.00484 12.7184 3.85485 12.6584C3.70485 12.6134 3.59986 12.6284 3.59986 12.7034C3.59986 12.7934 3.50986 12.8534 3.41986 12.8534C3.16487 12.8534 2.09992 13.8133 2.09992 14.0233C2.09992 14.1283 1.99492 14.2033 1.85993 14.2033C1.72493 14.2033 1.45494 14.3683 1.25995 14.5783C1.06496 14.7883 0.839967 14.9533 0.74997 14.9533C0.659974 14.9533 0.524979 15.1333 0.449982 15.3433C0.329987 15.6583 0.359986 15.8383 0.569977 16.2132C0.734971 16.4682 0.929963 16.6632 1.03496 16.6482C1.28995 16.5882 1.22995 16.9032 0.974961 16.9932C0.854966 17.0532 0.74997 17.1882 0.74997 17.3082C0.74997 17.4132 0.659974 17.5032 0.569977 17.4882C0.149994 17.4432 0 17.5182 0 17.7882C0 17.9382 0.104996 18.1032 0.224991 18.1632C0.344986 18.2082 0.449982 18.3132 0.449982 18.3882C0.449982 18.5981 1.12496 19.3031 1.31995 19.3031C1.40994 19.3031 1.51494 19.4981 1.57494 19.7381C1.67993 20.2331 2.06992 20.6231 2.77489 20.9531C3.04488 21.073 3.26987 21.208 3.26987 21.253C3.34487 21.778 3.88485 22.453 4.25983 22.453C4.37983 22.453 4.51482 22.648 4.57482 22.888C4.69481 23.443 5.62478 24.4629 5.90977 24.3579C6.05976 24.2979 6.10476 24.3429 6.05976 24.4779C5.96976 24.6879 7.00472 25.8579 7.22971 25.7829C7.28971 25.7679 7.34971 25.8879 7.34971 26.0528C7.34971 26.2178 7.4247 26.3528 7.4997 26.3528C7.5897 26.3528 7.6497 26.4428 7.6497 26.5478C7.6497 26.7578 8.26467 27.4028 8.45966 27.4028C8.60966 27.4028 9.14964 28.0028 9.14964 28.1678C9.14964 28.2278 9.38963 28.4228 9.67462 28.6027C9.9596 28.7827 10.1996 29.0077 10.1996 29.0827C10.1996 29.1727 10.2896 29.3527 10.4096 29.4877C11.2046 30.3727 11.5945 30.7027 11.7745 30.7027C11.8945 30.7027 11.9995 30.8077 11.9995 30.9277C11.9995 31.0477 12.0745 31.1526 12.1495 31.1526C12.2395 31.1526 12.2995 31.2426 12.2995 31.3326C12.2995 31.4376 12.7045 31.9026 13.1995 32.3526C13.6945 32.8026 14.0994 33.2826 14.0994 33.4026C14.0994 33.7325 14.8944 34.4675 15.2844 34.4975C15.4794 34.5125 15.5994 34.6175 15.5994 34.7825C15.5994 35.1125 16.5443 36.1025 16.8593 36.1025C17.0093 36.1025 17.0993 36.2374 17.0993 36.4624C17.0993 36.9574 17.7593 37.7074 18.2993 37.8274C18.6143 37.9024 18.7493 38.0224 18.7493 38.2174C18.7493 38.3674 18.8243 38.5024 18.8992 38.5024C18.9892 38.5024 19.0492 38.6074 19.0492 38.7273C19.0492 38.9373 19.6192 39.3423 19.8292 39.2823C19.8892 39.2673 19.9792 39.5073 20.0392 39.8073C20.1442 40.3923 20.6992 41.0073 21.2242 41.1423C21.4791 41.2022 21.5391 41.3072 21.4791 41.5922C21.4491 41.8022 21.4791 41.9522 21.5841 41.9522C21.6741 41.9522 21.7491 42.0422 21.7491 42.1622C21.7491 42.2822 21.8541 42.4022 21.9741 42.4622C22.0941 42.5072 22.1541 42.6422 22.1091 42.7622C22.0491 42.9272 22.1541 43.0472 22.4241 43.1522C22.7541 43.2722 22.9341 43.2572 23.3091 43.0322C23.6541 42.8372 23.8341 42.7922 23.939 42.9122C24.254 43.2722 23.984 43.7521 23.4591 43.7521C23.2491 43.7521 23.0991 43.8421 23.0991 43.9621C23.0991 44.0671 22.9791 44.2171 22.8441 44.2621C22.3341 44.4571 21.8991 44.7271 21.8991 44.8471C21.8991 44.9221 21.7941 45.0721 21.6741 45.1921C21.4941 45.3721 21.4491 45.3721 21.4491 45.2221C21.4491 45.1171 21.3292 45.1621 21.1792 45.3571C21.0442 45.5371 20.7592 45.7171 20.5492 45.7621C20.3392 45.7921 20.1892 45.8821 20.2042 45.9721C20.2192 46.0621 20.0392 46.197 19.7992 46.287C19.5442 46.362 19.3492 46.512 19.3492 46.602C19.3492 46.692 19.2892 46.737 19.2142 46.692C19.0492 46.587 18.1493 47.067 18.1493 47.247C18.1493 47.322 18.0443 47.472 17.9243 47.592C17.7593 47.757 17.6993 47.772 17.6993 47.637C17.6993 47.532 17.5193 47.652 17.2943 47.892C17.0543 48.132 16.7693 48.327 16.6493 48.327C16.5293 48.327 16.4393 48.417 16.4693 48.522C16.4843 48.612 16.3643 48.702 16.2144 48.702C16.0494 48.702 15.8094 48.8519 15.6894 49.0319C15.5544 49.2119 15.4494 49.3019 15.4494 49.2269C15.4494 49.1519 15.2094 49.3169 14.9244 49.6019C14.6394 49.8719 14.4444 50.1569 14.4894 50.2319C14.5644 50.3369 14.4444 50.3819 14.1594 50.3369C14.0994 50.3369 13.9494 50.5019 13.7995 50.7119C13.6645 50.9369 13.4995 51.0569 13.4545 50.9969C13.3945 50.9519 13.3495 50.9819 13.3495 51.0719C13.3495 51.1769 13.2595 51.2368 13.1695 51.2069C13.0645 51.1919 12.9895 51.2818 13.0195 51.4318C13.0345 51.5818 12.9145 51.7318 12.6895 51.8068C12.2845 51.9418 10.9646 53.0218 10.2896 53.7567C10.0496 54.0267 9.76461 54.2517 9.65962 54.2517C9.56962 54.2517 9.23963 54.5217 8.93964 54.8517C8.63966 55.1817 8.33967 55.4517 8.27967 55.4517C8.11468 55.4517 7.4997 56.1117 7.4997 56.2916C7.4997 56.4566 6.89973 56.9966 6.89973 56.8316C6.89973 56.7716 6.82473 56.8466 6.73473 57.0116C6.58474 57.2366 6.65974 57.3866 7.16971 57.8966C7.72469 58.4516 7.79969 58.4816 7.88969 58.2116C8.00968 57.9116 8.66966 57.2516 9.82461 56.2766C10.7996 55.4517 11.2496 54.9717 11.1596 54.8217C11.1146 54.7617 11.2196 54.7017 11.3845 54.7017C11.5645 54.7017 11.6995 54.6267 11.6995 54.5517C11.6995 54.4617 11.7895 54.4017 11.8945 54.4017C12.0145 54.4017 12.4645 54.0417 12.9145 53.6068C13.3645 53.1868 14.0094 52.6318 14.3694 52.3918C14.9844 51.9718 15.4044 51.4618 15.3294 51.2069C15.3144 51.1469 15.4044 51.1019 15.5244 51.1019C15.7944 51.1019 16.7993 50.1869 16.7993 49.9469C16.7993 49.8569 16.9643 49.7819 17.1743 49.7819C17.3843 49.7819 17.6693 49.6919 17.8193 49.5719C17.9543 49.4519 18.1943 49.3019 18.3443 49.2569C18.4793 49.1969 18.5993 49.0619 18.5993 48.9269C18.5993 48.8069 18.6743 48.702 18.7643 48.702C18.8393 48.702 18.8842 48.642 18.8393 48.567C18.7943 48.492 18.9592 48.402 19.1992 48.342C19.7092 48.252 20.5792 47.667 20.4742 47.502C20.4292 47.442 20.5792 47.382 20.7892 47.382C21.3592 47.382 22.1841 46.887 22.3941 46.407C22.5141 46.1221 22.6641 46.0171 22.8441 46.0621C22.9791 46.0921 23.0991 46.0621 23.0991 45.9871C23.0991 45.9121 23.2041 45.8521 23.3241 45.8521C23.4591 45.8521 23.5941 45.7471 23.6391 45.6271C23.7141 45.4321 23.8041 45.4471 24.164 45.7171C24.539 45.9721 24.569 46.0621 24.434 46.317C24.314 46.572 24.329 46.662 24.554 46.827C24.704 46.932 24.779 47.082 24.719 47.127C24.659 47.187 24.704 47.427 24.839 47.667C24.959 47.907 25.034 48.132 25.019 48.177C24.989 48.207 25.094 48.372 25.229 48.537C25.409 48.7469 25.424 48.8519 25.304 48.8969C25.184 48.9419 25.244 49.0919 25.469 49.3319C25.649 49.5269 25.754 49.7519 25.694 49.7969C25.649 49.8569 25.679 49.9019 25.769 49.9019C25.859 49.9019 25.904 50.0069 25.844 50.1569C25.784 50.3219 25.799 50.3669 25.919 50.2919C26.039 50.2169 26.099 50.3219 26.114 50.6069C26.114 50.8319 26.249 51.2219 26.4139 51.4768C26.5639 51.7168 26.7589 52.0768 26.8339 52.2568C26.9239 52.4368 27.1189 52.6168 27.2989 52.6768C27.4789 52.7368 27.5839 52.8568 27.5539 52.9468C27.5239 53.0518 27.5689 53.2018 27.6589 53.3068C28.1089 53.8167 28.2739 54.0267 28.2739 54.1017C28.2739 54.1467 28.3189 54.1617 28.3789 54.1467C28.4389 54.1167 28.5739 54.2517 28.6639 54.4467C29.0088 55.1067 30.3288 56.1417 30.5988 55.9767C30.6888 55.9317 30.8088 56.0367 30.8838 56.2317C30.9738 56.4266 31.0338 56.5166 31.0338 56.4416C31.0488 56.3666 31.1538 56.3966 31.2738 56.5016C31.3938 56.6066 31.4987 56.6366 31.4987 56.5766C31.4987 56.5016 31.6337 56.6066 31.7987 56.8016C31.9637 56.9966 32.1437 57.1016 32.1887 57.0566C32.2487 56.9966 32.4737 57.0866 32.6837 57.2366C33.1337 57.5666 34.1986 58.0316 34.1986 57.8966C34.1986 57.8516 34.2886 57.8816 34.3936 57.9716C34.4986 58.0616 34.9486 58.1816 35.3986 58.2416C35.8486 58.3016 36.3136 58.4066 36.4336 58.4966C36.6585 58.6916 36.8235 58.7216 37.9935 58.8265C38.4735 58.8565 38.9835 58.9615 39.1334 59.0365C39.2834 59.1265 39.4634 59.1415 39.5234 59.0815C39.6734 58.9165 40.2584 58.9465 40.3934 59.1265C40.4684 59.2315 40.5284 59.2165 40.6184 59.1115C40.7234 58.9315 41.1584 58.9465 41.5933 59.1265C41.7433 59.1865 41.8483 59.1715 41.8483 59.0815C41.8483 58.9915 41.9683 58.9465 42.1183 58.9765C42.2533 59.0065 42.3733 59.0365 42.3733 59.0515C42.3733 59.0665 42.8233 59.0965 43.3933 59.1265C43.9483 59.1415 44.3982 59.1265 44.3982 59.0665C44.3982 59.0065 44.5332 58.9615 44.6982 58.9465C44.8632 58.9315 44.9682 58.9765 44.9232 59.0665C44.8032 59.2465 44.9532 59.2465 45.3132 59.0515C45.5082 58.9315 45.6882 58.9465 45.9132 59.0665C46.0932 59.1565 46.2732 59.1715 46.3332 59.0965C46.4382 58.9465 46.7231 58.9315 46.8731 59.0665C47.0081 59.2015 48.1781 59.0515 48.4181 58.8565C48.5381 58.7666 48.5981 58.7816 48.5981 58.9165C48.5981 59.0815 48.6281 59.0815 48.7481 58.9015C48.9581 58.5716 49.648 58.8865 49.933 59.4565C50.068 59.7265 50.293 59.9965 50.458 60.0415C50.638 60.1015 50.683 60.1765 50.563 60.2365C50.443 60.3115 50.503 60.4765 50.773 60.7615C50.983 60.9865 51.148 61.2715 51.148 61.3914C51.148 61.5114 51.208 61.5714 51.298 61.5264C51.373 61.4814 51.478 61.6314 51.538 61.8564C51.5979 62.0814 51.7179 62.3214 51.8079 62.3814C51.8979 62.4414 51.9729 62.5464 51.9729 62.6064C51.9729 62.8764 52.3929 63.7014 52.5279 63.7014C52.6029 63.7014 52.7679 63.8064 52.8879 63.9263C53.0379 64.0613 53.0529 64.1513 52.9479 64.1513C52.8429 64.1513 52.8729 64.2413 53.0079 64.3913C53.2479 64.6163 53.3079 64.7963 53.2629 65.1413C53.2479 65.2463 53.3379 65.3513 53.4729 65.4113C53.5929 65.4563 53.6979 65.6213 53.6979 65.7863C53.6979 65.9513 53.7729 66.1313 53.8479 66.1763C53.9379 66.2213 54.1328 66.5662 54.2978 66.9262C54.4628 67.2862 54.6578 67.6012 54.7328 67.6312C54.8078 67.6462 54.8978 67.7812 54.9278 67.9012C54.9578 68.0212 55.0628 68.2162 55.1678 68.3212C55.2578 68.4262 55.3478 68.6812 55.3478 68.8911C55.3478 69.1011 55.4378 69.2511 55.5578 69.2511C55.6778 69.2511 55.8128 69.4611 55.8728 69.7311C55.9928 70.3461 56.2928 71.0511 56.4278 71.0511C56.4728 71.0511 56.4878 71.1711 56.4428 71.3211C56.4128 71.471 56.5178 71.711 56.6827 71.861C56.8627 72.026 56.9977 72.236 56.9977 72.341C56.9977 72.446 57.0577 72.551 57.1477 72.581C57.2227 72.611 57.3277 72.821 57.3577 73.076C57.4027 73.496 57.7177 74.3359 57.8977 74.5009C57.9427 74.5459 58.0627 74.8459 58.1827 75.1759C58.3027 75.5059 58.5577 75.9259 58.7527 76.1209C58.9477 76.3009 59.0677 76.5258 59.0227 76.6008C58.9627 76.6908 59.0077 76.8708 59.1276 77.0058C59.2326 77.1408 59.3226 77.3658 59.3226 77.5008C59.3226 77.6358 59.4426 77.8608 59.5926 78.0108C59.7276 78.1608 59.8026 78.3408 59.7576 78.4158C59.6676 78.5808 60.0726 79.5407 60.2976 79.6757C60.3876 79.7357 60.4176 79.8407 60.3726 79.9157C60.3126 79.9907 60.3876 80.1557 60.5076 80.2907C60.6426 80.4257 60.7176 80.5907 60.6576 80.6657C60.6126 80.7407 60.7476 81.0107 60.9576 81.2657C61.1676 81.5206 61.3476 81.8206 61.3476 81.9406C61.3476 82.0756 61.4076 82.1356 61.4676 82.0906C61.5276 82.0606 61.6026 82.1656 61.6026 82.3306C61.6325 82.6006 61.6026 82.6156 61.3776 82.4206C61.0326 82.1206 60.6426 82.2406 60.5376 82.6906C60.4776 82.8856 60.3726 83.0506 60.2976 83.0506C60.2226 83.0506 59.9226 83.2906 59.6226 83.5756C59.3376 83.8756 59.0977 84.0705 59.0977 84.0255C59.0977 83.9805 58.8877 84.1455 58.6327 84.4005C58.3777 84.6405 58.0927 84.8055 58.0027 84.7455C57.9127 84.6855 57.8827 84.7455 57.9427 84.8955C58.0027 85.0605 57.8977 85.1655 57.5827 85.2855C57.3427 85.3605 57.1477 85.5105 57.1477 85.6155C57.1477 85.7205 57.1027 85.7655 57.0577 85.7055C56.9227 85.5705 55.9778 86.3205 55.8728 86.6504C55.8128 86.8304 55.6928 86.9054 55.5428 86.8454C55.4078 86.7854 55.3328 86.8154 55.3778 86.8904C55.4528 87.0104 54.7928 87.7754 54.5978 87.7754C54.5528 87.7754 54.5378 87.8204 54.5528 87.8804C54.5828 87.9404 54.4628 88.0304 54.2978 88.0754C54.1328 88.1354 53.9229 88.3004 53.8329 88.4654C53.7579 88.6304 53.6379 88.7204 53.5629 88.6904C53.4279 88.6004 52.7679 89.2753 52.5129 89.7703C52.4079 89.9503 52.2729 90.0703 52.1829 90.0253C52.1079 89.9653 52.0479 90.0253 52.0479 90.1303C52.0479 90.3703 51.508 90.8653 51.388 90.7453C51.343 90.6853 51.298 90.7753 51.298 90.9403C51.298 91.1053 51.103 91.3453 50.848 91.4953C50.608 91.6452 50.398 91.8252 50.398 91.8852C50.398 92.0502 49.963 92.5152 49.468 92.8902L49.078 93.2052L49.468 93.8202C49.693 94.1651 49.948 94.4501 50.038 94.4501C50.278 94.4501 51.6279 93.1002 51.8829 92.6202C52.0029 92.3952 52.2279 92.1552 52.3929 92.1102C52.7979 91.9752 53.3679 91.3153 53.4729 90.8053C53.5329 90.5803 53.6379 90.4303 53.7129 90.4903C53.7879 90.5353 53.9379 90.4753 54.0579 90.3703C54.1778 90.2653 54.4478 90.0403 54.6578 89.8903C54.8678 89.7403 55.0478 89.4853 55.0478 89.3353C55.0478 89.1703 55.1978 89.0353 55.4978 88.9754C55.9628 88.8704 56.8477 87.9854 56.8477 87.6104C56.8477 87.4904 56.9077 87.4304 56.9977 87.4754C57.1477 87.5654 57.8677 87.1604 58.1527 86.8004C58.2577 86.6804 58.3027 86.4855 58.2727 86.3805C58.2277 86.2455 58.2877 86.2155 58.4977 86.2755C58.6927 86.3355 58.7977 86.3055 58.7977 86.1855C58.7977 86.0805 58.8427 86.0505 58.8877 86.0955C59.0377 86.2455 59.8326 85.7205 59.9376 85.4205C59.9826 85.2705 60.0876 85.1505 60.1626 85.1505C60.2376 85.1505 60.2976 85.0455 60.2976 84.9255C60.2976 84.8055 60.3876 84.7455 60.5076 84.7905C60.6126 84.8355 60.7476 84.7605 60.7926 84.6405C60.8526 84.5055 60.9876 84.4005 61.1076 84.4005C61.2426 84.4005 61.4076 84.2655 61.4976 84.1005C61.5876 83.9356 61.7225 83.8306 61.7975 83.8756C61.8575 83.9206 61.9475 83.8756 61.9775 83.8006C62.0375 83.6056 62.6825 83.8006 62.6825 84.0255C62.6675 84.3405 62.9525 84.2355 63.4175 83.7556C63.8525 83.3056 63.8825 83.2306 63.7175 82.8556C63.6125 82.6306 63.4775 82.4506 63.4175 82.4506C63.3425 82.4506 63.2975 82.3456 63.2975 82.2256C63.2975 82.1056 63.2075 82.0006 63.1025 82.0006C62.9675 82.0006 62.8925 81.8206 62.8775 81.5506C62.8625 80.9957 62.4275 80.2307 62.0525 80.1107C61.8425 80.0507 61.7825 79.9157 61.8425 79.6607C61.8725 79.4657 61.8125 79.2257 61.7075 79.1357C61.6026 79.0457 61.5576 78.8808 61.6026 78.7608C61.6475 78.6408 61.6026 78.5508 61.5126 78.5508C61.4226 78.5508 61.3476 78.4458 61.3476 78.3258C61.3476 78.1908 61.2426 78.0558 61.1226 78.0108C60.9726 77.9508 60.9276 77.7858 60.9576 77.5608C61.0326 77.2008 60.6726 76.1509 60.4476 76.0009C60.3126 75.9109 59.3976 73.9609 59.3976 73.751C59.3976 73.661 59.3376 73.601 59.2476 73.601C59.1726 73.601 59.0977 73.436 59.0977 73.241C59.0977 73.031 58.9927 72.776 58.8727 72.641C58.7527 72.521 58.6477 72.356 58.6477 72.281C58.6477 72.191 58.5577 72.101 58.4377 72.056C58.3027 72.011 58.2577 71.831 58.3027 71.591C58.3477 71.3811 58.3177 71.2011 58.2277 71.2011C58.1527 71.2011 58.0327 71.0211 57.9577 70.7811C57.7477 70.0461 57.6127 69.7161 57.2977 69.2511C57.1477 69.0411 56.9977 68.6212 56.9377 68.3062C56.8777 67.9612 56.6527 67.5412 56.3828 67.2862C56.1428 67.0612 55.9478 66.7612 55.9478 66.6262C55.9478 66.5062 55.8728 66.4012 55.7828 66.4012C55.7078 66.4012 55.6778 66.3413 55.7228 66.2513C55.8278 66.0713 55.2128 65.2013 54.9728 65.2013C54.8528 65.2013 54.8228 65.0513 54.8678 64.8263C54.9878 64.1963 54.0878 62.7714 53.7579 63.0714C53.6979 63.1314 53.6979 63.0264 53.7429 62.8314C53.7879 62.6514 53.7579 62.5014 53.6829 62.5014C53.6079 62.5014 53.5479 62.3964 53.5479 62.2764C53.5479 61.9614 52.9329 61.2865 52.7529 61.4064C52.6629 61.4664 52.6329 61.4064 52.6929 61.2415C52.8429 60.8665 52.2429 59.6665 51.8229 59.4715C51.538 59.3515 51.448 59.1865 51.448 58.8265C51.448 58.2716 51.8829 57.9716 52.7079 57.9416C52.9929 57.9266 53.3529 57.8066 53.5029 57.6716C53.6679 57.5216 53.9079 57.4466 54.0878 57.4916C54.2978 57.5516 54.4328 57.4916 54.4928 57.3566C54.5528 57.2066 54.6878 57.1616 54.8678 57.2066C55.0328 57.2366 55.2128 57.2066 55.2578 57.1166C55.3178 57.0266 55.4678 56.9516 55.6028 56.9516C55.7378 56.9516 55.9178 56.8466 56.0078 56.7116C56.1578 56.5166 56.4278 56.4116 56.8927 56.3666C56.9677 56.3516 56.9677 56.2766 56.9227 56.2017C56.8327 56.0667 57.1327 55.9917 57.5677 56.0367C57.6577 56.0517 57.7477 55.9617 57.7477 55.8267C57.7477 55.7067 57.7927 55.6167 57.8677 55.6167C58.2877 55.6917 58.6477 55.5567 58.7227 55.3017C58.7827 55.1367 58.8877 55.0317 58.9627 55.0917C59.1426 55.1967 59.8626 54.6267 60.1026 54.2067C60.1926 54.0267 60.3576 53.8767 60.4776 53.8767C60.5826 53.8617 60.6576 53.7867 60.6426 53.6818C60.6126 53.5918 60.7926 53.3668 61.0326 53.1868C61.2726 53.0068 61.4376 52.7818 61.3926 52.6768C61.3626 52.5718 61.4676 52.4368 61.6325 52.3768C61.8125 52.3318 61.9475 52.1818 61.9475 52.0618C61.9475 51.9418 62.0525 51.8068 62.1725 51.7618C62.2925 51.7018 62.3975 51.5968 62.3975 51.4918C62.3975 51.4018 62.5025 51.1319 62.6225 50.9069C62.7425 50.6819 62.8025 50.3969 62.7575 50.2919C62.7125 50.1869 62.7725 49.9919 62.8775 49.8869C63.0575 49.6919 63.1325 49.4519 63.1775 48.8819C63.1925 48.7919 63.2375 48.702 63.2975 48.702C63.3575 48.702 63.4025 48.492 63.4175 48.237C63.4175 47.982 63.4925 47.697 63.5675 47.607C63.6575 47.502 63.7025 47.142 63.6725 46.782C63.6575 46.437 63.7025 46.1071 63.7775 46.0621C63.8525 46.0021 63.8825 45.8071 63.8375 45.6271C63.7925 45.4321 63.8075 45.1171 63.8825 44.9221C63.9875 44.6671 64.0325 44.6521 64.0325 44.8321C64.0475 44.9971 64.1674 45.1021 64.3474 45.1021C64.5124 45.1021 64.6474 45.1921 64.6474 45.3121C64.6474 45.5371 65.6074 46.452 65.8474 46.452C65.9224 46.452 65.9524 46.542 65.9074 46.662C65.8624 46.797 65.9524 46.917 66.1324 46.977C66.3124 47.022 66.4174 47.142 66.3724 47.217C66.3124 47.292 66.3424 47.352 66.4324 47.352C66.5224 47.352 66.5524 47.457 66.5074 47.577C66.4324 47.742 66.4774 47.772 66.6873 47.697C66.8673 47.637 66.9123 47.652 66.8373 47.772C66.7773 47.877 66.8073 47.952 66.8823 47.952C66.9723 47.952 67.0473 48.027 67.0473 48.117C67.0473 48.417 68.0973 49.7369 68.4123 49.8269C68.5623 49.8869 68.6673 49.9919 68.6223 50.0669C68.5623 50.1419 68.7123 50.3669 68.9223 50.5619C69.1473 50.7719 69.3272 50.9819 69.3422 51.0569C69.3572 51.1169 69.4172 51.1619 69.4772 51.1469C69.5372 51.1169 69.6422 51.2818 69.6872 51.5068C69.8072 51.9418 69.8222 51.9718 70.4222 52.6468C70.6322 52.8718 70.7972 53.1418 70.7972 53.2168C70.7972 53.3068 70.8722 53.3218 70.9472 53.2768C71.0822 53.2018 71.1722 53.4268 71.0672 53.5468C71.0372 53.5618 71.2472 53.8167 71.5172 54.1017C71.7871 54.3867 72.1471 54.7617 72.3121 54.9267C72.4621 55.1067 72.5971 55.3017 72.5971 55.3767C72.5971 55.4667 72.8671 55.8567 73.1971 56.2766C73.5271 56.6816 73.7971 57.1016 73.7971 57.2066C73.7971 57.2966 74.0071 57.5066 74.247 57.6566C74.502 57.7916 74.742 58.0466 74.787 58.2266C74.847 58.3916 75.117 58.7666 75.387 59.0515C75.672 59.3365 75.897 59.6215 75.897 59.6665C75.897 59.8615 76.677 60.7015 76.7819 60.6415C76.9319 60.5365 77.7419 61.4214 78.0569 62.0064C78.2969 62.4864 78.2969 62.5014 77.8469 62.9514C77.6069 63.2064 77.3969 63.4764 77.3969 63.5664C77.3969 63.6564 77.3369 63.6864 77.2619 63.6264C77.1869 63.5814 77.0219 63.6864 76.9019 63.8663C76.7819 64.0313 76.557 64.1963 76.407 64.2263C76.242 64.2413 76.137 64.3463 76.152 64.4363C76.197 64.6013 76.017 64.6613 75.642 64.6163C75.537 64.6013 75.447 64.6613 75.447 64.7513C75.447 64.8263 75.357 64.9013 75.237 64.9013C75.132 64.9013 74.787 65.1413 74.487 65.4263C74.1721 65.7113 73.8721 65.9213 73.8121 65.8763C73.7371 65.8463 73.5421 65.9513 73.3771 66.1013C73.1971 66.2663 72.8821 66.4762 72.6721 66.5512C72.4471 66.6412 72.3121 66.7612 72.3721 66.8362C72.4171 66.9112 72.2971 67.0312 72.1171 67.0912C71.9221 67.1512 71.7271 67.2712 71.6672 67.3612C71.6072 67.4512 71.5022 67.5262 71.4422 67.5262C71.1872 67.5262 70.3622 68.2162 70.2722 68.5012C70.2122 68.6662 70.0922 68.8012 69.9872 68.8012C69.8822 68.8012 69.7172 68.9661 69.6272 69.1611C69.4922 69.4761 69.5372 69.5811 70.0322 70.0611C70.5572 70.5861 70.6022 70.6011 70.8272 70.3461C70.9622 70.1961 71.1122 69.8961 71.1722 69.6711C71.2472 69.4161 71.3522 69.2961 71.4872 69.3561C71.6072 69.4011 71.6971 69.3561 71.6971 69.2661C71.6971 69.1761 71.8021 69.1011 71.9221 69.1011C72.0571 69.1011 72.1921 68.9961 72.2371 68.8761C72.2971 68.7562 72.3871 68.6812 72.4621 68.7262C72.6121 68.8312 72.9271 68.2762 72.7921 68.1412C72.7471 68.0962 72.8821 68.0512 73.1071 68.0512C73.5421 68.0512 74.832 67.1962 74.847 66.8962C74.847 66.8062 74.982 66.7612 75.147 66.8062C75.312 66.8512 75.447 66.8062 75.447 66.7162C75.447 66.6262 75.522 66.5512 75.597 66.5512C75.777 66.5512 76.347 66.0113 76.347 65.8313C76.347 65.7713 76.542 65.7113 76.7819 65.6963C77.4569 65.6513 78.2669 65.0963 78.3719 64.5863C78.4319 64.3463 78.5219 64.1813 78.5969 64.2263C78.6719 64.2713 78.8219 64.1963 78.9419 64.0763C79.0769 63.9563 79.2418 63.8513 79.3168 63.8513C79.3918 63.8513 79.4968 63.7164 79.5418 63.5364C79.5868 63.3564 79.6918 63.2664 79.7818 63.3114C80.0668 63.4914 80.2468 62.8764 80.0218 62.4564C79.9018 62.2164 79.8718 62.0214 79.9618 61.9764C80.2168 61.8114 80.1118 61.4814 79.8268 61.5564C79.6468 61.6014 79.5418 61.5414 79.5418 61.3914C79.5418 61.0465 78.8669 60.1165 78.5369 60.0115C78.2219 59.9065 76.9469 58.6166 76.9469 58.3916C76.9469 58.3166 76.8569 58.1516 76.7369 58.0166C76.017 57.2366 75.567 56.8016 75.462 56.8016C75.342 56.8016 75.147 56.3816 75.087 56.0067C75.087 55.9317 74.967 55.7967 74.847 55.7067C74.727 55.6017 74.487 55.3167 74.337 55.0767C74.1721 54.8217 73.8871 54.5067 73.7071 54.3567C73.5121 54.2217 73.3471 53.9517 73.3171 53.7717C73.2871 53.5918 72.9871 53.2318 72.6421 52.9768C72.2371 52.6918 72.0121 52.4068 72.0121 52.1818C71.9971 52.0018 71.9371 51.8518 71.8471 51.8518C71.7721 51.8518 71.6971 51.7918 71.6971 51.7018C71.6971 51.4468 71.0522 50.7869 70.8722 50.8619C70.7672 50.8919 70.6922 50.7569 70.6922 50.5169C70.6922 50.0069 70.1222 49.2119 69.5822 48.9719C69.3422 48.8669 69.1173 48.627 69.0723 48.417C68.9673 48.012 68.4123 47.352 68.1723 47.352C68.0823 47.352 67.9923 47.172 67.9773 46.947C67.9323 46.422 67.2723 45.5821 66.8223 45.4621C66.5824 45.4021 66.4474 45.2671 66.4474 45.0871C66.4474 44.9371 66.3724 44.8021 66.2674 44.8021C65.9374 44.8021 66.4924 44.3671 66.9423 44.2921C67.1673 44.2621 67.4523 44.1121 67.5873 43.9921C67.7223 43.8571 67.8873 43.7821 67.9623 43.8271C68.0373 43.8871 68.1873 43.8721 68.2923 43.7971C68.3823 43.7371 68.6373 43.6622 68.8473 43.6622C69.7022 43.6022 69.6872 43.6172 69.4472 43.4522C69.2522 43.3322 69.2672 43.3022 69.5222 43.2872C69.8372 43.2722 70.0322 43.2272 70.2422 43.1522C70.3022 43.1372 70.3922 43.1072 70.4672 43.0772C71.2922 42.8522 71.5022 42.7772 71.6821 42.5972C71.7871 42.4772 71.9821 42.4172 72.1171 42.4772C72.2371 42.5222 72.4621 42.4472 72.5971 42.3272C72.7471 42.1922 73.0021 42.0722 73.1821 42.0572C73.3471 42.0422 73.4971 41.9522 73.4971 41.8622C73.4971 41.7572 73.6621 41.6972 73.8721 41.7122C74.0821 41.7422 74.322 41.6672 74.412 41.5622C74.502 41.4422 74.637 41.3972 74.712 41.4272C74.907 41.5472 76.002 40.9473 76.107 40.6623C76.152 40.5273 76.287 40.4523 76.422 40.5123C76.542 40.5573 76.647 40.5273 76.647 40.4523C76.647 40.3773 76.8869 40.2723 77.1719 40.2123C77.4569 40.1673 77.6519 40.0623 77.6069 39.9873C77.5619 39.9123 77.6369 39.8523 77.7569 39.8523C77.8919 39.8523 77.9969 39.7773 77.9969 39.6873C77.9969 39.5973 78.1019 39.5523 78.2219 39.6123C78.4769 39.7023 79.4968 39.1623 79.4968 38.9223C79.4968 38.8473 79.5568 38.8323 79.6468 38.8773C79.7968 38.9673 80.6368 38.5774 80.9668 38.2624C81.0718 38.1424 81.2668 38.0524 81.4018 38.0524C81.5368 38.0524 81.9717 37.8424 82.3767 37.6024C82.7667 37.3474 83.1417 37.1524 83.1867 37.1524C83.2767 37.1524 83.4117 37.0474 84.1317 36.4174C84.4016 36.1774 84.7316 36.0125 84.8366 36.0575C84.9566 36.1025 85.0466 36.0425 85.0466 35.9075C85.0466 35.6825 85.4816 35.4575 85.9466 35.4425C86.0666 35.4275 86.1566 35.3375 86.1416 35.2325C86.1116 35.1275 86.2466 35.0525 86.4716 35.0525C86.6816 35.0525 86.8465 34.9925 86.8465 34.9325C86.8465 34.8575 87.1465 34.6625 87.5065 34.4825C87.8665 34.3025 88.2415 34.0475 88.3465 33.9275C88.4515 33.8075 88.5865 33.7475 88.6615 33.7925C88.7365 33.8375 88.9615 33.7025 89.1715 33.4926C89.3814 33.2826 89.6514 33.1476 89.7714 33.1926C89.9064 33.2526 89.9964 33.1926 89.9964 33.0426C89.9964 32.8926 90.1314 32.8026 90.3564 32.8026C90.5514 32.8026 90.7914 32.6976 90.8964 32.5776C91.0014 32.4576 91.1814 32.3526 91.2864 32.3526C91.4064 32.3526 91.4964 32.2776 91.4964 32.2026C91.4964 32.1126 91.6314 31.9926 91.7964 31.9326C92.0813 31.8276 92.0813 31.8126 91.7064 31.2426C91.4064 30.8077 91.3614 30.6427 91.4964 30.5527C91.6164 30.4777 91.6314 30.3577 91.5564 30.2377C91.4814 30.1177 91.4214 29.7877 91.4064 29.5027C91.3614 28.7527 91.2414 28.3028 90.9714 28.0028C90.8514 27.8678 90.7764 27.7178 90.8214 27.6728C90.8664 27.6278 90.8064 27.3728 90.6864 27.0878C90.5814 26.8028 90.5214 26.4878 90.5664 26.3678C90.6114 26.2328 90.5664 26.2028 90.4614 26.2628C90.3414 26.3378 90.2964 26.2328 90.2964 25.9479C90.3264 25.3029 90.2064 24.7329 89.9964 24.4779C89.8914 24.3579 89.8614 24.2529 89.9364 24.2529C90.0114 24.2529 89.9364 24.1479 89.7864 24.0279C89.6214 23.9079 89.4864 23.6829 89.4714 23.5479C89.4714 23.398 89.3964 23.173 89.3364 23.068C89.2615 22.948 89.2015 22.663 89.2165 22.423C89.2165 22.198 89.1565 22.033 89.0815 22.078C89.0065 22.138 88.9465 21.973 88.9465 21.718C88.9465 21.478 88.8865 21.238 88.8115 21.193C88.7515 21.148 88.6315 20.8931 88.5715 20.6231C88.4215 19.9631 88.4365 20.0231 88.2115 19.6181C88.0615 19.3331 88.0615 19.2881 88.2115 19.3931C88.3165 19.4531 88.2565 19.2731 88.0915 18.9881C87.9265 18.7031 87.8065 18.3282 87.8365 18.1332C87.8665 17.9382 87.8365 17.8182 87.7615 17.8782C87.6715 17.9232 87.5665 17.7132 87.5215 17.3982C87.4015 16.6632 87.1315 15.9583 86.9365 15.8233C86.8315 15.7483 86.8315 15.7033 86.9515 15.7033C87.1015 15.7033 87.1015 15.6133 86.9815 15.3583C86.8315 15.0283 86.7865 15.0133 86.1416 15.1633C85.3916 15.3283 85.2266 15.5533 85.4816 16.0632C85.5866 16.2432 85.6466 16.4532 85.6316 16.5432C85.6016 16.6782 85.6916 16.9932 86.0216 17.7282C86.1416 17.9682 86.1866 18.2232 86.1566 18.2832C86.0366 18.4782 86.4116 19.5131 86.7116 19.7681C86.8765 19.9031 86.9515 20.1281 86.9065 20.2931C86.8615 20.4581 86.9065 20.7881 87.0115 21.028C87.1165 21.283 87.1915 21.523 87.1765 21.583C87.1615 21.658 87.2815 21.778 87.4315 21.883C87.5815 21.973 87.6865 22.153 87.6415 22.258C87.4915 22.648 87.7615 23.7429 88.0915 24.1029C88.2715 24.3129 88.4365 24.6729 88.4515 24.9279C88.4665 25.1679 88.5565 25.3929 88.6465 25.4229C88.7215 25.4529 88.7965 25.6029 88.7965 25.7679C88.7965 25.9179 88.8415 26.0528 88.9165 26.0528C88.9765 26.0528 89.0215 26.4128 89.0215 26.8628C89.0215 27.4478 89.0965 27.7628 89.3064 27.9878C89.4714 28.1678 89.5314 28.3028 89.4564 28.3028C89.3814 28.3028 89.4264 28.3778 89.5614 28.4528C89.7414 28.5578 89.7864 28.7527 89.7414 29.1277C89.7114 29.4127 89.7564 29.6527 89.8164 29.6527C89.8914 29.6527 89.9214 29.8177 89.8914 30.0127C89.8314 30.2677 89.9064 30.4327 90.1164 30.5677C90.4314 30.7627 90.4014 31.1526 90.0564 31.1526C89.9364 31.1526 89.8464 31.2726 89.8464 31.4376C89.8464 31.6476 89.7564 31.7076 89.4114 31.6626C88.9615 31.6026 87.7465 32.3376 87.7465 32.6676C87.7465 32.7576 87.6115 32.8026 87.4465 32.7576C87.2965 32.7126 87.1465 32.7426 87.1165 32.8326C87.0865 32.9076 86.9665 32.9826 86.8465 33.0126C86.4866 33.0576 85.9466 33.4626 85.9466 33.6575C85.9466 33.7775 85.7516 33.8525 85.4366 33.8525C85.0616 33.8525 84.7616 34.0025 84.2517 34.4525C83.8767 34.7825 83.4717 35.0525 83.3367 35.0525C83.2017 35.0525 83.0517 35.1575 83.0067 35.2775C82.9467 35.3975 82.8567 35.5025 82.7667 35.5025C82.6917 35.5025 82.5267 35.6075 82.3917 35.7275C82.2717 35.8475 82.1067 35.9225 82.0317 35.8625C81.9567 35.8175 81.8517 35.8775 81.8067 36.0125C81.7617 36.1324 81.5218 36.2824 81.2818 36.3274C81.0418 36.3874 80.8468 36.4774 80.8468 36.5524C80.8468 36.6274 80.7118 36.7324 80.5468 36.7774C80.3818 36.8224 80.2468 36.9574 80.2468 37.0474C80.2468 37.1524 80.0068 37.2424 79.6918 37.2574C79.3768 37.2724 79.1069 37.3624 79.0769 37.4524C79.0169 37.6174 78.4619 37.9024 78.0419 37.9924C77.9369 38.0074 77.7419 38.1274 77.6069 38.2624C77.3819 38.5024 77.2019 38.5624 76.8419 38.5174C76.7519 38.5024 76.632 38.5624 76.572 38.6523C76.527 38.7273 76.347 38.8023 76.197 38.8023C76.047 38.8023 75.762 38.9973 75.567 39.2223C75.372 39.4623 75.132 39.6273 75.027 39.5823C74.922 39.5523 74.847 39.5973 74.847 39.6873C74.847 39.7773 74.757 39.8073 74.637 39.7623C74.517 39.7173 74.382 39.7473 74.322 39.8373C74.277 39.9273 74.0971 40.0023 73.9471 40.0023C73.7971 40.0023 73.6321 40.1223 73.5721 40.2873C73.5121 40.4823 73.3771 40.5423 73.0771 40.5123C72.6571 40.4523 71.3972 40.9923 71.3972 41.2322C71.3972 41.3072 71.2322 41.3222 71.0372 41.2622C70.8422 41.2172 70.6322 41.2472 70.5722 41.3372C70.5272 41.4272 70.4072 41.4722 70.3322 41.4272C70.2122 41.3372 70.0172 41.4572 69.5672 41.8922C69.4622 41.9822 69.2372 42.0272 69.0723 41.9822C68.6523 41.9072 67.4973 42.2222 67.4973 42.4172C67.4973 42.5072 67.4373 42.5222 67.3473 42.4772C67.2723 42.4322 67.1973 42.4922 67.1973 42.6272C67.1973 42.8072 67.1373 42.8372 66.9123 42.7022C66.7323 42.6122 66.5824 42.6122 66.5374 42.6872C66.4924 42.7622 66.3124 42.7922 66.1474 42.7472C65.9674 42.7022 65.8474 42.7472 65.8474 42.8522C65.8474 42.9572 65.7424 43.0022 65.6074 42.9422C65.3524 42.8522 64.7974 43.2272 64.7974 43.4822C64.7974 43.6622 64.0175 44.3221 63.8225 44.2921C63.6575 44.2771 63.5675 43.9021 63.7325 43.9021C63.7925 43.9021 63.8375 43.5572 63.8525 43.1522C63.8525 42.7322 63.7925 42.4022 63.7175 42.4022C63.6425 42.4022 63.6275 42.3272 63.6875 42.2222C63.8225 42.0122 63.7775 40.8723 63.6275 40.7523C63.5075 40.6623 63.4175 40.3623 63.3725 39.9273C63.3575 39.7623 63.2825 39.4623 63.1925 39.2523C63.1025 39.0423 63.0575 38.8323 63.1025 38.7573C63.1325 38.6973 63.0575 38.5474 62.9375 38.4274C62.8175 38.2924 62.7425 38.0974 62.7875 37.9924C62.8775 37.7524 62.2025 36.2224 61.8875 35.9525C61.7525 35.8475 61.6925 35.7125 61.7375 35.6225C61.7825 35.5475 61.6925 35.3675 61.5276 35.2325C61.3776 35.0975 61.1976 34.8275 61.1376 34.6475C61.0776 34.4825 60.9426 34.2875 60.8226 34.2425C60.7026 34.1975 60.5976 34.0625 60.5976 33.9575C60.5976 33.7625 59.3076 32.4426 59.0677 32.4126C59.0077 32.3976 58.8427 32.3826 58.7227 32.3676C58.6027 32.3676 58.4977 32.2476 58.4977 32.1276C58.4977 32.0076 58.3927 31.9026 58.2727 31.9026C58.1527 31.9026 57.9127 31.7676 57.7327 31.5876C57.5677 31.4226 57.3277 31.3176 57.2227 31.3626C57.1027 31.4076 56.8927 31.3326 56.7577 31.1826C56.4128 30.8377 55.7828 30.5227 55.5728 30.5977C55.4828 30.6427 55.2728 30.5527 55.0928 30.4027C54.7778 30.1627 54.7778 30.1177 54.9878 29.4877C55.3028 28.5877 55.6778 27.8228 55.9028 27.5828C56.2028 27.2828 56.1428 26.8778 55.7078 26.3678C55.4528 26.0528 55.1828 25.9029 54.9128 25.9029C54.4628 25.9029 54.3878 26.0079 53.8329 27.4028C53.6679 27.8528 53.3529 28.5278 53.1579 28.9027C52.8279 29.5477 52.7829 29.5777 52.1379 29.5777C51.7629 29.5777 51.448 29.5327 51.448 29.4727C51.448 29.3977 51.298 29.3827 51.103 29.4277C50.923 29.4877 50.563 29.4427 50.323 29.3527C50.008 29.2327 49.873 29.2327 49.798 29.3527C49.663 29.5777 49.483 29.5777 49.348 29.3677C49.303 29.2777 48.9881 29.1727 48.6581 29.1427C48.3431 29.0977 48.0431 29.0677 48.0131 29.0677C47.9831 29.0527 48.0281 28.9627 48.1181 28.8577C48.2831 28.6777 48.0281 28.1528 47.7731 28.1528C47.6981 28.1528 47.5331 28.0628 47.4131 27.9578C47.0981 27.6878 45.9282 27.3278 45.7932 27.4478C45.7482 27.5078 45.5532 27.4628 45.3582 27.3428C45.1782 27.2228 44.9832 27.1628 44.9382 27.2078C44.7732 27.3728 44.3382 27.3878 44.1732 27.2528C44.0832 27.1778 43.8733 27.1478 43.7233 27.1628C43.5583 27.1928 43.3483 27.1478 43.2433 27.0728C43.1383 26.9828 42.9583 26.9978 42.7633 27.1028C42.5533 27.2078 42.4483 27.2078 42.4483 27.1178C42.4483 26.9228 41.2034 27.0728 41.1284 27.2678C41.0534 27.4478 40.6484 27.4328 40.6484 27.2528C40.6484 27.1628 40.4984 27.1778 40.2434 27.2678C40.0034 27.3578 39.6434 27.4328 39.4034 27.4328C39.1784 27.4328 39.0284 27.4778 39.0734 27.5528C39.1184 27.6128 38.8185 27.6728 38.4135 27.6728C37.6785 27.6878 37.5285 27.5828 37.4085 26.9678C37.3935 26.8478 37.2885 26.6978 37.1685 26.6378C37.0635 26.5778 37.0335 26.4728 37.0935 26.4128C37.2285 26.2778 36.7635 25.7529 36.5085 25.7529C36.4036 25.7529 36.3436 25.6629 36.3886 25.5429C36.5235 25.2129 35.8786 24.7329 35.3086 24.7329C34.6786 24.7329 34.3936 25.1229 34.6486 25.6179C34.7536 25.7829 34.7836 25.9629 34.7536 26.0079C34.7086 26.0379 34.8286 26.4428 35.0236 26.8778C35.2786 27.4478 35.3386 27.7028 35.2036 27.7478C35.0686 27.7928 35.0686 27.8678 35.2186 28.0478C35.4736 28.3478 35.3086 28.9627 35.0236 28.8427C34.9036 28.7977 34.7986 28.8427 34.7686 28.9327C34.7236 29.0377 34.4986 29.1277 34.2436 29.1427C33.7487 29.1727 32.8487 29.6227 32.8487 29.8477C32.8487 29.9077 32.7887 29.9227 32.6987 29.8777C32.5487 29.7877 31.7087 30.1777 31.3788 30.4927C31.2738 30.6127 31.0188 30.7027 30.8388 30.7027C30.6438 30.7027 30.4038 30.8077 30.2988 30.9277C30.1938 31.0477 30.0288 31.1526 29.9088 31.1526C29.8038 31.1526 29.6088 31.2576 29.4888 31.3926C29.3538 31.5276 29.2488 31.5576 29.2488 31.4526C29.2488 31.3626 29.1888 31.3326 29.0988 31.3776C29.0238 31.4226 28.9488 31.3926 28.9488 31.3176C28.9488 31.2276 28.8589 31.1526 28.7689 31.1526C28.6639 31.1526 28.4089 30.9127 28.1989 30.6277C27.9889 30.3427 27.7639 30.1027 27.7039 30.1027C27.5539 30.1027 27.0889 29.6527 27.2239 29.6527C27.2839 29.6527 27.1189 29.4577 26.8639 29.2177C26.5939 28.9627 26.369 28.7077 26.354 28.6477C26.339 28.5877 26.279 28.5428 26.219 28.5578C26.159 28.5877 26.039 28.3778 25.949 28.1078C25.739 27.4928 25.079 26.7278 24.629 26.5778C24.404 26.5178 24.314 26.3978 24.359 26.2628C24.404 26.1428 24.389 26.0528 24.314 26.0528C24.164 26.0528 23.5341 25.5129 23.5041 25.3479C23.4891 25.2879 23.4291 25.2429 23.3691 25.2579C23.3091 25.2879 23.2191 25.1379 23.1591 24.9279C23.1141 24.7179 23.0091 24.5529 22.9341 24.5529C22.8591 24.5529 22.7541 24.4479 22.7091 24.3279C22.6041 24.0729 21.7491 23.113 21.7491 23.263C21.7491 23.323 21.6591 23.278 21.5391 23.173C21.4191 23.068 21.3592 22.933 21.3891 22.888C21.4191 22.843 21.2692 22.708 21.0742 22.603C20.8642 22.498 20.6692 22.288 20.6092 22.123C20.5642 21.973 20.3992 21.778 20.2342 21.703C20.0842 21.613 19.9492 21.448 19.9492 21.343C19.9492 21.223 19.7092 20.9231 19.4242 20.6681C19.1242 20.4131 18.9592 20.2031 19.0342 20.2031C19.1242 20.2031 19.1542 20.0981 19.1092 19.9781C19.0492 19.8281 19.1092 19.7531 19.2892 19.7531C19.5892 19.7531 20.2792 19.1081 20.4442 18.6581C20.5042 18.5081 20.6092 18.4182 20.6842 18.4782C20.7592 18.5231 20.9242 18.4332 21.0292 18.2832C21.1342 18.1332 21.3891 17.8932 21.5991 17.7582C21.7941 17.6232 21.9141 17.5032 21.8541 17.5032C21.7941 17.5032 21.8241 17.4132 21.9291 17.2932C22.0341 17.1882 22.2141 17.1282 22.3041 17.1582C22.4091 17.2032 22.4991 17.1732 22.4991 17.0832C22.4991 17.0082 22.6191 16.9032 22.7691 16.8432C23.1591 16.7232 23.5941 16.4082 23.8191 16.1082C23.924 15.9732 24.089 15.8833 24.164 15.9433C24.254 15.9882 24.434 15.8833 24.584 15.7183C24.734 15.5383 25.004 15.4033 25.184 15.4033C25.364 15.4033 25.469 15.3433 25.424 15.2533C25.379 15.1633 25.469 15.1033 25.649 15.1033C25.814 15.1033 26.069 15.0433 26.219 14.9683C26.354 14.8933 26.7589 14.7133 27.1039 14.5783C27.4489 14.4283 27.7639 14.2183 27.8089 14.0983C27.8539 13.9783 27.9739 13.9333 28.0639 13.9783C28.1389 14.0383 28.3489 13.9633 28.5139 13.8133C28.6639 13.6783 28.7989 13.6183 28.7989 13.6933C28.7989 13.7683 28.8739 13.7233 28.9488 13.6033C29.0238 13.4833 29.1588 13.3784 29.2488 13.3784C29.3238 13.3784 29.3838 13.3334 29.3688 13.2734C29.3088 13.1084 29.8938 12.7184 30.1938 12.7034C30.5538 12.7034 30.5088 12.4184 30.0738 11.7584C29.6238 11.1134 29.3688 11.0684 29.0388 11.5784C28.9039 11.7884 28.6789 11.9534 28.5439 11.9534C28.3339 11.9534 27.3439 12.5984 27.1489 12.8684C27.1039 12.9284 26.8189 13.0184 26.5039 13.0784C26.204 13.1384 25.949 13.2434 25.949 13.3334C25.949 13.4084 25.829 13.4533 25.694 13.4234C25.529 13.3934 25.409 13.5133 25.349 13.7533C25.289 14.0083 25.229 14.0683 25.139 13.9333C24.929 13.5883 23.5491 14.1733 23.3091 14.6983C23.2191 14.9083 22.9641 15.0583 22.5891 15.1333C22.0341 15.2533 21.3142 15.8983 21.4191 16.2132C21.4491 16.2732 21.3592 16.3032 21.2392 16.2582C20.8792 16.1232 19.6792 17.0082 19.5742 17.5032C19.5142 17.8032 19.4092 17.9082 19.2592 17.8482C19.1392 17.8032 19.0492 17.8482 19.0492 17.9382C19.0492 18.0282 18.9442 18.1032 18.8243 18.1032C18.7043 18.1032 18.5993 18.1632 18.5993 18.2382C18.5993 18.3132 18.3893 18.4182 18.1343 18.4782C17.6843 18.5831 16.4993 19.5131 16.4993 19.7531C16.4993 19.8281 16.6343 19.9331 16.7993 19.9781C16.9643 20.0231 17.0993 20.1731 17.0993 20.2781C17.0993 20.3981 17.2793 20.6981 17.5193 20.9381C17.7443 21.193 18.0893 21.598 18.2843 21.838C18.4943 22.093 18.7793 22.333 18.9292 22.393C19.0792 22.438 19.1992 22.603 19.1992 22.753C19.1992 23.098 19.9042 23.9529 20.1892 23.9529C20.3092 23.9529 20.3992 24.0129 20.3992 24.1029C20.3992 24.1779 20.5042 24.2079 20.6242 24.1629C20.7742 24.1029 20.8492 24.1629 20.8492 24.3879C20.8492 24.5679 20.9242 24.7029 20.9992 24.7029C21.0892 24.7029 21.1492 24.7779 21.1492 24.8679C21.1492 25.1079 21.8841 25.7829 22.0491 25.6779C22.1091 25.6329 22.2141 25.8429 22.2591 26.1278C22.3641 26.6378 23.2491 27.5528 23.6541 27.5528C23.7591 27.5528 23.8491 27.6428 23.8491 27.7328C23.8491 28.0028 24.644 28.9027 24.884 28.9027C25.004 28.9027 25.049 29.0077 25.004 29.2027C24.959 29.3677 24.989 29.5027 25.064 29.5027C25.139 29.5027 25.199 29.5927 25.199 29.7127C25.199 29.9377 26.159 30.8527 26.399 30.8527C26.4889 30.8527 26.5489 30.9427 26.5489 31.0477C26.5489 31.1676 26.7889 31.4976 27.0739 31.7976C27.3739 32.1126 27.5689 32.3526 27.5239 32.3526C27.4789 32.3526 27.5239 32.5026 27.6139 32.6826C27.7039 32.8776 27.7339 32.9826 27.6739 32.9226C27.5239 32.7726 27.1189 33.0876 27.2239 33.2676C27.3139 33.3876 26.7139 33.7925 26.5189 33.7325C26.4439 33.7175 26.399 33.8375 26.399 34.0025C26.399 34.1825 26.249 34.3625 26.039 34.4525C25.844 34.5275 25.634 34.7225 25.574 34.8875C25.529 35.0675 25.409 35.2025 25.334 35.2025C25.259 35.2025 25.199 35.3675 25.199 35.5775C25.199 35.7875 25.124 35.9525 25.034 35.9525C24.944 35.9525 24.884 36.1025 24.899 36.2824C24.944 36.8224 24.914 37.0324 24.779 36.9424C24.704 36.8974 24.644 37.0624 24.629 37.3024C24.629 37.5424 24.554 37.8574 24.464 38.0224C24.389 38.1724 24.344 38.4274 24.359 38.5924C24.389 38.7423 24.344 38.9223 24.284 38.9673C24.209 39.0123 24.134 39.5823 24.119 40.2423C24.089 40.8873 24.014 41.4722 23.924 41.5322C23.8191 41.6072 23.8191 41.6972 23.924 41.7572C24.104 41.8922 24.164 42.7322 23.984 42.6122C23.924 42.5822 23.894 42.4472 23.939 42.3272C23.999 42.1772 23.894 42.0572 23.6241 41.9522C23.4141 41.8772 23.2791 41.7422 23.3241 41.6522C23.3691 41.5772 23.2491 41.3372 23.0541 41.1423C22.8441 40.9323 22.7241 40.7373 22.7691 40.6923C22.8141 40.6473 22.7391 40.6023 22.6041 40.6023C22.3791 40.6023 22.2741 40.4373 22.3341 40.1073C22.3491 40.0473 22.1841 39.9123 21.9741 39.8223C21.7641 39.7323 21.5541 39.4923 21.5091 39.2973C21.4491 39.1173 21.3592 38.9823 21.2992 39.0273C21.2392 39.0723 21.1042 38.8923 21.0142 38.6523C20.9392 38.3974 20.7892 38.2024 20.7142 38.2024C20.6242 38.2024 20.5492 38.1124 20.5492 38.0074C20.5492 37.8274 19.7692 37.0024 19.7392 37.1524C19.7242 37.1974 19.6042 37.1224 19.4692 37.0024C19.3342 36.8824 19.2592 36.7324 19.3042 36.6724C19.3342 36.5974 19.1992 36.4774 18.9892 36.3724C18.7643 36.2824 18.5993 36.0725 18.5993 35.9225C18.5993 35.7575 18.5393 35.6825 18.4493 35.7275C18.3743 35.7725 18.2993 35.7575 18.2993 35.6675C18.2993 35.5775 17.8493 35.0525 17.2943 34.4975C16.7393 33.9425 16.3044 33.4326 16.3194 33.3576C16.3344 33.2976 16.1844 33.1776 15.9744 33.0726C15.7794 32.9826 15.5694 32.7876 15.5244 32.6226C15.4644 32.4726 15.3594 32.3526 15.2844 32.3526C15.1944 32.3526 15.0444 32.1276 14.9244 31.8426C14.8044 31.5576 14.5644 31.2876 14.3994 31.2276C14.2344 31.1826 14.0994 31.0627 14.0994 30.9877C14.0994 30.9127 13.9944 30.8527 13.8744 30.8527C13.7545 30.8527 13.6945 30.7627 13.7395 30.6577C13.7695 30.5527 13.4695 30.2227 13.0495 29.8927C12.6445 29.5777 12.2995 29.2327 12.2995 29.1427C12.2995 28.8727 11.3245 27.9728 11.1746 28.1078C11.1146 28.1828 11.0996 28.1528 11.1446 28.0628C11.2646 27.8528 10.5746 27.1028 10.0046 26.8028C9.71961 26.6678 9.64462 26.5628 9.77961 26.4878C9.89961 26.4128 9.83961 26.3228 9.56962 26.2028C9.35963 26.0978 9.10464 25.8579 9.01464 25.6629C8.90965 25.4379 8.77465 25.3329 8.62466 25.3929C8.42966 25.4679 8.33967 25.3179 8.36967 24.9879C8.38467 24.9429 8.15968 24.6579 7.88969 24.3579C7.6197 24.0579 7.4247 23.7729 7.4697 23.7279C7.5147 23.6829 7.33471 23.5779 7.06472 23.488C6.74973 23.383 6.61474 23.248 6.65974 23.113C6.70473 22.993 6.67473 22.903 6.61474 22.903C6.53974 22.903 6.32975 22.663 6.14976 22.378C5.96976 22.093 5.75977 21.883 5.68477 21.943C5.60978 21.988 5.54978 21.958 5.54978 21.868C5.54978 21.628 4.33483 20.2931 4.00484 20.1581C3.83985 20.0981 3.74985 19.9631 3.80985 19.8281C3.85485 19.6931 3.80985 19.6031 3.68985 19.6031C3.43486 19.6031 2.84989 19.0931 2.84989 18.8681C2.84989 18.7631 2.78989 18.7331 2.69989 18.7781C2.6249 18.8231 2.5199 18.6881 2.4599 18.4782C2.4149 18.2682 2.30991 18.1032 2.24991 18.1032C2.18991 18.1032 2.09992 17.9682 2.05492 17.8032C2.00992 17.6382 1.87493 17.5032 1.75493 17.5032C1.60494 17.5032 1.55994 17.3832 1.60494 17.0832C1.73993 16.2132 1.81493 16.0032 1.99492 16.0032C2.24991 15.9882 2.92488 15.3733 3.04488 15.0433C3.10488 14.8783 3.19487 14.8033 3.25487 14.8483C3.29987 14.9083 3.44986 14.8333 3.58486 14.6833C3.71985 14.5333 4.01984 14.3383 4.24483 14.2333C4.46982 14.1283 4.63482 13.9933 4.58982 13.9333C4.54482 13.8583 4.69481 13.6783 4.9198 13.5133C5.51978 13.0934 6.44974 12.1334 6.44974 11.9684C6.44974 11.8784 6.53974 11.8484 6.65974 11.8934C6.77973 11.9384 6.89973 11.8334 6.95972 11.5934C7.00472 11.3984 7.18471 11.1734 7.34971 11.1284C7.5147 11.0834 7.6497 10.9334 7.6497 10.8135C7.6497 10.6935 7.81469 10.5135 8.02468 10.4235C8.23467 10.3335 8.39967 10.1535 8.39967 10.0485C8.39967 9.92849 8.45966 9.86849 8.51966 9.91349C8.66966 10.0035 9.59962 9.01353 9.59962 8.77354C9.59962 8.68354 9.70461 8.65354 9.80961 8.69854C9.9446 8.75854 10.0646 8.66854 10.1246 8.50355C10.1846 8.33855 10.3796 8.15856 10.5896 8.11356C10.7846 8.06856 10.9196 7.97857 10.8746 7.91857C10.7996 7.79857 11.3245 7.30359 11.5345 7.30359C11.6095 7.30359 11.8195 7.1086 12.0145 6.86861C12.2095 6.62862 12.4195 6.46363 12.4945 6.50863C12.5695 6.55362 12.9145 6.29863 13.2595 5.93865C13.9044 5.24868 14.5794 4.7237 15.0444 4.5587C15.1794 4.5137 15.2994 4.39371 15.2994 4.30371C15.2994 4.22872 15.3894 4.15372 15.5094 4.15372C15.6144 4.15372 16.0044 3.86873 16.3643 3.52374C16.7243 3.16376 17.1143 2.89377 17.2193 2.92377C17.3093 2.95377 17.3993 2.89377 17.3993 2.81877C17.3993 2.68378 17.8793 2.45879 18.1943 2.42879C18.2543 2.42879 18.3143 2.35379 18.3293 2.27879C18.3293 2.1888 18.4343 2.0538 18.5543 1.97881C18.7193 1.85881 18.6893 1.72382 18.3743 1.25883C18.1643 0.958846 17.9693 0.703856 17.9543 0.703856C17.9393 0.718855 17.6693 0.808852 17.3393 0.928847ZM1.04996 15.8533C1.04996 15.9283 0.989961 16.0032 0.899964 16.0032C0.824967 16.0032 0.74997 15.9283 0.74997 15.8533C0.74997 15.7633 0.824967 15.7033 0.899964 15.7033C0.989961 15.7033 1.04996 15.7633 1.04996 15.8533ZM35.7736 25.3329C35.4886 25.4979 35.3236 25.4079 35.4586 25.1679C35.5186 25.0779 35.6686 25.0629 35.7886 25.1079C36.0136 25.1829 35.9986 25.2129 35.7736 25.3329ZM44.1882 28.9327C44.4882 28.9627 44.7432 28.9327 44.7882 28.8727C44.9382 28.6477 45.1482 28.7527 45.1482 29.0527C45.1482 29.3677 45.6582 29.7277 45.8982 29.5777C45.9882 29.5177 46.0482 29.7877 46.0482 30.2227C46.0482 31.0926 46.2732 31.2726 46.9631 30.9127C47.2631 30.7627 47.4881 30.7327 47.5931 30.8227C47.8931 31.0477 48.5981 31.1826 48.5981 31.0027C48.5981 30.9127 48.6581 30.8677 48.7331 30.9277C48.8081 30.9727 48.9881 30.8977 49.108 30.7627C49.303 30.5677 49.363 30.5677 49.423 30.7477C49.468 30.8527 49.588 30.9577 49.693 30.9727C49.798 30.9727 50.203 31.0177 50.623 31.0477C51.028 31.0926 51.493 31.0627 51.6279 30.9877C51.8529 30.8677 51.8979 30.9127 51.8979 31.2876C51.8979 31.5276 51.8229 31.7826 51.7329 31.8276C51.6429 31.8876 51.6129 32.0226 51.6579 32.1426C51.7029 32.2476 51.6429 32.4426 51.523 32.5626C51.388 32.6826 51.283 32.9526 51.268 33.1626C51.253 33.3726 51.178 33.5526 51.103 33.5526C51.043 33.5526 51.028 33.6125 51.073 33.7025C51.118 33.7775 51.088 33.8525 50.998 33.8525C50.893 33.8525 50.848 33.9575 50.908 34.0775C50.953 34.1975 50.878 34.3625 50.743 34.4375C50.533 34.5425 50.578 34.6025 50.983 34.8275C51.358 35.0075 51.433 35.1275 51.313 35.2475C50.998 35.5625 51.148 35.7725 51.8529 36.0125C52.7229 36.3124 52.8579 36.3124 52.7379 36.0275C52.6929 35.9075 52.7229 35.8025 52.8129 35.8025C52.9179 35.8025 52.9479 35.6225 52.9179 35.3525C52.8729 35.0225 52.9179 34.8875 53.1129 34.8275C53.4579 34.7225 53.6079 34.2725 53.6229 33.3876C53.6229 33.0126 53.7129 32.5926 53.8329 32.4576C53.9379 32.3076 53.9829 32.1876 53.9079 32.1876C53.8329 32.1726 54.0129 32.1276 54.2978 32.0676C54.6278 32.0076 54.9878 32.0526 55.2428 32.1726C55.4828 32.2926 55.7978 32.3526 55.9628 32.3076C56.1128 32.2626 56.2478 32.2926 56.2478 32.3826C56.2478 32.7276 57.2827 33.4026 57.8227 33.4026C58.0327 33.4026 58.1977 33.4626 58.1977 33.5226C58.1977 33.7775 59.2176 34.7825 59.3826 34.6925C59.4876 34.6175 59.5476 34.7225 59.5476 34.9475C59.5476 35.2925 59.9526 35.9375 60.4626 36.4024C60.5976 36.5224 60.7626 36.9124 60.8226 37.2724C60.8826 37.6174 60.9876 37.9024 61.0626 37.9024C61.1376 37.9024 61.1976 38.0074 61.1976 38.1274C61.1976 38.2474 61.2876 38.3524 61.3926 38.3524C61.5126 38.3524 61.5726 38.6224 61.5876 39.1623C61.5876 39.6873 61.6925 40.1223 61.8725 40.3923C62.0975 40.7373 62.1425 41.1423 62.1575 42.5672C62.1725 43.7371 62.2475 44.3971 62.3675 44.5471C62.5175 44.7271 62.5175 44.7871 62.3675 44.8321C62.1875 44.8921 62.1125 45.4171 62.0675 47.127C62.0525 47.532 61.9775 47.922 61.9025 47.967C61.6475 48.147 61.3626 49.1819 61.4826 49.4969C61.5576 49.7069 61.4976 49.9019 61.2426 50.1719C61.0476 50.3819 60.8976 50.6369 60.8976 50.7419C60.8976 50.8619 60.8376 50.9519 60.7476 50.9519C60.6726 50.9519 60.5976 51.0869 60.5976 51.2518C60.5976 51.4168 60.5376 51.5518 60.4626 51.5518C60.1176 51.5518 59.4276 52.3318 59.3226 52.8418C59.2476 53.2768 59.1726 53.3668 58.9327 53.3068C58.7827 53.2618 58.6477 53.2918 58.6477 53.3668C58.6477 53.4418 58.5577 53.5018 58.4377 53.5018C58.3177 53.5018 58.0927 53.6968 57.9427 53.9517C57.7327 54.3117 57.5827 54.4017 57.1777 54.4017C56.5028 54.4017 55.8278 54.7767 55.7078 55.2267C55.6328 55.5267 55.5728 55.5717 55.4078 55.4367C55.2428 55.3017 55.1378 55.3167 54.9728 55.4517C54.8528 55.5567 54.7478 55.6017 54.7478 55.5417C54.7478 55.4817 54.5828 55.5567 54.3728 55.6917C54.0729 55.8867 53.9979 55.8867 53.9979 55.7367C53.9829 55.6017 53.8629 55.6767 53.6529 55.9017C53.3979 56.1717 53.1429 56.2916 52.6629 56.3066C51.8529 56.3516 50.953 56.7416 51.103 56.9966C51.178 57.1316 51.148 57.1316 50.983 57.0116C50.788 56.8616 50.563 56.8466 49.708 56.9216C49.543 56.9366 49.273 57.0716 49.108 57.2066C48.8981 57.4016 48.5981 57.4766 47.9531 57.4616C47.3081 57.4466 47.0531 57.4916 46.9481 57.6866C46.8731 57.8216 46.7981 57.8516 46.7981 57.7616C46.7981 57.3866 45.4032 57.2066 44.8032 57.5066C44.5782 57.6266 44.3082 57.6716 44.2182 57.6116C43.8883 57.4016 42.5833 57.4316 42.4933 57.6416C42.4333 57.8066 42.3433 57.7916 42.0583 57.6116C41.6383 57.3266 40.8284 57.2366 40.4534 57.4316C40.2884 57.5216 39.8684 57.5066 39.3284 57.3866C38.4285 57.2066 37.6485 57.0866 37.0935 57.0566C36.8985 57.0416 36.7485 56.9816 36.7485 56.9216C36.7485 56.8616 36.5835 56.8766 36.3886 56.9516C36.1186 57.0416 35.9986 57.0266 35.9386 56.8766C35.9086 56.7716 35.5636 56.6216 35.1886 56.5766C34.8136 56.5166 34.4986 56.3966 34.4986 56.3216C34.4986 56.2317 34.4086 56.2017 34.2886 56.2467C34.1686 56.2916 34.0336 56.2317 33.9886 56.0967C33.9287 55.9767 33.7937 55.9017 33.6887 55.9467C33.5687 55.9917 33.1787 55.7967 32.8187 55.5117C32.4437 55.2267 31.9337 54.9867 31.6337 54.9417C31.3488 54.9117 31.1238 54.8217 31.1238 54.7317C31.1238 54.6267 30.9588 54.4467 30.7488 54.2967C30.5388 54.1617 30.2988 53.9367 30.2088 53.8167C30.1188 53.6968 29.9688 53.6518 29.8788 53.7118C29.7888 53.7567 29.6838 53.6218 29.6238 53.3818C29.5188 52.8718 28.7089 51.8518 28.4239 51.8518C28.3039 51.8518 28.2589 51.7468 28.3039 51.5518C28.3489 51.3868 28.3039 51.2518 28.2139 51.2518C28.1239 51.2518 28.0489 51.1769 28.0489 51.0869C28.0489 50.9819 27.8839 50.7569 27.6739 50.5769C27.4189 50.3369 27.3289 50.1119 27.3739 49.8569C27.4789 49.3319 27.1189 48.582 26.6089 48.237C26.369 48.087 26.264 47.952 26.369 47.952C26.5939 47.952 26.4589 46.887 26.204 46.737C26.129 46.677 26.099 46.572 26.144 46.482C26.204 46.407 26.114 46.227 25.949 46.0771C25.724 45.8671 25.694 45.7471 25.814 45.4321C25.919 45.1771 25.904 45.0271 25.799 44.9521C25.709 44.8921 25.634 44.6071 25.619 44.2921C25.604 43.9771 25.514 43.6921 25.409 43.6472C25.244 43.5872 25.259 43.4972 25.439 43.2122C25.754 42.7472 25.799 41.9522 25.544 41.5622C25.379 41.2922 25.379 41.1722 25.574 40.7073C25.799 40.1523 25.814 39.7773 25.604 39.4473C25.529 39.3273 25.604 39.1323 25.769 38.9523C26.084 38.6074 26.4289 37.1974 26.234 37.0624C26.159 37.0174 26.264 36.8074 26.4739 36.5824C26.6839 36.3574 26.8189 36.0875 26.7739 35.9825C26.7439 35.8925 26.7889 35.8025 26.8639 35.8025C26.9539 35.8025 26.9989 35.6675 26.9539 35.5025C26.8939 35.2625 26.9539 35.2025 27.2089 35.2025C27.5689 35.2025 28.4989 34.4675 28.4989 34.1825C28.4989 34.0925 28.7089 33.8975 28.9488 33.7475C29.2038 33.6125 29.3988 33.4326 29.3988 33.3726C29.3988 33.3126 29.4888 33.2526 29.6088 33.2526C29.7288 33.2526 29.8638 33.1476 29.9088 33.0126C29.9538 32.8926 30.0588 32.8176 30.1338 32.8626C30.2088 32.9226 30.3738 32.8476 30.4938 32.7276C30.6288 32.6076 30.7788 32.5026 30.8388 32.5026C31.0788 32.5026 31.9487 31.8126 31.9487 31.6326C31.9487 31.4976 32.0237 31.4826 32.2337 31.6026C32.4287 31.7076 32.5637 31.7076 32.6237 31.6026C32.6687 31.5276 32.8487 31.4526 32.9987 31.4526C33.1487 31.4526 33.2987 31.3926 33.3287 31.3326C33.4487 31.0477 35.0536 30.4177 35.6086 30.4477C36.1036 30.4777 36.2236 30.5527 36.4636 30.9877C36.6135 31.2726 36.7935 31.5426 36.8535 31.5876C37.0035 31.6926 37.4985 32.7576 37.4985 32.9526C37.4985 33.2226 38.1885 34.0925 38.3685 34.0325C38.4585 34.0025 38.6235 34.1525 38.7285 34.3625C38.8185 34.5875 38.9385 34.7375 38.9835 34.7225C39.5234 34.4675 40.3484 33.8975 40.3484 33.7775C40.3484 33.7025 40.1984 33.4926 40.0034 33.3276C39.6584 33.0276 39.4784 32.6826 39.1334 31.7526C39.0284 31.4676 38.8185 31.0477 38.6685 30.8227C38.3235 30.3277 38.3235 29.9527 38.6685 29.3677C38.8635 29.0077 38.9984 28.9327 39.2234 29.0077C39.6434 29.1427 40.2284 29.0827 40.8134 28.8427C41.0984 28.7377 41.6533 28.6627 42.0433 28.6777C42.4633 28.7077 42.8383 28.6477 42.9433 28.5278C43.0783 28.3928 43.1683 28.4078 43.3933 28.6177C43.5433 28.7527 43.9033 28.9027 44.1882 28.9327ZM90.7464 30.2377C90.7464 30.3277 90.6864 30.4327 90.5964 30.4777C90.5214 30.5227 90.4464 30.4627 90.4464 30.3427C90.4464 30.2077 90.5214 30.1027 90.5964 30.1027C90.6864 30.1027 90.7464 30.1627 90.7464 30.2377ZM23.0991 42.7022C23.0991 42.7772 23.0391 42.8522 22.9491 42.8522C22.8741 42.8522 22.7991 42.7772 22.7991 42.7022C22.7991 42.6122 22.8741 42.5522 22.9491 42.5522C23.0391 42.5522 23.0991 42.6122 23.0991 42.7022ZM64.9474 44.2021C64.9474 44.2771 64.8874 44.3521 64.7974 44.3521C64.7224 44.3521 64.6474 44.2771 64.6474 44.2021C64.6474 44.1121 64.7224 44.0521 64.7974 44.0521C64.8874 44.0521 64.9474 44.1121 64.9474 44.2021ZM25.424 45.4021C25.379 45.4771 25.274 45.5521 25.184 45.5521C25.109 45.5521 25.049 45.4771 25.049 45.4021C25.049 45.3121 25.154 45.2521 25.289 45.2521C25.409 45.2521 25.469 45.3121 25.424 45.4021ZM25.649 46.302C25.364 46.497 25.199 46.497 25.199 46.302C25.199 46.212 25.349 46.1521 25.544 46.1521C25.814 46.1521 25.829 46.1821 25.649 46.302ZM53.9979 56.6066C53.9979 56.8916 53.8029 56.7416 53.7579 56.4266C53.7429 56.3066 53.7879 56.2317 53.8629 56.2916C53.9379 56.3366 53.9979 56.4716 53.9979 56.6066ZM53.0529 56.9816C53.0079 57.1016 52.9629 57.0566 52.9629 56.8916C52.9479 56.7266 52.9929 56.6366 53.0379 56.6966C53.0829 56.7416 53.0979 56.8766 53.0529 56.9816ZM79.8418 62.5614C79.9018 62.7114 79.8568 62.7564 79.7218 62.6964C79.6018 62.6514 79.5418 62.5614 79.5868 62.4864C79.6918 62.3064 79.7518 62.3214 79.8418 62.5614ZM61.5726 83.0506C61.5276 83.1256 61.4076 83.2006 61.3326 83.2006C61.2426 83.2006 61.2276 83.1256 61.2726 83.0506C61.3176 82.9606 61.4376 82.9006 61.5126 82.9006C61.6026 82.9006 61.6176 82.9606 61.5726 83.0506Z"
          fill="white"/>
    <path d="M64.5424 12.8083C63.9275 13.0183 63.9275 13.0333 63.9725 13.6183C64.0475 14.3382 64.2574 14.7582 64.6174 14.8632C64.8124 14.9232 64.9024 15.1032 64.9024 15.3882C64.9024 15.9282 65.3524 16.9031 65.5924 16.9031C65.6974 16.9031 65.7874 17.0831 65.8024 17.2931C65.8324 17.8631 66.2824 18.6281 66.7474 18.8981C66.9723 19.0331 67.2123 19.363 67.2873 19.633C67.3773 19.978 67.5723 20.203 67.9023 20.353C68.2023 20.488 68.4123 20.728 68.4723 20.968C68.5773 21.463 69.2373 22.0929 69.7772 22.2279C70.0172 22.2879 70.1972 22.4679 70.2572 22.6929C70.3172 22.8879 70.4972 23.1879 70.6772 23.3529C71.0372 23.6829 70.9472 23.7429 70.4822 23.4879C70.2272 23.3529 70.0922 23.4129 69.6722 23.8629C69.4022 24.1629 69.1323 24.5978 69.0723 24.8528C69.0123 25.1378 68.8773 25.3028 68.7273 25.3028C68.3973 25.3028 67.6173 26.4128 67.7373 26.6978C67.7823 26.8477 67.6773 26.9377 67.3923 27.0127C66.8823 27.1177 66.2674 27.8827 66.2674 28.3927C66.2674 28.6327 66.1774 28.7527 66.0124 28.7527C65.7124 28.7527 65.3674 29.1277 65.0824 29.7726C64.9624 30.0426 64.8274 30.2526 64.7524 30.2526C64.6924 30.2526 64.3624 30.4926 64.0475 30.8076C63.6125 31.1976 63.4475 31.4676 63.4475 31.7826C63.4475 32.0675 63.3875 32.1875 63.2825 32.1125C63.1925 32.0675 62.9675 32.1725 62.7875 32.3675C62.6075 32.5625 62.3375 32.8025 62.1725 32.8925C61.7975 33.1025 61.7226 33.5975 61.9475 34.1675C62.1725 34.6924 62.7575 34.7674 62.9975 34.3025C63.0875 34.1375 63.2375 34.0025 63.3425 34.0025C63.6125 34.0025 64.2874 33.2525 64.4224 32.8325C64.4674 32.6525 64.6174 32.5025 64.7374 32.5025C64.8574 32.5025 64.9474 32.4425 64.9474 32.3825C64.9474 32.3075 65.1574 32.0375 65.4124 31.7826C65.6974 31.4976 65.8024 31.3026 65.6824 31.3026C65.5624 31.3026 65.5924 31.2276 65.7724 31.1226C66.2074 30.8826 67.1973 29.7726 67.1073 29.6226C67.0623 29.5626 67.1073 29.5026 67.1823 29.5026C67.2723 29.5026 67.3473 29.3976 67.3473 29.2777C67.3473 29.1577 67.4523 29.0527 67.5723 29.0527C67.6923 29.0527 67.7973 28.9627 67.7973 28.8577C67.7973 28.7527 67.9623 28.5427 68.1723 28.3927C68.3823 28.2277 68.5323 28.0177 68.4873 27.8977C68.4423 27.7927 68.5023 27.7027 68.6373 27.7027C68.7573 27.7027 68.9073 27.5827 68.9523 27.4327C69.0123 27.2977 69.2823 26.9527 69.5522 26.6678C69.8222 26.3828 70.0172 26.1278 69.9722 26.0828C69.8522 25.9628 70.2122 25.6028 70.3622 25.6928C70.4372 25.7378 70.4972 25.6778 70.4972 25.5578C70.4972 25.4528 70.7222 25.1528 70.9922 24.8978C72.1321 23.8029 72.4471 23.4129 72.4471 23.0829C72.4471 22.8879 72.3571 22.7529 72.2221 22.7529C72.1021 22.7529 71.9971 22.6479 71.9971 22.5279C71.9971 22.2729 71.0522 21.253 70.8122 21.253C70.7222 21.253 70.6622 21.208 70.6772 21.133C70.7072 21.073 70.6622 21.013 70.6022 20.998C70.4372 20.968 69.8972 20.338 69.8972 20.203C69.8972 20.143 69.7622 20.053 69.5972 20.008C69.4022 19.963 69.3272 19.843 69.3872 19.708C69.4322 19.558 69.3572 19.438 69.1773 19.393C69.0273 19.333 68.8173 19.1381 68.7273 18.9281C68.6373 18.7331 68.3823 18.4631 68.1873 18.3131C67.9773 18.1781 67.8423 18.0131 67.8723 17.9381C67.9173 17.8781 67.8273 17.6831 67.6473 17.5031C67.4823 17.3381 67.3473 17.0681 67.3473 16.8881C67.3473 16.7232 67.2723 16.6332 67.1973 16.6782C67.1073 16.7382 67.0023 16.5732 66.9573 16.3182C66.8973 16.0782 66.7624 15.8382 66.6424 15.7932C66.5224 15.7482 66.4774 15.6432 66.5224 15.5532C66.5674 15.4782 66.5674 15.3132 66.4924 15.2082C66.4324 15.1182 66.3724 14.9382 66.3574 14.8332C66.3274 14.7282 66.1924 14.5182 66.0274 14.3832C65.8774 14.2482 65.7424 14.0233 65.7274 13.9033C65.6974 13.5733 65.4274 12.5983 65.4124 12.7783C65.3974 12.8683 65.3524 12.8683 65.2774 12.7633C65.2024 12.6433 64.9924 12.6583 64.5424 12.8083ZM71.8471 23.5629C71.8471 23.6829 71.7572 23.8029 71.6372 23.8479C71.4872 23.9079 71.4572 23.8479 71.5022 23.6379C71.5922 23.3079 71.8471 23.2479 71.8471 23.5629ZM62.3975 33.7175C62.3975 33.7925 62.3375 33.8525 62.2475 33.8525C62.1725 33.8525 62.0975 33.7475 62.0975 33.6125C62.0975 33.4925 62.1725 33.4325 62.2475 33.4775C62.3375 33.5225 62.3975 33.6275 62.3975 33.7175Z"
          fill="white"/>
    <path d="M30.2988 57.1016C30.2988 57.2666 30.2088 57.4016 30.0888 57.4016C29.8638 57.4016 29.2488 58.2865 29.1888 58.6915C29.1738 58.8265 29.0838 58.9765 28.9939 59.0215C28.9189 59.0815 28.7539 59.3965 28.6489 59.7265C28.5439 60.0565 28.3789 60.3715 28.2889 60.4315C28.1839 60.5064 28.1989 60.5514 28.3339 60.5514C28.4839 60.5514 28.4539 60.6264 28.2439 60.8064C28.0939 60.9564 27.7939 61.5714 27.6139 62.1564C27.4189 62.7564 27.1939 63.2513 27.1189 63.2513C27.0439 63.2513 27.0139 63.4613 27.0589 63.7013C27.0889 63.9713 27.0439 64.2413 26.9239 64.3613C26.8039 64.4663 26.7439 64.6013 26.7889 64.6313C26.8189 64.6763 26.7139 64.8263 26.549 64.9763C26.384 65.1263 26.249 65.3363 26.249 65.4413C26.249 65.5462 26.114 65.8912 25.949 66.1762C25.784 66.4762 25.649 66.8062 25.664 66.8962C25.709 67.2712 25.649 67.4662 25.499 67.3762C25.424 67.3312 25.334 67.4362 25.319 67.6312C25.319 67.8262 25.289 68.0661 25.289 68.1861C25.274 68.3061 25.199 68.4261 25.094 68.4561C24.989 68.5011 24.944 68.6061 24.989 68.7261C25.034 68.8311 24.914 69.0411 24.704 69.1611C24.509 69.2961 24.254 69.6861 24.134 70.0461C24.0291 70.3911 23.8941 70.706 23.8491 70.751C23.7891 70.796 23.5941 71.216 23.4141 71.681C23.2191 72.161 23.0091 72.521 22.9491 72.476C22.7841 72.371 22.6041 72.956 22.7241 73.1509C22.7691 73.2259 22.7241 73.2559 22.5891 73.2109C22.3641 73.1209 21.9891 73.6309 22.1541 73.8109C22.1991 73.8559 22.1691 73.9009 22.0791 73.9009C21.9141 73.9009 21.4642 74.6809 21.3592 75.1609C21.3292 75.3109 21.1642 75.5809 20.9992 75.7308C20.8342 75.8958 20.7142 76.0608 20.7592 76.1208C20.8192 76.2258 20.5942 76.4958 20.3242 76.6158C20.1742 76.6758 20.1592 76.7358 20.1142 77.1558C20.1142 77.2608 20.0092 77.3508 19.8892 77.3508C19.7692 77.3508 19.6192 77.4858 19.5742 77.6508C19.5292 77.8158 19.4092 77.9508 19.3342 77.9508C19.2592 77.9508 19.1992 78.0858 19.1992 78.2507C19.1992 78.4157 19.1092 78.5507 18.9893 78.5507C18.8843 78.5507 18.7493 78.7607 18.6893 79.0157C18.6443 79.2707 18.5393 79.4357 18.4643 79.3907C18.3893 79.3457 18.2843 79.4657 18.2393 79.6757C18.1793 79.8857 18.0593 80.0507 17.9393 80.0507C17.8343 80.0507 17.6393 80.1707 17.5343 80.3057C17.3843 80.4707 17.3843 80.5157 17.5193 80.4407C17.6093 80.3807 17.6993 80.3957 17.6993 80.4857C17.6993 80.5757 17.5343 80.6806 17.3243 80.7406C17.1143 80.7856 16.9493 80.9206 16.9493 81.0256C16.9493 81.1156 16.8143 81.3256 16.6493 81.4756C16.2444 81.8506 16.2744 82.0156 16.8443 82.5706C17.2943 83.0056 17.3693 83.0356 17.5493 82.8256C17.7593 82.5706 18.2993 82.5106 18.2993 82.7506C18.2993 82.8256 18.4193 82.9006 18.5543 82.9006C18.7793 82.9006 18.7643 82.9456 18.5093 83.2305C18.1793 83.6055 18.1943 84.2505 18.5393 84.2505C18.6593 84.2505 18.7493 84.3555 18.7493 84.4755C18.7493 84.7305 19.6942 85.7504 19.9342 85.7504C20.0242 85.7504 20.0842 85.8404 20.0692 85.9304C20.0392 86.0354 20.1142 86.1104 20.2192 86.0804C20.3092 86.0654 20.3992 86.1104 20.3992 86.2004C20.3992 86.2754 20.4892 86.3504 20.6092 86.3504C20.7292 86.3504 20.8792 86.4854 20.9242 86.6654C20.9842 86.8454 21.1042 86.9354 21.2392 86.8904C21.4342 86.8154 21.5092 86.9804 21.4642 87.2804C21.4642 87.3554 21.5092 87.4004 21.5991 87.4004C21.6741 87.4004 21.9891 87.6704 22.2891 88.0004C22.5891 88.3303 22.8741 88.5703 22.9341 88.5403C22.9791 88.5103 23.1141 88.5703 23.2191 88.6903C23.3241 88.8103 23.3541 88.9003 23.2941 88.9003C23.2341 88.9003 23.2641 88.9603 23.3841 89.0353C23.5341 89.1403 23.7291 89.0803 23.9841 88.8853C24.344 88.6003 24.359 88.6003 24.509 88.8703C24.719 89.2303 25.949 90.5353 26.084 90.5203C26.399 90.4903 26.564 90.5803 26.504 90.7602C26.444 90.8952 26.549 91.0002 26.7739 91.0602C26.9689 91.1052 27.1789 91.2852 27.2239 91.4502C27.2689 91.6152 27.4489 91.8252 27.6139 91.9002C27.7639 91.9902 27.8989 92.1402 27.8989 92.2152C27.8989 92.4252 29.9238 94.4501 30.1188 94.4501C30.2088 94.4501 30.3288 94.6001 30.3738 94.7651C30.5088 95.1551 31.4838 96.04 31.7087 95.98C31.7987 95.95 31.8287 95.98 31.7537 96.04C31.5888 96.22 32.4137 97 32.7587 97C32.9537 97 33.2087 96.79 33.4187 96.46L33.7637 95.935L32.4737 94.6601C31.7537 93.9701 31.0788 93.4001 30.9588 93.4001C30.8238 93.4001 30.7638 93.3401 30.8238 93.2501C30.8688 93.1752 30.5688 92.7702 30.1488 92.3502C29.7438 91.9302 29.3988 91.5402 29.3988 91.4652C29.3988 91.3902 29.2638 91.3002 29.0988 91.2552C28.9339 91.2102 28.7239 90.9852 28.6339 90.7452C28.4239 90.1903 27.9139 89.6503 27.5839 89.6503C27.2689 89.6503 26.8189 89.2303 26.9239 89.0353C26.9839 88.9603 26.9539 88.9003 26.8639 88.9003C26.7739 88.9003 26.504 88.6903 26.249 88.4503C25.994 88.1953 25.724 88.0304 25.649 88.0754C25.589 88.1204 25.484 87.9704 25.424 87.7304C25.319 87.2654 24.644 86.5004 24.344 86.5004C24.239 86.5004 24.149 86.4404 24.149 86.3504C24.149 86.2754 24.0441 86.2454 23.9241 86.2904C23.7741 86.3504 23.6991 86.2904 23.6991 86.0654C23.6991 85.8854 23.6241 85.7504 23.5491 85.7504C23.4591 85.7504 23.2491 85.6155 23.0691 85.4505C22.8891 85.2855 22.6491 85.1505 22.5291 85.1505C22.3941 85.1505 22.3341 85.0455 22.3941 84.8505C22.4391 84.6855 22.4241 84.5505 22.3641 84.5505C22.3191 84.5505 22.1991 84.4005 22.1241 84.2205C21.9591 83.8305 21.0292 83.1705 20.8342 83.2905C20.7592 83.3355 20.6992 83.2305 20.6992 83.0656C20.6992 82.8856 20.6392 82.7506 20.5492 82.7506C20.4742 82.7506 20.3992 82.6456 20.3992 82.5256C20.3992 82.4056 20.2642 82.2406 20.0992 82.1506C19.9342 82.0606 19.8292 81.9106 19.8892 81.8356C19.9342 81.7456 19.7692 81.6106 19.5292 81.5206C19.0642 81.3406 19.0642 81.3406 19.3342 80.9656C19.4842 80.7556 19.6642 80.3507 19.7242 80.0807C19.7692 79.8257 19.8892 79.6007 19.9642 79.6007C20.1442 79.6007 20.6992 79.0457 20.6992 78.8657C20.6992 78.7907 20.8042 78.6557 20.9242 78.5507C21.0592 78.4457 21.1342 78.2657 21.0892 78.1607C21.0442 78.0558 21.1342 77.9208 21.2992 77.8758C21.6291 77.7708 22.3491 76.8558 22.3491 76.5408C22.3491 76.4208 22.5141 76.1358 22.7091 75.8958C22.9041 75.6708 23.0841 75.4009 23.0991 75.3259C23.1291 75.2359 23.1741 75.0559 23.2191 74.9059C23.2491 74.7709 23.3391 74.6509 23.4141 74.6509C23.4891 74.6509 23.6241 74.4859 23.6991 74.2759C23.7741 74.0659 23.9091 73.9009 23.9691 73.9009C24.164 73.9009 24.644 72.596 24.524 72.401C24.464 72.311 24.479 72.251 24.554 72.266C24.854 72.311 24.989 72.221 25.139 71.831C25.484 71.021 25.544 70.826 25.529 70.706C25.514 70.646 25.559 70.601 25.634 70.601C25.709 70.601 25.814 70.4211 25.874 70.1961C25.919 69.9711 26.174 69.5661 26.414 69.2961C26.6539 69.0111 26.8489 68.7111 26.8639 68.6061C26.8789 68.5011 26.8939 68.2161 26.9089 67.9762C26.9089 67.7212 27.0139 67.4662 27.1189 67.4062C27.2089 67.3462 27.2989 67.1812 27.2989 67.0762C27.2989 66.9562 27.3739 66.8512 27.4489 66.8512C27.5389 66.8512 27.5989 66.7162 27.5989 66.5662C27.5989 66.4012 27.6739 66.2212 27.7489 66.1762C27.8539 66.1162 27.8539 65.9812 27.7489 65.7862C27.6289 65.5912 27.6439 65.5013 27.7489 65.5013C27.8389 65.5013 28.0639 65.3663 28.2439 65.1863C28.4989 64.9463 28.5739 64.7213 28.5739 64.0613C28.5739 63.4763 28.6339 63.2213 28.7989 63.1763C29.0988 63.0713 29.3538 62.4864 29.3388 61.9614C29.3238 61.7064 29.4588 61.4064 29.6238 61.2264C30.0588 60.7914 30.3138 60.2365 30.3288 59.6815C30.3438 59.4265 30.3888 59.2465 30.4488 59.2765C30.5688 59.3515 30.9588 58.9165 31.0938 58.5415C31.1538 58.4065 31.2588 58.3165 31.3338 58.3765C31.5288 58.4815 31.7837 57.9865 31.6787 57.7016C31.4388 56.9516 30.2988 56.4566 30.2988 57.1016ZM31.3938 57.6116C31.4538 57.7616 31.4088 57.8066 31.2588 57.7466C31.1538 57.7016 31.0488 57.6116 31.0488 57.5366C31.0488 57.3266 31.3038 57.3866 31.3938 57.6116ZM18.6743 81.7006C18.4193 81.9856 18.1493 81.9856 18.1493 81.6706C18.1493 81.5956 18.2543 81.5506 18.3743 81.6106C18.4943 81.6556 18.5993 81.6256 18.5993 81.5506C18.5993 81.4606 18.6743 81.4006 18.7793 81.4006C18.8693 81.4006 18.8243 81.5206 18.6743 81.7006ZM19.2592 81.9256C19.1542 82.1656 18.8993 82.2406 18.8993 82.0156C18.8993 81.8956 19.0043 81.8206 19.3042 81.7156C19.3192 81.7006 19.3042 81.8056 19.2592 81.9256Z"
          fill="white"/>
    <path d="M6.8997 58.8565C6.68971 58.8865 6.41972 59.0515 6.31473 59.2315C6.14973 59.4865 6.16473 59.5615 6.43472 59.7565C6.61471 59.8765 6.74971 60.1315 6.74971 60.3115C6.74971 60.5065 6.8547 60.7465 6.9747 60.8515C7.09469 60.9564 7.19969 61.1214 7.19969 61.2264C7.19969 61.3314 7.30469 61.4514 7.42468 61.5114C7.54468 61.5564 7.60467 61.6914 7.55968 61.8264C7.51468 61.9464 7.54468 62.0514 7.63467 62.0514C7.70967 62.0514 7.87466 62.3214 7.96466 62.6514C8.06966 62.9664 8.20465 63.2064 8.26465 63.1614C8.38464 63.0864 8.45964 63.3114 8.41464 63.6113C8.39964 63.6713 8.45964 63.8213 8.54964 63.9113C8.62463 64.0163 8.65463 64.1363 8.60963 64.1813C8.50464 64.2863 8.95462 65.1713 9.23961 65.4713C9.35961 65.5763 9.4046 65.7413 9.35961 65.8313C9.31461 65.9063 9.4046 66.0712 9.5846 66.1912C9.76459 66.3262 9.86958 66.4912 9.82459 66.5662C9.76459 66.6412 9.79459 66.7012 9.88458 66.7012C9.97458 66.7012 10.0046 66.8062 9.95958 66.9262C9.89958 67.0462 9.94458 67.1512 10.0346 67.1512C10.1246 67.1512 10.1996 67.3162 10.1996 67.5112C10.1996 67.7062 10.3046 67.9462 10.4246 68.0512C10.5446 68.1412 10.6346 68.2762 10.6196 68.3212C10.5896 68.5461 11.0245 69.4011 11.2045 69.4611C11.3095 69.5061 11.6095 69.4611 11.8795 69.3561C12.3745 69.1761 12.5395 68.8161 12.3445 68.3512C12.2995 68.2312 12.2395 68.0212 12.2095 67.9012C12.1795 67.7812 12.0895 67.6612 11.9995 67.6312C11.9245 67.6012 11.8945 67.5112 11.9395 67.4212C11.9845 67.3462 11.8945 67.2412 11.7295 67.1962C11.4895 67.1362 11.4295 67.0312 11.4745 66.6712C11.5495 66.1012 11.1595 65.2913 10.6946 65.0363C10.4996 64.9313 10.3496 64.7363 10.3646 64.6163C10.3796 64.4813 10.3646 64.3313 10.3496 64.2563C10.3346 64.1963 10.3046 64.1063 10.2896 64.0313C10.1996 63.7013 9.83959 63.1014 9.71959 63.1014C9.64459 63.1014 9.5996 63.0114 9.61459 62.9064C9.68959 62.2614 9.5546 61.8714 9.02962 61.3314C8.59464 60.8815 8.48964 60.6715 8.57964 60.4915C8.66963 60.3415 8.65463 60.2515 8.54964 60.2515C8.47464 60.2515 8.39964 60.1615 8.39964 60.0415C8.39964 59.9365 8.29465 59.7565 8.17465 59.6515C8.03966 59.5465 7.97966 59.4265 8.02466 59.3815C8.12965 59.2615 7.63467 58.7515 7.43968 58.7665C7.34968 58.7815 7.10969 58.8265 6.8997 58.8565ZM7.28969 59.4565C7.13969 59.6065 7.0047 59.3815 7.13969 59.1865C7.22969 59.0215 7.25969 59.0215 7.31969 59.1865C7.34968 59.2915 7.33469 59.4115 7.28969 59.4565Z"
          fill="white"/>
</svg>
