<svg width="92" height="92" viewBox="0 0 92 92" fill="none" xmlns="http://www.w3.org/2000/svg">
    <path d="M41.8045 0.313134C41.599 0.665889 41.3348 2.9 41.2761 4.60499C41.2761 5.13412 41.188 5.57506 41.0706 5.57506C40.9531 5.57506 40.8944 5.89842 40.9238 6.30997C40.9825 6.72151 40.8357 7.19185 40.6302 7.36823C40.1605 7.75038 40.0724 8.51468 40.5128 8.51468C40.6596 8.51468 40.7183 8.72046 40.6302 8.95563C40.5128 9.1908 40.3366 9.30838 40.1898 9.22019C40.0431 9.13201 39.9256 9.27899 39.9256 9.54355C39.9256 9.77872 39.8082 10.2491 39.6321 10.5724C39.4853 10.8958 39.2211 11.4249 39.0449 11.7189C38.8981 12.0422 38.8394 12.5714 38.8981 12.8947C38.9569 13.2475 38.8981 13.4533 38.722 13.3651C38.4871 13.1887 38.3404 13.8354 38.3697 14.8937C38.3991 15.0994 38.2816 15.2758 38.1055 15.2758C37.9587 15.2758 37.9294 15.3934 38.0174 15.5698C38.1055 15.7168 38.0468 15.8637 37.8706 15.8637C37.6945 15.8637 37.6064 15.9813 37.7239 16.1283C37.8119 16.2753 37.6651 16.5987 37.4303 16.8338C37.1954 17.0984 36.9899 17.5687 36.9899 17.8921C36.9899 18.2154 36.8725 18.5388 36.7257 18.6564C36.5789 18.7446 36.3441 19.5383 36.256 20.4202C36.1386 21.302 35.9331 21.9488 35.7863 21.8606C35.5514 21.743 35.4634 22.1545 35.5514 22.8013C35.5514 22.9188 35.4634 23.0952 35.3166 23.1834C34.9349 23.4774 34.2597 24.7708 34.612 24.5356C35.1111 24.2417 34.9936 24.8296 34.3771 25.5939C34.0836 25.976 33.7313 26.7697 33.5845 27.3283C33.2909 28.6805 33.3203 28.5335 32.8799 29.533C32.6744 30.0033 32.4396 30.7382 32.3809 31.1498C32.2341 32.502 32.2047 32.5902 31.9992 32.4726C31.8818 32.4138 31.5882 32.796 31.324 33.3545C31.0598 33.913 30.6194 34.3834 30.3846 34.3834C30.1204 34.3834 30.0029 34.2364 30.091 34.0894C30.1791 33.913 30.1204 33.7954 29.9736 33.7954C29.7974 33.7954 29.6507 34.1776 29.6507 34.6479C29.6507 35.3828 29.4745 35.5886 28.6232 35.8826C28.0654 36.0884 27.5957 36.3823 27.5957 36.5293C27.5957 36.6469 27.3608 36.7057 27.0672 36.6175C26.7737 36.4999 26.2746 36.7057 25.8342 37.1172C25.3939 37.4994 24.6306 37.7933 23.926 37.8521C23.2802 37.9109 22.282 38.0579 21.7242 38.2049C21.1665 38.3519 20.5793 38.4695 20.4619 38.4695C20.3445 38.4695 19.9041 38.6752 19.4931 38.9398C19.0821 39.2044 18.6711 39.3513 18.5537 39.2631C18.4656 39.175 18.084 39.2925 17.7023 39.5571C17.3207 39.7923 16.7042 39.9687 16.3519 39.9099C15.9996 39.8511 15.7354 39.9687 15.7648 40.145C15.7941 40.3214 15.6767 40.4684 15.4712 40.4684C13.5336 40.586 11.7428 41.2033 10.7447 42.0852C10.3924 42.4085 10.0988 42.4967 9.98141 42.3204C9.86398 42.144 9.57041 42.2616 9.24748 42.6143C8.95391 42.9377 8.42548 43.2022 8.04384 43.2022C7.6622 43.2022 7.30991 43.3198 7.22184 43.4668C7.13377 43.5844 6.39984 43.7902 5.6072 43.9078C4.7852 44.0253 4.05128 44.2311 3.96321 44.3781C3.84578 44.5545 3.64028 44.6133 3.49349 44.4957C3.17057 44.2899 1.37978 45.0836 0.557785 45.7891C0.146785 46.1419 0 46.671 0 47.8469V49.4049L1.55593 50.081C2.61278 50.5807 3.19992 50.6983 3.46414 50.4925C3.64028 50.3161 3.81642 50.3161 3.81642 50.4631C3.81642 50.8159 5.57785 51.4332 6.31177 51.3156C6.6347 51.2568 7.33927 51.4038 7.8677 51.639C8.60163 51.9329 8.95391 51.9623 9.24748 51.7272C9.5117 51.492 9.65848 51.492 9.74655 51.7566C9.80527 51.9623 10.4805 52.1093 11.3905 52.1387C12.2419 52.1681 12.9171 52.2563 12.9171 52.3739C12.9171 52.5209 13.2107 52.609 13.563 52.609C13.9153 52.609 14.4437 52.8442 14.7666 53.1088C15.207 53.5203 15.3831 53.5497 15.4712 53.2558C15.5886 52.9618 15.7648 52.9912 16.3519 53.3439C16.7335 53.6085 17.262 53.7555 17.4968 53.6673C17.761 53.5791 17.8491 53.6379 17.761 53.7849C17.673 53.9613 17.9078 54.0789 18.3188 54.0789C18.7298 54.0789 19.1408 54.2258 19.2289 54.4022C19.3463 54.5786 19.6105 54.6374 19.816 54.5492C20.0215 54.4904 20.3445 54.5786 20.55 54.755C20.8435 55.0195 20.8729 55.0195 20.7261 54.7256C20.6087 54.5492 20.6674 54.3728 20.8142 54.3728C20.9903 54.3728 21.1371 54.5198 21.1371 54.6962C21.1371 54.8726 21.4894 54.9607 21.9591 54.9019C22.3995 54.8432 22.8985 54.9901 23.104 55.2547C23.3682 55.5781 23.4563 55.5781 23.4857 55.3135C23.4857 55.0489 23.7205 55.0489 24.5132 55.3723C25.1003 55.6369 25.7462 55.7544 25.981 55.6663C26.2159 55.5487 26.4214 55.6075 26.4214 55.7544C26.4214 55.9308 27.214 56.019 28.1828 55.9602C29.1516 55.9308 29.9442 55.9896 29.9442 56.1366C29.9442 56.2542 30.2084 56.313 30.5314 56.2248C30.8543 56.1366 31.2947 56.1954 31.5002 56.3718C31.7057 56.5481 32.2634 56.6657 32.7331 56.6069C33.2322 56.5775 33.79 56.6657 33.9955 56.8127C34.3478 57.0773 36.9899 57.3712 39.6908 57.4006C40.2779 57.4006 40.7183 57.5182 40.6302 57.6652C40.5421 57.7828 40.777 57.9004 41.1586 57.9298C42.5384 57.9886 44.476 58.1355 44.476 58.1943C44.476 58.2237 44.9751 58.2825 45.5916 58.3119C46.2374 58.3707 47.1768 58.1649 47.764 57.871C48.3511 57.577 48.9383 57.4006 49.085 57.4888C49.2025 57.577 49.5254 57.43 49.7896 57.1949C50.0245 56.9303 50.4355 56.7245 50.6703 56.7245C50.9052 56.7245 51.0813 56.5775 51.0813 56.4306C51.0813 56.2542 51.2575 56.166 51.463 56.1954C51.6391 56.2542 51.7859 56.1366 51.7565 55.9308C51.6978 55.7544 51.962 55.4899 52.3437 55.3723C53.1363 55.1077 54.9271 53.4615 54.7216 53.1676C54.6629 53.0206 54.8684 52.7854 55.1913 52.609C55.5142 52.4327 55.7785 52.1387 55.7491 51.9329C55.661 51.198 55.7785 50.8453 56.1307 50.9041C56.395 50.9629 56.5124 50.5513 56.483 49.5224C56.483 48.6993 56.6298 47.9644 56.7766 47.8175C57.0115 47.6705 56.9821 47.5235 56.7179 47.3471C56.1601 47.0238 56.1601 46.9062 56.6298 46.3476C56.9527 45.9361 56.9527 45.7597 56.6592 45.407C56.4537 45.1718 56.3656 44.966 56.4537 44.966C56.5417 44.966 56.483 44.5545 56.3362 44.0841C56.1601 43.5844 55.8959 43.2022 55.7491 43.2022C55.6023 43.2022 55.4849 43.0553 55.4849 42.8495C55.4849 42.6437 55.1326 42.1734 54.6922 41.8206C54.2813 41.4385 54.0758 41.1445 54.2519 41.1445C54.428 41.1445 54.2519 40.8211 53.8409 40.4096C53.4299 39.9981 52.9895 39.6747 52.8428 39.6747C52.6666 39.6747 52.5492 39.4689 52.5492 39.2044C52.5492 38.9104 52.373 38.7928 52.1382 38.881C51.9033 38.9692 51.463 38.7928 51.14 38.4695C50.7878 38.1755 50.4061 37.9109 50.2593 37.9109C50.1125 37.9109 49.819 37.7051 49.6135 37.47C49.408 37.2054 49.0557 37.0584 48.8795 37.1466C48.674 37.2054 48.3511 37.029 48.1456 36.7351C47.9401 36.4411 47.5878 36.2647 47.353 36.3529C47.1181 36.4411 46.6484 36.2647 46.2961 35.9414C45.1806 34.9713 42.4503 33.9424 41.8632 34.2952C41.3054 34.6773 40.6889 34.6479 40.4541 34.2952C40.2779 34.0306 40.1605 34.0306 39.955 34.354C39.8082 34.5891 39.1917 34.7655 38.4871 34.7655C37.7239 34.7655 37.2835 34.9125 37.2835 35.1477C37.2835 35.3534 36.8725 35.5886 36.3734 35.7062C35.8744 35.8238 35.3753 36.1765 35.1991 36.5293C34.8175 37.47 34.2597 38.2931 33.79 38.6752C33.5551 38.8516 33.4671 39.2044 33.5551 39.4983C33.6726 39.7629 33.6139 39.9687 33.4964 39.9687C33.3496 39.9687 33.2909 40.2626 33.379 40.6154C33.4964 41.1445 33.4377 41.2033 33.2029 40.8505C32.9974 40.5272 32.9386 40.733 32.9386 41.5855C32.968 42.2322 32.8799 43.0553 32.7625 43.408C32.6451 43.7902 32.6744 44.0841 32.8212 44.0841C32.968 44.0841 33.0267 44.3781 32.968 44.7602C32.7919 45.6127 33.379 47.9056 33.7606 47.9056C33.9368 47.9056 34.0542 48.1408 34.0542 48.4054C34.0542 48.6699 34.1423 48.7875 34.2304 48.6993C34.3478 48.6112 34.7588 48.7875 35.1698 49.0815C35.5514 49.4049 36.1386 49.6694 36.4321 49.6694C36.7551 49.6694 36.9899 49.8458 36.9899 50.081C36.9899 50.3161 37.2541 50.4337 37.7239 50.4043C38.1349 50.3455 38.4578 50.4337 38.4578 50.5807C38.4578 50.6983 38.6339 50.7571 38.8688 50.6689C39.1036 50.5807 39.3679 50.6395 39.4853 50.8159C39.5734 50.9922 39.8082 51.1392 39.955 51.1392C40.1311 51.1392 40.1898 51.0216 40.0724 50.8747C39.8963 50.5513 41.0706 50.6101 41.599 50.9335C42.0393 51.198 44.4466 50.6689 44.5641 50.2867C44.6228 50.1398 44.8283 50.0516 45.0631 50.1398C45.2686 50.2279 45.9732 49.9634 46.6191 49.5518C47.5878 48.9345 47.852 48.5818 48.1456 47.3177C48.3511 46.4946 48.4392 45.5245 48.3218 45.1718C48.0869 44.1723 46.2374 42.2028 45.709 42.4085C45.4741 42.4967 45.1512 42.4379 45.0044 42.291C44.8576 42.144 44.3292 41.9088 43.8301 41.7618C42.9494 41.4973 42.9201 41.5267 42.7146 42.5555C42.6265 43.1728 42.4503 43.9665 42.3623 44.3487C42.2155 44.9072 42.2742 45.0248 42.6558 44.8778C42.9201 44.7896 43.2136 44.819 43.3311 44.9954C43.4191 45.1718 43.654 45.2306 43.8301 45.1718C44.3292 44.9954 45.1512 45.4658 45.5328 46.1713C45.7677 46.6122 45.7677 46.7298 45.5328 46.6122C45.3567 46.4946 45.2099 46.4946 45.2099 46.6416C45.2099 47.0238 43.7421 47.5529 42.0981 47.7587C41.0412 47.9056 40.2779 47.8175 39.5146 47.4941C38.6926 47.1707 38.2523 47.1119 37.8413 47.3177C37.4009 47.5529 37.2835 47.5235 37.2835 47.2001C37.2835 46.965 37.0486 46.5828 36.7844 46.377C35.9331 45.7303 35.5514 44.8484 35.8744 44.2605C36.3441 43.408 36.3734 41.9382 35.9037 41.2033C35.6982 40.8505 35.6101 40.5566 35.7276 40.586C36.3441 40.6742 36.6964 40.5272 36.6964 40.145C36.6964 39.9099 36.8725 39.6747 37.1074 39.5865C37.3129 39.4983 37.4596 39.1162 37.4303 38.734C37.3422 38.0873 37.4596 38.0285 38.6633 37.9991C39.3679 37.9697 40.1605 37.7933 40.3953 37.5876C40.6302 37.4112 40.8063 37.3524 40.8063 37.4994C40.8063 37.617 41.0118 37.47 41.2467 37.1466C41.6577 36.6175 41.6577 36.6175 41.6871 37.1466C41.6871 37.4994 41.8338 37.617 42.1274 37.4994C42.3623 37.4112 42.5678 37.47 42.5678 37.6464C42.5678 37.8227 42.7146 37.8521 42.8907 37.7345C43.0962 37.617 43.4778 37.8521 43.7714 38.2343C44.2411 38.8516 44.3879 38.9104 44.9457 38.5576C45.2686 38.3225 45.5035 38.2931 45.3861 38.4401C45.2099 38.734 46.5016 40.0568 46.7365 39.8217C46.8246 39.7335 47.3823 39.9099 47.9988 40.2626C48.586 40.586 49.2318 40.8211 49.408 40.7624C49.7603 40.6448 51.0813 41.8206 51.0813 42.2322C51.0813 42.3498 51.463 42.7319 51.9327 43.0259C52.4318 43.3786 52.9308 44.0547 53.1363 44.7308C53.3125 45.3776 53.6354 45.9361 53.8703 46.0243C54.1932 46.1713 54.1638 46.3476 53.7235 47.0825C53.3418 47.7293 53.2538 48.1702 53.4299 48.8169C53.5767 49.3167 53.5767 49.6694 53.4299 49.6694C53.2831 49.6694 53.2244 49.8752 53.3125 50.1104C53.4299 50.3749 53.3125 50.5513 53.0189 50.5513C52.7547 50.5513 52.5492 50.6983 52.5492 50.8453C52.5492 51.0216 52.2263 51.4626 51.8153 51.8447C51.4043 52.2269 51.0813 52.7266 51.0813 52.9618C51.0813 53.1676 50.7878 53.3733 50.4648 53.4027C49.6428 53.4615 47.9401 54.2846 47.7933 54.6962C47.6759 55.0783 44.4173 55.3429 44.2118 54.9901C44.1237 54.8432 43.4485 54.7844 42.7146 54.8138C41.9806 54.8432 41.3935 54.7844 41.3935 54.6668C41.3935 54.4316 40.3073 54.4904 40.0431 54.755C39.9256 54.8726 39.6321 54.7844 39.3972 54.608C38.8981 54.1964 38.6633 54.1376 35.7863 53.9319C34.5826 53.8731 33.1735 53.5791 32.6744 53.3439C31.735 52.8736 29.7387 52.8442 29.4452 53.2852C29.3864 53.4027 29.0929 53.3439 28.858 53.1382C28.5938 52.9324 27.625 52.756 26.6856 52.7266C25.5113 52.6972 24.8361 52.5502 24.4838 52.1681C24.0728 51.7566 23.6325 51.6978 22.282 51.8153C20.9316 51.9329 20.55 51.8447 20.4032 51.492C20.3151 51.2568 20.1683 51.1392 20.0509 51.2274C19.9628 51.345 19.728 51.3156 19.5518 51.1686C18.9353 50.6983 17.3207 50.4631 17.3207 50.8747C17.3207 51.0804 16.939 50.8747 16.44 50.4043C15.706 49.6988 15.3244 49.5812 13.9446 49.5518C13.0639 49.5224 12.33 49.4342 12.33 49.2873C12.33 49.1697 12.0658 49.0815 11.7722 49.0815C11.4493 49.0815 11.1557 48.9345 11.097 48.7287C11.0089 48.523 10.1576 48.376 8.77777 48.3466C7.57413 48.3172 6.54663 48.2584 6.45856 48.1996C6.37049 48.1702 6.10627 48.1114 5.87142 48.082C5.22556 48.0232 5.34299 47.2001 6.0182 47.0825C6.34113 47.0238 7.0457 46.7886 7.57413 46.5534C8.10256 46.3182 8.63098 46.1713 8.77777 46.2595C9.24748 46.5534 11.1557 45.5539 11.4786 44.8778C11.7135 44.3781 12.0364 44.2311 12.829 44.2017C13.4162 44.2017 13.9446 44.0547 14.0033 43.8784C14.062 43.702 14.385 43.6138 14.7079 43.702C15.1483 43.8196 15.3538 43.702 15.4712 43.2316C15.5593 42.8789 15.7648 42.7025 15.9703 42.8201C16.1464 42.9377 16.528 43.0847 16.8216 43.1141C17.4088 43.2022 19.9628 42.0852 19.9628 41.7324C19.9628 41.6148 20.4032 41.5561 20.9316 41.5855C21.4307 41.6148 22.3407 41.4385 22.8985 41.1445C23.4563 40.8799 24.3077 40.7036 24.7774 40.7624C25.8049 40.9093 27.1847 40.3802 27.4195 39.7629C27.5076 39.5277 27.7131 39.4395 27.8892 39.5277C28.036 39.6159 28.1828 39.5277 28.1828 39.3219C28.1828 39.0574 28.5938 38.9104 29.3277 38.9104C29.9736 38.881 30.7075 38.6458 30.9717 38.4107C31.2066 38.1461 31.6176 37.9991 31.8524 38.0873C32.0873 38.2049 32.3809 38.0579 32.4689 37.7933C32.5864 37.4994 32.9974 37.323 33.6139 37.323C34.4946 37.323 34.612 37.2054 35.0524 35.9414C35.3166 35.1771 35.4046 34.501 35.2872 34.4128C35.1404 34.3246 34.9643 33.6779 34.8469 32.9724C34.7294 32.0611 34.7881 31.7377 35.0817 31.7377C35.6101 31.7377 36.4028 30.0915 36.4909 28.8569C36.5202 28.3277 36.6376 27.9162 36.7551 27.9162C36.8431 27.9162 37.0193 27.3871 37.1367 26.7404C37.2541 26.0936 37.4303 25.5645 37.5477 25.5645C37.9294 25.5645 38.8101 23.1834 38.6633 22.4485C38.6046 22.0664 38.6633 21.743 38.7807 21.743C39.1917 21.743 39.8376 19.9498 39.8082 18.9503C39.7789 18.3918 40.0137 17.8333 40.4247 17.4805C41.0118 16.8926 41.3641 15.7756 41.4816 14.1C41.5109 13.6884 41.7164 13.2181 41.9806 13.0123C42.2155 12.8065 42.3036 12.6302 42.1861 12.6302C42.0393 12.6302 42.1568 12.4244 42.3916 12.1598C42.6558 11.9246 42.8613 11.3073 42.8613 10.7782C42.8613 10.2785 43.2136 9.36718 43.6246 8.74985C44.065 8.13253 44.4173 7.6328 44.4466 7.6328C44.476 7.6328 44.5053 7.92676 44.5347 8.27951C44.5641 8.60287 44.7402 9.01442 44.9457 9.13201C45.1512 9.24959 45.2099 9.54355 45.1218 9.77872C45.0338 10.0433 45.1512 10.396 45.3567 10.5724C45.5916 10.7782 45.7383 11.0428 45.6503 11.1603C45.4448 11.4837 46.0906 12.9241 46.7365 13.6296C47.0888 14.0118 47.1475 14.2763 46.9713 14.3939C46.7658 14.5115 46.8246 14.7173 47.1181 14.9819C47.353 15.1876 47.5585 15.7168 47.5585 16.1871C47.5585 16.6868 47.7053 17.0396 47.9401 17.0396C48.2043 17.0396 48.2924 17.3336 48.2043 17.9215C48.1456 18.3918 48.2043 18.8034 48.3511 18.8034C48.4979 18.8034 48.8208 19.4795 49.0263 20.3026C49.2612 21.1257 49.6135 21.8606 49.819 21.9488C50.0245 22.037 50.2006 22.2133 50.2006 22.3897C50.2006 22.5367 50.0832 22.5661 49.907 22.4779C49.7603 22.3897 49.6135 22.4485 49.6135 22.6249C49.6135 22.8013 49.819 23.007 50.0538 23.0952C50.4942 23.2716 50.9345 24.3005 50.8465 24.8884C50.7878 25.0942 50.8758 25.2705 51.052 25.2705C51.1988 25.2705 51.3749 25.7703 51.463 26.3582C51.6685 27.9162 51.9033 28.8863 52.1675 29.0627C52.3143 29.1508 52.4024 29.3566 52.4318 29.533C52.4611 30.3267 52.9895 31.6201 53.4886 32.1493C53.8115 32.502 53.8996 32.8548 53.7528 33.0018C53.5767 33.1781 53.606 33.6191 53.7822 34.1482C53.9583 34.6185 54.017 35.5004 53.8996 36.1178C53.7822 36.9996 53.8703 37.4112 54.3106 37.9991C54.6335 38.4107 54.8977 38.8516 54.8977 38.9986C54.8977 39.1162 55.162 39.4101 55.5142 39.6159C56.2482 40.0862 61.327 40.3508 61.7967 39.9687C62.0609 39.7629 62.2664 39.7923 62.5306 40.1156C62.7361 40.3508 63.0003 40.4684 63.1764 40.3802C63.3232 40.292 63.5874 40.3508 63.7929 40.4978C64.2039 40.8211 65.1434 40.7918 65.7305 40.439C65.936 40.292 66.2002 40.3214 66.3177 40.4684C66.6699 40.9681 68.3139 41.4679 69.4589 41.4091C70.1047 41.3503 71.1322 41.4679 71.7781 41.6736C72.4239 41.85 73.4221 42.0558 73.9799 42.1146C74.567 42.1734 75.1835 42.3204 75.389 42.4379C75.5945 42.5555 75.7413 42.5555 75.7413 42.4379C75.7413 42.3498 75.9174 42.3792 76.1229 42.5261C76.6807 42.9671 78.677 42.9965 78.677 42.5555C78.677 42.3204 78.8238 42.3792 78.9999 42.7025C79.1761 42.9671 79.4403 43.1435 79.5871 43.0259C79.7338 42.9377 80.0568 43.0259 80.2916 43.2022C80.5265 43.3786 80.8201 43.4962 80.9375 43.408C81.3485 43.1435 84.8126 44.0253 85.2823 44.4957C85.7227 44.9366 85.7227 44.9954 85.2823 45.4364C85.0475 45.7009 84.6365 45.8185 84.4016 45.7303C84.1668 45.6421 83.9613 45.7009 83.9613 45.8479C83.9613 46.0243 83.7264 46.1419 83.4622 46.1419C82.8163 46.1713 81.9063 46.818 81.9063 47.2883C81.9063 47.4941 81.7595 47.5529 81.554 47.4353C80.5558 46.818 78.4715 47.4353 77.6788 48.523C77.4146 48.9051 77.0623 49.0815 76.7981 48.9933C76.5633 48.9051 76.2697 48.9345 76.1523 49.1109C76.0642 49.2873 75.8 49.3461 75.5651 49.2579C75.3596 49.1697 74.978 49.3167 74.7431 49.5518C74.4789 49.787 74.0386 49.9634 73.7744 49.9046C73.4221 49.8458 73.2166 50.0222 73.1579 50.4043C73.0991 50.9041 72.8936 50.9922 72.0716 50.9041C71.3377 50.8159 71.0148 50.9041 70.868 51.2568C70.7799 51.5214 70.5157 51.7272 70.2809 51.7272C70.046 51.7272 69.8699 51.8447 69.8699 52.0211C69.8699 52.1681 69.6056 52.3151 69.2827 52.3151C68.9011 52.3151 68.6956 52.5209 68.6956 52.8442C68.6956 53.2852 68.5194 53.3733 67.8149 53.2558C66.8167 53.1088 64.9966 54.1082 64.7324 54.9607C64.6149 55.2841 64.2627 55.5781 63.9104 55.5781C62.2664 55.6956 61.8554 55.8132 61.1215 56.4012C60.6811 56.7539 60.094 57.1067 59.8297 57.2243C59.3894 57.3418 59.3013 57.7534 59.3013 59.5172C59.3013 61.1633 59.4187 61.6925 59.7417 61.8395C59.9765 61.9276 60.182 62.3392 60.182 62.7507C60.182 63.1623 60.3288 63.4856 60.505 63.4856C60.7105 63.4856 60.7692 63.7502 60.6517 64.1912C60.5343 64.6909 60.6224 64.9555 60.9453 65.073C61.2976 65.22 61.3563 65.4552 61.2095 66.0431C61.0921 66.5135 61.1508 66.8956 61.3857 67.0426C61.5912 67.1602 61.7967 67.8657 61.826 68.63C61.8847 69.3649 62.1196 70.1586 62.3544 70.4232C62.5893 70.6583 62.7361 71.0405 62.648 71.2757C62.5306 71.5108 62.6187 71.7166 62.7948 71.7166C62.9709 71.7166 63.0884 71.8048 63.0884 71.9224C62.9416 72.7749 63.1764 74.0683 63.4113 73.9213C63.5874 73.8037 63.7049 74.1859 63.7342 74.862C63.7636 76.1554 63.7929 76.273 64.1452 77.4489C64.2627 77.9192 64.5562 78.5071 64.7911 78.7129C65.2314 79.1832 65.3195 79.7712 64.8792 79.5066C64.3801 79.2126 64.5562 79.6242 65.1727 80.3003C65.4663 80.6531 65.6718 81.0352 65.5837 81.1822C65.4957 81.2998 65.5544 81.4174 65.7012 81.4174C65.8773 81.4174 65.936 81.7113 65.8186 82.0641C65.7305 82.4462 65.7892 82.6226 65.9654 82.505C66.1709 82.358 66.2296 82.505 66.1415 82.8872C66.0534 83.2399 66.1709 83.7103 66.4351 84.0042C66.9929 84.6509 66.6699 85.5916 65.8186 85.7386C65.4663 85.768 65.1727 85.6798 65.1727 85.5328C65.1727 85.0919 64.0572 84.063 63.5581 84.063C63.3232 84.063 63.1177 83.916 63.1177 83.7397C63.1177 83.5633 62.8535 83.5045 62.5306 83.6221C62.1783 83.7397 61.9434 83.6809 61.9434 83.4751C61.9434 82.7696 59.5655 81.2116 58.5674 81.241C58.2445 81.2704 57.6573 80.9176 57.2463 80.4473C56.8647 80.0063 56.3656 79.6536 56.1601 79.6536C55.9546 79.6536 55.7785 79.5066 55.7785 79.3302C55.7785 79.1538 55.5142 79.0657 55.1913 79.1538C54.751 79.2714 54.4867 79.0951 54.1932 78.5365C53.6648 77.5371 52.696 76.714 51.874 76.5376C51.5217 76.4788 50.9639 76.126 50.6116 75.7439C50.2593 75.3617 49.5548 74.8914 49.0557 74.6562C48.5566 74.4504 48.1456 74.0977 48.1456 73.8919C48.1456 73.6567 47.9695 73.4804 47.764 73.4804C47.5585 73.4804 47.2355 73.2158 47.0594 72.8924C46.5897 72.1869 45.0044 71.3344 44.5934 71.599C44.3879 71.7166 44.2998 71.452 44.3586 70.8935C44.4466 70.2174 44.2411 69.8058 43.5072 69.1297C42.9788 68.63 42.5091 68.2184 42.4797 68.2478C42.4503 68.2772 42.1568 68.189 41.8045 68.0715C41.0999 67.8657 37.7532 69.2179 38.0174 69.6295C38.1936 69.9528 36.5202 71.4226 35.9624 71.4226C35.2285 71.4226 33.7606 72.4515 33.4084 73.2158C33.1735 73.7449 32.9093 73.9507 32.5277 73.8331C32.2341 73.7743 31.9992 73.8625 31.9992 74.0389C31.9992 74.2153 31.7937 74.3623 31.5589 74.3623C31.324 74.3623 31.1185 74.4798 31.1185 74.6268C31.1185 74.7738 30.8249 74.9502 30.4727 75.009C30.0029 75.0678 29.8268 75.2735 29.8855 75.6263C29.9442 75.9203 29.8268 76.126 29.5919 76.0966C28.5057 75.9497 27.8305 76.2142 26.8617 77.1549C26.1865 77.7722 25.8636 78.3014 26.0104 78.5071C26.1572 78.7717 26.0397 78.8011 25.5994 78.7129C25.2471 78.5953 24.9535 78.6247 24.9535 78.7717C24.9535 78.8893 24.66 79.0657 24.2783 79.1832C23.8967 79.2714 23.427 79.6536 23.2215 80.0651C22.9572 80.5061 22.4582 80.8588 21.871 80.947C20.8435 81.1528 18.7885 82.8284 18.7885 83.4457C18.7885 83.6515 18.6417 83.7103 18.495 83.6221C18.3188 83.5045 17.9959 83.5927 17.761 83.7691C17.2913 84.1512 17.262 84.1218 17.2033 82.5932C17.1739 82.0053 17.35 81.3586 17.6143 81.1234C18.2307 80.5061 18.7298 78.9775 18.6124 78.0074C18.583 77.5371 18.7298 77.0667 18.994 76.8609C19.2289 76.6846 19.4931 75.8909 19.6105 75.0678C19.728 74.0095 19.9628 73.451 20.4912 72.9806C21.1077 72.4515 21.2252 72.0694 21.2545 70.7171C21.2839 69.4237 21.4013 69.0415 21.783 68.8946C22.3407 68.7182 22.8398 66.8074 22.4288 66.4547C22.282 66.3371 21.7242 66.0431 21.1958 65.8373C20.139 65.4258 19.3757 65.7786 19.3757 66.7486C19.3757 67.0426 19.2289 67.366 19.0527 67.4541C18.8766 67.5717 18.8179 67.8363 18.906 68.0715C18.994 68.2772 18.8766 68.6594 18.6417 68.8946C18.3775 69.1297 18.2307 69.6295 18.2895 69.9822C18.3482 70.3644 18.1427 70.8935 17.7904 71.2463C17.3794 71.6578 17.3207 71.8636 17.5849 71.9518C17.8491 72.04 17.7904 72.2457 17.35 72.7161C17.0271 73.0394 16.7629 73.3922 16.7629 73.4804C16.7629 73.5686 16.7042 73.8331 16.6161 74.0683C16.2932 75.0972 16.029 76.3024 16.0583 76.7727C16.0583 77.0373 15.9409 77.2431 15.7648 77.2137C15.5886 77.1843 15.4418 77.4783 15.4418 77.8898C15.4125 78.3014 15.295 78.8011 15.1776 78.9775C15.0308 79.1832 15.0308 79.3596 15.1776 79.3596C15.295 79.3596 15.207 79.5066 14.9721 79.683C14.6492 79.9181 14.6198 80.0357 14.884 80.1239C15.1483 80.2415 15.0895 80.4473 14.6785 80.8882C14.385 81.2116 14.1795 81.7407 14.2382 82.0641C14.3263 82.4168 14.2675 82.5932 14.1795 82.4756C13.8565 82.1523 13.24 84.4158 13.4162 85.3271C13.5336 85.9444 13.5043 86.1501 13.2694 86.0032C13.0345 85.8562 12.9171 86.062 12.9171 86.5617C12.9171 87.0908 13.152 87.4142 13.7391 87.6494C14.8253 88.0903 17.3794 88.1197 17.5555 87.6494C17.6143 87.473 17.9078 87.2966 18.2307 87.2966C18.5243 87.2966 18.7885 87.179 18.7885 87.032C18.7885 86.8851 19.0527 86.6499 19.405 86.5617C19.728 86.4441 20.139 86.0326 20.3151 85.6504C20.4912 85.2683 20.7555 84.9449 20.9022 84.9449C21.049 84.9449 21.0784 85.1213 20.961 85.2977C20.8729 85.5034 21.1077 85.3271 21.4894 84.8861C21.9004 84.4452 22.3114 84.1512 22.4288 84.2688C22.5169 84.357 22.605 84.2982 22.605 84.1218C22.605 83.916 22.8105 83.7691 23.0453 83.7691C23.3095 83.7691 23.5737 83.5633 23.6618 83.3281C23.7792 83.0929 24.0435 82.8872 24.249 82.8872C24.4838 82.8872 24.748 82.6814 24.8361 82.4462C24.9535 82.2111 25.1297 82.0641 25.2471 82.1523C25.5407 82.3286 27.3021 81.3586 27.3021 81.0352C27.3021 80.5649 28.1828 79.9181 28.5057 80.1239C28.7112 80.2415 28.7993 80.2121 28.7112 80.0651C28.5644 79.83 29.3864 78.8011 29.5626 78.9775C29.7974 79.1832 30.5607 79.0363 30.4139 78.8305C30.3259 78.6835 30.8837 78.3014 31.6469 77.978C32.4102 77.6252 33.5551 76.8903 34.1716 76.3024C34.7881 75.7145 35.3753 75.3029 35.4634 75.3617C35.5221 75.4499 35.7569 75.3617 35.9918 75.156C36.7257 74.5092 37.1367 74.1859 37.4303 74.0389C37.6064 73.9801 37.6945 73.8331 37.6651 73.7155C37.6358 73.6274 38.0174 73.4216 38.5459 73.304C39.0449 73.2158 39.7495 72.9218 40.0724 72.7161C40.8063 72.1869 40.8063 72.1869 41.8045 73.0394C42.2742 73.4216 42.7439 73.6861 42.8907 73.6274C43.0081 73.5392 43.1843 73.598 43.3017 73.7743C43.4191 73.9507 43.6246 73.9801 43.8008 73.8919C44.0063 73.7743 44.0356 73.8331 43.9182 74.0389C43.7127 74.3329 45.7677 76.5082 46.2081 76.4494C46.2961 76.4494 46.7952 76.8315 47.3236 77.3019C47.852 77.8016 48.4685 78.1838 48.7328 78.1838C49.2612 78.2132 50.2593 78.9187 50.0245 79.1244C49.9364 79.2126 50.2006 79.3596 50.6116 79.4772C51.0226 79.5654 51.4043 79.9181 51.5217 80.2121C51.6098 80.5355 51.9033 80.8588 52.1382 80.947C52.373 81.0352 52.4905 81.0058 52.4024 80.8294C51.9914 80.1827 52.6079 80.5943 53.6941 81.7113C54.3106 82.358 55.0445 82.8872 55.2794 82.8872C55.5142 82.8872 55.7785 83.0341 55.8372 83.1811C55.8959 83.3575 56.2482 83.5339 56.6298 83.6221C57.0408 83.6809 57.4225 83.8572 57.5105 83.9748C57.5986 84.1218 58.039 84.3864 58.5087 84.5628C58.949 84.7685 59.3013 85.0625 59.3013 85.2095C59.3013 85.3565 59.5068 85.5622 59.771 85.6504C60.0059 85.7386 60.1233 85.7092 60.0352 85.5328C59.7417 85.0331 60.1233 85.2095 60.8866 85.8856C62.1196 87.032 62.5012 87.2966 62.9416 87.2966C63.1764 87.2966 63.4113 87.4142 63.47 87.5906C63.5287 87.7375 63.881 87.9139 64.292 88.0021C64.703 88.0609 64.9966 88.2667 64.9379 88.4431C64.9085 88.6194 65.1434 88.7664 65.4957 88.7664C65.8186 88.7664 65.9947 88.884 65.9067 89.0604C65.8186 89.2074 65.936 89.3543 66.1709 89.3543C66.4351 89.3543 66.6406 89.5013 66.6406 89.6483C66.6406 89.8247 66.8754 89.9423 67.169 89.8835C67.4332 89.8247 67.6387 89.9423 67.6094 90.148C67.5507 90.3538 67.8442 90.8535 68.2259 91.2651C68.7543 91.853 69.1946 92 70.2809 92C71.5139 92 71.6313 91.9412 71.6313 91.2651C71.6313 90.8829 71.7781 90.2362 71.9542 89.8247C72.4239 88.8546 72.0716 87.7081 71.0148 86.6793C70.5451 86.2089 70.2221 85.6798 70.3102 85.5034C70.4276 85.3565 70.3396 85.0037 70.1047 84.7391C69.8992 84.4746 69.7524 84.21 69.8111 84.1512C69.8405 84.0924 69.8111 83.7397 69.6937 83.3281C69.5176 82.652 69.2534 82.4462 68.6075 82.5638C68.4607 82.5932 68.4607 82.4462 68.5782 82.2404C69.224 81.2116 68.813 79.6242 67.58 78.3014C67.169 77.8604 67.0809 77.5664 67.2864 77.2137C67.4626 76.8903 67.4332 76.714 67.2571 76.714C67.1103 76.714 67.0516 76.4494 67.1397 76.126C67.2277 75.7733 67.1397 75.5381 66.9635 75.5381C66.758 75.5381 66.6699 75.4205 66.7874 75.2735C66.8754 75.1266 66.7874 74.8326 66.5819 74.5974C66.3764 74.3917 66.2002 73.5098 66.1709 72.6573C66.1415 70.9817 65.6131 69.6589 64.9672 69.6589C64.6737 69.6589 64.6443 69.5119 64.8204 69.1591C64.9966 68.8946 64.9966 68.3066 64.8498 67.7775C64.7324 67.2778 64.6443 66.6017 64.6737 66.3077C64.703 65.9549 64.4388 65.5728 63.9984 65.3376C63.5874 65.1318 63.4407 64.9555 63.6462 64.9555C63.8517 64.9555 63.9984 64.5439 63.9984 63.9266C63.9984 63.3681 63.881 62.8977 63.7342 62.8977C63.5874 62.8977 63.3819 62.4274 63.2939 61.8689C63.1764 61.3103 62.8829 60.7518 62.648 60.6048C62.2664 60.399 62.3544 60.2227 63.1764 59.5466C63.7049 59.135 64.292 58.6353 64.4975 58.4883C64.703 58.3119 64.9379 58.1943 65.0259 58.1943C65.1434 58.1943 65.4076 57.9886 65.6424 57.7534C65.8773 57.5182 66.2589 57.4006 66.4938 57.4888C66.758 57.6064 66.9342 57.4888 66.9342 57.2243C66.9342 56.8127 67.9617 56.2248 68.4901 56.3718C68.6075 56.4012 68.6956 56.2542 68.6956 56.0484C68.6956 55.8426 68.9891 55.6663 69.3121 55.6369C70.1634 55.5487 71.9249 54.6962 71.9249 54.3728C71.9249 54.1964 72.1597 54.0789 72.4826 54.0789C72.7762 54.0789 73.1872 53.8731 73.3927 53.6379C73.5982 53.4027 74.0679 53.197 74.4496 53.197C74.8312 53.197 75.2422 53.0206 75.3596 52.8148C75.4771 52.6384 75.8 52.4327 76.0349 52.4033C77.2385 52.2563 77.9137 51.9917 78.4128 51.4038C78.7651 50.9922 78.9706 50.9041 78.9706 51.1392C78.9706 51.4038 79.1761 51.3156 79.5577 50.9041C79.91 50.5513 80.3797 50.3455 80.7613 50.4043C81.1136 50.4631 81.5833 50.3455 81.7888 50.1104C82.0237 49.8752 82.376 49.7576 82.6108 49.8458C82.8163 49.934 83.1686 49.787 83.3741 49.5518C83.5796 49.2873 83.8438 49.1403 83.9613 49.2285C84.2548 49.4049 85.4878 48.7875 86.163 48.082C86.5153 47.7293 86.7502 47.6705 86.897 47.8762C87.0144 48.1114 87.2786 48.0232 87.6309 47.6117C87.9245 47.2883 88.2768 47.1119 88.3942 47.2001C88.541 47.2883 88.6584 47.2295 88.6584 47.0825C88.6584 46.9062 88.952 46.8474 89.3043 46.965C89.7153 47.0532 89.862 47.0238 89.7153 46.7886C89.5685 46.5534 89.774 46.4358 90.3318 46.4358C90.7721 46.4358 91.3886 46.2595 91.6528 46.0537C92.0638 45.7303 92.0932 45.4658 91.829 44.4663C91.418 42.7907 90.596 41.9676 89.5391 42.144C89.0694 42.2028 88.6584 42.144 88.5997 41.997C88.541 41.8794 88.0125 41.7324 87.4254 41.6736C86.8089 41.6442 86.3098 41.5267 86.3098 41.4091C86.3098 41.2915 85.9869 41.2327 85.5759 41.2915C85.1649 41.3209 84.7245 41.1739 84.6071 40.9681C84.4897 40.733 83.7851 40.5272 82.9925 40.4978C82.2292 40.439 81.6127 40.3214 81.6127 40.2332C81.6127 39.9099 79.2054 39.7041 78.5008 39.9687C78.0311 40.1744 77.7376 40.1156 77.5908 39.8805C77.2972 39.3807 74.567 38.7634 74.567 39.175C74.567 39.3219 74.3909 39.2925 74.156 39.1162C73.9211 38.9104 72.9524 38.7046 72.0129 38.6164C71.0735 38.5282 70.2809 38.3813 70.2221 38.2343C70.1928 38.1167 69.8405 38.0579 69.4589 38.1167C69.0772 38.2049 68.4607 38.1167 68.1084 37.9109C67.6094 37.6464 67.4039 37.6464 67.2277 37.8815C67.0809 38.1461 66.9342 38.1167 66.6993 37.8227C66.4644 37.5582 65.8479 37.4406 64.8792 37.4994C64.0572 37.5288 63.4113 37.4406 63.4113 37.2642C63.4113 37.1172 63.059 37.0584 62.5306 37.176C62.0315 37.2936 61.6499 37.2348 61.6499 37.0878C61.6499 36.9408 61.1215 36.8527 60.4756 36.9115C59.8297 36.9408 59.2426 36.8527 59.1545 36.7057C58.8903 36.2941 58.0683 36.3823 58.2738 36.7939C58.3912 36.9996 58.2445 36.9115 58.0096 36.5881C57.4518 35.9414 56.9527 34.2658 56.9527 33.1193C56.9527 32.6784 56.8353 32.3256 56.6592 32.3256C56.5124 32.3256 56.3656 32.0611 56.3656 31.7671C56.3656 31.4438 56.2188 31.091 56.0427 31.0028C55.8665 30.8852 55.8078 30.6207 55.8959 30.3855C55.984 30.1797 55.9252 29.9151 55.7491 29.7976C55.573 29.7094 55.5142 29.4448 55.6023 29.239C55.6904 29.0039 55.573 28.6805 55.3381 28.5041C55.1326 28.3277 54.8684 27.7104 54.751 27.0931C54.6335 26.5052 54.3693 25.6527 54.1345 25.2117C53.8996 24.7414 53.7822 24.2417 53.8703 24.0947C54.1638 23.6244 53.3712 21.8018 52.7253 21.449C52.2556 21.2139 52.1088 20.8317 52.0501 19.744C52.0208 19.0091 51.874 18.333 51.6978 18.2742C51.5217 18.2154 51.4336 18.0685 51.5217 17.9215C51.6098 17.8039 51.463 17.5393 51.2281 17.3336C50.9933 17.1278 50.7878 16.5987 50.7878 16.1283C50.7878 15.1288 49.7015 12.6302 49.2612 12.6302C49.085 12.6302 49.0263 12.4244 49.1144 12.1892C49.2318 11.954 49.1731 11.6895 48.997 11.5719C48.8208 11.4837 48.7621 11.2191 48.8502 11.0134C49.0263 10.543 48.0869 9.39657 47.5585 9.39657C47.2943 9.39657 47.2649 9.27899 47.4998 9.01442C48.175 8.22072 46.8246 4.72257 45.8264 4.69317C45.5328 4.69317 45.5035 4.60499 45.7677 4.31102C45.9732 4.04646 46.0026 3.60551 45.7971 2.9C45.6209 2.28268 45.6209 1.87113 45.7677 1.81234C46.1493 1.69476 45.7971 0.81287 45.2393 0.371927C44.6521 -0.098413 42.0981 -0.127809 41.8045 0.313134ZM45.5035 37.2936C45.5035 37.47 45.3861 37.6758 45.2099 37.7639C45.0631 37.8521 44.9163 37.7345 44.9163 37.4994C44.9163 37.2348 45.0631 37.029 45.2099 37.029C45.3861 37.029 45.5035 37.1466 45.5035 37.2936ZM74.2734 51.4626C74.2734 51.8741 73.7744 51.7566 73.5982 51.3156C73.4808 51.0216 73.5689 50.9335 73.8624 51.051C74.0679 51.1392 74.2734 51.3156 74.2734 51.4626ZM72.512 52.3151C72.512 52.4621 72.4533 52.609 72.3946 52.609C72.3065 52.609 72.1597 52.4621 72.0716 52.3151C71.9836 52.1387 72.0423 52.0211 72.1891 52.0211C72.3652 52.0211 72.512 52.1387 72.512 52.3151ZM62.8242 64.5439C62.8242 64.7791 62.7067 64.8967 62.5306 64.8085C62.3838 64.7203 62.237 64.5145 62.237 64.3381C62.237 64.1912 62.3838 64.0736 62.5306 64.0736C62.7067 64.0736 62.8242 64.2793 62.8242 64.5439ZM63.7049 65.6904C63.7049 65.7492 63.4994 65.9255 63.2645 66.1313C62.9122 66.4253 62.8242 66.4253 62.8242 66.0725C62.8242 65.8373 63.0297 65.6316 63.2645 65.6316C63.4994 65.6316 63.7049 65.661 63.7049 65.6904Z"
          fill="white"/>
</svg>
