<svg width="92" height="105" viewBox="0 0 92 105" fill="none" xmlns="http://www.w3.org/2000/svg">
    <path d="M85.4 0.0566288C83.6692 0.242482 83.1615 0.428337 82.6307 1.00913C82.3076 1.3576 82.0538 1.75253 82.0538 1.91516C82.0538 2.05455 81.8692 2.2404 81.6384 2.31009C81.1999 2.44948 80.7153 3.88986 80.5769 5.49284C80.5307 5.95748 80.4615 6.42211 80.3922 6.53827C80.1615 6.95644 79.9076 8.16448 79.9076 9.00082C79.8846 9.60484 79.7922 9.88362 79.5615 9.88362C79.3769 9.88362 78.823 10.3018 78.3153 10.8361C77.8307 11.3472 77.1845 11.7886 76.9076 11.8351C76.123 11.928 75.1307 12.4856 75.1307 12.834C75.1307 12.9967 74.9691 13.1361 74.7845 13.1361C74.5999 13.1361 74.4384 13.2522 74.4384 13.3916C74.4384 13.531 74.2307 13.6007 73.9768 13.531C73.723 13.4613 73.5153 13.5078 73.5153 13.6239C73.5153 13.7401 73.3999 13.833 73.2845 13.833C72.8922 13.833 71.6691 14.8087 71.8076 15.0411C71.8768 15.134 71.5768 15.2269 71.1384 15.2269C70.5153 15.2269 70.123 15.436 69.3845 16.1562C68.8537 16.6905 68.4845 17.2016 68.5537 17.3178C68.623 17.4107 68.346 17.5733 67.9306 17.6662C67.1229 17.8289 64.9768 19.8732 64.9768 20.4773C64.9768 20.8257 64.1691 20.9419 63.9614 20.5934C63.7076 20.2217 60.3845 18.642 59.7845 18.642C59.4845 18.642 59.1845 18.5026 59.1152 18.34C59.046 18.1541 58.8383 18.0147 58.6306 18.0147C58.446 18.0147 58.2844 17.8985 58.2844 17.7824C58.2844 17.643 58.0306 17.5501 57.7075 17.5501C57.3844 17.5501 57.1306 17.4339 57.1306 17.2945C57.1306 17.1319 56.8767 17.0854 56.5075 17.1551C56.1152 17.2248 55.746 17.1087 55.4229 16.8067C55.1229 16.5279 54.7537 16.4117 54.4306 16.5047C54.1537 16.5743 53.8767 16.5279 53.8075 16.4117C53.646 16.1794 52.3998 16.2026 52.146 16.435C52.0536 16.5279 51.7075 16.3885 51.3383 16.1329C50.7844 15.738 50.3921 15.6915 48.7767 15.738C46.5613 15.8077 46.3075 16.0168 46.2844 17.4804C46.2844 18.3167 46.3536 18.4793 46.7459 18.4793C47.1382 18.4793 47.2075 18.642 47.2075 19.4783V20.4773L48.4536 20.454C49.1229 20.454 49.8382 20.3146 50.0459 20.152C50.3229 19.9197 50.4152 19.9197 50.5075 20.1985C50.5767 20.3843 50.969 20.5237 51.5229 20.5237C53.969 20.5702 59.2768 21.4762 59.7383 21.9409C60.0614 22.2661 59.4383 24.0317 59.0691 23.8923C58.8844 23.8226 58.746 23.9156 58.746 24.1479C58.746 24.357 58.6075 24.5196 58.446 24.5196C58.0537 24.5196 57.3614 25.3559 57.3614 25.8206C57.3614 26.0064 57.2691 26.1226 57.1537 26.0296C57.0383 25.9599 56.8767 26.0064 56.7844 26.1458C56.7152 26.2619 56.4844 26.3781 56.2998 26.3781C55.6998 26.3781 54.6152 27.3538 54.4767 28.0276C54.3844 28.469 54.2229 28.6316 53.9921 28.5387C53.8306 28.469 53.5998 28.5851 53.5306 28.7942C53.4613 29.0033 53.2998 29.1194 53.2075 29.0498C52.9306 28.8639 52.0998 30.1416 52.2383 30.5366C52.3075 30.7689 52.2383 30.8154 51.9613 30.7224C51.7536 30.6295 51.5921 30.6527 51.5921 30.7457C51.5921 30.8386 51.3613 31.0244 51.0844 31.1406C50.4844 31.3962 49.469 32.8365 49.6536 33.1385C49.7229 33.2547 49.6075 33.3476 49.3998 33.3476C49.1921 33.3476 48.7767 33.6264 48.4536 33.9749C48.1305 34.3233 47.7152 34.6254 47.5305 34.6254C47.3459 34.6254 47.1152 34.7415 47.0228 34.8809C46.9305 35.0203 46.6998 35.1829 46.469 35.2758C46.2613 35.3455 46.0305 35.7172 45.9382 36.1122C45.869 36.5071 45.7075 36.8091 45.6382 36.8091C45.1536 36.7394 44.8998 36.8788 44.8998 37.2041C44.8998 37.3899 44.8075 37.5061 44.6921 37.4132C44.5767 37.3435 44.4151 37.4829 44.3228 37.7384C44.2536 37.9939 44.0459 38.2495 43.8613 38.3192C43.6767 38.3889 43.5844 38.598 43.6536 38.7838C43.7228 38.9929 43.5844 39.1788 43.2382 39.2717C42.2921 39.5737 41.0228 41.0838 41.1613 41.7575C41.1844 41.8504 40.9997 41.9898 40.7459 42.0595C40.492 42.1524 40.3305 42.315 40.3997 42.4312C40.492 42.5474 40.3767 42.6403 40.192 42.6403C39.9844 42.6403 39.8228 42.7797 39.8228 42.9655C39.8228 43.1514 39.6613 43.3605 39.4536 43.4302C39.2459 43.5231 39.1305 43.7322 39.2228 43.918C39.292 44.1503 39.1997 44.2665 38.9228 44.2665C38.2536 44.2665 37.2613 45.1958 36.7997 46.218C36.5689 46.7523 36.3151 47.124 36.2228 47.0775C35.992 46.9381 34.9766 47.7745 34.9766 48.0997C34.9766 48.2623 34.8151 48.4482 34.6305 48.5411C34.4459 48.6108 34.2843 48.9361 34.2843 49.2613C34.2843 49.5866 34.2151 49.8189 34.1228 49.7956C33.7766 49.7027 32.8997 50.0976 32.8997 50.33C32.8997 50.4694 32.6459 50.9108 32.3228 51.3289C31.9997 51.7471 31.7458 52.2582 31.7458 52.4673C31.7458 52.6996 31.6535 52.8622 31.5151 52.8622C31.3997 52.8622 30.9151 53.2107 30.4535 53.6521C29.8766 54.2097 29.6228 54.6278 29.6228 55.1622C29.5997 55.5571 29.5074 55.8823 29.3689 55.8823C28.9766 55.8823 27.5458 57.5086 27.6612 57.8338C27.7535 58.0429 27.592 58.2055 27.2689 58.2984C26.5074 58.4843 25.4458 59.9711 25.4689 60.7842C25.4689 61.1559 25.3997 61.4115 25.2843 61.3418C25.1689 61.2721 24.892 61.4347 24.6612 61.7135C24.4304 61.9923 24.0612 62.4104 23.8535 62.6428C23.6227 62.8983 23.5073 63.2468 23.5997 63.4559C23.692 63.7346 23.6689 63.8043 23.4843 63.6882C23.0458 63.4094 21.7073 64.6871 21.2458 65.8255C21.0612 66.2437 20.7612 66.6386 20.5535 66.7083C20.3689 66.778 20.2073 66.9406 20.2073 67.08C20.2073 67.1962 19.8381 67.6376 19.3996 68.0557C18.9612 68.4971 18.5919 68.9385 18.5919 69.0779C18.5919 69.2173 18.4535 69.4264 18.2919 69.5193C17.8535 69.7981 17.0919 71.0526 17.1612 71.3779C17.2073 71.5405 17.0458 71.6799 16.815 71.6799C16.4458 71.6799 15.7304 72.4465 15.7073 72.8879C15.7073 72.9576 15.4304 73.2829 15.1073 73.5849C14.7611 73.9101 14.415 74.3747 14.3458 74.6303C14.2534 74.8858 13.9304 75.2111 13.5842 75.3737C12.9842 75.6525 12.0381 76.6747 11.9919 77.1393C11.9919 77.2555 11.9457 77.5343 11.9457 77.7433C11.9227 77.9524 11.6688 78.1847 11.3919 78.2544C11.115 78.3474 10.9534 78.4635 11.0227 78.5564C11.115 78.6261 10.8611 78.9979 10.4688 79.3696C9.82266 79.9504 9.7765 80.0665 10.0765 80.415C10.2611 80.6473 10.2842 80.7635 10.1457 80.6705C9.54573 80.3221 7.99957 81.5766 7.97649 82.4129C7.97649 82.6452 7.88418 82.8311 7.74572 82.8311C7.63034 82.8311 7.58418 82.9705 7.65341 83.1563C7.74572 83.3654 7.60726 83.528 7.28418 83.5745C7.03033 83.621 6.79956 83.7139 6.79956 83.8068C6.79956 83.8997 6.54572 84.2714 6.22264 84.6199C5.92264 84.9684 5.71494 85.3866 5.7611 85.5492C5.83033 85.735 5.7611 85.8512 5.59956 85.828C4.99955 85.7583 4.74571 85.8744 3.93801 86.5714C3.43032 87.0128 3.13031 87.5006 3.13031 87.8491C3.13031 88.1976 2.99185 88.4067 2.78416 88.4067C2.59954 88.4067 2.438 88.4996 2.438 88.5925C2.438 88.8016 1.07646 89.3359 0.545685 89.3359C0.130298 89.3359 -0.169703 90.242 0.107221 90.5905C0.199529 90.7298 0.26876 91.2642 0.245683 91.7753C0.222606 92.2864 0.314915 92.8439 0.453377 93.0298C0.753378 93.4247 0.730301 93.5176 0.314915 93.7732C0.107221 93.9126 0.0841442 94.0287 0.26876 94.1449C0.384146 94.2611 0.499531 94.5863 0.499531 94.9115C0.499531 95.2368 0.384146 95.562 0.26876 95.655C0.0841442 95.7944 0.0841442 95.8873 0.245683 96.0034C0.522608 96.2125 0.545685 96.6539 0.314915 96.8862C0.222606 96.9792 0.245683 97.2579 0.384146 97.4903C0.499531 97.7458 0.522608 97.9317 0.407223 97.9317C0.314915 97.9317 0.222606 98.3498 0.199529 98.8609C0.199529 99.372 0.245683 99.7902 0.337992 99.7902C0.4303 99.7902 0.499531 99.9993 0.522608 100.255C0.545685 100.51 0.476454 100.719 0.361069 100.719C0.222606 100.719 0.245683 100.998 0.384146 101.347C0.684147 102.16 0.684147 102.137 0.337992 102.369C0.107221 102.508 0.0841442 102.671 0.291838 103.089C0.453377 103.391 0.591839 103.833 0.637993 104.088C0.707224 104.506 1.35338 104.785 2.78416 104.994C3.29185 105.064 4.49186 104.506 5.09186 103.879C5.36879 103.6 5.5534 103.554 5.66879 103.716C5.7611 103.902 5.94571 103.833 6.22264 103.53C6.45341 103.275 6.82264 103.112 7.07649 103.159C7.33034 103.205 7.51495 103.112 7.51495 102.95C7.51495 102.764 7.65341 102.648 7.81495 102.648C8.34573 102.694 10.515 102.299 10.515 102.16C10.515 102.067 10.9765 101.974 11.5534 101.951C12.1304 101.928 12.7534 101.742 12.9611 101.533C13.1919 101.3 13.4458 101.254 13.6765 101.393C13.8842 101.509 14.3458 101.509 14.715 101.393C15.0842 101.3 15.5458 101.277 15.7304 101.347C15.915 101.416 16.0535 101.37 16.0535 101.254C16.0535 101.161 16.5842 101.068 17.2073 101.091C17.8535 101.091 18.3612 101.045 18.3612 100.952C18.3612 100.882 18.615 100.812 18.9381 100.812C19.2612 100.812 19.515 100.905 19.515 100.998C19.515 101.091 19.7689 101.161 20.0919 101.138C20.5535 101.091 20.6689 100.952 20.6689 100.441C20.6689 100.046 20.7843 99.7902 20.9919 99.7902C21.1535 99.7902 21.5919 99.4185 21.915 98.9771C22.2612 98.5357 22.4689 98.164 22.3996 98.164C22.3304 98.164 22.5381 97.9084 22.8612 97.5832C23.1843 97.2579 23.4381 96.9095 23.4381 96.7933C23.4381 96.7004 23.715 96.4913 24.0612 96.3287C24.5458 96.0964 24.615 96.0034 24.3612 95.8408C24.1073 95.6782 24.1997 95.6085 24.6612 95.4923C25.0074 95.3994 25.2843 95.1671 25.2843 95.0045C25.2843 94.8186 25.4458 94.6095 25.6304 94.5398C25.815 94.4469 25.9766 94.2611 25.9766 94.0984C25.9766 93.9126 26.115 93.6338 26.2766 93.4712C26.4381 93.3086 26.6458 92.9833 26.7381 92.751C26.8304 92.5187 26.9689 92.3793 27.0843 92.4258C27.1766 92.4955 27.4535 92.147 27.6843 91.6359C27.9381 91.148 28.2843 90.7298 28.4458 90.7298C28.6304 90.7298 28.7228 90.6369 28.6535 90.5208C28.5843 90.4046 28.7689 90.1491 29.092 89.94C29.4151 89.7309 29.6458 89.4753 29.6228 89.3824C29.5997 89.2895 29.8997 88.8481 30.3151 88.4067C30.7074 87.9653 31.0305 87.5006 31.0305 87.3613C30.9612 86.7572 31.0766 86.5714 31.4458 86.7108C31.6766 86.8037 31.7689 86.7572 31.6766 86.6178C31.5843 86.4785 31.8151 86.0835 32.1382 85.7118C32.4843 85.3401 32.7843 84.9452 32.7843 84.8522C32.7843 84.7361 33.0612 84.4108 33.3843 84.1553C34.0074 83.6442 34.6536 82.622 34.5612 82.2967C34.5382 82.2038 34.6766 82.1341 34.8612 82.1341C35.0459 82.1341 35.2074 82.0412 35.2074 81.9483C35.2074 81.8321 35.4151 81.5069 35.6689 81.2049C35.9228 80.9028 36.1305 80.4614 36.1305 80.2291C36.1305 79.9736 36.2228 79.8342 36.3151 79.9039C36.4305 79.9736 36.7074 79.7413 36.9613 79.3928C37.192 79.0675 37.5843 78.6029 37.8151 78.3706C38.0228 78.1383 38.2074 77.8595 38.2074 77.7201C38.2074 77.604 38.3459 77.4181 38.5074 77.3252C38.692 77.2322 39.1074 76.6515 39.4536 76.0242C39.8228 75.4202 40.169 74.9323 40.2844 74.9323C40.3767 74.9323 40.5382 74.6768 40.6074 74.3747C40.6767 74.0495 40.9536 73.7475 41.2074 73.6546C41.4382 73.5849 41.5997 73.3758 41.5305 73.2132C41.4613 73.0505 41.6921 72.795 42.0151 72.6556C42.3382 72.5162 42.5921 72.2607 42.5921 72.1213C42.5921 71.9819 42.9613 71.5405 43.3998 71.1455C43.8382 70.7506 44.2074 70.3092 44.2074 70.1466C44.2074 69.984 44.3459 69.7052 44.5074 69.5426C44.669 69.3799 44.9228 68.9385 45.0844 68.5901C45.2228 68.2416 45.4536 67.986 45.569 68.079C45.6844 68.1487 45.8459 67.986 45.9382 67.7537C46.0075 67.4982 46.1921 67.3356 46.3536 67.4052C46.5152 67.4517 46.8152 67.2194 47.0228 66.8709C47.8536 65.5235 48.0152 65.2912 48.1998 65.1518C48.2921 65.0821 48.3613 64.9195 48.3382 64.8033C48.2459 64.2922 48.3844 64.0134 48.7306 64.0134C48.9152 64.0134 49.0305 63.9205 48.9382 63.8043C48.869 63.6882 49.0998 63.2932 49.4459 62.9448C49.8152 62.5731 50.0921 62.2246 50.0921 62.1549C50.0921 62.0852 50.3229 61.8064 50.5998 61.5276C50.8767 61.2489 51.269 60.761 51.4767 60.4357C51.7075 60.1105 52.0075 59.8317 52.146 59.8317C52.3075 59.8317 52.5152 59.4832 52.6306 59.0651C52.769 58.6701 53.0229 58.3217 53.2075 58.3217C53.3921 58.3217 53.5767 58.1823 53.5767 58.0197C53.5998 57.8803 53.6229 57.6247 53.646 57.4853C53.646 57.3692 53.7613 57.3227 53.8998 57.3924C54.0152 57.4621 54.246 57.2762 54.4075 56.951C54.546 56.6257 54.7537 56.347 54.846 56.347C54.9383 56.347 55.0537 56.1147 55.0998 55.8126C55.146 55.5339 55.3306 55.3015 55.5152 55.3015C55.6998 55.3015 55.8844 55.0692 55.9306 54.7672C55.9767 54.4884 56.2537 54.0703 56.5767 53.8844C56.8767 53.6753 57.0614 53.4198 57.0152 53.3036C56.946 53.2107 57.0844 52.9784 57.3614 52.8158C57.6152 52.6531 57.8229 52.3279 57.8229 52.0956C57.8229 51.8633 57.9152 51.7239 58.0306 51.7936C58.3075 51.9794 59.1152 50.9805 59.2998 50.237C59.3691 49.8886 59.5998 49.6098 59.7845 49.6098C60.1075 49.6098 60.2229 49.331 60.1537 48.8431C60.1537 48.7502 60.2229 48.6805 60.3383 48.6805C60.6152 48.6805 62.2075 47.0775 62.2075 46.7755C62.2075 46.6594 62.5075 46.2877 62.8768 45.9392C63.246 45.5907 63.6152 45.0796 63.7075 44.7776C63.7999 44.4756 63.9152 44.2897 63.9845 44.3594C64.0768 44.4291 64.3768 44.1503 64.6768 43.7322C64.9768 43.3372 65.2999 43.012 65.3922 43.0352C65.4845 43.0817 65.5537 43.0352 65.5537 42.9191C65.5537 42.5474 65.9691 42.1524 66.246 42.2686C66.6614 42.4312 68.4383 40.3403 68.4383 39.6899C68.4383 39.4111 68.7153 38.9 69.0383 38.5747C69.4307 38.1798 69.5922 37.8081 69.523 37.5061C69.4307 37.1344 69.4768 37.0647 69.846 37.1808C70.0999 37.2738 70.2845 37.2273 70.2845 37.0879C70.2845 36.9485 70.423 36.8324 70.6076 36.8324C71.0922 36.8324 71.923 35.5546 71.9461 34.7415C71.9691 34.3466 72.0614 34.1143 72.1999 34.2072C72.3384 34.2769 72.5691 34.1607 72.7307 33.9284C73.0076 33.5567 73.0768 33.5799 73.6076 34.1607C73.9307 34.5324 74.2076 34.9738 74.2076 35.1829C74.2076 35.392 74.4153 36.1122 74.6461 36.7859C74.8999 37.4596 75.0615 38.3192 75.0153 38.6909C74.9691 39.0626 75.0153 39.4343 75.1538 39.504C75.2691 39.5969 75.3615 39.8989 75.3615 40.2242C75.3615 40.5959 75.2691 40.7585 75.1076 40.6424C74.923 40.5494 74.8999 40.6656 75.0384 41.0373C75.1307 41.3393 75.1999 41.9433 75.1999 42.3383C75.1999 42.7564 75.2691 43.1049 75.3615 43.1049C75.4768 43.1049 75.4999 43.4069 75.4538 43.7554C75.3845 44.2433 75.4999 44.5453 76.0076 45.0331C76.6538 45.6604 76.6538 45.6604 77.7384 45.2887C78.6384 44.9867 78.823 44.8241 78.823 44.3362C78.823 44.0342 78.9384 43.5695 79.0538 43.3372C79.2153 43.0585 79.2153 42.8494 79.0538 42.7564C78.9153 42.6635 78.9615 42.408 79.1692 42.0827C79.423 41.6878 79.4922 41.0373 79.423 39.3646C79.3307 37.1344 79.1692 36.3677 78.7999 36.3677C78.6846 36.3677 78.5922 36.2283 78.5922 36.0425C78.5922 35.8566 78.3615 35.2526 78.1076 34.695C77.8307 34.1607 77.4845 33.4405 77.3461 33.1618C77.2307 32.8597 76.8845 32.3719 76.6076 32.0466C76.3076 31.7446 76.0307 31.28 75.9384 31.0244C75.8692 30.7689 75.6845 30.5598 75.5691 30.5598C75.4538 30.5598 75.3615 30.4204 75.3615 30.2578C75.3615 30.1184 75.1076 29.677 74.7845 29.3053C74.4615 28.9336 74.2076 28.6083 74.2076 28.5619C74.2076 28.3528 76.0307 26.6104 76.2384 26.6104C76.3999 26.6104 76.5153 26.2387 76.5153 25.6812C76.5153 25.1701 76.6307 24.7519 76.7461 24.7519C76.8845 24.7519 76.9769 24.6357 76.9769 24.4963C76.9769 24.2176 77.6922 23.4509 77.8769 23.5206C78.0153 23.5903 78.0384 23.4742 78.1076 22.7772C78.1076 22.5913 78.3384 22.4287 78.6153 22.4287C78.9153 22.4287 79.0538 22.3126 78.9845 22.1267C78.9384 21.9873 79.0307 21.7085 79.1922 21.5459C79.3769 21.3833 79.5153 21.3368 79.5153 21.4298C79.5153 21.5227 79.9769 21.1045 80.5538 20.4773C81.1076 19.85 81.5692 19.2692 81.5461 19.1995C81.523 18.8046 81.8923 18.0379 82.0769 18.1541C82.1923 18.2238 82.2846 18.1309 82.2846 17.945C82.2846 17.7592 82.5615 17.341 82.9076 16.9925C83.2307 16.6673 83.4384 16.3188 83.3692 16.2259C83.2769 16.1562 83.5076 15.7148 83.8538 15.2501C84.223 14.7855 84.6846 13.9724 84.9154 13.4381C85.1461 12.9037 85.4461 12.4856 85.5846 12.5088C85.7231 12.532 85.8384 12.3926 85.8615 12.2068C85.8615 12.0209 86.0692 11.8815 86.3 11.9048C86.5307 11.9048 87.0846 11.7422 87.5231 11.4866C87.9615 11.2311 88.4 11.0917 88.5154 11.1614C88.6077 11.2311 88.9308 10.8361 89.1846 10.325C89.4615 9.79069 89.8538 9.2099 90.0385 9.00082C90.3385 8.72204 90.3385 8.62911 90.0846 8.46649C89.8538 8.30387 89.8538 8.25741 90.1308 8.25741C90.5 8.25741 91.5846 6.46856 91.8615 5.35344C92.1385 4.33125 92 3.40199 91.4462 2.2404C91.0308 1.40406 90.7077 1.10205 89.6692 0.637417C88.4692 0.0798569 86.9692 -0.105993 85.4 0.0566288ZM82.9538 10.7897C83.4846 11.1149 83.5077 11.928 83 12.0906C82.7461 12.1603 82.4923 12.4856 82.423 12.834C82.3307 13.1593 82.1 13.5775 81.9153 13.7633C81.7307 13.9492 81.6384 14.2047 81.7307 14.3209C81.8461 14.53 81.2461 15.2966 81.0153 15.1804C80.7615 15.0411 79.9538 16.7137 80.0461 17.2248C80.1153 17.6198 79.9999 17.7824 79.6538 17.8753C79.2153 17.9915 78.1307 19.3854 78.1307 19.8268C78.1307 19.9197 77.7845 20.1288 77.3922 20.2914C76.5153 20.6167 75.8461 21.453 75.7768 22.2893C75.7307 22.661 75.5922 22.8934 75.3615 22.8934C74.9691 22.8934 74.3922 23.4974 74.1384 24.1479C74.0461 24.357 73.8845 24.4963 73.7691 24.4034C73.4691 24.2408 73.0538 25.0307 73.0538 25.7741C73.0538 26.0993 72.9845 26.3781 72.9153 26.3781C72.5922 26.3781 71.4384 25.4024 71.5537 25.2165C71.623 25.1004 71.4614 24.8913 71.1845 24.7287C70.9076 24.5893 70.446 24.264 70.1922 24.0317C69.1768 23.1257 68.2537 22.4287 67.9999 22.4287C67.5614 22.4287 67.723 22.1035 68.8768 20.6864C69.4768 19.9197 70.0537 19.0601 70.146 18.7814C70.2614 18.4561 70.423 18.3167 70.6537 18.4096C70.8614 18.4793 70.9768 18.4096 70.9307 18.247C70.8845 18.0844 71.1845 17.8521 71.5768 17.6895C71.9691 17.5501 72.2461 17.3178 72.1999 17.2016C72.1537 17.0622 72.3153 16.9461 72.5461 16.9228C72.7768 16.8996 73.3307 16.6673 73.7691 16.4117C74.2076 16.1329 74.7153 15.8542 74.8999 15.7612C75.0845 15.6683 75.3615 15.436 75.523 15.2501C75.6615 15.0411 75.8692 14.9481 75.9615 15.0643C76.0538 15.1572 76.3538 15.0178 76.6538 14.739C76.9307 14.4835 77.3461 14.2279 77.5769 14.1815C77.8307 14.1583 77.9922 13.9956 77.9692 13.8562C77.923 13.7169 78.1538 13.6007 78.4538 13.6007C78.823 13.6007 79.4922 13.1361 80.3461 12.2997C82.1461 10.5806 82.3769 10.4412 82.9538 10.7897ZM61.2845 22.6146C61.2845 22.7307 61.5383 22.9631 61.8614 23.1257C62.1614 23.2883 62.3691 23.5438 62.2768 23.66C62.2075 23.7994 62.2537 23.8226 62.3922 23.7297C62.7152 23.5438 64.2845 24.1711 64.2845 24.4963C64.2845 24.6357 64.3999 24.7519 64.5383 24.7519C64.6768 24.7519 65.046 24.961 65.3691 25.2165C65.6922 25.4721 66.1306 25.6812 66.3383 25.6812C66.546 25.6812 66.846 25.8902 67.0076 26.1458C67.1691 26.4013 67.7922 26.9357 68.3922 27.3074C68.9922 27.6791 69.4076 28.0043 69.2922 28.0043C69.1076 28.0043 70.1922 29.3053 71.1614 30.2346C71.8076 30.8618 71.8076 31.28 71.1153 31.9305C70.8153 32.2093 70.5153 32.7668 70.423 33.1385C70.3537 33.5102 70.1691 33.789 70.0076 33.7658C69.846 33.7193 69.7076 33.8355 69.6845 33.9749C69.6614 34.1375 69.6383 34.3698 69.6153 34.486C69.6153 34.6021 69.3845 34.788 69.1076 34.8577C68.8537 34.9506 68.6922 35.0668 68.7614 35.1364C68.923 35.2991 68.323 35.9031 67.9999 35.9031C67.8614 35.9031 67.746 36.1122 67.746 36.391C67.746 36.6465 67.6537 36.8091 67.5614 36.7394C67.3768 36.6233 66.1306 37.8081 66.1306 38.1333C66.1306 38.2263 65.7845 38.7141 65.3691 39.2485C64.9306 39.7828 64.4691 40.4333 64.3076 40.712C64.1691 41.0141 63.9152 41.2464 63.7537 41.2464C63.246 41.2464 62.1614 42.5706 62.1152 43.1978C62.1152 43.5696 61.9537 43.8019 61.746 43.8019C61.1691 43.8019 60.0845 45.219 60.1998 45.823C60.246 46.1018 60.2229 46.2877 60.1306 46.2412C59.8537 46.0553 58.7921 46.7058 58.2844 47.3563C58.0306 47.6816 57.8229 48.2159 57.8229 48.5411C57.8229 48.8664 57.6844 49.1452 57.546 49.1452C57.1075 49.1684 55.9998 50.3764 55.9075 50.9108C55.8844 51.1431 55.769 51.3754 55.6767 51.3986C55.5844 51.4219 55.0767 51.84 54.569 52.3279C53.8767 53.0016 53.646 53.4198 53.6229 53.9773C53.5998 54.3723 53.5306 54.6511 53.4383 54.6046C53.2075 54.4652 52.169 55.4409 51.9844 55.952C51.8921 56.1611 51.7075 56.3237 51.5459 56.3005C51.3613 56.254 51.269 56.4631 51.2921 56.8813C51.3152 57.2298 51.2459 57.4621 51.1536 57.4156C50.8998 57.253 49.9536 57.9732 50.0921 58.2055C50.1613 58.3217 49.9998 58.5307 49.7459 58.6701C49.4921 58.8095 49.2844 59.0651 49.2844 59.2509C49.2844 59.4368 49.169 59.5994 49.0306 59.5994C48.8921 59.5994 48.8229 59.8085 48.8921 60.0408C48.9613 60.3661 48.8459 60.5287 48.4536 60.6216C47.8075 60.7842 46.8152 62.062 46.6998 62.8518C46.6536 63.1771 46.2844 63.7579 45.869 64.176C45.4536 64.571 45.1305 65.1053 45.1305 65.3376C45.1305 65.6396 44.8536 65.872 44.3228 66.081C43.3998 66.4063 42.5921 67.4285 42.5921 68.2881C42.5921 68.6133 42.4767 68.8921 42.3382 68.8921C41.9459 68.8921 40.492 70.588 40.6074 70.9132C40.6767 71.0759 40.5844 71.2152 40.3997 71.2152C40.2151 71.2152 40.0536 71.3082 40.0536 71.4476C40.0536 71.5637 39.9151 71.6799 39.7305 71.6799C39.3613 71.6799 38.3459 72.9576 38.1151 73.7243C38.0228 74.003 37.7459 74.3515 37.492 74.4677C37.2613 74.6071 37.0536 74.8161 37.0536 74.9555C37.0536 75.1646 36.869 75.4434 36.1997 76.21C36.0382 76.3727 35.8997 76.605 35.8997 76.7211C35.8997 76.8373 35.692 77.0696 35.4151 77.2555C35.1612 77.4413 34.7689 77.9757 34.5612 78.4171C34.3536 78.8585 33.892 79.4857 33.5459 79.811C33.1997 80.113 32.8997 80.5079 32.8997 80.6938C32.8997 80.8564 32.7382 81.0422 32.5535 81.1119C32.3689 81.2049 32.2074 81.3907 32.2074 81.5766C32.2074 81.7624 32.1151 81.9018 31.9997 81.9018C31.8843 81.9018 31.7458 82.1341 31.6535 82.4361C31.5843 82.7382 31.1228 83.3189 30.6151 83.7139C30.0151 84.2017 29.5997 84.7825 29.4151 85.3866C29.2535 85.8977 28.9997 86.3158 28.8151 86.3158C28.6535 86.3158 28.5151 86.3855 28.5151 86.5017C28.5151 86.5946 28.2381 86.9663 27.9151 87.3148C27.5458 87.7097 27.3843 88.1047 27.4766 88.3834C27.5689 88.7087 27.4304 88.8481 26.8766 89.0107C26.3227 89.1733 25.9997 89.4986 25.5381 90.3814C25.215 91.0319 24.8458 91.5894 24.7304 91.6359C24.4997 91.7288 23.7843 92.5419 23.7612 92.7742C23.6227 93.4712 23.3458 93.9823 23.0689 93.9823C22.4689 93.9823 21.1766 95.3529 21.0381 96.1893C20.9458 96.6307 20.7612 97.0024 20.6227 97.0024C20.4842 97.0024 20.1381 97.2579 19.8612 97.56C19.3535 98.0943 16.9535 98.8145 16.0535 98.6983C15.2688 98.5822 12.6842 99.1397 12.4304 99.465C12.2919 99.6508 12.1073 99.7205 12.0381 99.6043C11.8765 99.3256 8.50726 99.9296 7.67649 100.394C7.33034 100.58 6.9611 100.696 6.84572 100.627C6.56879 100.441 5.18417 101.045 4.58417 101.626C3.89186 102.276 3.01493 102.137 2.99185 101.393C2.96877 100.627 2.83031 100.162 2.57646 99.9993C2.46108 99.9064 2.46108 99.6973 2.57646 99.5346C2.89954 99.0003 2.85339 97.467 2.50723 97.0953C2.23031 96.8165 2.23031 96.7468 2.50723 96.6539C2.83031 96.5145 2.89954 96.259 2.9457 94.9115C2.96877 93.8661 2.85339 93.4712 2.46108 93.1459C2.18415 92.9369 2.20723 92.8672 2.53031 92.751C2.738 92.6581 2.89954 92.4025 2.89954 92.1702C2.89954 91.9379 3.26878 91.4036 3.70724 90.9622C4.1457 90.5208 4.51494 90.0097 4.51494 89.847C4.51494 89.7077 4.63032 89.5683 4.76878 89.5683C4.88417 89.5683 4.93032 89.4521 4.86109 89.3359C4.79186 89.1966 4.90725 89.1036 5.11494 89.1036C5.34571 89.1036 5.43802 89.0339 5.36879 88.9642C5.20725 88.7784 6.08418 87.942 6.40725 87.942C6.52264 87.942 6.56879 87.8724 6.52264 87.7562C6.45341 87.6633 6.54572 87.4542 6.73033 87.2916C6.91495 87.1289 7.05341 87.0825 7.05341 87.1754C7.05341 87.4774 9.10727 85.1078 9.26881 84.6431C9.33804 84.4108 9.49958 84.2714 9.61496 84.3411C9.73035 84.4108 9.9842 84.0624 10.1919 83.5513C10.3996 83.0169 10.6534 82.6685 10.7688 82.7382C10.8842 82.8078 11.0457 82.6917 11.115 82.4826C11.2073 82.2735 11.6457 81.716 12.1073 81.2049C13.3304 79.9039 13.4919 79.6716 13.6534 79.0211C13.7227 78.6958 13.8842 78.4635 13.9765 78.5332C14.0688 78.6029 14.2073 78.4171 14.2765 78.1615C14.3458 77.906 14.6227 77.6272 14.8996 77.5575C15.1765 77.4878 15.3381 77.3019 15.2688 77.1393C15.2227 76.9999 15.3842 76.7211 15.6381 76.5353C15.8919 76.3494 16.2381 76.0707 16.3765 75.908C16.515 75.7454 16.815 75.4202 17.0458 75.2111C17.2535 75.002 17.4381 74.7 17.4381 74.5606C17.4381 74.398 17.5996 74.2354 17.7842 74.1424C17.9689 74.0727 18.1304 73.8637 18.1304 73.6778C18.1304 73.5152 18.2919 73.3061 18.4765 73.2132C18.6612 73.1435 18.7996 73.0041 18.7765 72.8879C18.7304 72.795 19.2612 72.1445 19.9304 71.4476C20.6227 70.7274 21.1073 70.0769 21.0381 69.891C20.9689 69.7052 20.9919 69.6355 21.1073 69.7052C21.2227 69.7749 21.615 69.4032 21.9843 68.8688C22.3304 68.3345 22.792 67.7305 22.9996 67.4982C23.2073 67.2891 23.5535 66.778 23.7843 66.3831C24.015 65.9881 24.292 65.7093 24.4073 65.779C24.4997 65.8487 24.592 65.779 24.592 65.6629C24.592 65.5235 25.0074 65.0124 25.515 64.5478C26.0227 64.0599 26.4381 63.5488 26.4381 63.4094C26.4381 63.2468 26.5997 63.0842 26.7843 62.9912C26.9689 62.9215 27.1304 62.7124 27.1304 62.5498C27.1304 62.364 27.3381 61.9923 27.592 61.6903C27.8458 61.3882 28.0535 61.0165 28.0535 60.8539C28.0535 60.6913 28.2612 60.4822 28.5381 60.4125C28.8151 60.3196 28.9535 60.1337 28.8843 59.9246C28.8151 59.7156 28.9304 59.5297 29.1612 59.4368C29.6228 59.2742 30.5689 58.2055 30.592 57.8338C30.592 57.6712 30.7535 57.4853 30.9612 57.4156C31.1689 57.3227 31.2843 57.2065 31.2151 57.1136C30.9843 56.8813 31.5151 56.0914 31.792 56.254C31.9535 56.3702 31.9997 56.3005 31.9305 56.0682C31.792 55.7197 32.5305 54.8834 32.7612 55.1157C32.8305 55.2086 32.9228 55.1389 32.9228 54.9995C32.9459 54.8369 32.992 54.6046 33.0151 54.4884C33.0382 54.349 33.0843 54.14 33.1074 54.0238C33.1074 53.8844 33.2459 53.7915 33.3843 53.7915C33.6612 53.7915 34.6766 52.6067 34.5612 52.4208C34.5151 52.3511 34.6997 52.235 34.9536 52.1188C35.2305 52.0259 35.4382 51.7471 35.4382 51.4915C35.4382 51.1663 35.6459 50.9572 36.0151 50.8643C36.4305 50.7714 36.592 50.5623 36.592 50.1673C36.592 49.8421 36.7305 49.6098 36.9151 49.6098C37.0997 49.6098 37.3305 49.4007 37.3997 49.1452C37.469 48.8896 37.6536 48.6805 37.769 48.6805C37.8843 48.6805 37.9766 48.5179 37.9766 48.3088C37.9766 48.0997 38.1843 47.8906 38.4382 47.8209C38.692 47.7512 38.8997 47.6119 38.8997 47.5189C38.8997 47.3098 39.7305 46.3341 39.9844 46.2877C40.0767 46.2644 40.1459 46.125 40.1459 45.9624C40.1228 45.7998 40.3074 45.6139 40.5382 45.5442C40.792 45.4513 40.9767 45.2887 40.9767 45.1725C40.9767 45.0564 41.1382 44.9635 41.3228 44.9635C41.5074 44.9635 41.7844 44.7311 41.9228 44.4291C42.0844 44.1503 42.3613 43.8019 42.5459 43.6625C42.7536 43.5231 42.8228 43.2908 42.7305 43.1281C42.6151 42.9423 42.7074 42.8029 43.0074 42.71C43.2613 42.6635 43.5151 42.408 43.5844 42.1524C43.6536 41.9201 43.9536 41.6181 44.2536 41.5019C44.5305 41.3625 44.6921 41.2696 44.5767 41.2696C44.4613 41.2464 44.8767 40.7353 45.4998 40.1313C46.6998 38.9464 47.4382 38.0172 47.4382 37.7152C47.4382 37.6222 47.6229 37.5293 47.8536 37.5293C48.3382 37.5061 49.0536 36.995 49.0536 36.6233C49.0536 36.4839 49.169 36.3677 49.3306 36.3677C49.6998 36.3677 50.8998 35.1829 50.8998 34.8344C50.8998 34.6718 51.1075 34.4627 51.3613 34.393C51.6152 34.3233 51.8229 34.1607 51.8229 34.0678C51.8229 33.8355 52.6767 32.8365 52.8383 32.8597C52.9075 32.883 52.9536 32.8597 52.9306 32.8133C52.8152 32.6739 53.6229 31.9537 53.8767 31.9537C54.0152 31.9537 54.1306 31.7911 54.1306 31.6052C54.1306 31.4194 54.246 31.2568 54.3613 31.2568C54.6613 31.2568 55.9767 29.9326 55.9767 29.6305C55.9767 29.4912 56.1152 29.3982 56.2998 29.3982C56.4614 29.3982 56.8075 29.1427 57.0383 28.8174C57.2691 28.4922 57.6152 28.2831 57.7768 28.3528C57.9383 28.4225 58.0075 28.3528 57.9383 28.2366C57.8691 28.0973 57.8921 28.0043 58.0075 28.0043C58.0998 28.0043 58.5614 27.6791 58.9998 27.2841C59.4383 26.8892 60.0152 26.3781 60.2921 26.1458C60.5691 25.9367 60.8229 25.6115 60.8691 25.4256C60.9614 25.0074 61.3768 24.5428 61.5383 24.659C61.6306 24.7054 61.7691 24.4731 61.8614 24.1246C61.9768 23.6368 61.8845 23.4045 61.3537 22.9863C61.0075 22.6843 60.846 22.452 61.0075 22.4287C61.146 22.4287 61.2845 22.5217 61.2845 22.6146ZM48.1305 36.0193C48.1305 36.298 47.4613 36.0889 47.3459 35.7869C47.2536 35.4849 47.2998 35.4617 47.669 35.6708C47.9229 35.8102 48.1305 35.9728 48.1305 36.0193ZM35.4382 49.6098C35.4382 49.7259 35.3459 49.8421 35.2305 49.8421C35.092 49.8421 34.9305 49.7259 34.8612 49.6098C34.792 49.4704 34.8843 49.3775 35.0689 49.3775C35.2766 49.3775 35.4382 49.4704 35.4382 49.6098ZM34.5151 50.7946C34.5151 51.1198 34.1228 51.0269 33.9843 50.6784C33.892 50.4461 33.9612 50.3764 34.192 50.4694C34.3536 50.5391 34.5151 50.6784 34.5151 50.7946ZM52.4229 57.3459C52.5152 57.4389 52.4229 57.5086 52.2152 57.5086C52.0075 57.5086 51.7998 57.4156 51.7306 57.2995C51.569 57.0671 52.1921 57.0904 52.4229 57.3459ZM51.5921 58.4611C51.5921 58.7863 51.1998 58.6934 51.0613 58.3449C50.969 58.1126 51.0383 58.0429 51.269 58.1358C51.4306 58.2055 51.5921 58.3449 51.5921 58.4611Z"
          fill="white"/>
    <path d="M65.2768 27.7023C65.1152 27.7488 64.9768 28.0276 64.9768 28.2599C64.9768 28.5154 64.8844 28.6781 64.7691 28.5851C64.6306 28.5154 64.4229 28.6781 64.2844 28.9336C64.146 29.1891 63.8691 29.3982 63.6844 29.3982C63.4767 29.3982 63.4075 29.5144 63.4998 29.677C63.5921 29.8396 63.5691 29.8629 63.4075 29.7699C63.2691 29.677 62.9229 29.7932 62.646 30.0255C60.846 31.5123 60.8921 31.4426 61.3767 31.6285C61.6767 31.7446 61.9075 31.6749 62.0921 31.4194C62.2537 31.2103 62.4383 31.0941 62.5075 31.1871C62.7614 31.4426 63.3383 30.7689 63.1998 30.3972C63.0844 30.1184 63.1537 30.0487 63.4306 30.1649C63.8229 30.3275 64.3768 29.9558 65.7383 28.6548C66.5691 27.8417 66.2921 27.2842 65.2768 27.7023Z"
          fill="white"/>
    <path d="M60.3844 32.2557C60.246 32.6042 60.0614 32.883 59.9691 32.883C59.8537 32.883 59.2767 33.3244 58.6998 33.8819C57.846 34.6718 57.6383 34.997 57.7537 35.392C57.846 35.7869 57.7998 35.8799 57.5229 35.7869C57.1306 35.6243 55.9767 36.6697 55.9767 37.1808C55.9767 37.3667 55.8152 37.5293 55.6075 37.5293C55.3998 37.5293 55.3306 37.6455 55.4229 37.8081C55.5383 37.9707 55.469 38.0172 55.2613 37.9475C55.0306 37.8545 54.7998 38.0404 54.6152 38.4818C54.4536 38.8535 54.1767 39.1555 53.9921 39.1555C53.8075 39.1555 53.669 39.2949 53.669 39.4575C53.669 39.6202 53.4613 39.8757 53.2075 40.0383C52.9306 40.2009 52.769 40.41 52.8383 40.5262C52.9306 40.6888 52.0306 41.6413 51.8921 41.5251C51.8459 41.5019 51.8459 41.5484 51.8921 41.6181C51.9152 41.6878 51.7536 41.8504 51.5459 41.9665C51.3152 42.1059 51.1306 42.315 51.1306 42.4312C51.1306 42.7564 50.5305 43.3372 50.2305 43.3372C50.0921 43.3372 49.9998 43.4069 50.0229 43.4998C50.0921 43.9412 49.6536 44.4988 49.2382 44.4988C48.9152 44.4988 48.8228 44.615 48.9152 44.8473C48.9844 45.0564 48.9152 45.1958 48.6844 45.1958C48.4998 45.1958 48.269 45.3816 48.1998 45.5907C47.9921 46.125 47.5305 46.5897 47.2075 46.5897C47.069 46.5897 46.9998 46.6826 47.069 46.7755C47.1382 46.8917 46.8844 47.3098 46.4921 47.7512C46.0536 48.2159 45.8459 48.6573 45.9382 48.8896C46.0536 49.1684 46.3536 48.9593 47.369 47.8674C48.0844 47.1007 49.1228 45.9856 49.6767 45.4048C50.3229 44.7079 50.6229 44.2665 50.4613 44.1503C50.3229 44.0806 50.2536 43.8948 50.3459 43.7786C50.4152 43.6625 50.5767 43.616 50.6921 43.7089C50.8075 43.7786 51.4075 43.314 52.0075 42.6867C55.3306 39.1323 55.3075 39.1555 55.169 38.6677C55.0306 38.2727 55.0767 38.203 55.446 38.3192C55.9306 38.4818 57.3614 37.1344 57.3614 36.5303C57.3614 36.3213 57.569 36.0889 57.8229 36.0192C58.0767 35.9263 58.2383 35.7637 58.169 35.6475C58.0767 35.5314 58.146 35.4384 58.2614 35.4384C58.3998 35.4384 58.5152 35.2991 58.5152 35.1364C58.5152 34.9738 58.746 34.7415 59.046 34.6253C59.3229 34.486 59.5306 34.2304 59.4844 34.0678C59.4383 33.8819 59.4844 33.5799 59.5537 33.3708C59.6691 33.0688 59.7152 33.0688 59.8998 33.3476C60.0614 33.6264 60.2691 33.5102 60.9152 32.79C61.3768 32.3022 61.5845 31.9537 61.4229 32.0234C61.2614 32.0931 61.0075 32.0466 60.8691 31.9072C60.6844 31.7214 60.546 31.8143 60.3844 32.2557Z"
          fill="white"/>
    <path d="M44.6228 49.424C44.1381 49.9351 43.8151 50.4694 43.8843 50.5623C44.092 50.9108 44.6689 50.7946 44.6689 50.4229C44.6689 50.2371 44.8074 50.0745 44.992 50.0745C45.4305 50.0745 45.9151 49.4704 45.6151 49.2846C45.4766 49.1917 45.4305 48.9826 45.5228 48.7967C45.7074 48.2856 45.5689 48.3785 44.6228 49.424Z"
          fill="white"/>
    <path d="M42.6381 51.5845C42.0612 52.0956 42.0381 52.1421 42.4535 52.3047C42.7305 52.4208 42.9843 52.3511 43.1458 52.1188C43.2843 51.933 43.6305 51.7007 43.9305 51.6077C44.6228 51.3754 44.5766 51.1199 43.8382 51.0966C43.5151 51.0734 42.9843 51.2825 42.6381 51.5845Z"
          fill="white"/>
    <path d="M41.6689 52.9319C41.6689 53.1178 41.415 53.3733 41.0919 53.5127C40.7689 53.6521 40.515 53.8844 40.515 54.0238C40.515 54.3723 40.0996 54.744 39.2919 55.1622C38.9227 55.3713 38.6919 55.6268 38.7842 55.8127C38.8304 55.9985 38.8073 56.0914 38.715 56.0217C38.6227 55.9753 38.3919 56.0217 38.2073 56.1379C37.9304 56.347 37.9073 56.4167 38.1612 56.5096C38.3919 56.6025 38.3227 56.7187 37.9304 56.9045C37.6304 57.0672 37.4227 57.3459 37.4688 57.5783C37.515 57.8106 37.3765 57.9732 37.1688 57.9732C36.9842 57.9732 36.8227 58.0661 36.8227 58.2055C36.8227 58.3217 36.6381 58.3449 36.4304 58.2752C36.1534 58.1591 36.0842 58.2287 36.1996 58.4843C36.2688 58.7166 36.1996 58.9257 35.9919 58.9954C35.8073 59.0651 35.6688 59.2742 35.6688 59.4368C35.6688 59.5994 35.415 59.9014 35.0919 60.064C34.7919 60.2267 34.5842 60.459 34.6534 60.5751C34.7227 60.6681 34.6534 60.761 34.5381 60.761C34.3996 60.761 34.2842 60.9236 34.2842 61.1095C34.2842 61.3186 34.0765 61.4579 33.7996 61.4579C33.4996 61.4579 33.3611 61.5741 33.4304 61.76C33.4996 61.9226 33.338 62.2014 33.1073 62.364C32.8534 62.5034 32.6919 62.7125 32.7611 62.8286C32.9227 63.0842 32.138 63.7114 31.7919 63.5953C31.6303 63.5488 31.5611 63.6417 31.6534 63.874C31.7457 64.1296 31.6765 64.2458 31.4227 64.2458C31.215 64.2458 31.0534 64.3851 31.0534 64.5478C31.0534 64.8962 30.2226 65.6629 30.038 65.477C29.9688 65.3841 29.8996 65.477 29.8996 65.6629C29.8765 65.8487 29.5765 66.3366 29.2073 66.778C28.838 67.2194 28.5842 67.6608 28.6534 67.777C28.8611 68.1022 29.438 67.986 29.438 67.6143C29.438 67.4285 29.5765 67.2659 29.738 67.2659C29.8996 67.2659 30.1534 67.0568 30.315 66.8012C30.4765 66.5225 30.4996 66.3366 30.3611 66.3366C30.2457 66.3366 30.1303 66.2204 30.1303 66.0811C30.1303 65.9417 30.315 65.8952 30.5457 65.9417C31.0765 66.1043 34.8611 61.8994 34.8611 61.1559C34.8611 60.8307 34.9996 60.6448 35.2534 60.6448C35.5765 60.6448 36.6381 59.553 39.1765 56.6258C39.5919 56.1611 39.7535 55.7662 39.6612 55.5106C39.5458 55.1854 39.5919 55.1389 39.915 55.2551C40.5381 55.4874 41.9458 54.1632 42.015 53.3036C42.0612 52.9319 41.9919 52.6299 41.8766 52.6299C41.7612 52.6299 41.6689 52.7693 41.6689 52.9319Z"
          fill="white"/>
    <path d="M42.4767 52.8622C42.4074 52.9784 42.4536 53.0945 42.569 53.0945C42.7074 53.0945 42.8228 52.9784 42.8228 52.8622C42.8228 52.7228 42.7767 52.6299 42.7305 52.6299C42.6613 52.6299 42.5459 52.7228 42.4767 52.8622Z"
          fill="white"/>
    <path d="M28.0535 68.6366C28.0535 68.8456 27.8458 69.1477 27.592 69.3103C27.3381 69.4729 27.1304 69.7517 27.1304 69.9375C27.1304 70.1234 26.9227 70.3789 26.6689 70.5183C26.415 70.6577 26.2535 70.8668 26.3227 71.0062C26.415 71.1223 26.3458 71.2153 26.2304 71.2153C26.092 71.2153 25.9766 71.3547 25.9766 71.5405C25.9766 71.7264 25.815 71.9122 25.6304 72.0051C25.4458 72.0748 25.2843 72.2839 25.2843 72.4698C25.2843 72.6324 25.1227 72.7718 24.915 72.7486C24.6843 72.7486 24.4304 73.0041 24.2919 73.4223C24.1535 73.794 23.8073 74.3051 23.5073 74.5606C23.2073 74.793 22.9996 75.1182 23.0689 75.2808C23.115 75.4667 23.0227 75.6525 22.8381 75.7222C22.6535 75.7919 22.515 76.0475 22.515 76.2565C22.515 76.4889 22.3073 76.8373 22.0535 77.0232C21.7996 77.209 21.5919 77.4414 21.5919 77.5575C21.5919 77.6504 21.2919 78.0686 20.8996 78.4868C20.0919 79.3696 20.0458 79.5787 20.6689 79.5787C20.9227 79.5787 21.1304 79.4393 21.1304 79.2534C21.1304 79.0908 21.3381 78.8817 21.5919 78.812C21.915 78.7191 22.0304 78.5332 22.0073 78.1383C21.9612 77.7434 22.0304 77.6272 22.3304 77.6737C22.5842 77.7201 22.8842 77.4181 23.1842 76.8141C23.4612 76.303 23.7612 75.8384 23.8996 75.7454C24.015 75.6758 24.1304 75.4202 24.1304 75.1879C24.1304 74.9556 24.3381 74.5839 24.5919 74.3515C24.8458 74.1192 24.9843 73.8405 24.892 73.7011C24.8227 73.5849 24.8458 73.5384 24.9843 73.6081C25.0996 73.6778 25.5843 73.3061 26.0458 72.7486C26.6689 72.0051 26.8304 71.6102 26.7381 71.2153C26.6227 70.7739 26.6689 70.7042 26.992 70.8203C27.4997 71.0294 28.5612 69.8678 28.4227 69.2638C28.3535 68.985 28.4689 68.7992 28.7689 68.7295C29.392 68.5669 29.3227 68.3113 28.6304 68.2881C28.2381 68.2649 28.0535 68.3578 28.0535 68.6366Z"
          fill="white"/>
    <path d="M20.6688 80.0201C20.6688 80.2059 20.5072 80.2524 20.2072 80.1595C19.8611 80.0433 19.7457 80.113 19.7457 80.4383C19.7457 80.6938 19.6303 80.9958 19.4918 81.1352C19.238 81.3908 19.3765 81.9019 19.7226 81.9019C19.9765 81.9019 20.9688 80.0433 20.8072 79.8807C20.738 79.7878 20.6688 79.8575 20.6688 80.0201Z"
          fill="white"/>
    <path d="M18.8226 81.716C18.8226 81.8786 18.4995 82.32 18.1303 82.6917C17.438 83.3654 17.2303 83.9927 17.6687 83.9927C17.8072 83.9927 17.8995 84.1088 17.8995 84.2482C17.8995 84.3876 17.6918 84.4341 17.438 84.3411C17.1149 84.2482 16.9764 84.2947 16.9764 84.527C16.9764 84.7129 16.7687 85.0381 16.5149 85.2704C16.238 85.5027 16.0995 85.8512 16.1456 86.0138C16.2149 86.1765 16.1226 86.3855 15.938 86.4785C15.7072 86.6179 15.6841 86.7805 15.8226 87.0128C16.0072 87.2916 16.1918 87.1986 16.861 86.432C17.2995 85.9209 17.5995 85.3633 17.5533 85.2007C17.4841 85.0381 17.6457 84.7129 17.8995 84.4573C18.1534 84.2018 18.361 83.7836 18.361 83.5048C18.361 83.2493 18.4534 83.0866 18.5687 83.1563C18.661 83.226 18.938 83.0866 19.1687 82.8311C19.4457 82.5291 19.4918 82.3665 19.2841 82.3665C19.1226 82.3665 19.0534 82.2038 19.1226 82.018C19.2149 81.8321 19.1687 81.623 19.0534 81.5533C18.9149 81.4604 18.8226 81.5533 18.8226 81.716Z"
          fill="white"/>
    <path d="M15.1302 87.1754C15.1302 87.4078 14.8764 87.8027 14.5533 88.035C14.2533 88.2673 14.0456 88.5461 14.1149 88.6623C14.1841 88.7784 14.0687 89.034 13.8841 89.2198C13.6995 89.4289 13.5841 89.7309 13.6533 89.9168C13.7456 90.1259 13.6533 90.2653 13.4225 90.2653C13.2148 90.2653 13.0533 90.3814 13.0533 90.5208C13.0533 90.637 12.9379 90.6834 12.7995 90.5905C12.6379 90.4976 12.5687 90.6137 12.6379 90.8693C12.7995 91.7753 13.4918 91.4965 14.3687 90.1026C15.6149 88.1744 15.8456 87.7098 15.5456 87.7098C15.4302 87.7098 15.361 87.5472 15.4302 87.3613C15.5226 87.1754 15.4764 86.9664 15.361 86.8967C15.2226 86.8037 15.1302 86.9431 15.1302 87.1754Z"
          fill="white"/>
</svg>
