<svg width="92" height="121" viewBox="0 0 92 121" fill="none" xmlns="http://www.w3.org/2000/svg">
    <path d="M75.6848 0.379017C75.6024 0.610503 75.5199 0.908129 75.5199 1.02387C75.5199 1.15615 75.4045 1.33803 75.2726 1.45378C74.9922 1.68526 74.9428 2.21437 75.2066 2.36319C75.3056 2.44586 75.2726 2.54507 75.0912 2.67735C74.7284 2.9419 74.5305 4.39696 74.7779 4.95914C74.8603 5.17409 74.8273 5.25677 74.6624 5.25677C74.5305 5.25677 74.3326 5.43865 74.2172 5.63707C73.9534 6.13311 73.8709 7.42282 74.0853 7.68737C74.1842 7.83619 74.1842 7.90233 74.0688 7.90233C73.7225 7.90233 73.4586 9.32432 73.739 9.67154C73.8709 9.82036 73.8379 9.8865 73.6565 9.8865C73.3597 9.8865 72.7331 11.1762 72.7496 11.7219C72.766 11.9368 72.8485 12.2179 72.9309 12.3171C73.0464 12.4825 72.9969 12.5321 72.7331 12.5321C72.5517 12.5321 72.4033 12.5817 72.4197 12.6478C72.4362 12.7305 72.3538 13.0942 72.2384 13.4911C72.1394 13.8714 72.0899 14.2682 72.1394 14.3509C72.1889 14.4501 72.1394 14.5162 72.0075 14.5162C71.8921 14.5162 71.6942 14.7146 71.5787 14.9627C71.4468 15.2272 71.2984 15.5579 71.216 15.7067C71.1335 15.8721 71.0675 16.2028 71.0675 16.4508C71.0675 16.6823 70.9686 17.013 70.8367 17.1453C70.7048 17.2941 70.5728 17.6909 70.5234 18.0381C70.4739 18.3688 70.3585 18.7491 70.2595 18.8814C70.1606 18.9971 70.1276 19.146 70.1771 19.1956C70.243 19.2617 70.1771 19.4767 70.0451 19.6751C69.7483 20.138 69.5834 20.9482 69.7648 21.0475C69.8308 21.0971 69.7153 21.3285 69.4845 21.5766C69.2701 21.808 69.0887 22.1387 69.0887 22.2876C69.0887 22.4364 68.9568 22.8167 68.8084 23.1308C68.66 23.445 68.5445 23.8914 68.561 24.1394C68.5775 24.3709 68.5115 24.6686 68.3961 24.8008C68.0003 25.1977 67.786 26.074 67.9344 26.5866C68.0168 26.8842 68.0168 27.0826 67.9179 27.0826C67.6705 27.0826 67.3077 28.1243 67.3572 28.7526C67.3737 29.1825 67.3077 29.4306 67.0934 29.5794C66.912 29.6951 66.7801 29.9597 66.7801 30.1581C66.7801 30.5715 66.3678 30.9848 66.2029 30.7368C66.071 30.5053 64.6198 30.6541 64.4549 30.9022C64.3725 31.0344 64.323 31.0344 64.2735 30.8856C64.1911 30.6045 62.7234 30.4557 62.4266 30.7203C62.2782 30.8195 62.1133 30.8691 62.0143 30.8195C61.9319 30.7699 61.8165 30.836 61.767 30.9848C61.701 31.1667 61.6021 31.1998 61.4537 31.084C61.2228 30.9022 60.6951 30.9187 60.3653 31.1171C60.2499 31.1998 60.085 31.1833 59.986 31.084C59.7717 30.8691 59.244 31.0179 59.1285 31.3155C59.0461 31.5139 58.9636 31.5305 58.6833 31.3651C58.4689 31.2659 58.2875 31.2494 58.2216 31.3321C58.1721 31.4147 57.8423 31.4809 57.4795 31.4809C57.0672 31.4809 56.7704 31.5801 56.6385 31.7785C56.5066 31.9604 56.3911 31.9935 56.3087 31.8942C56.1438 31.6132 55.1544 31.6793 54.4123 31.9935C54.0495 32.1588 53.7527 32.3407 53.7527 32.3903C53.7527 32.4564 53.5053 32.4399 53.225 32.3903C52.7138 32.2745 52.1531 32.4399 51.9223 32.7541C51.8563 32.8367 51.576 32.7706 51.2626 32.6218C50.8834 32.4234 50.702 32.3903 50.6525 32.5226C50.5371 32.8698 50.2567 32.7044 50.3392 32.3407C50.4876 31.762 49.4982 30.2573 49.1189 30.4888C49.0364 30.5384 48.9705 30.4227 48.9705 30.2408C48.9705 29.7613 48.3274 28.5708 48.0635 28.5708C47.9481 28.5708 47.7502 28.3393 47.6183 28.0747C47.5028 27.7936 47.3544 27.5787 47.2885 27.5787C47.206 27.5787 47.1565 27.4299 47.1565 27.2645C47.1565 27.0826 47.0906 26.8842 46.9916 26.8346C46.9092 26.785 46.8267 26.5866 46.8267 26.4212C46.8267 26.2559 46.7608 26.0905 46.6783 26.0575C46.5794 26.0244 46.4804 25.7929 46.431 25.5449C46.3815 25.2803 46.1836 24.9 45.9692 24.7016C45.7219 24.4701 45.5735 24.1229 45.557 23.693C45.524 23.3458 45.4416 23.0151 45.3591 22.9655C45.2767 22.9159 45.1447 22.5686 45.0788 22.2049C45.0128 21.8411 44.8644 21.4608 44.749 21.3451C44.6335 21.2293 44.5841 20.9317 44.617 20.6837C44.6995 20.2207 44.4027 19.3113 44.1718 19.3113C44.0893 19.3113 44.0234 19.1956 44.0234 19.0633C44.0234 18.9145 43.908 18.7657 43.776 18.7161C43.5946 18.6334 43.5617 18.5507 43.6936 18.4019C43.8255 18.2531 43.8255 18.1539 43.6936 18.0712C43.6111 18.0216 43.5287 17.8397 43.5287 17.6744C43.5287 17.509 43.3473 17.1783 43.1329 16.9468C42.9185 16.7153 42.8031 16.4673 42.8691 16.3847C43.0834 16.1532 42.6217 14.6981 42.2094 14.3509C41.9621 14.1359 41.8632 13.921 41.9291 13.6895C41.9786 13.5076 41.9456 13.3588 41.8632 13.3588C41.7807 13.3588 41.7147 13.21 41.7147 13.0281C41.7147 12.8297 41.5498 12.5155 41.3355 12.3006C41.0386 12.0195 40.9892 11.8211 41.0881 11.5565C41.2365 11.1431 40.9727 10.4321 40.478 9.96917C40.2966 9.78729 40.1317 9.45659 40.1152 9.22511C40.0657 8.15035 39.9173 7.52203 39.7194 7.38975C39.5875 7.32361 39.2742 7.09212 39.0103 6.86064C38.4167 6.34806 37.5097 6.29846 37.2459 6.77796C37.1139 7.00945 37.1304 7.15826 37.2788 7.34015C37.4273 7.52203 37.4437 7.63777 37.3118 7.70391C37.1964 7.77005 37.1469 8.16688 37.1964 8.67946C37.2294 9.15897 37.1799 9.58887 37.0974 9.63848C36.9985 9.68808 37.015 9.90303 37.0974 10.1511C37.1964 10.3825 37.2129 10.6636 37.1469 10.7628C37.081 10.862 37.015 11.0605 36.9985 11.2093C36.9655 11.3416 36.8666 11.8211 36.7511 12.284C36.6357 12.7305 36.5533 13.4249 36.5533 13.8052C36.5533 14.1855 36.4873 14.4666 36.4048 14.417C36.2894 14.3509 36.1905 14.9792 36.2564 15.376C36.2564 15.4587 36.1905 15.5083 36.0915 15.5083C35.9926 15.5083 35.9431 15.6075 35.9926 15.7398C36.0421 15.8555 35.9761 16.1201 35.8442 16.302C35.7123 16.4839 35.6628 16.765 35.7287 16.9303C35.7947 17.0956 35.7617 17.1783 35.6793 17.1122C35.5968 17.0626 35.3989 17.3437 35.2505 17.757C35.1186 18.1539 35.0526 18.4846 35.1186 18.4846C35.2011 18.4846 35.2175 18.6334 35.1681 18.8153C35.1186 18.9971 35.0197 19.0964 34.9372 19.0467C34.8548 18.9971 34.7888 19.1294 34.7888 19.3444C34.7888 19.5759 34.6734 19.89 34.5414 20.0719C34.2611 20.4357 34.2116 20.7002 34.459 20.5514C34.6899 20.4026 34.459 21.0144 34.2116 21.2128C34.0962 21.312 33.9478 21.6427 33.8983 21.9569C33.8488 22.271 33.6839 23.1308 33.5355 23.8584C33.4036 24.5859 33.2552 25.6276 33.2057 26.1732C33.1727 26.7189 33.1068 27.4795 33.0738 27.8763C33.0243 28.4881 33.0573 28.5873 33.3871 28.67C33.585 28.7196 33.9973 28.7361 34.3106 28.703C34.8548 28.6534 34.8712 28.6204 34.9042 27.9094C34.9207 27.496 34.9537 26.7519 35.0032 26.2559C35.0362 25.7599 35.0032 25.1811 34.9372 24.9827C34.8548 24.7512 34.8712 24.6024 35.0362 24.5528C35.2175 24.4701 35.4484 23.6599 35.5309 22.7505C35.5474 22.5852 35.5968 22.4033 35.6628 22.3537C35.7287 22.2876 35.7782 22.0395 35.7782 21.808C35.7782 21.5931 35.9266 21.2293 36.1245 21.0309C36.3719 20.7498 36.4873 20.4191 36.5038 19.7908C36.5203 19.2121 36.6192 18.8153 36.8006 18.6168C37.1964 18.2035 37.5592 16.9634 37.2953 16.8642C37.1634 16.8311 37.2294 16.6988 37.4602 16.5169C37.9055 16.1366 38.3012 14.8965 38.0704 14.4997C37.9714 14.3013 37.9714 14.0698 38.0869 13.8548C38.1693 13.673 38.3177 13.3753 38.4167 13.1934C38.5156 12.995 38.5156 12.7305 38.4167 12.4494C38.2847 12.1187 38.3342 11.9533 38.6146 11.6226C39.0928 11.077 39.4061 11.077 39.3071 11.6392C39.2577 11.8872 39.2907 12.0195 39.3896 11.9699C39.4721 11.9037 39.604 12.1022 39.6534 12.3998C39.7194 12.6974 39.8348 13.0116 39.9008 13.1108C39.9833 13.1934 40.0492 13.3423 40.0657 13.4415C40.1317 14.0367 40.3131 14.4832 40.6099 14.7973C40.8078 15.0288 40.8737 15.1776 40.7418 15.1776C40.5934 15.1776 40.6099 15.2603 40.7913 15.4422C41.0386 15.6902 41.0716 15.7729 41.1211 16.335C41.1376 16.4673 41.253 16.5665 41.3684 16.5335C41.5169 16.5004 41.5498 16.6327 41.4674 16.9634C41.4014 17.2941 41.4509 17.509 41.6158 17.6413C41.7477 17.757 41.8302 17.9389 41.7807 18.0712C41.7312 18.1869 41.7642 18.3358 41.8632 18.4019C41.9621 18.4515 42.0445 18.6499 42.0445 18.8318C42.0445 18.9971 42.16 19.146 42.2919 19.146C42.4238 19.146 42.5393 19.2617 42.5393 19.394C42.5393 19.5263 42.4568 19.642 42.3414 19.642C42.2424 19.642 42.3084 19.8073 42.4898 20.0058C42.8361 20.3861 43.2978 21.7419 43.1329 21.9073C43.0834 21.9569 43.1494 22.2049 43.2813 22.4529C43.4132 22.7009 43.4627 22.9489 43.4132 22.9986C43.3638 23.0647 43.4297 23.1474 43.5781 23.2135C43.7266 23.2631 43.809 23.3954 43.7595 23.5111C43.6771 23.7426 44.1058 24.867 44.3532 25.0158C44.4356 25.0654 44.5181 25.33 44.5181 25.578C44.5181 25.8425 44.6335 26.1402 44.7655 26.2559C44.8974 26.3716 45.0128 26.6031 45.0128 26.7685C45.0128 26.9338 45.1447 27.1488 45.3096 27.2314C45.458 27.3307 45.5405 27.4133 45.4745 27.4133C45.2107 27.4133 45.7714 28.5377 46.2991 29.0172C46.6124 29.3148 46.7773 29.5628 46.6783 29.5628C46.5629 29.5628 46.5299 29.6455 46.5794 29.7282C46.6453 29.8274 46.7443 29.8605 46.8267 29.8109C46.9587 29.7282 47.206 30.2242 47.239 30.6376C47.239 30.7203 47.3379 30.7864 47.4369 30.7699C47.5193 30.7533 47.7007 30.9352 47.8327 31.1833C47.9646 31.4313 48.2119 31.795 48.3933 32.01C48.5747 32.2249 48.7066 32.4564 48.6902 32.506C48.6737 32.5722 48.7396 32.7044 48.8386 32.8202C48.921 32.9359 48.954 33.1013 48.888 33.2005C48.8221 33.3162 48.921 33.432 49.1189 33.4816C49.3003 33.5312 49.4982 33.7131 49.5476 33.8784C49.6466 34.1595 49.9929 34.2587 50.7514 34.2422C50.8504 34.2256 50.9493 34.2918 50.9493 34.3745C50.9493 34.4571 51.0318 34.5233 51.1307 34.5233C51.2132 34.5233 51.2462 34.4406 51.1967 34.3414C51.0648 34.143 51.6419 34.2091 51.7903 34.4241C51.8563 34.4902 52.0542 34.4737 52.2356 34.3745C52.417 34.2752 52.7303 34.1926 52.9117 34.1926C53.1096 34.1926 53.258 34.1264 53.258 34.0272C53.258 33.9446 53.3734 33.9115 53.5053 33.9611C53.6373 34.0272 53.8681 33.9776 54 33.8619C54.132 33.7627 54.3298 33.6965 54.4453 33.7461C54.5607 33.7792 54.9235 33.7296 55.2368 33.6139C55.5501 33.4981 55.9129 33.4485 56.0448 33.4981C56.1768 33.5477 56.2262 33.4981 56.1603 33.3824C56.0943 33.2832 56.1108 33.2005 56.2097 33.2005C56.2922 33.2005 56.4076 33.2666 56.4736 33.3493C56.5725 33.5312 57.7598 33.3824 57.8423 33.2005C57.8588 33.1344 58.0732 33.1178 58.2875 33.1674C58.5184 33.2005 58.8152 33.1509 58.9471 33.0351C59.0791 32.9194 59.3594 32.8698 59.6068 32.9359C59.8376 33.0021 60.019 32.9855 60.019 32.9194C60.019 32.8367 60.3983 32.7706 60.8765 32.7541C61.3382 32.7375 61.767 32.6714 61.8165 32.5887C61.9814 32.3738 62.3606 32.3407 62.2287 32.5556C62.1133 32.7541 62.7894 32.6052 63.0532 32.3738C63.1357 32.2911 63.3666 32.2911 63.5809 32.3738C63.8283 32.473 64.0097 32.4564 64.0756 32.3572C64.1416 32.258 64.2405 32.2415 64.356 32.3572C64.6198 32.5722 66.4832 32.4068 66.6481 32.1588C66.7141 32.0596 66.7801 32.0265 66.7801 32.1092C66.7801 32.1919 66.8955 32.1588 67.0274 32.0431C67.1593 31.9438 67.3407 31.8942 67.4397 31.9604C67.654 32.0927 68.1982 31.4478 68.3466 30.8856C68.4126 30.6541 68.5445 30.4061 68.6435 30.34C68.7919 30.2408 68.7919 30.1746 68.6435 30.125C68.495 30.0589 68.5445 29.9266 68.7754 29.6786C68.9568 29.4802 69.0557 29.2322 69.0227 29.1329C68.9898 29.0337 69.0227 28.8684 69.1052 28.7857C69.2206 28.67 69.369 27.7936 69.402 26.9504C69.4185 26.8346 69.4845 26.7685 69.5669 26.8346C69.6659 26.8842 69.7318 26.785 69.7318 26.6362C69.7483 26.0079 69.8143 25.7599 69.9297 25.7599C69.9957 25.7599 70.0451 25.4953 70.0451 25.1646C70.0451 24.8339 70.1276 24.5032 70.2265 24.4536C70.3255 24.3875 70.4244 24.0568 70.4409 23.7261C70.4739 23.3954 70.5893 23.0812 70.7048 23.0316C70.8037 22.9986 70.9026 22.8167 70.9026 22.6513C70.9026 22.486 70.9521 22.2876 71.0346 22.2214C71.1005 22.1553 71.15 21.8411 71.15 21.527C71.15 21.2128 71.216 20.9813 71.2984 21.0144C71.4633 21.0475 72.0735 19.4767 71.958 19.2948C71.925 19.2286 71.958 19.1294 72.0405 19.0798C72.1229 19.0302 72.2878 18.5011 72.4033 17.9224C72.5187 17.3271 72.6671 16.8807 72.7166 16.9138C72.7825 16.9634 72.8815 16.6988 72.9474 16.335C72.9969 15.9713 73.1288 15.6737 73.2278 15.6737C73.3102 15.6737 73.3597 15.6075 73.2937 15.5248C73.2443 15.4422 73.3927 15.0949 73.6235 14.7477C73.8544 14.417 74.0358 13.9706 74.0358 13.7556C74.0358 13.5572 74.1183 13.3257 74.2007 13.2761C74.2996 13.21 74.3326 13.0281 74.2832 12.8793C74.2337 12.7139 74.2996 12.499 74.4151 12.3832C74.547 12.284 74.613 12.0195 74.58 11.8211C74.5305 11.5896 74.613 11.3085 74.7779 11.1431C74.9428 10.9943 75.0252 10.8124 74.9593 10.7628C74.9098 10.6967 74.9758 10.4817 75.1242 10.2503C75.2561 10.0353 75.388 9.52273 75.4045 9.1259C75.421 8.72906 75.487 8.39837 75.5529 8.39837C75.6189 8.39837 75.6354 8.16688 75.5694 7.86926C75.5034 7.50549 75.5199 7.38975 75.6519 7.47242C75.8003 7.5551 75.8332 7.42282 75.7838 7.00945C75.7343 6.67876 75.7838 6.38113 75.8662 6.31499C75.9652 6.26539 75.9982 6.11657 75.9487 5.9843C75.8992 5.85202 75.9652 5.70321 76.0971 5.6536C76.229 5.58746 76.3444 5.37251 76.3444 5.17409C76.3444 4.67805 76.5094 4.26468 76.6907 4.26468C76.7732 4.26468 76.8392 4.41349 76.8392 4.59538C76.8392 4.77726 76.9051 4.92607 76.9876 4.92607C77.07 4.92607 77.169 5.07488 77.2184 5.25677C77.2679 5.43865 77.2184 5.58746 77.1195 5.58746C77.0041 5.58746 77.0206 5.6536 77.1525 5.73627C77.2844 5.81895 77.3339 6.00083 77.2844 6.14964C77.2349 6.28192 77.2514 6.44727 77.3339 6.49687C77.4163 6.54648 77.4493 6.69529 77.3833 6.82757C77.3339 6.97638 77.3998 7.07559 77.5482 7.07559C77.6967 7.07559 77.7791 7.24094 77.7791 7.52203C77.7461 8.23302 78.01 9.72115 78.1584 9.72115C78.2243 9.72115 78.3233 9.86996 78.3728 10.0518C78.4222 10.2337 78.3893 10.3825 78.2903 10.3825C78.2079 10.3825 78.2903 10.5975 78.4552 10.8455C78.7026 11.1762 78.752 11.3746 78.6366 11.5896C78.5212 11.7715 78.5377 11.8707 78.6531 11.8707C78.752 11.8707 78.818 12.1518 78.818 12.4825C78.8015 13.21 78.9829 14.1855 79.1313 14.1855C79.1808 14.1855 79.2467 14.4501 79.2632 14.7808C79.2797 15.0949 79.3787 15.4587 79.4776 15.591C79.7085 15.8721 79.8239 16.5004 79.659 16.5004C79.5271 16.5004 79.8074 18.0051 79.9558 18.1539C80.0218 18.2035 80.0878 18.5672 80.1042 18.9806C80.1372 19.394 80.2197 19.7577 80.2856 19.8073C80.3681 19.8569 80.5 20.0554 80.599 20.2538C80.7474 20.5183 80.7474 20.6175 80.599 20.6672C80.4505 20.7168 80.467 20.8325 80.6814 21.0309C80.8793 21.2293 80.9288 21.4774 80.8793 21.808C80.8298 22.0891 80.8463 22.271 80.9123 22.238C80.9947 22.1883 81.0442 22.519 81.0607 22.9655C81.0607 23.3954 81.1596 23.8749 81.2751 24.0072C81.3905 24.1394 81.44 24.3213 81.3905 24.4205C81.3245 24.5032 81.3905 24.6686 81.5059 24.8008C81.6378 24.9166 81.7203 25.1646 81.6873 25.3465C81.6543 25.5118 81.7038 25.7764 81.7863 25.9087C81.8522 26.0409 81.8522 26.322 81.7698 26.537C81.6873 26.7519 81.6873 26.9173 81.7698 26.9173C81.9512 26.9173 82.1161 27.5621 81.9512 27.6614C81.8357 27.744 81.9017 28.4385 82.0666 28.9015C82.1326 29.0337 82.149 29.2487 82.1326 29.3644C82.1161 29.4802 82.215 29.6951 82.3634 29.8439C82.5778 30.0589 82.5943 30.1416 82.4129 30.2573C82.2645 30.373 82.2645 30.4392 82.3799 30.4888C82.4789 30.5384 82.5448 30.8195 82.5118 31.1336C82.4953 31.4478 82.5283 31.7124 82.6108 31.7124C82.6767 31.7124 82.7427 32.1257 82.7427 32.6383C82.7427 33.1509 82.8252 33.6304 82.9076 33.68C82.9901 33.7296 83.0395 33.928 83.0065 34.1099C82.9736 34.2752 83.0395 34.5233 83.1385 34.639C83.2209 34.7548 83.2539 35.0358 83.2044 35.2508C83.155 35.4823 83.1879 35.7138 83.2704 35.7634C83.3858 35.8295 83.3858 35.9618 83.3034 36.061C83.1879 36.2263 83.155 37.2515 83.2704 37.3672C83.3199 37.4499 83.4683 38.7066 83.4683 39.2687C83.4683 39.5664 83.5177 39.7813 83.5837 39.7483C83.6332 39.7152 83.6827 40.2112 83.6662 40.8561C83.6497 41.5175 83.7156 42.1293 83.7981 42.245C84.0289 42.5261 84.0784 44.0804 83.864 44.1961C83.7321 44.2457 83.7321 44.3118 83.8805 44.378C84.0289 44.4441 84.0289 44.5929 83.9135 44.8906C83.8311 45.1055 83.7981 45.3701 83.864 45.4527C83.9135 45.5354 83.9795 45.9653 84.0289 46.3787C84.0784 46.8086 84.1609 47.2054 84.2268 47.255C84.2928 47.3046 84.3423 47.7511 84.3423 48.2471C84.3423 48.7432 84.3917 49.2392 84.4742 49.3384C84.5731 49.5038 84.6886 50.2147 84.7875 51.3887C84.7875 51.521 84.8864 51.6863 84.9854 51.7525C85.1173 51.8352 85.1008 51.8848 84.9689 51.8848C84.7545 51.8848 84.804 52.5131 85.0843 53.406C85.1668 53.6705 85.1668 53.902 85.0843 53.9516C85.0019 54.0012 84.9854 54.3154 85.0184 54.6626C85.1833 55.8035 85.2492 56.035 85.4471 55.9192C85.5625 55.8531 85.579 55.8696 85.5131 56.0019C85.3152 56.3326 85.2492 57.242 85.4141 57.3412C85.5131 57.4074 85.612 57.7546 85.645 58.1184C85.678 58.4821 85.7439 58.8624 85.8099 58.9616C85.8594 59.0608 85.9583 59.4907 85.9913 59.9372C86.0408 60.3671 86.1067 60.9293 86.1562 61.1773C86.2057 61.4418 86.2716 61.8387 86.3211 62.0867C86.3541 62.3347 86.453 62.5662 86.552 62.5993C86.6344 62.6323 86.6674 62.8308 86.6344 63.0622C86.6014 63.2772 86.6179 63.4591 86.7004 63.4591C86.8488 63.4591 86.8653 63.5748 86.9148 64.3685C86.9312 64.6 86.9972 64.7819 87.0467 64.7819C87.1126 64.7819 87.1291 65.1952 87.0962 65.6913C87.0467 66.27 87.0962 66.6007 87.2116 66.6007C87.3105 66.6007 87.3435 66.7164 87.294 66.8487C87.2281 66.981 87.2775 67.2125 87.3765 67.3282C87.5249 67.4936 87.5249 67.5928 87.393 67.6754C87.294 67.7416 87.2611 67.9069 87.3105 68.0723C87.4919 68.5022 87.4919 68.9817 87.3105 69.1305C87.1951 69.2297 87.2116 69.2958 87.36 69.362C87.4589 69.3951 87.5084 69.5108 87.4589 69.5935C87.294 69.858 87.2611 71.2304 87.4095 71.3296C87.4919 71.3792 87.4754 71.5611 87.3765 71.743C87.2611 71.991 87.2611 72.1398 87.393 72.3052C87.5414 72.4705 87.5414 72.6193 87.393 72.8839C87.2611 73.1484 87.2611 73.2973 87.393 73.4626C87.5084 73.6114 87.5249 73.7106 87.4095 73.7768C87.2281 73.8925 87.3105 75.1987 87.5084 75.3476C87.7393 75.5129 87.7558 75.9097 87.5249 76.042C87.3765 76.1412 87.3765 76.1908 87.5084 76.1908C87.6238 76.1908 87.6733 76.4389 87.6403 76.8522C87.6074 77.216 87.6403 77.5136 87.7228 77.5136C87.8712 77.5136 87.8547 77.8278 87.6733 78.1254C87.6074 78.2246 87.6238 78.3569 87.7063 78.4065C87.7887 78.4726 87.8382 78.8364 87.8052 79.2498C87.7887 79.6631 87.8217 80.0269 87.8877 80.0765C87.9536 80.1261 88.0196 80.4072 88.0196 80.6883C88.0196 80.9859 88.0691 81.3827 88.1021 81.5646C88.135 81.7465 88.0856 81.9449 87.9866 82.0111C87.8712 82.0937 87.8547 82.1929 87.9701 82.2591C88.1186 82.3748 88.168 82.9039 88.2175 84.6566C88.234 84.9212 88.2999 85.1196 88.3659 85.1196C88.4484 85.1196 88.4813 85.2849 88.4813 85.4834C88.4648 85.6983 88.4978 86.0125 88.5638 86.2109C88.6298 86.3928 88.5968 86.6739 88.5143 86.8392C88.3989 87.0542 88.3989 87.1699 88.5143 87.2526C88.6298 87.3187 88.6792 87.7652 88.6462 88.3108C88.6298 88.8234 88.6298 89.2864 88.6792 89.336C88.7122 89.369 88.7617 89.7989 88.7947 90.2784C88.8111 90.7579 88.8771 91.717 88.9431 92.3949C89.009 93.0728 89.0585 93.9822 89.075 94.4121C89.0915 94.8586 89.1904 95.2058 89.2729 95.2058C89.3553 95.2058 89.3718 95.2554 89.3223 95.305C89.2729 95.3711 89.2894 95.553 89.3718 95.7184C89.4872 95.9168 89.4708 96.0325 89.3388 96.0656C89.2069 96.1152 89.2069 96.2309 89.3553 96.512C89.4708 96.727 89.5202 97.0908 89.4543 97.3884C89.3718 97.7356 89.3883 97.8514 89.5202 97.7852C89.7346 97.6364 89.7676 98.0498 89.5532 98.2647C89.4543 98.3639 89.4543 98.7277 89.5367 99.1411C89.6027 99.5379 89.6192 100.001 89.5862 100.183C89.5367 100.348 89.5697 100.497 89.6686 100.497C89.7676 100.497 89.8171 100.646 89.7841 100.844C89.7511 101.026 89.7841 101.34 89.85 101.539C89.9325 101.737 89.9325 102.068 89.85 102.266C89.7676 102.481 89.7676 102.646 89.85 102.646C89.9325 102.646 89.982 102.779 89.949 102.928C89.916 103.093 89.883 103.225 89.8665 103.225C89.85 103.225 89.8171 103.539 89.7841 103.92C89.7511 104.333 89.8006 104.631 89.8995 104.631C89.9984 104.631 90.0149 104.746 89.9655 104.895C89.916 105.044 89.916 105.242 89.982 105.342C90.1634 105.639 90.1798 105.953 90.0149 105.953C89.9325 105.953 89.949 106.152 90.0479 106.4C90.2623 106.979 90.2623 106.962 89.9984 107.127C89.8665 107.227 89.85 107.326 89.949 107.392C90.0974 107.508 90.1469 107.855 90.0314 107.971C89.916 108.119 89.9325 109.426 90.0479 109.426C90.1469 109.426 90.1304 109.574 90.0314 109.773C89.8995 110.021 89.8995 110.17 90.0314 110.335C90.1798 110.5 90.1798 110.649 90.0314 110.914C89.8995 111.178 89.8995 111.327 90.0314 111.493C90.1469 111.625 90.1469 111.757 90.0479 111.807C89.9325 111.889 89.916 113.212 90.0314 113.344C90.1469 113.477 90.0974 113.824 89.949 113.923C89.8335 114.006 89.8335 114.105 89.949 114.171C90.1469 114.336 90.2128 115.047 90.0149 115.047C89.949 115.047 89.883 115.18 89.883 115.329C89.883 115.494 89.8171 115.924 89.7346 116.288C89.6357 116.651 89.5862 117.296 89.6192 117.726C89.6357 118.173 89.6027 118.52 89.5202 118.52C89.4213 118.52 89.3718 118.768 89.3718 119.049C89.3883 119.876 89.3059 120.57 89.1574 120.785C89.0585 120.95 89.2234 121 89.8171 121C90.5591 121 90.6416 120.95 90.9219 120.438C91.1363 120.041 91.2022 119.644 91.1528 119.032C91.1033 118.47 91.1528 118.123 91.3012 118.007C91.4991 117.842 91.4826 116.453 91.2847 116.238C91.2352 116.205 91.3342 116.023 91.5156 115.841C91.9278 115.378 92.0103 114.303 91.6475 113.725C91.4166 113.344 91.4166 113.245 91.598 113.163C91.7629 113.113 91.8124 112.865 91.7629 112.336C91.7134 111.889 91.7464 111.575 91.8454 111.575C92.1092 111.575 92.0268 111.278 91.664 110.947C91.4001 110.699 91.3836 110.6 91.565 110.534C91.8289 110.434 92.0597 109.756 91.8289 109.756C91.7464 109.756 91.7134 109.426 91.7629 108.996C91.8124 108.467 91.7629 108.219 91.598 108.169C91.4001 108.086 91.4001 108.004 91.6145 107.673C91.9773 107.127 91.9938 106.135 91.6805 105.54C91.4991 105.209 91.4496 104.912 91.5321 104.68C91.6805 104.283 91.6475 103.639 91.4661 103.357C91.4001 103.242 91.4331 102.911 91.565 102.613C91.8124 101.969 91.7134 101.125 91.3177 100.662C91.1528 100.48 91.1033 100.332 91.1858 100.332C91.4331 100.332 91.3507 98.4962 91.1033 98.397C90.9384 98.3474 90.9549 98.2151 91.1363 97.8348C91.3836 97.3553 91.3507 96.4294 91.0868 96.016C91.0044 95.8837 90.9219 95.3711 90.9054 94.8751C90.8889 93.9822 90.7735 92.8579 90.6086 91.7335C90.5591 91.4193 90.4272 91.1052 90.3118 91.039C90.1634 90.9398 90.1634 90.9068 90.3283 90.9068C90.4767 90.9068 90.5097 90.543 90.4437 89.2864C90.3777 88.41 90.3447 87.2526 90.3612 86.74C90.3612 86.1944 90.2788 85.6322 90.1469 85.4172C90.0149 85.2023 89.9325 84.6732 89.949 84.1771C89.982 83.6811 89.8995 83.185 89.7841 83.0197C89.6357 82.8047 89.6192 82.6229 89.7346 82.3087C89.9655 81.7465 89.916 80.8702 89.6192 80.4237C89.4872 80.2088 89.4213 80.0104 89.4708 79.9608C89.8006 79.6301 89.5532 78.0097 89.1904 78.0097C89.108 78.0097 89.141 77.8443 89.2729 77.6294C89.4872 77.3152 89.5202 76.7199 89.3883 75.8271C89.3718 75.7609 89.2564 75.5956 89.108 75.4468C88.9266 75.2814 88.8936 75.1161 88.9925 74.9838C89.0915 74.8681 89.141 74.5043 89.1245 74.1571C89.108 73.8264 89.1574 73.5453 89.2399 73.5453C89.4543 73.5453 89.3883 73.2642 89.1245 72.9831C88.8936 72.7516 88.8936 72.6855 89.1245 72.239C89.2564 71.9745 89.3059 71.7099 89.2399 71.6603C89.1574 71.6107 89.108 71.2965 89.1245 70.9493C89.141 70.6021 89.0915 70.2383 89.009 70.1226C88.9101 70.0068 88.9431 69.7588 89.0915 69.4612C89.3718 68.9155 89.3388 68.1219 89.009 67.477C88.8441 67.1629 88.8111 66.8487 88.9101 66.518C88.976 66.2535 88.9596 65.9558 88.8936 65.8897C88.8111 65.807 88.7782 65.6251 88.8276 65.5094C88.8771 65.3771 88.7947 65.2283 88.6462 65.1787C88.4813 65.1126 88.4319 64.9968 88.5143 64.8811C88.6462 64.7157 88.6627 64.5338 88.5803 63.4425C88.5638 63.2111 88.3824 62.8638 88.201 62.6489C87.9701 62.4009 87.9042 62.219 88.0196 62.1032C88.168 61.9544 88.0361 60.9623 87.7887 60.3175C87.7228 60.1852 87.6733 59.6892 87.6403 59.2096C87.6238 58.7301 87.5084 58.2341 87.393 58.0853C87.2775 57.9365 87.1456 57.3578 87.1291 56.7956C87.0467 55.4563 87.0467 55.4232 86.8653 54.4476C86.7499 53.7697 86.6014 52.1658 86.519 50.4793C86.519 50.2974 86.4365 50.099 86.3541 50.0494C86.1727 49.9171 86.0902 49.3549 86.2387 49.1565C86.453 48.8754 86.2222 47.8007 85.8759 47.4204C85.678 47.222 85.5955 47.007 85.678 46.9409C85.8759 46.8086 85.9418 45.7669 85.7439 45.7669C85.6615 45.7669 85.6285 45.6512 85.678 45.5189C85.7439 45.3866 85.6615 45.2378 85.5131 45.1716C85.2822 45.089 85.2822 45.0394 85.5131 44.6756C85.9583 43.9977 85.8759 42.6418 85.3482 42.2781C85.2657 42.2119 85.2657 42.0631 85.3482 41.9474C85.5131 41.6663 85.5625 41.1041 85.4471 40.8891C85.2822 40.6411 85.2163 40.2608 85.2657 39.8971C85.3482 39.1034 85.2657 38.2932 85.0843 38.0782C84.9689 37.946 84.9359 37.8302 85.0184 37.8302C85.0843 37.8302 85.0184 37.731 84.8535 37.6153C84.5896 37.4169 84.5896 37.3672 84.7875 37.2846C84.9689 37.2184 85.0349 36.9869 85.0019 36.4744C84.9689 36.0941 85.0184 35.6807 85.1173 35.565C85.2163 35.4327 85.1668 35.2673 84.9689 35.0689C84.7215 34.8209 84.7051 34.6721 84.8205 34.3083C84.9524 33.9611 84.9359 33.8123 84.771 33.7131C84.6391 33.6304 84.6061 33.4816 84.6721 33.3824C84.738 33.2666 84.7051 33.0847 84.6061 32.969C84.5072 32.8533 84.4577 32.6383 84.5072 32.506C84.5731 32.3572 84.4907 32.2084 84.3423 32.1423C84.1444 32.0761 84.1279 31.9769 84.2433 31.7454C84.4577 31.3486 84.2763 30.0589 83.9795 29.6951C83.8311 29.5298 83.7156 29.0337 83.6991 28.4881C83.6827 27.9259 83.5837 27.496 83.4518 27.4299C83.3364 27.3472 83.3034 27.248 83.3858 27.1984C83.8146 26.9338 83.5507 25.0654 83.056 24.7347C82.9406 24.6686 82.9406 24.5528 83.0725 24.404C83.1714 24.2717 83.1879 24.0898 83.1055 23.941C83.023 23.8088 83.0065 23.6434 83.056 23.5773C83.089 23.4946 83.0395 23.3292 82.9406 23.197C82.8416 23.0647 82.7922 22.8993 82.8416 22.8001C82.8911 22.7175 82.8252 22.6183 82.6932 22.5686C82.5283 22.486 82.4953 22.3537 82.5943 21.9899C82.7757 21.3947 82.6438 20.6506 82.3304 20.2703C82.182 20.1215 82.0666 19.7743 82.0501 19.5263C82.0336 19.2782 81.9677 18.9641 81.9017 18.8483C81.8192 18.7491 81.8028 18.5838 81.8687 18.5011C81.9182 18.4184 81.8852 18.2861 81.7863 18.2365C81.6873 18.1704 81.6543 17.9885 81.7038 17.8232C81.7533 17.6578 81.7368 17.4759 81.6543 17.4263C81.5719 17.3767 81.5059 17.1287 81.4894 16.8807C81.4729 16.2524 81.1761 15.5083 80.9453 15.5083C80.8133 15.5083 80.8133 15.4422 80.9453 15.2934C81.1266 15.0619 81.0772 14.169 80.8463 13.8218C80.7804 13.706 80.7144 13.5572 80.6979 13.4745C80.6814 13.4084 80.6649 13.3423 80.6319 13.3092C80.5825 13.2431 80.467 12.284 80.4011 11.325C80.3681 10.6636 80.2527 10.2668 80.0218 10.0022C79.7909 9.75422 79.7085 9.44006 79.725 8.97709C79.7415 8.61332 79.7085 8.23302 79.6425 8.15035C79.5106 7.985 79.4776 7.88579 79.4776 7.57163C79.4776 7.47242 79.3622 7.40628 79.2138 7.40628C79.0159 7.40628 78.9829 7.35668 79.1148 7.19133C79.3457 6.91024 79.1973 5.57093 78.884 5.24023C78.752 5.09142 78.7026 4.92607 78.7685 4.87647C78.818 4.81033 78.7355 4.76072 78.5706 4.76072C78.3563 4.76072 78.3233 4.71112 78.4552 4.54577C78.6366 4.31429 78.5212 3.2726 78.3068 3.2726C78.2243 3.2726 78.1584 3.15685 78.1584 3.02458C78.1584 2.8923 78.0759 2.77655 77.9935 2.77655C77.8781 2.77655 77.8781 2.67735 77.977 2.46239C78.0759 2.29705 78.1254 2.1317 78.0924 2.09863C78.0594 2.06556 77.9935 1.73487 77.944 1.3711C77.7956 0.296343 77.6802 0.130995 77.103 0.130995C76.8227 0.130995 76.4269 0.0813911 76.229 0.0317869C75.9322 -0.0508869 75.8168 0.0152521 75.6848 0.379017ZM75.9652 2.39626C75.9157 2.44586 75.7838 2.42933 75.6848 2.36319C75.5364 2.26398 75.5364 2.19784 75.7013 2.09863C75.9322 1.96635 76.1466 2.21437 75.9652 2.39626ZM75.8003 3.22299C75.7508 3.2726 75.6189 3.25606 75.5199 3.18992C75.3715 3.09072 75.3715 3.02458 75.5364 2.92537C75.7673 2.79309 75.9817 3.04111 75.8003 3.22299ZM38.7465 7.00945C38.7465 7.04252 38.5981 7.07559 38.4002 7.07559C38.2188 7.07559 38.1034 7.00945 38.1693 6.91024C38.2518 6.77796 38.7465 6.86064 38.7465 7.00945ZM59.6892 31.9108C59.6892 31.9935 59.6232 32.0431 59.5243 32.0431C59.4419 32.0431 59.3594 31.8777 59.3594 31.6628C59.3594 31.3651 59.3924 31.3486 59.5243 31.547C59.6068 31.6793 59.6892 31.8446 59.6892 31.9108ZM58.6998 32.0431C58.6998 32.1257 58.6173 32.2084 58.5184 32.2084C58.4359 32.2084 58.403 32.1257 58.4524 32.0431C58.5019 31.9438 58.5844 31.8777 58.6338 31.8777C58.6668 31.8777 58.6998 31.9438 58.6998 32.0431ZM84.2598 34.3745C84.2598 34.4571 84.1939 34.5233 84.0949 34.5233C84.0125 34.5233 83.93 34.4075 83.93 34.2587C83.93 34.1264 84.0125 34.0603 84.0949 34.1099C84.1939 34.1595 84.2598 34.2752 84.2598 34.3745ZM84.4247 35.35C84.4247 35.4327 84.3588 35.5154 84.2598 35.5154C84.1774 35.5154 84.0949 35.4327 84.0949 35.35C84.0949 35.2508 84.1774 35.1847 84.2598 35.1847C84.3588 35.1847 84.4247 35.2508 84.4247 35.35ZM88.5473 72.0571C88.5473 72.1398 88.4813 72.2225 88.3824 72.2225C88.2999 72.2225 88.2175 72.1398 88.2175 72.0571C88.2175 71.9579 88.2999 71.8918 88.3824 71.8918C88.4813 71.8918 88.5473 71.9579 88.5473 72.0571ZM88.5473 73.0492C88.5473 73.1319 88.4813 73.2146 88.3824 73.2146C88.2999 73.2146 88.2175 73.1319 88.2175 73.0492C88.2175 72.95 88.2999 72.8839 88.3824 72.8839C88.4813 72.8839 88.5473 72.95 88.5473 73.0492ZM91.1858 111.079C91.1858 111.162 91.1033 111.244 91.0044 111.244C90.9219 111.244 90.8889 111.162 90.9384 111.079C90.9879 110.98 91.0703 110.914 91.1198 110.914C91.1528 110.914 91.1858 110.98 91.1858 111.079Z"
          fill="white"/>
    <path d="M10.9108 28.7362C10.548 28.9677 10.3831 28.9842 10.3336 28.8519C10.2347 28.5708 8.71758 28.637 8.5032 28.9346C8.35479 29.1165 8.25585 29.133 7.90955 28.9677C7.51378 28.7527 6.42542 28.7692 6.07912 29.0007C5.96369 29.0669 5.58441 29.133 5.20513 29.1661C3.24278 29.2818 2.22038 29.6456 1.97303 30.3235C1.80812 30.7534 1.90707 31.4809 2.17091 31.8116C2.25336 31.9274 2.23687 32.0431 2.08846 32.0927C1.97303 32.1423 1.87409 32.3903 1.89058 32.6384C1.90707 32.9029 1.80812 33.399 1.69269 33.7627C1.57726 34.11 1.47832 34.6887 1.47832 35.0359C1.47832 35.3831 1.41236 35.6973 1.3299 35.7469C1.11553 35.8957 1.01659 36.8547 1.165 37.4004C1.24745 37.6649 1.24745 37.9626 1.165 38.0618C0.967116 38.3263 0.983607 39.6987 1.18149 39.9302C1.29692 40.079 1.29692 40.1451 1.18149 40.1451C0.686781 40.1451 0.389954 41.6498 0.769232 42.2285C0.950626 42.5261 0.950626 42.6419 0.736252 43.0553C0.439425 43.6505 0.406445 44.7749 0.703271 44.7749C0.835194 44.7914 0.818703 44.841 0.6538 44.9898C0.356974 45.2213 0.323993 45.3701 0.241541 46.5276C0.19207 47.222 0.225051 47.4204 0.455916 47.5031C0.719761 47.6023 0.719761 47.6188 0.455916 47.7677C0.225051 47.8999 0.17558 48.0818 0.241541 48.5779C0.291012 48.9912 0.258032 49.2393 0.142599 49.2393C-0.170717 49.2393 0.076638 49.9833 0.455916 50.1487C0.719761 50.2644 0.818703 50.4463 0.818703 50.8266C0.818703 51.4549 1.28043 51.7195 1.59375 51.2896C1.77514 51.0415 1.80812 51.0415 1.89058 51.2565C1.98952 51.521 2.22038 51.5707 3.2098 51.5541C3.57259 51.5376 4.97427 51.521 6.30999 51.488C8.14041 51.4714 8.78354 51.4053 8.88248 51.24C8.99791 51.0581 9.03089 51.0581 9.09685 51.24C9.14633 51.4053 9.64104 51.4714 11.0592 51.488C12.0981 51.5045 13.2029 51.5541 13.5163 51.5872C13.8296 51.6368 14.3078 51.6037 14.5716 51.5376C14.885 51.4384 15.1323 51.4549 15.2807 51.5707C15.3962 51.6699 15.4951 51.7195 15.4951 51.6864C15.4951 51.6368 15.7919 51.6533 16.1712 51.7195C16.6494 51.8187 16.8968 51.7856 17.0782 51.6037C17.1936 51.4714 17.309 51.4384 17.309 51.5376C17.309 52.0171 18.7767 52.2982 19.4693 51.951C19.7826 51.7856 19.9475 51.7856 20.0794 51.9179C20.3268 52.1659 21.8109 52.1659 21.8934 51.9179C21.9263 51.8187 22.1077 51.8848 22.3551 52.0998C22.8333 52.5131 23.8062 52.7446 24.0701 52.4801C24.1525 52.3974 24.235 52.3809 24.235 52.447C24.235 52.5297 24.3339 52.4966 24.4659 52.3974C24.6308 52.2486 24.7297 52.2651 24.8781 52.447C24.9935 52.5793 25.1749 52.6619 25.2904 52.6123C25.6037 52.4966 26.1314 53.0588 25.8675 53.2076C25.7686 53.2903 25.7191 53.4556 25.7686 53.6044C25.8181 53.7367 25.8016 53.9021 25.7191 53.9517C25.6037 54.0178 25.6202 54.1666 25.7191 54.3816C25.8181 54.5469 25.8345 54.6957 25.7686 54.6957C25.6861 54.6957 25.4883 54.9272 25.3233 55.2083C25.109 55.5721 25.0595 55.9028 25.1255 56.4649C25.1914 57.0602 25.1584 57.2751 24.9441 57.4405C24.7462 57.5728 24.6637 57.8869 24.6472 58.5152C24.6472 59.1105 24.5483 59.5073 24.3669 59.7223C24.0206 60.1026 23.8227 61.1939 24.0371 61.5742C24.1525 61.7726 24.136 61.9875 24.0206 62.2025C23.6084 63.0292 23.5754 63.145 23.6578 63.2938C23.7073 63.3765 23.6743 63.4757 23.5754 63.5418C23.361 63.6741 23.361 64.4016 23.5919 64.5339C23.6908 64.6166 23.6578 64.7158 23.4929 64.8481C23.1466 65.0961 22.9652 66.8488 23.2621 67.196C23.394 67.3613 23.394 67.4275 23.2621 67.4275C22.9322 67.4275 22.421 68.8329 22.5695 69.362C22.6519 69.6762 22.6189 69.9408 22.454 70.1888C22.1407 70.6848 21.9263 71.71 22.1077 71.8257C22.1902 71.8753 22.1242 72.1233 21.9428 72.3548C21.5965 72.8509 21.4481 73.6776 21.646 74.0083C21.7285 74.1075 21.7285 74.2067 21.6625 74.2067C21.613 74.2067 21.646 74.3225 21.7614 74.4547C21.9263 74.6532 21.9098 74.7193 21.712 74.802C21.5636 74.8516 21.4811 75.0335 21.5141 75.2153C21.5471 75.3807 21.5141 75.5295 21.4316 75.5295C21.2337 75.5295 21.2667 76.3728 21.4811 76.6373C21.58 76.7696 21.58 76.8523 21.4646 76.8523C21.0194 76.8523 20.4422 78.5388 20.805 78.7703C20.8874 78.8199 20.9039 78.9853 20.8545 79.1506C20.805 79.2994 20.739 79.8616 20.6896 80.3907C20.6401 80.9364 20.5412 81.4489 20.4917 81.5481C20.2113 81.9946 20.1784 83.7969 20.4422 83.9622C20.6071 84.0614 20.5906 84.111 20.4257 84.1606C20.3103 84.1937 20.1949 84.574 20.1454 85.0535C20.1124 85.5 20.0629 86.2109 20.0299 86.6409C19.997 87.0708 19.8815 87.8314 19.7826 88.3109C19.6672 88.9392 19.6507 89.336 19.7826 89.6502C19.865 89.8982 19.898 90.1958 19.8321 90.295C19.7661 90.4108 19.7001 90.8407 19.6672 91.2871C19.6507 91.8493 19.7001 92.1139 19.865 92.18C20.0629 92.2461 20.0629 92.3453 19.7826 92.7256C19.4198 93.2382 19.3538 94.1972 19.6177 94.7263C19.7166 94.9082 19.7331 95.1397 19.6672 95.2555C19.4528 95.6192 19.4858 96.7105 19.7331 96.9585C19.931 97.157 19.931 97.2066 19.7331 97.2727C19.6177 97.3223 19.4858 97.5042 19.4693 97.653C19.3868 98.3309 19.4858 99.5876 19.6342 99.7694C19.7331 99.9017 19.7166 99.9844 19.5517 100.051C19.4033 100.117 19.3374 100.365 19.3868 100.894C19.4033 101.307 19.3703 101.654 19.2879 101.654C19.09 101.654 19.2879 102.184 19.5187 102.349C19.6177 102.415 20.0135 102.481 20.3762 102.481C21.1348 102.481 21.4316 102.134 21.0688 101.704C20.9369 101.539 20.9369 101.423 21.0524 101.357C21.2502 101.224 21.2337 100.183 21.0359 99.8521C20.9534 99.7198 20.9699 99.5876 21.0524 99.5214C21.1513 99.4718 21.2008 99.1246 21.1843 98.7608C21.1678 98.3971 21.2337 98.0498 21.3327 97.9672C21.4646 97.8845 21.4646 97.8183 21.3492 97.7191C21.1513 97.5869 21.1348 97.2727 21.2997 97.1073C21.3657 97.0412 21.3492 96.8428 21.2502 96.6774C21.1678 96.4956 21.1513 96.3633 21.2337 96.3633C21.2997 96.3633 21.3657 96.0657 21.3822 95.7019C21.3822 95.3381 21.3492 95.0405 21.2832 95.0405C21.2173 95.0405 21.1678 94.8917 21.1513 94.7098C21.1348 94.5279 21.1843 94.3791 21.2502 94.3791C21.3162 94.3791 21.3492 94.1476 21.3327 93.8831C21.3162 93.602 21.3657 93.387 21.4481 93.387C21.5306 93.387 21.5965 93.2713 21.5965 93.139C21.5965 93.0067 21.5306 92.891 21.4316 92.891C21.3327 92.891 21.3327 92.7422 21.4316 92.4611C21.5471 92.18 21.5471 91.932 21.4316 91.717C21.3327 91.5517 21.3162 91.4029 21.3822 91.4029C21.4646 91.4029 21.5306 91.1052 21.5306 90.7415C21.5471 90.3777 21.4976 90.0801 21.4316 90.0801C21.3822 90.0801 21.3162 89.9643 21.3162 89.8321C21.3162 89.6998 21.3822 89.584 21.4316 89.584C21.4976 89.584 21.5471 89.3029 21.5306 88.9557C21.5141 88.625 21.58 88.2778 21.679 88.2117C21.7944 88.1124 21.7779 88.0463 21.646 87.9967C21.4976 87.9306 21.4976 87.7983 21.6295 87.4676C21.712 87.2196 21.8109 86.7235 21.8274 86.3598C21.8439 85.996 21.8934 85.6157 21.9428 85.533C21.9923 85.4338 22.0088 84.9874 21.9758 84.5409C21.8934 83.4 21.8769 83.5654 22.2561 81.7466C22.487 80.6553 22.5365 80.0435 22.421 79.9277C22.3221 79.7955 22.3386 79.6136 22.5035 79.3821C22.6849 79.1341 22.7014 78.9191 22.6024 78.638C22.52 78.39 22.52 78.1255 22.6024 77.9601C22.7014 77.8113 22.7179 77.679 22.6684 77.679C22.6189 77.679 22.6684 77.5137 22.7838 77.2987C22.8993 77.1003 23.0147 76.7861 23.0477 76.6043C23.0807 76.4224 23.1136 76.1248 23.1466 75.9429C23.1796 75.761 23.2456 75.4964 23.295 75.3642C23.361 75.2319 23.3775 74.9673 23.3445 74.7854C23.3115 74.6036 23.3775 74.4051 23.4599 74.339C23.5919 74.2729 23.5754 74.1571 23.4599 74.0083C23.2456 73.7437 23.3115 73.2146 23.6084 73.0162C23.7733 72.9005 23.7733 72.8343 23.6248 72.7682C23.4599 72.7186 23.4599 72.6029 23.5919 72.3714C23.8062 71.9415 23.9382 71.4123 23.9382 70.9328C23.9382 70.7344 24.0041 70.5691 24.0866 70.5691C24.169 70.5691 24.1855 70.3376 24.1196 70.04C24.0536 69.6762 24.0701 69.5605 24.202 69.6431C24.3339 69.7258 24.3834 69.5935 24.3339 69.2628C24.3009 68.9817 24.3504 68.7503 24.4329 68.7503C24.5153 68.7503 24.5483 68.6841 24.4823 68.6014C24.4329 68.5188 24.4659 68.403 24.5648 68.3369C24.8121 68.1881 24.7792 67.7086 24.5318 67.8574C24.4164 67.9235 24.4494 67.8243 24.6143 67.6259C24.7957 67.444 24.8781 67.2125 24.8286 67.1133C24.7792 67.0306 24.7957 66.7661 24.8946 66.5346C25.01 66.2204 24.9935 66.1047 24.8616 66.1047C24.7462 66.1047 24.8121 66.0055 24.9771 65.8732C25.2574 65.6748 25.2739 65.5921 25.0925 65.2118C24.9276 64.8481 24.9441 64.7488 25.1584 64.6662C25.3398 64.6 25.3893 64.4512 25.3069 64.1701C25.2574 63.9386 25.3069 63.6576 25.4058 63.5087C25.5212 63.3765 25.6202 62.8639 25.6202 62.3844C25.6202 61.8883 25.6696 61.5246 25.7356 61.5576C25.7851 61.6072 25.8345 61.4254 25.851 61.1773C25.8675 60.4829 25.9995 59.8215 26.1973 59.59C26.2963 59.4743 26.3293 59.3254 26.2798 59.2758C26.2138 59.2262 26.2303 59.0444 26.2963 58.879C26.3787 58.7137 26.4612 58.3664 26.4942 58.0853C26.5436 57.8208 26.6591 57.4901 26.758 57.3578C26.9064 57.1594 26.9064 57.1429 26.758 57.2421C26.6426 57.3082 26.5436 57.2917 26.5436 57.1925C26.5436 57.1098 26.6096 57.0106 26.692 56.9775C26.7745 56.9444 26.8734 56.6634 26.8899 56.3492C26.9229 56.035 27.0219 55.7209 27.1208 55.6547C27.2197 55.5721 27.2032 55.5225 27.0548 55.5225C26.8734 55.5225 26.8734 55.4563 27.0713 55.1422C27.4506 54.5634 27.8958 52.91 27.7639 52.6785C27.566 52.3643 27.5331 52.0502 27.698 52.0502C27.7804 52.0502 27.8629 51.9179 27.8958 51.7525C27.9783 51.3557 26.4117 50.7935 25.3069 50.8266C24.8616 50.8431 24.4329 50.777 24.3669 50.6778C24.3009 50.562 24.1855 50.562 24.0371 50.6612C23.7403 50.8927 23.427 50.8597 23.2291 50.562C23.0972 50.3636 23.0312 50.3636 22.9652 50.529C22.8993 50.6943 22.8333 50.6943 22.6519 50.5455C22.52 50.4463 22.421 50.4132 22.421 50.4794C22.421 50.5455 22.3056 50.5124 22.1737 50.3967C22.0418 50.2975 21.8769 50.2479 21.8109 50.2809C21.7285 50.3305 21.3657 50.314 20.9864 50.2313C20.6071 50.1652 20.2443 50.1487 20.1949 50.1983C20.0299 50.3802 19.2879 50.3802 19.3868 50.1983C19.4528 50.0991 19.3703 50.066 19.156 50.1321C18.4963 50.3471 18.1336 50.3802 18.1336 50.2148C18.1336 50.1321 18.0511 50.066 17.9522 50.066C17.8697 50.066 17.8367 50.1321 17.8862 50.2313C18.0511 50.4959 17.7048 50.4132 17.4739 50.1487C17.3585 49.9999 17.1606 49.9172 17.0287 49.9668C16.9133 50.0164 16.468 49.9833 16.0393 49.9172C15.6105 49.8345 15.1818 49.818 15.0828 49.8676C14.8025 50.0495 14.5057 50.0495 14.5057 49.8841C14.5057 49.7849 14.2089 49.7518 13.8461 49.7849C13.4668 49.818 13.17 49.7684 13.1205 49.6692C13.071 49.5534 13.0051 49.5369 12.9061 49.6526C12.7247 49.8841 12.3619 49.9337 12.1311 49.7684C11.9167 49.5865 10.8943 49.603 10.5975 49.7849C10.482 49.8676 10.3831 49.851 10.3831 49.7518C10.3831 49.6526 10.0368 49.6196 9.5256 49.6692C9.04738 49.7188 8.58565 49.7518 8.48671 49.7518C8.40426 49.7353 7.89306 49.7022 7.38186 49.6692C6.83768 49.6361 6.42542 49.6692 6.42542 49.7684C6.42542 49.851 6.32648 49.8676 6.22754 49.7849C5.9472 49.6196 4.77639 49.5699 4.77639 49.7353C4.77639 49.9172 4.05081 49.851 3.91889 49.6526C3.83644 49.5369 3.73749 49.5369 3.67153 49.6526C3.52312 49.851 2.63264 49.9172 2.63264 49.7188C2.63264 49.6526 2.50072 49.5699 2.3523 49.5369C2.13793 49.5038 2.07197 49.2889 2.03899 48.5779C2.0225 48.0818 2.00601 47.6685 1.97303 47.6685C1.95654 47.6685 1.92356 47.5362 1.89058 47.3708C1.85759 47.222 1.90707 47.1393 1.98952 47.1889C2.08846 47.2385 2.10495 47.1228 2.05548 46.8913C2.00601 46.6764 2.03899 46.2795 2.13793 46.015C2.23687 45.767 2.25336 45.5024 2.1874 45.4528C2.05548 45.3536 2.03899 45.1221 2.13793 44.8079C2.15442 44.7418 2.17091 44.6261 2.15442 44.5434C2.13793 44.4772 2.1874 44.3284 2.26985 44.2127C2.33581 44.1135 2.40178 43.634 2.38529 43.1545C2.3688 42.6915 2.43476 42.2947 2.51721 42.2947C2.58317 42.2947 2.59966 42.1293 2.55019 41.9474C2.3523 41.3191 2.3523 41.0546 2.5337 40.9388C2.64913 40.8561 2.64913 40.8065 2.48423 40.8065C2.30283 40.8065 2.31932 40.7239 2.5337 40.4097C2.68211 40.1782 2.74807 39.8971 2.6986 39.7648C2.64913 39.6326 2.68211 39.4672 2.76456 39.4176C2.92947 39.3184 2.89649 37.7807 2.71509 37.5161C2.66562 37.4169 2.68211 37.3342 2.78105 37.3342C2.86351 37.3342 2.91298 37.1358 2.88 36.9043C2.86351 36.6728 2.96245 36.3752 3.09437 36.2264C3.27576 36.0611 3.29225 35.9453 3.16033 35.8626C2.97894 35.7469 2.97894 35.4823 3.17682 35.0194C3.24278 34.8871 3.30874 34.5068 3.32523 34.1926C3.35822 33.8785 3.44067 33.5643 3.50663 33.5147C3.70451 33.3659 3.75398 32.2085 3.60557 31.7455C3.50663 31.4809 3.52312 31.3817 3.70451 31.3817C3.83644 31.3817 3.95187 31.3156 3.95187 31.2494C3.95187 31.1668 4.05081 31.1006 4.16624 31.0841C4.52903 31.051 5.18864 30.9353 5.436 30.8361C6.1121 30.6046 6.24403 30.5881 6.30999 30.7699C6.35946 30.9188 6.42542 30.9188 6.60681 30.7699C6.75523 30.6542 7.11801 30.6046 7.4808 30.6542C7.81061 30.6873 8.05796 30.6707 8.00849 30.5881C7.95902 30.5054 8.02498 30.4392 8.1569 30.4392C8.28883 30.4392 8.40426 30.5054 8.40426 30.5881C8.40426 30.6707 8.55267 30.7038 8.71758 30.6377C8.88248 30.5881 9.37719 30.5385 9.78945 30.5219C10.2017 30.5219 10.548 30.4558 10.548 30.3731C10.548 30.1912 10.9273 30.2574 11.0922 30.4723C11.1581 30.5881 11.2571 30.5715 11.3395 30.4558C11.4055 30.3731 11.6364 30.2904 11.8672 30.2904C12.0981 30.2904 12.329 30.3731 12.4114 30.4558C12.4939 30.5881 12.5598 30.5881 12.6588 30.4723C12.7577 30.3235 13.104 30.2739 13.2359 30.3896C13.3843 30.5219 14.6871 30.4888 14.7695 30.3566C14.8355 30.2574 14.9344 30.2739 15.0169 30.4062C15.1158 30.555 15.2148 30.5715 15.2972 30.4723C15.4621 30.2408 15.9898 30.1747 15.9898 30.3896C15.9898 30.4888 16.0558 30.5385 16.1217 30.4888C16.4186 30.307 17.1441 30.2574 17.2266 30.4062C17.2926 30.4888 17.408 30.555 17.4904 30.555C17.5894 30.555 17.6059 30.4723 17.5564 30.3896C17.441 30.2078 17.8532 30.1582 18.0346 30.34C18.216 30.5219 19.4528 30.5385 19.4528 30.3731C19.4528 30.2739 19.5847 30.2904 19.7826 30.3896C20.0135 30.5219 20.2113 30.5219 20.4422 30.3896C20.6731 30.2574 20.8545 30.2739 21.0853 30.4227C21.3327 30.5715 21.4646 30.5715 21.646 30.4062C21.7944 30.307 21.9428 30.2739 21.9923 30.3566C22.0912 30.5385 23.361 30.4888 23.8062 30.307C24.0371 30.2078 24.0866 30.2243 24.0041 30.3566C23.8722 30.5881 24.0041 30.5881 24.4823 30.4062C24.6637 30.3235 24.9441 30.34 25.1255 30.4227C25.3398 30.5385 25.4718 30.5219 25.5542 30.3896C25.6367 30.2574 25.7356 30.2739 25.9335 30.4723C26.1479 30.6707 26.2798 30.7038 26.5436 30.555C26.7415 30.4558 26.8734 30.4392 26.8734 30.5385C26.8734 30.7203 28.0607 30.7038 28.2092 30.5054C28.2586 30.4227 28.4235 30.4723 28.5555 30.6211C28.7039 30.7534 28.8358 30.8361 28.8688 30.803C29.0337 30.6542 30.0231 30.6046 30.1055 30.7369C30.155 30.8195 30.2705 30.8857 30.3529 30.8857C30.4518 30.8857 30.4683 30.803 30.4189 30.7203C30.2869 30.5054 30.3859 30.5054 30.8971 30.7369C31.2104 30.8857 31.3753 30.8857 31.5567 30.7369C31.6886 30.6377 31.8205 30.6046 31.8535 30.6873C31.9195 30.8857 33.1398 31.1006 33.1398 30.9188C33.1398 30.8361 33.2552 30.7699 33.3871 30.7699C33.519 30.7699 33.6345 30.8361 33.6345 30.9022C33.6345 30.9684 33.9313 31.0014 34.2941 30.9684C34.6569 30.9353 35.0032 30.9849 35.0526 31.0676C35.2835 31.4479 35.3989 31.1337 35.3825 30.2739C35.366 29.3314 35.366 29.3314 34.7888 29.1991C34.4755 29.133 33.9643 29.1495 33.684 29.2322C33.3377 29.3149 33.1068 29.3149 33.0408 29.1991C32.9914 29.1165 32.8429 29.0834 32.711 29.133C32.5956 29.1826 32.4472 29.1495 32.3977 29.0669C32.2658 28.8519 31.1444 29.0007 30.9795 29.2487C30.8971 29.381 30.8311 29.3976 30.8311 29.2983C30.8311 28.8519 28.8193 28.7031 28.4235 29.1165C28.3741 29.1661 28.2256 29.1165 28.0937 29.0007C27.8299 28.7362 26.5601 28.7858 26.3787 29.0669C26.2798 29.2157 26.2138 29.1991 26.0984 28.9842C26.0159 28.8354 25.8675 28.7031 25.7851 28.7031C25.7026 28.7031 25.5707 28.67 25.4718 28.6535C24.8451 28.4716 24.3009 28.4716 23.8887 28.6866C23.5754 28.8354 23.328 28.8684 23.1961 28.7858C23.0807 28.7031 22.7344 28.637 22.421 28.6535C22.1077 28.67 21.7614 28.6204 21.6625 28.5377C21.5636 28.4716 21.3492 28.5212 21.1678 28.637C20.9039 28.8354 20.7885 28.8354 20.3762 28.6204C20.0959 28.4716 19.865 28.4385 19.7991 28.5212C19.7496 28.6204 19.3868 28.67 18.9911 28.637C18.4963 28.6204 18.249 28.6866 18.1336 28.885C18.0511 29.0338 17.9687 29.0669 17.9687 28.9677C17.9687 28.5543 16.4515 28.3724 15.7919 28.7031C15.5446 28.8188 15.2642 28.885 15.1818 28.8354C15.0993 28.7692 14.6871 28.7031 14.2583 28.67C13.7141 28.6039 13.4668 28.6535 13.4173 28.8188C13.3349 29.0173 13.2689 29.0173 12.9391 28.8023C12.3619 28.422 11.4715 28.3889 10.9108 28.7362ZM20.4422 29.3976C20.4422 29.4802 20.3762 29.5629 20.2773 29.5629C20.1949 29.5629 20.1124 29.4802 20.1124 29.3976C20.1124 29.2983 20.1949 29.2322 20.2773 29.2322C20.3762 29.2322 20.4422 29.2983 20.4422 29.3976ZM21.4316 29.3976C21.4316 29.4802 21.3657 29.5629 21.2667 29.5629C21.1843 29.5629 21.1018 29.4802 21.1018 29.3976C21.1018 29.2983 21.1843 29.2322 21.2667 29.2322C21.3657 29.2322 21.4316 29.2983 21.4316 29.3976ZM24.3999 64.1867C24.3999 64.5339 24.1855 64.6166 23.9547 64.3685C23.7897 64.1867 23.7897 64.1205 23.9547 64.0709C24.3009 63.9221 24.3999 63.9552 24.3999 64.1867ZM24.235 65.1126C24.235 65.1953 24.169 65.278 24.0701 65.278C23.9876 65.278 23.9052 65.1953 23.9052 65.1126C23.9052 65.0134 23.9876 64.9473 24.0701 64.9473C24.169 64.9473 24.235 65.0134 24.235 65.1126ZM20.2773 101.952C20.2773 102.2 20.0959 102.299 19.8321 102.2C19.6342 102.117 19.6342 102.084 19.8156 101.969C20.0959 101.787 20.2773 101.787 20.2773 101.952Z"
          fill="white"/>
    <path d="M40.2141 36.7389C40.0162 36.8381 39.8184 37.02 39.7689 37.1523C39.7194 37.3011 39.7689 37.3342 39.9173 37.2515C40.0492 37.1688 40.0822 37.1854 40.0162 37.2515C39.8184 37.483 39.3896 37.4995 39.505 37.2846C39.5545 37.1688 39.4556 37.2515 39.2742 37.4499C39.0928 37.6649 38.8619 37.8302 38.763 37.8302C38.4991 37.8302 38.2188 38.442 38.4167 38.5743C38.5156 38.6404 38.5486 38.7396 38.4991 38.8058C38.3837 39.0042 38.8949 39.9797 39.1258 39.9797C39.2577 39.9797 39.2577 40.0293 39.1258 40.1616C38.8454 40.4427 39.2412 41.8316 39.7524 42.3442C39.9338 42.5095 40.1152 42.8402 40.1647 43.0717C40.3131 43.6174 41.5663 44.8409 42.0116 44.8575C42.0775 44.8575 42.3414 45.0063 42.5887 45.1716C42.8361 45.337 43.0834 45.4362 43.1494 45.3866C43.1989 45.3204 43.3803 45.3535 43.5452 45.4362C43.7431 45.5519 43.875 45.5519 43.9409 45.4362C44.0069 45.337 44.1718 45.4031 44.3367 45.6181C44.5841 45.9157 44.7819 45.9818 45.6065 45.9653C47.4534 45.9157 47.5523 45.8992 47.8491 45.2874C47.9976 44.9898 48.2779 44.5929 48.4593 44.4276C48.9045 44.0142 49.02 42.4599 48.6242 42.3111C48.5253 42.2946 48.5747 42.1788 48.7231 42.0631C48.8551 41.9639 49.0035 41.6167 49.0365 41.286C49.0694 40.9553 49.1519 40.5915 49.2178 40.4758C49.3003 40.3435 49.2508 40.1947 49.1024 40.0789C48.8716 39.9136 48.8716 39.8474 49.0694 39.5664C49.4817 39.0207 49.3498 38.4089 48.7231 37.8467C48.0635 37.2846 48.0141 37.268 47.4039 37.4995C47.1566 37.5987 46.8762 37.6153 46.7773 37.5491C46.4475 37.3507 45.0128 37.3011 45.0128 37.483C45.0128 37.5657 44.8314 37.4664 44.6006 37.268C44.1058 36.8051 43.2319 36.6066 42.6712 36.8216C42.3744 36.9373 42.193 36.9208 42.061 36.7885C41.8137 36.5405 40.6594 36.5074 40.2141 36.7389ZM40.6429 38.0286C40.7913 38.3593 40.9232 38.4089 41.6818 38.3759C42.1435 38.3759 42.5393 38.4255 42.5393 38.5081C42.5393 38.5908 42.7207 38.6239 42.935 38.5577C43.4132 38.442 43.6606 38.7562 43.1989 38.905C42.7536 39.0538 42.7701 39.1695 43.4132 40.0128C43.7101 40.4096 44.0069 40.8561 44.0729 41.0049C44.1553 41.2529 44.3862 41.3025 45.2602 41.3025H46.332L46.2826 40.2443C46.2331 39.4837 46.2826 39.2026 46.4145 39.2522C46.5134 39.3018 46.7938 39.2522 47.0411 39.1695L47.4699 39.0042L47.3874 40.0293C47.3379 40.5915 47.2885 41.3686 47.272 41.7489C47.2555 42.1458 47.1895 42.4599 47.1236 42.4599C47.0576 42.4599 47.0246 42.6914 47.0576 42.956C47.0906 43.2371 47.0246 43.5182 46.9092 43.5843C46.7938 43.6504 46.6783 43.8489 46.6289 44.0307C46.5794 44.3614 45.8703 44.5102 45.6559 44.2292C45.6065 44.163 45.2107 44.0803 44.7984 44.0638C44.3697 44.0473 44.0234 43.9811 44.0234 43.915C44.0234 43.8158 42.6712 43.1379 42.4403 43.1379C42.2754 43.1213 41.22 41.6167 41.3025 41.4844C41.3355 41.4017 41.2695 41.2529 41.1376 41.1372C41.0057 41.0214 40.8902 40.7569 40.8902 40.5254C40.8902 40.3104 40.7748 40.0955 40.6429 40.0459C40.478 39.9797 40.4285 39.8309 40.478 39.649C40.5274 39.4837 40.4615 39.0372 40.3131 38.6404C40.0162 37.7475 40.0162 37.6649 40.2801 37.6649C40.3955 37.6649 40.5604 37.8302 40.6429 38.0286Z"
          fill="white"/>
    <path d="M9.77295 39.2191C9.55857 39.3349 9.26175 39.5829 9.09684 39.7813C8.91545 39.9797 8.73405 40.0955 8.68458 40.0458C8.63511 39.9797 8.45372 39.9962 8.28882 40.0624C8.12391 40.1451 7.92603 40.2112 7.82709 40.2112C7.54675 40.2443 6.92012 40.7072 6.92012 40.8891C6.92012 40.9718 6.68925 41.071 6.40892 41.0875C5.76579 41.1371 4.80935 41.8481 4.67743 42.3772C4.62796 42.6087 4.46306 42.7906 4.33113 42.7906C4.18272 42.7906 3.8859 42.989 3.65503 43.2371C3.42417 43.5016 3.16032 43.7 3.09436 43.7C2.59965 43.7 2.63263 44.626 3.16032 45.2047C3.5396 45.6346 4.28166 45.5519 4.28166 45.0889C4.28166 44.9071 4.38061 44.7748 4.51253 44.7748C4.75988 44.7748 5.76579 43.7166 5.76579 43.452C5.76579 43.3693 5.89772 43.3363 6.06262 43.4024C6.21103 43.452 6.29348 43.452 6.22752 43.3693C6.07911 43.204 6.73872 42.5922 6.93661 42.7245C7.01906 42.7741 7.08502 42.741 7.08502 42.6583C7.08502 42.5591 7.31589 42.4103 7.57973 42.3111C7.86007 42.2284 8.07444 42.0796 8.07444 42.0135C8.07444 41.9473 8.30531 41.8647 8.60213 41.8481C8.88247 41.8316 9.26175 41.6497 9.44314 41.4678C9.60804 41.2694 9.8554 41.1537 9.98732 41.2033C10.1192 41.2529 10.2182 41.2198 10.2182 41.1537C10.2182 40.9222 10.6634 40.8064 10.6634 41.0214C10.6964 41.4017 11.1252 42.3772 11.422 42.6914C11.6034 42.9064 11.6364 43.0552 11.5374 43.1213C11.422 43.1875 11.455 43.3197 11.6199 43.452C11.8013 43.6008 11.8507 43.8158 11.7848 44.0638C11.7188 44.3283 11.7683 44.4441 11.9167 44.4441C12.0816 44.4441 12.1311 44.6094 12.0816 45.0228C12.0321 45.5519 12.0816 45.6511 12.6423 45.9653C13.5163 46.4944 14.6706 46.2794 14.6706 45.6015C14.6706 45.4196 14.7695 45.2708 14.885 45.2708C15.0004 45.2708 15.2312 44.9897 15.4126 44.6425C15.8084 43.8984 16.6164 43.1213 17.0287 43.1213C17.2101 43.1213 17.276 43.0552 17.2101 42.9229C17.1441 42.8072 17.1606 42.7906 17.2925 42.8568C17.4574 42.9725 18.6118 42.6583 18.7932 42.4434C18.8426 42.3938 19.024 42.2946 19.2054 42.245C19.5352 42.1292 19.5352 42.1292 19.2219 42.3772C19.0405 42.5095 18.991 42.6253 19.1065 42.6253C19.2219 42.6253 19.2714 42.6914 19.2219 42.7741C19.1559 42.8568 19.2054 42.956 19.3044 42.989C19.4198 43.0221 19.5187 43.2867 19.5352 43.5678C19.6012 44.4772 20.1124 45.5354 20.6236 45.833C20.8874 45.9984 21.0688 46.1968 21.0194 46.2794C20.8709 46.5109 22.2396 46.3952 22.4375 46.1472C22.5365 46.0314 22.7344 45.9322 22.8498 45.9322C22.9817 45.9322 23.0806 45.8495 23.0806 45.7669C23.0806 45.6677 23.1961 45.6015 23.3445 45.6015C23.5259 45.6015 23.5754 45.5023 23.4929 45.2708C23.4105 45.0228 23.4929 44.9071 23.7897 44.7913C24.0041 44.7086 24.3339 44.4441 24.5153 44.2126C24.6967 43.9811 24.8946 43.8323 24.9441 43.8819C24.9935 43.9315 25.1584 43.7827 25.3068 43.5512C25.4717 43.3197 25.6531 43.1544 25.7191 43.204C25.8016 43.2536 25.9005 43.2205 25.9665 43.1213C26.1314 42.8568 26.3292 42.9229 26.6261 43.3859C26.824 43.7 26.8569 43.8654 26.7085 44.0307C26.6096 44.163 26.5601 44.411 26.6261 44.6094C26.692 44.7913 26.6591 44.9401 26.5601 44.9401C26.4612 44.9401 26.3952 45.2212 26.4282 45.6015L26.4612 46.2629H27.4011H28.3576L28.2751 45.6015C28.2256 45.2047 28.2586 44.9401 28.3576 44.9401C28.6049 44.9401 28.5554 44.3449 28.2751 44.1134C28.0607 43.9315 28.0607 43.8819 28.2421 43.7166C28.5554 43.4685 28.7203 42.956 28.506 42.956C28.3905 42.956 28.3576 42.7741 28.407 42.5095C28.4565 42.2615 28.4235 41.9308 28.3411 41.782C28.1432 41.3852 27.0218 40.7238 26.8899 40.9057C26.8404 41.0049 26.5931 41.0875 26.3292 41.1041C25.5047 41.1537 24.7297 41.6001 24.5153 42.1292C24.3834 42.4103 24.2515 42.5922 24.202 42.5261C23.9217 42.2615 22.487 43.4685 22.6354 43.8488C22.7014 43.9977 22.5859 44.1134 22.3221 44.1795C22.0747 44.2457 21.9263 44.411 21.9263 44.6094C21.9263 44.7748 21.8439 44.9732 21.7284 45.0393C21.5965 45.122 21.58 45.0393 21.6295 44.8079C21.6955 44.6094 21.6625 44.3945 21.58 44.3449C21.4976 44.2953 21.4646 44.1961 21.5141 44.1299C21.613 43.9646 21.1348 42.956 20.9699 42.956C20.9039 42.956 20.8709 42.6583 20.9039 42.2946C20.9699 41.7159 20.9039 41.567 20.3762 41.0379C19.8815 40.5419 19.7001 40.4592 19.3209 40.5584C19.0735 40.608 18.5953 40.7072 18.2655 40.7568C17.9192 40.8064 17.6388 40.9057 17.6388 40.9718C17.6388 41.0379 17.3915 41.1537 17.1111 41.2198C16.8143 41.286 16.501 41.3686 16.4021 41.3852C15.6105 41.5836 14.2088 42.9394 14.4232 43.2867C14.4727 43.3859 14.3737 43.452 14.1924 43.452C13.9945 43.452 13.7966 43.4685 13.7306 43.4851C13.6647 43.5181 13.5657 43.3363 13.4998 43.0882C13.3678 42.5922 12.9886 42.1292 12.6917 42.1292C12.5763 42.1292 12.5598 42.03 12.6917 41.8151C12.7907 41.6001 12.8072 41.4513 12.6917 41.3852C12.6093 41.3356 12.5763 41.1867 12.6258 41.071C12.6752 40.9387 12.6258 40.7899 12.5433 40.7238C12.4444 40.6742 12.3949 40.5584 12.4444 40.4758C12.4939 40.3931 12.3619 40.1947 12.1476 40.0293C11.9332 39.864 11.7188 39.6159 11.6693 39.4671C11.6034 39.3183 11.323 39.153 11.0427 39.0868C10.3666 38.9546 10.2182 38.9711 9.77295 39.2191ZM27.8628 43.452C27.8628 43.5347 27.8299 43.6174 27.7969 43.6174C27.7474 43.6174 27.665 43.5347 27.6155 43.452C27.566 43.3528 27.599 43.2867 27.6815 43.2867C27.7804 43.2867 27.8628 43.3528 27.8628 43.452ZM27.9288 44.2622C27.9783 44.3449 27.9123 44.4441 27.7804 44.5102C27.632 44.5598 27.533 44.5102 27.533 44.3614C27.533 44.0969 27.7969 44.0307 27.9288 44.2622ZM3.45715 44.626C3.45715 44.8575 3.17681 44.7913 3.07787 44.5433C3.01191 44.378 3.06138 44.3283 3.22628 44.3945C3.34171 44.4441 3.45715 44.5433 3.45715 44.626Z"
          fill="white"/>
</svg>
