<svg width="33" height="32" viewBox="0 0 33 32" fill="none" xmlns="http://www.w3.org/2000/svg">
    <g clip-path="url(#clip0_18_585)">
        <path d="M30.4375 2.166L18.3708 0.0383115C17.0136 -0.201001 15.7193 0.705249 15.48 2.06244L15.3658 2.71012C17.1109 2.92512 18.5852 4.18225 19.0494 5.91444L19.7868 8.66663C20.1906 8.49123 20.637 8.43875 21.0704 8.51575C21.9252 8.6665 22.581 9.28169 22.8253 10.0559C23.3197 9.41194 24.1464 9.05812 25.0012 9.20887C26.2247 9.42462 27.0416 10.5913 26.8258 11.8148C26.3571 14.4731 23.5044 16.6098 22.1506 17.4886L24.2175 25.2026C24.3255 25.6057 24.375 26.0222 24.3643 26.4394L26.1033 26.7461C27.4605 26.9854 28.7548 26.0791 28.9941 24.7219L32.4616 5.05687C32.701 3.69956 31.7947 2.40531 30.4375 2.166Z"
              fill="currentColor"/>
        <path d="M17.2417 6.39888C16.943 5.284 15.9348 4.54869 14.833 4.54875C14.6192 4.54875 14.4018 4.57644 14.1855 4.63438L2.35014 7.80563C1.01896 8.16231 0.228957 9.53063 0.585644 10.8618L5.75383 30.1499C6.05258 31.2648 7.06077 32 8.16258 32C8.37633 32 8.59371 31.9723 8.80996 31.9144L20.6453 28.7431C21.9765 28.3864 22.7665 27.0181 22.4098 25.6869L17.2417 6.39888ZM8.03189 19.5833C7.93376 19.497 7.86335 19.3835 7.82952 19.2573C7.79569 19.131 7.79995 18.9976 7.84177 18.8738L9.65152 13.5151C9.80289 13.0669 10.3618 12.9171 10.717 13.2296L14.9636 16.9655C15.0618 17.0518 15.1322 17.1653 15.166 17.2915C15.1999 17.4178 15.1956 17.5512 15.1538 17.6751L13.344 23.0337C13.1926 23.4819 12.6338 23.6318 12.2785 23.3192L8.03189 19.5833Z"
              fill="currentColor"/>
    </g>
    <defs>
        <clipPath id="clip0_18_585">
            <rect width="32" height="32" fill="currentColor" transform="translate(0.5)"/>
        </clipPath>
    </defs>
</svg>
