<svg width="743" height="995" viewBox="0 0 743 995" fill="none" xmlns="http://www.w3.org/2000/svg">
    <mask id="path-1-inside-1_13_584" fill="white">
        <path d="M12.6647 90C12.6647 40.2944 52.9591 0 102.665 0H640.335C690.041 0 730.335 40.2944 730.335 90V995H12.6647V90Z"/>
    </mask>
    <path d="M12.6647 90C12.6647 40.2944 52.9591 0 102.665 0H640.335C690.041 0 730.335 40.2944 730.335 90V995H12.6647V90Z"
          fill="white"/>
    <path d="M10.6647 90C10.6647 39.1898 51.8545 -2 102.665 -2H640.335C691.145 -2 732.335 39.1898 732.335 90H728.335C728.335 41.3989 688.936 2 640.335 2H102.665C54.0637 2 14.6647 41.3989 14.6647 90H10.6647ZM730.335 995H12.6647H730.335ZM10.6647 995V90C10.6647 39.1898 51.8545 -2 102.665 -2V2C54.0637 2 14.6647 41.3989 14.6647 90V995H10.6647ZM640.335 -2C691.145 -2 732.335 39.1898 732.335 90V995H728.335V90C728.335 41.3989 688.936 2 640.335 2V-2Z"
          fill="#323C73" mask="url(#path-1-inside-1_13_584)"/>
    <mask id="path-3-inside-2_13_584" fill="white">
        <path d="M0 462.42H12.6648V568.723H0V462.42Z"/>
    </mask>
    <path d="M0 462.42H12.6648V568.723H0V462.42Z" fill="white"/>
    <path d="M0 462.42V460.42H-2V462.42H0ZM0 568.723H-2V570.723H0V568.723ZM0 464.42H12.6648V460.42H0V464.42ZM12.6648 566.723H0V570.723H12.6648V566.723ZM2 568.723V462.42H-2V568.723H2Z"
          fill="#323C73" mask="url(#path-3-inside-2_13_584)"/>
    <mask id="path-5-inside-3_13_584" fill="white">
        <path d="M0 313.595H12.6648V419.899H0V313.595Z"/>
    </mask>
    <path d="M0 313.595H12.6648V419.899H0V313.595Z" fill="white"/>
    <path d="M0 313.595V311.595H-2V313.595H0ZM0 419.899H-2V421.899H0V419.899ZM0 315.595H12.6648V311.595H0V315.595ZM12.6648 417.899H0V421.899H12.6648V417.899ZM2 419.899V313.595H-2V419.899H2Z"
          fill="#323C73" mask="url(#path-5-inside-3_13_584)"/>
    <mask id="path-7-inside-4_13_584" fill="white">
        <path d="M730.335 334.856H743V547.463H730.335V334.856Z"/>
    </mask>
    <path d="M730.335 334.856H743V547.463H730.335V334.856Z" fill="white"/>
    <path d="M743 334.856H745V332.856H743V334.856ZM743 547.463V549.463H745V547.463H743ZM730.335 336.856H743V332.856H730.335V336.856ZM741 334.856V547.463H745V334.856H741ZM743 545.463H730.335V549.463H743V545.463Z"
          fill="#323C73" mask="url(#path-7-inside-4_13_584)"/>
    <mask id="path-9-inside-5_13_584" fill="white">
        <path d="M23 90.6304C23 46.4476 58.8172 10.6303 103 10.6303H638C682.183 10.6303 718 46.4476 718 90.6303V995H23V90.6304Z"/>
    </mask>
    <path d="M23 90.6304C23 46.4476 58.8172 10.6303 103 10.6303H638C682.183 10.6303 718 46.4476 718 90.6303V995H23V90.6304Z"
          fill="#667BF2"/>
    <path d="M21 90.6303C21 45.343 57.7127 8.63034 103 8.63034H638C683.287 8.63034 720 45.343 720 90.6303H716C716 47.5521 681.078 12.6303 638 12.6303H103C59.9218 12.6303 25 47.5521 25 90.6303H21ZM718 995H23H718ZM21 995V90.6303C21 45.343 57.7127 8.63034 103 8.63034V12.6303C59.9218 12.6303 25 47.5521 25 90.6303V995H21ZM638 8.63034C683.287 8.63034 720 45.343 720 90.6303V995H716V90.6303C716 47.5521 681.078 12.6303 638 12.6303V8.63034Z"
          fill="#323C73" mask="url(#path-9-inside-5_13_584)"/>
</svg>
