<svg width="32" height="32" viewBox="0 0 32 32" fill="none" xmlns="http://www.w3.org/2000/svg">
    <g clip-path="url(#clip0_44_2)">
        <path d="M16 27.4C12.857 27.4 10.0071 26.1213 7.94277 24.0569L10.9616 21.0384C11.4186 20.5814 11.0951 19.8 10.449 19.8H2.10341C1.75774 19.8 1.42622 19.9373 1.18179 20.1817C0.937367 20.4262 0.800049 20.7577 0.800049 21.1033V29.4489C0.800049 30.0953 1.58149 30.4185 2.03845 29.9616L5.25701 26.743C8.00965 29.495 11.8093 31.2 16 31.2C23.8749 31.2 30.3703 25.1801 31.1264 17.5008C31.2058 16.6944 30.5575 16 29.7472 16H28.7072C27.9972 16 27.4096 16.5382 27.3325 17.2441C26.7108 22.9469 21.8656 27.4 16 27.4ZM16 0.799988C8.12485 0.799988 1.62981 6.81951 0.873649 14.4992C0.794289 15.3056 1.44261 16 2.25285 16H3.29285C4.00293 16 4.59045 15.4617 4.66757 14.7558C5.28933 9.05311 10.1344 4.59999 16 4.59999C19.1431 4.59999 21.993 5.87871 24.0573 7.94271L21.0384 10.9616C20.5815 11.4185 20.905 12.2 21.5511 12.2H29.8967C30.2424 12.2 30.5739 12.0627 30.8183 11.8182C31.0627 11.5738 31.2 11.2423 31.2 10.8966V2.55103C31.2 1.90463 30.4186 1.58143 29.9616 2.03839L26.7431 5.25695C23.9904 2.50495 20.1908 0.799988 16 0.799988Z"
              fill="currentColor"/>
    </g>
    <defs>
        <clipPath id="clip0_44_2">
            <rect width="32" height="32" fill="currentColor"/>
        </clipPath>
    </defs>
</svg>
