<svg width="30" height="34" viewBox="0 0 30 34" fill="none" xmlns="http://www.w3.org/2000/svg">
    <g clip-path="url(#clip0_2_108)">
        <path d="M9.75 19C9.75 16.1005 12.1005 13.75 15 13.75C17.8995 13.75 20.25 16.1005 20.25 19C20.25 21.8995 17.8995 24.25 15 24.25C12.1005 24.25 9.75 21.8995 9.75 19Z"
              stroke="#FEEEE7" stroke-width="10.5" stroke-dasharray="4.89 32.99"/>
        <path fill-rule="evenodd" clip-rule="evenodd"
              d="M11.847 0.5H18.087V3.62H16.253V4.76C18.958 4.99968 21.5385 6.00568 23.692 7.66L25.099 6.248L27.657 8.798L26.26 10.2C28.2442 12.7235 29.3208 15.8418 29.316 19.052C29.316 26.977 22.891 33.402 14.966 33.402C7.042 33.402 0.617004 26.977 0.617004 19.052C0.617004 11.559 6.36201 5.406 13.687 4.759V3.62H11.847V0.5ZM5.617 19.052C5.60422 20.2879 5.83661 21.5141 6.30074 22.6597C6.76486 23.8052 7.45151 24.8474 8.32096 25.7259C9.19041 26.6044 10.2254 27.3017 11.3661 27.7777C12.5068 28.2536 13.7305 28.4987 14.9665 28.4987C16.2025 28.4987 17.4262 28.2536 18.5669 27.7777C19.7076 27.3017 20.7426 26.6044 21.6121 25.7259C22.4815 24.8474 23.1681 23.8052 23.6323 22.6597C24.0964 21.5141 24.3288 20.2879 24.316 19.052C24.2905 16.5891 23.2943 14.2357 21.5437 12.5031C19.7931 10.7706 17.4295 9.79869 14.9665 9.79869C12.5035 9.79869 10.1399 10.7706 8.38933 12.5031C6.63873 14.2357 5.64248 16.5891 5.617 19.052Z"
              fill="#FEEEE7"/>
    </g>
    <defs>
        <clipPath id="clip0_2_108">
            <rect width="29" height="33" fill="white" transform="translate(0.5 0.5)"/>
        </clipPath>
    </defs>
</svg>
