<svg width="621" height="324" viewBox="0 0 621 324" fill="none" xmlns="http://www.w3.org/2000/svg">
    <path d="M4 113.279C7.08048 92.4426 11.7025 71.201 11.7025 50.042C11.7025 48.7499 11.3031 44.2103 12.7485 43.2904C14.0299 42.475 21.6382 57.4673 22.6382 59.1709C25.8661 64.6704 28.9827 69.3774 32.9082 74.3857C34.1053 75.9131 36.7116 79.5552 38.2334 76.6204C41.4487 70.4194 41.1147 61.5385 42.0846 54.7491C43.9527 41.6729 44.2242 28.4295 44.2242 15.2381C44.2242 11.688 44.2242 8.13785 44.2242 4.58772C44.2242 2.20839 45.2867 7.77185 45.508 8.53407C53.7418 36.8951 58.4031 68.6478 75.0342 93.5945"
          stroke="#F4EE31" stroke-width="8" stroke-linecap="round"/>
    <path d="M493 274.611C494.902 287.879 493.786 313.891 511.163 318.734C517.955 320.627 524.97 317.916 528.945 312.268C533.829 305.327 537.687 298.213 540.261 290.206C540.94 288.094 540.836 288.858 540.974 290.586C541.326 294.982 543.17 298.96 545.206 302.806C555.753 322.728 581.698 323.203 597.745 309.653C613.723 296.16 617.302 273.593 616.953 253.881C616.729 241.235 612.999 228.479 607.872 216.985C606.388 213.658 604.258 210.718 604.258 207"
          stroke="#F4EE31" stroke-width="8" stroke-linecap="round"/>
    <path d="M121.085 238.266C98.7573 244.262 75.6307 249.998 55.6825 261.774C50.2413 264.987 50.5721 261.246 47.8425 255.658C44.1057 248.009 40.4046 240.357 36.5109 232.772C36.3819 232.521 31.7651 221.51 33.0293 221.692C39.3421 222.598 44.6891 224.056 51.297 224.248C76.0681 224.97 100.934 226.082 125.666 225.653"
          stroke="#F4EE31" stroke-width="8" stroke-linecap="round"/>
    <path d="M526.24 95.7538C548.03 88.0276 570.33 79.6339 593.438 78.0182C599.741 77.5775 597.347 74.6846 596.426 68.5343C595.165 60.1147 593.873 51.7134 592.778 43.2587C592.741 42.9785 590.298 31.2915 589.36 32.1579C584.675 36.4847 581.098 40.7187 575.765 44.6251C555.773 59.2692 535.925 74.2898 515.313 87.9639"
          stroke="#F4EE31" stroke-width="8" stroke-linecap="round"/>
</svg>
