<svg width="635" height="341" viewBox="0 0 635 341" fill="none" xmlns="http://www.w3.org/2000/svg">
    <path d="M499.865 185.462C500.903 167.042 502.222 148.573 504.346 130.245C505.418 121 505.568 110.368 512.912 103.691C517.528 99.495 523.603 97.695 529.78 97.695C545.995 97.695 559.583 105.688 571.423 116.145C575.826 120.033 580.013 124.893 585.194 127.807C591.818 131.533 599.286 107.847 600.415 104.548C607.624 83.4846 612.336 62.0437 614.187 39.8426C615.183 27.8862 614.608 15.9163 616.097 3.99789"
          stroke="#F4EE31" stroke-width="8" stroke-linecap="round"/>
    <path d="M117.961 181.904C106.049 155.434 88.4672 132.862 64.4571 116.013C51.5264 106.939 54.5815 125.934 52.4649 134.462C49.521 146.324 42.7635 161.482 33.7518 170.043C31.1994 172.468 30.7834 169.061 29.9301 166.881C23.7322 151.041 21.7127 133.71 18.0697 117.199C14.0823 99.1267 9.61775 80.954 4.10083 63.2999"
          stroke="#F4EE31" stroke-width="8" stroke-linecap="round"/>
    <path d="M504.61 294.578C504.61 289.953 511.884 281.262 516.47 280.345C521.05 279.429 526.983 280.248 531.625 280.345C544.504 280.613 551.619 287.062 559.299 296.423C568.654 307.823 582.419 323.512 595.935 309.996"
          stroke="#F4EE31" stroke-width="8" stroke-linecap="round"/>
    <path d="M88.3185 48.5239C86.768 46.6289 85.9792 44.124 84.5022 42.1028C83.5744 40.8333 81.5405 40.0318 80.3223 39.0133C77.6425 36.7728 74.7719 34.7611 71.6295 33.2282C70.6673 32.7588 67.4562 30.291 66.2079 31.1989C64.7841 32.2344 64.0373 34.9762 63.2396 36.5297C61.46 39.9953 60.7296 44.5694 61.0891 48.5239C61.8466 56.8558 68.0871 62.6397 73.5983 68.1509C74.8249 69.3775 81.6803 76.5205 82.3214 75.2384"
          stroke="#FF2727" stroke-width="8" stroke-linecap="round"/>
    <path d="M89.954 46.8884C90.2335 44.3726 93.2954 41.4813 94.8608 39.6797C97.3864 36.7728 99.8861 34.254 103.311 32.4407C109.106 29.3732 108.747 38.114 107.279 41.5576C105.464 45.8149 102.65 50.0649 100.192 53.9759C98.1727 57.1876 94.8061 59.4825 92.1348 62.1538C90.1236 64.165 87.5621 67.1488 86.6829 69.7865"
          stroke="#FF2727" stroke-width="8" stroke-linecap="round"/>
    <path d="M614.184 282.634C614.184 278.006 616.201 263.299 608.308 263.007C600.632 262.722 598.703 271.584 596.98 277.182C595.549 281.833 595.749 287.734 597.162 292.326C597.573 293.66 597.754 296.021 597.829 297.354C597.933 299.236 598.462 300.979 598.919 302.806"
          stroke="#FF2727" stroke-width="8" stroke-linecap="round"/>
    <path d="M615.275 285.36C618.637 285.36 621.999 285.36 625.361 285.36C627.062 285.36 627.463 286.874 628.632 287.783C631.577 290.073 630.839 294.322 629.116 297.384C626.758 301.577 620.505 300.432 616.91 302.806C612.447 305.753 607.386 306.077 602.19 306.077"
          stroke="#FF2727" stroke-width="8" stroke-linecap="round"/>
    <path d="M543.858 51.2858C534.648 50.9664 526.154 49.6899 518.559 55.5317C509.44 62.5458 525.734 71.428 531.086 73.6627C544.343 79.198 554.944 76.5696 566.829 69.5006C570.355 67.4033 576.749 60.6952 580.996 60.6435"
          stroke="#FF2727" stroke-width="8" stroke-linecap="round"/>
    <path d="M545.459 52.8486C544.386 44.7168 541.193 34.4018 544.892 26.45C545.864 24.3601 546.904 22.2991 547.91 20.225C549.812 16.3015 554.512 16.9861 557.213 20.4985C565.803 31.6652 564.476 48.2731 574.957 58.502"
          stroke="#FF2727" stroke-width="8" stroke-linecap="round"/>
    <path d="M20.5386 336.448C36.2697 317.716 50.4683 299.079 72.1453 287.256C74.1377 286.169 74.3648 283.56 76.4369 285.593C82.2585 291.302 87.3101 297.755 92.9596 303.617C95.5741 306.331 106.621 323.376 110.394 318.424C115.221 312.088 117.733 303.596 120.748 296.322C126.447 282.57 133.442 269.512 140.275 256.302"
          stroke="#F4EE31" stroke-width="8" stroke-linecap="round"/>
</svg>
